G04*
G04 #@! TF.GenerationSoftware,Altium Limited,Altium Designer,26.3.0 (6)*
G04*
G04 Layer_Physical_Order=4*
G04 Layer_Color=16711680*
%FSAX44Y44*%
%MOMM*%
G71*
G04*
G04 #@! TF.SameCoordinates,5578706E-CA03-45DF-AE4B-9461B21917A8*
G04*
G04*
G04 #@! TF.FilePolarity,Positive*
G04*
G01*
G75*
%ADD14C,0.2540*%
%ADD18R,0.9000X0.8000*%
%ADD20R,1.5562X1.5534*%
%ADD45R,0.7500X0.9000*%
G04:AMPARAMS|DCode=60|XSize=1mm|YSize=2.2mm|CornerRadius=0.5mm|HoleSize=0mm|Usage=FLASHONLY|Rotation=90.000|XOffset=0mm|YOffset=0mm|HoleType=Round|Shape=RoundedRectangle|*
%AMROUNDEDRECTD60*
21,1,1.0000,1.2000,0,0,90.0*
21,1,0.0000,2.2000,0,0,90.0*
1,1,1.0000,0.6000,0.0000*
1,1,1.0000,0.6000,0.0000*
1,1,1.0000,-0.6000,0.0000*
1,1,1.0000,-0.6000,0.0000*
%
%ADD60ROUNDEDRECTD60*%
G04:AMPARAMS|DCode=61|XSize=1mm|YSize=1.8mm|CornerRadius=0.5mm|HoleSize=0mm|Usage=FLASHONLY|Rotation=90.000|XOffset=0mm|YOffset=0mm|HoleType=Round|Shape=RoundedRectangle|*
%AMROUNDEDRECTD61*
21,1,1.0000,0.8000,0,0,90.0*
21,1,0.0000,1.8000,0,0,90.0*
1,1,1.0000,0.4000,0.0000*
1,1,1.0000,0.4000,0.0000*
1,1,1.0000,-0.4000,0.0000*
1,1,1.0000,-0.4000,0.0000*
%
%ADD61ROUNDEDRECTD61*%
%ADD63C,2.8000*%
%ADD65R,2.8000X2.8000*%
%ADD69C,1.0160*%
%ADD71C,0.7620*%
%ADD73C,1.5500*%
%ADD74R,1.5500X1.5500*%
%ADD75C,0.6000*%
%ADD76R,1.2000X1.2000*%
%ADD77C,1.5000*%
%ADD78C,1.2000*%
%ADD79C,6.0000*%
%ADD80R,0.8300X0.6300*%
G36*
X00952938Y00494821D02*
X00958763Y00494054D01*
X00964438Y00492533D01*
X00969866Y00490285D01*
X00974954Y00487347D01*
X00979616Y00483770D01*
X00983770Y00479616D01*
X00987347Y00474954D01*
X00990285Y00469866D01*
X00992533Y00464438D01*
X00994054Y00458763D01*
X00994821Y00452938D01*
X00994820Y00450000D01*
X00994821Y00050000D01*
X00994821Y00047062D01*
X00994054Y00041237D01*
X00992533Y00035562D01*
X00990285Y00030134D01*
X00987347Y00025045D01*
X00983770Y00020384D01*
X00979616Y00016230D01*
X00974955Y00012653D01*
X00969866Y00009715D01*
X00964438Y00007467D01*
X00958763Y00005946D01*
X00952938Y00005179D01*
X00950000D01*
X00050000Y00005179D01*
X00047062Y00005179D01*
X00041237Y00005946D01*
X00035562Y00007467D01*
X00030134Y00009715D01*
X00025045Y00012653D01*
X00020384Y00016230D01*
X00016230Y00020384D01*
X00012653Y00025045D01*
X00009715Y00030134D01*
X00007467Y00035562D01*
X00005946Y00041237D01*
X00005179Y00047062D01*
Y00050000D01*
X00005179Y00450000D01*
Y00452938D01*
X00005946Y00458763D01*
X00007467Y00464438D01*
X00009715Y00469866D01*
X00012653Y00474954D01*
X00016230Y00479616D01*
X00020384Y00483770D01*
X00025045Y00487347D01*
X00030134Y00490285D01*
X00035562Y00492533D01*
X00041237Y00494054D01*
X00047062Y00494821D01*
X00050000Y00494821D01*
X00950000Y00494821D01*
X00952938Y00494821D01*
D02*
G37*
%LPC*%
G36*
X00595995Y00479776D02*
X00594005D01*
X00592168Y00479015D01*
X00590761Y00477609D01*
X00590000Y00475771D01*
Y00473782D01*
X00590761Y00471944D01*
X00592168Y00470537D01*
X00594005Y00469776D01*
X00595995D01*
X00597832Y00470537D01*
X00599239Y00471944D01*
X00600000Y00473782D01*
Y00475771D01*
X00599239Y00477609D01*
X00597832Y00479015D01*
X00595995Y00479776D01*
D02*
G37*
G36*
X00580995D02*
X00579005D01*
X00577168Y00479015D01*
X00575761Y00477609D01*
X00575000Y00475771D01*
Y00473782D01*
X00575761Y00471944D01*
X00577168Y00470537D01*
X00579005Y00469776D01*
X00580995D01*
X00582832Y00470537D01*
X00584239Y00471944D01*
X00585000Y00473782D01*
Y00475771D01*
X00584239Y00477609D01*
X00582832Y00479015D01*
X00580995Y00479776D01*
D02*
G37*
G36*
X00541322Y00470040D02*
X00541270D01*
Y00461270D01*
X00550040D01*
Y00461322D01*
X00549356Y00463875D01*
X00548034Y00466165D01*
X00546165Y00468034D01*
X00543875Y00469356D01*
X00541322Y00470040D01*
D02*
G37*
G36*
X00538730D02*
X00538678D01*
X00536125Y00469356D01*
X00533835Y00468034D01*
X00531966Y00466165D01*
X00530644Y00463875D01*
X00529960Y00461322D01*
Y00461270D01*
X00538730D01*
Y00470040D01*
D02*
G37*
G36*
X00331355Y00472790D02*
X00328645D01*
X00326028Y00472089D01*
X00323682Y00470734D01*
X00321766Y00468818D01*
X00320411Y00466472D01*
X00319710Y00463855D01*
Y00461145D01*
X00320411Y00458528D01*
X00321766Y00456182D01*
X00323682Y00454266D01*
X00326028Y00452911D01*
X00328645Y00452210D01*
X00331355D01*
X00333972Y00452911D01*
X00336318Y00454266D01*
X00338234Y00456182D01*
X00339589Y00458528D01*
X00340290Y00461145D01*
Y00463855D01*
X00339589Y00466472D01*
X00338234Y00468818D01*
X00336318Y00470734D01*
X00333972Y00472089D01*
X00331355Y00472790D01*
D02*
G37*
G36*
X00550040Y00458730D02*
X00541270D01*
Y00449960D01*
X00541322D01*
X00543875Y00450644D01*
X00546165Y00451966D01*
X00548034Y00453835D01*
X00549356Y00456125D01*
X00550040Y00458678D01*
Y00458730D01*
D02*
G37*
G36*
X00538730D02*
X00529960D01*
Y00458678D01*
X00530644Y00456125D01*
X00531966Y00453835D01*
X00533835Y00451966D01*
X00536125Y00450644D01*
X00538678Y00449960D01*
X00538730D01*
Y00458730D01*
D02*
G37*
G36*
X00220230Y00444540D02*
X00215210D01*
Y00438770D01*
X00220230D01*
Y00444540D01*
D02*
G37*
G36*
X00136755Y00440290D02*
X00136670D01*
Y00431270D01*
X00145690D01*
Y00431355D01*
X00144989Y00433972D01*
X00143634Y00436318D01*
X00141718Y00438234D01*
X00139372Y00439589D01*
X00136755Y00440290D01*
D02*
G37*
G36*
X00134130D02*
X00134045D01*
X00131428Y00439589D01*
X00129082Y00438234D01*
X00127166Y00436318D01*
X00125811Y00433972D01*
X00125110Y00431355D01*
Y00431270D01*
X00134130D01*
Y00440290D01*
D02*
G37*
G36*
X00239790Y00444540D02*
X00222770D01*
Y00437500D01*
Y00434173D01*
X00225219Y00436623D01*
X00225238Y00436263D01*
X00225291Y00435904D01*
X00225381Y00435545D01*
X00225507Y00435186D01*
X00225669Y00434827D01*
X00225866Y00434467D01*
X00226100Y00434108D01*
X00226369Y00433749D01*
X00226674Y00433390D01*
X00227016Y00433031D01*
X00225219Y00431234D01*
X00224860Y00431576D01*
X00224501Y00431881D01*
X00224142Y00432150D01*
X00223783Y00432384D01*
X00223424Y00432581D01*
X00223064Y00432743D01*
X00222770Y00432846D01*
Y00430460D01*
X00233434D01*
X00233498Y00430444D01*
X00233729Y00430432D01*
X00233838Y00430416D01*
X00233962Y00430385D01*
X00234103Y00430336D01*
X00234266Y00430262D01*
X00234451Y00430161D01*
X00234657Y00430027D01*
X00234884Y00429857D01*
X00234988Y00429768D01*
X00255263Y00409493D01*
X00256523Y00408651D01*
X00257609Y00408435D01*
X00257740Y00408394D01*
X00257791Y00408399D01*
X00258010Y00408355D01*
X00258284D01*
X00258423Y00408215D01*
X00258474Y00408194D01*
X00258514Y00408156D01*
X00258938Y00408000D01*
X00259356Y00407825D01*
X00259392Y00407825D01*
X00259687Y00407531D01*
X00261525Y00406769D01*
X00263514D01*
X00265351Y00407531D01*
X00266758Y00408937D01*
X00267519Y00410775D01*
Y00412764D01*
X00266758Y00414602D01*
X00265351Y00416008D01*
X00263514Y00416769D01*
X00261525D01*
X00260837Y00416485D01*
X00260781Y00416483D01*
X00260724Y00416501D01*
X00260278Y00416463D01*
X00259831Y00416446D01*
X00259777Y00416421D01*
X00259717Y00416415D01*
X00259461Y00416283D01*
X00240482Y00435261D01*
X00240393Y00435366D01*
X00240224Y00435592D01*
X00240089Y00435799D01*
X00239988Y00435984D01*
X00239914Y00436147D01*
X00239865Y00436288D01*
X00239834Y00436412D01*
X00239818Y00436521D01*
X00239806Y00436752D01*
X00239790Y00436816D01*
Y00444540D01*
D02*
G37*
G36*
X00220230Y00436230D02*
X00215210D01*
Y00430460D01*
X00220230D01*
Y00436230D01*
D02*
G37*
G36*
X00520995Y00440000D02*
X00519005D01*
X00517168Y00439239D01*
X00515761Y00437832D01*
X00515000Y00435995D01*
Y00434005D01*
X00515761Y00432168D01*
X00517168Y00430761D01*
X00519005Y00430000D01*
X00520995D01*
X00522832Y00430761D01*
X00524239Y00432168D01*
X00525000Y00434005D01*
Y00435995D01*
X00524239Y00437832D01*
X00522832Y00439239D01*
X00520995Y00440000D01*
D02*
G37*
G36*
X00433495D02*
X00431505D01*
X00429668Y00439239D01*
X00428261Y00437832D01*
X00427500Y00435995D01*
Y00434005D01*
X00428261Y00432168D01*
X00429668Y00430761D01*
X00431505Y00430000D01*
X00433495D01*
X00435332Y00430761D01*
X00436739Y00432168D01*
X00437500Y00434005D01*
Y00435995D01*
X00436739Y00437832D01*
X00435332Y00439239D01*
X00433495Y00440000D01*
D02*
G37*
G36*
X00385995D02*
X00384005D01*
X00382168Y00439239D01*
X00380761Y00437832D01*
X00380000Y00435995D01*
Y00434005D01*
X00380761Y00432168D01*
X00382168Y00430761D01*
X00384005Y00430000D01*
X00385995D01*
X00387832Y00430761D01*
X00389239Y00432168D01*
X00390000Y00434005D01*
Y00435995D01*
X00389239Y00437832D01*
X00387832Y00439239D01*
X00385995Y00440000D01*
D02*
G37*
G36*
X00368495D02*
X00366505D01*
X00364668Y00439239D01*
X00363261Y00437832D01*
X00362500Y00435995D01*
Y00434005D01*
X00363261Y00432168D01*
X00364668Y00430761D01*
X00366505Y00430000D01*
X00368495D01*
X00370332Y00430761D01*
X00371739Y00432168D01*
X00372500Y00434005D01*
Y00435995D01*
X00371739Y00437832D01*
X00370332Y00439239D01*
X00368495Y00440000D01*
D02*
G37*
G36*
X00145690Y00428730D02*
X00136670D01*
Y00419710D01*
X00136755D01*
X00139372Y00420411D01*
X00141718Y00421766D01*
X00143634Y00423682D01*
X00144989Y00426028D01*
X00145690Y00428645D01*
Y00428730D01*
D02*
G37*
G36*
X00134130D02*
X00125110D01*
Y00428645D01*
X00125811Y00426028D01*
X00127166Y00423682D01*
X00129082Y00421766D01*
X00131428Y00420411D01*
X00134045Y00419710D01*
X00134130D01*
Y00428730D01*
D02*
G37*
G36*
X00120290Y00440290D02*
X00099710D01*
Y00419710D01*
X00120290D01*
Y00440290D01*
D02*
G37*
G36*
X00952561Y00482540D02*
X00947439D01*
X00942380Y00481739D01*
X00937509Y00480156D01*
X00932945Y00477831D01*
X00928802Y00474820D01*
X00925180Y00471198D01*
X00922169Y00467055D01*
X00919844Y00462491D01*
X00918261Y00457620D01*
X00917460Y00452561D01*
Y00447439D01*
X00918261Y00442380D01*
X00919844Y00437509D01*
X00922169Y00432945D01*
X00925180Y00428802D01*
X00928802Y00425180D01*
X00932945Y00422169D01*
X00937509Y00419844D01*
X00942380Y00418261D01*
X00947439Y00417460D01*
X00952561D01*
X00957620Y00418261D01*
X00962491Y00419844D01*
X00967055Y00422169D01*
X00971198Y00425180D01*
X00974820Y00428802D01*
X00977831Y00432945D01*
X00980156Y00437509D01*
X00981739Y00442380D01*
X00982540Y00447439D01*
Y00452561D01*
X00981739Y00457620D01*
X00980156Y00462491D01*
X00977831Y00467055D01*
X00974820Y00471198D01*
X00971198Y00474820D01*
X00967055Y00477831D01*
X00962491Y00480156D01*
X00957620Y00481739D01*
X00952561Y00482540D01*
D02*
G37*
G36*
X00052561D02*
X00047439D01*
X00042380Y00481739D01*
X00037509Y00480156D01*
X00032945Y00477831D01*
X00028802Y00474820D01*
X00025180Y00471198D01*
X00022169Y00467055D01*
X00019844Y00462491D01*
X00018261Y00457620D01*
X00017460Y00452561D01*
Y00447439D01*
X00018261Y00442380D01*
X00019844Y00437509D01*
X00022169Y00432945D01*
X00025180Y00428802D01*
X00028802Y00425180D01*
X00032945Y00422169D01*
X00037509Y00419844D01*
X00042380Y00418261D01*
X00047439Y00417460D01*
X00052561D01*
X00057620Y00418261D01*
X00062491Y00419844D01*
X00067055Y00422169D01*
X00071198Y00425180D01*
X00074820Y00428802D01*
X00077831Y00432945D01*
X00080156Y00437509D01*
X00081739Y00442380D01*
X00082540Y00447439D01*
Y00452561D01*
X00081739Y00457620D01*
X00080156Y00462491D01*
X00077831Y00467055D01*
X00074820Y00471198D01*
X00071198Y00474820D01*
X00067055Y00477831D01*
X00062491Y00480156D01*
X00057620Y00481739D01*
X00052561Y00482540D01*
D02*
G37*
G36*
X00220230Y00419540D02*
X00215210D01*
Y00413770D01*
X00220230D01*
Y00419540D01*
D02*
G37*
G36*
X00239790D02*
X00222770D01*
Y00412500D01*
Y00409173D01*
X00225219Y00411623D01*
X00225238Y00411263D01*
X00225291Y00410904D01*
X00225381Y00410545D01*
X00225507Y00410186D01*
X00225669Y00409827D01*
X00225866Y00409467D01*
X00226100Y00409108D01*
X00226369Y00408749D01*
X00226674Y00408390D01*
X00227016Y00408031D01*
X00225219Y00406234D01*
X00224860Y00406576D01*
X00224501Y00406881D01*
X00224142Y00407150D01*
X00223783Y00407384D01*
X00223424Y00407581D01*
X00223064Y00407743D01*
X00222770Y00407846D01*
Y00405460D01*
X00233434D01*
X00233498Y00405444D01*
X00233729Y00405432D01*
X00233838Y00405416D01*
X00233962Y00405385D01*
X00234103Y00405336D01*
X00234266Y00405262D01*
X00234451Y00405161D01*
X00234657Y00405027D01*
X00234884Y00404857D01*
X00234988Y00404768D01*
X00254532Y00385224D01*
X00255793Y00384382D01*
X00257279Y00384086D01*
X00258102D01*
X00258373Y00383858D01*
X00258701Y00383555D01*
X00258758Y00383534D01*
X00258804Y00383494D01*
X00259230Y00383359D01*
X00259648Y00383204D01*
X00259709Y00383207D01*
X00259767Y00383188D01*
X00259831Y00383194D01*
X00261505Y00382500D01*
X00263495D01*
X00265332Y00383261D01*
X00266739Y00384668D01*
X00267500Y00386506D01*
Y00388495D01*
X00266739Y00390332D01*
X00265332Y00391739D01*
X00263495Y00392500D01*
X00261505D01*
X00261298Y00392414D01*
X00261199Y00392454D01*
X00261158Y00392454D01*
X00261120Y00392468D01*
X00260655Y00392450D01*
X00260188Y00392446D01*
X00260151Y00392430D01*
X00260110Y00392429D01*
X00259687Y00392234D01*
X00259258Y00392052D01*
X00259156Y00391983D01*
X00259133Y00391969D01*
X00259095Y00391952D01*
X00259040Y00391931D01*
X00258965Y00391908D01*
X00258869Y00391885D01*
X00258860Y00391883D01*
X00240482Y00410261D01*
X00240393Y00410366D01*
X00240224Y00410592D01*
X00240089Y00410799D01*
X00239988Y00410984D01*
X00239914Y00411147D01*
X00239865Y00411288D01*
X00239834Y00411412D01*
X00239818Y00411521D01*
X00239806Y00411752D01*
X00239790Y00411816D01*
Y00419540D01*
D02*
G37*
G36*
X00220230Y00411230D02*
X00215210D01*
Y00405460D01*
X00220230D01*
Y00411230D01*
D02*
G37*
G36*
X00907750Y00402080D02*
X00907654Y00402061D01*
X00907495D01*
X00907460Y00402064D01*
X00907451Y00402061D01*
X00889679D01*
Y00399661D01*
X00889674Y00399645D01*
X00889630Y00399224D01*
X00889610Y00399169D01*
X00889578Y00399121D01*
X00889458Y00399010D01*
X00889171Y00398834D01*
X00888676Y00398632D01*
X00887965Y00398440D01*
X00887045Y00398287D01*
X00886378Y00398228D01*
X00879190D01*
Y00400690D01*
X00875414D01*
X00874978Y00400982D01*
X00872500Y00401474D01*
X00870022Y00400982D01*
X00869586Y00400690D01*
X00865810D01*
Y00389310D01*
X00869034D01*
X00871168Y00387176D01*
X00873269Y00385772D01*
X00875746Y00385279D01*
X00886378D01*
X00887045Y00385220D01*
X00887965Y00385067D01*
X00888676Y00384876D01*
X00889171Y00384673D01*
X00889458Y00384498D01*
X00889578Y00384386D01*
X00889610Y00384338D01*
X00889630Y00384283D01*
X00889674Y00383862D01*
X00889679Y00383846D01*
Y00381447D01*
Y00377463D01*
X00890344Y00377736D01*
X00891030Y00378155D01*
X00891564Y00378650D01*
X00891945Y00379222D01*
X00892173Y00379869D01*
X00892250Y00380593D01*
Y00374516D01*
X00900000D01*
X00907750D01*
Y00380120D01*
X00907827Y00379396D01*
X00908055Y00378748D01*
X00908436Y00378177D01*
X00908970Y00377682D01*
X00909656Y00377262D01*
X00910321Y00376990D01*
Y00381447D01*
Y00384220D01*
X00910326Y00384236D01*
X00910370Y00384656D01*
X00910390Y00384711D01*
X00910422Y00384760D01*
X00910542Y00384871D01*
X00910829Y00385046D01*
X00911324Y00385249D01*
X00912035Y00385440D01*
X00912955Y00385593D01*
X00913622Y00385652D01*
X00925225D01*
X00925287Y00385649D01*
X00927204Y00384542D01*
X00929376Y00383960D01*
X00931624D01*
X00933796Y00384542D01*
X00935744Y00385666D01*
X00937334Y00387256D01*
X00938458Y00389204D01*
X00939040Y00391376D01*
Y00393624D01*
X00938458Y00395796D01*
X00937334Y00397744D01*
X00935744Y00399334D01*
X00933796Y00400458D01*
X00931624Y00401040D01*
X00929376D01*
X00927204Y00400458D01*
X00925256Y00399334D01*
X00924595Y00398672D01*
X00923576Y00398601D01*
X00913554D01*
X00912933Y00398652D01*
X00912000Y00398797D01*
X00911273Y00398980D01*
X00910765Y00399174D01*
X00910473Y00399340D01*
X00910364Y00399434D01*
X00910363Y00399436D01*
X00910324Y00399781D01*
X00910321Y00399790D01*
Y00402061D01*
X00907848D01*
X00907750Y00402080D01*
D02*
G37*
G36*
X00851495Y00411500D02*
X00849505D01*
X00847668Y00410739D01*
X00846261Y00409332D01*
X00845500Y00407495D01*
Y00405505D01*
X00846261Y00403668D01*
X00847668Y00402261D01*
X00849505Y00401500D01*
X00851495D01*
X00853332Y00402261D01*
X00854739Y00403668D01*
X00855500Y00405505D01*
Y00407495D01*
X00854739Y00409332D01*
X00853332Y00410739D01*
X00851495Y00411500D01*
D02*
G37*
G36*
X00663495Y00402500D02*
X00661505D01*
X00659668Y00401739D01*
X00658261Y00400332D01*
X00657500Y00398495D01*
Y00396505D01*
X00658261Y00394668D01*
X00659668Y00393261D01*
X00661505Y00392500D01*
X00663495D01*
X00665332Y00393261D01*
X00666739Y00394668D01*
X00667500Y00396505D01*
Y00398495D01*
X00666739Y00400332D01*
X00665332Y00401739D01*
X00663495Y00402500D01*
D02*
G37*
G36*
X00520995Y00400000D02*
X00519005D01*
X00517168Y00399239D01*
X00515761Y00397832D01*
X00515000Y00395995D01*
Y00394005D01*
X00515761Y00392168D01*
X00517168Y00390761D01*
X00519005Y00390000D01*
X00520995D01*
X00522832Y00390761D01*
X00524239Y00392168D01*
X00525000Y00394005D01*
Y00395995D01*
X00524239Y00397832D01*
X00522832Y00399239D01*
X00520995Y00400000D01*
D02*
G37*
G36*
X00220230Y00394540D02*
X00215210D01*
Y00388770D01*
X00220230D01*
Y00394540D01*
D02*
G37*
G36*
X00239790D02*
X00222770D01*
Y00387500D01*
Y00384173D01*
X00225219Y00386623D01*
X00225238Y00386263D01*
X00225291Y00385904D01*
X00225381Y00385545D01*
X00225507Y00385186D01*
X00225669Y00384827D01*
X00225866Y00384467D01*
X00226100Y00384108D01*
X00226369Y00383749D01*
X00226674Y00383390D01*
X00227016Y00383031D01*
X00225219Y00381234D01*
X00224860Y00381576D01*
X00224501Y00381881D01*
X00224142Y00382150D01*
X00223783Y00382384D01*
X00223424Y00382581D01*
X00223064Y00382743D01*
X00222770Y00382846D01*
Y00380460D01*
X00233434D01*
X00233498Y00380444D01*
X00233729Y00380432D01*
X00233838Y00380416D01*
X00233962Y00380385D01*
X00234103Y00380336D01*
X00234266Y00380262D01*
X00234451Y00380161D01*
X00234657Y00380027D01*
X00234884Y00379857D01*
X00234988Y00379768D01*
X00254532Y00360224D01*
X00255793Y00359382D01*
X00257279Y00359086D01*
X00258102D01*
X00258373Y00358858D01*
X00258701Y00358555D01*
X00258758Y00358534D01*
X00258804Y00358494D01*
X00259230Y00358359D01*
X00259648Y00358204D01*
X00259709Y00358207D01*
X00259767Y00358188D01*
X00259831Y00358194D01*
X00261505Y00357500D01*
X00263495D01*
X00265332Y00358261D01*
X00266739Y00359668D01*
X00267500Y00361505D01*
Y00363495D01*
X00266739Y00365332D01*
X00265332Y00366739D01*
X00263495Y00367500D01*
X00261505D01*
X00261298Y00367414D01*
X00261199Y00367454D01*
X00261158Y00367454D01*
X00261120Y00367468D01*
X00260655Y00367450D01*
X00260188Y00367446D01*
X00260151Y00367430D01*
X00260110Y00367429D01*
X00259687Y00367234D01*
X00259258Y00367052D01*
X00259156Y00366983D01*
X00259133Y00366969D01*
X00259095Y00366952D01*
X00259040Y00366931D01*
X00258965Y00366908D01*
X00258869Y00366885D01*
X00258860Y00366883D01*
X00240482Y00385261D01*
X00240393Y00385366D01*
X00240224Y00385592D01*
X00240089Y00385799D01*
X00239988Y00385984D01*
X00239914Y00386147D01*
X00239865Y00386288D01*
X00239834Y00386412D01*
X00239818Y00386521D01*
X00239806Y00386752D01*
X00239790Y00386816D01*
Y00394540D01*
D02*
G37*
G36*
X00220230Y00386230D02*
X00215210D01*
Y00380460D01*
X00220230D01*
Y00386230D01*
D02*
G37*
G36*
X00136755Y00400290D02*
X00134045D01*
X00131428Y00399589D01*
X00129082Y00398234D01*
X00127166Y00396318D01*
X00125811Y00393972D01*
X00125110Y00391355D01*
Y00388645D01*
X00125811Y00386028D01*
X00127166Y00383682D01*
X00129082Y00381766D01*
X00131428Y00380411D01*
X00134045Y00379710D01*
X00136755D01*
X00139372Y00380411D01*
X00141718Y00381766D01*
X00143634Y00383682D01*
X00144989Y00386028D01*
X00145690Y00388645D01*
Y00391355D01*
X00144989Y00393972D01*
X00143634Y00396318D01*
X00141718Y00398234D01*
X00139372Y00399589D01*
X00136755Y00400290D01*
D02*
G37*
G36*
X00120290D02*
X00099710D01*
Y00379710D01*
X00120290D01*
Y00400290D01*
D02*
G37*
G36*
X00418495Y00387500D02*
X00416505D01*
X00414668Y00386739D01*
X00413261Y00385332D01*
X00412500Y00383495D01*
Y00381505D01*
X00413261Y00379668D01*
X00414668Y00378261D01*
X00416505Y00377500D01*
X00418495D01*
X00420332Y00378261D01*
X00421739Y00379668D01*
X00422500Y00381505D01*
Y00383495D01*
X00421739Y00385332D01*
X00420332Y00386739D01*
X00418495Y00387500D01*
D02*
G37*
G36*
X00353495D02*
X00351505D01*
X00349668Y00386739D01*
X00348261Y00385332D01*
X00347500Y00383495D01*
Y00381505D01*
X00348261Y00379668D01*
X00349668Y00378261D01*
X00351505Y00377500D01*
X00353495D01*
X00355332Y00378261D01*
X00356739Y00379668D01*
X00357500Y00381505D01*
Y00383495D01*
X00356739Y00385332D01*
X00355332Y00386739D01*
X00353495Y00387500D01*
D02*
G37*
G36*
X00879190Y00378390D02*
X00873770D01*
Y00373970D01*
X00879190D01*
Y00378390D01*
D02*
G37*
G36*
X00871230D02*
X00865810D01*
Y00373970D01*
X00871230D01*
Y00378390D01*
D02*
G37*
G36*
X00939040Y00381040D02*
X00931770D01*
Y00373770D01*
X00939040D01*
Y00381040D01*
D02*
G37*
G36*
X00929230D02*
X00921960D01*
Y00376696D01*
X00922626Y00376850D01*
X00923311Y00377087D01*
X00923845Y00377368D01*
X00924226Y00377692D01*
X00924454Y00378059D01*
X00924530Y00378470D01*
Y00373770D01*
X00929230D01*
Y00381040D01*
D02*
G37*
G36*
X00814109Y00367686D02*
X00813660Y00367627D01*
X00800448D01*
X00800000Y00367686D01*
X00737500D01*
X00737500Y00367686D01*
X00735511Y00367424D01*
X00733657Y00366656D01*
X00732065Y00365435D01*
X00689316Y00322686D01*
X00580000D01*
X00578011Y00322424D01*
X00576157Y00321656D01*
X00574565Y00320435D01*
X00573344Y00318843D01*
X00572576Y00316989D01*
X00572314Y00315000D01*
X00572576Y00313011D01*
X00573344Y00311157D01*
X00574565Y00309565D01*
X00576157Y00308344D01*
X00578011Y00307576D01*
X00580000Y00307314D01*
X00692500D01*
X00694489Y00307576D01*
X00696343Y00308344D01*
X00697935Y00309565D01*
X00740684Y00352314D01*
X00799611D01*
X00800059Y00352255D01*
X00800059Y00352255D01*
X00814050D01*
X00814498Y00352314D01*
X00827500D01*
X00829489Y00352576D01*
X00831343Y00353344D01*
X00832935Y00354565D01*
X00834156Y00356157D01*
X00834924Y00358011D01*
X00835186Y00360000D01*
X00834924Y00361989D01*
X00834156Y00363843D01*
X00832935Y00365435D01*
X00831343Y00366656D01*
X00829489Y00367424D01*
X00827500Y00367686D01*
X00814109D01*
X00814109Y00367686D01*
D02*
G37*
G36*
X00879190Y00371430D02*
X00873770D01*
Y00367010D01*
X00879190D01*
Y00371430D01*
D02*
G37*
G36*
X00871230D02*
X00865810D01*
Y00367010D01*
X00871230D01*
Y00371430D01*
D02*
G37*
G36*
X00929230Y00371230D02*
X00924530D01*
Y00366530D01*
X00924454Y00366941D01*
X00924226Y00367308D01*
X00923845Y00367632D01*
X00923311Y00367913D01*
X00922626Y00368150D01*
X00921960Y00368304D01*
Y00363960D01*
X00929230D01*
Y00371230D01*
D02*
G37*
G36*
X00898730Y00371976D02*
X00892250D01*
Y00365510D01*
X00892173Y00366204D01*
X00891945Y00366825D01*
X00891564Y00367373D01*
X00891030Y00367848D01*
X00890344Y00368250D01*
X00889679Y00368511D01*
Y00362939D01*
X00898730D01*
Y00371976D01*
D02*
G37*
G36*
X00939040Y00371230D02*
X00931770D01*
Y00363960D01*
X00939040D01*
Y00371230D01*
D02*
G37*
G36*
X00220230Y00369540D02*
X00215210D01*
Y00363770D01*
X00220230D01*
Y00369540D01*
D02*
G37*
G36*
X00907750Y00371976D02*
X00901270D01*
Y00362939D01*
X00910321D01*
Y00368122D01*
X00909656Y00367895D01*
X00908970Y00367545D01*
X00908436Y00367132D01*
X00908055Y00366655D01*
X00907827Y00366114D01*
X00907750Y00365510D01*
Y00371976D01*
D02*
G37*
G36*
X00723495Y00370000D02*
X00721505D01*
X00719668Y00369239D01*
X00718261Y00367832D01*
X00717500Y00365995D01*
Y00364005D01*
X00718261Y00362168D01*
X00719668Y00360761D01*
X00721505Y00360000D01*
X00723495D01*
X00725332Y00360761D01*
X00726739Y00362168D01*
X00727500Y00364005D01*
Y00365995D01*
X00726739Y00367832D01*
X00725332Y00369239D01*
X00723495Y00370000D01*
D02*
G37*
G36*
X00671995Y00369000D02*
X00670005D01*
X00668168Y00368239D01*
X00666761Y00366832D01*
X00666000Y00364995D01*
Y00363005D01*
X00666761Y00361168D01*
X00668168Y00359761D01*
X00670005Y00359000D01*
X00671995D01*
X00673832Y00359761D01*
X00675239Y00361168D01*
X00676000Y00363005D01*
Y00364995D01*
X00675239Y00366832D01*
X00673832Y00368239D01*
X00671995Y00369000D01*
D02*
G37*
G36*
X00239790Y00369540D02*
X00222770D01*
Y00362500D01*
Y00359173D01*
X00225219Y00361623D01*
X00225238Y00361263D01*
X00225291Y00360904D01*
X00225381Y00360545D01*
X00225507Y00360186D01*
X00225669Y00359827D01*
X00225866Y00359467D01*
X00226100Y00359108D01*
X00226369Y00358749D01*
X00226674Y00358390D01*
X00227016Y00358031D01*
X00225219Y00356234D01*
X00224860Y00356576D01*
X00224501Y00356881D01*
X00224142Y00357150D01*
X00223783Y00357384D01*
X00223424Y00357581D01*
X00223064Y00357743D01*
X00222770Y00357846D01*
Y00355460D01*
X00233434D01*
X00233498Y00355444D01*
X00233729Y00355432D01*
X00233838Y00355416D01*
X00233962Y00355385D01*
X00234103Y00355336D01*
X00234266Y00355262D01*
X00234451Y00355161D01*
X00234657Y00355027D01*
X00234884Y00354857D01*
X00234988Y00354768D01*
X00258145Y00331612D01*
Y00331319D01*
X00258136Y00331250D01*
X00258115Y00331131D01*
X00258092Y00331035D01*
X00258069Y00330960D01*
X00258048Y00330905D01*
X00258030Y00330867D01*
X00258017Y00330844D01*
X00257948Y00330742D01*
X00257766Y00330313D01*
X00257571Y00329890D01*
X00257570Y00329849D01*
X00257554Y00329812D01*
X00257550Y00329346D01*
X00257532Y00328880D01*
X00257546Y00328842D01*
X00257546Y00328801D01*
X00257586Y00328702D01*
X00257500Y00328495D01*
Y00326505D01*
X00258261Y00324668D01*
X00259668Y00323261D01*
X00261505Y00322500D01*
X00263495D01*
X00265332Y00323261D01*
X00266739Y00324668D01*
X00267500Y00326505D01*
Y00328495D01*
X00266806Y00330169D01*
X00266812Y00330233D01*
X00266793Y00330291D01*
X00266796Y00330352D01*
X00266641Y00330770D01*
X00266506Y00331196D01*
X00266467Y00331242D01*
X00266445Y00331300D01*
X00266142Y00331627D01*
X00265914Y00331898D01*
Y00333221D01*
X00265618Y00334707D01*
X00264776Y00335967D01*
X00240482Y00360261D01*
X00240393Y00360366D01*
X00240224Y00360592D01*
X00240089Y00360799D01*
X00239988Y00360984D01*
X00239914Y00361147D01*
X00239865Y00361288D01*
X00239834Y00361412D01*
X00239818Y00361521D01*
X00239806Y00361752D01*
X00239790Y00361816D01*
Y00369540D01*
D02*
G37*
G36*
X00220230Y00361230D02*
X00215210D01*
Y00355460D01*
X00220230D01*
Y00361230D01*
D02*
G37*
G36*
X00885495Y00364500D02*
X00883505D01*
X00881668Y00363739D01*
X00880261Y00362332D01*
X00879500Y00360494D01*
Y00358505D01*
X00880261Y00356668D01*
X00881668Y00355261D01*
X00883505Y00354500D01*
X00885495D01*
X00887332Y00355261D01*
X00888739Y00356668D01*
X00889500Y00358505D01*
Y00360494D01*
X00888739Y00362332D01*
X00887332Y00363739D01*
X00885495Y00364500D01*
D02*
G37*
G36*
X00869495D02*
X00867505D01*
X00865668Y00363739D01*
X00864261Y00362332D01*
X00863500Y00360494D01*
Y00358505D01*
X00864261Y00356668D01*
X00865668Y00355261D01*
X00867505Y00354500D01*
X00869495D01*
X00871332Y00355261D01*
X00872739Y00356668D01*
X00873500Y00358505D01*
Y00360494D01*
X00872739Y00362332D01*
X00871332Y00363739D01*
X00869495Y00364500D01*
D02*
G37*
G36*
X00852495D02*
X00850505D01*
X00848668Y00363739D01*
X00847261Y00362332D01*
X00846500Y00360494D01*
Y00358505D01*
X00847261Y00356668D01*
X00848668Y00355261D01*
X00850505Y00354500D01*
X00852495D01*
X00854332Y00355261D01*
X00855739Y00356668D01*
X00856500Y00358505D01*
Y00360494D01*
X00855739Y00362332D01*
X00854332Y00363739D01*
X00852495Y00364500D01*
D02*
G37*
G36*
X00595995Y00355000D02*
X00594005D01*
X00592168Y00354239D01*
X00590761Y00352832D01*
X00590000Y00350995D01*
Y00349005D01*
X00590761Y00347168D01*
X00592168Y00345761D01*
X00594005Y00345000D01*
X00595995D01*
X00597832Y00345761D01*
X00599239Y00347168D01*
X00600000Y00349005D01*
Y00350995D01*
X00599239Y00352832D01*
X00597832Y00354239D01*
X00595995Y00355000D01*
D02*
G37*
G36*
X00580995D02*
X00579005D01*
X00577168Y00354239D01*
X00575761Y00352832D01*
X00575000Y00350995D01*
Y00349005D01*
X00575761Y00347168D01*
X00577168Y00345761D01*
X00579005Y00345000D01*
X00580995D01*
X00582832Y00345761D01*
X00584239Y00347168D01*
X00585000Y00349005D01*
Y00350995D01*
X00584239Y00352832D01*
X00582832Y00354239D01*
X00580995Y00355000D01*
D02*
G37*
G36*
X00136755Y00360290D02*
X00134045D01*
X00131428Y00359589D01*
X00129082Y00358234D01*
X00127166Y00356318D01*
X00125811Y00353972D01*
X00125110Y00351355D01*
Y00348645D01*
X00125811Y00346028D01*
X00127166Y00343682D01*
X00129082Y00341766D01*
X00131428Y00340411D01*
X00134045Y00339710D01*
X00136755D01*
X00139372Y00340411D01*
X00141718Y00341766D01*
X00143634Y00343682D01*
X00144989Y00346028D01*
X00145690Y00348645D01*
Y00351355D01*
X00144989Y00353972D01*
X00143634Y00356318D01*
X00141718Y00358234D01*
X00139372Y00359589D01*
X00136755Y00360290D01*
D02*
G37*
G36*
X00120290D02*
X00099710D01*
Y00339710D01*
X00120290D01*
Y00360290D01*
D02*
G37*
G36*
X00220230Y00344540D02*
X00215210D01*
Y00338770D01*
X00220230D01*
Y00344540D01*
D02*
G37*
G36*
X00239790D02*
X00222770D01*
Y00337500D01*
Y00334173D01*
X00225219Y00336623D01*
X00225238Y00336263D01*
X00225291Y00335904D01*
X00225381Y00335545D01*
X00225507Y00335186D01*
X00225669Y00334827D01*
X00225866Y00334467D01*
X00226100Y00334108D01*
X00226369Y00333749D01*
X00226674Y00333390D01*
X00227016Y00333031D01*
X00225219Y00331234D01*
X00224860Y00331576D01*
X00224501Y00331881D01*
X00224142Y00332150D01*
X00223783Y00332384D01*
X00223424Y00332581D01*
X00223064Y00332743D01*
X00222770Y00332846D01*
Y00330460D01*
X00233434D01*
X00233498Y00330444D01*
X00233729Y00330432D01*
X00233838Y00330416D01*
X00233962Y00330385D01*
X00234103Y00330336D01*
X00234266Y00330262D01*
X00234451Y00330161D01*
X00234657Y00330027D01*
X00234884Y00329857D01*
X00234988Y00329768D01*
X00258145Y00306612D01*
Y00306319D01*
X00258136Y00306250D01*
X00258115Y00306131D01*
X00258092Y00306035D01*
X00258069Y00305960D01*
X00258048Y00305905D01*
X00258030Y00305867D01*
X00258017Y00305844D01*
X00257948Y00305742D01*
X00257766Y00305313D01*
X00257571Y00304890D01*
X00257570Y00304849D01*
X00257554Y00304812D01*
X00257550Y00304346D01*
X00257532Y00303880D01*
X00257546Y00303842D01*
X00257546Y00303801D01*
X00257586Y00303702D01*
X00257500Y00303495D01*
Y00301505D01*
X00258261Y00299668D01*
X00259668Y00298261D01*
X00261505Y00297500D01*
X00263495D01*
X00265332Y00298261D01*
X00266739Y00299668D01*
X00267500Y00301505D01*
Y00303495D01*
X00266806Y00305169D01*
X00266812Y00305233D01*
X00266793Y00305291D01*
X00266796Y00305352D01*
X00266641Y00305770D01*
X00266506Y00306196D01*
X00266467Y00306242D01*
X00266445Y00306299D01*
X00266142Y00306627D01*
X00265914Y00306898D01*
Y00308221D01*
X00265618Y00309707D01*
X00264776Y00310968D01*
X00240482Y00335261D01*
X00240393Y00335366D01*
X00240224Y00335592D01*
X00240089Y00335799D01*
X00239988Y00335984D01*
X00239914Y00336147D01*
X00239865Y00336288D01*
X00239834Y00336412D01*
X00239818Y00336521D01*
X00239806Y00336752D01*
X00239790Y00336816D01*
Y00344540D01*
D02*
G37*
G36*
X00220230Y00336230D02*
X00215210D01*
Y00330460D01*
X00220230D01*
Y00336230D01*
D02*
G37*
G36*
X00395995Y00342500D02*
X00394005D01*
X00392168Y00341739D01*
X00390761Y00340332D01*
X00390000Y00338495D01*
Y00336505D01*
X00390279Y00335831D01*
X00389724Y00335000D01*
X00389005D01*
X00387168Y00334239D01*
X00385761Y00332832D01*
X00385000Y00330995D01*
Y00329005D01*
X00385761Y00327168D01*
X00387168Y00325761D01*
X00389005Y00325000D01*
X00390995D01*
X00392832Y00325761D01*
X00394239Y00327168D01*
X00395000Y00329005D01*
Y00330995D01*
X00394721Y00331669D01*
X00395276Y00332500D01*
X00395995D01*
X00397832Y00333261D01*
X00399239Y00334668D01*
X00400000Y00336505D01*
Y00338495D01*
X00399239Y00340332D01*
X00397832Y00341739D01*
X00395995Y00342500D01*
D02*
G37*
G36*
X00540995Y00330000D02*
X00539005D01*
X00537168Y00329239D01*
X00535761Y00327832D01*
X00535000Y00325995D01*
Y00324005D01*
X00535761Y00322168D01*
X00537168Y00320761D01*
X00539005Y00320000D01*
X00540995D01*
X00542832Y00320761D01*
X00544239Y00322168D01*
X00545000Y00324005D01*
Y00325995D01*
X00544239Y00327832D01*
X00542832Y00329239D01*
X00540995Y00330000D01*
D02*
G37*
G36*
X00463495D02*
X00461505D01*
X00459668Y00329239D01*
X00458261Y00327832D01*
X00457500Y00325995D01*
Y00324005D01*
X00458261Y00322168D01*
X00459668Y00320761D01*
X00461505Y00320000D01*
X00463495D01*
X00465332Y00320761D01*
X00466739Y00322168D01*
X00467500Y00324005D01*
Y00325995D01*
X00466739Y00327832D01*
X00465332Y00329239D01*
X00463495Y00330000D01*
D02*
G37*
G36*
X00220230Y00319540D02*
X00215210D01*
Y00313770D01*
X00215240D01*
D01*
X00215723Y00313783D01*
X00216155Y00313821D01*
X00216536Y00313884D01*
X00216866Y00313973D01*
X00217146Y00314088D01*
X00217374Y00314227D01*
X00217552Y00314392D01*
X00217679Y00314583D01*
X00217755Y00314799D01*
X00217780Y00315040D01*
Y00313770D01*
X00220230D01*
Y00319540D01*
D02*
G37*
G36*
Y00311230D02*
X00217780D01*
Y00309960D01*
X00217755Y00310201D01*
X00217679Y00310417D01*
X00217552Y00310608D01*
X00217374Y00310773D01*
X00217146Y00310912D01*
X00216866Y00311027D01*
X00216536Y00311116D01*
X00216155Y00311179D01*
X00215723Y00311217D01*
X00215240Y00311230D01*
X00215210D01*
Y00305460D01*
X00220230D01*
Y00311230D01*
D02*
G37*
G36*
X00849495Y00318500D02*
X00847505D01*
X00845668Y00317739D01*
X00844261Y00316332D01*
X00843500Y00314495D01*
Y00312505D01*
X00844261Y00310668D01*
X00845668Y00309261D01*
X00847505Y00308500D01*
X00849495D01*
X00851332Y00309261D01*
X00852739Y00310668D01*
X00853500Y00312505D01*
Y00314495D01*
X00852739Y00316332D01*
X00851332Y00317739D01*
X00849495Y00318500D01*
D02*
G37*
G36*
X00755995Y00310000D02*
X00754005D01*
X00752168Y00309239D01*
X00750761Y00307832D01*
X00750000Y00305995D01*
Y00304005D01*
X00750761Y00302168D01*
X00752168Y00300761D01*
X00754005Y00300000D01*
X00755995D01*
X00757832Y00300761D01*
X00759239Y00302168D01*
X00760000Y00304005D01*
Y00305995D01*
X00759239Y00307832D01*
X00757832Y00309239D01*
X00755995Y00310000D01*
D02*
G37*
G36*
X00136755Y00320290D02*
X00134045D01*
X00131428Y00319589D01*
X00129082Y00318234D01*
X00127166Y00316318D01*
X00125811Y00313972D01*
X00125110Y00311355D01*
Y00308645D01*
X00125811Y00306028D01*
X00127166Y00303682D01*
X00129082Y00301766D01*
X00131428Y00300411D01*
X00134045Y00299710D01*
X00136755D01*
X00139372Y00300411D01*
X00141718Y00301766D01*
X00143634Y00303682D01*
X00144989Y00306028D01*
X00145690Y00308645D01*
Y00311355D01*
X00144989Y00313972D01*
X00143634Y00316318D01*
X00141718Y00318234D01*
X00139372Y00319589D01*
X00136755Y00320290D01*
D02*
G37*
G36*
X00120290D02*
X00099710D01*
Y00299710D01*
X00120290D01*
Y00320290D01*
D02*
G37*
G36*
X00508495Y00307500D02*
X00506505D01*
X00504668Y00306739D01*
X00503261Y00305332D01*
X00502500Y00303495D01*
Y00301505D01*
X00503261Y00299668D01*
X00504668Y00298261D01*
X00506505Y00297500D01*
X00508495D01*
X00510332Y00298261D01*
X00511739Y00299668D01*
X00512500Y00301505D01*
Y00303495D01*
X00511739Y00305332D01*
X00510332Y00306739D01*
X00508495Y00307500D01*
D02*
G37*
G36*
X00969040Y00330540D02*
X00935960D01*
Y00297460D01*
X00969040D01*
Y00330540D01*
D02*
G37*
G36*
X00453495Y00302500D02*
X00451505D01*
X00449668Y00301739D01*
X00448261Y00300332D01*
X00447500Y00298495D01*
Y00296505D01*
X00448261Y00294668D01*
X00449668Y00293261D01*
X00451505Y00292500D01*
X00453495D01*
X00455332Y00293261D01*
X00456739Y00294668D01*
X00457500Y00296505D01*
Y00298495D01*
X00456739Y00300332D01*
X00455332Y00301739D01*
X00453495Y00302500D01*
D02*
G37*
G36*
X00365690Y00472790D02*
X00345110D01*
Y00458566D01*
X00345094Y00458502D01*
X00345082Y00458271D01*
X00345066Y00458162D01*
X00345035Y00458038D01*
X00344986Y00457897D01*
X00344912Y00457734D01*
X00344811Y00457549D01*
X00344677Y00457342D01*
X00344507Y00457116D01*
X00344418Y00457012D01*
X00328791Y00441385D01*
X00320000D01*
X00318513Y00441089D01*
X00317253Y00440247D01*
X00307253Y00430247D01*
X00306411Y00428987D01*
X00306115Y00427500D01*
Y00336133D01*
X00306411Y00334646D01*
X00307253Y00333386D01*
X00348386Y00292253D01*
X00349646Y00291411D01*
X00351133Y00291115D01*
X00363328D01*
X00363376Y00291108D01*
X00363451Y00291091D01*
X00363500Y00291076D01*
X00363527Y00291066D01*
X00363527Y00291066D01*
X00363597Y00291000D01*
X00363987Y00290761D01*
X00364366Y00290507D01*
X00364416Y00290498D01*
X00364458Y00290471D01*
X00364910Y00290399D01*
X00365358Y00290310D01*
X00365407Y00290320D01*
X00365456Y00290312D01*
X00365644Y00290357D01*
X00366505Y00290000D01*
X00368495D01*
X00370332Y00290761D01*
X00371739Y00292168D01*
X00372500Y00294005D01*
Y00295995D01*
X00371739Y00297832D01*
X00370332Y00299239D01*
X00368495Y00300000D01*
X00366505D01*
X00365644Y00299643D01*
X00365456Y00299688D01*
X00365407Y00299680D01*
X00365358Y00299690D01*
X00364909Y00299601D01*
X00364458Y00299529D01*
X00364416Y00299502D01*
X00364366Y00299493D01*
X00363987Y00299239D01*
X00363597Y00299000D01*
X00363527Y00298934D01*
X00363527Y00298934D01*
X00363500Y00298924D01*
X00363451Y00298909D01*
X00363376Y00298892D01*
X00363328Y00298885D01*
X00352742D01*
X00313885Y00337742D01*
Y00425891D01*
X00321609Y00433615D01*
X00330400D01*
X00331887Y00433911D01*
X00333147Y00434753D01*
X00349912Y00451518D01*
X00350016Y00451607D01*
X00350242Y00451776D01*
X00350449Y00451911D01*
X00350634Y00452012D01*
X00350797Y00452086D01*
X00350938Y00452135D01*
X00351062Y00452166D01*
X00351171Y00452182D01*
X00351402Y00452194D01*
X00351466Y00452210D01*
X00365690D01*
Y00472790D01*
D02*
G37*
G36*
X00383495Y00299000D02*
X00381505D01*
X00379668Y00298239D01*
X00378261Y00296832D01*
X00377500Y00294995D01*
Y00293006D01*
X00378261Y00291168D01*
X00379668Y00289761D01*
X00381505Y00289000D01*
X00383495D01*
X00385332Y00289761D01*
X00386739Y00291168D01*
X00387500Y00293006D01*
Y00294995D01*
X00386739Y00296832D01*
X00385332Y00298239D01*
X00383495Y00299000D01*
D02*
G37*
G36*
X00220230Y00294540D02*
X00215210D01*
Y00288770D01*
X00220230D01*
Y00294540D01*
D02*
G37*
G36*
X00433495Y00290000D02*
X00431505D01*
X00429668Y00289239D01*
X00429040Y00288611D01*
X00428040Y00289025D01*
Y00289040D01*
X00413960D01*
Y00275960D01*
X00427274Y00275960D01*
X00427299D01*
X00427299D01*
X00427373Y00275960D01*
X00427493Y00275752D01*
X00427702Y00275388D01*
X00427756Y00274960D01*
X00427529Y00274763D01*
X00427513Y00274730D01*
X00427486Y00274705D01*
X00427288Y00274279D01*
X00427079Y00273858D01*
X00427046Y00273739D01*
X00427033Y00273701D01*
X00427010Y00273647D01*
X00426990Y00273609D01*
X00426835Y00273361D01*
X00426788Y00273298D01*
X00426698Y00273192D01*
X00423238Y00269732D01*
X00423134Y00269643D01*
X00422908Y00269474D01*
X00422701Y00269339D01*
X00422516Y00269238D01*
X00422353Y00269164D01*
X00422212Y00269115D01*
X00422088Y00269084D01*
X00421979Y00269068D01*
X00421748Y00269056D01*
X00421684Y00269040D01*
X00413960D01*
Y00255960D01*
X00427953D01*
Y00254947D01*
X00423456Y00250450D01*
X00422720Y00249819D01*
X00422384Y00249571D01*
X00422068Y00249367D01*
X00421803Y00249221D01*
X00421596Y00249128D01*
X00421455Y00249081D01*
X00421384Y00249067D01*
X00421188Y00249052D01*
X00421144Y00249040D01*
X00413960D01*
Y00235960D01*
X00427552D01*
X00427966Y00234960D01*
X00423456Y00230450D01*
X00422720Y00229819D01*
X00422384Y00229571D01*
X00422068Y00229367D01*
X00421803Y00229221D01*
X00421596Y00229128D01*
X00421455Y00229081D01*
X00421384Y00229067D01*
X00421188Y00229052D01*
X00421144Y00229040D01*
X00413960D01*
Y00215960D01*
X00428040D01*
Y00223184D01*
X00428056Y00223248D01*
X00428068Y00223479D01*
X00428084Y00223588D01*
X00428115Y00223712D01*
X00428164Y00223853D01*
X00428238Y00224016D01*
X00428339Y00224201D01*
X00428473Y00224408D01*
X00428643Y00224634D01*
X00428732Y00224738D01*
X00435247Y00231253D01*
X00436089Y00232513D01*
X00436385Y00234000D01*
Y00240828D01*
X00436392Y00240876D01*
X00436409Y00240951D01*
X00436424Y00241000D01*
X00436434Y00241027D01*
X00436434Y00241027D01*
X00436500Y00241097D01*
X00436739Y00241487D01*
X00436993Y00241866D01*
X00437002Y00241916D01*
X00437029Y00241958D01*
X00437101Y00242410D01*
X00437190Y00242858D01*
X00437180Y00242907D01*
X00437188Y00242956D01*
X00437143Y00243144D01*
X00437500Y00244005D01*
Y00245995D01*
X00436739Y00247832D01*
X00435332Y00249239D01*
X00434777Y00249469D01*
X00434501Y00250433D01*
X00434606Y00250622D01*
X00435427Y00251851D01*
X00435723Y00253338D01*
Y00255494D01*
X00435870Y00255648D01*
X00436190Y00255952D01*
X00436217Y00256013D01*
X00436263Y00256060D01*
X00436422Y00256472D01*
X00436601Y00256875D01*
X00436603Y00256941D01*
X00436627Y00257003D01*
X00436626Y00257055D01*
X00436739Y00257168D01*
X00437500Y00259005D01*
Y00260995D01*
X00436739Y00262832D01*
X00435332Y00264239D01*
X00433495Y00265000D01*
X00431505D01*
X00430485Y00264578D01*
X00429919Y00265425D01*
X00431543Y00267050D01*
X00431723Y00267051D01*
X00432163Y00267033D01*
X00432226Y00267056D01*
X00432293Y00267057D01*
X00432698Y00267229D01*
X00433112Y00267381D01*
X00433161Y00267426D01*
X00433223Y00267452D01*
X00433270Y00267500D01*
X00433495D01*
X00435332Y00268261D01*
X00436739Y00269668D01*
X00437500Y00271505D01*
Y00273495D01*
X00436739Y00275332D01*
X00435332Y00276739D01*
X00433495Y00277500D01*
X00431505D01*
X00429668Y00276739D01*
X00429040Y00276111D01*
X00428040Y00276525D01*
X00428040Y00276612D01*
X00428040D01*
X00428040Y00276684D01*
Y00278615D01*
X00429310D01*
X00430797Y00278911D01*
X00432057Y00279753D01*
X00432304Y00280000D01*
X00433495D01*
X00435332Y00280761D01*
X00436739Y00282168D01*
X00437500Y00284005D01*
Y00285995D01*
X00436739Y00287832D01*
X00435332Y00289239D01*
X00433495Y00290000D01*
D02*
G37*
G36*
X00551255Y00296381D02*
X00549266D01*
X00547429Y00295620D01*
X00546022Y00294213D01*
X00545261Y00292376D01*
Y00290387D01*
X00546022Y00288549D01*
X00547429Y00287142D01*
X00549266Y00286381D01*
X00551255D01*
X00553093Y00287142D01*
X00554500Y00288549D01*
X00555261Y00290387D01*
Y00292376D01*
X00554500Y00294213D01*
X00553093Y00295620D01*
X00551255Y00296381D01*
D02*
G37*
G36*
X00411040Y00289040D02*
X00405270D01*
Y00283770D01*
X00411040D01*
Y00289040D01*
D02*
G37*
G36*
X00402730D02*
X00396960D01*
Y00283770D01*
X00396992D01*
X00397473Y00283783D01*
X00397905Y00283821D01*
X00398286Y00283884D01*
X00398616Y00283973D01*
X00398895Y00284088D01*
X00399124Y00284227D01*
X00399302Y00284392D01*
X00399429Y00284583D01*
X00399505Y00284799D01*
X00399530Y00285040D01*
Y00283770D01*
X00402730D01*
Y00289040D01*
D02*
G37*
G36*
X00239790Y00294540D02*
X00222770D01*
Y00287500D01*
Y00284173D01*
X00225219Y00286623D01*
X00225238Y00286263D01*
X00225291Y00285904D01*
X00225381Y00285545D01*
X00225507Y00285186D01*
X00225669Y00284827D01*
X00225866Y00284467D01*
X00226100Y00284108D01*
X00226369Y00283749D01*
X00226674Y00283390D01*
X00227016Y00283030D01*
X00225219Y00281234D01*
X00224860Y00281576D01*
X00224501Y00281881D01*
X00224142Y00282150D01*
X00223783Y00282384D01*
X00223424Y00282582D01*
X00223064Y00282743D01*
X00222770Y00282846D01*
Y00280460D01*
X00233434D01*
X00233498Y00280444D01*
X00233729Y00280432D01*
X00233838Y00280416D01*
X00233962Y00280385D01*
X00234103Y00280336D01*
X00234266Y00280262D01*
X00234451Y00280161D01*
X00234657Y00280027D01*
X00234884Y00279857D01*
X00234988Y00279768D01*
X00247372Y00267385D01*
X00246957Y00266385D01*
X00239790D01*
Y00269540D01*
X00222770D01*
Y00262500D01*
Y00259173D01*
X00225219Y00261623D01*
X00225238Y00261263D01*
X00225291Y00260904D01*
X00225381Y00260545D01*
X00225507Y00260186D01*
X00225669Y00259827D01*
X00225866Y00259467D01*
X00226100Y00259108D01*
X00226369Y00258749D01*
X00226674Y00258390D01*
X00227016Y00258030D01*
X00225219Y00256234D01*
X00224860Y00256576D01*
X00224501Y00256881D01*
X00224142Y00257150D01*
X00223783Y00257384D01*
X00223424Y00257582D01*
X00223064Y00257743D01*
X00222770Y00257846D01*
Y00255460D01*
X00239790D01*
Y00258615D01*
X00245891D01*
X00246803Y00257704D01*
X00246832Y00257664D01*
X00246873Y00257599D01*
X00246897Y00257554D01*
X00246908Y00257528D01*
X00246909Y00257527D01*
X00246912Y00257431D01*
X00247018Y00256987D01*
X00247108Y00256539D01*
X00247135Y00256497D01*
X00247147Y00256448D01*
X00247415Y00256079D01*
X00247669Y00255699D01*
X00247711Y00255671D01*
X00247740Y00255630D01*
X00247904Y00255529D01*
X00248261Y00254668D01*
X00249668Y00253261D01*
X00251505Y00252500D01*
X00253495D01*
X00255332Y00253261D01*
X00256739Y00254668D01*
X00257500Y00256505D01*
Y00258286D01*
X00258188Y00258781D01*
X00258373Y00258858D01*
X00258701Y00258555D01*
X00258758Y00258533D01*
X00258804Y00258494D01*
X00259230Y00258359D01*
X00259648Y00258204D01*
X00259709Y00258207D01*
X00259767Y00258188D01*
X00259831Y00258194D01*
X00261505Y00257500D01*
X00263495D01*
X00265332Y00258261D01*
X00266739Y00259668D01*
X00267500Y00261505D01*
Y00263495D01*
X00266739Y00265332D01*
X00265332Y00266739D01*
X00263495Y00267500D01*
X00261505D01*
X00261298Y00267414D01*
X00261199Y00267454D01*
X00261158Y00267454D01*
X00261120Y00267468D01*
X00260655Y00267450D01*
X00260188Y00267446D01*
X00260151Y00267430D01*
X00260110Y00267429D01*
X00259687Y00267234D01*
X00259258Y00267052D01*
X00259156Y00266983D01*
X00259133Y00266970D01*
X00259095Y00266952D01*
X00259040Y00266931D01*
X00258965Y00266908D01*
X00258869Y00266885D01*
X00258860Y00266883D01*
X00240482Y00285261D01*
X00240393Y00285366D01*
X00240224Y00285592D01*
X00240089Y00285799D01*
X00239988Y00285984D01*
X00239914Y00286147D01*
X00239865Y00286288D01*
X00239834Y00286412D01*
X00239818Y00286521D01*
X00239806Y00286752D01*
X00239790Y00286816D01*
Y00294540D01*
D02*
G37*
G36*
X00220230Y00286230D02*
X00215210D01*
Y00280460D01*
X00220230D01*
Y00286230D01*
D02*
G37*
G36*
X00402730Y00281230D02*
X00399530D01*
Y00279960D01*
X00399505Y00280201D01*
X00399429Y00280417D01*
X00399302Y00280608D01*
X00399124Y00280773D01*
X00398895Y00280912D01*
X00398616Y00281027D01*
X00398286Y00281116D01*
X00397905Y00281179D01*
X00397473Y00281217D01*
X00396991Y00281230D01*
Y00281230D01*
X00396960D01*
Y00275960D01*
X00402730D01*
Y00281230D01*
D02*
G37*
G36*
X00411040D02*
X00405270D01*
Y00275960D01*
X00411040D01*
Y00281230D01*
D02*
G37*
G36*
X00239790Y00319540D02*
X00222770D01*
Y00312500D01*
Y00305460D01*
X00233434D01*
X00233498Y00305444D01*
X00233729Y00305432D01*
X00233838Y00305416D01*
X00233962Y00305385D01*
X00234103Y00305336D01*
X00234266Y00305262D01*
X00234451Y00305161D01*
X00234657Y00305027D01*
X00234884Y00304857D01*
X00234988Y00304768D01*
X00258145Y00281612D01*
Y00281319D01*
X00258136Y00281250D01*
X00258115Y00281131D01*
X00258092Y00281035D01*
X00258069Y00280960D01*
X00258048Y00280905D01*
X00258030Y00280867D01*
X00258017Y00280844D01*
X00257948Y00280742D01*
X00257766Y00280313D01*
X00257571Y00279890D01*
X00257570Y00279849D01*
X00257554Y00279812D01*
X00257550Y00279346D01*
X00257532Y00278880D01*
X00257546Y00278842D01*
X00257546Y00278801D01*
X00257586Y00278702D01*
X00257500Y00278495D01*
Y00276505D01*
X00258261Y00274668D01*
X00259668Y00273261D01*
X00261505Y00272500D01*
X00263495D01*
X00265332Y00273261D01*
X00266739Y00274668D01*
X00267500Y00276505D01*
Y00278495D01*
X00266806Y00280169D01*
X00266812Y00280233D01*
X00266793Y00280291D01*
X00266796Y00280352D01*
X00266641Y00280770D01*
X00266506Y00281196D01*
X00266467Y00281242D01*
X00266445Y00281299D01*
X00266142Y00281627D01*
X00265914Y00281898D01*
Y00283221D01*
X00265618Y00284707D01*
X00264776Y00285968D01*
X00240482Y00310261D01*
X00240393Y00310366D01*
X00240224Y00310592D01*
X00240089Y00310799D01*
X00239988Y00310984D01*
X00239914Y00311147D01*
X00239865Y00311288D01*
X00239834Y00311412D01*
X00239818Y00311521D01*
X00239806Y00311752D01*
X00239790Y00311816D01*
Y00319540D01*
D02*
G37*
G36*
X00828495Y00272500D02*
X00826505D01*
X00824668Y00271739D01*
X00823261Y00270332D01*
X00823041Y00269801D01*
X00821959D01*
X00821739Y00270332D01*
X00820332Y00271739D01*
X00818495Y00272500D01*
X00816505D01*
X00814668Y00271739D01*
X00813261Y00270332D01*
X00813000Y00269702D01*
X00812000D01*
X00811739Y00270332D01*
X00810332Y00271739D01*
X00808495Y00272500D01*
X00806505D01*
X00804668Y00271739D01*
X00803261Y00270332D01*
X00802500Y00268495D01*
Y00266505D01*
X00803261Y00264668D01*
X00804668Y00263261D01*
X00806505Y00262500D01*
X00808495D01*
X00810332Y00263261D01*
X00811739Y00264668D01*
X00812000Y00265298D01*
X00813000D01*
X00813261Y00264668D01*
X00814668Y00263261D01*
X00816505Y00262500D01*
X00818495D01*
X00820332Y00263261D01*
X00821739Y00264668D01*
X00821959Y00265199D01*
X00823041D01*
X00823261Y00264668D01*
X00824668Y00263261D01*
X00826505Y00262500D01*
X00828495D01*
X00830332Y00263261D01*
X00831739Y00264668D01*
X00832500Y00266505D01*
Y00268495D01*
X00831739Y00270332D01*
X00830332Y00271739D01*
X00828495Y00272500D01*
D02*
G37*
G36*
X00411040Y00269040D02*
X00405270D01*
Y00263770D01*
X00411040D01*
Y00269040D01*
D02*
G37*
G36*
X00402730D02*
X00396960D01*
Y00263770D01*
X00396991D01*
D01*
X00397473Y00263783D01*
X00397905Y00263821D01*
X00398286Y00263884D01*
X00398616Y00263973D01*
X00398895Y00264088D01*
X00399124Y00264227D01*
X00399302Y00264392D01*
X00399429Y00264583D01*
X00399505Y00264799D01*
X00399530Y00265040D01*
Y00263770D01*
X00402730D01*
Y00269040D01*
D02*
G37*
G36*
X00220230Y00269540D02*
X00215210D01*
Y00263770D01*
X00220230D01*
Y00269540D01*
D02*
G37*
G36*
X00883495Y00271500D02*
X00881506D01*
X00879668Y00270739D01*
X00878261Y00269332D01*
X00877500Y00267495D01*
Y00265505D01*
X00878261Y00263668D01*
X00879668Y00262261D01*
X00881506Y00261500D01*
X00883495D01*
X00885332Y00262261D01*
X00886739Y00263668D01*
X00887500Y00265505D01*
Y00267495D01*
X00886739Y00269332D01*
X00885332Y00270739D01*
X00883495Y00271500D01*
D02*
G37*
G36*
X00867495D02*
X00865505D01*
X00863668Y00270739D01*
X00862261Y00269332D01*
X00861500Y00267495D01*
Y00265505D01*
X00862261Y00263668D01*
X00863668Y00262261D01*
X00865505Y00261500D01*
X00867495D01*
X00869332Y00262261D01*
X00870739Y00263668D01*
X00871500Y00265505D01*
Y00267495D01*
X00870739Y00269332D01*
X00869332Y00270739D01*
X00867495Y00271500D01*
D02*
G37*
G36*
X00850495D02*
X00848505D01*
X00846668Y00270739D01*
X00845261Y00269332D01*
X00844500Y00267495D01*
Y00265505D01*
X00845261Y00263668D01*
X00846668Y00262261D01*
X00848505Y00261500D01*
X00850495D01*
X00852332Y00262261D01*
X00853739Y00263668D01*
X00854500Y00265505D01*
Y00267495D01*
X00853739Y00269332D01*
X00852332Y00270739D01*
X00850495Y00271500D01*
D02*
G37*
G36*
X00402730Y00261230D02*
X00399530D01*
Y00259960D01*
X00399505Y00260201D01*
X00399429Y00260417D01*
X00399302Y00260608D01*
X00399124Y00260773D01*
X00398895Y00260912D01*
X00398616Y00261027D01*
X00398286Y00261116D01*
X00397905Y00261179D01*
X00397473Y00261217D01*
X00396991Y00261230D01*
X00396960D01*
Y00255960D01*
X00402730D01*
Y00261230D01*
D02*
G37*
G36*
X00136755Y00280290D02*
X00134045D01*
X00131428Y00279589D01*
X00129082Y00278234D01*
X00127166Y00276318D01*
X00125811Y00273972D01*
X00125110Y00271355D01*
Y00268645D01*
X00125811Y00266028D01*
X00127166Y00263682D01*
X00129082Y00261766D01*
X00131428Y00260411D01*
X00134045Y00259710D01*
X00136755D01*
X00139372Y00260411D01*
X00141718Y00261766D01*
X00143634Y00263682D01*
X00144989Y00266028D01*
X00145690Y00268645D01*
Y00271355D01*
X00144989Y00273972D01*
X00143634Y00276318D01*
X00141718Y00278234D01*
X00139372Y00279589D01*
X00136755Y00280290D01*
D02*
G37*
G36*
X00120290D02*
X00099710D01*
Y00259710D01*
X00120290D01*
Y00280290D01*
D02*
G37*
G36*
X00411040Y00261230D02*
X00405270D01*
Y00255960D01*
X00411040D01*
Y00261230D01*
D02*
G37*
G36*
X00220230D02*
X00215210D01*
Y00255460D01*
X00220230D01*
Y00261230D01*
D02*
G37*
G36*
X00503104Y00260588D02*
X00501115D01*
X00499277Y00259827D01*
X00497871Y00258420D01*
X00497110Y00256582D01*
Y00254593D01*
X00497871Y00252756D01*
X00499277Y00251349D01*
X00501115Y00250588D01*
X00503104D01*
X00504942Y00251349D01*
X00506348Y00252756D01*
X00507110Y00254593D01*
Y00256582D01*
X00506348Y00258420D01*
X00504942Y00259827D01*
X00503104Y00260588D01*
D02*
G37*
G36*
X00954129Y00283540D02*
X00950871D01*
X00947675Y00282904D01*
X00944665Y00281658D01*
X00941956Y00279847D01*
X00939653Y00277544D01*
X00937842Y00274835D01*
X00936596Y00271825D01*
X00935960Y00268629D01*
Y00265371D01*
X00936596Y00262175D01*
X00937842Y00259165D01*
X00939653Y00256456D01*
X00941956Y00254153D01*
X00944665Y00252342D01*
X00947675Y00251096D01*
X00950871Y00250460D01*
X00954129D01*
X00957325Y00251096D01*
X00960335Y00252342D01*
X00963044Y00254153D01*
X00965347Y00256456D01*
X00967158Y00259165D01*
X00968404Y00262175D01*
X00969040Y00265371D01*
Y00268629D01*
X00968404Y00271825D01*
X00967158Y00274835D01*
X00965347Y00277544D01*
X00963044Y00279847D01*
X00960335Y00281658D01*
X00957325Y00282904D01*
X00954129Y00283540D01*
D02*
G37*
G36*
X00411040Y00249040D02*
X00405270D01*
Y00243770D01*
X00411040D01*
Y00249040D01*
D02*
G37*
G36*
X00402730D02*
X00396960D01*
Y00243770D01*
X00396991D01*
D01*
X00397473Y00243783D01*
X00397905Y00243821D01*
X00398286Y00243884D01*
X00398616Y00243973D01*
X00398895Y00244088D01*
X00399124Y00244227D01*
X00399302Y00244392D01*
X00399429Y00244583D01*
X00399505Y00244799D01*
X00399530Y00245040D01*
Y00243770D01*
X00402730D01*
Y00249040D01*
D02*
G37*
G36*
X00253495Y00247500D02*
X00251505D01*
X00249668Y00246739D01*
X00248261Y00245332D01*
X00247904Y00244471D01*
X00247740Y00244370D01*
X00247711Y00244329D01*
X00247669Y00244301D01*
X00247415Y00243922D01*
X00247147Y00243552D01*
X00247135Y00243503D01*
X00247108Y00243461D01*
X00247018Y00243013D01*
X00246912Y00242569D01*
X00246909Y00242473D01*
X00246908Y00242472D01*
X00246897Y00242446D01*
X00246873Y00242401D01*
X00246832Y00242336D01*
X00246803Y00242296D01*
X00245891Y00241385D01*
X00239790D01*
Y00244540D01*
X00222770D01*
Y00237500D01*
Y00234173D01*
X00225219Y00236623D01*
X00225238Y00236263D01*
X00225291Y00235904D01*
X00225381Y00235545D01*
X00225507Y00235186D01*
X00225669Y00234827D01*
X00225866Y00234467D01*
X00226100Y00234108D01*
X00226369Y00233749D01*
X00226674Y00233390D01*
X00227016Y00233030D01*
X00225219Y00231234D01*
X00224860Y00231576D01*
X00224501Y00231881D01*
X00224142Y00232150D01*
X00223783Y00232384D01*
X00223424Y00232582D01*
X00223064Y00232743D01*
X00222770Y00232846D01*
Y00230460D01*
X00239790D01*
Y00233615D01*
X00246957D01*
X00247372Y00232615D01*
X00234988Y00220232D01*
X00234884Y00220143D01*
X00234658Y00219974D01*
X00234451Y00219839D01*
X00234266Y00219738D01*
X00234103Y00219664D01*
X00233962Y00219615D01*
X00233838Y00219584D01*
X00233729Y00219568D01*
X00233498Y00219556D01*
X00233434Y00219540D01*
X00222770D01*
Y00212500D01*
Y00205460D01*
X00239790D01*
Y00213184D01*
X00239806Y00213248D01*
X00239818Y00213479D01*
X00239834Y00213588D01*
X00239865Y00213712D01*
X00239914Y00213853D01*
X00239988Y00214016D01*
X00240089Y00214201D01*
X00240223Y00214408D01*
X00240393Y00214634D01*
X00240482Y00214739D01*
X00258861Y00233117D01*
X00258869Y00233115D01*
X00258965Y00233092D01*
X00259040Y00233069D01*
X00259095Y00233048D01*
X00259133Y00233030D01*
X00259156Y00233017D01*
X00259258Y00232948D01*
X00259687Y00232766D01*
X00260110Y00232571D01*
X00260151Y00232570D01*
X00260188Y00232554D01*
X00260654Y00232550D01*
X00261120Y00232532D01*
X00261158Y00232546D01*
X00261199Y00232546D01*
X00261298Y00232586D01*
X00261505Y00232500D01*
X00263495D01*
X00265332Y00233261D01*
X00266739Y00234668D01*
X00267500Y00236505D01*
Y00238495D01*
X00266739Y00240332D01*
X00265332Y00241739D01*
X00263495Y00242500D01*
X00261505D01*
X00259831Y00241806D01*
X00259768Y00241812D01*
X00259709Y00241793D01*
X00259648Y00241796D01*
X00259230Y00241641D01*
X00258804Y00241506D01*
X00258758Y00241467D01*
X00258701Y00241445D01*
X00258373Y00241142D01*
X00258189Y00241219D01*
X00257500Y00241714D01*
Y00243495D01*
X00256739Y00245332D01*
X00255332Y00246739D01*
X00253495Y00247500D01*
D02*
G37*
G36*
X00402730Y00241230D02*
X00399530D01*
Y00239960D01*
X00399505Y00240201D01*
X00399429Y00240417D01*
X00399302Y00240608D01*
X00399124Y00240773D01*
X00398895Y00240912D01*
X00398616Y00241027D01*
X00398286Y00241116D01*
X00397905Y00241179D01*
X00397473Y00241217D01*
X00396991Y00241230D01*
X00396960D01*
Y00235960D01*
X00402730D01*
Y00241230D01*
D02*
G37*
G36*
X00220230Y00244540D02*
X00215210D01*
Y00238770D01*
X00220230D01*
Y00244540D01*
D02*
G37*
G36*
X00411040Y00241230D02*
X00405270D01*
Y00235960D01*
X00411040D01*
Y00241230D01*
D02*
G37*
G36*
X00503495Y00277500D02*
X00501505D01*
X00499668Y00276739D01*
X00498261Y00275332D01*
X00497904Y00274471D01*
X00497740Y00274370D01*
X00497711Y00274329D01*
X00497669Y00274301D01*
X00497415Y00273921D01*
X00497147Y00273552D01*
X00497135Y00273503D01*
X00497108Y00273461D01*
X00497018Y00273013D01*
X00496912Y00272569D01*
X00496909Y00272473D01*
X00496909Y00272472D01*
X00496897Y00272446D01*
X00496873Y00272401D01*
X00496832Y00272335D01*
X00496803Y00272297D01*
X00470204Y00245697D01*
X00470164Y00245668D01*
X00470099Y00245627D01*
X00470054Y00245603D01*
X00470028Y00245592D01*
X00470027Y00245591D01*
X00469931Y00245588D01*
X00469487Y00245482D01*
X00469039Y00245392D01*
X00468997Y00245365D01*
X00468949Y00245353D01*
X00468579Y00245085D01*
X00468199Y00244831D01*
X00468171Y00244789D01*
X00468130Y00244760D01*
X00468029Y00244596D01*
X00467168Y00244239D01*
X00465761Y00242832D01*
X00465000Y00240995D01*
Y00239005D01*
X00465761Y00237168D01*
X00467168Y00235761D01*
X00469005Y00235000D01*
X00470995D01*
X00472832Y00235761D01*
X00474239Y00237168D01*
X00474596Y00238029D01*
X00474760Y00238130D01*
X00474789Y00238171D01*
X00474831Y00238199D01*
X00475085Y00238578D01*
X00475353Y00238948D01*
X00475365Y00238997D01*
X00475392Y00239039D01*
X00475482Y00239487D01*
X00475588Y00239931D01*
X00475591Y00240027D01*
X00475592Y00240028D01*
X00475603Y00240054D01*
X00475627Y00240099D01*
X00475668Y00240164D01*
X00475697Y00240204D01*
X00502296Y00266803D01*
X00502336Y00266832D01*
X00502401Y00266873D01*
X00502446Y00266897D01*
X00502472Y00266908D01*
X00502473Y00266909D01*
X00502569Y00266912D01*
X00503013Y00267018D01*
X00503461Y00267108D01*
X00503503Y00267135D01*
X00503551Y00267147D01*
X00503922Y00267415D01*
X00504301Y00267669D01*
X00504329Y00267711D01*
X00504370Y00267740D01*
X00504471Y00267904D01*
X00505332Y00268261D01*
X00506739Y00269668D01*
X00507500Y00271505D01*
Y00273495D01*
X00506739Y00275332D01*
X00505332Y00276739D01*
X00503495Y00277500D01*
D02*
G37*
G36*
X00605995Y00262500D02*
X00604005D01*
X00602168Y00261739D01*
X00600761Y00260332D01*
X00600000Y00258495D01*
Y00256505D01*
X00600761Y00254668D01*
X00602168Y00253261D01*
X00603029Y00252904D01*
X00603130Y00252740D01*
X00603171Y00252711D01*
X00603199Y00252669D01*
X00603578Y00252415D01*
X00603949Y00252147D01*
X00603997Y00252135D01*
X00604039Y00252108D01*
X00604487Y00252018D01*
X00604931Y00251912D01*
X00605027Y00251909D01*
X00605028Y00251908D01*
X00605054Y00251897D01*
X00605099Y00251873D01*
X00605164Y00251832D01*
X00605204Y00251803D01*
X00619303Y00237704D01*
X00619332Y00237664D01*
X00619373Y00237599D01*
X00619397Y00237554D01*
X00619408Y00237528D01*
X00619409Y00237527D01*
X00619412Y00237431D01*
X00619518Y00236987D01*
X00619608Y00236539D01*
X00619635Y00236497D01*
X00619647Y00236448D01*
X00619915Y00236079D01*
X00620169Y00235699D01*
X00620211Y00235671D01*
X00620240Y00235630D01*
X00620404Y00235529D01*
X00620761Y00234668D01*
X00622168Y00233261D01*
X00624005Y00232500D01*
X00625995D01*
X00627832Y00233261D01*
X00629239Y00234668D01*
X00630000Y00236505D01*
Y00238495D01*
X00629239Y00240332D01*
X00627832Y00241739D01*
X00626971Y00242096D01*
X00626870Y00242260D01*
X00626829Y00242289D01*
X00626801Y00242331D01*
X00626422Y00242585D01*
X00626051Y00242853D01*
X00626003Y00242865D01*
X00625961Y00242892D01*
X00625513Y00242982D01*
X00625069Y00243088D01*
X00624973Y00243091D01*
X00624972Y00243092D01*
X00624946Y00243103D01*
X00624901Y00243127D01*
X00624836Y00243168D01*
X00624796Y00243197D01*
X00610697Y00257296D01*
X00610668Y00257336D01*
X00610627Y00257401D01*
X00610603Y00257446D01*
X00610592Y00257472D01*
X00610591Y00257473D01*
X00610588Y00257569D01*
X00610482Y00258013D01*
X00610392Y00258461D01*
X00610365Y00258503D01*
X00610353Y00258552D01*
X00610085Y00258921D01*
X00609831Y00259301D01*
X00609789Y00259329D01*
X00609760Y00259370D01*
X00609596Y00259471D01*
X00609239Y00260332D01*
X00607832Y00261739D01*
X00605995Y00262500D01*
D02*
G37*
G36*
X00220230Y00236230D02*
X00215210D01*
Y00230460D01*
X00220230D01*
Y00236230D01*
D02*
G37*
G36*
X00411040Y00229040D02*
X00405270D01*
Y00223770D01*
X00411040D01*
Y00229040D01*
D02*
G37*
G36*
X00402730D02*
X00396960D01*
Y00223770D01*
X00396992D01*
X00397473Y00223783D01*
X00397905Y00223821D01*
X00398286Y00223884D01*
X00398616Y00223973D01*
X00398895Y00224088D01*
X00399124Y00224227D01*
X00399302Y00224392D01*
X00399429Y00224583D01*
X00399505Y00224799D01*
X00399530Y00225040D01*
Y00223770D01*
X00402730D01*
Y00229040D01*
D02*
G37*
G36*
X00673495Y00222500D02*
X00671505D01*
X00670644Y00222143D01*
X00670456Y00222188D01*
X00670407Y00222180D01*
X00670358Y00222190D01*
X00669909Y00222101D01*
X00669458Y00222029D01*
X00669416Y00222002D01*
X00669367Y00221993D01*
X00668987Y00221739D01*
X00668597Y00221500D01*
X00668527Y00221434D01*
X00668527Y00221434D01*
X00668500Y00221424D01*
X00668451Y00221409D01*
X00668375Y00221392D01*
X00668328Y00221385D01*
X00604172D01*
X00604124Y00221392D01*
X00604049Y00221409D01*
X00604000Y00221424D01*
X00603973Y00221434D01*
X00603973Y00221434D01*
X00603903Y00221500D01*
X00603513Y00221739D01*
X00603134Y00221993D01*
X00603084Y00222002D01*
X00603042Y00222029D01*
X00602590Y00222101D01*
X00602142Y00222190D01*
X00602093Y00222180D01*
X00602044Y00222188D01*
X00601856Y00222143D01*
X00600995Y00222500D01*
X00599005D01*
X00597168Y00221739D01*
X00595761Y00220332D01*
X00595000Y00218495D01*
Y00216505D01*
X00595761Y00214668D01*
X00597168Y00213261D01*
X00599005Y00212500D01*
X00600995D01*
X00601856Y00212857D01*
X00602044Y00212812D01*
X00602093Y00212820D01*
X00602142Y00212810D01*
X00602591Y00212899D01*
X00603042Y00212971D01*
X00603084Y00212998D01*
X00603134Y00213007D01*
X00603513Y00213261D01*
X00603903Y00213500D01*
X00603973Y00213566D01*
X00603973Y00213566D01*
X00604000Y00213576D01*
X00604049Y00213591D01*
X00604124Y00213608D01*
X00604172Y00213615D01*
X00668328D01*
X00668376Y00213608D01*
X00668451Y00213591D01*
X00668500Y00213576D01*
X00668527Y00213566D01*
X00668527Y00213566D01*
X00668597Y00213500D01*
X00668987Y00213261D01*
X00669367Y00213007D01*
X00669416Y00212998D01*
X00669458Y00212971D01*
X00669910Y00212899D01*
X00670358Y00212810D01*
X00670407Y00212820D01*
X00670456Y00212812D01*
X00670644Y00212857D01*
X00671505Y00212500D01*
X00673495D01*
X00675332Y00213261D01*
X00676739Y00214668D01*
X00677500Y00216505D01*
Y00218495D01*
X00676739Y00220332D01*
X00675332Y00221739D01*
X00673495Y00222500D01*
D02*
G37*
G36*
X00402730Y00221230D02*
X00399530D01*
Y00219960D01*
X00399505Y00220201D01*
X00399429Y00220417D01*
X00399302Y00220608D01*
X00399124Y00220773D01*
X00398895Y00220912D01*
X00398616Y00221027D01*
X00398286Y00221116D01*
X00397905Y00221179D01*
X00397473Y00221217D01*
X00396991Y00221230D01*
Y00221230D01*
X00396960D01*
Y00215960D01*
X00402730D01*
Y00221230D01*
D02*
G37*
G36*
X00136755Y00240290D02*
X00134045D01*
X00131428Y00239589D01*
X00129082Y00238234D01*
X00127166Y00236318D01*
X00125811Y00233972D01*
X00125110Y00231355D01*
Y00228645D01*
X00125811Y00226028D01*
X00127166Y00223682D01*
X00129082Y00221766D01*
X00131428Y00220411D01*
X00134045Y00219710D01*
X00136755D01*
X00139372Y00220411D01*
X00141718Y00221766D01*
X00143634Y00223682D01*
X00144989Y00226028D01*
X00145690Y00228645D01*
Y00231355D01*
X00144989Y00233972D01*
X00143634Y00236318D01*
X00141718Y00238234D01*
X00139372Y00239589D01*
X00136755Y00240290D01*
D02*
G37*
G36*
X00120290D02*
X00099710D01*
Y00219710D01*
X00120290D01*
Y00240290D01*
D02*
G37*
G36*
X00411040Y00221230D02*
X00405270D01*
Y00215960D01*
X00411040D01*
Y00221230D01*
D02*
G37*
G36*
X00220230Y00219540D02*
X00215210D01*
Y00213770D01*
X00215240D01*
D01*
X00215723Y00213783D01*
X00216155Y00213821D01*
X00216536Y00213884D01*
X00216866Y00213973D01*
X00217146Y00214088D01*
X00217374Y00214227D01*
X00217552Y00214392D01*
X00217679Y00214583D01*
X00217755Y00214799D01*
X00217780Y00215040D01*
Y00213770D01*
X00220230D01*
Y00219540D01*
D02*
G37*
G36*
Y00211230D02*
X00217780D01*
Y00209960D01*
X00217755Y00210201D01*
X00217679Y00210417D01*
X00217552Y00210608D01*
X00217374Y00210773D01*
X00217146Y00210912D01*
X00216866Y00211027D01*
X00216536Y00211116D01*
X00216155Y00211179D01*
X00215723Y00211217D01*
X00215240Y00211230D01*
X00215210D01*
Y00205460D01*
X00220230D01*
Y00211230D01*
D02*
G37*
G36*
X00371452Y00218942D02*
X00369463D01*
X00367625Y00218181D01*
X00366218Y00216774D01*
X00365457Y00214937D01*
Y00212948D01*
X00366218Y00211110D01*
X00367625Y00209703D01*
X00369463Y00208942D01*
X00371452D01*
X00373289Y00209703D01*
X00374696Y00211110D01*
X00375457Y00212948D01*
Y00214937D01*
X00374696Y00216774D01*
X00373289Y00218181D01*
X00371452Y00218942D01*
D02*
G37*
G36*
X00755995Y00217500D02*
X00754005D01*
X00752168Y00216739D01*
X00750761Y00215332D01*
X00750000Y00213495D01*
Y00211505D01*
X00750761Y00209668D01*
X00752168Y00208261D01*
X00754005Y00207500D01*
X00755995D01*
X00757832Y00208261D01*
X00759239Y00209668D01*
X00760000Y00211505D01*
Y00213495D01*
X00759239Y00215332D01*
X00757832Y00216739D01*
X00755995Y00217500D01*
D02*
G37*
G36*
X00513872Y00214125D02*
X00511883D01*
X00510045Y00213364D01*
X00508639Y00211957D01*
X00507877Y00210120D01*
Y00208131D01*
X00508639Y00206293D01*
X00510045Y00204886D01*
X00511883Y00204125D01*
X00513872D01*
X00515710Y00204886D01*
X00517116Y00206293D01*
X00517877Y00208131D01*
Y00210120D01*
X00517116Y00211957D01*
X00515710Y00213364D01*
X00513872Y00214125D01*
D02*
G37*
G36*
X00954129Y00236540D02*
X00950871D01*
X00947675Y00235904D01*
X00944665Y00234657D01*
X00941956Y00232847D01*
X00939653Y00230544D01*
X00937842Y00227835D01*
X00936596Y00224825D01*
X00935960Y00221629D01*
Y00218371D01*
X00936596Y00215175D01*
X00937842Y00212165D01*
X00939653Y00209456D01*
X00941956Y00207153D01*
X00944665Y00205342D01*
X00947675Y00204096D01*
X00950871Y00203460D01*
X00954129D01*
X00957325Y00204096D01*
X00960335Y00205342D01*
X00963044Y00207153D01*
X00965347Y00209456D01*
X00967158Y00212165D01*
X00968404Y00215175D01*
X00969040Y00218371D01*
Y00221629D01*
X00968404Y00224825D01*
X00967158Y00227835D01*
X00965347Y00230544D01*
X00963044Y00232847D01*
X00960335Y00234657D01*
X00957325Y00235904D01*
X00954129Y00236540D01*
D02*
G37*
G36*
X00220230Y00194540D02*
X00215210D01*
Y00188770D01*
X00220230D01*
Y00194540D01*
D02*
G37*
G36*
X00263495Y00227500D02*
X00261505D01*
X00259668Y00226739D01*
X00258261Y00225332D01*
X00257500Y00223495D01*
Y00221505D01*
X00257586Y00221298D01*
X00257546Y00221199D01*
X00257546Y00221158D01*
X00257532Y00221120D01*
X00257550Y00220655D01*
X00257554Y00220188D01*
X00257570Y00220151D01*
X00257571Y00220110D01*
X00257766Y00219687D01*
X00257948Y00219258D01*
X00258017Y00219156D01*
X00258030Y00219133D01*
X00258048Y00219095D01*
X00258069Y00219040D01*
X00258092Y00218965D01*
X00258115Y00218869D01*
X00258130Y00218783D01*
X00258145Y00218633D01*
Y00218388D01*
X00234988Y00195232D01*
X00234884Y00195143D01*
X00234658Y00194974D01*
X00234451Y00194839D01*
X00234266Y00194738D01*
X00234103Y00194664D01*
X00233962Y00194615D01*
X00233838Y00194584D01*
X00233729Y00194568D01*
X00233498Y00194556D01*
X00233434Y00194540D01*
X00222770D01*
Y00187500D01*
Y00184173D01*
X00225219Y00186623D01*
X00225238Y00186263D01*
X00225291Y00185904D01*
X00225381Y00185545D01*
X00225507Y00185186D01*
X00225669Y00184827D01*
X00225866Y00184467D01*
X00226100Y00184108D01*
X00226369Y00183749D01*
X00226674Y00183390D01*
X00227016Y00183030D01*
X00225219Y00181234D01*
X00224860Y00181576D01*
X00224501Y00181881D01*
X00224142Y00182150D01*
X00223783Y00182384D01*
X00223424Y00182582D01*
X00223064Y00182743D01*
X00222770Y00182846D01*
Y00180460D01*
X00239790D01*
Y00188184D01*
X00239806Y00188248D01*
X00239818Y00188479D01*
X00239834Y00188588D01*
X00239865Y00188712D01*
X00239914Y00188853D01*
X00239988Y00189016D01*
X00240089Y00189201D01*
X00240223Y00189408D01*
X00240393Y00189634D01*
X00240482Y00189739D01*
X00264776Y00214032D01*
X00265618Y00215293D01*
X00265914Y00216779D01*
Y00218102D01*
X00266142Y00218373D01*
X00266445Y00218701D01*
X00266467Y00218758D01*
X00266506Y00218804D01*
X00266641Y00219230D01*
X00266796Y00219648D01*
X00266793Y00219709D01*
X00266812Y00219767D01*
X00266806Y00219831D01*
X00267500Y00221505D01*
Y00223495D01*
X00266739Y00225332D01*
X00265332Y00226739D01*
X00263495Y00227500D01*
D02*
G37*
G36*
X00220230Y00186230D02*
X00215210D01*
Y00180460D01*
X00220230D01*
Y00186230D01*
D02*
G37*
G36*
X00136755Y00200290D02*
X00134045D01*
X00131428Y00199589D01*
X00129082Y00198234D01*
X00127166Y00196318D01*
X00125811Y00193972D01*
X00125110Y00191355D01*
Y00188645D01*
X00125811Y00186028D01*
X00127166Y00183682D01*
X00129082Y00181766D01*
X00131428Y00180411D01*
X00134045Y00179710D01*
X00136755D01*
X00139372Y00180411D01*
X00141718Y00181766D01*
X00143634Y00183682D01*
X00144989Y00186028D01*
X00145690Y00188645D01*
Y00191355D01*
X00144989Y00193972D01*
X00143634Y00196318D01*
X00141718Y00198234D01*
X00139372Y00199589D01*
X00136755Y00200290D01*
D02*
G37*
G36*
X00120290D02*
X00099710D01*
Y00179710D01*
X00120290D01*
Y00200290D01*
D02*
G37*
G36*
X00934000Y00185105D02*
X00931270D01*
Y00178770D01*
X00941438D01*
X00941346Y00179468D01*
X00940586Y00181303D01*
X00939378Y00182878D01*
X00937803Y00184086D01*
X00935968Y00184846D01*
X00934000Y00185105D01*
D02*
G37*
G36*
X00928730D02*
X00926000D01*
X00924032Y00184846D01*
X00922197Y00184086D01*
X00920622Y00182878D01*
X00919414Y00181303D01*
X00918654Y00179468D01*
X00918562Y00178770D01*
X00928730D01*
Y00185105D01*
D02*
G37*
G36*
X00976000D02*
X00971270D01*
Y00178770D01*
X00983438D01*
X00983346Y00179468D01*
X00982586Y00181303D01*
X00981378Y00182878D01*
X00979802Y00184086D01*
X00977968Y00184846D01*
X00976000Y00185105D01*
D02*
G37*
G36*
X00968730D02*
X00964000D01*
X00962032Y00184846D01*
X00960197Y00184086D01*
X00958622Y00182878D01*
X00957414Y00181303D01*
X00956654Y00179468D01*
X00956562Y00178770D01*
X00968730D01*
Y00185105D01*
D02*
G37*
G36*
X00983438Y00176230D02*
X00971270D01*
Y00169895D01*
X00976000D01*
X00977968Y00170154D01*
X00979802Y00170914D01*
X00981378Y00172122D01*
X00982586Y00173697D01*
X00983346Y00175532D01*
X00983438Y00176230D01*
D02*
G37*
G36*
X00968730D02*
X00956562D01*
X00956654Y00175532D01*
X00957414Y00173697D01*
X00958622Y00172122D01*
X00960197Y00170914D01*
X00962032Y00170154D01*
X00964000Y00169895D01*
X00968730D01*
Y00176230D01*
D02*
G37*
G36*
X00941438Y00176230D02*
X00931270D01*
Y00169895D01*
X00934000D01*
X00935968Y00170154D01*
X00937803Y00170914D01*
X00939378Y00172122D01*
X00940586Y00173697D01*
X00941346Y00175532D01*
X00941438Y00176230D01*
D02*
G37*
G36*
X00928730D02*
X00918562D01*
X00918654Y00175532D01*
X00919414Y00173697D01*
X00920622Y00172122D01*
X00922197Y00170914D01*
X00924032Y00170154D01*
X00926000Y00169895D01*
X00928730D01*
Y00176230D01*
D02*
G37*
G36*
X00220230Y00169540D02*
X00215210D01*
Y00163770D01*
X00220230D01*
Y00169540D01*
D02*
G37*
G36*
X00385995Y00182500D02*
X00384005D01*
X00382168Y00181739D01*
X00380761Y00180332D01*
X00380000Y00178495D01*
Y00176505D01*
X00380761Y00174668D01*
X00381929Y00173500D01*
X00381591Y00172500D01*
X00381505D01*
X00379668Y00171739D01*
X00378261Y00170332D01*
X00377500Y00168495D01*
Y00166505D01*
X00378261Y00164668D01*
X00379668Y00163261D01*
X00381505Y00162500D01*
X00383495D01*
X00385332Y00163261D01*
X00386739Y00164668D01*
X00387500Y00166505D01*
Y00168495D01*
X00386739Y00170332D01*
X00385571Y00171500D01*
X00385909Y00172500D01*
X00385995D01*
X00387832Y00173261D01*
X00389239Y00174668D01*
X00390000Y00176505D01*
Y00178495D01*
X00389239Y00180332D01*
X00387832Y00181739D01*
X00385995Y00182500D01*
D02*
G37*
G36*
X00263495Y00202500D02*
X00261505D01*
X00259668Y00201739D01*
X00258261Y00200332D01*
X00257500Y00198495D01*
Y00196505D01*
X00257586Y00196298D01*
X00257546Y00196199D01*
X00257546Y00196158D01*
X00257532Y00196120D01*
X00257550Y00195655D01*
X00257554Y00195188D01*
X00257570Y00195151D01*
X00257571Y00195110D01*
X00257766Y00194687D01*
X00257948Y00194258D01*
X00258017Y00194156D01*
X00258030Y00194133D01*
X00258048Y00194095D01*
X00258069Y00194040D01*
X00258092Y00193965D01*
X00258115Y00193869D01*
X00258130Y00193783D01*
X00258145Y00193633D01*
Y00193388D01*
X00234988Y00170232D01*
X00234884Y00170143D01*
X00234658Y00169974D01*
X00234451Y00169839D01*
X00234266Y00169738D01*
X00234103Y00169664D01*
X00233962Y00169615D01*
X00233838Y00169584D01*
X00233729Y00169568D01*
X00233498Y00169556D01*
X00233434Y00169540D01*
X00222770D01*
Y00162500D01*
Y00159173D01*
X00225219Y00161623D01*
X00225238Y00161263D01*
X00225291Y00160904D01*
X00225381Y00160545D01*
X00225507Y00160186D01*
X00225669Y00159827D01*
X00225866Y00159467D01*
X00226100Y00159108D01*
X00226369Y00158749D01*
X00226674Y00158390D01*
X00227016Y00158031D01*
X00225219Y00156234D01*
X00224860Y00156576D01*
X00224501Y00156881D01*
X00224142Y00157150D01*
X00223783Y00157384D01*
X00223424Y00157582D01*
X00223064Y00157743D01*
X00222770Y00157846D01*
Y00155460D01*
X00239790D01*
Y00163184D01*
X00239806Y00163248D01*
X00239818Y00163479D01*
X00239834Y00163588D01*
X00239865Y00163712D01*
X00239914Y00163853D01*
X00239988Y00164016D01*
X00240089Y00164201D01*
X00240223Y00164408D01*
X00240393Y00164634D01*
X00240482Y00164739D01*
X00264776Y00189032D01*
X00265618Y00190293D01*
X00265914Y00191779D01*
Y00193102D01*
X00266142Y00193373D01*
X00266445Y00193701D01*
X00266467Y00193758D01*
X00266506Y00193804D01*
X00266641Y00194230D01*
X00266796Y00194648D01*
X00266793Y00194709D01*
X00266812Y00194767D01*
X00266806Y00194831D01*
X00267500Y00196505D01*
Y00198495D01*
X00266739Y00200332D01*
X00265332Y00201739D01*
X00263495Y00202500D01*
D02*
G37*
G36*
X00220230Y00161230D02*
X00215210D01*
Y00155460D01*
X00220230D01*
Y00161230D01*
D02*
G37*
G36*
X00565994Y00157500D02*
X00564005D01*
X00562168Y00156739D01*
X00560761Y00155332D01*
X00560000Y00153495D01*
Y00151505D01*
X00560761Y00149668D01*
X00562168Y00148261D01*
X00564005Y00147500D01*
X00565994D01*
X00567832Y00148261D01*
X00569239Y00149668D01*
X00570000Y00151505D01*
Y00153495D01*
X00569239Y00155332D01*
X00567832Y00156739D01*
X00565994Y00157500D01*
D02*
G37*
G36*
X00263495Y00142500D02*
X00261505D01*
X00259831Y00141806D01*
X00259768Y00141812D01*
X00259709Y00141793D01*
X00259648Y00141796D01*
X00259230Y00141641D01*
X00258804Y00141506D01*
X00258758Y00141467D01*
X00258701Y00141445D01*
X00258373Y00141142D01*
X00258102Y00140914D01*
X00257279D01*
X00255793Y00140618D01*
X00254532Y00139776D01*
X00234988Y00120232D01*
X00234884Y00120143D01*
X00234658Y00119974D01*
X00234451Y00119839D01*
X00234266Y00119738D01*
X00234103Y00119664D01*
X00233962Y00119615D01*
X00233838Y00119584D01*
X00233729Y00119568D01*
X00233498Y00119556D01*
X00233434Y00119540D01*
X00222770D01*
Y00112500D01*
Y00105460D01*
X00239790D01*
Y00113184D01*
X00239806Y00113248D01*
X00239818Y00113479D01*
X00239834Y00113588D01*
X00239865Y00113712D01*
X00239914Y00113853D01*
X00239988Y00114016D01*
X00240089Y00114201D01*
X00240223Y00114408D01*
X00240393Y00114634D01*
X00240482Y00114739D01*
X00258861Y00133117D01*
X00258869Y00133115D01*
X00258965Y00133092D01*
X00259040Y00133069D01*
X00259095Y00133048D01*
X00259133Y00133031D01*
X00259156Y00133017D01*
X00259258Y00132948D01*
X00259687Y00132766D01*
X00260110Y00132571D01*
X00260151Y00132570D01*
X00260188Y00132554D01*
X00260654Y00132550D01*
X00261120Y00132532D01*
X00261158Y00132546D01*
X00261199Y00132546D01*
X00261298Y00132586D01*
X00261505Y00132500D01*
X00263495D01*
X00265332Y00133261D01*
X00266739Y00134668D01*
X00267500Y00136505D01*
Y00138495D01*
X00266739Y00140332D01*
X00265332Y00141739D01*
X00263495Y00142500D01*
D02*
G37*
G36*
X00345995Y00150000D02*
X00344005D01*
X00342168Y00149239D01*
X00340761Y00147832D01*
X00340000Y00145995D01*
Y00144005D01*
X00340761Y00142168D01*
X00342168Y00140761D01*
X00344005Y00140000D01*
X00345995D01*
X00347832Y00140761D01*
X00349239Y00142168D01*
X00350000Y00144005D01*
Y00145995D01*
X00349239Y00147832D01*
X00347832Y00149239D01*
X00345995Y00150000D01*
D02*
G37*
G36*
X00136755Y00160290D02*
X00134045D01*
X00131428Y00159589D01*
X00129082Y00158234D01*
X00127166Y00156318D01*
X00125811Y00153972D01*
X00125110Y00151355D01*
Y00148645D01*
X00125811Y00146028D01*
X00127166Y00143682D01*
X00129082Y00141766D01*
X00131428Y00140411D01*
X00134045Y00139710D01*
X00136755D01*
X00139372Y00140411D01*
X00141718Y00141766D01*
X00143634Y00143682D01*
X00144989Y00146028D01*
X00145690Y00148645D01*
Y00151355D01*
X00144989Y00153972D01*
X00143634Y00156318D01*
X00141718Y00158234D01*
X00139372Y00159589D01*
X00136755Y00160290D01*
D02*
G37*
G36*
X00120290D02*
X00099710D01*
Y00139710D01*
X00120290D01*
Y00160290D01*
D02*
G37*
G36*
X00220230Y00144540D02*
X00215210D01*
Y00138770D01*
X00220230D01*
Y00144540D01*
D02*
G37*
G36*
X00263495Y00177500D02*
X00261505D01*
X00259668Y00176739D01*
X00258261Y00175332D01*
X00257500Y00173495D01*
Y00171505D01*
X00257586Y00171298D01*
X00257546Y00171199D01*
X00257546Y00171158D01*
X00257532Y00171120D01*
X00257550Y00170655D01*
X00257554Y00170188D01*
X00257570Y00170151D01*
X00257571Y00170110D01*
X00257766Y00169687D01*
X00257948Y00169258D01*
X00258017Y00169156D01*
X00258030Y00169133D01*
X00258048Y00169095D01*
X00258069Y00169040D01*
X00258092Y00168965D01*
X00258115Y00168869D01*
X00258130Y00168783D01*
X00258145Y00168633D01*
Y00168388D01*
X00234988Y00145232D01*
X00234884Y00145143D01*
X00234658Y00144974D01*
X00234451Y00144839D01*
X00234266Y00144738D01*
X00234103Y00144664D01*
X00233962Y00144615D01*
X00233838Y00144584D01*
X00233729Y00144568D01*
X00233498Y00144556D01*
X00233434Y00144540D01*
X00222770D01*
Y00137500D01*
Y00134173D01*
X00225219Y00136623D01*
X00225238Y00136263D01*
X00225291Y00135904D01*
X00225381Y00135545D01*
X00225507Y00135186D01*
X00225669Y00134827D01*
X00225866Y00134467D01*
X00226100Y00134108D01*
X00226369Y00133749D01*
X00226674Y00133390D01*
X00227016Y00133031D01*
X00225219Y00131234D01*
X00224860Y00131576D01*
X00224501Y00131881D01*
X00224142Y00132150D01*
X00223783Y00132384D01*
X00223424Y00132582D01*
X00223064Y00132743D01*
X00222770Y00132846D01*
Y00130460D01*
X00239790D01*
Y00138184D01*
X00239806Y00138248D01*
X00239818Y00138479D01*
X00239834Y00138588D01*
X00239865Y00138712D01*
X00239914Y00138853D01*
X00239988Y00139016D01*
X00240089Y00139201D01*
X00240223Y00139408D01*
X00240393Y00139634D01*
X00240482Y00139739D01*
X00264776Y00164032D01*
X00265618Y00165293D01*
X00265914Y00166779D01*
Y00168102D01*
X00266142Y00168373D01*
X00266445Y00168701D01*
X00266467Y00168758D01*
X00266506Y00168804D01*
X00266641Y00169230D01*
X00266796Y00169648D01*
X00266793Y00169709D01*
X00266812Y00169767D01*
X00266806Y00169831D01*
X00267500Y00171505D01*
Y00173495D01*
X00266739Y00175332D01*
X00265332Y00176739D01*
X00263495Y00177500D01*
D02*
G37*
G36*
X00220230Y00136230D02*
X00215210D01*
Y00130460D01*
X00220230D01*
Y00136230D01*
D02*
G37*
G36*
X00560995Y00177500D02*
X00559005D01*
X00557168Y00176739D01*
X00555761Y00175332D01*
X00555000Y00173495D01*
Y00171505D01*
X00555761Y00169668D01*
X00557168Y00168261D01*
X00559005Y00167500D01*
X00560995D01*
X00561856Y00167857D01*
X00562044Y00167812D01*
X00562093Y00167820D01*
X00562142Y00167810D01*
X00562591Y00167899D01*
X00563042Y00167971D01*
X00563084Y00167998D01*
X00563134Y00168007D01*
X00563513Y00168261D01*
X00563903Y00168500D01*
X00563973Y00168566D01*
X00563973Y00168566D01*
X00564000Y00168576D01*
X00564049Y00168591D01*
X00564124Y00168608D01*
X00564172Y00168615D01*
X00578391D01*
X00596003Y00151003D01*
X00597263Y00150161D01*
X00598750Y00149865D01*
X00732141D01*
X00746803Y00135204D01*
X00746832Y00135164D01*
X00746873Y00135099D01*
X00746897Y00135054D01*
X00746908Y00135028D01*
X00746909Y00135027D01*
X00746912Y00134931D01*
X00747018Y00134487D01*
X00747107Y00134039D01*
X00747135Y00133997D01*
X00747147Y00133948D01*
X00747415Y00133579D01*
X00747669Y00133199D01*
X00747711Y00133171D01*
X00747740Y00133130D01*
X00747904Y00133029D01*
X00748261Y00132168D01*
X00749668Y00130761D01*
X00751505Y00130000D01*
X00753495D01*
X00755332Y00130761D01*
X00756739Y00132168D01*
X00757500Y00134005D01*
Y00135995D01*
X00756739Y00137832D01*
X00755332Y00139239D01*
X00754471Y00139596D01*
X00754370Y00139760D01*
X00754329Y00139789D01*
X00754301Y00139831D01*
X00753922Y00140085D01*
X00753551Y00140353D01*
X00753503Y00140365D01*
X00753461Y00140393D01*
X00753013Y00140482D01*
X00752569Y00140588D01*
X00752473Y00140591D01*
X00752472Y00140591D01*
X00752446Y00140603D01*
X00752401Y00140627D01*
X00752336Y00140668D01*
X00752296Y00140697D01*
X00736497Y00156497D01*
X00735237Y00157339D01*
X00733750Y00157635D01*
X00600359D01*
X00582747Y00175247D01*
X00581487Y00176089D01*
X00580000Y00176385D01*
X00564172D01*
X00564124Y00176392D01*
X00564049Y00176409D01*
X00564000Y00176424D01*
X00563973Y00176434D01*
X00563973Y00176434D01*
X00563903Y00176500D01*
X00563513Y00176739D01*
X00563134Y00176993D01*
X00563084Y00177002D01*
X00563042Y00177029D01*
X00562590Y00177101D01*
X00562142Y00177190D01*
X00562093Y00177180D01*
X00562044Y00177188D01*
X00561856Y00177143D01*
X00560995Y00177500D01*
D02*
G37*
G36*
X00220230Y00119540D02*
X00215210D01*
Y00113770D01*
X00215240D01*
D01*
X00215723Y00113783D01*
X00216155Y00113821D01*
X00216536Y00113884D01*
X00216866Y00113973D01*
X00217146Y00114087D01*
X00217374Y00114227D01*
X00217552Y00114392D01*
X00217679Y00114583D01*
X00217755Y00114799D01*
X00217780Y00115040D01*
Y00113770D01*
X00220230D01*
Y00119540D01*
D02*
G37*
G36*
Y00111230D02*
X00217780D01*
Y00109960D01*
X00217755Y00110201D01*
X00217679Y00110417D01*
X00217552Y00110608D01*
X00217374Y00110773D01*
X00217146Y00110913D01*
X00216866Y00111027D01*
X00216536Y00111116D01*
X00216155Y00111179D01*
X00215723Y00111217D01*
X00215240Y00111230D01*
X00215210D01*
Y00105460D01*
X00220230D01*
Y00111230D01*
D02*
G37*
G36*
X00689270Y00104970D02*
Y00100770D01*
X00693470D01*
X00692697Y00102638D01*
X00691138Y00104197D01*
X00689270Y00104970D01*
D02*
G37*
G36*
X00703270Y00104970D02*
Y00100770D01*
X00707470D01*
X00706697Y00102638D01*
X00705138Y00104197D01*
X00703270Y00104970D01*
D02*
G37*
G36*
X00700730D02*
X00698862Y00104197D01*
X00697303Y00102638D01*
X00696530Y00100770D01*
X00700730D01*
Y00104970D01*
D02*
G37*
G36*
X00686730Y00104970D02*
X00684862Y00104197D01*
X00683303Y00102638D01*
X00682530Y00100770D01*
X00686730D01*
Y00104970D01*
D02*
G37*
G36*
X00485995Y00110000D02*
X00484005D01*
X00482168Y00109239D01*
X00480761Y00107832D01*
X00480000Y00105995D01*
Y00104005D01*
X00480761Y00102168D01*
X00482168Y00100761D01*
X00484005Y00100000D01*
X00485995D01*
X00487832Y00100761D01*
X00489239Y00102168D01*
X00490000Y00104005D01*
Y00105995D01*
X00489239Y00107832D01*
X00487832Y00109239D01*
X00485995Y00110000D01*
D02*
G37*
G36*
X00473495D02*
X00471505D01*
X00469668Y00109239D01*
X00468261Y00107832D01*
X00467500Y00105995D01*
Y00104005D01*
X00468261Y00102168D01*
X00469668Y00100761D01*
X00471505Y00100000D01*
X00473495D01*
X00475332Y00100761D01*
X00476739Y00102168D01*
X00477500Y00104005D01*
Y00105995D01*
X00476739Y00107832D01*
X00475332Y00109239D01*
X00473495Y00110000D01*
D02*
G37*
G36*
X00448495D02*
X00446505D01*
X00444668Y00109239D01*
X00443261Y00107832D01*
X00442500Y00105995D01*
Y00104005D01*
X00443261Y00102168D01*
X00444668Y00100761D01*
X00446505Y00100000D01*
X00448495D01*
X00450332Y00100761D01*
X00451739Y00102168D01*
X00452500Y00104005D01*
Y00105995D01*
X00451739Y00107832D01*
X00450332Y00109239D01*
X00448495Y00110000D01*
D02*
G37*
G36*
X00423495D02*
X00421505D01*
X00419668Y00109239D01*
X00418261Y00107832D01*
X00417500Y00105995D01*
Y00104005D01*
X00418261Y00102168D01*
X00419668Y00100761D01*
X00421505Y00100000D01*
X00423495D01*
X00425332Y00100761D01*
X00426739Y00102168D01*
X00427500Y00104005D01*
Y00105995D01*
X00426739Y00107832D01*
X00425332Y00109239D01*
X00423495Y00110000D01*
D02*
G37*
G36*
X00405995D02*
X00404005D01*
X00402168Y00109239D01*
X00400761Y00107832D01*
X00400000Y00105995D01*
Y00104005D01*
X00400761Y00102168D01*
X00402168Y00100761D01*
X00404005Y00100000D01*
X00405995D01*
X00407832Y00100761D01*
X00409239Y00102168D01*
X00410000Y00104005D01*
Y00105995D01*
X00409239Y00107832D01*
X00407832Y00109239D01*
X00405995Y00110000D01*
D02*
G37*
G36*
X00373495D02*
X00371505D01*
X00369668Y00109239D01*
X00368261Y00107832D01*
X00367500Y00105995D01*
Y00104005D01*
X00368261Y00102168D01*
X00369668Y00100761D01*
X00371505Y00100000D01*
X00373495D01*
X00375332Y00100761D01*
X00376739Y00102168D01*
X00377500Y00104005D01*
Y00105995D01*
X00376739Y00107832D01*
X00375332Y00109239D01*
X00373495Y00110000D01*
D02*
G37*
G36*
X00136755Y00120290D02*
X00134045D01*
X00131428Y00119589D01*
X00129082Y00118234D01*
X00127166Y00116318D01*
X00125811Y00113972D01*
X00125110Y00111355D01*
Y00108645D01*
X00125811Y00106028D01*
X00127166Y00103682D01*
X00129082Y00101766D01*
X00131428Y00100411D01*
X00134045Y00099710D01*
X00136755D01*
X00139372Y00100411D01*
X00141718Y00101766D01*
X00143634Y00103682D01*
X00144989Y00106028D01*
X00145690Y00108645D01*
Y00111355D01*
X00144989Y00113972D01*
X00143634Y00116318D01*
X00141718Y00118234D01*
X00139372Y00119589D01*
X00136755Y00120290D01*
D02*
G37*
G36*
X00120290D02*
X00099710D01*
Y00099710D01*
X00120290D01*
Y00120290D01*
D02*
G37*
G36*
X00263495Y00117500D02*
X00261505D01*
X00259668Y00116739D01*
X00258261Y00115332D01*
X00257904Y00114471D01*
X00257740Y00114370D01*
X00257711Y00114329D01*
X00257669Y00114301D01*
X00257415Y00113922D01*
X00257147Y00113552D01*
X00257135Y00113503D01*
X00257108Y00113461D01*
X00257018Y00113013D01*
X00256912Y00112569D01*
X00256909Y00112473D01*
X00256908Y00112472D01*
X00256897Y00112446D01*
X00256873Y00112401D01*
X00256832Y00112336D01*
X00256803Y00112296D01*
X00243391Y00098885D01*
X00239790D01*
Y00102040D01*
X00222770D01*
Y00095000D01*
Y00087960D01*
X00239790D01*
Y00091115D01*
X00245000D01*
X00246487Y00091411D01*
X00247747Y00092253D01*
X00262296Y00106803D01*
X00262336Y00106832D01*
X00262401Y00106873D01*
X00262446Y00106897D01*
X00262472Y00106909D01*
X00262473Y00106909D01*
X00262569Y00106912D01*
X00263013Y00107018D01*
X00263461Y00107107D01*
X00263503Y00107135D01*
X00263552Y00107147D01*
X00263921Y00107415D01*
X00264301Y00107669D01*
X00264329Y00107711D01*
X00264370Y00107740D01*
X00264471Y00107904D01*
X00265332Y00108261D01*
X00266739Y00109668D01*
X00267500Y00111505D01*
Y00113495D01*
X00266739Y00115332D01*
X00265332Y00116739D01*
X00263495Y00117500D01*
D02*
G37*
G36*
X00220230Y00102040D02*
X00215210D01*
Y00096270D01*
X00215240D01*
Y00096622D01*
X00215723Y00096635D01*
X00216155Y00096673D01*
X00216536Y00096737D01*
X00216866Y00096826D01*
X00217146Y00096940D01*
X00217374Y00097080D01*
X00217552Y00097245D01*
X00217679Y00097435D01*
X00217755Y00097651D01*
X00217780Y00097892D01*
Y00096270D01*
X00220230D01*
Y00102040D01*
D02*
G37*
G36*
X00710270Y00097970D02*
Y00093770D01*
X00714470D01*
X00713697Y00095638D01*
X00712138Y00097197D01*
X00710270Y00097970D01*
D02*
G37*
G36*
X00679730Y00097970D02*
X00677862Y00097197D01*
X00676303Y00095638D01*
X00675530Y00093770D01*
X00679730D01*
Y00097970D01*
D02*
G37*
G36*
X00220230Y00093730D02*
X00217780D01*
Y00092812D01*
X00217755Y00093054D01*
X00217679Y00093270D01*
X00217552Y00093460D01*
X00217374Y00093625D01*
X00217203Y00093730D01*
X00215210D01*
Y00087960D01*
X00220230D01*
Y00093730D01*
D02*
G37*
G36*
X00934000Y00098705D02*
X00931270D01*
Y00092370D01*
X00941438D01*
X00941346Y00093068D01*
X00940586Y00094903D01*
X00939378Y00096478D01*
X00937803Y00097686D01*
X00935968Y00098446D01*
X00934000Y00098705D01*
D02*
G37*
G36*
X00928730D02*
X00926000D01*
X00924032Y00098446D01*
X00922197Y00097686D01*
X00920622Y00096478D01*
X00919414Y00094903D01*
X00918654Y00093068D01*
X00918562Y00092370D01*
X00928730D01*
Y00098705D01*
D02*
G37*
G36*
X00976000D02*
X00971270D01*
Y00092370D01*
X00983438D01*
X00983346Y00093068D01*
X00982586Y00094903D01*
X00981378Y00096478D01*
X00979802Y00097686D01*
X00977968Y00098446D01*
X00976000Y00098705D01*
D02*
G37*
G36*
X00968730D02*
X00964000D01*
X00962032Y00098446D01*
X00960197Y00097686D01*
X00958622Y00096478D01*
X00957414Y00094903D01*
X00956654Y00093068D01*
X00956562Y00092370D01*
X00968730D01*
Y00098705D01*
D02*
G37*
G36*
X00679730Y00091230D02*
X00675530D01*
X00676303Y00089362D01*
X00677862Y00087803D01*
X00679730Y00087030D01*
Y00091230D01*
D02*
G37*
G36*
X00714470D02*
X00710270D01*
Y00087029D01*
X00712138Y00087803D01*
X00713697Y00089362D01*
X00714470Y00091230D01*
D02*
G37*
G36*
X00983438Y00089830D02*
X00971270D01*
Y00083495D01*
X00976000D01*
X00977968Y00083754D01*
X00979802Y00084514D01*
X00981378Y00085722D01*
X00982586Y00087297D01*
X00983346Y00089132D01*
X00983438Y00089830D01*
D02*
G37*
G36*
X00968730D02*
X00956562D01*
X00956654Y00089132D01*
X00957414Y00087297D01*
X00958622Y00085722D01*
X00960197Y00084514D01*
X00962032Y00083754D01*
X00964000Y00083495D01*
X00968730D01*
Y00089830D01*
D02*
G37*
G36*
X00941438Y00089830D02*
X00931270D01*
Y00083495D01*
X00934000D01*
X00935968Y00083754D01*
X00937803Y00084514D01*
X00939378Y00085722D01*
X00940586Y00087297D01*
X00941346Y00089132D01*
X00941438Y00089830D01*
D02*
G37*
G36*
X00928730D02*
X00918562D01*
X00918654Y00089132D01*
X00919414Y00087297D01*
X00920622Y00085722D01*
X00922197Y00084514D01*
X00924032Y00083754D01*
X00926000Y00083495D01*
X00928730D01*
Y00089830D01*
D02*
G37*
G36*
X00263555Y00093179D02*
X00261566D01*
X00259728Y00092418D01*
X00258322Y00091011D01*
X00257965Y00090149D01*
X00257801Y00090049D01*
X00257771Y00090008D01*
X00257729Y00089980D01*
X00257476Y00089600D01*
X00257208Y00089230D01*
X00257196Y00089182D01*
X00257168Y00089140D01*
X00257079Y00088692D01*
X00256973Y00088247D01*
X00256969Y00088152D01*
X00256969Y00088151D01*
X00256958Y00088125D01*
X00256933Y00088080D01*
X00256892Y00088015D01*
X00256863Y00087975D01*
X00250273Y00081385D01*
X00239790D01*
Y00084540D01*
X00222770D01*
Y00077500D01*
Y00070460D01*
X00239790D01*
Y00073615D01*
X00251882D01*
X00253368Y00073911D01*
X00254629Y00074753D01*
X00256214Y00076339D01*
X00256596Y00076200D01*
X00257072Y00075782D01*
X00257018Y00075513D01*
X00256912Y00075069D01*
X00256909Y00074973D01*
X00256908Y00074972D01*
X00256897Y00074946D01*
X00256873Y00074901D01*
X00256832Y00074836D01*
X00256803Y00074796D01*
X00248391Y00066385D01*
X00206672D01*
X00206624Y00066392D01*
X00206549Y00066409D01*
X00206500Y00066424D01*
X00206473Y00066434D01*
X00206473Y00066434D01*
X00206403Y00066500D01*
X00206013Y00066739D01*
X00205634Y00066993D01*
X00205584Y00067002D01*
X00205542Y00067029D01*
X00205090Y00067101D01*
X00204642Y00067190D01*
X00204593Y00067180D01*
X00204544Y00067188D01*
X00204356Y00067143D01*
X00203495Y00067500D01*
X00201505D01*
X00199668Y00066739D01*
X00198261Y00065332D01*
X00197500Y00063495D01*
Y00061505D01*
X00198261Y00059668D01*
X00199668Y00058261D01*
X00201505Y00057500D01*
X00203495D01*
X00204356Y00057857D01*
X00204544Y00057812D01*
X00204593Y00057820D01*
X00204642Y00057810D01*
X00205091Y00057899D01*
X00205542Y00057971D01*
X00205584Y00057998D01*
X00205634Y00058007D01*
X00206014Y00058261D01*
X00206403Y00058500D01*
X00206473Y00058566D01*
X00206473Y00058566D01*
X00206500Y00058576D01*
X00206549Y00058591D01*
X00206625Y00058608D01*
X00206672Y00058615D01*
X00247237D01*
X00247540Y00057615D01*
X00247032Y00057276D01*
X00234988Y00045232D01*
X00234884Y00045143D01*
X00234658Y00044974D01*
X00234451Y00044839D01*
X00234266Y00044738D01*
X00234103Y00044664D01*
X00233962Y00044615D01*
X00233838Y00044584D01*
X00233729Y00044568D01*
X00233498Y00044556D01*
X00233434Y00044540D01*
X00222770D01*
Y00037500D01*
Y00030460D01*
X00239790D01*
Y00038184D01*
X00239806Y00038248D01*
X00239818Y00038479D01*
X00239834Y00038588D01*
X00239865Y00038712D01*
X00239914Y00038853D01*
X00239988Y00039016D01*
X00240089Y00039201D01*
X00240223Y00039407D01*
X00240393Y00039634D01*
X00240482Y00039739D01*
X00251361Y00050617D01*
X00251369Y00050615D01*
X00251465Y00050592D01*
X00251540Y00050569D01*
X00251595Y00050548D01*
X00251633Y00050531D01*
X00251656Y00050517D01*
X00251758Y00050448D01*
X00252187Y00050266D01*
X00252610Y00050071D01*
X00252651Y00050070D01*
X00252688Y00050054D01*
X00253154Y00050050D01*
X00253620Y00050032D01*
X00253658Y00050046D01*
X00253699Y00050046D01*
X00253798Y00050086D01*
X00254005Y00050000D01*
X00255995D01*
X00257832Y00050761D01*
X00259239Y00052168D01*
X00260000Y00054005D01*
Y00055995D01*
X00259239Y00057832D01*
X00257832Y00059239D01*
X00255995Y00060000D01*
X00254408D01*
X00253985Y00060992D01*
X00262296Y00069303D01*
X00262336Y00069332D01*
X00262401Y00069373D01*
X00262446Y00069397D01*
X00262472Y00069408D01*
X00262473Y00069409D01*
X00262569Y00069412D01*
X00263013Y00069518D01*
X00263461Y00069608D01*
X00263503Y00069635D01*
X00263552Y00069647D01*
X00263921Y00069915D01*
X00264301Y00070169D01*
X00264329Y00070211D01*
X00264370Y00070240D01*
X00264471Y00070404D01*
X00265332Y00070761D01*
X00266739Y00072168D01*
X00267500Y00074005D01*
Y00075995D01*
X00266739Y00077832D01*
X00265332Y00079239D01*
X00263495Y00080000D01*
X00261505D01*
X00261137Y00079847D01*
X00260571Y00080695D01*
X00262357Y00082482D01*
X00262396Y00082511D01*
X00262461Y00082552D01*
X00262507Y00082576D01*
X00262533Y00082587D01*
X00262533Y00082587D01*
X00262629Y00082591D01*
X00263073Y00082697D01*
X00263522Y00082786D01*
X00263563Y00082814D01*
X00263612Y00082826D01*
X00263982Y00083094D01*
X00264362Y00083348D01*
X00264390Y00083389D01*
X00264430Y00083419D01*
X00264531Y00083583D01*
X00265393Y00083940D01*
X00266799Y00085347D01*
X00267561Y00087184D01*
Y00089173D01*
X00266799Y00091011D01*
X00265393Y00092418D01*
X00263555Y00093179D01*
D02*
G37*
G36*
X00710270Y00083970D02*
Y00079770D01*
X00714470D01*
X00713697Y00081638D01*
X00712138Y00083197D01*
X00710270Y00083970D01*
D02*
G37*
G36*
X00679730Y00083970D02*
X00677862Y00083197D01*
X00676303Y00081638D01*
X00675530Y00079770D01*
X00679730D01*
Y00083970D01*
D02*
G37*
G36*
X00220230Y00084540D02*
X00215210D01*
Y00078770D01*
X00215240D01*
Y00081270D01*
X00215723Y00081277D01*
X00216536Y00081333D01*
X00216866Y00081382D01*
X00217146Y00081445D01*
X00217374Y00081522D01*
X00217552Y00081613D01*
X00217679Y00081718D01*
X00217755Y00081837D01*
X00217780Y00081969D01*
Y00078770D01*
X00220230D01*
Y00084540D01*
D02*
G37*
G36*
X00679730Y00077230D02*
X00675530D01*
X00676303Y00075362D01*
X00677862Y00073803D01*
X00679730Y00073030D01*
Y00077230D01*
D02*
G37*
G36*
X00714470D02*
X00710270D01*
Y00073029D01*
X00712138Y00073803D01*
X00713697Y00075362D01*
X00714470Y00077230D01*
D02*
G37*
G36*
X00693730Y00098230D02*
X00688000D01*
X00682270D01*
Y00092500D01*
Y00086770D01*
X00688000D01*
Y00084230D01*
X00682270D01*
Y00078500D01*
Y00072770D01*
X00688000D01*
X00693730D01*
Y00078500D01*
X00696270D01*
Y00072770D01*
X00702000D01*
X00707730D01*
Y00078500D01*
Y00084230D01*
X00702000D01*
Y00086770D01*
X00707730D01*
Y00092500D01*
Y00098230D01*
X00702000D01*
X00696270D01*
Y00092500D01*
X00693730D01*
Y00098230D01*
D02*
G37*
G36*
X00220230Y00076230D02*
X00215210D01*
Y00070460D01*
X00220230D01*
Y00076230D01*
D02*
G37*
G36*
X00693470Y00070230D02*
X00689270D01*
Y00066030D01*
X00691138Y00066803D01*
X00692697Y00068362D01*
X00693470Y00070230D01*
D02*
G37*
G36*
X00707470D02*
X00703270D01*
Y00066030D01*
X00705138Y00066803D01*
X00706697Y00068362D01*
X00707470Y00070230D01*
D02*
G37*
G36*
X00700730D02*
X00696530D01*
X00697303Y00068362D01*
X00698862Y00066803D01*
X00700730Y00066030D01*
Y00070230D01*
D02*
G37*
G36*
X00686730D02*
X00682530D01*
X00683303Y00068362D01*
X00684862Y00066803D01*
X00686730Y00066030D01*
Y00070230D01*
D02*
G37*
G36*
X00869495Y00072500D02*
X00867505D01*
X00865668Y00071739D01*
X00864261Y00070332D01*
X00863500Y00068495D01*
Y00066505D01*
X00864261Y00064668D01*
X00865668Y00063261D01*
X00867505Y00062500D01*
X00869495D01*
X00871332Y00063261D01*
X00872739Y00064668D01*
X00873500Y00066505D01*
Y00068495D01*
X00872739Y00070332D01*
X00871332Y00071739D01*
X00869495Y00072500D01*
D02*
G37*
G36*
X00136755Y00080290D02*
X00134045D01*
X00131428Y00079589D01*
X00129082Y00078234D01*
X00127166Y00076318D01*
X00125811Y00073972D01*
X00125110Y00071355D01*
Y00068645D01*
X00125811Y00066028D01*
X00127166Y00063682D01*
X00129082Y00061766D01*
X00131428Y00060411D01*
X00134045Y00059710D01*
X00136755D01*
X00139372Y00060411D01*
X00141718Y00061766D01*
X00143634Y00063682D01*
X00144989Y00066028D01*
X00145690Y00068645D01*
Y00071355D01*
X00144989Y00073972D01*
X00143634Y00076318D01*
X00141718Y00078234D01*
X00139372Y00079589D01*
X00136755Y00080290D01*
D02*
G37*
G36*
X00120290D02*
X00099710D01*
Y00059710D01*
X00120290D01*
Y00080290D01*
D02*
G37*
G36*
X00490555Y00047790D02*
X00490470D01*
Y00038770D01*
X00499490D01*
Y00038855D01*
X00498789Y00041472D01*
X00497434Y00043818D01*
X00495518Y00045734D01*
X00493172Y00047089D01*
X00490555Y00047790D01*
D02*
G37*
G36*
X00220230Y00044540D02*
X00215210D01*
Y00038770D01*
X00215240D01*
D01*
X00215723Y00038783D01*
X00216155Y00038821D01*
X00216536Y00038884D01*
X00216866Y00038973D01*
X00217146Y00039088D01*
X00217374Y00039227D01*
X00217552Y00039392D01*
X00217679Y00039583D01*
X00217755Y00039799D01*
X00217780Y00040040D01*
Y00038770D01*
X00220230D01*
Y00044540D01*
D02*
G37*
G36*
X00487930Y00047790D02*
X00487845D01*
X00485228Y00047089D01*
X00482882Y00045734D01*
X00480966Y00043818D01*
X00479611Y00041472D01*
X00478910Y00038855D01*
Y00038770D01*
X00487930D01*
Y00047790D01*
D02*
G37*
G36*
X00220230Y00036230D02*
X00217780D01*
Y00034960D01*
X00217755Y00035201D01*
X00217679Y00035417D01*
X00217552Y00035608D01*
X00217374Y00035773D01*
X00217146Y00035912D01*
X00216866Y00036027D01*
X00216536Y00036116D01*
X00216155Y00036179D01*
X00215723Y00036217D01*
X00215240Y00036230D01*
X00215210D01*
Y00030460D01*
X00220230D01*
Y00036230D01*
D02*
G37*
G36*
X00835995Y00037500D02*
X00834005D01*
X00832168Y00036739D01*
X00830761Y00035332D01*
X00830000Y00033495D01*
Y00031505D01*
X00830761Y00029668D01*
X00832168Y00028261D01*
X00834005Y00027500D01*
X00835995D01*
X00837832Y00028261D01*
X00839239Y00029668D01*
X00840000Y00031505D01*
Y00033495D01*
X00839239Y00035332D01*
X00837832Y00036739D01*
X00835995Y00037500D01*
D02*
G37*
G36*
X00550290Y00047790D02*
X00529710D01*
Y00027210D01*
X00550290D01*
Y00047790D01*
D02*
G37*
G36*
X00515955D02*
X00513245D01*
X00510628Y00047089D01*
X00508282Y00045734D01*
X00506366Y00043818D01*
X00505011Y00041472D01*
X00504310Y00038855D01*
Y00036145D01*
X00505011Y00033528D01*
X00506366Y00031182D01*
X00508282Y00029266D01*
X00510628Y00027911D01*
X00513245Y00027210D01*
X00515955D01*
X00518572Y00027911D01*
X00520918Y00029266D01*
X00522834Y00031182D01*
X00524189Y00033528D01*
X00524890Y00036145D01*
Y00038855D01*
X00524189Y00041472D01*
X00522834Y00043818D01*
X00520918Y00045734D01*
X00518572Y00047089D01*
X00515955Y00047790D01*
D02*
G37*
G36*
X00499490Y00036230D02*
X00490470D01*
Y00027210D01*
X00490555D01*
X00493172Y00027911D01*
X00495518Y00029266D01*
X00497434Y00031182D01*
X00498789Y00033528D01*
X00499490Y00036145D01*
Y00036230D01*
D02*
G37*
G36*
X00487930D02*
X00478910D01*
Y00036145D01*
X00479611Y00033528D01*
X00480966Y00031182D01*
X00482882Y00029266D01*
X00485228Y00027911D01*
X00487845Y00027210D01*
X00487930D01*
Y00036230D01*
D02*
G37*
G36*
X00952561Y00082540D02*
X00947439D01*
X00942380Y00081739D01*
X00937509Y00080156D01*
X00932945Y00077831D01*
X00928802Y00074820D01*
X00925180Y00071198D01*
X00922169Y00067055D01*
X00919844Y00062491D01*
X00918261Y00057620D01*
X00917460Y00052561D01*
Y00047439D01*
X00918261Y00042380D01*
X00919844Y00037509D01*
X00922169Y00032945D01*
X00925180Y00028802D01*
X00928802Y00025180D01*
X00932945Y00022169D01*
X00937509Y00019844D01*
X00942380Y00018261D01*
X00947439Y00017460D01*
X00952561D01*
X00957620Y00018261D01*
X00962491Y00019844D01*
X00967055Y00022169D01*
X00971198Y00025180D01*
X00974820Y00028802D01*
X00977831Y00032945D01*
X00980156Y00037509D01*
X00981739Y00042380D01*
X00982540Y00047439D01*
Y00052561D01*
X00981739Y00057620D01*
X00980156Y00062491D01*
X00977831Y00067055D01*
X00974820Y00071198D01*
X00971198Y00074820D01*
X00967055Y00077831D01*
X00962491Y00080156D01*
X00957620Y00081739D01*
X00952561Y00082540D01*
D02*
G37*
G36*
X00052561D02*
X00047439D01*
X00042380Y00081739D01*
X00037509Y00080156D01*
X00032945Y00077831D01*
X00028802Y00074820D01*
X00025180Y00071198D01*
X00022169Y00067055D01*
X00019844Y00062491D01*
X00018261Y00057620D01*
X00017460Y00052561D01*
Y00047439D01*
X00018261Y00042380D01*
X00019844Y00037509D01*
X00022169Y00032945D01*
X00025180Y00028802D01*
X00028802Y00025180D01*
X00032945Y00022169D01*
X00037509Y00019844D01*
X00042380Y00018261D01*
X00047439Y00017460D01*
X00052561D01*
X00057620Y00018261D01*
X00062491Y00019844D01*
X00067055Y00022169D01*
X00071198Y00025180D01*
X00074820Y00028802D01*
X00077831Y00032945D01*
X00080156Y00037509D01*
X00081739Y00042380D01*
X00082540Y00047439D01*
Y00052561D01*
X00081739Y00057620D01*
X00080156Y00062491D01*
X00077831Y00067055D01*
X00074820Y00071198D01*
X00071198Y00074820D01*
X00067055Y00077831D01*
X00062491Y00080156D01*
X00057620Y00081739D01*
X00052561Y00082540D01*
D02*
G37*
%LPD*%
G36*
X00237237Y00436263D02*
X00237291Y00435904D01*
X00237381Y00435545D01*
X00237507Y00435186D01*
X00237668Y00434827D01*
X00237866Y00434467D01*
X00238100Y00434108D01*
X00238369Y00433749D01*
X00238674Y00433390D01*
X00239016Y00433031D01*
X00237220Y00431234D01*
X00236860Y00431576D01*
X00236501Y00431881D01*
X00236142Y00432150D01*
X00235783Y00432384D01*
X00235424Y00432581D01*
X00235064Y00432743D01*
X00234705Y00432869D01*
X00234346Y00432959D01*
X00233987Y00433013D01*
X00233627Y00433031D01*
X00237220Y00436623D01*
X00237237Y00436263D01*
D02*
G37*
G36*
X00259869Y00410364D02*
X00259792Y00410479D01*
X00259692Y00410582D01*
X00259566Y00410673D01*
X00259417Y00410752D01*
X00259243Y00410818D01*
X00259045Y00410873D01*
X00258823Y00410915D01*
X00258576Y00410946D01*
X00258305Y00410964D01*
X00258010Y00410970D01*
X00258276Y00413510D01*
X00258608Y00413514D01*
X00259450Y00413577D01*
X00259679Y00413614D01*
X00259882Y00413660D01*
X00260059Y00413714D01*
X00260210Y00413777D01*
X00260336Y00413848D01*
X00260435Y00413927D01*
X00259869Y00410364D01*
D02*
G37*
G36*
X00237237Y00411263D02*
X00237291Y00410904D01*
X00237381Y00410545D01*
X00237507Y00410186D01*
X00237668Y00409827D01*
X00237866Y00409467D01*
X00238100Y00409108D01*
X00238369Y00408749D01*
X00238674Y00408390D01*
X00239016Y00408031D01*
X00237220Y00406234D01*
X00236860Y00406576D01*
X00236501Y00406881D01*
X00236142Y00407150D01*
X00235783Y00407384D01*
X00235424Y00407581D01*
X00235064Y00407743D01*
X00234705Y00407869D01*
X00234346Y00407959D01*
X00233987Y00408013D01*
X00233627Y00408031D01*
X00237220Y00411623D01*
X00237237Y00411263D01*
D02*
G37*
G36*
X00260055Y00385762D02*
X00259912Y00385941D01*
X00259751Y00386100D01*
X00259572Y00386241D01*
X00259375Y00386363D01*
X00259160Y00386466D01*
X00258926Y00386550D01*
X00258674Y00386616D01*
X00258404Y00386663D01*
X00258115Y00386691D01*
X00257808Y00386701D01*
X00258257Y00389241D01*
X00258561Y00389247D01*
X00259130Y00389301D01*
X00259396Y00389348D01*
X00259648Y00389408D01*
X00259887Y00389482D01*
X00260113Y00389569D01*
X00260326Y00389669D01*
X00260527Y00389783D01*
X00260714Y00389910D01*
X00260055Y00385762D01*
D02*
G37*
G36*
X00926485Y00388042D02*
X00926391Y00388094D01*
X00926231Y00388141D01*
X00926007Y00388182D01*
X00925716Y00388218D01*
X00924452Y00388292D01*
X00922599Y00388317D01*
X00921982Y00395937D01*
X00922662Y00395942D01*
X00925123Y00396113D01*
X00925426Y00396176D01*
X00925668Y00396250D01*
X00925846Y00396333D01*
X00925962Y00396425D01*
X00926485Y00388042D01*
D02*
G37*
G36*
X00907827Y00398815D02*
X00908055Y00398211D01*
X00908436Y00397678D01*
X00908970Y00397216D01*
X00909656Y00396825D01*
X00910494Y00396505D01*
X00911484Y00396257D01*
X00912627Y00396079D01*
X00913923Y00395972D01*
X00915370Y00395937D01*
Y00388317D01*
X00913923Y00388279D01*
X00912627Y00388164D01*
X00911484Y00387974D01*
X00910494Y00387707D01*
X00909656Y00387364D01*
X00908970Y00386945D01*
X00908436Y00386450D01*
X00908055Y00385878D01*
X00907827Y00385231D01*
X00907750Y00384507D01*
Y00399490D01*
X00907827Y00398815D01*
D02*
G37*
G36*
X00892250Y00384134D02*
X00892173Y00384857D01*
X00891945Y00385505D01*
X00891564Y00386077D01*
X00891030Y00386572D01*
X00890344Y00386991D01*
X00889506Y00387334D01*
X00888516Y00387601D01*
X00887373Y00387791D01*
X00886077Y00387906D01*
X00884630Y00387944D01*
Y00395564D01*
X00886077Y00395602D01*
X00887373Y00395716D01*
X00888516Y00395906D01*
X00889506Y00396173D01*
X00890344Y00396516D01*
X00891030Y00396935D01*
X00891564Y00397430D01*
X00891945Y00398002D01*
X00892173Y00398650D01*
X00892250Y00399374D01*
Y00384134D01*
D02*
G37*
G36*
X00237237Y00386263D02*
X00237291Y00385904D01*
X00237381Y00385545D01*
X00237507Y00385186D01*
X00237668Y00384827D01*
X00237866Y00384467D01*
X00238100Y00384108D01*
X00238369Y00383749D01*
X00238674Y00383390D01*
X00239016Y00383031D01*
X00237220Y00381234D01*
X00236860Y00381576D01*
X00236501Y00381881D01*
X00236142Y00382150D01*
X00235783Y00382384D01*
X00235424Y00382581D01*
X00235064Y00382743D01*
X00234705Y00382869D01*
X00234346Y00382959D01*
X00233987Y00383013D01*
X00233627Y00383031D01*
X00237220Y00386623D01*
X00237237Y00386263D01*
D02*
G37*
G36*
X00260055Y00360762D02*
X00259912Y00360941D01*
X00259751Y00361100D01*
X00259572Y00361241D01*
X00259375Y00361363D01*
X00259160Y00361466D01*
X00258926Y00361550D01*
X00258674Y00361616D01*
X00258404Y00361663D01*
X00258115Y00361691D01*
X00257808Y00361701D01*
X00258257Y00364241D01*
X00258561Y00364247D01*
X00259130Y00364301D01*
X00259396Y00364348D01*
X00259648Y00364408D01*
X00259887Y00364482D01*
X00260113Y00364569D01*
X00260326Y00364669D01*
X00260527Y00364783D01*
X00260714Y00364910D01*
X00260055Y00360762D01*
D02*
G37*
G36*
X00237237Y00361263D02*
X00237291Y00360904D01*
X00237381Y00360545D01*
X00237507Y00360186D01*
X00237668Y00359827D01*
X00237866Y00359467D01*
X00238100Y00359108D01*
X00238369Y00358749D01*
X00238674Y00358390D01*
X00239016Y00358031D01*
X00237220Y00356234D01*
X00236860Y00356576D01*
X00236501Y00356881D01*
X00236142Y00357150D01*
X00235783Y00357384D01*
X00235424Y00357581D01*
X00235064Y00357743D01*
X00234705Y00357869D01*
X00234346Y00357959D01*
X00233987Y00358013D01*
X00233627Y00358031D01*
X00237220Y00361623D01*
X00237237Y00361263D01*
D02*
G37*
G36*
X00263309Y00331885D02*
X00263337Y00331596D01*
X00263384Y00331326D01*
X00263449Y00331074D01*
X00263534Y00330840D01*
X00263637Y00330625D01*
X00263759Y00330428D01*
X00263900Y00330249D01*
X00264060Y00330088D01*
X00264238Y00329945D01*
X00260090Y00329286D01*
X00260217Y00329474D01*
X00260331Y00329674D01*
X00260431Y00329887D01*
X00260518Y00330113D01*
X00260592Y00330352D01*
X00260652Y00330604D01*
X00260699Y00330870D01*
X00260732Y00331148D01*
X00260759Y00331743D01*
X00263299Y00332192D01*
X00263309Y00331885D01*
D02*
G37*
G36*
X00237237Y00336263D02*
X00237291Y00335904D01*
X00237381Y00335545D01*
X00237507Y00335186D01*
X00237668Y00334827D01*
X00237866Y00334467D01*
X00238100Y00334108D01*
X00238369Y00333749D01*
X00238674Y00333390D01*
X00239016Y00333031D01*
X00237220Y00331234D01*
X00236860Y00331576D01*
X00236501Y00331881D01*
X00236142Y00332150D01*
X00235783Y00332384D01*
X00235424Y00332581D01*
X00235064Y00332743D01*
X00234705Y00332869D01*
X00234346Y00332959D01*
X00233987Y00333013D01*
X00233627Y00333031D01*
X00237220Y00336623D01*
X00237237Y00336263D01*
D02*
G37*
G36*
X00263309Y00306885D02*
X00263337Y00306596D01*
X00263384Y00306326D01*
X00263449Y00306074D01*
X00263534Y00305840D01*
X00263637Y00305625D01*
X00263759Y00305428D01*
X00263900Y00305249D01*
X00264060Y00305088D01*
X00264238Y00304945D01*
X00260090Y00304286D01*
X00260217Y00304474D01*
X00260331Y00304674D01*
X00260431Y00304887D01*
X00260518Y00305113D01*
X00260592Y00305352D01*
X00260652Y00305604D01*
X00260699Y00305870D01*
X00260732Y00306148D01*
X00260759Y00306743D01*
X00263299Y00307192D01*
X00263309Y00306885D01*
D02*
G37*
G36*
X00351273Y00454781D02*
X00350913Y00454762D01*
X00350554Y00454709D01*
X00350195Y00454619D01*
X00349836Y00454493D01*
X00349477Y00454332D01*
X00349117Y00454134D01*
X00348758Y00453900D01*
X00348399Y00453631D01*
X00348040Y00453326D01*
X00347681Y00452984D01*
X00345884Y00454781D01*
X00346226Y00455140D01*
X00346531Y00455499D01*
X00346800Y00455858D01*
X00347034Y00456217D01*
X00347231Y00456576D01*
X00347393Y00456936D01*
X00347519Y00457295D01*
X00347609Y00457654D01*
X00347663Y00458013D01*
X00347681Y00458373D01*
X00351273Y00454781D01*
D02*
G37*
G36*
X00365358Y00292900D02*
X00365187Y00293058D01*
X00365002Y00293199D01*
X00364802Y00293323D01*
X00364587Y00293431D01*
X00364357Y00293522D01*
X00364112Y00293597D01*
X00363852Y00293655D01*
X00363577Y00293697D01*
X00363287Y00293722D01*
X00362982Y00293730D01*
Y00296270D01*
X00363287Y00296278D01*
X00363577Y00296303D01*
X00363852Y00296345D01*
X00364112Y00296403D01*
X00364357Y00296478D01*
X00364587Y00296569D01*
X00364802Y00296677D01*
X00365002Y00296801D01*
X00365187Y00296942D01*
X00365358Y00297100D01*
Y00292900D01*
D02*
G37*
G36*
X00425495Y00284799D02*
X00425571Y00284583D01*
X00425698Y00284392D01*
X00425876Y00284227D01*
X00426105Y00284088D01*
X00426384Y00283973D01*
X00426714Y00283884D01*
X00427095Y00283821D01*
X00427527Y00283783D01*
X00428009Y00283770D01*
Y00281230D01*
X00427527Y00281217D01*
X00427095Y00281179D01*
X00426714Y00281116D01*
X00426384Y00281027D01*
X00426105Y00280912D01*
X00425876Y00280773D01*
X00425698Y00280608D01*
X00425571Y00280417D01*
X00425495Y00280201D01*
X00425470Y00279960D01*
Y00285040D01*
X00425495Y00284799D01*
D02*
G37*
G36*
X00431764Y00269592D02*
X00431544Y00269633D01*
X00431324Y00269647D01*
X00431103Y00269632D01*
X00430881Y00269590D01*
X00430659Y00269519D01*
X00430437Y00269421D01*
X00430214Y00269294D01*
X00429990Y00269139D01*
X00429766Y00268956D01*
X00429542Y00268745D01*
X00428234Y00271030D01*
X00428445Y00271249D01*
X00428817Y00271686D01*
X00428977Y00271902D01*
X00429246Y00272332D01*
X00429355Y00272545D01*
X00429446Y00272757D01*
X00429520Y00272968D01*
X00429578Y00273178D01*
X00431764Y00269592D01*
D02*
G37*
G36*
X00427266Y00266469D02*
X00426924Y00266110D01*
X00426619Y00265751D01*
X00426350Y00265392D01*
X00426116Y00265033D01*
X00425919Y00264674D01*
X00425757Y00264314D01*
X00425631Y00263955D01*
X00425541Y00263596D01*
X00425488Y00263237D01*
X00425470Y00262877D01*
X00421877Y00266469D01*
X00422237Y00266488D01*
X00422596Y00266541D01*
X00422955Y00266631D01*
X00423314Y00266757D01*
X00423673Y00266919D01*
X00424033Y00267116D01*
X00424392Y00267350D01*
X00424751Y00267619D01*
X00425110Y00267924D01*
X00425470Y00268266D01*
X00427266Y00266469D01*
D02*
G37*
G36*
X00434075Y00257447D02*
X00433892Y00257318D01*
X00433727Y00257169D01*
X00433582Y00257000D01*
X00433456Y00256811D01*
X00433350Y00256602D01*
X00433263Y00256374D01*
X00433195Y00256126D01*
X00433147Y00255858D01*
X00433118Y00255570D01*
X00433108Y00255262D01*
X00430568Y00255905D01*
X00430562Y00256210D01*
X00430515Y00256781D01*
X00430474Y00257047D01*
X00430421Y00257300D01*
X00430356Y00257540D01*
X00430279Y00257768D01*
X00430191Y00257983D01*
X00430091Y00258185D01*
X00429979Y00258374D01*
X00434075Y00257447D01*
D02*
G37*
G36*
X00427266Y00246970D02*
X00426924Y00246610D01*
X00426619Y00246251D01*
X00426350Y00245892D01*
X00426116Y00245533D01*
X00425919Y00245173D01*
X00425757Y00244814D01*
X00425631Y00244455D01*
X00425541Y00244096D01*
X00425488Y00243737D01*
X00425470Y00243377D01*
X00421377Y00246469D01*
X00421746Y00246497D01*
X00422132Y00246577D01*
X00422536Y00246712D01*
X00422958Y00246901D01*
X00423398Y00247143D01*
X00423856Y00247439D01*
X00424332Y00247790D01*
X00425338Y00248652D01*
X00425868Y00249164D01*
X00427266Y00246970D01*
D02*
G37*
G36*
X00434442Y00242687D02*
X00434301Y00242502D01*
X00434177Y00242302D01*
X00434069Y00242087D01*
X00433978Y00241857D01*
X00433903Y00241612D01*
X00433845Y00241352D01*
X00433803Y00241077D01*
X00433778Y00240787D01*
X00433770Y00240482D01*
X00431230D01*
X00431222Y00240787D01*
X00431197Y00241077D01*
X00431155Y00241352D01*
X00431097Y00241612D01*
X00431022Y00241857D01*
X00430931Y00242087D01*
X00430823Y00242302D01*
X00430699Y00242502D01*
X00430558Y00242687D01*
X00430400Y00242858D01*
X00434600D01*
X00434442Y00242687D01*
D02*
G37*
G36*
X00427266Y00226970D02*
X00426924Y00226610D01*
X00426619Y00226251D01*
X00426350Y00225892D01*
X00426116Y00225533D01*
X00425919Y00225173D01*
X00425757Y00224814D01*
X00425631Y00224455D01*
X00425541Y00224096D01*
X00425488Y00223737D01*
X00425470Y00223377D01*
X00421377Y00226469D01*
X00421746Y00226497D01*
X00422132Y00226577D01*
X00422536Y00226712D01*
X00422958Y00226901D01*
X00423398Y00227143D01*
X00423856Y00227439D01*
X00424332Y00227790D01*
X00425338Y00228652D01*
X00425868Y00229164D01*
X00427266Y00226970D01*
D02*
G37*
G36*
X00237237Y00286263D02*
X00237291Y00285904D01*
X00237381Y00285545D01*
X00237507Y00285186D01*
X00237668Y00284827D01*
X00237866Y00284467D01*
X00238100Y00284108D01*
X00238369Y00283749D01*
X00238674Y00283390D01*
X00239016Y00283030D01*
X00237220Y00281234D01*
X00236860Y00281576D01*
X00236501Y00281881D01*
X00236142Y00282150D01*
X00235783Y00282384D01*
X00235424Y00282582D01*
X00235064Y00282743D01*
X00234705Y00282869D01*
X00234346Y00282959D01*
X00233987Y00283013D01*
X00233627Y00283030D01*
X00237220Y00286623D01*
X00237237Y00286263D01*
D02*
G37*
G36*
X00260055Y00260762D02*
X00259912Y00260940D01*
X00259751Y00261100D01*
X00259572Y00261241D01*
X00259375Y00261363D01*
X00259160Y00261466D01*
X00258926Y00261551D01*
X00258674Y00261616D01*
X00258404Y00261663D01*
X00258115Y00261691D01*
X00257808Y00261701D01*
X00258257Y00264241D01*
X00258561Y00264247D01*
X00259130Y00264301D01*
X00259396Y00264348D01*
X00259648Y00264408D01*
X00259887Y00264482D01*
X00260113Y00264569D01*
X00260326Y00264669D01*
X00260527Y00264783D01*
X00260714Y00264910D01*
X00260055Y00260762D01*
D02*
G37*
G36*
X00237245Y00264799D02*
X00237321Y00264583D01*
X00237448Y00264392D01*
X00237626Y00264227D01*
X00237854Y00264088D01*
X00238134Y00263973D01*
X00238464Y00263884D01*
X00238845Y00263821D01*
X00239277Y00263783D01*
X00239760Y00263770D01*
Y00261230D01*
X00239277Y00261217D01*
X00238845Y00261179D01*
X00238464Y00261116D01*
X00238134Y00261027D01*
X00237854Y00260912D01*
X00237626Y00260773D01*
X00237448Y00260608D01*
X00237321Y00260417D01*
X00237245Y00260201D01*
X00237220Y00259960D01*
Y00265040D01*
X00237245Y00264799D01*
D02*
G37*
G36*
X00250425Y00261383D02*
X00250648Y00261196D01*
X00250871Y00261030D01*
X00251096Y00260888D01*
X00251322Y00260767D01*
X00251549Y00260669D01*
X00251778Y00260593D01*
X00252007Y00260540D01*
X00252238Y00260509D01*
X00252470Y00260500D01*
X00249500Y00257530D01*
X00249491Y00257762D01*
X00249460Y00257992D01*
X00249407Y00258222D01*
X00249331Y00258451D01*
X00249233Y00258678D01*
X00249112Y00258904D01*
X00248970Y00259129D01*
X00248804Y00259352D01*
X00248617Y00259575D01*
X00248407Y00259797D01*
X00250203Y00261593D01*
X00250425Y00261383D01*
D02*
G37*
G36*
X00237237Y00311263D02*
X00237291Y00310904D01*
X00237381Y00310545D01*
X00237507Y00310186D01*
X00237668Y00309827D01*
X00237866Y00309467D01*
X00238100Y00309108D01*
X00238369Y00308749D01*
X00238674Y00308390D01*
X00239016Y00308030D01*
X00237220Y00306234D01*
X00236860Y00306576D01*
X00236501Y00306881D01*
X00236142Y00307150D01*
X00235783Y00307384D01*
X00235424Y00307582D01*
X00235064Y00307743D01*
X00234705Y00307869D01*
X00234346Y00307959D01*
X00233987Y00308013D01*
X00233627Y00308030D01*
X00237220Y00311623D01*
X00237237Y00311263D01*
D02*
G37*
G36*
X00263309Y00281885D02*
X00263337Y00281596D01*
X00263384Y00281326D01*
X00263449Y00281074D01*
X00263534Y00280840D01*
X00263637Y00280625D01*
X00263759Y00280428D01*
X00263900Y00280249D01*
X00264060Y00280088D01*
X00264238Y00279945D01*
X00260090Y00279286D01*
X00260217Y00279474D01*
X00260331Y00279674D01*
X00260431Y00279887D01*
X00260518Y00280113D01*
X00260592Y00280352D01*
X00260652Y00280604D01*
X00260699Y00280870D01*
X00260732Y00281148D01*
X00260759Y00281743D01*
X00263299Y00282192D01*
X00263309Y00281885D01*
D02*
G37*
G36*
X00252470Y00239500D02*
X00252238Y00239491D01*
X00252007Y00239460D01*
X00251778Y00239407D01*
X00251549Y00239331D01*
X00251322Y00239233D01*
X00251096Y00239112D01*
X00250871Y00238969D01*
X00250648Y00238804D01*
X00250425Y00238617D01*
X00250203Y00238407D01*
X00248407Y00240203D01*
X00248617Y00240425D01*
X00248804Y00240648D01*
X00248970Y00240871D01*
X00249112Y00241096D01*
X00249233Y00241322D01*
X00249331Y00241549D01*
X00249407Y00241778D01*
X00249460Y00242007D01*
X00249491Y00242238D01*
X00249500Y00242470D01*
X00252470Y00239500D01*
D02*
G37*
G36*
X00260714Y00235090D02*
X00260527Y00235217D01*
X00260326Y00235331D01*
X00260113Y00235431D01*
X00259887Y00235518D01*
X00259648Y00235592D01*
X00259396Y00235652D01*
X00259130Y00235699D01*
X00258852Y00235732D01*
X00258257Y00235759D01*
X00257808Y00238299D01*
X00258115Y00238309D01*
X00258404Y00238337D01*
X00258674Y00238384D01*
X00258926Y00238449D01*
X00259160Y00238534D01*
X00259375Y00238637D01*
X00259572Y00238759D01*
X00259751Y00238900D01*
X00259912Y00239060D01*
X00260055Y00239238D01*
X00260714Y00235090D01*
D02*
G37*
G36*
X00237245Y00239799D02*
X00237321Y00239583D01*
X00237448Y00239392D01*
X00237626Y00239227D01*
X00237854Y00239088D01*
X00238134Y00238973D01*
X00238464Y00238884D01*
X00238845Y00238821D01*
X00239277Y00238783D01*
X00239760Y00238770D01*
Y00236230D01*
X00239277Y00236217D01*
X00238845Y00236179D01*
X00238464Y00236116D01*
X00238134Y00236027D01*
X00237854Y00235912D01*
X00237626Y00235773D01*
X00237448Y00235608D01*
X00237321Y00235417D01*
X00237245Y00235201D01*
X00237220Y00234960D01*
Y00240040D01*
X00237245Y00239799D01*
D02*
G37*
G36*
X00239016Y00216970D02*
X00238674Y00216610D01*
X00238369Y00216251D01*
X00238100Y00215892D01*
X00237866Y00215533D01*
X00237668Y00215173D01*
X00237507Y00214814D01*
X00237381Y00214455D01*
X00237291Y00214096D01*
X00237237Y00213737D01*
X00237220Y00213377D01*
X00233627Y00216970D01*
X00233987Y00216987D01*
X00234346Y00217041D01*
X00234705Y00217131D01*
X00235064Y00217257D01*
X00235424Y00217418D01*
X00235783Y00217616D01*
X00236142Y00217850D01*
X00236501Y00218119D01*
X00236860Y00218424D01*
X00237220Y00218766D01*
X00239016Y00216970D01*
D02*
G37*
G36*
X00502470Y00269500D02*
X00502238Y00269491D01*
X00502007Y00269460D01*
X00501778Y00269407D01*
X00501549Y00269331D01*
X00501322Y00269233D01*
X00501096Y00269112D01*
X00500871Y00268969D01*
X00500648Y00268804D01*
X00500425Y00268617D01*
X00500203Y00268407D01*
X00498407Y00270203D01*
X00498617Y00270425D01*
X00498805Y00270648D01*
X00498970Y00270871D01*
X00499112Y00271096D01*
X00499233Y00271322D01*
X00499331Y00271549D01*
X00499407Y00271778D01*
X00499460Y00272008D01*
X00499491Y00272238D01*
X00499500Y00272470D01*
X00502470Y00269500D01*
D02*
G37*
G36*
X00474093Y00242297D02*
X00473883Y00242075D01*
X00473695Y00241852D01*
X00473530Y00241629D01*
X00473388Y00241404D01*
X00473267Y00241178D01*
X00473169Y00240951D01*
X00473093Y00240722D01*
X00473040Y00240493D01*
X00473009Y00240262D01*
X00473000Y00240030D01*
X00470030Y00243000D01*
X00470262Y00243009D01*
X00470493Y00243040D01*
X00470722Y00243093D01*
X00470951Y00243169D01*
X00471178Y00243267D01*
X00471404Y00243388D01*
X00471629Y00243531D01*
X00471852Y00243696D01*
X00472075Y00243883D01*
X00472297Y00244093D01*
X00474093Y00242297D01*
D02*
G37*
G36*
X00608009Y00257238D02*
X00608040Y00257007D01*
X00608093Y00256778D01*
X00608169Y00256549D01*
X00608267Y00256322D01*
X00608388Y00256096D01*
X00608531Y00255871D01*
X00608695Y00255648D01*
X00608883Y00255425D01*
X00609093Y00255203D01*
X00607297Y00253407D01*
X00607075Y00253617D01*
X00606852Y00253804D01*
X00606629Y00253969D01*
X00606404Y00254112D01*
X00606178Y00254233D01*
X00605951Y00254331D01*
X00605722Y00254407D01*
X00605493Y00254460D01*
X00605262Y00254491D01*
X00605030Y00254500D01*
X00608000Y00257470D01*
X00608009Y00257238D01*
D02*
G37*
G36*
X00622925Y00241383D02*
X00623148Y00241196D01*
X00623371Y00241031D01*
X00623596Y00240888D01*
X00623822Y00240767D01*
X00624049Y00240669D01*
X00624278Y00240593D01*
X00624507Y00240540D01*
X00624738Y00240509D01*
X00624970Y00240500D01*
X00622000Y00237530D01*
X00621991Y00237762D01*
X00621960Y00237993D01*
X00621907Y00238222D01*
X00621831Y00238451D01*
X00621733Y00238678D01*
X00621612Y00238904D01*
X00621469Y00239129D01*
X00621305Y00239352D01*
X00621117Y00239575D01*
X00620907Y00239797D01*
X00622703Y00241593D01*
X00622925Y00241383D01*
D02*
G37*
G36*
X00670358Y00215400D02*
X00670187Y00215558D01*
X00670002Y00215699D01*
X00669802Y00215823D01*
X00669587Y00215931D01*
X00669357Y00216022D01*
X00669112Y00216097D01*
X00668852Y00216155D01*
X00668577Y00216197D01*
X00668287Y00216222D01*
X00667982Y00216230D01*
Y00218770D01*
X00668287Y00218778D01*
X00668577Y00218803D01*
X00668852Y00218845D01*
X00669112Y00218903D01*
X00669357Y00218978D01*
X00669587Y00219069D01*
X00669802Y00219177D01*
X00670002Y00219301D01*
X00670187Y00219442D01*
X00670358Y00219600D01*
Y00215400D01*
D02*
G37*
G36*
X00602313Y00219442D02*
X00602498Y00219301D01*
X00602698Y00219177D01*
X00602913Y00219069D01*
X00603143Y00218978D01*
X00603388Y00218903D01*
X00603648Y00218845D01*
X00603923Y00218803D01*
X00604213Y00218778D01*
X00604518Y00218770D01*
Y00216230D01*
X00604213Y00216222D01*
X00603923Y00216197D01*
X00603648Y00216155D01*
X00603388Y00216097D01*
X00603143Y00216022D01*
X00602913Y00215931D01*
X00602698Y00215823D01*
X00602498Y00215699D01*
X00602313Y00215558D01*
X00602142Y00215400D01*
Y00219600D01*
X00602313Y00219442D01*
D02*
G37*
G36*
X00264238Y00220055D02*
X00264060Y00219912D01*
X00263900Y00219751D01*
X00263759Y00219572D01*
X00263637Y00219375D01*
X00263534Y00219160D01*
X00263449Y00218926D01*
X00263384Y00218674D01*
X00263337Y00218404D01*
X00263309Y00218115D01*
X00263299Y00217808D01*
X00260759Y00218257D01*
X00260753Y00218561D01*
X00260699Y00219130D01*
X00260652Y00219396D01*
X00260592Y00219648D01*
X00260518Y00219887D01*
X00260431Y00220113D01*
X00260331Y00220326D01*
X00260217Y00220527D01*
X00260090Y00220714D01*
X00264238Y00220055D01*
D02*
G37*
G36*
X00239016Y00191970D02*
X00238674Y00191610D01*
X00238369Y00191251D01*
X00238100Y00190892D01*
X00237866Y00190533D01*
X00237668Y00190173D01*
X00237507Y00189814D01*
X00237381Y00189455D01*
X00237291Y00189096D01*
X00237237Y00188737D01*
X00237220Y00188377D01*
X00233627Y00191970D01*
X00233987Y00191987D01*
X00234346Y00192041D01*
X00234705Y00192131D01*
X00235064Y00192257D01*
X00235424Y00192418D01*
X00235783Y00192616D01*
X00236142Y00192850D01*
X00236501Y00193119D01*
X00236860Y00193424D01*
X00237220Y00193766D01*
X00239016Y00191970D01*
D02*
G37*
G36*
X00264238Y00195055D02*
X00264060Y00194912D01*
X00263900Y00194751D01*
X00263759Y00194572D01*
X00263637Y00194375D01*
X00263534Y00194160D01*
X00263449Y00193926D01*
X00263384Y00193674D01*
X00263337Y00193404D01*
X00263309Y00193115D01*
X00263299Y00192808D01*
X00260759Y00193257D01*
X00260753Y00193561D01*
X00260699Y00194130D01*
X00260652Y00194396D01*
X00260592Y00194648D01*
X00260518Y00194887D01*
X00260431Y00195113D01*
X00260331Y00195326D01*
X00260217Y00195527D01*
X00260090Y00195714D01*
X00264238Y00195055D01*
D02*
G37*
G36*
X00239016Y00166970D02*
X00238674Y00166610D01*
X00238369Y00166251D01*
X00238100Y00165892D01*
X00237866Y00165533D01*
X00237668Y00165173D01*
X00237507Y00164814D01*
X00237381Y00164455D01*
X00237291Y00164096D01*
X00237237Y00163737D01*
X00237220Y00163377D01*
X00233627Y00166970D01*
X00233987Y00166987D01*
X00234346Y00167041D01*
X00234705Y00167131D01*
X00235064Y00167257D01*
X00235424Y00167418D01*
X00235783Y00167616D01*
X00236142Y00167850D01*
X00236501Y00168119D01*
X00236860Y00168424D01*
X00237220Y00168766D01*
X00239016Y00166970D01*
D02*
G37*
G36*
X00260714Y00135090D02*
X00260527Y00135217D01*
X00260326Y00135331D01*
X00260113Y00135431D01*
X00259887Y00135518D01*
X00259648Y00135592D01*
X00259396Y00135652D01*
X00259130Y00135699D01*
X00258852Y00135732D01*
X00258257Y00135759D01*
X00257808Y00138299D01*
X00258115Y00138309D01*
X00258404Y00138337D01*
X00258674Y00138384D01*
X00258926Y00138449D01*
X00259160Y00138534D01*
X00259375Y00138637D01*
X00259572Y00138759D01*
X00259751Y00138900D01*
X00259912Y00139059D01*
X00260055Y00139238D01*
X00260714Y00135090D01*
D02*
G37*
G36*
X00239016Y00116969D02*
X00238674Y00116610D01*
X00238369Y00116251D01*
X00238100Y00115892D01*
X00237866Y00115533D01*
X00237668Y00115174D01*
X00237507Y00114814D01*
X00237381Y00114455D01*
X00237291Y00114096D01*
X00237237Y00113737D01*
X00237220Y00113377D01*
X00233627Y00116969D01*
X00233987Y00116987D01*
X00234346Y00117041D01*
X00234705Y00117131D01*
X00235064Y00117257D01*
X00235424Y00117418D01*
X00235783Y00117616D01*
X00236142Y00117850D01*
X00236501Y00118119D01*
X00236860Y00118424D01*
X00237220Y00118766D01*
X00239016Y00116969D01*
D02*
G37*
G36*
X00264238Y00170055D02*
X00264060Y00169912D01*
X00263900Y00169751D01*
X00263759Y00169572D01*
X00263637Y00169375D01*
X00263534Y00169160D01*
X00263449Y00168926D01*
X00263384Y00168674D01*
X00263337Y00168404D01*
X00263309Y00168115D01*
X00263299Y00167808D01*
X00260759Y00168257D01*
X00260753Y00168561D01*
X00260699Y00169130D01*
X00260652Y00169396D01*
X00260592Y00169648D01*
X00260518Y00169887D01*
X00260431Y00170113D01*
X00260331Y00170326D01*
X00260217Y00170527D01*
X00260090Y00170714D01*
X00264238Y00170055D01*
D02*
G37*
G36*
X00239016Y00141969D02*
X00238674Y00141610D01*
X00238369Y00141251D01*
X00238100Y00140892D01*
X00237866Y00140533D01*
X00237668Y00140174D01*
X00237507Y00139814D01*
X00237381Y00139455D01*
X00237291Y00139096D01*
X00237237Y00138737D01*
X00237220Y00138377D01*
X00233627Y00141969D01*
X00233987Y00141987D01*
X00234346Y00142041D01*
X00234705Y00142131D01*
X00235064Y00142257D01*
X00235424Y00142418D01*
X00235783Y00142616D01*
X00236142Y00142850D01*
X00236501Y00143119D01*
X00236860Y00143424D01*
X00237220Y00143766D01*
X00239016Y00141969D01*
D02*
G37*
G36*
X00562313Y00174442D02*
X00562498Y00174301D01*
X00562698Y00174177D01*
X00562913Y00174069D01*
X00563143Y00173978D01*
X00563388Y00173903D01*
X00563648Y00173845D01*
X00563923Y00173803D01*
X00564213Y00173778D01*
X00564518Y00173770D01*
Y00171230D01*
X00564213Y00171222D01*
X00563923Y00171197D01*
X00563648Y00171155D01*
X00563388Y00171097D01*
X00563143Y00171022D01*
X00562913Y00170931D01*
X00562698Y00170823D01*
X00562498Y00170699D01*
X00562313Y00170558D01*
X00562142Y00170400D01*
Y00174600D01*
X00562313Y00174442D01*
D02*
G37*
G36*
X00750425Y00138883D02*
X00750648Y00138695D01*
X00750871Y00138531D01*
X00751096Y00138388D01*
X00751322Y00138267D01*
X00751550Y00138169D01*
X00751778Y00138093D01*
X00752007Y00138040D01*
X00752238Y00138009D01*
X00752470Y00138000D01*
X00749500Y00135030D01*
X00749491Y00135262D01*
X00749460Y00135493D01*
X00749407Y00135722D01*
X00749331Y00135950D01*
X00749233Y00136178D01*
X00749112Y00136404D01*
X00748969Y00136629D01*
X00748804Y00136853D01*
X00748617Y00137075D01*
X00748407Y00137297D01*
X00750203Y00139093D01*
X00750425Y00138883D01*
D02*
G37*
G36*
X00262470Y00109500D02*
X00262238Y00109491D01*
X00262008Y00109460D01*
X00261778Y00109407D01*
X00261549Y00109331D01*
X00261322Y00109233D01*
X00261096Y00109112D01*
X00260871Y00108970D01*
X00260648Y00108805D01*
X00260425Y00108617D01*
X00260203Y00108407D01*
X00258407Y00110203D01*
X00258617Y00110425D01*
X00258804Y00110647D01*
X00258970Y00110871D01*
X00259112Y00111096D01*
X00259233Y00111322D01*
X00259331Y00111550D01*
X00259407Y00111778D01*
X00259460Y00112007D01*
X00259491Y00112238D01*
X00259500Y00112470D01*
X00262470Y00109500D01*
D02*
G37*
G36*
X00237245Y00097299D02*
X00237321Y00097083D01*
X00237448Y00096892D01*
X00237626Y00096727D01*
X00237854Y00096587D01*
X00238134Y00096473D01*
X00238464Y00096384D01*
X00238845Y00096321D01*
X00239277Y00096283D01*
X00239760Y00096270D01*
Y00093730D01*
X00239277Y00093717D01*
X00238845Y00093679D01*
X00238464Y00093616D01*
X00238134Y00093527D01*
X00237854Y00093413D01*
X00237626Y00093273D01*
X00237448Y00093108D01*
X00237321Y00092917D01*
X00237245Y00092701D01*
X00237220Y00092460D01*
Y00097540D01*
X00237245Y00097299D01*
D02*
G37*
G36*
X00262530Y00085179D02*
X00262299Y00085170D01*
X00262068Y00085139D01*
X00261838Y00085085D01*
X00261610Y00085010D01*
X00261383Y00084912D01*
X00261157Y00084791D01*
X00260932Y00084648D01*
X00260708Y00084483D01*
X00260485Y00084296D01*
X00260264Y00084086D01*
X00258468Y00085882D01*
X00258678Y00086104D01*
X00258865Y00086326D01*
X00259030Y00086550D01*
X00259173Y00086775D01*
X00259293Y00087001D01*
X00259391Y00087228D01*
X00259467Y00087457D01*
X00259521Y00087686D01*
X00259552Y00087917D01*
X00259561Y00088149D01*
X00262530Y00085179D01*
D02*
G37*
G36*
X00237245Y00079799D02*
X00237321Y00079583D01*
X00237448Y00079392D01*
X00237626Y00079227D01*
X00237854Y00079088D01*
X00238134Y00078973D01*
X00238464Y00078884D01*
X00238845Y00078821D01*
X00239277Y00078783D01*
X00239760Y00078770D01*
Y00076230D01*
X00239277Y00076217D01*
X00238845Y00076179D01*
X00238464Y00076116D01*
X00238134Y00076027D01*
X00237854Y00075912D01*
X00237626Y00075773D01*
X00237448Y00075608D01*
X00237321Y00075417D01*
X00237245Y00075201D01*
X00237220Y00074960D01*
Y00080040D01*
X00237245Y00079799D01*
D02*
G37*
G36*
X00262470Y00072000D02*
X00262238Y00071991D01*
X00262008Y00071960D01*
X00261778Y00071907D01*
X00261549Y00071831D01*
X00261322Y00071733D01*
X00261096Y00071612D01*
X00260871Y00071470D01*
X00260648Y00071304D01*
X00260425Y00071117D01*
X00260203Y00070907D01*
X00258407Y00072703D01*
X00258617Y00072925D01*
X00258804Y00073148D01*
X00258970Y00073371D01*
X00259112Y00073596D01*
X00259233Y00073822D01*
X00259331Y00074050D01*
X00259407Y00074278D01*
X00259460Y00074507D01*
X00259491Y00074738D01*
X00259500Y00074970D01*
X00262470Y00072000D01*
D02*
G37*
G36*
X00204813Y00064442D02*
X00204998Y00064301D01*
X00205198Y00064177D01*
X00205413Y00064069D01*
X00205643Y00063977D01*
X00205888Y00063903D01*
X00206148Y00063845D01*
X00206423Y00063803D01*
X00206713Y00063778D01*
X00207018Y00063770D01*
Y00061230D01*
X00206713Y00061222D01*
X00206423Y00061197D01*
X00206148Y00061155D01*
X00205888Y00061097D01*
X00205643Y00061023D01*
X00205413Y00060931D01*
X00205198Y00060823D01*
X00204998Y00060699D01*
X00204813Y00060558D01*
X00204642Y00060400D01*
Y00064600D01*
X00204813Y00064442D01*
D02*
G37*
G36*
X00253214Y00052590D02*
X00253026Y00052717D01*
X00252826Y00052831D01*
X00252613Y00052931D01*
X00252387Y00053018D01*
X00252148Y00053092D01*
X00251896Y00053152D01*
X00251630Y00053199D01*
X00251352Y00053232D01*
X00250757Y00053259D01*
X00250308Y00055799D01*
X00250615Y00055809D01*
X00250904Y00055837D01*
X00251174Y00055884D01*
X00251426Y00055950D01*
X00251660Y00056034D01*
X00251875Y00056137D01*
X00252072Y00056259D01*
X00252251Y00056400D01*
X00252412Y00056560D01*
X00252555Y00056738D01*
X00253214Y00052590D01*
D02*
G37*
G36*
X00239016Y00041969D02*
X00238674Y00041610D01*
X00238369Y00041251D01*
X00238100Y00040892D01*
X00237866Y00040533D01*
X00237668Y00040174D01*
X00237507Y00039814D01*
X00237381Y00039455D01*
X00237291Y00039096D01*
X00237237Y00038737D01*
X00237220Y00038377D01*
X00233627Y00041969D01*
X00233987Y00041988D01*
X00234346Y00042041D01*
X00234705Y00042131D01*
X00235064Y00042257D01*
X00235424Y00042418D01*
X00235783Y00042616D01*
X00236142Y00042850D01*
X00236501Y00043119D01*
X00236860Y00043424D01*
X00237220Y00043766D01*
X00239016Y00041969D01*
D02*
G37*
D14*
X00310000Y00336133D02*
X00351133Y00295000D01*
X00367500D01*
X00310000Y00427500D02*
X00320000Y00437500D01*
X00330400D01*
X00310000Y00336133D02*
Y00427500D01*
X00330400Y00437500D02*
X00355400Y00462500D01*
X00250000Y00062500D02*
X00262500Y00075000D01*
X00202500Y00062500D02*
X00250000D01*
X00580000Y00172500D02*
X00598750Y00153750D01*
X00560000Y00172500D02*
X00580000D01*
X00598750Y00153750D02*
X00733750D01*
X00752500Y00135000D01*
X00247500Y00237500D02*
X00252500Y00242500D01*
X00233500Y00237500D02*
X00247500D01*
X00262029Y00237029D02*
X00262500Y00237500D01*
X00233500Y00213250D02*
X00257279Y00237029D01*
X00262029D01*
X00233500Y00262500D02*
X00247500D01*
X00252500Y00257500D01*
X00257279Y00262971D02*
X00262029D01*
X00262500Y00262500D01*
X00233500Y00286750D02*
X00257279Y00262971D01*
X00207500Y00080000D02*
X00219020D01*
Y00080730D01*
X00221500Y00078250D01*
Y00077500D02*
Y00078250D01*
X00227823Y00402450D02*
X00228294Y00401979D01*
X00227823Y00427450D02*
X00228294Y00426979D01*
X00227823Y00352450D02*
X00228294Y00351979D01*
X00227823Y00377450D02*
X00228294Y00376979D01*
X00390000Y00282500D02*
X00404000D01*
X00227379Y00327220D02*
X00227849Y00326749D01*
X00227823Y00277450D02*
X00228294Y00276979D01*
X00227823Y00277450D02*
Y00280427D01*
X00390000Y00262500D02*
X00404000D01*
X00227823Y00252450D02*
Y00255427D01*
X00221500Y00261750D02*
X00227823Y00255427D01*
Y00252450D02*
X00228294Y00251979D01*
X00221500Y00436750D02*
X00227823Y00430427D01*
Y00427450D02*
Y00430427D01*
X00221500Y00411750D02*
Y00412500D01*
Y00436750D02*
Y00437500D01*
X00227823Y00402450D02*
Y00405427D01*
X00221500Y00386750D02*
X00227823Y00380427D01*
X00221500Y00411750D02*
X00227823Y00405427D01*
Y00377450D02*
Y00380427D01*
X00221500Y00386750D02*
Y00387500D01*
Y00361750D02*
Y00362500D01*
Y00361750D02*
X00227823Y00355427D01*
Y00352450D02*
Y00355427D01*
X00227379Y00327220D02*
Y00330871D01*
X00221500Y00336750D02*
X00227379Y00330871D01*
X00221500Y00336750D02*
Y00337500D01*
X00208682Y00312500D02*
X00221500D01*
Y00286750D02*
X00227823Y00280427D01*
X00221500Y00261750D02*
Y00262500D01*
Y00286750D02*
Y00287500D01*
X00390000Y00224660D02*
X00390666D01*
X00390000Y00242500D02*
X00404000D01*
X00392826Y00222500D02*
X00404000D01*
X00390666Y00224660D02*
X00392826Y00222500D01*
X00227823Y00177450D02*
X00228294Y00176979D01*
X00227823Y00152450D02*
X00228294Y00151979D01*
X00227823Y00127450D02*
X00228294Y00126979D01*
X00221500Y00236750D02*
X00227823Y00230427D01*
Y00227450D02*
Y00230427D01*
Y00227450D02*
X00228294Y00226979D01*
X00221500Y00236750D02*
Y00237500D01*
X00208682Y00212500D02*
X00221500D01*
X00227823Y00177450D02*
Y00180427D01*
X00221500Y00186750D02*
X00227823Y00180427D01*
Y00152450D02*
Y00155427D01*
X00221500Y00161750D02*
X00227823Y00155427D01*
X00221500Y00186750D02*
Y00187500D01*
Y00161750D02*
Y00162500D01*
Y00136750D02*
X00227823Y00130427D01*
Y00127450D02*
Y00130427D01*
X00221500Y00136750D02*
Y00137500D01*
X00208682Y00112500D02*
X00221500D01*
X00221148Y00095352D02*
X00221500Y00095000D01*
X00209246Y00095352D02*
X00221148D01*
X00208682Y00037500D02*
X00221500D01*
X00262048Y00412240D02*
X00262519Y00411769D01*
X00258010Y00412240D02*
X00262048D01*
X00233500Y00436750D02*
X00258010Y00412240D01*
X00257279Y00387971D02*
X00262029D01*
X00262500Y00387500D01*
X00424230Y00225730D02*
X00432500Y00234000D01*
Y00245000D01*
X00502500Y00272500D02*
X00502500D01*
X00470000Y00240000D02*
X00502500Y00272500D01*
X00600000Y00217500D02*
X00672500D01*
X00605000Y00257500D02*
X00625000Y00237500D01*
X00254529Y00054529D02*
X00255000Y00055000D01*
X00249779Y00054529D02*
X00254529D01*
X00233500Y00038250D02*
X00249779Y00054529D01*
X00233500Y00037500D02*
Y00038250D01*
X00262029Y00302971D02*
Y00308221D01*
Y00302971D02*
X00262500Y00302500D01*
X00233500Y00336750D02*
X00262029Y00308221D01*
X00233500Y00336750D02*
Y00337500D01*
X00431810Y00285000D02*
X00432500D01*
X00421000Y00282500D02*
X00429310D01*
X00431810Y00285000D01*
X00421000Y00222500D02*
X00421500D01*
X00424230Y00225230D01*
Y00225730D01*
X00233500Y00212500D02*
Y00213250D01*
Y00411750D02*
X00257279Y00387971D01*
X00233500Y00411750D02*
Y00412500D01*
X00421000Y00262500D02*
X00421500D01*
X00430838Y00271838D01*
X00431838D01*
X00432500Y00272500D01*
X00421000Y00242500D02*
X00421500D01*
X00424230Y00245230D01*
Y00245730D01*
X00431838Y00253338D01*
Y00259338D01*
X00432500Y00260000D01*
X00262029Y00191779D02*
Y00197029D01*
X00233500Y00163250D02*
X00262029Y00191779D01*
X00233500Y00162500D02*
Y00163250D01*
X00262029Y00197029D02*
X00262500Y00197500D01*
X00262029Y00222029D02*
X00262500Y00222500D01*
X00262029Y00216779D02*
Y00222029D01*
X00233500Y00188250D02*
X00262029Y00216779D01*
X00233500Y00187500D02*
Y00188250D01*
X00262029Y00277971D02*
Y00283221D01*
X00233500Y00311750D02*
Y00312500D01*
Y00311750D02*
X00262029Y00283221D01*
Y00277971D02*
X00262500Y00277500D01*
X00262029Y00327971D02*
Y00333221D01*
Y00327971D02*
X00262500Y00327500D01*
X00233500Y00361750D02*
Y00362500D01*
Y00361750D02*
X00262029Y00333221D01*
X00233500Y00113250D02*
X00257279Y00137029D01*
X00262029D02*
X00262500Y00137500D01*
X00257279Y00137029D02*
X00262029D01*
X00233500Y00112500D02*
Y00113250D01*
Y00137500D02*
Y00138250D01*
X00262029Y00172029D02*
X00262500Y00172500D01*
X00262029Y00166779D02*
Y00172029D01*
X00233500Y00138250D02*
X00262029Y00166779D01*
X00233500Y00286750D02*
Y00287500D01*
X00257279Y00362971D02*
X00262029D01*
X00262500Y00362500D01*
X00233500Y00386750D02*
X00257279Y00362971D01*
X00233500Y00386750D02*
Y00387500D01*
Y00436750D02*
Y00437500D01*
X00251882Y00077500D02*
X00262561Y00088179D01*
X00233500Y00077500D02*
X00251882D01*
X00245000Y00095000D02*
X00262500Y00112500D01*
X00233500Y00095000D02*
X00245000D01*
D18*
X00404000Y00282500D02*
D03*
Y00262500D02*
D03*
Y00222500D02*
D03*
Y00242500D02*
D03*
X00421000Y00282500D02*
D03*
Y00222500D02*
D03*
Y00262500D02*
D03*
Y00242500D02*
D03*
D20*
X00900000Y00373246D02*
D03*
Y00391754D02*
D03*
D45*
X00221500Y00437500D02*
D03*
Y00412500D02*
D03*
Y00362500D02*
D03*
Y00387500D02*
D03*
Y00337500D02*
D03*
Y00287500D02*
D03*
Y00312500D02*
D03*
Y00262500D02*
D03*
Y00237500D02*
D03*
Y00212500D02*
D03*
Y00187500D02*
D03*
Y00162500D02*
D03*
Y00137500D02*
D03*
Y00095000D02*
D03*
Y00112500D02*
D03*
Y00077500D02*
D03*
Y00037500D02*
D03*
X00233500D02*
D03*
Y00337500D02*
D03*
Y00212500D02*
D03*
Y00412500D02*
D03*
Y00162500D02*
D03*
Y00187500D02*
D03*
Y00237500D02*
D03*
Y00312500D02*
D03*
Y00362500D02*
D03*
Y00112500D02*
D03*
Y00137500D02*
D03*
Y00287500D02*
D03*
Y00387500D02*
D03*
Y00437500D02*
D03*
Y00077500D02*
D03*
Y00095000D02*
D03*
Y00262500D02*
D03*
D60*
X00970000Y00177500D02*
D03*
Y00091100D02*
D03*
D61*
X00930000Y00177500D02*
D03*
Y00091100D02*
D03*
D63*
X00952500Y00267000D02*
D03*
Y00220000D02*
D03*
D65*
Y00314000D02*
D03*
D69*
X00580000Y00315000D02*
X00595000D01*
X00692500D02*
X00737500Y00360000D01*
X00595000Y00315000D02*
X00692500D01*
X00737500Y00360000D02*
X00800000D01*
X00800059Y00359941D01*
X00814050D01*
X00814109Y00360000D01*
X00827500D01*
D71*
X00900746Y00372500D02*
X00930500D01*
X00899727Y00372973D02*
X00900000Y00373246D01*
X00872773Y00372973D02*
X00899727D01*
X00872500Y00372700D02*
X00872773Y00372973D01*
X00872500Y00395000D02*
X00875746Y00391754D01*
X00900000D01*
X00900373Y00392127D01*
X00930127D01*
X00930500Y00392500D01*
D73*
X00330000Y00462500D02*
D03*
X00135400Y00430000D02*
D03*
X00489200Y00037500D02*
D03*
X00514600D02*
D03*
X00135400Y00070000D02*
D03*
Y00110000D02*
D03*
Y00150000D02*
D03*
Y00190000D02*
D03*
Y00230000D02*
D03*
Y00270000D02*
D03*
Y00310000D02*
D03*
Y00350000D02*
D03*
Y00390000D02*
D03*
D74*
X00355400Y00462500D02*
D03*
X00540000Y00037500D02*
D03*
X00110000Y00110000D02*
D03*
Y00150000D02*
D03*
Y00190000D02*
D03*
Y00230000D02*
D03*
Y00270000D02*
D03*
Y00310000D02*
D03*
Y00350000D02*
D03*
Y00070000D02*
D03*
Y00430000D02*
D03*
Y00390000D02*
D03*
D75*
X00681000Y00078500D02*
D03*
X00688000Y00085500D02*
D03*
Y00071500D02*
D03*
X00695000Y00078500D02*
D03*
X00702000Y00071500D02*
D03*
X00709000Y00078500D02*
D03*
X00702000Y00085500D02*
D03*
X00709000Y00092500D02*
D03*
X00702000Y00099500D02*
D03*
X00695000Y00092500D02*
D03*
X00681000D02*
D03*
X00688000Y00099500D02*
D03*
X00970000Y00407500D02*
D03*
X00985000Y00377500D02*
D03*
X00970000Y00347500D02*
D03*
X00985000Y00317500D02*
D03*
X00970000Y00287500D02*
D03*
X00985000Y00257500D02*
D03*
Y00197500D02*
D03*
Y00137500D02*
D03*
Y00077500D02*
D03*
X00940000Y00407500D02*
D03*
Y00347500D02*
D03*
Y00287500D02*
D03*
X00910000Y00467500D02*
D03*
Y00347500D02*
D03*
X00925000Y00317500D02*
D03*
X00910000Y00287500D02*
D03*
X00925000Y00257500D02*
D03*
Y00197500D02*
D03*
X00910000Y00107500D02*
D03*
Y00047500D02*
D03*
X00880000Y00467500D02*
D03*
X00895000Y00437500D02*
D03*
Y00317500D02*
D03*
Y00257500D02*
D03*
X00880000Y00167500D02*
D03*
Y00107500D02*
D03*
X00895000Y00077500D02*
D03*
X00880000Y00047500D02*
D03*
X00850000Y00467500D02*
D03*
X00865000Y00437500D02*
D03*
X00850000Y00227500D02*
D03*
X00865000Y00197500D02*
D03*
X00850000Y00107500D02*
D03*
X00820000Y00467500D02*
D03*
X00835000Y00437500D02*
D03*
X00820000Y00227500D02*
D03*
X00835000Y00197500D02*
D03*
X00820000Y00107500D02*
D03*
X00790000Y00467500D02*
D03*
X00805000Y00437500D02*
D03*
X00790000Y00407500D02*
D03*
X00805000Y00317500D02*
D03*
X00790000Y00227500D02*
D03*
X00805000Y00197500D02*
D03*
X00790000Y00107500D02*
D03*
X00760000Y00467500D02*
D03*
X00775000Y00437500D02*
D03*
Y00377500D02*
D03*
Y00317500D02*
D03*
Y00257500D02*
D03*
Y00197500D02*
D03*
X00730000Y00467500D02*
D03*
X00745000Y00437500D02*
D03*
Y00317500D02*
D03*
X00730000Y00287500D02*
D03*
Y00227500D02*
D03*
Y00167500D02*
D03*
Y00107500D02*
D03*
X00745000Y00077500D02*
D03*
X00730000Y00047500D02*
D03*
X00715000Y00317500D02*
D03*
X00700000Y00287500D02*
D03*
X00715000Y00257500D02*
D03*
X00700000Y00227500D02*
D03*
Y00167500D02*
D03*
X00715000Y00137500D02*
D03*
X00670000Y00287500D02*
D03*
X00685000Y00257500D02*
D03*
X00670000Y00167500D02*
D03*
X00685000Y00137500D02*
D03*
X00670000Y00107500D02*
D03*
Y00047500D02*
D03*
X00640000Y00287500D02*
D03*
Y00167500D02*
D03*
X00655000Y00137500D02*
D03*
X00640000Y00107500D02*
D03*
X00655000Y00077500D02*
D03*
X00640000Y00047500D02*
D03*
X00625000Y00437500D02*
D03*
X00610000Y00407500D02*
D03*
X00625000Y00377500D02*
D03*
Y00257500D02*
D03*
X00610000Y00167500D02*
D03*
X00625000Y00137500D02*
D03*
X00610000Y00107500D02*
D03*
X00625000Y00077500D02*
D03*
X00610000Y00047500D02*
D03*
X00595000Y00437500D02*
D03*
X00580000Y00407500D02*
D03*
X00595000Y00377500D02*
D03*
Y00197500D02*
D03*
X00565000Y00437500D02*
D03*
Y00377500D02*
D03*
Y00317500D02*
D03*
Y00197500D02*
D03*
X00550000Y00107500D02*
D03*
X00520000Y00467500D02*
D03*
Y00407500D02*
D03*
Y00347500D02*
D03*
X00535000Y00197500D02*
D03*
X00520000Y00167500D02*
D03*
Y00107500D02*
D03*
X00490000Y00467500D02*
D03*
X00505000Y00437500D02*
D03*
X00490000Y00407500D02*
D03*
X00505000Y00377500D02*
D03*
X00490000Y00347500D02*
D03*
X00505000Y00137500D02*
D03*
Y00077500D02*
D03*
X00460000Y00467500D02*
D03*
X00475000Y00437500D02*
D03*
X00460000Y00407500D02*
D03*
X00475000Y00377500D02*
D03*
Y00197500D02*
D03*
Y00077500D02*
D03*
X00460000Y00047500D02*
D03*
X00430000Y00467500D02*
D03*
X00445000Y00437500D02*
D03*
Y00317500D02*
D03*
Y00077500D02*
D03*
X00430000Y00047500D02*
D03*
X00400000Y00467500D02*
D03*
X00415000Y00437500D02*
D03*
X00400000Y00407500D02*
D03*
X00415000Y00077500D02*
D03*
X00400000Y00047500D02*
D03*
X00370000Y00227500D02*
D03*
X00385000Y00077500D02*
D03*
X00370000Y00047500D02*
D03*
X00355000Y00437500D02*
D03*
X00340000Y00407500D02*
D03*
X00355000Y00257500D02*
D03*
X00340000Y00107500D02*
D03*
X00355000Y00077500D02*
D03*
X00340000Y00047500D02*
D03*
X00325000Y00077500D02*
D03*
X00310000Y00047500D02*
D03*
X00295000Y00437500D02*
D03*
X00280000Y00227500D02*
D03*
X00295000Y00077500D02*
D03*
X00280000Y00047500D02*
D03*
X00190000Y00467500D02*
D03*
Y00407500D02*
D03*
Y00287500D02*
D03*
Y00227500D02*
D03*
X00205000Y00197500D02*
D03*
X00190000Y00107500D02*
D03*
X00160000Y00467500D02*
D03*
X00175000Y00377500D02*
D03*
Y00317500D02*
D03*
X00160000Y00287500D02*
D03*
X00175000Y00197500D02*
D03*
X00160000Y00107500D02*
D03*
X00130000Y00467500D02*
D03*
Y00407500D02*
D03*
Y00287500D02*
D03*
X00100000Y00467500D02*
D03*
Y00407500D02*
D03*
Y00287500D02*
D03*
Y00167500D02*
D03*
Y00047500D02*
D03*
X00070000Y00407500D02*
D03*
X00085000Y00377500D02*
D03*
X00070000Y00347500D02*
D03*
X00085000Y00317500D02*
D03*
X00070000Y00287500D02*
D03*
X00085000Y00257500D02*
D03*
X00070000Y00227500D02*
D03*
X00085000Y00197500D02*
D03*
X00070000Y00167500D02*
D03*
X00085000Y00137500D02*
D03*
X00070000Y00107500D02*
D03*
X00085000Y00077500D02*
D03*
X00040000Y00407500D02*
D03*
X00055000Y00377500D02*
D03*
X00040000Y00347500D02*
D03*
X00055000Y00317500D02*
D03*
X00040000Y00287500D02*
D03*
X00055000Y00257500D02*
D03*
X00040000Y00227500D02*
D03*
X00055000Y00197500D02*
D03*
X00040000Y00167500D02*
D03*
X00055000Y00137500D02*
D03*
X00040000Y00107500D02*
D03*
X00337500Y00317500D02*
D03*
X00262500Y00075000D02*
D03*
X00560000Y00172500D02*
D03*
X00600000Y00217500D02*
D03*
X00252500Y00242500D02*
D03*
Y00257500D02*
D03*
X00662500Y00397500D02*
D03*
X00682500Y00376750D02*
D03*
Y00387500D02*
D03*
Y00398250D02*
D03*
Y00413500D02*
D03*
X00669500Y00346500D02*
D03*
X00752000Y00380000D02*
D03*
X00671000Y00364000D02*
D03*
X00682500Y00365500D02*
D03*
X00752000Y00372000D02*
D03*
X00520000Y00395000D02*
D03*
X00417500Y00382500D02*
D03*
X00580000Y00350000D02*
D03*
X00595000D02*
D03*
X00395000Y00337500D02*
D03*
X00352500Y00382500D02*
D03*
X00385000Y00177500D02*
D03*
X00382500Y00167500D02*
D03*
X00345000Y00145000D02*
D03*
X00595000Y00474776D02*
D03*
X00580000D02*
D03*
X00520000Y00435000D02*
D03*
X00432500D02*
D03*
X00485000Y00105000D02*
D03*
X00472500D02*
D03*
X00447500D02*
D03*
X00422500D02*
D03*
X00405000D02*
D03*
X00385000Y00435000D02*
D03*
X00390000Y00330000D02*
D03*
X00367500Y00435000D02*
D03*
X00382500Y00294000D02*
D03*
X00370457Y00213942D02*
D03*
X00372500Y00105000D02*
D03*
X00875500Y00406500D02*
D03*
X00883500D02*
D03*
X00817500D02*
D03*
X00798500D02*
D03*
X00867500D02*
D03*
X00833500D02*
D03*
X00873500Y00313500D02*
D03*
X00865500D02*
D03*
X00881500D02*
D03*
X00831500D02*
D03*
X00796500D02*
D03*
X00815500D02*
D03*
X00865000Y00220000D02*
D03*
X00970000Y00167500D02*
D03*
X00912500D02*
D03*
X00867500Y00155000D02*
D03*
X00802500Y00145000D02*
D03*
X00867500Y00122500D02*
D03*
X00970000Y00102500D02*
D03*
X00938941Y00102461D02*
D03*
X00867500Y00047500D02*
D03*
X00835000Y00012500D02*
D03*
X00725000Y00100277D02*
D03*
X00695000Y00115000D02*
D03*
X00725000Y00085118D02*
D03*
X00662500Y00099800D02*
D03*
Y00085318D02*
D03*
X00725000Y00071370D02*
D03*
X00695000Y00052500D02*
D03*
X00662500Y00071103D02*
D03*
X00575000Y00012500D02*
D03*
X00435000Y00330000D02*
D03*
X00228294Y00426979D02*
D03*
Y00351979D02*
D03*
X00425000Y00330000D02*
D03*
X00228294Y00376979D02*
D03*
Y00401979D02*
D03*
X00507500Y00317500D02*
D03*
X00470000Y00255000D02*
D03*
X00390000Y00282500D02*
D03*
X00228294Y00276979D02*
D03*
X00227849Y00326749D02*
D03*
X00390000Y00262500D02*
D03*
X00228294Y00251979D02*
D03*
X00157416Y00430458D02*
D03*
X00208682Y00312500D02*
D03*
X00162500Y00337500D02*
D03*
X00467500Y00210000D02*
D03*
X00427500Y00205000D02*
D03*
X00390000Y00242500D02*
D03*
Y00224660D02*
D03*
X00228294Y00226979D02*
D03*
Y00176979D02*
D03*
Y00151979D02*
D03*
X00557500Y00072500D02*
D03*
X00505000Y00055000D02*
D03*
X00330000Y00135000D02*
D03*
X00228294Y00126979D02*
D03*
X00208682Y00212500D02*
D03*
X00162393Y00237379D02*
D03*
X00160459Y00143177D02*
D03*
X00208682Y00112500D02*
D03*
X00209246Y00095352D02*
D03*
X00208682Y00037500D02*
D03*
X00161793Y00055779D02*
D03*
X00851500Y00359500D02*
D03*
X00850500Y00406500D02*
D03*
X00868500Y00359500D02*
D03*
X00884500D02*
D03*
X00849500Y00266500D02*
D03*
X00848500Y00313500D02*
D03*
X00882500Y00266500D02*
D03*
X00866500D02*
D03*
X00755000Y00305000D02*
D03*
X00722500Y00365000D02*
D03*
X00580000Y00315000D02*
D03*
X00452500Y00297500D02*
D03*
X00462500Y00325000D02*
D03*
X00550261Y00291381D02*
D03*
X00502110Y00255588D02*
D03*
X00512877Y00209125D02*
D03*
X00807500Y00267500D02*
D03*
X00817500D02*
D03*
X00827500D02*
D03*
X00868500Y00067500D02*
D03*
X00835000Y00032500D02*
D03*
X00755000Y00212500D02*
D03*
X00565000Y00152500D02*
D03*
X00540000Y00325000D02*
D03*
X00507500Y00302500D02*
D03*
X00595000Y00315000D02*
D03*
X00262519Y00411769D02*
D03*
X00262500Y00387500D02*
D03*
X00752500Y00135000D02*
D03*
X00502500Y00272500D02*
D03*
X00470000Y00240000D02*
D03*
X00605000Y00257500D02*
D03*
X00625000Y00237500D02*
D03*
X00672500Y00217500D02*
D03*
X00814050Y00359941D02*
D03*
X00827500Y00360000D02*
D03*
X00800000D02*
D03*
X00255000Y00055000D02*
D03*
X00262500Y00302500D02*
D03*
X00432500Y00285000D02*
D03*
Y00245000D02*
D03*
X00262500Y00237500D02*
D03*
X00432500Y00272500D02*
D03*
Y00260000D02*
D03*
X00262500Y00197500D02*
D03*
Y00222500D02*
D03*
Y00277500D02*
D03*
Y00327500D02*
D03*
X00202500Y00062500D02*
D03*
X00367500Y00295000D02*
D03*
X00262500Y00137500D02*
D03*
Y00172500D02*
D03*
Y00262500D02*
D03*
Y00362500D02*
D03*
X00262561Y00088179D02*
D03*
X00262500Y00112500D02*
D03*
D76*
X00930500Y00372500D02*
D03*
D77*
X00540000Y00460000D02*
D03*
D78*
X00930500Y00392500D02*
D03*
D79*
X00950000Y00050000D02*
D03*
X00050000Y00450000D02*
D03*
X00950000D02*
D03*
X00050000Y00050000D02*
D03*
D80*
X00872500Y00372700D02*
D03*
Y00395000D02*
D03*
M02*
