G04*
G04 #@! TF.GenerationSoftware,Altium Limited,Altium Designer,26.3.0 (6)*
G04*
G04 Layer_Physical_Order=2*
G04 Layer_Color=36540*
%FSAX44Y44*%
%MOMM*%
G71*
G04*
G04 #@! TF.SameCoordinates,5578706E-CA03-45DF-AE4B-9461B21917A8*
G04*
G04*
G04 #@! TF.FilePolarity,Positive*
G04*
G01*
G75*
G04:AMPARAMS|DCode=60|XSize=1mm|YSize=2.2mm|CornerRadius=0.5mm|HoleSize=0mm|Usage=FLASHONLY|Rotation=90.000|XOffset=0mm|YOffset=0mm|HoleType=Round|Shape=RoundedRectangle|*
%AMROUNDEDRECTD60*
21,1,1.0000,1.2000,0,0,90.0*
21,1,0.0000,2.2000,0,0,90.0*
1,1,1.0000,0.6000,0.0000*
1,1,1.0000,0.6000,0.0000*
1,1,1.0000,-0.6000,0.0000*
1,1,1.0000,-0.6000,0.0000*
%
%ADD60ROUNDEDRECTD60*%
G04:AMPARAMS|DCode=61|XSize=1mm|YSize=1.8mm|CornerRadius=0.5mm|HoleSize=0mm|Usage=FLASHONLY|Rotation=90.000|XOffset=0mm|YOffset=0mm|HoleType=Round|Shape=RoundedRectangle|*
%AMROUNDEDRECTD61*
21,1,1.0000,0.8000,0,0,90.0*
21,1,0.0000,1.8000,0,0,90.0*
1,1,1.0000,0.4000,0.0000*
1,1,1.0000,0.4000,0.0000*
1,1,1.0000,-0.4000,0.0000*
1,1,1.0000,-0.4000,0.0000*
%
%ADD61ROUNDEDRECTD61*%
%ADD63C,2.8000*%
%ADD65R,2.8000X2.8000*%
%ADD73C,1.5500*%
%ADD74R,1.5500X1.5500*%
%ADD75C,0.6000*%
%ADD76R,1.2000X1.2000*%
%ADD77C,1.5000*%
%ADD78C,1.2000*%
%ADD79C,6.0000*%
G36*
X00952938Y00494821D02*
X00958763Y00494054D01*
X00964438Y00492533D01*
X00969866Y00490285D01*
X00974954Y00487347D01*
X00979616Y00483770D01*
X00983770Y00479616D01*
X00987347Y00474954D01*
X00990285Y00469866D01*
X00992533Y00464438D01*
X00994054Y00458763D01*
X00994821Y00452938D01*
X00994820Y00450000D01*
X00994821Y00050000D01*
X00994821Y00047062D01*
X00994054Y00041237D01*
X00992533Y00035562D01*
X00990285Y00030134D01*
X00987347Y00025045D01*
X00983770Y00020384D01*
X00979616Y00016230D01*
X00974955Y00012653D01*
X00969866Y00009715D01*
X00964438Y00007467D01*
X00958763Y00005946D01*
X00952938Y00005179D01*
X00950000D01*
X00050000Y00005179D01*
X00047062Y00005179D01*
X00041237Y00005946D01*
X00035562Y00007467D01*
X00030134Y00009715D01*
X00025045Y00012653D01*
X00020384Y00016230D01*
X00016230Y00020384D01*
X00012653Y00025045D01*
X00009715Y00030134D01*
X00007467Y00035562D01*
X00005946Y00041237D01*
X00005179Y00047062D01*
Y00050000D01*
X00005179Y00450000D01*
Y00452938D01*
X00005946Y00458763D01*
X00007467Y00464438D01*
X00009715Y00469866D01*
X00012653Y00474954D01*
X00016230Y00479616D01*
X00020384Y00483770D01*
X00025045Y00487347D01*
X00030134Y00490285D01*
X00035562Y00492533D01*
X00041237Y00494054D01*
X00047062Y00494821D01*
X00050000Y00494821D01*
X00950000Y00494821D01*
X00952938Y00494821D01*
D02*
G37*
%LPC*%
G36*
X00595995Y00479776D02*
X00594005D01*
X00592168Y00479015D01*
X00590761Y00477609D01*
X00590000Y00475771D01*
Y00473782D01*
X00590761Y00471944D01*
X00592168Y00470537D01*
X00594005Y00469776D01*
X00595995D01*
X00597832Y00470537D01*
X00599239Y00471944D01*
X00600000Y00473782D01*
Y00475771D01*
X00599239Y00477609D01*
X00597832Y00479015D01*
X00595995Y00479776D01*
D02*
G37*
G36*
X00580995D02*
X00579005D01*
X00577168Y00479015D01*
X00575761Y00477609D01*
X00575000Y00475771D01*
Y00473782D01*
X00575761Y00471944D01*
X00577168Y00470537D01*
X00579005Y00469776D01*
X00580995D01*
X00582832Y00470537D01*
X00584239Y00471944D01*
X00585000Y00473782D01*
Y00475771D01*
X00584239Y00477609D01*
X00582832Y00479015D01*
X00580995Y00479776D01*
D02*
G37*
G36*
X00541322Y00470040D02*
X00541270D01*
Y00461270D01*
X00550040D01*
Y00461322D01*
X00549356Y00463875D01*
X00548034Y00466165D01*
X00546165Y00468034D01*
X00543875Y00469356D01*
X00541322Y00470040D01*
D02*
G37*
G36*
X00538730D02*
X00538678D01*
X00536125Y00469356D01*
X00533835Y00468034D01*
X00531966Y00466165D01*
X00530644Y00463875D01*
X00529960Y00461322D01*
Y00461270D01*
X00538730D01*
Y00470040D01*
D02*
G37*
G36*
X00365690Y00472790D02*
X00345110D01*
Y00452210D01*
X00365690D01*
Y00472790D01*
D02*
G37*
G36*
X00331355D02*
X00328645D01*
X00326028Y00472089D01*
X00323682Y00470734D01*
X00321766Y00468818D01*
X00320411Y00466472D01*
X00319710Y00463855D01*
Y00461145D01*
X00320411Y00458528D01*
X00321766Y00456182D01*
X00323682Y00454266D01*
X00326028Y00452911D01*
X00328645Y00452210D01*
X00331355D01*
X00333972Y00452911D01*
X00336318Y00454266D01*
X00338234Y00456182D01*
X00339589Y00458528D01*
X00340290Y00461145D01*
Y00463855D01*
X00339589Y00466472D01*
X00338234Y00468818D01*
X00336318Y00470734D01*
X00333972Y00472089D01*
X00331355Y00472790D01*
D02*
G37*
G36*
X00550040Y00458730D02*
X00541270D01*
Y00449960D01*
X00541322D01*
X00543875Y00450644D01*
X00546165Y00451966D01*
X00548034Y00453835D01*
X00549356Y00456125D01*
X00550040Y00458678D01*
Y00458730D01*
D02*
G37*
G36*
X00538730D02*
X00529960D01*
Y00458678D01*
X00530644Y00456125D01*
X00531966Y00453835D01*
X00533835Y00451966D01*
X00536125Y00450644D01*
X00538678Y00449960D01*
X00538730D01*
Y00458730D01*
D02*
G37*
G36*
X00136755Y00440290D02*
X00136670D01*
Y00431270D01*
X00145690D01*
Y00431355D01*
X00144989Y00433972D01*
X00143634Y00436318D01*
X00141718Y00438234D01*
X00139372Y00439589D01*
X00136755Y00440290D01*
D02*
G37*
G36*
X00134130D02*
X00134045D01*
X00131428Y00439589D01*
X00129082Y00438234D01*
X00127166Y00436318D01*
X00125811Y00433972D01*
X00125110Y00431355D01*
Y00431270D01*
X00134130D01*
Y00440290D01*
D02*
G37*
G36*
X00520995Y00440000D02*
X00519005D01*
X00517168Y00439239D01*
X00515761Y00437832D01*
X00515000Y00435995D01*
Y00434005D01*
X00515761Y00432168D01*
X00517168Y00430761D01*
X00519005Y00430000D01*
X00520995D01*
X00522832Y00430761D01*
X00524239Y00432168D01*
X00525000Y00434005D01*
Y00435995D01*
X00524239Y00437832D01*
X00522832Y00439239D01*
X00520995Y00440000D01*
D02*
G37*
G36*
X00433495D02*
X00431505D01*
X00429668Y00439239D01*
X00428261Y00437832D01*
X00427500Y00435995D01*
Y00434005D01*
X00428261Y00432168D01*
X00429668Y00430761D01*
X00431505Y00430000D01*
X00433495D01*
X00435332Y00430761D01*
X00436739Y00432168D01*
X00437500Y00434005D01*
Y00435995D01*
X00436739Y00437832D01*
X00435332Y00439239D01*
X00433495Y00440000D01*
D02*
G37*
G36*
X00385995D02*
X00384005D01*
X00382168Y00439239D01*
X00380761Y00437832D01*
X00380000Y00435995D01*
Y00434005D01*
X00380761Y00432168D01*
X00382168Y00430761D01*
X00384005Y00430000D01*
X00385995D01*
X00387832Y00430761D01*
X00389239Y00432168D01*
X00390000Y00434005D01*
Y00435995D01*
X00389239Y00437832D01*
X00387832Y00439239D01*
X00385995Y00440000D01*
D02*
G37*
G36*
X00368495D02*
X00366505D01*
X00364668Y00439239D01*
X00363261Y00437832D01*
X00362500Y00435995D01*
Y00434005D01*
X00363261Y00432168D01*
X00364668Y00430761D01*
X00366505Y00430000D01*
X00368495D01*
X00370332Y00430761D01*
X00371739Y00432168D01*
X00372500Y00434005D01*
Y00435995D01*
X00371739Y00437832D01*
X00370332Y00439239D01*
X00368495Y00440000D01*
D02*
G37*
G36*
X00145690Y00428730D02*
X00136670D01*
Y00419710D01*
X00136755D01*
X00139372Y00420411D01*
X00141718Y00421766D01*
X00143634Y00423682D01*
X00144989Y00426028D01*
X00145690Y00428645D01*
Y00428730D01*
D02*
G37*
G36*
X00134130D02*
X00125110D01*
Y00428645D01*
X00125811Y00426028D01*
X00127166Y00423682D01*
X00129082Y00421766D01*
X00131428Y00420411D01*
X00134045Y00419710D01*
X00134130D01*
Y00428730D01*
D02*
G37*
G36*
X00120290Y00440290D02*
X00099710D01*
Y00419710D01*
X00120290D01*
Y00440290D01*
D02*
G37*
G36*
X00952561Y00482540D02*
X00947439D01*
X00942380Y00481739D01*
X00937509Y00480156D01*
X00932945Y00477831D01*
X00928802Y00474820D01*
X00925180Y00471198D01*
X00922169Y00467055D01*
X00919844Y00462491D01*
X00918261Y00457620D01*
X00917460Y00452561D01*
Y00447439D01*
X00918261Y00442380D01*
X00919844Y00437509D01*
X00922169Y00432945D01*
X00925180Y00428802D01*
X00928802Y00425180D01*
X00932945Y00422169D01*
X00937509Y00419844D01*
X00942380Y00418261D01*
X00947439Y00417460D01*
X00952561D01*
X00957620Y00418261D01*
X00962491Y00419844D01*
X00967055Y00422169D01*
X00971198Y00425180D01*
X00974820Y00428802D01*
X00977831Y00432945D01*
X00980156Y00437509D01*
X00981739Y00442380D01*
X00982540Y00447439D01*
Y00452561D01*
X00981739Y00457620D01*
X00980156Y00462491D01*
X00977831Y00467055D01*
X00974820Y00471198D01*
X00971198Y00474820D01*
X00967055Y00477831D01*
X00962491Y00480156D01*
X00957620Y00481739D01*
X00952561Y00482540D01*
D02*
G37*
G36*
X00052561D02*
X00047439D01*
X00042380Y00481739D01*
X00037509Y00480156D01*
X00032945Y00477831D01*
X00028802Y00474820D01*
X00025180Y00471198D01*
X00022169Y00467055D01*
X00019844Y00462491D01*
X00018261Y00457620D01*
X00017460Y00452561D01*
Y00447439D01*
X00018261Y00442380D01*
X00019844Y00437509D01*
X00022169Y00432945D01*
X00025180Y00428802D01*
X00028802Y00425180D01*
X00032945Y00422169D01*
X00037509Y00419844D01*
X00042380Y00418261D01*
X00047439Y00417460D01*
X00052561D01*
X00057620Y00418261D01*
X00062491Y00419844D01*
X00067055Y00422169D01*
X00071198Y00425180D01*
X00074820Y00428802D01*
X00077831Y00432945D01*
X00080156Y00437509D01*
X00081739Y00442380D01*
X00082540Y00447439D01*
Y00452561D01*
X00081739Y00457620D01*
X00080156Y00462491D01*
X00077831Y00467055D01*
X00074820Y00471198D01*
X00071198Y00474820D01*
X00067055Y00477831D01*
X00062491Y00480156D01*
X00057620Y00481739D01*
X00052561Y00482540D01*
D02*
G37*
G36*
X00263514Y00416769D02*
X00261525D01*
X00259687Y00416008D01*
X00258280Y00414602D01*
X00257519Y00412764D01*
Y00410775D01*
X00258280Y00408937D01*
X00259687Y00407531D01*
X00261525Y00406769D01*
X00263514D01*
X00265351Y00407531D01*
X00266758Y00408937D01*
X00267519Y00410775D01*
Y00412764D01*
X00266758Y00414602D01*
X00265351Y00416008D01*
X00263514Y00416769D01*
D02*
G37*
G36*
X00851495Y00411500D02*
X00849505D01*
X00847668Y00410739D01*
X00846261Y00409332D01*
X00845500Y00407495D01*
Y00405505D01*
X00846261Y00403668D01*
X00847668Y00402261D01*
X00849505Y00401500D01*
X00851495D01*
X00853332Y00402261D01*
X00854739Y00403668D01*
X00855500Y00405505D01*
Y00407495D01*
X00854739Y00409332D01*
X00853332Y00410739D01*
X00851495Y00411500D01*
D02*
G37*
G36*
X00663495Y00402500D02*
X00661505D01*
X00659668Y00401739D01*
X00658261Y00400332D01*
X00657500Y00398495D01*
Y00396505D01*
X00658261Y00394668D01*
X00659668Y00393261D01*
X00661505Y00392500D01*
X00663495D01*
X00665332Y00393261D01*
X00666739Y00394668D01*
X00667500Y00396505D01*
Y00398495D01*
X00666739Y00400332D01*
X00665332Y00401739D01*
X00663495Y00402500D01*
D02*
G37*
G36*
X00520995Y00400000D02*
X00519005D01*
X00517168Y00399239D01*
X00515761Y00397832D01*
X00515000Y00395995D01*
Y00394005D01*
X00515761Y00392168D01*
X00517168Y00390761D01*
X00519005Y00390000D01*
X00520995D01*
X00522832Y00390761D01*
X00524239Y00392168D01*
X00525000Y00394005D01*
Y00395995D01*
X00524239Y00397832D01*
X00522832Y00399239D01*
X00520995Y00400000D01*
D02*
G37*
G36*
X00931624Y00401040D02*
X00929376D01*
X00927204Y00400458D01*
X00925256Y00399334D01*
X00923666Y00397744D01*
X00922542Y00395796D01*
X00921960Y00393624D01*
Y00391376D01*
X00922542Y00389204D01*
X00923666Y00387256D01*
X00925256Y00385666D01*
X00927204Y00384542D01*
X00929376Y00383960D01*
X00931624D01*
X00933796Y00384542D01*
X00935744Y00385666D01*
X00937334Y00387256D01*
X00938458Y00389204D01*
X00939040Y00391376D01*
Y00393624D01*
X00938458Y00395796D01*
X00937334Y00397744D01*
X00935744Y00399334D01*
X00933796Y00400458D01*
X00931624Y00401040D01*
D02*
G37*
G36*
X00263495Y00392500D02*
X00261505D01*
X00259668Y00391739D01*
X00258261Y00390332D01*
X00257500Y00388495D01*
Y00386506D01*
X00258261Y00384668D01*
X00259668Y00383261D01*
X00261505Y00382500D01*
X00263495D01*
X00265332Y00383261D01*
X00266739Y00384668D01*
X00267500Y00386506D01*
Y00388495D01*
X00266739Y00390332D01*
X00265332Y00391739D01*
X00263495Y00392500D01*
D02*
G37*
G36*
X00136755Y00400290D02*
X00134045D01*
X00131428Y00399589D01*
X00129082Y00398234D01*
X00127166Y00396318D01*
X00125811Y00393972D01*
X00125110Y00391355D01*
Y00388645D01*
X00125811Y00386028D01*
X00127166Y00383682D01*
X00129082Y00381766D01*
X00131428Y00380411D01*
X00134045Y00379710D01*
X00136755D01*
X00139372Y00380411D01*
X00141718Y00381766D01*
X00143634Y00383682D01*
X00144989Y00386028D01*
X00145690Y00388645D01*
Y00391355D01*
X00144989Y00393972D01*
X00143634Y00396318D01*
X00141718Y00398234D01*
X00139372Y00399589D01*
X00136755Y00400290D01*
D02*
G37*
G36*
X00120290D02*
X00099710D01*
Y00379710D01*
X00120290D01*
Y00400290D01*
D02*
G37*
G36*
X00418495Y00387500D02*
X00416505D01*
X00414668Y00386739D01*
X00413261Y00385332D01*
X00412500Y00383495D01*
Y00381505D01*
X00413261Y00379668D01*
X00414668Y00378261D01*
X00416505Y00377500D01*
X00418495D01*
X00420332Y00378261D01*
X00421739Y00379668D01*
X00422500Y00381505D01*
Y00383495D01*
X00421739Y00385332D01*
X00420332Y00386739D01*
X00418495Y00387500D01*
D02*
G37*
G36*
X00353495D02*
X00351505D01*
X00349668Y00386739D01*
X00348261Y00385332D01*
X00347500Y00383495D01*
Y00381505D01*
X00348261Y00379668D01*
X00349668Y00378261D01*
X00351505Y00377500D01*
X00353495D01*
X00355332Y00378261D01*
X00356739Y00379668D01*
X00357500Y00381505D01*
Y00383495D01*
X00356739Y00385332D01*
X00355332Y00386739D01*
X00353495Y00387500D01*
D02*
G37*
G36*
X00939040Y00381040D02*
X00931770D01*
Y00373770D01*
X00939040D01*
Y00381040D01*
D02*
G37*
G36*
X00929230D02*
X00921960D01*
Y00373770D01*
X00929230D01*
Y00381040D01*
D02*
G37*
G36*
X00939040Y00371230D02*
X00931770D01*
Y00363960D01*
X00939040D01*
Y00371230D01*
D02*
G37*
G36*
X00929230D02*
X00921960D01*
Y00363960D01*
X00929230D01*
Y00371230D01*
D02*
G37*
G36*
X00723495Y00370000D02*
X00721505D01*
X00719668Y00369239D01*
X00718261Y00367832D01*
X00717500Y00365995D01*
Y00364005D01*
X00718261Y00362168D01*
X00719668Y00360761D01*
X00721505Y00360000D01*
X00723495D01*
X00725332Y00360761D01*
X00726739Y00362168D01*
X00727500Y00364005D01*
Y00365995D01*
X00726739Y00367832D01*
X00725332Y00369239D01*
X00723495Y00370000D01*
D02*
G37*
G36*
X00671995Y00369000D02*
X00670005D01*
X00668168Y00368239D01*
X00666761Y00366832D01*
X00666000Y00364995D01*
Y00363005D01*
X00666761Y00361168D01*
X00668168Y00359761D01*
X00670005Y00359000D01*
X00671995D01*
X00673832Y00359761D01*
X00675239Y00361168D01*
X00676000Y00363005D01*
Y00364995D01*
X00675239Y00366832D01*
X00673832Y00368239D01*
X00671995Y00369000D01*
D02*
G37*
G36*
X00263495Y00367500D02*
X00261505D01*
X00259668Y00366739D01*
X00258261Y00365332D01*
X00257500Y00363495D01*
Y00361505D01*
X00258261Y00359668D01*
X00259668Y00358261D01*
X00261505Y00357500D01*
X00263495D01*
X00265332Y00358261D01*
X00266739Y00359668D01*
X00267500Y00361505D01*
Y00363495D01*
X00266739Y00365332D01*
X00265332Y00366739D01*
X00263495Y00367500D01*
D02*
G37*
G36*
X00828495Y00365000D02*
X00826505D01*
X00824668Y00364239D01*
X00823261Y00362832D01*
X00822500Y00360995D01*
Y00359005D01*
X00823261Y00357168D01*
X00824668Y00355761D01*
X00826505Y00355000D01*
X00828495D01*
X00830332Y00355761D01*
X00831739Y00357168D01*
X00832500Y00359005D01*
Y00360995D01*
X00831739Y00362832D01*
X00830332Y00364239D01*
X00828495Y00365000D01*
D02*
G37*
G36*
X00800995D02*
X00799005D01*
X00797168Y00364239D01*
X00795761Y00362832D01*
X00795000Y00360995D01*
Y00359005D01*
X00795761Y00357168D01*
X00797168Y00355761D01*
X00799005Y00355000D01*
X00800995D01*
X00802832Y00355761D01*
X00804239Y00357168D01*
X00805000Y00359005D01*
Y00360995D01*
X00804239Y00362832D01*
X00802832Y00364239D01*
X00800995Y00365000D01*
D02*
G37*
G36*
X00815044Y00364941D02*
X00813055D01*
X00811217Y00364180D01*
X00809811Y00362773D01*
X00809050Y00360936D01*
Y00358946D01*
X00809811Y00357109D01*
X00811217Y00355702D01*
X00813055Y00354941D01*
X00815044D01*
X00816882Y00355702D01*
X00818288Y00357109D01*
X00819050Y00358946D01*
Y00360936D01*
X00818288Y00362773D01*
X00816882Y00364180D01*
X00815044Y00364941D01*
D02*
G37*
G36*
X00885495Y00364500D02*
X00883505D01*
X00881668Y00363739D01*
X00880261Y00362332D01*
X00879500Y00360494D01*
Y00358505D01*
X00880261Y00356668D01*
X00881668Y00355261D01*
X00883505Y00354500D01*
X00885495D01*
X00887332Y00355261D01*
X00888739Y00356668D01*
X00889500Y00358505D01*
Y00360494D01*
X00888739Y00362332D01*
X00887332Y00363739D01*
X00885495Y00364500D01*
D02*
G37*
G36*
X00869495D02*
X00867505D01*
X00865668Y00363739D01*
X00864261Y00362332D01*
X00863500Y00360494D01*
Y00358505D01*
X00864261Y00356668D01*
X00865668Y00355261D01*
X00867505Y00354500D01*
X00869495D01*
X00871332Y00355261D01*
X00872739Y00356668D01*
X00873500Y00358505D01*
Y00360494D01*
X00872739Y00362332D01*
X00871332Y00363739D01*
X00869495Y00364500D01*
D02*
G37*
G36*
X00852495D02*
X00850505D01*
X00848668Y00363739D01*
X00847261Y00362332D01*
X00846500Y00360494D01*
Y00358505D01*
X00847261Y00356668D01*
X00848668Y00355261D01*
X00850505Y00354500D01*
X00852495D01*
X00854332Y00355261D01*
X00855739Y00356668D01*
X00856500Y00358505D01*
Y00360494D01*
X00855739Y00362332D01*
X00854332Y00363739D01*
X00852495Y00364500D01*
D02*
G37*
G36*
X00595995Y00355000D02*
X00594005D01*
X00592168Y00354239D01*
X00590761Y00352832D01*
X00590000Y00350995D01*
Y00349005D01*
X00590761Y00347168D01*
X00592168Y00345761D01*
X00594005Y00345000D01*
X00595995D01*
X00597832Y00345761D01*
X00599239Y00347168D01*
X00600000Y00349005D01*
Y00350995D01*
X00599239Y00352832D01*
X00597832Y00354239D01*
X00595995Y00355000D01*
D02*
G37*
G36*
X00580995D02*
X00579005D01*
X00577168Y00354239D01*
X00575761Y00352832D01*
X00575000Y00350995D01*
Y00349005D01*
X00575761Y00347168D01*
X00577168Y00345761D01*
X00579005Y00345000D01*
X00580995D01*
X00582832Y00345761D01*
X00584239Y00347168D01*
X00585000Y00349005D01*
Y00350995D01*
X00584239Y00352832D01*
X00582832Y00354239D01*
X00580995Y00355000D01*
D02*
G37*
G36*
X00136755Y00360290D02*
X00134045D01*
X00131428Y00359589D01*
X00129082Y00358234D01*
X00127166Y00356318D01*
X00125811Y00353972D01*
X00125110Y00351355D01*
Y00348645D01*
X00125811Y00346028D01*
X00127166Y00343682D01*
X00129082Y00341766D01*
X00131428Y00340411D01*
X00134045Y00339710D01*
X00136755D01*
X00139372Y00340411D01*
X00141718Y00341766D01*
X00143634Y00343682D01*
X00144989Y00346028D01*
X00145690Y00348645D01*
Y00351355D01*
X00144989Y00353972D01*
X00143634Y00356318D01*
X00141718Y00358234D01*
X00139372Y00359589D01*
X00136755Y00360290D01*
D02*
G37*
G36*
X00120290D02*
X00099710D01*
Y00339710D01*
X00120290D01*
Y00360290D01*
D02*
G37*
G36*
X00395995Y00342500D02*
X00394005D01*
X00392168Y00341739D01*
X00390761Y00340332D01*
X00390000Y00338495D01*
Y00336505D01*
X00390279Y00335831D01*
X00389724Y00335000D01*
X00389005D01*
X00387168Y00334239D01*
X00385761Y00332832D01*
X00385000Y00330995D01*
Y00329005D01*
X00385761Y00327168D01*
X00387168Y00325761D01*
X00389005Y00325000D01*
X00390995D01*
X00392832Y00325761D01*
X00394239Y00327168D01*
X00395000Y00329005D01*
Y00330995D01*
X00394721Y00331669D01*
X00395276Y00332500D01*
X00395995D01*
X00397832Y00333261D01*
X00399239Y00334668D01*
X00400000Y00336505D01*
Y00338495D01*
X00399239Y00340332D01*
X00397832Y00341739D01*
X00395995Y00342500D01*
D02*
G37*
G36*
X00263495Y00332500D02*
X00261505D01*
X00259668Y00331739D01*
X00258261Y00330332D01*
X00257500Y00328495D01*
Y00326505D01*
X00258261Y00324668D01*
X00259668Y00323261D01*
X00261505Y00322500D01*
X00263495D01*
X00265332Y00323261D01*
X00266739Y00324668D01*
X00267500Y00326505D01*
Y00328495D01*
X00266739Y00330332D01*
X00265332Y00331739D01*
X00263495Y00332500D01*
D02*
G37*
G36*
X00540995Y00330000D02*
X00539005D01*
X00537168Y00329239D01*
X00535761Y00327832D01*
X00535000Y00325995D01*
Y00324005D01*
X00535761Y00322168D01*
X00537168Y00320761D01*
X00539005Y00320000D01*
X00540995D01*
X00542832Y00320761D01*
X00544239Y00322168D01*
X00545000Y00324005D01*
Y00325995D01*
X00544239Y00327832D01*
X00542832Y00329239D01*
X00540995Y00330000D01*
D02*
G37*
G36*
X00463495D02*
X00461505D01*
X00459668Y00329239D01*
X00458261Y00327832D01*
X00457500Y00325995D01*
Y00324005D01*
X00458261Y00322168D01*
X00459668Y00320761D01*
X00461505Y00320000D01*
X00463495D01*
X00465332Y00320761D01*
X00466739Y00322168D01*
X00467500Y00324005D01*
Y00325995D01*
X00466739Y00327832D01*
X00465332Y00329239D01*
X00463495Y00330000D01*
D02*
G37*
G36*
X00595995Y00320000D02*
X00594005D01*
X00592168Y00319239D01*
X00590761Y00317832D01*
X00590000Y00315995D01*
Y00314005D01*
X00590761Y00312168D01*
X00592168Y00310761D01*
X00594005Y00310000D01*
X00595995D01*
X00597832Y00310761D01*
X00599239Y00312168D01*
X00600000Y00314005D01*
Y00315995D01*
X00599239Y00317832D01*
X00597832Y00319239D01*
X00595995Y00320000D01*
D02*
G37*
G36*
X00580995D02*
X00579005D01*
X00577168Y00319239D01*
X00575761Y00317832D01*
X00575000Y00315995D01*
Y00314005D01*
X00575761Y00312168D01*
X00577168Y00310761D01*
X00579005Y00310000D01*
X00580995D01*
X00582832Y00310761D01*
X00584239Y00312168D01*
X00585000Y00314005D01*
Y00315995D01*
X00584239Y00317832D01*
X00582832Y00319239D01*
X00580995Y00320000D01*
D02*
G37*
G36*
X00849495Y00318500D02*
X00847505D01*
X00845668Y00317739D01*
X00844261Y00316332D01*
X00843500Y00314495D01*
Y00312505D01*
X00844261Y00310668D01*
X00845668Y00309261D01*
X00847505Y00308500D01*
X00849495D01*
X00851332Y00309261D01*
X00852739Y00310668D01*
X00853500Y00312505D01*
Y00314495D01*
X00852739Y00316332D01*
X00851332Y00317739D01*
X00849495Y00318500D01*
D02*
G37*
G36*
X00755995Y00310000D02*
X00754005D01*
X00752168Y00309239D01*
X00750761Y00307832D01*
X00750000Y00305995D01*
Y00304005D01*
X00750761Y00302168D01*
X00752168Y00300761D01*
X00754005Y00300000D01*
X00755995D01*
X00757832Y00300761D01*
X00759239Y00302168D01*
X00760000Y00304005D01*
Y00305995D01*
X00759239Y00307832D01*
X00757832Y00309239D01*
X00755995Y00310000D01*
D02*
G37*
G36*
X00136755Y00320290D02*
X00134045D01*
X00131428Y00319589D01*
X00129082Y00318234D01*
X00127166Y00316318D01*
X00125811Y00313972D01*
X00125110Y00311355D01*
Y00308645D01*
X00125811Y00306028D01*
X00127166Y00303682D01*
X00129082Y00301766D01*
X00131428Y00300411D01*
X00134045Y00299710D01*
X00136755D01*
X00139372Y00300411D01*
X00141718Y00301766D01*
X00143634Y00303682D01*
X00144989Y00306028D01*
X00145690Y00308645D01*
Y00311355D01*
X00144989Y00313972D01*
X00143634Y00316318D01*
X00141718Y00318234D01*
X00139372Y00319589D01*
X00136755Y00320290D01*
D02*
G37*
G36*
X00120290D02*
X00099710D01*
Y00299710D01*
X00120290D01*
Y00320290D01*
D02*
G37*
G36*
X00508495Y00307500D02*
X00506505D01*
X00504668Y00306739D01*
X00503261Y00305332D01*
X00502500Y00303495D01*
Y00301505D01*
X00503261Y00299668D01*
X00504668Y00298261D01*
X00506505Y00297500D01*
X00508495D01*
X00510332Y00298261D01*
X00511739Y00299668D01*
X00512500Y00301505D01*
Y00303495D01*
X00511739Y00305332D01*
X00510332Y00306739D01*
X00508495Y00307500D01*
D02*
G37*
G36*
X00263495D02*
X00261505D01*
X00259668Y00306739D01*
X00258261Y00305332D01*
X00257500Y00303495D01*
Y00301505D01*
X00258261Y00299668D01*
X00259668Y00298261D01*
X00261505Y00297500D01*
X00263495D01*
X00265332Y00298261D01*
X00266739Y00299668D01*
X00267500Y00301505D01*
Y00303495D01*
X00266739Y00305332D01*
X00265332Y00306739D01*
X00263495Y00307500D01*
D02*
G37*
G36*
X00969040Y00330540D02*
X00935960D01*
Y00297460D01*
X00969040D01*
Y00330540D01*
D02*
G37*
G36*
X00453495Y00302500D02*
X00451505D01*
X00449668Y00301739D01*
X00448261Y00300332D01*
X00447500Y00298495D01*
Y00296505D01*
X00448261Y00294668D01*
X00449668Y00293261D01*
X00451505Y00292500D01*
X00453495D01*
X00455332Y00293261D01*
X00456739Y00294668D01*
X00457500Y00296505D01*
Y00298495D01*
X00456739Y00300332D01*
X00455332Y00301739D01*
X00453495Y00302500D01*
D02*
G37*
G36*
X00368495Y00300000D02*
X00366505D01*
X00364668Y00299239D01*
X00363261Y00297832D01*
X00362500Y00295995D01*
Y00294005D01*
X00363261Y00292168D01*
X00364668Y00290761D01*
X00366505Y00290000D01*
X00368495D01*
X00370332Y00290761D01*
X00371739Y00292168D01*
X00372500Y00294005D01*
Y00295995D01*
X00371739Y00297832D01*
X00370332Y00299239D01*
X00368495Y00300000D01*
D02*
G37*
G36*
X00383495Y00299000D02*
X00381505D01*
X00379668Y00298239D01*
X00378261Y00296832D01*
X00377500Y00294995D01*
Y00293006D01*
X00378261Y00291168D01*
X00379668Y00289761D01*
X00381505Y00289000D01*
X00383495D01*
X00385332Y00289761D01*
X00386739Y00291168D01*
X00387500Y00293006D01*
Y00294995D01*
X00386739Y00296832D01*
X00385332Y00298239D01*
X00383495Y00299000D01*
D02*
G37*
G36*
X00551255Y00296381D02*
X00549266D01*
X00547429Y00295620D01*
X00546022Y00294213D01*
X00545261Y00292376D01*
Y00290387D01*
X00546022Y00288549D01*
X00547429Y00287142D01*
X00549266Y00286381D01*
X00551255D01*
X00553093Y00287142D01*
X00554500Y00288549D01*
X00555261Y00290387D01*
Y00292376D01*
X00554500Y00294213D01*
X00553093Y00295620D01*
X00551255Y00296381D01*
D02*
G37*
G36*
X00433495Y00290000D02*
X00431505D01*
X00429668Y00289239D01*
X00428261Y00287832D01*
X00427500Y00285995D01*
Y00284005D01*
X00428261Y00282168D01*
X00429668Y00280761D01*
X00431505Y00280000D01*
X00433495D01*
X00435332Y00280761D01*
X00436739Y00282168D01*
X00437500Y00284005D01*
Y00285995D01*
X00436739Y00287832D01*
X00435332Y00289239D01*
X00433495Y00290000D01*
D02*
G37*
G36*
X00263495Y00282500D02*
X00261505D01*
X00259668Y00281739D01*
X00258261Y00280332D01*
X00257500Y00278495D01*
Y00276505D01*
X00258261Y00274668D01*
X00259668Y00273261D01*
X00261505Y00272500D01*
X00263495D01*
X00265332Y00273261D01*
X00266739Y00274668D01*
X00267500Y00276505D01*
Y00278495D01*
X00266739Y00280332D01*
X00265332Y00281739D01*
X00263495Y00282500D01*
D02*
G37*
G36*
X00828495Y00272500D02*
X00826505D01*
X00824668Y00271739D01*
X00823261Y00270332D01*
X00823041Y00269801D01*
X00821959D01*
X00821739Y00270332D01*
X00820332Y00271739D01*
X00818495Y00272500D01*
X00816505D01*
X00814668Y00271739D01*
X00813261Y00270332D01*
X00813000Y00269702D01*
X00812000D01*
X00811739Y00270332D01*
X00810332Y00271739D01*
X00808495Y00272500D01*
X00806505D01*
X00804668Y00271739D01*
X00803261Y00270332D01*
X00802500Y00268495D01*
Y00266505D01*
X00803261Y00264668D01*
X00804668Y00263261D01*
X00806505Y00262500D01*
X00808495D01*
X00810332Y00263261D01*
X00811739Y00264668D01*
X00812000Y00265298D01*
X00813000D01*
X00813261Y00264668D01*
X00814668Y00263261D01*
X00816505Y00262500D01*
X00818495D01*
X00820332Y00263261D01*
X00821739Y00264668D01*
X00821959Y00265199D01*
X00823041D01*
X00823261Y00264668D01*
X00824668Y00263261D01*
X00826505Y00262500D01*
X00828495D01*
X00830332Y00263261D01*
X00831739Y00264668D01*
X00832500Y00266505D01*
Y00268495D01*
X00831739Y00270332D01*
X00830332Y00271739D01*
X00828495Y00272500D01*
D02*
G37*
G36*
X00503495Y00277500D02*
X00501505D01*
X00499668Y00276739D01*
X00498261Y00275332D01*
X00497500Y00273495D01*
Y00271505D01*
X00498261Y00269668D01*
X00499668Y00268261D01*
X00501505Y00267500D01*
X00503495D01*
X00505332Y00268261D01*
X00506739Y00269668D01*
X00507500Y00271505D01*
Y00273495D01*
X00506739Y00275332D01*
X00505332Y00276739D01*
X00503495Y00277500D01*
D02*
G37*
G36*
X00433495D02*
X00431505D01*
X00429668Y00276739D01*
X00428261Y00275332D01*
X00427500Y00273495D01*
Y00271505D01*
X00428261Y00269668D01*
X00429668Y00268261D01*
X00431505Y00267500D01*
X00433495D01*
X00435332Y00268261D01*
X00436739Y00269668D01*
X00437500Y00271505D01*
Y00273495D01*
X00436739Y00275332D01*
X00435332Y00276739D01*
X00433495Y00277500D01*
D02*
G37*
G36*
X00883495Y00271500D02*
X00881506D01*
X00879668Y00270739D01*
X00878261Y00269332D01*
X00877500Y00267495D01*
Y00265505D01*
X00878261Y00263668D01*
X00879668Y00262261D01*
X00881506Y00261500D01*
X00883495D01*
X00885332Y00262261D01*
X00886739Y00263668D01*
X00887500Y00265505D01*
Y00267495D01*
X00886739Y00269332D01*
X00885332Y00270739D01*
X00883495Y00271500D01*
D02*
G37*
G36*
X00867495D02*
X00865505D01*
X00863668Y00270739D01*
X00862261Y00269332D01*
X00861500Y00267495D01*
Y00265505D01*
X00862261Y00263668D01*
X00863668Y00262261D01*
X00865505Y00261500D01*
X00867495D01*
X00869332Y00262261D01*
X00870739Y00263668D01*
X00871500Y00265505D01*
Y00267495D01*
X00870739Y00269332D01*
X00869332Y00270739D01*
X00867495Y00271500D01*
D02*
G37*
G36*
X00850495D02*
X00848505D01*
X00846668Y00270739D01*
X00845261Y00269332D01*
X00844500Y00267495D01*
Y00265505D01*
X00845261Y00263668D01*
X00846668Y00262261D01*
X00848505Y00261500D01*
X00850495D01*
X00852332Y00262261D01*
X00853739Y00263668D01*
X00854500Y00265505D01*
Y00267495D01*
X00853739Y00269332D01*
X00852332Y00270739D01*
X00850495Y00271500D01*
D02*
G37*
G36*
X00136755Y00280290D02*
X00134045D01*
X00131428Y00279589D01*
X00129082Y00278234D01*
X00127166Y00276318D01*
X00125811Y00273972D01*
X00125110Y00271355D01*
Y00268645D01*
X00125811Y00266028D01*
X00127166Y00263682D01*
X00129082Y00261766D01*
X00131428Y00260411D01*
X00134045Y00259710D01*
X00136755D01*
X00139372Y00260411D01*
X00141718Y00261766D01*
X00143634Y00263682D01*
X00144989Y00266028D01*
X00145690Y00268645D01*
Y00271355D01*
X00144989Y00273972D01*
X00143634Y00276318D01*
X00141718Y00278234D01*
X00139372Y00279589D01*
X00136755Y00280290D01*
D02*
G37*
G36*
X00120290D02*
X00099710D01*
Y00259710D01*
X00120290D01*
Y00280290D01*
D02*
G37*
G36*
X00263495Y00267500D02*
X00261505D01*
X00259668Y00266739D01*
X00258261Y00265332D01*
X00257500Y00263495D01*
Y00261505D01*
X00258261Y00259668D01*
X00259668Y00258261D01*
X00261505Y00257500D01*
X00263495D01*
X00265332Y00258261D01*
X00266739Y00259668D01*
X00267500Y00261505D01*
Y00263495D01*
X00266739Y00265332D01*
X00265332Y00266739D01*
X00263495Y00267500D01*
D02*
G37*
G36*
X00433495Y00265000D02*
X00431505D01*
X00429668Y00264239D01*
X00428261Y00262832D01*
X00427500Y00260995D01*
Y00259005D01*
X00428261Y00257168D01*
X00429668Y00255761D01*
X00431505Y00255000D01*
X00433495D01*
X00435332Y00255761D01*
X00436739Y00257168D01*
X00437500Y00259005D01*
Y00260995D01*
X00436739Y00262832D01*
X00435332Y00264239D01*
X00433495Y00265000D01*
D02*
G37*
G36*
X00605995Y00262500D02*
X00604005D01*
X00602168Y00261739D01*
X00600761Y00260332D01*
X00600000Y00258495D01*
Y00256505D01*
X00600761Y00254668D01*
X00602168Y00253261D01*
X00604005Y00252500D01*
X00605995D01*
X00607832Y00253261D01*
X00609239Y00254668D01*
X00610000Y00256505D01*
Y00258495D01*
X00609239Y00260332D01*
X00607832Y00261739D01*
X00605995Y00262500D01*
D02*
G37*
G36*
X00253495D02*
X00251505D01*
X00249668Y00261739D01*
X00248261Y00260332D01*
X00247500Y00258495D01*
Y00256505D01*
X00248261Y00254668D01*
X00249668Y00253261D01*
X00251505Y00252500D01*
X00253495D01*
X00255332Y00253261D01*
X00256739Y00254668D01*
X00257500Y00256505D01*
Y00258495D01*
X00256739Y00260332D01*
X00255332Y00261739D01*
X00253495Y00262500D01*
D02*
G37*
G36*
X00503104Y00260588D02*
X00501115D01*
X00499277Y00259827D01*
X00497871Y00258420D01*
X00497110Y00256582D01*
Y00254593D01*
X00497871Y00252756D01*
X00499277Y00251349D01*
X00501115Y00250588D01*
X00503104D01*
X00504942Y00251349D01*
X00506348Y00252756D01*
X00507110Y00254593D01*
Y00256582D01*
X00506348Y00258420D01*
X00504942Y00259827D01*
X00503104Y00260588D01*
D02*
G37*
G36*
X00954129Y00283540D02*
X00950871D01*
X00947675Y00282904D01*
X00944665Y00281658D01*
X00941956Y00279847D01*
X00939653Y00277544D01*
X00937842Y00274835D01*
X00936596Y00271825D01*
X00935960Y00268629D01*
Y00265371D01*
X00936596Y00262175D01*
X00937842Y00259165D01*
X00939653Y00256456D01*
X00941956Y00254153D01*
X00944665Y00252342D01*
X00947675Y00251096D01*
X00950871Y00250460D01*
X00954129D01*
X00957325Y00251096D01*
X00960335Y00252342D01*
X00963044Y00254153D01*
X00965347Y00256456D01*
X00967158Y00259165D01*
X00968404Y00262175D01*
X00969040Y00265371D01*
Y00268629D01*
X00968404Y00271825D01*
X00967158Y00274835D01*
X00965347Y00277544D01*
X00963044Y00279847D01*
X00960335Y00281658D01*
X00957325Y00282904D01*
X00954129Y00283540D01*
D02*
G37*
G36*
X00433495Y00250000D02*
X00431505D01*
X00429668Y00249239D01*
X00428261Y00247832D01*
X00427500Y00245995D01*
Y00244005D01*
X00428261Y00242168D01*
X00429668Y00240761D01*
X00431505Y00240000D01*
X00433495D01*
X00435332Y00240761D01*
X00436739Y00242168D01*
X00437500Y00244005D01*
Y00245995D01*
X00436739Y00247832D01*
X00435332Y00249239D01*
X00433495Y00250000D01*
D02*
G37*
G36*
X00253495Y00247500D02*
X00251505D01*
X00249668Y00246739D01*
X00248261Y00245332D01*
X00247500Y00243495D01*
Y00241505D01*
X00248261Y00239668D01*
X00249668Y00238261D01*
X00251505Y00237500D01*
X00253495D01*
X00255332Y00238261D01*
X00256739Y00239668D01*
X00257500Y00241505D01*
Y00243495D01*
X00256739Y00245332D01*
X00255332Y00246739D01*
X00253495Y00247500D01*
D02*
G37*
G36*
X00470995Y00245000D02*
X00469005D01*
X00467168Y00244239D01*
X00465761Y00242832D01*
X00465000Y00240995D01*
Y00239005D01*
X00465761Y00237168D01*
X00467168Y00235761D01*
X00469005Y00235000D01*
X00470995D01*
X00472832Y00235761D01*
X00474239Y00237168D01*
X00475000Y00239005D01*
Y00240995D01*
X00474239Y00242832D01*
X00472832Y00244239D01*
X00470995Y00245000D01*
D02*
G37*
G36*
X00625995Y00242500D02*
X00624005D01*
X00622168Y00241739D01*
X00620761Y00240332D01*
X00620000Y00238495D01*
Y00236505D01*
X00620761Y00234668D01*
X00622168Y00233261D01*
X00624005Y00232500D01*
X00625995D01*
X00627832Y00233261D01*
X00629239Y00234668D01*
X00630000Y00236505D01*
Y00238495D01*
X00629239Y00240332D01*
X00627832Y00241739D01*
X00625995Y00242500D01*
D02*
G37*
G36*
X00263495D02*
X00261505D01*
X00259668Y00241739D01*
X00258261Y00240332D01*
X00257500Y00238495D01*
Y00236505D01*
X00258261Y00234668D01*
X00259668Y00233261D01*
X00261505Y00232500D01*
X00263495D01*
X00265332Y00233261D01*
X00266739Y00234668D01*
X00267500Y00236505D01*
Y00238495D01*
X00266739Y00240332D01*
X00265332Y00241739D01*
X00263495Y00242500D01*
D02*
G37*
G36*
X00136755Y00240290D02*
X00134045D01*
X00131428Y00239589D01*
X00129082Y00238234D01*
X00127166Y00236318D01*
X00125811Y00233972D01*
X00125110Y00231355D01*
Y00228645D01*
X00125811Y00226028D01*
X00127166Y00223682D01*
X00129082Y00221766D01*
X00131428Y00220411D01*
X00134045Y00219710D01*
X00136755D01*
X00139372Y00220411D01*
X00141718Y00221766D01*
X00143634Y00223682D01*
X00144989Y00226028D01*
X00145690Y00228645D01*
Y00231355D01*
X00144989Y00233972D01*
X00143634Y00236318D01*
X00141718Y00238234D01*
X00139372Y00239589D01*
X00136755Y00240290D01*
D02*
G37*
G36*
X00120290D02*
X00099710D01*
Y00219710D01*
X00120290D01*
Y00240290D01*
D02*
G37*
G36*
X00263495Y00227500D02*
X00261505D01*
X00259668Y00226739D01*
X00258261Y00225332D01*
X00257500Y00223495D01*
Y00221505D01*
X00258261Y00219668D01*
X00259668Y00218261D01*
X00261505Y00217500D01*
X00263495D01*
X00265332Y00218261D01*
X00266739Y00219668D01*
X00267500Y00221505D01*
Y00223495D01*
X00266739Y00225332D01*
X00265332Y00226739D01*
X00263495Y00227500D01*
D02*
G37*
G36*
X00673495Y00222500D02*
X00671505D01*
X00669668Y00221739D01*
X00668261Y00220332D01*
X00667500Y00218495D01*
Y00216505D01*
X00668261Y00214668D01*
X00669668Y00213261D01*
X00671505Y00212500D01*
X00673495D01*
X00675332Y00213261D01*
X00676739Y00214668D01*
X00677500Y00216505D01*
Y00218495D01*
X00676739Y00220332D01*
X00675332Y00221739D01*
X00673495Y00222500D01*
D02*
G37*
G36*
X00600995D02*
X00599005D01*
X00597168Y00221739D01*
X00595761Y00220332D01*
X00595000Y00218495D01*
Y00216505D01*
X00595761Y00214668D01*
X00597168Y00213261D01*
X00599005Y00212500D01*
X00600995D01*
X00602832Y00213261D01*
X00604239Y00214668D01*
X00605000Y00216505D01*
Y00218495D01*
X00604239Y00220332D01*
X00602832Y00221739D01*
X00600995Y00222500D01*
D02*
G37*
G36*
X00371452Y00218942D02*
X00369463D01*
X00367625Y00218181D01*
X00366218Y00216774D01*
X00365457Y00214937D01*
Y00212948D01*
X00366218Y00211110D01*
X00367625Y00209703D01*
X00369463Y00208942D01*
X00371452D01*
X00373289Y00209703D01*
X00374696Y00211110D01*
X00375457Y00212948D01*
Y00214937D01*
X00374696Y00216774D01*
X00373289Y00218181D01*
X00371452Y00218942D01*
D02*
G37*
G36*
X00755995Y00217500D02*
X00754005D01*
X00752168Y00216739D01*
X00750761Y00215332D01*
X00750000Y00213495D01*
Y00211505D01*
X00750761Y00209668D01*
X00752168Y00208261D01*
X00754005Y00207500D01*
X00755995D01*
X00757832Y00208261D01*
X00759239Y00209668D01*
X00760000Y00211505D01*
Y00213495D01*
X00759239Y00215332D01*
X00757832Y00216739D01*
X00755995Y00217500D01*
D02*
G37*
G36*
X00513872Y00214125D02*
X00511883D01*
X00510045Y00213364D01*
X00508639Y00211957D01*
X00507877Y00210120D01*
Y00208131D01*
X00508639Y00206293D01*
X00510045Y00204886D01*
X00511883Y00204125D01*
X00513872D01*
X00515710Y00204886D01*
X00517116Y00206293D01*
X00517877Y00208131D01*
Y00210120D01*
X00517116Y00211957D01*
X00515710Y00213364D01*
X00513872Y00214125D01*
D02*
G37*
G36*
X00954129Y00236540D02*
X00950871D01*
X00947675Y00235904D01*
X00944665Y00234657D01*
X00941956Y00232847D01*
X00939653Y00230544D01*
X00937842Y00227835D01*
X00936596Y00224825D01*
X00935960Y00221629D01*
Y00218371D01*
X00936596Y00215175D01*
X00937842Y00212165D01*
X00939653Y00209456D01*
X00941956Y00207153D01*
X00944665Y00205342D01*
X00947675Y00204096D01*
X00950871Y00203460D01*
X00954129D01*
X00957325Y00204096D01*
X00960335Y00205342D01*
X00963044Y00207153D01*
X00965347Y00209456D01*
X00967158Y00212165D01*
X00968404Y00215175D01*
X00969040Y00218371D01*
Y00221629D01*
X00968404Y00224825D01*
X00967158Y00227835D01*
X00965347Y00230544D01*
X00963044Y00232847D01*
X00960335Y00234657D01*
X00957325Y00235904D01*
X00954129Y00236540D01*
D02*
G37*
G36*
X00263495Y00202500D02*
X00261505D01*
X00259668Y00201739D01*
X00258261Y00200332D01*
X00257500Y00198495D01*
Y00196505D01*
X00258261Y00194668D01*
X00259668Y00193261D01*
X00261505Y00192500D01*
X00263495D01*
X00265332Y00193261D01*
X00266739Y00194668D01*
X00267500Y00196505D01*
Y00198495D01*
X00266739Y00200332D01*
X00265332Y00201739D01*
X00263495Y00202500D01*
D02*
G37*
G36*
X00136755Y00200290D02*
X00134045D01*
X00131428Y00199589D01*
X00129082Y00198234D01*
X00127166Y00196318D01*
X00125811Y00193972D01*
X00125110Y00191355D01*
Y00188645D01*
X00125811Y00186028D01*
X00127166Y00183682D01*
X00129082Y00181766D01*
X00131428Y00180411D01*
X00134045Y00179710D01*
X00136755D01*
X00139372Y00180411D01*
X00141718Y00181766D01*
X00143634Y00183682D01*
X00144989Y00186028D01*
X00145690Y00188645D01*
Y00191355D01*
X00144989Y00193972D01*
X00143634Y00196318D01*
X00141718Y00198234D01*
X00139372Y00199589D01*
X00136755Y00200290D01*
D02*
G37*
G36*
X00120290D02*
X00099710D01*
Y00179710D01*
X00120290D01*
Y00200290D01*
D02*
G37*
G36*
X00934000Y00185105D02*
X00931270D01*
Y00178770D01*
X00941438D01*
X00941346Y00179468D01*
X00940586Y00181303D01*
X00939378Y00182878D01*
X00937803Y00184086D01*
X00935968Y00184846D01*
X00934000Y00185105D01*
D02*
G37*
G36*
X00928730D02*
X00926000D01*
X00924032Y00184846D01*
X00922197Y00184086D01*
X00920622Y00182878D01*
X00919414Y00181303D01*
X00918654Y00179468D01*
X00918562Y00178770D01*
X00928730D01*
Y00185105D01*
D02*
G37*
G36*
X00976000D02*
X00971270D01*
Y00178770D01*
X00983438D01*
X00983346Y00179468D01*
X00982586Y00181303D01*
X00981378Y00182878D01*
X00979802Y00184086D01*
X00977968Y00184846D01*
X00976000Y00185105D01*
D02*
G37*
G36*
X00968730D02*
X00964000D01*
X00962032Y00184846D01*
X00960197Y00184086D01*
X00958622Y00182878D01*
X00957414Y00181303D01*
X00956654Y00179468D01*
X00956562Y00178770D01*
X00968730D01*
Y00185105D01*
D02*
G37*
G36*
X00983438Y00176230D02*
X00971270D01*
Y00169895D01*
X00976000D01*
X00977968Y00170154D01*
X00979802Y00170914D01*
X00981378Y00172122D01*
X00982586Y00173697D01*
X00983346Y00175532D01*
X00983438Y00176230D01*
D02*
G37*
G36*
X00968730D02*
X00956562D01*
X00956654Y00175532D01*
X00957414Y00173697D01*
X00958622Y00172122D01*
X00960197Y00170914D01*
X00962032Y00170154D01*
X00964000Y00169895D01*
X00968730D01*
Y00176230D01*
D02*
G37*
G36*
X00941438Y00176230D02*
X00931270D01*
Y00169895D01*
X00934000D01*
X00935968Y00170154D01*
X00937803Y00170914D01*
X00939378Y00172122D01*
X00940586Y00173697D01*
X00941346Y00175532D01*
X00941438Y00176230D01*
D02*
G37*
G36*
X00928730D02*
X00918562D01*
X00918654Y00175532D01*
X00919414Y00173697D01*
X00920622Y00172122D01*
X00922197Y00170914D01*
X00924032Y00170154D01*
X00926000Y00169895D01*
X00928730D01*
Y00176230D01*
D02*
G37*
G36*
X00560995Y00177500D02*
X00559005D01*
X00557168Y00176739D01*
X00555761Y00175332D01*
X00555000Y00173495D01*
Y00171505D01*
X00555761Y00169668D01*
X00557168Y00168261D01*
X00559005Y00167500D01*
X00560995D01*
X00562832Y00168261D01*
X00564239Y00169668D01*
X00565000Y00171505D01*
Y00173495D01*
X00564239Y00175332D01*
X00562832Y00176739D01*
X00560995Y00177500D01*
D02*
G37*
G36*
X00263495D02*
X00261505D01*
X00259668Y00176739D01*
X00258261Y00175332D01*
X00257500Y00173495D01*
Y00171505D01*
X00258261Y00169668D01*
X00259668Y00168261D01*
X00261505Y00167500D01*
X00263495D01*
X00265332Y00168261D01*
X00266739Y00169668D01*
X00267500Y00171505D01*
Y00173495D01*
X00266739Y00175332D01*
X00265332Y00176739D01*
X00263495Y00177500D01*
D02*
G37*
G36*
X00385995Y00182500D02*
X00384005D01*
X00382168Y00181739D01*
X00380761Y00180332D01*
X00380000Y00178495D01*
Y00176505D01*
X00380761Y00174668D01*
X00381929Y00173500D01*
X00381591Y00172500D01*
X00381505D01*
X00379668Y00171739D01*
X00378261Y00170332D01*
X00377500Y00168495D01*
Y00166505D01*
X00378261Y00164668D01*
X00379668Y00163261D01*
X00381505Y00162500D01*
X00383495D01*
X00385332Y00163261D01*
X00386739Y00164668D01*
X00387500Y00166505D01*
Y00168495D01*
X00386739Y00170332D01*
X00385571Y00171500D01*
X00385909Y00172500D01*
X00385995D01*
X00387832Y00173261D01*
X00389239Y00174668D01*
X00390000Y00176505D01*
Y00178495D01*
X00389239Y00180332D01*
X00387832Y00181739D01*
X00385995Y00182500D01*
D02*
G37*
G36*
X00565994Y00157500D02*
X00564005D01*
X00562168Y00156739D01*
X00560761Y00155332D01*
X00560000Y00153495D01*
Y00151505D01*
X00560761Y00149668D01*
X00562168Y00148261D01*
X00564005Y00147500D01*
X00565994D01*
X00567832Y00148261D01*
X00569239Y00149668D01*
X00570000Y00151505D01*
Y00153495D01*
X00569239Y00155332D01*
X00567832Y00156739D01*
X00565994Y00157500D01*
D02*
G37*
G36*
X00345995Y00150000D02*
X00344005D01*
X00342168Y00149239D01*
X00340761Y00147832D01*
X00340000Y00145995D01*
Y00144005D01*
X00340761Y00142168D01*
X00342168Y00140761D01*
X00344005Y00140000D01*
X00345995D01*
X00347832Y00140761D01*
X00349239Y00142168D01*
X00350000Y00144005D01*
Y00145995D01*
X00349239Y00147832D01*
X00347832Y00149239D01*
X00345995Y00150000D01*
D02*
G37*
G36*
X00136755Y00160290D02*
X00134045D01*
X00131428Y00159589D01*
X00129082Y00158234D01*
X00127166Y00156318D01*
X00125811Y00153972D01*
X00125110Y00151355D01*
Y00148645D01*
X00125811Y00146028D01*
X00127166Y00143682D01*
X00129082Y00141766D01*
X00131428Y00140411D01*
X00134045Y00139710D01*
X00136755D01*
X00139372Y00140411D01*
X00141718Y00141766D01*
X00143634Y00143682D01*
X00144989Y00146028D01*
X00145690Y00148645D01*
Y00151355D01*
X00144989Y00153972D01*
X00143634Y00156318D01*
X00141718Y00158234D01*
X00139372Y00159589D01*
X00136755Y00160290D01*
D02*
G37*
G36*
X00120290D02*
X00099710D01*
Y00139710D01*
X00120290D01*
Y00160290D01*
D02*
G37*
G36*
X00263495Y00142500D02*
X00261505D01*
X00259668Y00141739D01*
X00258261Y00140332D01*
X00257500Y00138495D01*
Y00136505D01*
X00258261Y00134668D01*
X00259668Y00133261D01*
X00261505Y00132500D01*
X00263495D01*
X00265332Y00133261D01*
X00266739Y00134668D01*
X00267500Y00136505D01*
Y00138495D01*
X00266739Y00140332D01*
X00265332Y00141739D01*
X00263495Y00142500D01*
D02*
G37*
G36*
X00753495Y00140000D02*
X00751505D01*
X00749668Y00139239D01*
X00748261Y00137832D01*
X00747500Y00135995D01*
Y00134005D01*
X00748261Y00132168D01*
X00749668Y00130761D01*
X00751505Y00130000D01*
X00753495D01*
X00755332Y00130761D01*
X00756739Y00132168D01*
X00757500Y00134005D01*
Y00135995D01*
X00756739Y00137832D01*
X00755332Y00139239D01*
X00753495Y00140000D01*
D02*
G37*
G36*
X00263495Y00117500D02*
X00261505D01*
X00259668Y00116739D01*
X00258261Y00115332D01*
X00257500Y00113495D01*
Y00111505D01*
X00258261Y00109668D01*
X00259668Y00108261D01*
X00261505Y00107500D01*
X00263495D01*
X00265332Y00108261D01*
X00266739Y00109668D01*
X00267500Y00111505D01*
Y00113495D01*
X00266739Y00115332D01*
X00265332Y00116739D01*
X00263495Y00117500D01*
D02*
G37*
G36*
X00689270Y00104970D02*
Y00100770D01*
X00693470D01*
X00692697Y00102638D01*
X00691138Y00104197D01*
X00689270Y00104970D01*
D02*
G37*
G36*
X00703270Y00104970D02*
Y00100770D01*
X00707470D01*
X00706697Y00102638D01*
X00705138Y00104197D01*
X00703270Y00104970D01*
D02*
G37*
G36*
X00700730D02*
X00698862Y00104197D01*
X00697303Y00102638D01*
X00696530Y00100770D01*
X00700730D01*
Y00104970D01*
D02*
G37*
G36*
X00686730Y00104970D02*
X00684862Y00104197D01*
X00683303Y00102638D01*
X00682530Y00100770D01*
X00686730D01*
Y00104970D01*
D02*
G37*
G36*
X00485995Y00110000D02*
X00484005D01*
X00482168Y00109239D01*
X00480761Y00107832D01*
X00480000Y00105995D01*
Y00104005D01*
X00480761Y00102168D01*
X00482168Y00100761D01*
X00484005Y00100000D01*
X00485995D01*
X00487832Y00100761D01*
X00489239Y00102168D01*
X00490000Y00104005D01*
Y00105995D01*
X00489239Y00107832D01*
X00487832Y00109239D01*
X00485995Y00110000D01*
D02*
G37*
G36*
X00473495D02*
X00471505D01*
X00469668Y00109239D01*
X00468261Y00107832D01*
X00467500Y00105995D01*
Y00104005D01*
X00468261Y00102168D01*
X00469668Y00100761D01*
X00471505Y00100000D01*
X00473495D01*
X00475332Y00100761D01*
X00476739Y00102168D01*
X00477500Y00104005D01*
Y00105995D01*
X00476739Y00107832D01*
X00475332Y00109239D01*
X00473495Y00110000D01*
D02*
G37*
G36*
X00448495D02*
X00446505D01*
X00444668Y00109239D01*
X00443261Y00107832D01*
X00442500Y00105995D01*
Y00104005D01*
X00443261Y00102168D01*
X00444668Y00100761D01*
X00446505Y00100000D01*
X00448495D01*
X00450332Y00100761D01*
X00451739Y00102168D01*
X00452500Y00104005D01*
Y00105995D01*
X00451739Y00107832D01*
X00450332Y00109239D01*
X00448495Y00110000D01*
D02*
G37*
G36*
X00423495D02*
X00421505D01*
X00419668Y00109239D01*
X00418261Y00107832D01*
X00417500Y00105995D01*
Y00104005D01*
X00418261Y00102168D01*
X00419668Y00100761D01*
X00421505Y00100000D01*
X00423495D01*
X00425332Y00100761D01*
X00426739Y00102168D01*
X00427500Y00104005D01*
Y00105995D01*
X00426739Y00107832D01*
X00425332Y00109239D01*
X00423495Y00110000D01*
D02*
G37*
G36*
X00405995D02*
X00404005D01*
X00402168Y00109239D01*
X00400761Y00107832D01*
X00400000Y00105995D01*
Y00104005D01*
X00400761Y00102168D01*
X00402168Y00100761D01*
X00404005Y00100000D01*
X00405995D01*
X00407832Y00100761D01*
X00409239Y00102168D01*
X00410000Y00104005D01*
Y00105995D01*
X00409239Y00107832D01*
X00407832Y00109239D01*
X00405995Y00110000D01*
D02*
G37*
G36*
X00373495D02*
X00371505D01*
X00369668Y00109239D01*
X00368261Y00107832D01*
X00367500Y00105995D01*
Y00104005D01*
X00368261Y00102168D01*
X00369668Y00100761D01*
X00371505Y00100000D01*
X00373495D01*
X00375332Y00100761D01*
X00376739Y00102168D01*
X00377500Y00104005D01*
Y00105995D01*
X00376739Y00107832D01*
X00375332Y00109239D01*
X00373495Y00110000D01*
D02*
G37*
G36*
X00136755Y00120290D02*
X00134045D01*
X00131428Y00119589D01*
X00129082Y00118234D01*
X00127166Y00116318D01*
X00125811Y00113972D01*
X00125110Y00111355D01*
Y00108645D01*
X00125811Y00106028D01*
X00127166Y00103682D01*
X00129082Y00101766D01*
X00131428Y00100411D01*
X00134045Y00099710D01*
X00136755D01*
X00139372Y00100411D01*
X00141718Y00101766D01*
X00143634Y00103682D01*
X00144989Y00106028D01*
X00145690Y00108645D01*
Y00111355D01*
X00144989Y00113972D01*
X00143634Y00116318D01*
X00141718Y00118234D01*
X00139372Y00119589D01*
X00136755Y00120290D01*
D02*
G37*
G36*
X00120290D02*
X00099710D01*
Y00099710D01*
X00120290D01*
Y00120290D01*
D02*
G37*
G36*
X00710270Y00097970D02*
Y00093770D01*
X00714470D01*
X00713697Y00095638D01*
X00712138Y00097197D01*
X00710270Y00097970D01*
D02*
G37*
G36*
X00679730Y00097970D02*
X00677862Y00097197D01*
X00676303Y00095638D01*
X00675530Y00093770D01*
X00679730D01*
Y00097970D01*
D02*
G37*
G36*
X00934000Y00098705D02*
X00931270D01*
Y00092370D01*
X00941438D01*
X00941346Y00093068D01*
X00940586Y00094903D01*
X00939378Y00096478D01*
X00937803Y00097686D01*
X00935968Y00098446D01*
X00934000Y00098705D01*
D02*
G37*
G36*
X00928730D02*
X00926000D01*
X00924032Y00098446D01*
X00922197Y00097686D01*
X00920622Y00096478D01*
X00919414Y00094903D01*
X00918654Y00093068D01*
X00918562Y00092370D01*
X00928730D01*
Y00098705D01*
D02*
G37*
G36*
X00976000D02*
X00971270D01*
Y00092370D01*
X00983438D01*
X00983346Y00093068D01*
X00982586Y00094903D01*
X00981378Y00096478D01*
X00979802Y00097686D01*
X00977968Y00098446D01*
X00976000Y00098705D01*
D02*
G37*
G36*
X00968730D02*
X00964000D01*
X00962032Y00098446D01*
X00960197Y00097686D01*
X00958622Y00096478D01*
X00957414Y00094903D01*
X00956654Y00093068D01*
X00956562Y00092370D01*
X00968730D01*
Y00098705D01*
D02*
G37*
G36*
X00679730Y00091230D02*
X00675530D01*
X00676303Y00089362D01*
X00677862Y00087803D01*
X00679730Y00087030D01*
Y00091230D01*
D02*
G37*
G36*
X00714470D02*
X00710270D01*
Y00087029D01*
X00712138Y00087803D01*
X00713697Y00089362D01*
X00714470Y00091230D01*
D02*
G37*
G36*
X00983438Y00089830D02*
X00971270D01*
Y00083495D01*
X00976000D01*
X00977968Y00083754D01*
X00979802Y00084514D01*
X00981378Y00085722D01*
X00982586Y00087297D01*
X00983346Y00089132D01*
X00983438Y00089830D01*
D02*
G37*
G36*
X00968730D02*
X00956562D01*
X00956654Y00089132D01*
X00957414Y00087297D01*
X00958622Y00085722D01*
X00960197Y00084514D01*
X00962032Y00083754D01*
X00964000Y00083495D01*
X00968730D01*
Y00089830D01*
D02*
G37*
G36*
X00941438Y00089830D02*
X00931270D01*
Y00083495D01*
X00934000D01*
X00935968Y00083754D01*
X00937803Y00084514D01*
X00939378Y00085722D01*
X00940586Y00087297D01*
X00941346Y00089132D01*
X00941438Y00089830D01*
D02*
G37*
G36*
X00928730D02*
X00918562D01*
X00918654Y00089132D01*
X00919414Y00087297D01*
X00920622Y00085722D01*
X00922197Y00084514D01*
X00924032Y00083754D01*
X00926000Y00083495D01*
X00928730D01*
Y00089830D01*
D02*
G37*
G36*
X00263555Y00093179D02*
X00261566D01*
X00259728Y00092418D01*
X00258322Y00091011D01*
X00257561Y00089173D01*
Y00087184D01*
X00258322Y00085347D01*
X00259728Y00083940D01*
X00261566Y00083179D01*
X00263555D01*
X00265393Y00083940D01*
X00266799Y00085347D01*
X00267561Y00087184D01*
Y00089173D01*
X00266799Y00091011D01*
X00265393Y00092418D01*
X00263555Y00093179D01*
D02*
G37*
G36*
X00710270Y00083970D02*
Y00079770D01*
X00714470D01*
X00713697Y00081638D01*
X00712138Y00083197D01*
X00710270Y00083970D01*
D02*
G37*
G36*
X00679730Y00083970D02*
X00677862Y00083197D01*
X00676303Y00081638D01*
X00675530Y00079770D01*
X00679730D01*
Y00083970D01*
D02*
G37*
G36*
Y00077230D02*
X00675530D01*
X00676303Y00075362D01*
X00677862Y00073803D01*
X00679730Y00073030D01*
Y00077230D01*
D02*
G37*
G36*
X00714470D02*
X00710270D01*
Y00073029D01*
X00712138Y00073803D01*
X00713697Y00075362D01*
X00714470Y00077230D01*
D02*
G37*
G36*
X00693730Y00098230D02*
X00688000D01*
X00682270D01*
Y00092500D01*
Y00086770D01*
X00688000D01*
Y00084230D01*
X00682270D01*
Y00078500D01*
Y00072770D01*
X00688000D01*
X00693730D01*
Y00078500D01*
X00696270D01*
Y00072770D01*
X00702000D01*
X00707730D01*
Y00078500D01*
Y00084230D01*
X00702000D01*
Y00086770D01*
X00707730D01*
Y00092500D01*
Y00098230D01*
X00702000D01*
X00696270D01*
Y00092500D01*
X00693730D01*
Y00098230D01*
D02*
G37*
G36*
X00263495Y00080000D02*
X00261505D01*
X00259668Y00079239D01*
X00258261Y00077832D01*
X00257500Y00075995D01*
Y00074005D01*
X00258261Y00072168D01*
X00259668Y00070761D01*
X00261505Y00070000D01*
X00263495D01*
X00265332Y00070761D01*
X00266739Y00072168D01*
X00267500Y00074005D01*
Y00075995D01*
X00266739Y00077832D01*
X00265332Y00079239D01*
X00263495Y00080000D01*
D02*
G37*
G36*
X00693470Y00070230D02*
X00689270D01*
Y00066030D01*
X00691138Y00066803D01*
X00692697Y00068362D01*
X00693470Y00070230D01*
D02*
G37*
G36*
X00707470D02*
X00703270D01*
Y00066030D01*
X00705138Y00066803D01*
X00706697Y00068362D01*
X00707470Y00070230D01*
D02*
G37*
G36*
X00700730D02*
X00696530D01*
X00697303Y00068362D01*
X00698862Y00066803D01*
X00700730Y00066030D01*
Y00070230D01*
D02*
G37*
G36*
X00686730D02*
X00682530D01*
X00683303Y00068362D01*
X00684862Y00066803D01*
X00686730Y00066030D01*
Y00070230D01*
D02*
G37*
G36*
X00869495Y00072500D02*
X00867505D01*
X00865668Y00071739D01*
X00864261Y00070332D01*
X00863500Y00068495D01*
Y00066505D01*
X00864261Y00064668D01*
X00865668Y00063261D01*
X00867505Y00062500D01*
X00869495D01*
X00871332Y00063261D01*
X00872739Y00064668D01*
X00873500Y00066505D01*
Y00068495D01*
X00872739Y00070332D01*
X00871332Y00071739D01*
X00869495Y00072500D01*
D02*
G37*
G36*
X00136755Y00080290D02*
X00134045D01*
X00131428Y00079589D01*
X00129082Y00078234D01*
X00127166Y00076318D01*
X00125811Y00073972D01*
X00125110Y00071355D01*
Y00068645D01*
X00125811Y00066028D01*
X00127166Y00063682D01*
X00129082Y00061766D01*
X00131428Y00060411D01*
X00134045Y00059710D01*
X00136755D01*
X00139372Y00060411D01*
X00141718Y00061766D01*
X00143634Y00063682D01*
X00144989Y00066028D01*
X00145690Y00068645D01*
Y00071355D01*
X00144989Y00073972D01*
X00143634Y00076318D01*
X00141718Y00078234D01*
X00139372Y00079589D01*
X00136755Y00080290D01*
D02*
G37*
G36*
X00120290D02*
X00099710D01*
Y00059710D01*
X00120290D01*
Y00080290D01*
D02*
G37*
G36*
X00203495Y00067500D02*
X00201505D01*
X00199668Y00066739D01*
X00198261Y00065332D01*
X00197500Y00063495D01*
Y00061505D01*
X00198261Y00059668D01*
X00199668Y00058261D01*
X00201505Y00057500D01*
X00203495D01*
X00205332Y00058261D01*
X00206739Y00059668D01*
X00207500Y00061505D01*
Y00063495D01*
X00206739Y00065332D01*
X00205332Y00066739D01*
X00203495Y00067500D01*
D02*
G37*
G36*
X00255995Y00060000D02*
X00254005D01*
X00252168Y00059239D01*
X00250761Y00057832D01*
X00250000Y00055995D01*
Y00054005D01*
X00250761Y00052168D01*
X00252168Y00050761D01*
X00254005Y00050000D01*
X00255995D01*
X00257832Y00050761D01*
X00259239Y00052168D01*
X00260000Y00054005D01*
Y00055995D01*
X00259239Y00057832D01*
X00257832Y00059239D01*
X00255995Y00060000D01*
D02*
G37*
G36*
X00490555Y00047790D02*
X00490470D01*
Y00038770D01*
X00499490D01*
Y00038855D01*
X00498789Y00041472D01*
X00497434Y00043818D01*
X00495518Y00045734D01*
X00493172Y00047089D01*
X00490555Y00047790D01*
D02*
G37*
G36*
X00487930D02*
X00487845D01*
X00485228Y00047089D01*
X00482882Y00045734D01*
X00480966Y00043818D01*
X00479611Y00041472D01*
X00478910Y00038855D01*
Y00038770D01*
X00487930D01*
Y00047790D01*
D02*
G37*
G36*
X00835995Y00037500D02*
X00834005D01*
X00832168Y00036739D01*
X00830761Y00035332D01*
X00830000Y00033495D01*
Y00031505D01*
X00830761Y00029668D01*
X00832168Y00028261D01*
X00834005Y00027500D01*
X00835995D01*
X00837832Y00028261D01*
X00839239Y00029668D01*
X00840000Y00031505D01*
Y00033495D01*
X00839239Y00035332D01*
X00837832Y00036739D01*
X00835995Y00037500D01*
D02*
G37*
G36*
X00550290Y00047790D02*
X00529710D01*
Y00027210D01*
X00550290D01*
Y00047790D01*
D02*
G37*
G36*
X00515955D02*
X00513245D01*
X00510628Y00047089D01*
X00508282Y00045734D01*
X00506366Y00043818D01*
X00505011Y00041472D01*
X00504310Y00038855D01*
Y00036145D01*
X00505011Y00033528D01*
X00506366Y00031182D01*
X00508282Y00029266D01*
X00510628Y00027911D01*
X00513245Y00027210D01*
X00515955D01*
X00518572Y00027911D01*
X00520918Y00029266D01*
X00522834Y00031182D01*
X00524189Y00033528D01*
X00524890Y00036145D01*
Y00038855D01*
X00524189Y00041472D01*
X00522834Y00043818D01*
X00520918Y00045734D01*
X00518572Y00047089D01*
X00515955Y00047790D01*
D02*
G37*
G36*
X00499490Y00036230D02*
X00490470D01*
Y00027210D01*
X00490555D01*
X00493172Y00027911D01*
X00495518Y00029266D01*
X00497434Y00031182D01*
X00498789Y00033528D01*
X00499490Y00036145D01*
Y00036230D01*
D02*
G37*
G36*
X00487930D02*
X00478910D01*
Y00036145D01*
X00479611Y00033528D01*
X00480966Y00031182D01*
X00482882Y00029266D01*
X00485228Y00027911D01*
X00487845Y00027210D01*
X00487930D01*
Y00036230D01*
D02*
G37*
G36*
X00952561Y00082540D02*
X00947439D01*
X00942380Y00081739D01*
X00937509Y00080156D01*
X00932945Y00077831D01*
X00928802Y00074820D01*
X00925180Y00071198D01*
X00922169Y00067055D01*
X00919844Y00062491D01*
X00918261Y00057620D01*
X00917460Y00052561D01*
Y00047439D01*
X00918261Y00042380D01*
X00919844Y00037509D01*
X00922169Y00032945D01*
X00925180Y00028802D01*
X00928802Y00025180D01*
X00932945Y00022169D01*
X00937509Y00019844D01*
X00942380Y00018261D01*
X00947439Y00017460D01*
X00952561D01*
X00957620Y00018261D01*
X00962491Y00019844D01*
X00967055Y00022169D01*
X00971198Y00025180D01*
X00974820Y00028802D01*
X00977831Y00032945D01*
X00980156Y00037509D01*
X00981739Y00042380D01*
X00982540Y00047439D01*
Y00052561D01*
X00981739Y00057620D01*
X00980156Y00062491D01*
X00977831Y00067055D01*
X00974820Y00071198D01*
X00971198Y00074820D01*
X00967055Y00077831D01*
X00962491Y00080156D01*
X00957620Y00081739D01*
X00952561Y00082540D01*
D02*
G37*
G36*
X00052561D02*
X00047439D01*
X00042380Y00081739D01*
X00037509Y00080156D01*
X00032945Y00077831D01*
X00028802Y00074820D01*
X00025180Y00071198D01*
X00022169Y00067055D01*
X00019844Y00062491D01*
X00018261Y00057620D01*
X00017460Y00052561D01*
Y00047439D01*
X00018261Y00042380D01*
X00019844Y00037509D01*
X00022169Y00032945D01*
X00025180Y00028802D01*
X00028802Y00025180D01*
X00032945Y00022169D01*
X00037509Y00019844D01*
X00042380Y00018261D01*
X00047439Y00017460D01*
X00052561D01*
X00057620Y00018261D01*
X00062491Y00019844D01*
X00067055Y00022169D01*
X00071198Y00025180D01*
X00074820Y00028802D01*
X00077831Y00032945D01*
X00080156Y00037509D01*
X00081739Y00042380D01*
X00082540Y00047439D01*
Y00052561D01*
X00081739Y00057620D01*
X00080156Y00062491D01*
X00077831Y00067055D01*
X00074820Y00071198D01*
X00071198Y00074820D01*
X00067055Y00077831D01*
X00062491Y00080156D01*
X00057620Y00081739D01*
X00052561Y00082540D01*
D02*
G37*
%LPD*%
D60*
X00970000Y00177500D02*
D03*
Y00091100D02*
D03*
D61*
X00930000Y00177500D02*
D03*
Y00091100D02*
D03*
D63*
X00952500Y00267000D02*
D03*
Y00220000D02*
D03*
D65*
Y00314000D02*
D03*
D73*
X00330000Y00462500D02*
D03*
X00135400Y00430000D02*
D03*
X00489200Y00037500D02*
D03*
X00514600D02*
D03*
X00135400Y00070000D02*
D03*
Y00110000D02*
D03*
Y00150000D02*
D03*
Y00190000D02*
D03*
Y00230000D02*
D03*
Y00270000D02*
D03*
Y00310000D02*
D03*
Y00350000D02*
D03*
Y00390000D02*
D03*
D74*
X00355400Y00462500D02*
D03*
X00540000Y00037500D02*
D03*
X00110000Y00110000D02*
D03*
Y00150000D02*
D03*
Y00190000D02*
D03*
Y00230000D02*
D03*
Y00270000D02*
D03*
Y00310000D02*
D03*
Y00350000D02*
D03*
Y00070000D02*
D03*
Y00430000D02*
D03*
Y00390000D02*
D03*
D75*
X00681000Y00078500D02*
D03*
X00688000Y00085500D02*
D03*
Y00071500D02*
D03*
X00695000Y00078500D02*
D03*
X00702000Y00071500D02*
D03*
X00709000Y00078500D02*
D03*
X00702000Y00085500D02*
D03*
X00709000Y00092500D02*
D03*
X00702000Y00099500D02*
D03*
X00695000Y00092500D02*
D03*
X00681000D02*
D03*
X00688000Y00099500D02*
D03*
X00970000Y00407500D02*
D03*
X00985000Y00377500D02*
D03*
X00970000Y00347500D02*
D03*
X00985000Y00317500D02*
D03*
X00970000Y00287500D02*
D03*
X00985000Y00257500D02*
D03*
Y00197500D02*
D03*
Y00137500D02*
D03*
Y00077500D02*
D03*
X00940000Y00407500D02*
D03*
Y00347500D02*
D03*
Y00287500D02*
D03*
X00910000Y00467500D02*
D03*
Y00347500D02*
D03*
X00925000Y00317500D02*
D03*
X00910000Y00287500D02*
D03*
X00925000Y00257500D02*
D03*
Y00197500D02*
D03*
X00910000Y00107500D02*
D03*
Y00047500D02*
D03*
X00880000Y00467500D02*
D03*
X00895000Y00437500D02*
D03*
Y00317500D02*
D03*
Y00257500D02*
D03*
X00880000Y00167500D02*
D03*
Y00107500D02*
D03*
X00895000Y00077500D02*
D03*
X00880000Y00047500D02*
D03*
X00850000Y00467500D02*
D03*
X00865000Y00437500D02*
D03*
X00850000Y00227500D02*
D03*
X00865000Y00197500D02*
D03*
X00850000Y00107500D02*
D03*
X00820000Y00467500D02*
D03*
X00835000Y00437500D02*
D03*
X00820000Y00227500D02*
D03*
X00835000Y00197500D02*
D03*
X00820000Y00107500D02*
D03*
X00790000Y00467500D02*
D03*
X00805000Y00437500D02*
D03*
X00790000Y00407500D02*
D03*
X00805000Y00317500D02*
D03*
X00790000Y00227500D02*
D03*
X00805000Y00197500D02*
D03*
X00790000Y00107500D02*
D03*
X00760000Y00467500D02*
D03*
X00775000Y00437500D02*
D03*
Y00377500D02*
D03*
Y00317500D02*
D03*
Y00257500D02*
D03*
Y00197500D02*
D03*
X00730000Y00467500D02*
D03*
X00745000Y00437500D02*
D03*
Y00317500D02*
D03*
X00730000Y00287500D02*
D03*
Y00227500D02*
D03*
Y00167500D02*
D03*
Y00107500D02*
D03*
X00745000Y00077500D02*
D03*
X00730000Y00047500D02*
D03*
X00715000Y00317500D02*
D03*
X00700000Y00287500D02*
D03*
X00715000Y00257500D02*
D03*
X00700000Y00227500D02*
D03*
Y00167500D02*
D03*
X00715000Y00137500D02*
D03*
X00670000Y00287500D02*
D03*
X00685000Y00257500D02*
D03*
X00670000Y00167500D02*
D03*
X00685000Y00137500D02*
D03*
X00670000Y00107500D02*
D03*
Y00047500D02*
D03*
X00640000Y00287500D02*
D03*
Y00167500D02*
D03*
X00655000Y00137500D02*
D03*
X00640000Y00107500D02*
D03*
X00655000Y00077500D02*
D03*
X00640000Y00047500D02*
D03*
X00625000Y00437500D02*
D03*
X00610000Y00407500D02*
D03*
X00625000Y00377500D02*
D03*
Y00257500D02*
D03*
X00610000Y00167500D02*
D03*
X00625000Y00137500D02*
D03*
X00610000Y00107500D02*
D03*
X00625000Y00077500D02*
D03*
X00610000Y00047500D02*
D03*
X00595000Y00437500D02*
D03*
X00580000Y00407500D02*
D03*
X00595000Y00377500D02*
D03*
Y00197500D02*
D03*
X00565000Y00437500D02*
D03*
Y00377500D02*
D03*
Y00317500D02*
D03*
Y00197500D02*
D03*
X00550000Y00107500D02*
D03*
X00520000Y00467500D02*
D03*
Y00407500D02*
D03*
Y00347500D02*
D03*
X00535000Y00197500D02*
D03*
X00520000Y00167500D02*
D03*
Y00107500D02*
D03*
X00490000Y00467500D02*
D03*
X00505000Y00437500D02*
D03*
X00490000Y00407500D02*
D03*
X00505000Y00377500D02*
D03*
X00490000Y00347500D02*
D03*
X00505000Y00137500D02*
D03*
Y00077500D02*
D03*
X00460000Y00467500D02*
D03*
X00475000Y00437500D02*
D03*
X00460000Y00407500D02*
D03*
X00475000Y00377500D02*
D03*
Y00197500D02*
D03*
Y00077500D02*
D03*
X00460000Y00047500D02*
D03*
X00430000Y00467500D02*
D03*
X00445000Y00437500D02*
D03*
Y00317500D02*
D03*
Y00077500D02*
D03*
X00430000Y00047500D02*
D03*
X00400000Y00467500D02*
D03*
X00415000Y00437500D02*
D03*
X00400000Y00407500D02*
D03*
X00415000Y00077500D02*
D03*
X00400000Y00047500D02*
D03*
X00370000Y00227500D02*
D03*
X00385000Y00077500D02*
D03*
X00370000Y00047500D02*
D03*
X00355000Y00437500D02*
D03*
X00340000Y00407500D02*
D03*
X00355000Y00257500D02*
D03*
X00340000Y00107500D02*
D03*
X00355000Y00077500D02*
D03*
X00340000Y00047500D02*
D03*
X00325000Y00077500D02*
D03*
X00310000Y00047500D02*
D03*
X00295000Y00437500D02*
D03*
X00280000Y00227500D02*
D03*
X00295000Y00077500D02*
D03*
X00280000Y00047500D02*
D03*
X00190000Y00467500D02*
D03*
Y00407500D02*
D03*
Y00287500D02*
D03*
Y00227500D02*
D03*
X00205000Y00197500D02*
D03*
X00190000Y00107500D02*
D03*
X00160000Y00467500D02*
D03*
X00175000Y00377500D02*
D03*
Y00317500D02*
D03*
X00160000Y00287500D02*
D03*
X00175000Y00197500D02*
D03*
X00160000Y00107500D02*
D03*
X00130000Y00467500D02*
D03*
Y00407500D02*
D03*
Y00287500D02*
D03*
X00100000Y00467500D02*
D03*
Y00407500D02*
D03*
Y00287500D02*
D03*
Y00167500D02*
D03*
Y00047500D02*
D03*
X00070000Y00407500D02*
D03*
X00085000Y00377500D02*
D03*
X00070000Y00347500D02*
D03*
X00085000Y00317500D02*
D03*
X00070000Y00287500D02*
D03*
X00085000Y00257500D02*
D03*
X00070000Y00227500D02*
D03*
X00085000Y00197500D02*
D03*
X00070000Y00167500D02*
D03*
X00085000Y00137500D02*
D03*
X00070000Y00107500D02*
D03*
X00085000Y00077500D02*
D03*
X00040000Y00407500D02*
D03*
X00055000Y00377500D02*
D03*
X00040000Y00347500D02*
D03*
X00055000Y00317500D02*
D03*
X00040000Y00287500D02*
D03*
X00055000Y00257500D02*
D03*
X00040000Y00227500D02*
D03*
X00055000Y00197500D02*
D03*
X00040000Y00167500D02*
D03*
X00055000Y00137500D02*
D03*
X00040000Y00107500D02*
D03*
X00337500Y00317500D02*
D03*
X00262500Y00075000D02*
D03*
X00560000Y00172500D02*
D03*
X00600000Y00217500D02*
D03*
X00252500Y00242500D02*
D03*
Y00257500D02*
D03*
X00662500Y00397500D02*
D03*
X00682500Y00376750D02*
D03*
Y00387500D02*
D03*
Y00398250D02*
D03*
Y00413500D02*
D03*
X00669500Y00346500D02*
D03*
X00752000Y00380000D02*
D03*
X00671000Y00364000D02*
D03*
X00682500Y00365500D02*
D03*
X00752000Y00372000D02*
D03*
X00520000Y00395000D02*
D03*
X00417500Y00382500D02*
D03*
X00580000Y00350000D02*
D03*
X00595000D02*
D03*
X00395000Y00337500D02*
D03*
X00352500Y00382500D02*
D03*
X00385000Y00177500D02*
D03*
X00382500Y00167500D02*
D03*
X00345000Y00145000D02*
D03*
X00595000Y00474776D02*
D03*
X00580000D02*
D03*
X00520000Y00435000D02*
D03*
X00432500D02*
D03*
X00485000Y00105000D02*
D03*
X00472500D02*
D03*
X00447500D02*
D03*
X00422500D02*
D03*
X00405000D02*
D03*
X00385000Y00435000D02*
D03*
X00390000Y00330000D02*
D03*
X00367500Y00435000D02*
D03*
X00382500Y00294000D02*
D03*
X00370457Y00213942D02*
D03*
X00372500Y00105000D02*
D03*
X00875500Y00406500D02*
D03*
X00883500D02*
D03*
X00817500D02*
D03*
X00798500D02*
D03*
X00867500D02*
D03*
X00833500D02*
D03*
X00873500Y00313500D02*
D03*
X00865500D02*
D03*
X00881500D02*
D03*
X00831500D02*
D03*
X00796500D02*
D03*
X00815500D02*
D03*
X00865000Y00220000D02*
D03*
X00970000Y00167500D02*
D03*
X00912500D02*
D03*
X00867500Y00155000D02*
D03*
X00802500Y00145000D02*
D03*
X00867500Y00122500D02*
D03*
X00970000Y00102500D02*
D03*
X00938941Y00102461D02*
D03*
X00867500Y00047500D02*
D03*
X00835000Y00012500D02*
D03*
X00725000Y00100277D02*
D03*
X00695000Y00115000D02*
D03*
X00725000Y00085118D02*
D03*
X00662500Y00099800D02*
D03*
Y00085318D02*
D03*
X00725000Y00071370D02*
D03*
X00695000Y00052500D02*
D03*
X00662500Y00071103D02*
D03*
X00575000Y00012500D02*
D03*
X00435000Y00330000D02*
D03*
X00228294Y00426979D02*
D03*
Y00351979D02*
D03*
X00425000Y00330000D02*
D03*
X00228294Y00376979D02*
D03*
Y00401979D02*
D03*
X00507500Y00317500D02*
D03*
X00470000Y00255000D02*
D03*
X00390000Y00282500D02*
D03*
X00228294Y00276979D02*
D03*
X00227849Y00326749D02*
D03*
X00390000Y00262500D02*
D03*
X00228294Y00251979D02*
D03*
X00157416Y00430458D02*
D03*
X00208682Y00312500D02*
D03*
X00162500Y00337500D02*
D03*
X00467500Y00210000D02*
D03*
X00427500Y00205000D02*
D03*
X00390000Y00242500D02*
D03*
Y00224660D02*
D03*
X00228294Y00226979D02*
D03*
Y00176979D02*
D03*
Y00151979D02*
D03*
X00557500Y00072500D02*
D03*
X00505000Y00055000D02*
D03*
X00330000Y00135000D02*
D03*
X00228294Y00126979D02*
D03*
X00208682Y00212500D02*
D03*
X00162393Y00237379D02*
D03*
X00160459Y00143177D02*
D03*
X00208682Y00112500D02*
D03*
X00209246Y00095352D02*
D03*
X00208682Y00037500D02*
D03*
X00161793Y00055779D02*
D03*
X00851500Y00359500D02*
D03*
X00850500Y00406500D02*
D03*
X00868500Y00359500D02*
D03*
X00884500D02*
D03*
X00849500Y00266500D02*
D03*
X00848500Y00313500D02*
D03*
X00882500Y00266500D02*
D03*
X00866500D02*
D03*
X00755000Y00305000D02*
D03*
X00722500Y00365000D02*
D03*
X00580000Y00315000D02*
D03*
X00452500Y00297500D02*
D03*
X00462500Y00325000D02*
D03*
X00550261Y00291381D02*
D03*
X00502110Y00255588D02*
D03*
X00512877Y00209125D02*
D03*
X00807500Y00267500D02*
D03*
X00817500D02*
D03*
X00827500D02*
D03*
X00868500Y00067500D02*
D03*
X00835000Y00032500D02*
D03*
X00755000Y00212500D02*
D03*
X00565000Y00152500D02*
D03*
X00540000Y00325000D02*
D03*
X00507500Y00302500D02*
D03*
X00595000Y00315000D02*
D03*
X00262519Y00411769D02*
D03*
X00262500Y00387500D02*
D03*
X00752500Y00135000D02*
D03*
X00502500Y00272500D02*
D03*
X00470000Y00240000D02*
D03*
X00605000Y00257500D02*
D03*
X00625000Y00237500D02*
D03*
X00672500Y00217500D02*
D03*
X00814050Y00359941D02*
D03*
X00827500Y00360000D02*
D03*
X00800000D02*
D03*
X00255000Y00055000D02*
D03*
X00262500Y00302500D02*
D03*
X00432500Y00285000D02*
D03*
Y00245000D02*
D03*
X00262500Y00237500D02*
D03*
X00432500Y00272500D02*
D03*
Y00260000D02*
D03*
X00262500Y00197500D02*
D03*
Y00222500D02*
D03*
Y00277500D02*
D03*
Y00327500D02*
D03*
X00202500Y00062500D02*
D03*
X00367500Y00295000D02*
D03*
X00262500Y00137500D02*
D03*
Y00172500D02*
D03*
Y00262500D02*
D03*
Y00362500D02*
D03*
X00262561Y00088179D02*
D03*
X00262500Y00112500D02*
D03*
D76*
X00930500Y00372500D02*
D03*
D77*
X00540000Y00460000D02*
D03*
D78*
X00930500Y00392500D02*
D03*
D79*
X00950000Y00050000D02*
D03*
X00050000Y00450000D02*
D03*
X00950000D02*
D03*
X00050000Y00050000D02*
D03*
M02*
