M48
;Layer_Color=9474304
;FILE_FORMAT=4:4
METRIC
;TYPE=PLATED
T01F00S00C0.3000
T03F00S00C0.7000
T04F00S00C1.0000
T05F00S00C1.0200
T06F00S00C1.8500
;TYPE=NON_PLATED
T07F00S00C3.2000
%
T01
X01589000Y00581500
Y00641500
Y00701500
Y00761500
X01574000Y00791500
X01544000
X01514000
X01529000Y00761500
X01499000
X01486500Y00770500
X01470500
X01453500
X01431500Y00771500
X01421500
X01411500
X01379000Y00761500
X01394000Y00731500
X01424000
X01454000
X01469000Y00724000
X01469000Y00701500
X01439000
X01409000
X01379000
X01359000Y00716500
X01334000Y00731500
X01304000
X01276500Y00721500
X01274000Y00671500
X01304000
X01334000
X01319000Y00641500
X01289000
X01259000
X01229000
X01244000Y00671500
X01214000
X01199000Y00701500
X01204000Y00721500
X01209000Y00761500
X01229000Y00761500
X01229000Y00741500
X01244000Y00791500
X01274000
X01304000
X01334000
X01319000Y00761500
X01289000
X01299000Y00619000
X01292000Y00603500
Y00589500
X01299000Y00596500
Y00582500
X01292000Y00575500
X01285000Y00582500
Y00596500
X01266500Y00589318
Y00575103
X01259000Y00581500
X01266500Y00603800
X01274000Y00611500
X01244000
X01214000
X01229000Y00581500
X01244000Y00551500
X01274000
X01299000Y00556500
X01306000Y00575500
X01313000Y00582500
X01306000Y00589500
X01313000Y00596500
X01306000Y00603500
X01329000Y00604277
X01334000Y00611500
X01329000Y00589118
Y00575370
X01349000Y00581500
X01334000Y00551500
X01356500Y00639000
X01406500Y00649000
X01394000Y00611500
X01424000
X01454000
X01484000
X01471500Y00626500
Y00659000
X01484000Y00671500
X01516500Y00671500
X01529000Y00701500
X01574000Y00671500
Y00606500
X01542941Y00606461
X01514000Y00611500
X01499000Y00581500
X01472500Y00571500
X01471500Y00551500
X01484000Y00551500
X01514000
X01439000Y00536500
Y00516500
X01214000Y00551500
X01179000Y00516500
X01161500Y00576500
X01154000Y00611500
X01124000
X01089000Y00609000
X01076500
X01051500
X01026500
X01009000
X00976500
X00944000Y00611500
X00934000Y00639000
X00949000Y00649000
X00986500Y00671500
X00989000Y00681500
X00974457Y00717942
X00974000Y00731500
X00994000Y00728660
Y00746500
Y00766500
Y00786500
X01036500Y00789000
Y00776500
Y00764000
Y00749000
X01074000Y00744000
Y00759000
X01106110Y00759588
X01106500Y00776500
X01116877Y00713125
X01139000Y00701500
X01169000
X01164000Y00676500
X01169000Y00656500
X01124000Y00671500
X01109000Y00641500
Y00581500
X01109000Y00559000
X01064000Y00551500
X01034000
X01004000
X00974000
X00944000
X00914000
X00884000
X00859000Y00559000
X00866500Y00579000
X00866561Y00592179
X00866500Y00616500
Y00641500
Y00676500
Y00701500
Y00726500
Y00741500
X00856500Y00746500
Y00761500
X00866500Y00766500
Y00781500
X00832294Y00780979
Y00755979
Y00730979
X00812682Y00716500
X00809000Y00701500
X00832294Y00680979
Y00655979
Y00630979
X00812682Y00616500
X00813247Y00599352
X00794000Y00611500
X00806500Y00566500
X00812682Y00541500
X00899000Y00581500
X00929000
X00959000
X00989000
X01019000
X01049000
X01079000
Y00701500
X01071500Y00714000
X01031500Y00709000
X00959000Y00761500
X00884000Y00731500
X00794000
Y00791500
X00764000
X00734000
X00704000
X00674000
X00644000
X00659000Y00761500
X00689000
X00674000Y00731500
X00644000
X00659000Y00701500
X00689000
X00704000Y00671500
X00674000
X00644000
X00659000Y00641500
X00689000
X00674000Y00611500
X00644000
X00689000Y00581500
X00704000Y00551500
X00765793Y00559779
X00764000Y00611500
X00764459Y00647177
X00779000Y00701500
X00766394Y00741379
X00779000Y00821500
X00766500Y00841500
X00779000Y00881500
X00761416Y00934458
X00764000Y00971500
X00734000
X00704000
Y00911500
X00734000
X00674000
X00644000
X00659000Y00881500
X00689000
X00674000Y00851500
X00644000
X00659000Y00821500
X00689000
X00812682Y00816500
X00831849Y00830749
X00832294Y00855979
Y00880979
Y00905979
Y00930979
X00866519Y00915769
X00866500Y00891500
Y00866500
Y00831500
Y00806500
X00941500Y00821500
X00971500Y00799000
X00986500Y00798000
X00994000Y00834000
X00999000Y00841500
X01029000Y00834000
X01039000
X01049000Y00821500
X01066500Y00829000
X01056500Y00801500
X01111500Y00806500
Y00821500
X01144000Y00829000
X01169000Y00821500
X01184000Y00819000
Y00854000
X01169000Y00881500
X01184000Y00911500
X01169000Y00941500
X01124000Y00939000
X01109000Y00941500
X01079000
X01049000
X01036500Y00939000
X01019000Y00941500
X00989000Y00939000
X00971500
X00959000Y00941500
X00944000Y00911500
X00956500Y00886500
X01021500
X01004000Y00911500
X01064000
X01094000
X01124000
X01124000Y00899000
X01109000Y00881500
X01079000
X01094000Y00851500
X01124000
X01154261Y00795381
X01124000Y00971500
X01094000
X01064000
X01034000
X01004000
X00899000Y00941500
X00794000Y00971500
Y00911500
X01184000Y00978776
X01199000
X01199000Y00941500
X01229000
X01214000Y00911500
X01229000Y00881500
X01199000
X01199000Y00854000
Y00819000
X01273500Y00850500
X01275000Y00868000
X01286500Y00869500
Y00880750
Y00891500
Y00902250
Y00917500
X01266500Y00901500
X01326500Y00869000
X01356000Y00876000
Y00884000
X01379000Y00881500
X01404000Y00864000
X01418049Y00863941
X01431500Y00864000
X01455500Y00863500
X01472500
X01488500
X01514000Y00851500
X01544000
X01574000
Y00911500
X01544000
X01487500Y00910500
X01479500
X01471500
X01454500
X01437500
X01421500
X01402500
X01394000Y00911500
X01409000Y00941500
X01439000
X01469000
X01499000
X01514000Y00971500
X01484000
X01454000
X01424000
X01394000
X01364000
X01334000
X01349000Y00941500
X01379000
Y00821500
X01400500Y00817500
X01409000Y00821500
X01419500Y00817500
X01435500
X01452500
X01469500
X01477500
X01485500
X01499000Y00821500
X01529000
X01349000
X01359000Y00809000
X01319000Y00821500
X01589000
Y00881500
T03
X01534500Y00876500
Y00896500
T04
X01144000Y00964000
T05
X01093200Y00541500
X01118600
X01144000
X00739400Y00574000
X00714000
Y00614000
X00739400
Y00654000
X00714000
Y00694000
X00739400
Y00734000
X00714000
Y00774000
X00739400
Y00814000
X00714000
Y00854000
X00739400
Y00894000
X00714000
Y00934000
X00739400
X00934000Y00966500
X00959400
T06
X01556500Y00724000
Y00771000
Y00818000
T07
X01554000Y00554000
X00654000
Y00954000
X01554000
M30
