%TF.GenerationSoftware,Altium Limited,Altium Designer,26.3.0 (6)*%
G04 Layer_Physical_Order=4*
G04 Layer_Color=16711680*
%FSLAX44Y44*%
%MOMM*%
%TF.SameCoordinates,0C1EB354-EA42-4053-ACE5-635D41CB0CF5*%
%TF.FilePolarity,Positive*%
%TF.FileFunction,Copper,L4,Bot,Signal*%
%TF.Part,Single*%
G01*
G75*
%TA.AperFunction,SMDPad,CuDef*%
%ADD14R,0.9000X0.8000*%
%ADD16R,1.5562X1.5534*%
%ADD42R,0.7500X0.9000*%
%TA.AperFunction,Conductor*%
%ADD44C,0.2540*%
%ADD45C,1.0160*%
%ADD47C,0.7620*%
%TA.AperFunction,ComponentPad*%
%ADD49C,1.5500*%
%ADD50R,1.5500X1.5500*%
%ADD51C,0.6000*%
%ADD52R,1.2000X1.2000*%
G04:AMPARAMS|DCode=53|XSize=1mm|YSize=2.2mm|CornerRadius=0.5mm|HoleSize=0mm|Usage=FLASHONLY|Rotation=90.000|XOffset=0mm|YOffset=0mm|HoleType=Round|Shape=RoundedRectangle|*
%AMROUNDEDRECTD53*
21,1,1.0000,1.2000,0,0,90.0*
21,1,0.0000,2.2000,0,0,90.0*
1,1,1.0000,0.6000,0.0000*
1,1,1.0000,0.6000,0.0000*
1,1,1.0000,-0.6000,0.0000*
1,1,1.0000,-0.6000,0.0000*
%
%ADD53ROUNDEDRECTD53*%
G04:AMPARAMS|DCode=54|XSize=1mm|YSize=1.8mm|CornerRadius=0.5mm|HoleSize=0mm|Usage=FLASHONLY|Rotation=90.000|XOffset=0mm|YOffset=0mm|HoleType=Round|Shape=RoundedRectangle|*
%AMROUNDEDRECTD54*
21,1,1.0000,0.8000,0,0,90.0*
21,1,0.0000,1.8000,0,0,90.0*
1,1,1.0000,0.4000,0.0000*
1,1,1.0000,0.4000,0.0000*
1,1,1.0000,-0.4000,0.0000*
1,1,1.0000,-0.4000,0.0000*
%
%ADD54ROUNDEDRECTD54*%
%ADD55C,1.5000*%
%ADD56C,2.8000*%
%ADD57C,1.2000*%
%ADD58R,2.8000X2.8000*%
%TA.AperFunction,WasherPad*%
%ADD59C,6.0000*%
%TA.AperFunction,ViaPad*%
%ADD60C,0.6000*%
%TA.AperFunction,SMDPad,CuDef*%
%ADD61R,0.8300X0.6300*%
G36*
X952938Y494821D02*
X958763Y494054D01*
X964438Y492533D01*
X969866Y490285D01*
X974954Y487347D01*
X979616Y483770D01*
X983770Y479616D01*
X987347Y474954D01*
X990285Y469866D01*
X992533Y464438D01*
X994054Y458763D01*
X994821Y452938D01*
X994820Y450000D01*
X994821Y50000D01*
X994821Y47062D01*
X994054Y41237D01*
X992533Y35562D01*
X990285Y30134D01*
X987347Y25045D01*
X983770Y20384D01*
X979616Y16230D01*
X974955Y12653D01*
X969866Y9715D01*
X964438Y7467D01*
X958763Y5946D01*
X952938Y5179D01*
X950000D01*
X50000Y5179D01*
X47062Y5179D01*
X41237Y5946D01*
X35562Y7467D01*
X30134Y9715D01*
X25045Y12653D01*
X20384Y16230D01*
X16230Y20384D01*
X12653Y25045D01*
X9715Y30134D01*
X7467Y35562D01*
X5946Y41237D01*
X5179Y47062D01*
Y50000D01*
X5179Y450000D01*
Y452938D01*
X5946Y458763D01*
X7467Y464438D01*
X9715Y469866D01*
X12653Y474954D01*
X16230Y479616D01*
X20384Y483770D01*
X25045Y487347D01*
X30134Y490285D01*
X35562Y492533D01*
X41237Y494054D01*
X47062Y494821D01*
X50000Y494821D01*
X950000Y494821D01*
X952938Y494821D01*
D02*
G37*
%LPC*%
G36*
X595995Y479776D02*
X594005D01*
X592168Y479015D01*
X590761Y477609D01*
X590000Y475771D01*
Y473782D01*
X590761Y471944D01*
X592168Y470537D01*
X594005Y469776D01*
X595995D01*
X597832Y470537D01*
X599239Y471944D01*
X600000Y473782D01*
Y475771D01*
X599239Y477609D01*
X597832Y479015D01*
X595995Y479776D01*
D02*
G37*
G36*
X580995D02*
X579005D01*
X577168Y479015D01*
X575761Y477609D01*
X575000Y475771D01*
Y473782D01*
X575761Y471944D01*
X577168Y470537D01*
X579005Y469776D01*
X580995D01*
X582832Y470537D01*
X584239Y471944D01*
X585000Y473782D01*
Y475771D01*
X584239Y477609D01*
X582832Y479015D01*
X580995Y479776D01*
D02*
G37*
G36*
X541322Y470040D02*
X541270D01*
Y461270D01*
X550040D01*
Y461322D01*
X549356Y463875D01*
X548034Y466165D01*
X546165Y468034D01*
X543875Y469356D01*
X541322Y470040D01*
D02*
G37*
G36*
X538730D02*
X538678D01*
X536125Y469356D01*
X533835Y468034D01*
X531966Y466165D01*
X530644Y463875D01*
X529960Y461322D01*
Y461270D01*
X538730D01*
Y470040D01*
D02*
G37*
G36*
X331355Y472790D02*
X328645D01*
X326028Y472089D01*
X323682Y470734D01*
X321766Y468818D01*
X320411Y466472D01*
X319710Y463855D01*
Y461145D01*
X320411Y458528D01*
X321766Y456182D01*
X323682Y454266D01*
X326028Y452911D01*
X328645Y452210D01*
X331355D01*
X333972Y452911D01*
X336318Y454266D01*
X338234Y456182D01*
X339589Y458528D01*
X340290Y461145D01*
Y463855D01*
X339589Y466472D01*
X338234Y468818D01*
X336318Y470734D01*
X333972Y472089D01*
X331355Y472790D01*
D02*
G37*
G36*
X550040Y458730D02*
X541270D01*
Y449960D01*
X541322D01*
X543875Y450644D01*
X546165Y451966D01*
X548034Y453835D01*
X549356Y456125D01*
X550040Y458678D01*
Y458730D01*
D02*
G37*
G36*
X538730D02*
X529960D01*
Y458678D01*
X530644Y456125D01*
X531966Y453835D01*
X533835Y451966D01*
X536125Y450644D01*
X538678Y449960D01*
X538730D01*
Y458730D01*
D02*
G37*
G36*
X220230Y444540D02*
X215210D01*
Y438770D01*
X220230D01*
Y444540D01*
D02*
G37*
G36*
X136755Y440290D02*
X136670D01*
Y431270D01*
X145690D01*
Y431355D01*
X144989Y433972D01*
X143634Y436318D01*
X141718Y438234D01*
X139372Y439589D01*
X136755Y440290D01*
D02*
G37*
G36*
X134130D02*
X134045D01*
X131428Y439589D01*
X129082Y438234D01*
X127166Y436318D01*
X125811Y433972D01*
X125110Y431355D01*
Y431270D01*
X134130D01*
Y440290D01*
D02*
G37*
G36*
X239790Y444540D02*
X222770D01*
Y437500D01*
Y434173D01*
X225219Y436623D01*
X225238Y436263D01*
X225291Y435904D01*
X225381Y435545D01*
X225507Y435186D01*
X225669Y434827D01*
X225866Y434467D01*
X226100Y434108D01*
X226369Y433749D01*
X226674Y433390D01*
X227016Y433031D01*
X225219Y431234D01*
X224860Y431576D01*
X224501Y431881D01*
X224142Y432150D01*
X223783Y432384D01*
X223424Y432581D01*
X223064Y432743D01*
X222770Y432846D01*
Y430460D01*
X233434D01*
X233498Y430444D01*
X233729Y430432D01*
X233838Y430416D01*
X233962Y430385D01*
X234103Y430336D01*
X234266Y430262D01*
X234451Y430161D01*
X234657Y430027D01*
X234884Y429857D01*
X234988Y429768D01*
X255263Y409493D01*
X256523Y408651D01*
X257609Y408435D01*
X257740Y408394D01*
X257791Y408399D01*
X258010Y408355D01*
X258284D01*
X258423Y408215D01*
X258474Y408194D01*
X258514Y408156D01*
X258938Y408000D01*
X259356Y407825D01*
X259392Y407825D01*
X259687Y407531D01*
X261525Y406769D01*
X263514D01*
X265351Y407531D01*
X266758Y408937D01*
X267519Y410775D01*
Y412764D01*
X266758Y414602D01*
X265351Y416008D01*
X263514Y416769D01*
X261525D01*
X260837Y416485D01*
X260781Y416483D01*
X260724Y416501D01*
X260278Y416463D01*
X259831Y416446D01*
X259777Y416421D01*
X259717Y416415D01*
X259461Y416283D01*
X240482Y435261D01*
X240393Y435366D01*
X240224Y435592D01*
X240089Y435799D01*
X239988Y435984D01*
X239914Y436147D01*
X239865Y436288D01*
X239834Y436412D01*
X239818Y436521D01*
X239806Y436752D01*
X239790Y436816D01*
Y444540D01*
D02*
G37*
G36*
X220230Y436230D02*
X215210D01*
Y430460D01*
X220230D01*
Y436230D01*
D02*
G37*
G36*
X520995Y440000D02*
X519005D01*
X517168Y439239D01*
X515761Y437832D01*
X515000Y435995D01*
Y434005D01*
X515761Y432168D01*
X517168Y430761D01*
X519005Y430000D01*
X520995D01*
X522832Y430761D01*
X524239Y432168D01*
X525000Y434005D01*
Y435995D01*
X524239Y437832D01*
X522832Y439239D01*
X520995Y440000D01*
D02*
G37*
G36*
X433495D02*
X431505D01*
X429668Y439239D01*
X428261Y437832D01*
X427500Y435995D01*
Y434005D01*
X428261Y432168D01*
X429668Y430761D01*
X431505Y430000D01*
X433495D01*
X435332Y430761D01*
X436739Y432168D01*
X437500Y434005D01*
Y435995D01*
X436739Y437832D01*
X435332Y439239D01*
X433495Y440000D01*
D02*
G37*
G36*
X385995D02*
X384005D01*
X382168Y439239D01*
X380761Y437832D01*
X380000Y435995D01*
Y434005D01*
X380761Y432168D01*
X382168Y430761D01*
X384005Y430000D01*
X385995D01*
X387832Y430761D01*
X389239Y432168D01*
X390000Y434005D01*
Y435995D01*
X389239Y437832D01*
X387832Y439239D01*
X385995Y440000D01*
D02*
G37*
G36*
X368495D02*
X366505D01*
X364668Y439239D01*
X363261Y437832D01*
X362500Y435995D01*
Y434005D01*
X363261Y432168D01*
X364668Y430761D01*
X366505Y430000D01*
X368495D01*
X370332Y430761D01*
X371739Y432168D01*
X372500Y434005D01*
Y435995D01*
X371739Y437832D01*
X370332Y439239D01*
X368495Y440000D01*
D02*
G37*
G36*
X145690Y428730D02*
X136670D01*
Y419710D01*
X136755D01*
X139372Y420411D01*
X141718Y421766D01*
X143634Y423682D01*
X144989Y426028D01*
X145690Y428645D01*
Y428730D01*
D02*
G37*
G36*
X134130D02*
X125110D01*
Y428645D01*
X125811Y426028D01*
X127166Y423682D01*
X129082Y421766D01*
X131428Y420411D01*
X134045Y419710D01*
X134130D01*
Y428730D01*
D02*
G37*
G36*
X120290Y440290D02*
X99710D01*
Y419710D01*
X120290D01*
Y440290D01*
D02*
G37*
G36*
X952561Y482540D02*
X947439D01*
X942380Y481739D01*
X937509Y480156D01*
X932945Y477831D01*
X928802Y474820D01*
X925180Y471198D01*
X922169Y467055D01*
X919844Y462491D01*
X918261Y457620D01*
X917460Y452561D01*
Y447439D01*
X918261Y442380D01*
X919844Y437509D01*
X922169Y432945D01*
X925180Y428802D01*
X928802Y425180D01*
X932945Y422169D01*
X937509Y419844D01*
X942380Y418261D01*
X947439Y417460D01*
X952561D01*
X957620Y418261D01*
X962491Y419844D01*
X967055Y422169D01*
X971198Y425180D01*
X974820Y428802D01*
X977831Y432945D01*
X980156Y437509D01*
X981739Y442380D01*
X982540Y447439D01*
Y452561D01*
X981739Y457620D01*
X980156Y462491D01*
X977831Y467055D01*
X974820Y471198D01*
X971198Y474820D01*
X967055Y477831D01*
X962491Y480156D01*
X957620Y481739D01*
X952561Y482540D01*
D02*
G37*
G36*
X52561D02*
X47439D01*
X42380Y481739D01*
X37509Y480156D01*
X32945Y477831D01*
X28802Y474820D01*
X25180Y471198D01*
X22169Y467055D01*
X19844Y462491D01*
X18261Y457620D01*
X17460Y452561D01*
Y447439D01*
X18261Y442380D01*
X19844Y437509D01*
X22169Y432945D01*
X25180Y428802D01*
X28802Y425180D01*
X32945Y422169D01*
X37509Y419844D01*
X42380Y418261D01*
X47439Y417460D01*
X52561D01*
X57620Y418261D01*
X62491Y419844D01*
X67055Y422169D01*
X71198Y425180D01*
X74820Y428802D01*
X77831Y432945D01*
X80156Y437509D01*
X81739Y442380D01*
X82540Y447439D01*
Y452561D01*
X81739Y457620D01*
X80156Y462491D01*
X77831Y467055D01*
X74820Y471198D01*
X71198Y474820D01*
X67055Y477831D01*
X62491Y480156D01*
X57620Y481739D01*
X52561Y482540D01*
D02*
G37*
G36*
X220230Y419540D02*
X215210D01*
Y413770D01*
X220230D01*
Y419540D01*
D02*
G37*
G36*
X239790D02*
X222770D01*
Y412500D01*
Y409173D01*
X225219Y411623D01*
X225238Y411263D01*
X225291Y410904D01*
X225381Y410545D01*
X225507Y410186D01*
X225669Y409827D01*
X225866Y409467D01*
X226100Y409108D01*
X226369Y408749D01*
X226674Y408390D01*
X227016Y408031D01*
X225219Y406234D01*
X224860Y406576D01*
X224501Y406881D01*
X224142Y407150D01*
X223783Y407384D01*
X223424Y407581D01*
X223064Y407743D01*
X222770Y407846D01*
Y405460D01*
X233434D01*
X233498Y405444D01*
X233729Y405432D01*
X233838Y405416D01*
X233962Y405385D01*
X234103Y405336D01*
X234266Y405262D01*
X234451Y405161D01*
X234657Y405027D01*
X234884Y404857D01*
X234988Y404768D01*
X254532Y385224D01*
X255793Y384382D01*
X257279Y384086D01*
X258102D01*
X258373Y383858D01*
X258701Y383555D01*
X258758Y383534D01*
X258804Y383494D01*
X259230Y383359D01*
X259648Y383204D01*
X259709Y383207D01*
X259767Y383188D01*
X259831Y383194D01*
X261505Y382500D01*
X263495D01*
X265332Y383261D01*
X266739Y384668D01*
X267500Y386506D01*
Y388495D01*
X266739Y390332D01*
X265332Y391739D01*
X263495Y392500D01*
X261505D01*
X261298Y392414D01*
X261199Y392454D01*
X261158Y392454D01*
X261120Y392468D01*
X260655Y392450D01*
X260188Y392446D01*
X260151Y392430D01*
X260110Y392429D01*
X259687Y392234D01*
X259258Y392052D01*
X259156Y391983D01*
X259133Y391969D01*
X259095Y391952D01*
X259040Y391931D01*
X258965Y391908D01*
X258869Y391885D01*
X258860Y391883D01*
X240482Y410261D01*
X240393Y410366D01*
X240224Y410592D01*
X240089Y410799D01*
X239988Y410984D01*
X239914Y411147D01*
X239865Y411288D01*
X239834Y411412D01*
X239818Y411521D01*
X239806Y411752D01*
X239790Y411816D01*
Y419540D01*
D02*
G37*
G36*
X220230Y411230D02*
X215210D01*
Y405460D01*
X220230D01*
Y411230D01*
D02*
G37*
G36*
X907750Y402080D02*
X907654Y402061D01*
X907495D01*
X907460Y402064D01*
X907451Y402061D01*
X889679D01*
Y399661D01*
X889674Y399645D01*
X889630Y399224D01*
X889610Y399169D01*
X889578Y399121D01*
X889458Y399010D01*
X889171Y398834D01*
X888676Y398632D01*
X887965Y398440D01*
X887045Y398287D01*
X886378Y398228D01*
X879190D01*
Y400690D01*
X875414D01*
X874978Y400982D01*
X872500Y401474D01*
X870022Y400982D01*
X869586Y400690D01*
X865810D01*
Y389310D01*
X869034D01*
X871168Y387176D01*
X873269Y385772D01*
X875746Y385279D01*
X886378D01*
X887045Y385220D01*
X887965Y385067D01*
X888676Y384876D01*
X889171Y384673D01*
X889458Y384498D01*
X889578Y384386D01*
X889610Y384338D01*
X889630Y384283D01*
X889674Y383862D01*
X889679Y383846D01*
Y381447D01*
Y377463D01*
X890344Y377736D01*
X891030Y378155D01*
X891564Y378650D01*
X891945Y379222D01*
X892173Y379869D01*
X892250Y380593D01*
Y374516D01*
X900000D01*
X907750D01*
Y380120D01*
X907827Y379396D01*
X908055Y378748D01*
X908436Y378177D01*
X908970Y377682D01*
X909656Y377262D01*
X910321Y376990D01*
Y381447D01*
Y384220D01*
X910326Y384236D01*
X910370Y384656D01*
X910390Y384711D01*
X910422Y384760D01*
X910542Y384871D01*
X910829Y385046D01*
X911324Y385249D01*
X912035Y385440D01*
X912955Y385593D01*
X913622Y385652D01*
X925225D01*
X925287Y385649D01*
X927204Y384542D01*
X929376Y383960D01*
X931624D01*
X933796Y384542D01*
X935744Y385666D01*
X937334Y387256D01*
X938458Y389204D01*
X939040Y391376D01*
Y393624D01*
X938458Y395796D01*
X937334Y397744D01*
X935744Y399334D01*
X933796Y400458D01*
X931624Y401040D01*
X929376D01*
X927204Y400458D01*
X925256Y399334D01*
X924595Y398672D01*
X923576Y398601D01*
X913554D01*
X912933Y398652D01*
X912000Y398797D01*
X911273Y398980D01*
X910765Y399174D01*
X910473Y399340D01*
X910364Y399434D01*
X910363Y399436D01*
X910324Y399781D01*
X910321Y399790D01*
Y402061D01*
X907848D01*
X907750Y402080D01*
D02*
G37*
G36*
X851495Y411500D02*
X849505D01*
X847668Y410739D01*
X846261Y409332D01*
X845500Y407495D01*
Y405505D01*
X846261Y403668D01*
X847668Y402261D01*
X849505Y401500D01*
X851495D01*
X853332Y402261D01*
X854739Y403668D01*
X855500Y405505D01*
Y407495D01*
X854739Y409332D01*
X853332Y410739D01*
X851495Y411500D01*
D02*
G37*
G36*
X663495Y402500D02*
X661505D01*
X659668Y401739D01*
X658261Y400332D01*
X657500Y398495D01*
Y396505D01*
X658261Y394668D01*
X659668Y393261D01*
X661505Y392500D01*
X663495D01*
X665332Y393261D01*
X666739Y394668D01*
X667500Y396505D01*
Y398495D01*
X666739Y400332D01*
X665332Y401739D01*
X663495Y402500D01*
D02*
G37*
G36*
X520995Y400000D02*
X519005D01*
X517168Y399239D01*
X515761Y397832D01*
X515000Y395995D01*
Y394005D01*
X515761Y392168D01*
X517168Y390761D01*
X519005Y390000D01*
X520995D01*
X522832Y390761D01*
X524239Y392168D01*
X525000Y394005D01*
Y395995D01*
X524239Y397832D01*
X522832Y399239D01*
X520995Y400000D01*
D02*
G37*
G36*
X220230Y394540D02*
X215210D01*
Y388770D01*
X220230D01*
Y394540D01*
D02*
G37*
G36*
X239790D02*
X222770D01*
Y387500D01*
Y384173D01*
X225219Y386623D01*
X225238Y386263D01*
X225291Y385904D01*
X225381Y385545D01*
X225507Y385186D01*
X225669Y384827D01*
X225866Y384467D01*
X226100Y384108D01*
X226369Y383749D01*
X226674Y383390D01*
X227016Y383031D01*
X225219Y381234D01*
X224860Y381576D01*
X224501Y381881D01*
X224142Y382150D01*
X223783Y382384D01*
X223424Y382581D01*
X223064Y382743D01*
X222770Y382846D01*
Y380460D01*
X233434D01*
X233498Y380444D01*
X233729Y380432D01*
X233838Y380416D01*
X233962Y380385D01*
X234103Y380336D01*
X234266Y380262D01*
X234451Y380161D01*
X234657Y380027D01*
X234884Y379857D01*
X234988Y379768D01*
X254532Y360224D01*
X255793Y359382D01*
X257279Y359086D01*
X258102D01*
X258373Y358858D01*
X258701Y358555D01*
X258758Y358534D01*
X258804Y358494D01*
X259230Y358359D01*
X259648Y358204D01*
X259709Y358207D01*
X259767Y358188D01*
X259831Y358194D01*
X261505Y357500D01*
X263495D01*
X265332Y358261D01*
X266739Y359668D01*
X267500Y361505D01*
Y363495D01*
X266739Y365332D01*
X265332Y366739D01*
X263495Y367500D01*
X261505D01*
X261298Y367414D01*
X261199Y367454D01*
X261158Y367454D01*
X261120Y367468D01*
X260655Y367450D01*
X260188Y367446D01*
X260151Y367430D01*
X260110Y367429D01*
X259687Y367234D01*
X259258Y367052D01*
X259156Y366983D01*
X259133Y366969D01*
X259095Y366952D01*
X259040Y366931D01*
X258965Y366908D01*
X258869Y366885D01*
X258860Y366883D01*
X240482Y385261D01*
X240393Y385366D01*
X240224Y385592D01*
X240089Y385799D01*
X239988Y385984D01*
X239914Y386147D01*
X239865Y386288D01*
X239834Y386412D01*
X239818Y386521D01*
X239806Y386752D01*
X239790Y386816D01*
Y394540D01*
D02*
G37*
G36*
X220230Y386230D02*
X215210D01*
Y380460D01*
X220230D01*
Y386230D01*
D02*
G37*
G36*
X136755Y400290D02*
X134045D01*
X131428Y399589D01*
X129082Y398234D01*
X127166Y396318D01*
X125811Y393972D01*
X125110Y391355D01*
Y388645D01*
X125811Y386028D01*
X127166Y383682D01*
X129082Y381766D01*
X131428Y380411D01*
X134045Y379710D01*
X136755D01*
X139372Y380411D01*
X141718Y381766D01*
X143634Y383682D01*
X144989Y386028D01*
X145690Y388645D01*
Y391355D01*
X144989Y393972D01*
X143634Y396318D01*
X141718Y398234D01*
X139372Y399589D01*
X136755Y400290D01*
D02*
G37*
G36*
X120290D02*
X99710D01*
Y379710D01*
X120290D01*
Y400290D01*
D02*
G37*
G36*
X418495Y387500D02*
X416505D01*
X414668Y386739D01*
X413261Y385332D01*
X412500Y383495D01*
Y381505D01*
X413261Y379668D01*
X414668Y378261D01*
X416505Y377500D01*
X418495D01*
X420332Y378261D01*
X421739Y379668D01*
X422500Y381505D01*
Y383495D01*
X421739Y385332D01*
X420332Y386739D01*
X418495Y387500D01*
D02*
G37*
G36*
X353495D02*
X351505D01*
X349668Y386739D01*
X348261Y385332D01*
X347500Y383495D01*
Y381505D01*
X348261Y379668D01*
X349668Y378261D01*
X351505Y377500D01*
X353495D01*
X355332Y378261D01*
X356739Y379668D01*
X357500Y381505D01*
Y383495D01*
X356739Y385332D01*
X355332Y386739D01*
X353495Y387500D01*
D02*
G37*
G36*
X879190Y378390D02*
X873770D01*
Y373970D01*
X879190D01*
Y378390D01*
D02*
G37*
G36*
X871230D02*
X865810D01*
Y373970D01*
X871230D01*
Y378390D01*
D02*
G37*
G36*
X939040Y381040D02*
X931770D01*
Y373770D01*
X939040D01*
Y381040D01*
D02*
G37*
G36*
X929230D02*
X921960D01*
Y376696D01*
X922626Y376850D01*
X923311Y377087D01*
X923845Y377368D01*
X924226Y377692D01*
X924454Y378059D01*
X924530Y378470D01*
Y373770D01*
X929230D01*
Y381040D01*
D02*
G37*
G36*
X814109Y367686D02*
X813660Y367627D01*
X800448D01*
X800000Y367686D01*
X737500D01*
X737500Y367686D01*
X735511Y367424D01*
X733657Y366656D01*
X732065Y365435D01*
X689316Y322686D01*
X580000D01*
X578011Y322424D01*
X576157Y321656D01*
X574565Y320435D01*
X573344Y318843D01*
X572576Y316989D01*
X572314Y315000D01*
X572576Y313011D01*
X573344Y311157D01*
X574565Y309565D01*
X576157Y308344D01*
X578011Y307576D01*
X580000Y307314D01*
X692500D01*
X694489Y307576D01*
X696343Y308344D01*
X697935Y309565D01*
X740684Y352314D01*
X799611D01*
X800059Y352255D01*
X800059Y352255D01*
X814050D01*
X814498Y352314D01*
X827500D01*
X829489Y352576D01*
X831343Y353344D01*
X832935Y354565D01*
X834156Y356157D01*
X834924Y358011D01*
X835186Y360000D01*
X834924Y361989D01*
X834156Y363843D01*
X832935Y365435D01*
X831343Y366656D01*
X829489Y367424D01*
X827500Y367686D01*
X814109D01*
X814109Y367686D01*
D02*
G37*
G36*
X879190Y371430D02*
X873770D01*
Y367010D01*
X879190D01*
Y371430D01*
D02*
G37*
G36*
X871230D02*
X865810D01*
Y367010D01*
X871230D01*
Y371430D01*
D02*
G37*
G36*
X929230Y371230D02*
X924530D01*
Y366530D01*
X924454Y366941D01*
X924226Y367308D01*
X923845Y367632D01*
X923311Y367913D01*
X922626Y368150D01*
X921960Y368304D01*
Y363960D01*
X929230D01*
Y371230D01*
D02*
G37*
G36*
X898730Y371976D02*
X892250D01*
Y365510D01*
X892173Y366204D01*
X891945Y366825D01*
X891564Y367373D01*
X891030Y367848D01*
X890344Y368250D01*
X889679Y368511D01*
Y362939D01*
X898730D01*
Y371976D01*
D02*
G37*
G36*
X939040Y371230D02*
X931770D01*
Y363960D01*
X939040D01*
Y371230D01*
D02*
G37*
G36*
X220230Y369540D02*
X215210D01*
Y363770D01*
X220230D01*
Y369540D01*
D02*
G37*
G36*
X907750Y371976D02*
X901270D01*
Y362939D01*
X910321D01*
Y368122D01*
X909656Y367895D01*
X908970Y367545D01*
X908436Y367132D01*
X908055Y366655D01*
X907827Y366114D01*
X907750Y365510D01*
Y371976D01*
D02*
G37*
G36*
X723495Y370000D02*
X721505D01*
X719668Y369239D01*
X718261Y367832D01*
X717500Y365995D01*
Y364005D01*
X718261Y362168D01*
X719668Y360761D01*
X721505Y360000D01*
X723495D01*
X725332Y360761D01*
X726739Y362168D01*
X727500Y364005D01*
Y365995D01*
X726739Y367832D01*
X725332Y369239D01*
X723495Y370000D01*
D02*
G37*
G36*
X671995Y369000D02*
X670005D01*
X668168Y368239D01*
X666761Y366832D01*
X666000Y364995D01*
Y363005D01*
X666761Y361168D01*
X668168Y359761D01*
X670005Y359000D01*
X671995D01*
X673832Y359761D01*
X675239Y361168D01*
X676000Y363005D01*
Y364995D01*
X675239Y366832D01*
X673832Y368239D01*
X671995Y369000D01*
D02*
G37*
G36*
X239790Y369540D02*
X222770D01*
Y362500D01*
Y359173D01*
X225219Y361623D01*
X225238Y361263D01*
X225291Y360904D01*
X225381Y360545D01*
X225507Y360186D01*
X225669Y359827D01*
X225866Y359467D01*
X226100Y359108D01*
X226369Y358749D01*
X226674Y358390D01*
X227016Y358031D01*
X225219Y356234D01*
X224860Y356576D01*
X224501Y356881D01*
X224142Y357150D01*
X223783Y357384D01*
X223424Y357581D01*
X223064Y357743D01*
X222770Y357846D01*
Y355460D01*
X233434D01*
X233498Y355444D01*
X233729Y355432D01*
X233838Y355416D01*
X233962Y355385D01*
X234103Y355336D01*
X234266Y355262D01*
X234451Y355161D01*
X234657Y355027D01*
X234884Y354857D01*
X234988Y354768D01*
X258145Y331612D01*
Y331319D01*
X258136Y331250D01*
X258115Y331131D01*
X258092Y331035D01*
X258069Y330960D01*
X258048Y330905D01*
X258030Y330867D01*
X258017Y330844D01*
X257948Y330742D01*
X257766Y330313D01*
X257571Y329890D01*
X257570Y329849D01*
X257554Y329812D01*
X257550Y329346D01*
X257532Y328880D01*
X257546Y328842D01*
X257546Y328801D01*
X257586Y328702D01*
X257500Y328495D01*
Y326505D01*
X258261Y324668D01*
X259668Y323261D01*
X261505Y322500D01*
X263495D01*
X265332Y323261D01*
X266739Y324668D01*
X267500Y326505D01*
Y328495D01*
X266806Y330169D01*
X266812Y330233D01*
X266793Y330291D01*
X266796Y330352D01*
X266641Y330770D01*
X266506Y331196D01*
X266467Y331242D01*
X266445Y331300D01*
X266142Y331627D01*
X265914Y331898D01*
Y333221D01*
X265618Y334707D01*
X264776Y335967D01*
X240482Y360261D01*
X240393Y360366D01*
X240224Y360592D01*
X240089Y360799D01*
X239988Y360984D01*
X239914Y361147D01*
X239865Y361288D01*
X239834Y361412D01*
X239818Y361521D01*
X239806Y361752D01*
X239790Y361816D01*
Y369540D01*
D02*
G37*
G36*
X220230Y361230D02*
X215210D01*
Y355460D01*
X220230D01*
Y361230D01*
D02*
G37*
G36*
X885495Y364500D02*
X883505D01*
X881668Y363739D01*
X880261Y362332D01*
X879500Y360494D01*
Y358505D01*
X880261Y356668D01*
X881668Y355261D01*
X883505Y354500D01*
X885495D01*
X887332Y355261D01*
X888739Y356668D01*
X889500Y358505D01*
Y360494D01*
X888739Y362332D01*
X887332Y363739D01*
X885495Y364500D01*
D02*
G37*
G36*
X869495D02*
X867505D01*
X865668Y363739D01*
X864261Y362332D01*
X863500Y360494D01*
Y358505D01*
X864261Y356668D01*
X865668Y355261D01*
X867505Y354500D01*
X869495D01*
X871332Y355261D01*
X872739Y356668D01*
X873500Y358505D01*
Y360494D01*
X872739Y362332D01*
X871332Y363739D01*
X869495Y364500D01*
D02*
G37*
G36*
X852495D02*
X850505D01*
X848668Y363739D01*
X847261Y362332D01*
X846500Y360494D01*
Y358505D01*
X847261Y356668D01*
X848668Y355261D01*
X850505Y354500D01*
X852495D01*
X854332Y355261D01*
X855739Y356668D01*
X856500Y358505D01*
Y360494D01*
X855739Y362332D01*
X854332Y363739D01*
X852495Y364500D01*
D02*
G37*
G36*
X595995Y355000D02*
X594005D01*
X592168Y354239D01*
X590761Y352832D01*
X590000Y350995D01*
Y349005D01*
X590761Y347168D01*
X592168Y345761D01*
X594005Y345000D01*
X595995D01*
X597832Y345761D01*
X599239Y347168D01*
X600000Y349005D01*
Y350995D01*
X599239Y352832D01*
X597832Y354239D01*
X595995Y355000D01*
D02*
G37*
G36*
X580995D02*
X579005D01*
X577168Y354239D01*
X575761Y352832D01*
X575000Y350995D01*
Y349005D01*
X575761Y347168D01*
X577168Y345761D01*
X579005Y345000D01*
X580995D01*
X582832Y345761D01*
X584239Y347168D01*
X585000Y349005D01*
Y350995D01*
X584239Y352832D01*
X582832Y354239D01*
X580995Y355000D01*
D02*
G37*
G36*
X136755Y360290D02*
X134045D01*
X131428Y359589D01*
X129082Y358234D01*
X127166Y356318D01*
X125811Y353972D01*
X125110Y351355D01*
Y348645D01*
X125811Y346028D01*
X127166Y343682D01*
X129082Y341766D01*
X131428Y340411D01*
X134045Y339710D01*
X136755D01*
X139372Y340411D01*
X141718Y341766D01*
X143634Y343682D01*
X144989Y346028D01*
X145690Y348645D01*
Y351355D01*
X144989Y353972D01*
X143634Y356318D01*
X141718Y358234D01*
X139372Y359589D01*
X136755Y360290D01*
D02*
G37*
G36*
X120290D02*
X99710D01*
Y339710D01*
X120290D01*
Y360290D01*
D02*
G37*
G36*
X220230Y344540D02*
X215210D01*
Y338770D01*
X220230D01*
Y344540D01*
D02*
G37*
G36*
X239790D02*
X222770D01*
Y337500D01*
Y334173D01*
X225219Y336623D01*
X225238Y336263D01*
X225291Y335904D01*
X225381Y335545D01*
X225507Y335186D01*
X225669Y334827D01*
X225866Y334467D01*
X226100Y334108D01*
X226369Y333749D01*
X226674Y333390D01*
X227016Y333031D01*
X225219Y331234D01*
X224860Y331576D01*
X224501Y331881D01*
X224142Y332150D01*
X223783Y332384D01*
X223424Y332581D01*
X223064Y332743D01*
X222770Y332846D01*
Y330460D01*
X233434D01*
X233498Y330444D01*
X233729Y330432D01*
X233838Y330416D01*
X233962Y330385D01*
X234103Y330336D01*
X234266Y330262D01*
X234451Y330161D01*
X234657Y330027D01*
X234884Y329857D01*
X234988Y329768D01*
X258145Y306612D01*
Y306319D01*
X258136Y306250D01*
X258115Y306131D01*
X258092Y306035D01*
X258069Y305960D01*
X258048Y305905D01*
X258030Y305867D01*
X258017Y305844D01*
X257948Y305742D01*
X257766Y305313D01*
X257571Y304890D01*
X257570Y304849D01*
X257554Y304812D01*
X257550Y304346D01*
X257532Y303880D01*
X257546Y303842D01*
X257546Y303801D01*
X257586Y303702D01*
X257500Y303495D01*
Y301505D01*
X258261Y299668D01*
X259668Y298261D01*
X261505Y297500D01*
X263495D01*
X265332Y298261D01*
X266739Y299668D01*
X267500Y301505D01*
Y303495D01*
X266806Y305169D01*
X266812Y305233D01*
X266793Y305291D01*
X266796Y305352D01*
X266641Y305770D01*
X266506Y306196D01*
X266467Y306242D01*
X266445Y306299D01*
X266142Y306627D01*
X265914Y306898D01*
Y308221D01*
X265618Y309707D01*
X264776Y310968D01*
X240482Y335261D01*
X240393Y335366D01*
X240224Y335592D01*
X240089Y335799D01*
X239988Y335984D01*
X239914Y336147D01*
X239865Y336288D01*
X239834Y336412D01*
X239818Y336521D01*
X239806Y336752D01*
X239790Y336816D01*
Y344540D01*
D02*
G37*
G36*
X220230Y336230D02*
X215210D01*
Y330460D01*
X220230D01*
Y336230D01*
D02*
G37*
G36*
X395995Y342500D02*
X394005D01*
X392168Y341739D01*
X390761Y340332D01*
X390000Y338495D01*
Y336505D01*
X390279Y335831D01*
X389724Y335000D01*
X389005D01*
X387168Y334239D01*
X385761Y332832D01*
X385000Y330995D01*
Y329005D01*
X385761Y327168D01*
X387168Y325761D01*
X389005Y325000D01*
X390995D01*
X392832Y325761D01*
X394239Y327168D01*
X395000Y329005D01*
Y330995D01*
X394721Y331669D01*
X395276Y332500D01*
X395995D01*
X397832Y333261D01*
X399239Y334668D01*
X400000Y336505D01*
Y338495D01*
X399239Y340332D01*
X397832Y341739D01*
X395995Y342500D01*
D02*
G37*
G36*
X540995Y330000D02*
X539005D01*
X537168Y329239D01*
X535761Y327832D01*
X535000Y325995D01*
Y324005D01*
X535761Y322168D01*
X537168Y320761D01*
X539005Y320000D01*
X540995D01*
X542832Y320761D01*
X544239Y322168D01*
X545000Y324005D01*
Y325995D01*
X544239Y327832D01*
X542832Y329239D01*
X540995Y330000D01*
D02*
G37*
G36*
X463495D02*
X461505D01*
X459668Y329239D01*
X458261Y327832D01*
X457500Y325995D01*
Y324005D01*
X458261Y322168D01*
X459668Y320761D01*
X461505Y320000D01*
X463495D01*
X465332Y320761D01*
X466739Y322168D01*
X467500Y324005D01*
Y325995D01*
X466739Y327832D01*
X465332Y329239D01*
X463495Y330000D01*
D02*
G37*
G36*
X220230Y319540D02*
X215210D01*
Y313770D01*
X215240D01*
D01*
X215723Y313783D01*
X216155Y313821D01*
X216536Y313884D01*
X216866Y313973D01*
X217146Y314088D01*
X217374Y314227D01*
X217552Y314392D01*
X217679Y314583D01*
X217755Y314799D01*
X217780Y315040D01*
Y313770D01*
X220230D01*
Y319540D01*
D02*
G37*
G36*
Y311230D02*
X217780D01*
Y309960D01*
X217755Y310201D01*
X217679Y310417D01*
X217552Y310608D01*
X217374Y310773D01*
X217146Y310912D01*
X216866Y311027D01*
X216536Y311116D01*
X216155Y311179D01*
X215723Y311217D01*
X215240Y311230D01*
X215210D01*
Y305460D01*
X220230D01*
Y311230D01*
D02*
G37*
G36*
X849495Y318500D02*
X847505D01*
X845668Y317739D01*
X844261Y316332D01*
X843500Y314495D01*
Y312505D01*
X844261Y310668D01*
X845668Y309261D01*
X847505Y308500D01*
X849495D01*
X851332Y309261D01*
X852739Y310668D01*
X853500Y312505D01*
Y314495D01*
X852739Y316332D01*
X851332Y317739D01*
X849495Y318500D01*
D02*
G37*
G36*
X755995Y310000D02*
X754005D01*
X752168Y309239D01*
X750761Y307832D01*
X750000Y305995D01*
Y304005D01*
X750761Y302168D01*
X752168Y300761D01*
X754005Y300000D01*
X755995D01*
X757832Y300761D01*
X759239Y302168D01*
X760000Y304005D01*
Y305995D01*
X759239Y307832D01*
X757832Y309239D01*
X755995Y310000D01*
D02*
G37*
G36*
X136755Y320290D02*
X134045D01*
X131428Y319589D01*
X129082Y318234D01*
X127166Y316318D01*
X125811Y313972D01*
X125110Y311355D01*
Y308645D01*
X125811Y306028D01*
X127166Y303682D01*
X129082Y301766D01*
X131428Y300411D01*
X134045Y299710D01*
X136755D01*
X139372Y300411D01*
X141718Y301766D01*
X143634Y303682D01*
X144989Y306028D01*
X145690Y308645D01*
Y311355D01*
X144989Y313972D01*
X143634Y316318D01*
X141718Y318234D01*
X139372Y319589D01*
X136755Y320290D01*
D02*
G37*
G36*
X120290D02*
X99710D01*
Y299710D01*
X120290D01*
Y320290D01*
D02*
G37*
G36*
X508495Y307500D02*
X506505D01*
X504668Y306739D01*
X503261Y305332D01*
X502500Y303495D01*
Y301505D01*
X503261Y299668D01*
X504668Y298261D01*
X506505Y297500D01*
X508495D01*
X510332Y298261D01*
X511739Y299668D01*
X512500Y301505D01*
Y303495D01*
X511739Y305332D01*
X510332Y306739D01*
X508495Y307500D01*
D02*
G37*
G36*
X969040Y330540D02*
X935960D01*
Y297460D01*
X969040D01*
Y330540D01*
D02*
G37*
G36*
X453495Y302500D02*
X451505D01*
X449668Y301739D01*
X448261Y300332D01*
X447500Y298495D01*
Y296505D01*
X448261Y294668D01*
X449668Y293261D01*
X451505Y292500D01*
X453495D01*
X455332Y293261D01*
X456739Y294668D01*
X457500Y296505D01*
Y298495D01*
X456739Y300332D01*
X455332Y301739D01*
X453495Y302500D01*
D02*
G37*
G36*
X365690Y472790D02*
X345110D01*
Y458566D01*
X345094Y458502D01*
X345082Y458271D01*
X345066Y458162D01*
X345035Y458038D01*
X344986Y457897D01*
X344912Y457734D01*
X344811Y457549D01*
X344677Y457342D01*
X344507Y457116D01*
X344418Y457012D01*
X328791Y441385D01*
X320000D01*
X318513Y441089D01*
X317253Y440247D01*
X307253Y430247D01*
X306411Y428987D01*
X306115Y427500D01*
Y336133D01*
X306411Y334646D01*
X307253Y333386D01*
X348386Y292253D01*
X349646Y291411D01*
X351133Y291115D01*
X363328D01*
X363376Y291108D01*
X363451Y291091D01*
X363500Y291076D01*
X363527Y291066D01*
X363527Y291066D01*
X363597Y291000D01*
X363987Y290761D01*
X364366Y290507D01*
X364416Y290498D01*
X364458Y290471D01*
X364910Y290399D01*
X365358Y290310D01*
X365407Y290320D01*
X365456Y290312D01*
X365644Y290357D01*
X366505Y290000D01*
X368495D01*
X370332Y290761D01*
X371739Y292168D01*
X372500Y294005D01*
Y295995D01*
X371739Y297832D01*
X370332Y299239D01*
X368495Y300000D01*
X366505D01*
X365644Y299643D01*
X365456Y299688D01*
X365407Y299680D01*
X365358Y299690D01*
X364909Y299601D01*
X364458Y299529D01*
X364416Y299502D01*
X364366Y299493D01*
X363987Y299239D01*
X363597Y299000D01*
X363527Y298934D01*
X363527Y298934D01*
X363500Y298924D01*
X363451Y298909D01*
X363376Y298892D01*
X363328Y298885D01*
X352742D01*
X313885Y337742D01*
Y425891D01*
X321609Y433615D01*
X330400D01*
X331887Y433911D01*
X333147Y434753D01*
X349912Y451518D01*
X350016Y451607D01*
X350242Y451776D01*
X350449Y451911D01*
X350634Y452012D01*
X350797Y452086D01*
X350938Y452135D01*
X351062Y452166D01*
X351171Y452182D01*
X351402Y452194D01*
X351466Y452210D01*
X365690D01*
Y472790D01*
D02*
G37*
G36*
X383495Y299000D02*
X381505D01*
X379668Y298239D01*
X378261Y296832D01*
X377500Y294995D01*
Y293006D01*
X378261Y291168D01*
X379668Y289761D01*
X381505Y289000D01*
X383495D01*
X385332Y289761D01*
X386739Y291168D01*
X387500Y293006D01*
Y294995D01*
X386739Y296832D01*
X385332Y298239D01*
X383495Y299000D01*
D02*
G37*
G36*
X220230Y294540D02*
X215210D01*
Y288770D01*
X220230D01*
Y294540D01*
D02*
G37*
G36*
X433495Y290000D02*
X431505D01*
X429668Y289239D01*
X429040Y288611D01*
X428040Y289025D01*
Y289040D01*
X413960D01*
Y275960D01*
X427274Y275960D01*
X427299D01*
X427299D01*
X427373Y275960D01*
X427493Y275752D01*
X427702Y275388D01*
X427756Y274960D01*
X427529Y274763D01*
X427513Y274730D01*
X427486Y274705D01*
X427288Y274279D01*
X427079Y273858D01*
X427046Y273739D01*
X427033Y273701D01*
X427010Y273647D01*
X426990Y273609D01*
X426835Y273361D01*
X426788Y273298D01*
X426698Y273192D01*
X423238Y269732D01*
X423134Y269643D01*
X422908Y269474D01*
X422701Y269339D01*
X422516Y269238D01*
X422353Y269164D01*
X422212Y269115D01*
X422088Y269084D01*
X421979Y269068D01*
X421748Y269056D01*
X421684Y269040D01*
X413960D01*
Y255960D01*
X427953D01*
Y254947D01*
X423456Y250450D01*
X422720Y249819D01*
X422384Y249571D01*
X422068Y249367D01*
X421803Y249221D01*
X421596Y249128D01*
X421455Y249081D01*
X421384Y249067D01*
X421188Y249052D01*
X421144Y249040D01*
X413960D01*
Y235960D01*
X427552D01*
X427966Y234960D01*
X423456Y230450D01*
X422720Y229819D01*
X422384Y229571D01*
X422068Y229367D01*
X421803Y229221D01*
X421596Y229128D01*
X421455Y229081D01*
X421384Y229067D01*
X421188Y229052D01*
X421144Y229040D01*
X413960D01*
Y215960D01*
X428040D01*
Y223184D01*
X428056Y223248D01*
X428068Y223479D01*
X428084Y223588D01*
X428115Y223712D01*
X428164Y223853D01*
X428238Y224016D01*
X428339Y224201D01*
X428473Y224408D01*
X428643Y224634D01*
X428732Y224738D01*
X435247Y231253D01*
X436089Y232513D01*
X436385Y234000D01*
Y240828D01*
X436392Y240876D01*
X436409Y240951D01*
X436424Y241000D01*
X436434Y241027D01*
X436434Y241027D01*
X436500Y241097D01*
X436739Y241487D01*
X436993Y241866D01*
X437002Y241916D01*
X437029Y241958D01*
X437101Y242410D01*
X437190Y242858D01*
X437180Y242907D01*
X437188Y242956D01*
X437143Y243144D01*
X437500Y244005D01*
Y245995D01*
X436739Y247832D01*
X435332Y249239D01*
X434777Y249469D01*
X434501Y250433D01*
X434606Y250622D01*
X435427Y251851D01*
X435723Y253338D01*
Y255494D01*
X435870Y255648D01*
X436190Y255952D01*
X436217Y256013D01*
X436263Y256060D01*
X436422Y256472D01*
X436601Y256875D01*
X436603Y256941D01*
X436627Y257003D01*
X436626Y257055D01*
X436739Y257168D01*
X437500Y259005D01*
Y260995D01*
X436739Y262832D01*
X435332Y264239D01*
X433495Y265000D01*
X431505D01*
X430485Y264578D01*
X429919Y265425D01*
X431543Y267050D01*
X431723Y267051D01*
X432163Y267033D01*
X432226Y267056D01*
X432293Y267057D01*
X432698Y267229D01*
X433112Y267381D01*
X433161Y267426D01*
X433223Y267452D01*
X433270Y267500D01*
X433495D01*
X435332Y268261D01*
X436739Y269668D01*
X437500Y271505D01*
Y273495D01*
X436739Y275332D01*
X435332Y276739D01*
X433495Y277500D01*
X431505D01*
X429668Y276739D01*
X429040Y276111D01*
X428040Y276525D01*
X428040Y276612D01*
X428040D01*
X428040Y276684D01*
Y278615D01*
X429310D01*
X430797Y278911D01*
X432057Y279753D01*
X432304Y280000D01*
X433495D01*
X435332Y280761D01*
X436739Y282168D01*
X437500Y284005D01*
Y285995D01*
X436739Y287832D01*
X435332Y289239D01*
X433495Y290000D01*
D02*
G37*
G36*
X551255Y296381D02*
X549266D01*
X547429Y295620D01*
X546022Y294213D01*
X545261Y292376D01*
Y290387D01*
X546022Y288549D01*
X547429Y287142D01*
X549266Y286381D01*
X551255D01*
X553093Y287142D01*
X554500Y288549D01*
X555261Y290387D01*
Y292376D01*
X554500Y294213D01*
X553093Y295620D01*
X551255Y296381D01*
D02*
G37*
G36*
X411040Y289040D02*
X405270D01*
Y283770D01*
X411040D01*
Y289040D01*
D02*
G37*
G36*
X402730D02*
X396960D01*
Y283770D01*
X396992D01*
X397473Y283783D01*
X397905Y283821D01*
X398286Y283884D01*
X398616Y283973D01*
X398895Y284088D01*
X399124Y284227D01*
X399302Y284392D01*
X399429Y284583D01*
X399505Y284799D01*
X399530Y285040D01*
Y283770D01*
X402730D01*
Y289040D01*
D02*
G37*
G36*
X239790Y294540D02*
X222770D01*
Y287500D01*
Y284173D01*
X225219Y286623D01*
X225238Y286263D01*
X225291Y285904D01*
X225381Y285545D01*
X225507Y285186D01*
X225669Y284827D01*
X225866Y284467D01*
X226100Y284108D01*
X226369Y283749D01*
X226674Y283390D01*
X227016Y283030D01*
X225219Y281234D01*
X224860Y281576D01*
X224501Y281881D01*
X224142Y282150D01*
X223783Y282384D01*
X223424Y282582D01*
X223064Y282743D01*
X222770Y282846D01*
Y280460D01*
X233434D01*
X233498Y280444D01*
X233729Y280432D01*
X233838Y280416D01*
X233962Y280385D01*
X234103Y280336D01*
X234266Y280262D01*
X234451Y280161D01*
X234657Y280027D01*
X234884Y279857D01*
X234988Y279768D01*
X247372Y267385D01*
X246957Y266385D01*
X239790D01*
Y269540D01*
X222770D01*
Y262500D01*
Y259173D01*
X225219Y261623D01*
X225238Y261263D01*
X225291Y260904D01*
X225381Y260545D01*
X225507Y260186D01*
X225669Y259827D01*
X225866Y259467D01*
X226100Y259108D01*
X226369Y258749D01*
X226674Y258390D01*
X227016Y258030D01*
X225219Y256234D01*
X224860Y256576D01*
X224501Y256881D01*
X224142Y257150D01*
X223783Y257384D01*
X223424Y257582D01*
X223064Y257743D01*
X222770Y257846D01*
Y255460D01*
X239790D01*
Y258615D01*
X245891D01*
X246803Y257704D01*
X246832Y257664D01*
X246873Y257599D01*
X246897Y257554D01*
X246908Y257528D01*
X246909Y257527D01*
X246912Y257431D01*
X247018Y256987D01*
X247108Y256539D01*
X247135Y256497D01*
X247147Y256448D01*
X247415Y256079D01*
X247669Y255699D01*
X247711Y255671D01*
X247740Y255630D01*
X247904Y255529D01*
X248261Y254668D01*
X249668Y253261D01*
X251505Y252500D01*
X253495D01*
X255332Y253261D01*
X256739Y254668D01*
X257500Y256505D01*
Y258286D01*
X258188Y258781D01*
X258373Y258858D01*
X258701Y258555D01*
X258758Y258533D01*
X258804Y258494D01*
X259230Y258359D01*
X259648Y258204D01*
X259709Y258207D01*
X259767Y258188D01*
X259831Y258194D01*
X261505Y257500D01*
X263495D01*
X265332Y258261D01*
X266739Y259668D01*
X267500Y261505D01*
Y263495D01*
X266739Y265332D01*
X265332Y266739D01*
X263495Y267500D01*
X261505D01*
X261298Y267414D01*
X261199Y267454D01*
X261158Y267454D01*
X261120Y267468D01*
X260655Y267450D01*
X260188Y267446D01*
X260151Y267430D01*
X260110Y267429D01*
X259687Y267234D01*
X259258Y267052D01*
X259156Y266983D01*
X259133Y266970D01*
X259095Y266952D01*
X259040Y266931D01*
X258965Y266908D01*
X258869Y266885D01*
X258860Y266883D01*
X240482Y285261D01*
X240393Y285366D01*
X240224Y285592D01*
X240089Y285799D01*
X239988Y285984D01*
X239914Y286147D01*
X239865Y286288D01*
X239834Y286412D01*
X239818Y286521D01*
X239806Y286752D01*
X239790Y286816D01*
Y294540D01*
D02*
G37*
G36*
X220230Y286230D02*
X215210D01*
Y280460D01*
X220230D01*
Y286230D01*
D02*
G37*
G36*
X402730Y281230D02*
X399530D01*
Y279960D01*
X399505Y280201D01*
X399429Y280417D01*
X399302Y280608D01*
X399124Y280773D01*
X398895Y280912D01*
X398616Y281027D01*
X398286Y281116D01*
X397905Y281179D01*
X397473Y281217D01*
X396991Y281230D01*
Y281230D01*
X396960D01*
Y275960D01*
X402730D01*
Y281230D01*
D02*
G37*
G36*
X411040D02*
X405270D01*
Y275960D01*
X411040D01*
Y281230D01*
D02*
G37*
G36*
X239790Y319540D02*
X222770D01*
Y312500D01*
Y305460D01*
X233434D01*
X233498Y305444D01*
X233729Y305432D01*
X233838Y305416D01*
X233962Y305385D01*
X234103Y305336D01*
X234266Y305262D01*
X234451Y305161D01*
X234657Y305027D01*
X234884Y304857D01*
X234988Y304768D01*
X258145Y281612D01*
Y281319D01*
X258136Y281250D01*
X258115Y281131D01*
X258092Y281035D01*
X258069Y280960D01*
X258048Y280905D01*
X258030Y280867D01*
X258017Y280844D01*
X257948Y280742D01*
X257766Y280313D01*
X257571Y279890D01*
X257570Y279849D01*
X257554Y279812D01*
X257550Y279346D01*
X257532Y278880D01*
X257546Y278842D01*
X257546Y278801D01*
X257586Y278702D01*
X257500Y278495D01*
Y276505D01*
X258261Y274668D01*
X259668Y273261D01*
X261505Y272500D01*
X263495D01*
X265332Y273261D01*
X266739Y274668D01*
X267500Y276505D01*
Y278495D01*
X266806Y280169D01*
X266812Y280233D01*
X266793Y280291D01*
X266796Y280352D01*
X266641Y280770D01*
X266506Y281196D01*
X266467Y281242D01*
X266445Y281299D01*
X266142Y281627D01*
X265914Y281898D01*
Y283221D01*
X265618Y284707D01*
X264776Y285968D01*
X240482Y310261D01*
X240393Y310366D01*
X240224Y310592D01*
X240089Y310799D01*
X239988Y310984D01*
X239914Y311147D01*
X239865Y311288D01*
X239834Y311412D01*
X239818Y311521D01*
X239806Y311752D01*
X239790Y311816D01*
Y319540D01*
D02*
G37*
G36*
X828495Y272500D02*
X826505D01*
X824668Y271739D01*
X823261Y270332D01*
X823041Y269801D01*
X821959D01*
X821739Y270332D01*
X820332Y271739D01*
X818495Y272500D01*
X816505D01*
X814668Y271739D01*
X813261Y270332D01*
X813000Y269702D01*
X812000D01*
X811739Y270332D01*
X810332Y271739D01*
X808495Y272500D01*
X806505D01*
X804668Y271739D01*
X803261Y270332D01*
X802500Y268495D01*
Y266505D01*
X803261Y264668D01*
X804668Y263261D01*
X806505Y262500D01*
X808495D01*
X810332Y263261D01*
X811739Y264668D01*
X812000Y265298D01*
X813000D01*
X813261Y264668D01*
X814668Y263261D01*
X816505Y262500D01*
X818495D01*
X820332Y263261D01*
X821739Y264668D01*
X821959Y265199D01*
X823041D01*
X823261Y264668D01*
X824668Y263261D01*
X826505Y262500D01*
X828495D01*
X830332Y263261D01*
X831739Y264668D01*
X832500Y266505D01*
Y268495D01*
X831739Y270332D01*
X830332Y271739D01*
X828495Y272500D01*
D02*
G37*
G36*
X411040Y269040D02*
X405270D01*
Y263770D01*
X411040D01*
Y269040D01*
D02*
G37*
G36*
X402730D02*
X396960D01*
Y263770D01*
X396991D01*
D01*
X397473Y263783D01*
X397905Y263821D01*
X398286Y263884D01*
X398616Y263973D01*
X398895Y264088D01*
X399124Y264227D01*
X399302Y264392D01*
X399429Y264583D01*
X399505Y264799D01*
X399530Y265040D01*
Y263770D01*
X402730D01*
Y269040D01*
D02*
G37*
G36*
X220230Y269540D02*
X215210D01*
Y263770D01*
X220230D01*
Y269540D01*
D02*
G37*
G36*
X883495Y271500D02*
X881506D01*
X879668Y270739D01*
X878261Y269332D01*
X877500Y267495D01*
Y265505D01*
X878261Y263668D01*
X879668Y262261D01*
X881506Y261500D01*
X883495D01*
X885332Y262261D01*
X886739Y263668D01*
X887500Y265505D01*
Y267495D01*
X886739Y269332D01*
X885332Y270739D01*
X883495Y271500D01*
D02*
G37*
G36*
X867495D02*
X865505D01*
X863668Y270739D01*
X862261Y269332D01*
X861500Y267495D01*
Y265505D01*
X862261Y263668D01*
X863668Y262261D01*
X865505Y261500D01*
X867495D01*
X869332Y262261D01*
X870739Y263668D01*
X871500Y265505D01*
Y267495D01*
X870739Y269332D01*
X869332Y270739D01*
X867495Y271500D01*
D02*
G37*
G36*
X850495D02*
X848505D01*
X846668Y270739D01*
X845261Y269332D01*
X844500Y267495D01*
Y265505D01*
X845261Y263668D01*
X846668Y262261D01*
X848505Y261500D01*
X850495D01*
X852332Y262261D01*
X853739Y263668D01*
X854500Y265505D01*
Y267495D01*
X853739Y269332D01*
X852332Y270739D01*
X850495Y271500D01*
D02*
G37*
G36*
X402730Y261230D02*
X399530D01*
Y259960D01*
X399505Y260201D01*
X399429Y260417D01*
X399302Y260608D01*
X399124Y260773D01*
X398895Y260912D01*
X398616Y261027D01*
X398286Y261116D01*
X397905Y261179D01*
X397473Y261217D01*
X396991Y261230D01*
X396960D01*
Y255960D01*
X402730D01*
Y261230D01*
D02*
G37*
G36*
X136755Y280290D02*
X134045D01*
X131428Y279589D01*
X129082Y278234D01*
X127166Y276318D01*
X125811Y273972D01*
X125110Y271355D01*
Y268645D01*
X125811Y266028D01*
X127166Y263682D01*
X129082Y261766D01*
X131428Y260411D01*
X134045Y259710D01*
X136755D01*
X139372Y260411D01*
X141718Y261766D01*
X143634Y263682D01*
X144989Y266028D01*
X145690Y268645D01*
Y271355D01*
X144989Y273972D01*
X143634Y276318D01*
X141718Y278234D01*
X139372Y279589D01*
X136755Y280290D01*
D02*
G37*
G36*
X120290D02*
X99710D01*
Y259710D01*
X120290D01*
Y280290D01*
D02*
G37*
G36*
X411040Y261230D02*
X405270D01*
Y255960D01*
X411040D01*
Y261230D01*
D02*
G37*
G36*
X220230D02*
X215210D01*
Y255460D01*
X220230D01*
Y261230D01*
D02*
G37*
G36*
X503104Y260588D02*
X501115D01*
X499277Y259827D01*
X497871Y258420D01*
X497110Y256582D01*
Y254593D01*
X497871Y252756D01*
X499277Y251349D01*
X501115Y250588D01*
X503104D01*
X504942Y251349D01*
X506348Y252756D01*
X507110Y254593D01*
Y256582D01*
X506348Y258420D01*
X504942Y259827D01*
X503104Y260588D01*
D02*
G37*
G36*
X954129Y283540D02*
X950871D01*
X947675Y282904D01*
X944665Y281658D01*
X941956Y279847D01*
X939653Y277544D01*
X937842Y274835D01*
X936596Y271825D01*
X935960Y268629D01*
Y265371D01*
X936596Y262175D01*
X937842Y259165D01*
X939653Y256456D01*
X941956Y254153D01*
X944665Y252342D01*
X947675Y251096D01*
X950871Y250460D01*
X954129D01*
X957325Y251096D01*
X960335Y252342D01*
X963044Y254153D01*
X965347Y256456D01*
X967158Y259165D01*
X968404Y262175D01*
X969040Y265371D01*
Y268629D01*
X968404Y271825D01*
X967158Y274835D01*
X965347Y277544D01*
X963044Y279847D01*
X960335Y281658D01*
X957325Y282904D01*
X954129Y283540D01*
D02*
G37*
G36*
X411040Y249040D02*
X405270D01*
Y243770D01*
X411040D01*
Y249040D01*
D02*
G37*
G36*
X402730D02*
X396960D01*
Y243770D01*
X396991D01*
D01*
X397473Y243783D01*
X397905Y243821D01*
X398286Y243884D01*
X398616Y243973D01*
X398895Y244088D01*
X399124Y244227D01*
X399302Y244392D01*
X399429Y244583D01*
X399505Y244799D01*
X399530Y245040D01*
Y243770D01*
X402730D01*
Y249040D01*
D02*
G37*
G36*
X253495Y247500D02*
X251505D01*
X249668Y246739D01*
X248261Y245332D01*
X247904Y244471D01*
X247740Y244370D01*
X247711Y244329D01*
X247669Y244301D01*
X247415Y243922D01*
X247147Y243552D01*
X247135Y243503D01*
X247108Y243461D01*
X247018Y243013D01*
X246912Y242569D01*
X246909Y242473D01*
X246908Y242472D01*
X246897Y242446D01*
X246873Y242401D01*
X246832Y242336D01*
X246803Y242296D01*
X245891Y241385D01*
X239790D01*
Y244540D01*
X222770D01*
Y237500D01*
Y234173D01*
X225219Y236623D01*
X225238Y236263D01*
X225291Y235904D01*
X225381Y235545D01*
X225507Y235186D01*
X225669Y234827D01*
X225866Y234467D01*
X226100Y234108D01*
X226369Y233749D01*
X226674Y233390D01*
X227016Y233030D01*
X225219Y231234D01*
X224860Y231576D01*
X224501Y231881D01*
X224142Y232150D01*
X223783Y232384D01*
X223424Y232582D01*
X223064Y232743D01*
X222770Y232846D01*
Y230460D01*
X239790D01*
Y233615D01*
X246957D01*
X247372Y232615D01*
X234988Y220232D01*
X234884Y220143D01*
X234658Y219974D01*
X234451Y219839D01*
X234266Y219738D01*
X234103Y219664D01*
X233962Y219615D01*
X233838Y219584D01*
X233729Y219568D01*
X233498Y219556D01*
X233434Y219540D01*
X222770D01*
Y212500D01*
Y205460D01*
X239790D01*
Y213184D01*
X239806Y213248D01*
X239818Y213479D01*
X239834Y213588D01*
X239865Y213712D01*
X239914Y213853D01*
X239988Y214016D01*
X240089Y214201D01*
X240223Y214408D01*
X240393Y214634D01*
X240482Y214739D01*
X258861Y233117D01*
X258869Y233115D01*
X258965Y233092D01*
X259040Y233069D01*
X259095Y233048D01*
X259133Y233030D01*
X259156Y233017D01*
X259258Y232948D01*
X259687Y232766D01*
X260110Y232571D01*
X260151Y232570D01*
X260188Y232554D01*
X260654Y232550D01*
X261120Y232532D01*
X261158Y232546D01*
X261199Y232546D01*
X261298Y232586D01*
X261505Y232500D01*
X263495D01*
X265332Y233261D01*
X266739Y234668D01*
X267500Y236505D01*
Y238495D01*
X266739Y240332D01*
X265332Y241739D01*
X263495Y242500D01*
X261505D01*
X259831Y241806D01*
X259768Y241812D01*
X259709Y241793D01*
X259648Y241796D01*
X259230Y241641D01*
X258804Y241506D01*
X258758Y241467D01*
X258701Y241445D01*
X258373Y241142D01*
X258189Y241219D01*
X257500Y241714D01*
Y243495D01*
X256739Y245332D01*
X255332Y246739D01*
X253495Y247500D01*
D02*
G37*
G36*
X402730Y241230D02*
X399530D01*
Y239960D01*
X399505Y240201D01*
X399429Y240417D01*
X399302Y240608D01*
X399124Y240773D01*
X398895Y240912D01*
X398616Y241027D01*
X398286Y241116D01*
X397905Y241179D01*
X397473Y241217D01*
X396991Y241230D01*
X396960D01*
Y235960D01*
X402730D01*
Y241230D01*
D02*
G37*
G36*
X220230Y244540D02*
X215210D01*
Y238770D01*
X220230D01*
Y244540D01*
D02*
G37*
G36*
X411040Y241230D02*
X405270D01*
Y235960D01*
X411040D01*
Y241230D01*
D02*
G37*
G36*
X503495Y277500D02*
X501505D01*
X499668Y276739D01*
X498261Y275332D01*
X497904Y274471D01*
X497740Y274370D01*
X497711Y274329D01*
X497669Y274301D01*
X497415Y273921D01*
X497147Y273552D01*
X497135Y273503D01*
X497108Y273461D01*
X497018Y273013D01*
X496912Y272569D01*
X496909Y272473D01*
X496909Y272472D01*
X496897Y272446D01*
X496873Y272401D01*
X496832Y272335D01*
X496803Y272297D01*
X470204Y245697D01*
X470164Y245668D01*
X470099Y245627D01*
X470054Y245603D01*
X470028Y245592D01*
X470027Y245591D01*
X469931Y245588D01*
X469487Y245482D01*
X469039Y245392D01*
X468997Y245365D01*
X468949Y245353D01*
X468579Y245085D01*
X468199Y244831D01*
X468171Y244789D01*
X468130Y244760D01*
X468029Y244596D01*
X467168Y244239D01*
X465761Y242832D01*
X465000Y240995D01*
Y239005D01*
X465761Y237168D01*
X467168Y235761D01*
X469005Y235000D01*
X470995D01*
X472832Y235761D01*
X474239Y237168D01*
X474596Y238029D01*
X474760Y238130D01*
X474789Y238171D01*
X474831Y238199D01*
X475085Y238578D01*
X475353Y238948D01*
X475365Y238997D01*
X475392Y239039D01*
X475482Y239487D01*
X475588Y239931D01*
X475591Y240027D01*
X475592Y240028D01*
X475603Y240054D01*
X475627Y240099D01*
X475668Y240164D01*
X475697Y240204D01*
X502296Y266803D01*
X502336Y266832D01*
X502401Y266873D01*
X502446Y266897D01*
X502472Y266908D01*
X502473Y266909D01*
X502569Y266912D01*
X503013Y267018D01*
X503461Y267108D01*
X503503Y267135D01*
X503551Y267147D01*
X503922Y267415D01*
X504301Y267669D01*
X504329Y267711D01*
X504370Y267740D01*
X504471Y267904D01*
X505332Y268261D01*
X506739Y269668D01*
X507500Y271505D01*
Y273495D01*
X506739Y275332D01*
X505332Y276739D01*
X503495Y277500D01*
D02*
G37*
G36*
X605995Y262500D02*
X604005D01*
X602168Y261739D01*
X600761Y260332D01*
X600000Y258495D01*
Y256505D01*
X600761Y254668D01*
X602168Y253261D01*
X603029Y252904D01*
X603130Y252740D01*
X603171Y252711D01*
X603199Y252669D01*
X603578Y252415D01*
X603949Y252147D01*
X603997Y252135D01*
X604039Y252108D01*
X604487Y252018D01*
X604931Y251912D01*
X605027Y251909D01*
X605028Y251908D01*
X605054Y251897D01*
X605099Y251873D01*
X605164Y251832D01*
X605204Y251803D01*
X619303Y237704D01*
X619332Y237664D01*
X619373Y237599D01*
X619397Y237554D01*
X619408Y237528D01*
X619409Y237527D01*
X619412Y237431D01*
X619518Y236987D01*
X619608Y236539D01*
X619635Y236497D01*
X619647Y236448D01*
X619915Y236079D01*
X620169Y235699D01*
X620211Y235671D01*
X620240Y235630D01*
X620404Y235529D01*
X620761Y234668D01*
X622168Y233261D01*
X624005Y232500D01*
X625995D01*
X627832Y233261D01*
X629239Y234668D01*
X630000Y236505D01*
Y238495D01*
X629239Y240332D01*
X627832Y241739D01*
X626971Y242096D01*
X626870Y242260D01*
X626829Y242289D01*
X626801Y242331D01*
X626422Y242585D01*
X626051Y242853D01*
X626003Y242865D01*
X625961Y242892D01*
X625513Y242982D01*
X625069Y243088D01*
X624973Y243091D01*
X624972Y243092D01*
X624946Y243103D01*
X624901Y243127D01*
X624836Y243168D01*
X624796Y243197D01*
X610697Y257296D01*
X610668Y257336D01*
X610627Y257401D01*
X610603Y257446D01*
X610592Y257472D01*
X610591Y257473D01*
X610588Y257569D01*
X610482Y258013D01*
X610392Y258461D01*
X610365Y258503D01*
X610353Y258552D01*
X610085Y258921D01*
X609831Y259301D01*
X609789Y259329D01*
X609760Y259370D01*
X609596Y259471D01*
X609239Y260332D01*
X607832Y261739D01*
X605995Y262500D01*
D02*
G37*
G36*
X220230Y236230D02*
X215210D01*
Y230460D01*
X220230D01*
Y236230D01*
D02*
G37*
G36*
X411040Y229040D02*
X405270D01*
Y223770D01*
X411040D01*
Y229040D01*
D02*
G37*
G36*
X402730D02*
X396960D01*
Y223770D01*
X396992D01*
X397473Y223783D01*
X397905Y223821D01*
X398286Y223884D01*
X398616Y223973D01*
X398895Y224088D01*
X399124Y224227D01*
X399302Y224392D01*
X399429Y224583D01*
X399505Y224799D01*
X399530Y225040D01*
Y223770D01*
X402730D01*
Y229040D01*
D02*
G37*
G36*
X673495Y222500D02*
X671505D01*
X670644Y222143D01*
X670456Y222188D01*
X670407Y222180D01*
X670358Y222190D01*
X669909Y222101D01*
X669458Y222029D01*
X669416Y222002D01*
X669367Y221993D01*
X668987Y221739D01*
X668597Y221500D01*
X668527Y221434D01*
X668527Y221434D01*
X668500Y221424D01*
X668451Y221409D01*
X668375Y221392D01*
X668328Y221385D01*
X604172D01*
X604124Y221392D01*
X604049Y221409D01*
X604000Y221424D01*
X603973Y221434D01*
X603973Y221434D01*
X603903Y221500D01*
X603513Y221739D01*
X603134Y221993D01*
X603084Y222002D01*
X603042Y222029D01*
X602590Y222101D01*
X602142Y222190D01*
X602093Y222180D01*
X602044Y222188D01*
X601856Y222143D01*
X600995Y222500D01*
X599005D01*
X597168Y221739D01*
X595761Y220332D01*
X595000Y218495D01*
Y216505D01*
X595761Y214668D01*
X597168Y213261D01*
X599005Y212500D01*
X600995D01*
X601856Y212857D01*
X602044Y212812D01*
X602093Y212820D01*
X602142Y212810D01*
X602591Y212899D01*
X603042Y212971D01*
X603084Y212998D01*
X603134Y213007D01*
X603513Y213261D01*
X603903Y213500D01*
X603973Y213566D01*
X603973Y213566D01*
X604000Y213576D01*
X604049Y213591D01*
X604124Y213608D01*
X604172Y213615D01*
X668328D01*
X668376Y213608D01*
X668451Y213591D01*
X668500Y213576D01*
X668527Y213566D01*
X668527Y213566D01*
X668597Y213500D01*
X668987Y213261D01*
X669367Y213007D01*
X669416Y212998D01*
X669458Y212971D01*
X669910Y212899D01*
X670358Y212810D01*
X670407Y212820D01*
X670456Y212812D01*
X670644Y212857D01*
X671505Y212500D01*
X673495D01*
X675332Y213261D01*
X676739Y214668D01*
X677500Y216505D01*
Y218495D01*
X676739Y220332D01*
X675332Y221739D01*
X673495Y222500D01*
D02*
G37*
G36*
X402730Y221230D02*
X399530D01*
Y219960D01*
X399505Y220201D01*
X399429Y220417D01*
X399302Y220608D01*
X399124Y220773D01*
X398895Y220912D01*
X398616Y221027D01*
X398286Y221116D01*
X397905Y221179D01*
X397473Y221217D01*
X396991Y221230D01*
Y221230D01*
X396960D01*
Y215960D01*
X402730D01*
Y221230D01*
D02*
G37*
G36*
X136755Y240290D02*
X134045D01*
X131428Y239589D01*
X129082Y238234D01*
X127166Y236318D01*
X125811Y233972D01*
X125110Y231355D01*
Y228645D01*
X125811Y226028D01*
X127166Y223682D01*
X129082Y221766D01*
X131428Y220411D01*
X134045Y219710D01*
X136755D01*
X139372Y220411D01*
X141718Y221766D01*
X143634Y223682D01*
X144989Y226028D01*
X145690Y228645D01*
Y231355D01*
X144989Y233972D01*
X143634Y236318D01*
X141718Y238234D01*
X139372Y239589D01*
X136755Y240290D01*
D02*
G37*
G36*
X120290D02*
X99710D01*
Y219710D01*
X120290D01*
Y240290D01*
D02*
G37*
G36*
X411040Y221230D02*
X405270D01*
Y215960D01*
X411040D01*
Y221230D01*
D02*
G37*
G36*
X220230Y219540D02*
X215210D01*
Y213770D01*
X215240D01*
D01*
X215723Y213783D01*
X216155Y213821D01*
X216536Y213884D01*
X216866Y213973D01*
X217146Y214088D01*
X217374Y214227D01*
X217552Y214392D01*
X217679Y214583D01*
X217755Y214799D01*
X217780Y215040D01*
Y213770D01*
X220230D01*
Y219540D01*
D02*
G37*
G36*
Y211230D02*
X217780D01*
Y209960D01*
X217755Y210201D01*
X217679Y210417D01*
X217552Y210608D01*
X217374Y210773D01*
X217146Y210912D01*
X216866Y211027D01*
X216536Y211116D01*
X216155Y211179D01*
X215723Y211217D01*
X215240Y211230D01*
X215210D01*
Y205460D01*
X220230D01*
Y211230D01*
D02*
G37*
G36*
X371452Y218942D02*
X369463D01*
X367625Y218181D01*
X366218Y216774D01*
X365457Y214937D01*
Y212948D01*
X366218Y211110D01*
X367625Y209703D01*
X369463Y208942D01*
X371452D01*
X373289Y209703D01*
X374696Y211110D01*
X375457Y212948D01*
Y214937D01*
X374696Y216774D01*
X373289Y218181D01*
X371452Y218942D01*
D02*
G37*
G36*
X755995Y217500D02*
X754005D01*
X752168Y216739D01*
X750761Y215332D01*
X750000Y213495D01*
Y211505D01*
X750761Y209668D01*
X752168Y208261D01*
X754005Y207500D01*
X755995D01*
X757832Y208261D01*
X759239Y209668D01*
X760000Y211505D01*
Y213495D01*
X759239Y215332D01*
X757832Y216739D01*
X755995Y217500D01*
D02*
G37*
G36*
X513872Y214125D02*
X511883D01*
X510045Y213364D01*
X508639Y211957D01*
X507877Y210120D01*
Y208131D01*
X508639Y206293D01*
X510045Y204886D01*
X511883Y204125D01*
X513872D01*
X515710Y204886D01*
X517116Y206293D01*
X517877Y208131D01*
Y210120D01*
X517116Y211957D01*
X515710Y213364D01*
X513872Y214125D01*
D02*
G37*
G36*
X954129Y236540D02*
X950871D01*
X947675Y235904D01*
X944665Y234657D01*
X941956Y232847D01*
X939653Y230544D01*
X937842Y227835D01*
X936596Y224825D01*
X935960Y221629D01*
Y218371D01*
X936596Y215175D01*
X937842Y212165D01*
X939653Y209456D01*
X941956Y207153D01*
X944665Y205342D01*
X947675Y204096D01*
X950871Y203460D01*
X954129D01*
X957325Y204096D01*
X960335Y205342D01*
X963044Y207153D01*
X965347Y209456D01*
X967158Y212165D01*
X968404Y215175D01*
X969040Y218371D01*
Y221629D01*
X968404Y224825D01*
X967158Y227835D01*
X965347Y230544D01*
X963044Y232847D01*
X960335Y234657D01*
X957325Y235904D01*
X954129Y236540D01*
D02*
G37*
G36*
X220230Y194540D02*
X215210D01*
Y188770D01*
X220230D01*
Y194540D01*
D02*
G37*
G36*
X263495Y227500D02*
X261505D01*
X259668Y226739D01*
X258261Y225332D01*
X257500Y223495D01*
Y221505D01*
X257586Y221298D01*
X257546Y221199D01*
X257546Y221158D01*
X257532Y221120D01*
X257550Y220655D01*
X257554Y220188D01*
X257570Y220151D01*
X257571Y220110D01*
X257766Y219687D01*
X257948Y219258D01*
X258017Y219156D01*
X258030Y219133D01*
X258048Y219095D01*
X258069Y219040D01*
X258092Y218965D01*
X258115Y218869D01*
X258130Y218783D01*
X258145Y218633D01*
Y218388D01*
X234988Y195232D01*
X234884Y195143D01*
X234658Y194974D01*
X234451Y194839D01*
X234266Y194738D01*
X234103Y194664D01*
X233962Y194615D01*
X233838Y194584D01*
X233729Y194568D01*
X233498Y194556D01*
X233434Y194540D01*
X222770D01*
Y187500D01*
Y184173D01*
X225219Y186623D01*
X225238Y186263D01*
X225291Y185904D01*
X225381Y185545D01*
X225507Y185186D01*
X225669Y184827D01*
X225866Y184467D01*
X226100Y184108D01*
X226369Y183749D01*
X226674Y183390D01*
X227016Y183030D01*
X225219Y181234D01*
X224860Y181576D01*
X224501Y181881D01*
X224142Y182150D01*
X223783Y182384D01*
X223424Y182582D01*
X223064Y182743D01*
X222770Y182846D01*
Y180460D01*
X239790D01*
Y188184D01*
X239806Y188248D01*
X239818Y188479D01*
X239834Y188588D01*
X239865Y188712D01*
X239914Y188853D01*
X239988Y189016D01*
X240089Y189201D01*
X240223Y189408D01*
X240393Y189634D01*
X240482Y189739D01*
X264776Y214032D01*
X265618Y215293D01*
X265914Y216779D01*
Y218102D01*
X266142Y218373D01*
X266445Y218701D01*
X266467Y218758D01*
X266506Y218804D01*
X266641Y219230D01*
X266796Y219648D01*
X266793Y219709D01*
X266812Y219767D01*
X266806Y219831D01*
X267500Y221505D01*
Y223495D01*
X266739Y225332D01*
X265332Y226739D01*
X263495Y227500D01*
D02*
G37*
G36*
X220230Y186230D02*
X215210D01*
Y180460D01*
X220230D01*
Y186230D01*
D02*
G37*
G36*
X136755Y200290D02*
X134045D01*
X131428Y199589D01*
X129082Y198234D01*
X127166Y196318D01*
X125811Y193972D01*
X125110Y191355D01*
Y188645D01*
X125811Y186028D01*
X127166Y183682D01*
X129082Y181766D01*
X131428Y180411D01*
X134045Y179710D01*
X136755D01*
X139372Y180411D01*
X141718Y181766D01*
X143634Y183682D01*
X144989Y186028D01*
X145690Y188645D01*
Y191355D01*
X144989Y193972D01*
X143634Y196318D01*
X141718Y198234D01*
X139372Y199589D01*
X136755Y200290D01*
D02*
G37*
G36*
X120290D02*
X99710D01*
Y179710D01*
X120290D01*
Y200290D01*
D02*
G37*
G36*
X934000Y185105D02*
X931270D01*
Y178770D01*
X941438D01*
X941346Y179468D01*
X940586Y181303D01*
X939378Y182878D01*
X937803Y184086D01*
X935968Y184846D01*
X934000Y185105D01*
D02*
G37*
G36*
X928730D02*
X926000D01*
X924032Y184846D01*
X922197Y184086D01*
X920622Y182878D01*
X919414Y181303D01*
X918654Y179468D01*
X918562Y178770D01*
X928730D01*
Y185105D01*
D02*
G37*
G36*
X976000D02*
X971270D01*
Y178770D01*
X983438D01*
X983346Y179468D01*
X982586Y181303D01*
X981378Y182878D01*
X979802Y184086D01*
X977968Y184846D01*
X976000Y185105D01*
D02*
G37*
G36*
X968730D02*
X964000D01*
X962032Y184846D01*
X960197Y184086D01*
X958622Y182878D01*
X957414Y181303D01*
X956654Y179468D01*
X956562Y178770D01*
X968730D01*
Y185105D01*
D02*
G37*
G36*
X983438Y176230D02*
X971270D01*
Y169895D01*
X976000D01*
X977968Y170154D01*
X979802Y170914D01*
X981378Y172122D01*
X982586Y173697D01*
X983346Y175532D01*
X983438Y176230D01*
D02*
G37*
G36*
X968730D02*
X956562D01*
X956654Y175532D01*
X957414Y173697D01*
X958622Y172122D01*
X960197Y170914D01*
X962032Y170154D01*
X964000Y169895D01*
X968730D01*
Y176230D01*
D02*
G37*
G36*
X941438Y176230D02*
X931270D01*
Y169895D01*
X934000D01*
X935968Y170154D01*
X937803Y170914D01*
X939378Y172122D01*
X940586Y173697D01*
X941346Y175532D01*
X941438Y176230D01*
D02*
G37*
G36*
X928730D02*
X918562D01*
X918654Y175532D01*
X919414Y173697D01*
X920622Y172122D01*
X922197Y170914D01*
X924032Y170154D01*
X926000Y169895D01*
X928730D01*
Y176230D01*
D02*
G37*
G36*
X220230Y169540D02*
X215210D01*
Y163770D01*
X220230D01*
Y169540D01*
D02*
G37*
G36*
X385995Y182500D02*
X384005D01*
X382168Y181739D01*
X380761Y180332D01*
X380000Y178495D01*
Y176505D01*
X380761Y174668D01*
X381929Y173500D01*
X381591Y172500D01*
X381505D01*
X379668Y171739D01*
X378261Y170332D01*
X377500Y168495D01*
Y166505D01*
X378261Y164668D01*
X379668Y163261D01*
X381505Y162500D01*
X383495D01*
X385332Y163261D01*
X386739Y164668D01*
X387500Y166505D01*
Y168495D01*
X386739Y170332D01*
X385571Y171500D01*
X385909Y172500D01*
X385995D01*
X387832Y173261D01*
X389239Y174668D01*
X390000Y176505D01*
Y178495D01*
X389239Y180332D01*
X387832Y181739D01*
X385995Y182500D01*
D02*
G37*
G36*
X263495Y202500D02*
X261505D01*
X259668Y201739D01*
X258261Y200332D01*
X257500Y198495D01*
Y196505D01*
X257586Y196298D01*
X257546Y196199D01*
X257546Y196158D01*
X257532Y196120D01*
X257550Y195655D01*
X257554Y195188D01*
X257570Y195151D01*
X257571Y195110D01*
X257766Y194687D01*
X257948Y194258D01*
X258017Y194156D01*
X258030Y194133D01*
X258048Y194095D01*
X258069Y194040D01*
X258092Y193965D01*
X258115Y193869D01*
X258130Y193783D01*
X258145Y193633D01*
Y193388D01*
X234988Y170232D01*
X234884Y170143D01*
X234658Y169974D01*
X234451Y169839D01*
X234266Y169738D01*
X234103Y169664D01*
X233962Y169615D01*
X233838Y169584D01*
X233729Y169568D01*
X233498Y169556D01*
X233434Y169540D01*
X222770D01*
Y162500D01*
Y159173D01*
X225219Y161623D01*
X225238Y161263D01*
X225291Y160904D01*
X225381Y160545D01*
X225507Y160186D01*
X225669Y159827D01*
X225866Y159467D01*
X226100Y159108D01*
X226369Y158749D01*
X226674Y158390D01*
X227016Y158031D01*
X225219Y156234D01*
X224860Y156576D01*
X224501Y156881D01*
X224142Y157150D01*
X223783Y157384D01*
X223424Y157582D01*
X223064Y157743D01*
X222770Y157846D01*
Y155460D01*
X239790D01*
Y163184D01*
X239806Y163248D01*
X239818Y163479D01*
X239834Y163588D01*
X239865Y163712D01*
X239914Y163853D01*
X239988Y164016D01*
X240089Y164201D01*
X240223Y164408D01*
X240393Y164634D01*
X240482Y164739D01*
X264776Y189032D01*
X265618Y190293D01*
X265914Y191779D01*
Y193102D01*
X266142Y193373D01*
X266445Y193701D01*
X266467Y193758D01*
X266506Y193804D01*
X266641Y194230D01*
X266796Y194648D01*
X266793Y194709D01*
X266812Y194767D01*
X266806Y194831D01*
X267500Y196505D01*
Y198495D01*
X266739Y200332D01*
X265332Y201739D01*
X263495Y202500D01*
D02*
G37*
G36*
X220230Y161230D02*
X215210D01*
Y155460D01*
X220230D01*
Y161230D01*
D02*
G37*
G36*
X565994Y157500D02*
X564005D01*
X562168Y156739D01*
X560761Y155332D01*
X560000Y153495D01*
Y151505D01*
X560761Y149668D01*
X562168Y148261D01*
X564005Y147500D01*
X565994D01*
X567832Y148261D01*
X569239Y149668D01*
X570000Y151505D01*
Y153495D01*
X569239Y155332D01*
X567832Y156739D01*
X565994Y157500D01*
D02*
G37*
G36*
X263495Y142500D02*
X261505D01*
X259831Y141806D01*
X259768Y141812D01*
X259709Y141793D01*
X259648Y141796D01*
X259230Y141641D01*
X258804Y141506D01*
X258758Y141467D01*
X258701Y141445D01*
X258373Y141142D01*
X258102Y140914D01*
X257279D01*
X255793Y140618D01*
X254532Y139776D01*
X234988Y120232D01*
X234884Y120143D01*
X234658Y119974D01*
X234451Y119839D01*
X234266Y119738D01*
X234103Y119664D01*
X233962Y119615D01*
X233838Y119584D01*
X233729Y119568D01*
X233498Y119556D01*
X233434Y119540D01*
X222770D01*
Y112500D01*
Y105460D01*
X239790D01*
Y113184D01*
X239806Y113248D01*
X239818Y113479D01*
X239834Y113588D01*
X239865Y113712D01*
X239914Y113853D01*
X239988Y114016D01*
X240089Y114201D01*
X240223Y114408D01*
X240393Y114634D01*
X240482Y114739D01*
X258861Y133117D01*
X258869Y133115D01*
X258965Y133092D01*
X259040Y133069D01*
X259095Y133048D01*
X259133Y133031D01*
X259156Y133017D01*
X259258Y132948D01*
X259687Y132766D01*
X260110Y132571D01*
X260151Y132570D01*
X260188Y132554D01*
X260654Y132550D01*
X261120Y132532D01*
X261158Y132546D01*
X261199Y132546D01*
X261298Y132586D01*
X261505Y132500D01*
X263495D01*
X265332Y133261D01*
X266739Y134668D01*
X267500Y136505D01*
Y138495D01*
X266739Y140332D01*
X265332Y141739D01*
X263495Y142500D01*
D02*
G37*
G36*
X345995Y150000D02*
X344005D01*
X342168Y149239D01*
X340761Y147832D01*
X340000Y145995D01*
Y144005D01*
X340761Y142168D01*
X342168Y140761D01*
X344005Y140000D01*
X345995D01*
X347832Y140761D01*
X349239Y142168D01*
X350000Y144005D01*
Y145995D01*
X349239Y147832D01*
X347832Y149239D01*
X345995Y150000D01*
D02*
G37*
G36*
X136755Y160290D02*
X134045D01*
X131428Y159589D01*
X129082Y158234D01*
X127166Y156318D01*
X125811Y153972D01*
X125110Y151355D01*
Y148645D01*
X125811Y146028D01*
X127166Y143682D01*
X129082Y141766D01*
X131428Y140411D01*
X134045Y139710D01*
X136755D01*
X139372Y140411D01*
X141718Y141766D01*
X143634Y143682D01*
X144989Y146028D01*
X145690Y148645D01*
Y151355D01*
X144989Y153972D01*
X143634Y156318D01*
X141718Y158234D01*
X139372Y159589D01*
X136755Y160290D01*
D02*
G37*
G36*
X120290D02*
X99710D01*
Y139710D01*
X120290D01*
Y160290D01*
D02*
G37*
G36*
X220230Y144540D02*
X215210D01*
Y138770D01*
X220230D01*
Y144540D01*
D02*
G37*
G36*
X263495Y177500D02*
X261505D01*
X259668Y176739D01*
X258261Y175332D01*
X257500Y173495D01*
Y171505D01*
X257586Y171298D01*
X257546Y171199D01*
X257546Y171158D01*
X257532Y171120D01*
X257550Y170655D01*
X257554Y170188D01*
X257570Y170151D01*
X257571Y170110D01*
X257766Y169687D01*
X257948Y169258D01*
X258017Y169156D01*
X258030Y169133D01*
X258048Y169095D01*
X258069Y169040D01*
X258092Y168965D01*
X258115Y168869D01*
X258130Y168783D01*
X258145Y168633D01*
Y168388D01*
X234988Y145232D01*
X234884Y145143D01*
X234658Y144974D01*
X234451Y144839D01*
X234266Y144738D01*
X234103Y144664D01*
X233962Y144615D01*
X233838Y144584D01*
X233729Y144568D01*
X233498Y144556D01*
X233434Y144540D01*
X222770D01*
Y137500D01*
Y134173D01*
X225219Y136623D01*
X225238Y136263D01*
X225291Y135904D01*
X225381Y135545D01*
X225507Y135186D01*
X225669Y134827D01*
X225866Y134467D01*
X226100Y134108D01*
X226369Y133749D01*
X226674Y133390D01*
X227016Y133031D01*
X225219Y131234D01*
X224860Y131576D01*
X224501Y131881D01*
X224142Y132150D01*
X223783Y132384D01*
X223424Y132582D01*
X223064Y132743D01*
X222770Y132846D01*
Y130460D01*
X239790D01*
Y138184D01*
X239806Y138248D01*
X239818Y138479D01*
X239834Y138588D01*
X239865Y138712D01*
X239914Y138853D01*
X239988Y139016D01*
X240089Y139201D01*
X240223Y139408D01*
X240393Y139634D01*
X240482Y139739D01*
X264776Y164032D01*
X265618Y165293D01*
X265914Y166779D01*
Y168102D01*
X266142Y168373D01*
X266445Y168701D01*
X266467Y168758D01*
X266506Y168804D01*
X266641Y169230D01*
X266796Y169648D01*
X266793Y169709D01*
X266812Y169767D01*
X266806Y169831D01*
X267500Y171505D01*
Y173495D01*
X266739Y175332D01*
X265332Y176739D01*
X263495Y177500D01*
D02*
G37*
G36*
X220230Y136230D02*
X215210D01*
Y130460D01*
X220230D01*
Y136230D01*
D02*
G37*
G36*
X560995Y177500D02*
X559005D01*
X557168Y176739D01*
X555761Y175332D01*
X555000Y173495D01*
Y171505D01*
X555761Y169668D01*
X557168Y168261D01*
X559005Y167500D01*
X560995D01*
X561856Y167857D01*
X562044Y167812D01*
X562093Y167820D01*
X562142Y167810D01*
X562591Y167899D01*
X563042Y167971D01*
X563084Y167998D01*
X563134Y168007D01*
X563513Y168261D01*
X563903Y168500D01*
X563973Y168566D01*
X563973Y168566D01*
X564000Y168576D01*
X564049Y168591D01*
X564124Y168608D01*
X564172Y168615D01*
X578391D01*
X596003Y151003D01*
X597263Y150161D01*
X598750Y149865D01*
X732141D01*
X746803Y135204D01*
X746832Y135164D01*
X746873Y135099D01*
X746897Y135054D01*
X746908Y135028D01*
X746909Y135027D01*
X746912Y134931D01*
X747018Y134487D01*
X747107Y134039D01*
X747135Y133997D01*
X747147Y133948D01*
X747415Y133579D01*
X747669Y133199D01*
X747711Y133171D01*
X747740Y133130D01*
X747904Y133029D01*
X748261Y132168D01*
X749668Y130761D01*
X751505Y130000D01*
X753495D01*
X755332Y130761D01*
X756739Y132168D01*
X757500Y134005D01*
Y135995D01*
X756739Y137832D01*
X755332Y139239D01*
X754471Y139596D01*
X754370Y139760D01*
X754329Y139789D01*
X754301Y139831D01*
X753922Y140085D01*
X753551Y140353D01*
X753503Y140365D01*
X753461Y140393D01*
X753013Y140482D01*
X752569Y140588D01*
X752473Y140591D01*
X752472Y140591D01*
X752446Y140603D01*
X752401Y140627D01*
X752336Y140668D01*
X752296Y140697D01*
X736497Y156497D01*
X735237Y157339D01*
X733750Y157635D01*
X600359D01*
X582747Y175247D01*
X581487Y176089D01*
X580000Y176385D01*
X564172D01*
X564124Y176392D01*
X564049Y176409D01*
X564000Y176424D01*
X563973Y176434D01*
X563973Y176434D01*
X563903Y176500D01*
X563513Y176739D01*
X563134Y176993D01*
X563084Y177002D01*
X563042Y177029D01*
X562590Y177101D01*
X562142Y177190D01*
X562093Y177180D01*
X562044Y177188D01*
X561856Y177143D01*
X560995Y177500D01*
D02*
G37*
G36*
X220230Y119540D02*
X215210D01*
Y113770D01*
X215240D01*
D01*
X215723Y113783D01*
X216155Y113821D01*
X216536Y113884D01*
X216866Y113973D01*
X217146Y114087D01*
X217374Y114227D01*
X217552Y114392D01*
X217679Y114583D01*
X217755Y114799D01*
X217780Y115040D01*
Y113770D01*
X220230D01*
Y119540D01*
D02*
G37*
G36*
Y111230D02*
X217780D01*
Y109960D01*
X217755Y110201D01*
X217679Y110417D01*
X217552Y110608D01*
X217374Y110773D01*
X217146Y110913D01*
X216866Y111027D01*
X216536Y111116D01*
X216155Y111179D01*
X215723Y111217D01*
X215240Y111230D01*
X215210D01*
Y105460D01*
X220230D01*
Y111230D01*
D02*
G37*
G36*
X689270Y104970D02*
Y100770D01*
X693470D01*
X692697Y102638D01*
X691138Y104197D01*
X689270Y104970D01*
D02*
G37*
G36*
X703270Y104970D02*
Y100770D01*
X707470D01*
X706697Y102638D01*
X705138Y104197D01*
X703270Y104970D01*
D02*
G37*
G36*
X700730D02*
X698862Y104197D01*
X697303Y102638D01*
X696530Y100770D01*
X700730D01*
Y104970D01*
D02*
G37*
G36*
X686730Y104970D02*
X684862Y104197D01*
X683303Y102638D01*
X682530Y100770D01*
X686730D01*
Y104970D01*
D02*
G37*
G36*
X485995Y110000D02*
X484005D01*
X482168Y109239D01*
X480761Y107832D01*
X480000Y105995D01*
Y104005D01*
X480761Y102168D01*
X482168Y100761D01*
X484005Y100000D01*
X485995D01*
X487832Y100761D01*
X489239Y102168D01*
X490000Y104005D01*
Y105995D01*
X489239Y107832D01*
X487832Y109239D01*
X485995Y110000D01*
D02*
G37*
G36*
X473495D02*
X471505D01*
X469668Y109239D01*
X468261Y107832D01*
X467500Y105995D01*
Y104005D01*
X468261Y102168D01*
X469668Y100761D01*
X471505Y100000D01*
X473495D01*
X475332Y100761D01*
X476739Y102168D01*
X477500Y104005D01*
Y105995D01*
X476739Y107832D01*
X475332Y109239D01*
X473495Y110000D01*
D02*
G37*
G36*
X448495D02*
X446505D01*
X444668Y109239D01*
X443261Y107832D01*
X442500Y105995D01*
Y104005D01*
X443261Y102168D01*
X444668Y100761D01*
X446505Y100000D01*
X448495D01*
X450332Y100761D01*
X451739Y102168D01*
X452500Y104005D01*
Y105995D01*
X451739Y107832D01*
X450332Y109239D01*
X448495Y110000D01*
D02*
G37*
G36*
X423495D02*
X421505D01*
X419668Y109239D01*
X418261Y107832D01*
X417500Y105995D01*
Y104005D01*
X418261Y102168D01*
X419668Y100761D01*
X421505Y100000D01*
X423495D01*
X425332Y100761D01*
X426739Y102168D01*
X427500Y104005D01*
Y105995D01*
X426739Y107832D01*
X425332Y109239D01*
X423495Y110000D01*
D02*
G37*
G36*
X405995D02*
X404005D01*
X402168Y109239D01*
X400761Y107832D01*
X400000Y105995D01*
Y104005D01*
X400761Y102168D01*
X402168Y100761D01*
X404005Y100000D01*
X405995D01*
X407832Y100761D01*
X409239Y102168D01*
X410000Y104005D01*
Y105995D01*
X409239Y107832D01*
X407832Y109239D01*
X405995Y110000D01*
D02*
G37*
G36*
X373495D02*
X371505D01*
X369668Y109239D01*
X368261Y107832D01*
X367500Y105995D01*
Y104005D01*
X368261Y102168D01*
X369668Y100761D01*
X371505Y100000D01*
X373495D01*
X375332Y100761D01*
X376739Y102168D01*
X377500Y104005D01*
Y105995D01*
X376739Y107832D01*
X375332Y109239D01*
X373495Y110000D01*
D02*
G37*
G36*
X136755Y120290D02*
X134045D01*
X131428Y119589D01*
X129082Y118234D01*
X127166Y116318D01*
X125811Y113972D01*
X125110Y111355D01*
Y108645D01*
X125811Y106028D01*
X127166Y103682D01*
X129082Y101766D01*
X131428Y100411D01*
X134045Y99710D01*
X136755D01*
X139372Y100411D01*
X141718Y101766D01*
X143634Y103682D01*
X144989Y106028D01*
X145690Y108645D01*
Y111355D01*
X144989Y113972D01*
X143634Y116318D01*
X141718Y118234D01*
X139372Y119589D01*
X136755Y120290D01*
D02*
G37*
G36*
X120290D02*
X99710D01*
Y99710D01*
X120290D01*
Y120290D01*
D02*
G37*
G36*
X263495Y117500D02*
X261505D01*
X259668Y116739D01*
X258261Y115332D01*
X257904Y114471D01*
X257740Y114370D01*
X257711Y114329D01*
X257669Y114301D01*
X257415Y113922D01*
X257147Y113552D01*
X257135Y113503D01*
X257108Y113461D01*
X257018Y113013D01*
X256912Y112569D01*
X256909Y112473D01*
X256908Y112472D01*
X256897Y112446D01*
X256873Y112401D01*
X256832Y112336D01*
X256803Y112296D01*
X243391Y98885D01*
X239790D01*
Y102040D01*
X222770D01*
Y95000D01*
Y87960D01*
X239790D01*
Y91115D01*
X245000D01*
X246487Y91411D01*
X247747Y92253D01*
X262296Y106803D01*
X262336Y106832D01*
X262401Y106873D01*
X262446Y106897D01*
X262472Y106909D01*
X262473Y106909D01*
X262569Y106912D01*
X263013Y107018D01*
X263461Y107107D01*
X263503Y107135D01*
X263552Y107147D01*
X263921Y107415D01*
X264301Y107669D01*
X264329Y107711D01*
X264370Y107740D01*
X264471Y107904D01*
X265332Y108261D01*
X266739Y109668D01*
X267500Y111505D01*
Y113495D01*
X266739Y115332D01*
X265332Y116739D01*
X263495Y117500D01*
D02*
G37*
G36*
X220230Y102040D02*
X215210D01*
Y96270D01*
X215240D01*
Y96622D01*
X215723Y96635D01*
X216155Y96673D01*
X216536Y96737D01*
X216866Y96826D01*
X217146Y96940D01*
X217374Y97080D01*
X217552Y97245D01*
X217679Y97435D01*
X217755Y97651D01*
X217780Y97892D01*
Y96270D01*
X220230D01*
Y102040D01*
D02*
G37*
G36*
X710270Y97970D02*
Y93770D01*
X714470D01*
X713697Y95638D01*
X712138Y97197D01*
X710270Y97970D01*
D02*
G37*
G36*
X679730Y97970D02*
X677862Y97197D01*
X676303Y95638D01*
X675530Y93770D01*
X679730D01*
Y97970D01*
D02*
G37*
G36*
X220230Y93730D02*
X217780D01*
Y92812D01*
X217755Y93054D01*
X217679Y93270D01*
X217552Y93460D01*
X217374Y93625D01*
X217203Y93730D01*
X215210D01*
Y87960D01*
X220230D01*
Y93730D01*
D02*
G37*
G36*
X934000Y98705D02*
X931270D01*
Y92370D01*
X941438D01*
X941346Y93068D01*
X940586Y94903D01*
X939378Y96478D01*
X937803Y97686D01*
X935968Y98446D01*
X934000Y98705D01*
D02*
G37*
G36*
X928730D02*
X926000D01*
X924032Y98446D01*
X922197Y97686D01*
X920622Y96478D01*
X919414Y94903D01*
X918654Y93068D01*
X918562Y92370D01*
X928730D01*
Y98705D01*
D02*
G37*
G36*
X976000D02*
X971270D01*
Y92370D01*
X983438D01*
X983346Y93068D01*
X982586Y94903D01*
X981378Y96478D01*
X979802Y97686D01*
X977968Y98446D01*
X976000Y98705D01*
D02*
G37*
G36*
X968730D02*
X964000D01*
X962032Y98446D01*
X960197Y97686D01*
X958622Y96478D01*
X957414Y94903D01*
X956654Y93068D01*
X956562Y92370D01*
X968730D01*
Y98705D01*
D02*
G37*
G36*
X679730Y91230D02*
X675530D01*
X676303Y89362D01*
X677862Y87803D01*
X679730Y87030D01*
Y91230D01*
D02*
G37*
G36*
X714470D02*
X710270D01*
Y87029D01*
X712138Y87803D01*
X713697Y89362D01*
X714470Y91230D01*
D02*
G37*
G36*
X983438Y89830D02*
X971270D01*
Y83495D01*
X976000D01*
X977968Y83754D01*
X979802Y84514D01*
X981378Y85722D01*
X982586Y87297D01*
X983346Y89132D01*
X983438Y89830D01*
D02*
G37*
G36*
X968730D02*
X956562D01*
X956654Y89132D01*
X957414Y87297D01*
X958622Y85722D01*
X960197Y84514D01*
X962032Y83754D01*
X964000Y83495D01*
X968730D01*
Y89830D01*
D02*
G37*
G36*
X941438Y89830D02*
X931270D01*
Y83495D01*
X934000D01*
X935968Y83754D01*
X937803Y84514D01*
X939378Y85722D01*
X940586Y87297D01*
X941346Y89132D01*
X941438Y89830D01*
D02*
G37*
G36*
X928730D02*
X918562D01*
X918654Y89132D01*
X919414Y87297D01*
X920622Y85722D01*
X922197Y84514D01*
X924032Y83754D01*
X926000Y83495D01*
X928730D01*
Y89830D01*
D02*
G37*
G36*
X263555Y93179D02*
X261566D01*
X259728Y92418D01*
X258322Y91011D01*
X257965Y90149D01*
X257801Y90049D01*
X257771Y90008D01*
X257729Y89980D01*
X257476Y89600D01*
X257208Y89230D01*
X257196Y89182D01*
X257168Y89140D01*
X257079Y88692D01*
X256973Y88247D01*
X256969Y88152D01*
X256969Y88151D01*
X256958Y88125D01*
X256933Y88080D01*
X256892Y88015D01*
X256863Y87975D01*
X250273Y81385D01*
X239790D01*
Y84540D01*
X222770D01*
Y77500D01*
Y70460D01*
X239790D01*
Y73615D01*
X251882D01*
X253368Y73911D01*
X254629Y74753D01*
X256214Y76339D01*
X256596Y76200D01*
X257072Y75782D01*
X257018Y75513D01*
X256912Y75069D01*
X256909Y74973D01*
X256908Y74972D01*
X256897Y74946D01*
X256873Y74901D01*
X256832Y74836D01*
X256803Y74796D01*
X248391Y66385D01*
X206672D01*
X206624Y66392D01*
X206549Y66409D01*
X206500Y66424D01*
X206473Y66434D01*
X206473Y66434D01*
X206403Y66500D01*
X206013Y66739D01*
X205634Y66993D01*
X205584Y67002D01*
X205542Y67029D01*
X205090Y67101D01*
X204642Y67190D01*
X204593Y67180D01*
X204544Y67188D01*
X204356Y67143D01*
X203495Y67500D01*
X201505D01*
X199668Y66739D01*
X198261Y65332D01*
X197500Y63495D01*
Y61505D01*
X198261Y59668D01*
X199668Y58261D01*
X201505Y57500D01*
X203495D01*
X204356Y57857D01*
X204544Y57812D01*
X204593Y57820D01*
X204642Y57810D01*
X205091Y57899D01*
X205542Y57971D01*
X205584Y57998D01*
X205634Y58007D01*
X206014Y58261D01*
X206403Y58500D01*
X206473Y58566D01*
X206473Y58566D01*
X206500Y58576D01*
X206549Y58591D01*
X206625Y58608D01*
X206672Y58615D01*
X247237D01*
X247540Y57615D01*
X247032Y57276D01*
X234988Y45232D01*
X234884Y45143D01*
X234658Y44974D01*
X234451Y44839D01*
X234266Y44738D01*
X234103Y44664D01*
X233962Y44615D01*
X233838Y44584D01*
X233729Y44568D01*
X233498Y44556D01*
X233434Y44540D01*
X222770D01*
Y37500D01*
Y30460D01*
X239790D01*
Y38184D01*
X239806Y38248D01*
X239818Y38479D01*
X239834Y38588D01*
X239865Y38712D01*
X239914Y38853D01*
X239988Y39016D01*
X240089Y39201D01*
X240223Y39407D01*
X240393Y39634D01*
X240482Y39739D01*
X251361Y50617D01*
X251369Y50615D01*
X251465Y50592D01*
X251540Y50569D01*
X251595Y50548D01*
X251633Y50531D01*
X251656Y50517D01*
X251758Y50448D01*
X252187Y50266D01*
X252610Y50071D01*
X252651Y50070D01*
X252688Y50054D01*
X253154Y50050D01*
X253620Y50032D01*
X253658Y50046D01*
X253699Y50046D01*
X253798Y50086D01*
X254005Y50000D01*
X255995D01*
X257832Y50761D01*
X259239Y52168D01*
X260000Y54005D01*
Y55995D01*
X259239Y57832D01*
X257832Y59239D01*
X255995Y60000D01*
X254408D01*
X253985Y60992D01*
X262296Y69303D01*
X262336Y69332D01*
X262401Y69373D01*
X262446Y69397D01*
X262472Y69408D01*
X262473Y69409D01*
X262569Y69412D01*
X263013Y69518D01*
X263461Y69608D01*
X263503Y69635D01*
X263552Y69647D01*
X263921Y69915D01*
X264301Y70169D01*
X264329Y70211D01*
X264370Y70240D01*
X264471Y70404D01*
X265332Y70761D01*
X266739Y72168D01*
X267500Y74005D01*
Y75995D01*
X266739Y77832D01*
X265332Y79239D01*
X263495Y80000D01*
X261505D01*
X261137Y79847D01*
X260571Y80695D01*
X262357Y82482D01*
X262396Y82511D01*
X262461Y82552D01*
X262507Y82576D01*
X262533Y82587D01*
X262533Y82587D01*
X262629Y82591D01*
X263073Y82697D01*
X263522Y82786D01*
X263563Y82814D01*
X263612Y82826D01*
X263982Y83094D01*
X264362Y83348D01*
X264390Y83389D01*
X264430Y83419D01*
X264531Y83583D01*
X265393Y83940D01*
X266799Y85347D01*
X267561Y87184D01*
Y89173D01*
X266799Y91011D01*
X265393Y92418D01*
X263555Y93179D01*
D02*
G37*
G36*
X710270Y83970D02*
Y79770D01*
X714470D01*
X713697Y81638D01*
X712138Y83197D01*
X710270Y83970D01*
D02*
G37*
G36*
X679730Y83970D02*
X677862Y83197D01*
X676303Y81638D01*
X675530Y79770D01*
X679730D01*
Y83970D01*
D02*
G37*
G36*
X220230Y84540D02*
X215210D01*
Y78770D01*
X215240D01*
Y81270D01*
X215723Y81277D01*
X216536Y81333D01*
X216866Y81382D01*
X217146Y81445D01*
X217374Y81522D01*
X217552Y81613D01*
X217679Y81718D01*
X217755Y81837D01*
X217780Y81969D01*
Y78770D01*
X220230D01*
Y84540D01*
D02*
G37*
G36*
X679730Y77230D02*
X675530D01*
X676303Y75362D01*
X677862Y73803D01*
X679730Y73030D01*
Y77230D01*
D02*
G37*
G36*
X714470D02*
X710270D01*
Y73029D01*
X712138Y73803D01*
X713697Y75362D01*
X714470Y77230D01*
D02*
G37*
G36*
X693730Y98230D02*
X688000D01*
X682270D01*
Y92500D01*
Y86770D01*
X688000D01*
Y84230D01*
X682270D01*
Y78500D01*
Y72770D01*
X688000D01*
X693730D01*
Y78500D01*
X696270D01*
Y72770D01*
X702000D01*
X707730D01*
Y78500D01*
Y84230D01*
X702000D01*
Y86770D01*
X707730D01*
Y92500D01*
Y98230D01*
X702000D01*
X696270D01*
Y92500D01*
X693730D01*
Y98230D01*
D02*
G37*
G36*
X220230Y76230D02*
X215210D01*
Y70460D01*
X220230D01*
Y76230D01*
D02*
G37*
G36*
X693470Y70230D02*
X689270D01*
Y66030D01*
X691138Y66803D01*
X692697Y68362D01*
X693470Y70230D01*
D02*
G37*
G36*
X707470D02*
X703270D01*
Y66030D01*
X705138Y66803D01*
X706697Y68362D01*
X707470Y70230D01*
D02*
G37*
G36*
X700730D02*
X696530D01*
X697303Y68362D01*
X698862Y66803D01*
X700730Y66030D01*
Y70230D01*
D02*
G37*
G36*
X686730D02*
X682530D01*
X683303Y68362D01*
X684862Y66803D01*
X686730Y66030D01*
Y70230D01*
D02*
G37*
G36*
X869495Y72500D02*
X867505D01*
X865668Y71739D01*
X864261Y70332D01*
X863500Y68495D01*
Y66505D01*
X864261Y64668D01*
X865668Y63261D01*
X867505Y62500D01*
X869495D01*
X871332Y63261D01*
X872739Y64668D01*
X873500Y66505D01*
Y68495D01*
X872739Y70332D01*
X871332Y71739D01*
X869495Y72500D01*
D02*
G37*
G36*
X136755Y80290D02*
X134045D01*
X131428Y79589D01*
X129082Y78234D01*
X127166Y76318D01*
X125811Y73972D01*
X125110Y71355D01*
Y68645D01*
X125811Y66028D01*
X127166Y63682D01*
X129082Y61766D01*
X131428Y60411D01*
X134045Y59710D01*
X136755D01*
X139372Y60411D01*
X141718Y61766D01*
X143634Y63682D01*
X144989Y66028D01*
X145690Y68645D01*
Y71355D01*
X144989Y73972D01*
X143634Y76318D01*
X141718Y78234D01*
X139372Y79589D01*
X136755Y80290D01*
D02*
G37*
G36*
X120290D02*
X99710D01*
Y59710D01*
X120290D01*
Y80290D01*
D02*
G37*
G36*
X490555Y47790D02*
X490470D01*
Y38770D01*
X499490D01*
Y38855D01*
X498789Y41472D01*
X497434Y43818D01*
X495518Y45734D01*
X493172Y47089D01*
X490555Y47790D01*
D02*
G37*
G36*
X220230Y44540D02*
X215210D01*
Y38770D01*
X215240D01*
D01*
X215723Y38783D01*
X216155Y38821D01*
X216536Y38884D01*
X216866Y38973D01*
X217146Y39088D01*
X217374Y39227D01*
X217552Y39392D01*
X217679Y39583D01*
X217755Y39799D01*
X217780Y40040D01*
Y38770D01*
X220230D01*
Y44540D01*
D02*
G37*
G36*
X487930Y47790D02*
X487845D01*
X485228Y47089D01*
X482882Y45734D01*
X480966Y43818D01*
X479611Y41472D01*
X478910Y38855D01*
Y38770D01*
X487930D01*
Y47790D01*
D02*
G37*
G36*
X220230Y36230D02*
X217780D01*
Y34960D01*
X217755Y35201D01*
X217679Y35417D01*
X217552Y35608D01*
X217374Y35773D01*
X217146Y35912D01*
X216866Y36027D01*
X216536Y36116D01*
X216155Y36179D01*
X215723Y36217D01*
X215240Y36230D01*
X215210D01*
Y30460D01*
X220230D01*
Y36230D01*
D02*
G37*
G36*
X835995Y37500D02*
X834005D01*
X832168Y36739D01*
X830761Y35332D01*
X830000Y33495D01*
Y31505D01*
X830761Y29668D01*
X832168Y28261D01*
X834005Y27500D01*
X835995D01*
X837832Y28261D01*
X839239Y29668D01*
X840000Y31505D01*
Y33495D01*
X839239Y35332D01*
X837832Y36739D01*
X835995Y37500D01*
D02*
G37*
G36*
X550290Y47790D02*
X529710D01*
Y27210D01*
X550290D01*
Y47790D01*
D02*
G37*
G36*
X515955D02*
X513245D01*
X510628Y47089D01*
X508282Y45734D01*
X506366Y43818D01*
X505011Y41472D01*
X504310Y38855D01*
Y36145D01*
X505011Y33528D01*
X506366Y31182D01*
X508282Y29266D01*
X510628Y27911D01*
X513245Y27210D01*
X515955D01*
X518572Y27911D01*
X520918Y29266D01*
X522834Y31182D01*
X524189Y33528D01*
X524890Y36145D01*
Y38855D01*
X524189Y41472D01*
X522834Y43818D01*
X520918Y45734D01*
X518572Y47089D01*
X515955Y47790D01*
D02*
G37*
G36*
X499490Y36230D02*
X490470D01*
Y27210D01*
X490555D01*
X493172Y27911D01*
X495518Y29266D01*
X497434Y31182D01*
X498789Y33528D01*
X499490Y36145D01*
Y36230D01*
D02*
G37*
G36*
X487930D02*
X478910D01*
Y36145D01*
X479611Y33528D01*
X480966Y31182D01*
X482882Y29266D01*
X485228Y27911D01*
X487845Y27210D01*
X487930D01*
Y36230D01*
D02*
G37*
G36*
X952561Y82540D02*
X947439D01*
X942380Y81739D01*
X937509Y80156D01*
X932945Y77831D01*
X928802Y74820D01*
X925180Y71198D01*
X922169Y67055D01*
X919844Y62491D01*
X918261Y57620D01*
X917460Y52561D01*
Y47439D01*
X918261Y42380D01*
X919844Y37509D01*
X922169Y32945D01*
X925180Y28802D01*
X928802Y25180D01*
X932945Y22169D01*
X937509Y19844D01*
X942380Y18261D01*
X947439Y17460D01*
X952561D01*
X957620Y18261D01*
X962491Y19844D01*
X967055Y22169D01*
X971198Y25180D01*
X974820Y28802D01*
X977831Y32945D01*
X980156Y37509D01*
X981739Y42380D01*
X982540Y47439D01*
Y52561D01*
X981739Y57620D01*
X980156Y62491D01*
X977831Y67055D01*
X974820Y71198D01*
X971198Y74820D01*
X967055Y77831D01*
X962491Y80156D01*
X957620Y81739D01*
X952561Y82540D01*
D02*
G37*
G36*
X52561D02*
X47439D01*
X42380Y81739D01*
X37509Y80156D01*
X32945Y77831D01*
X28802Y74820D01*
X25180Y71198D01*
X22169Y67055D01*
X19844Y62491D01*
X18261Y57620D01*
X17460Y52561D01*
Y47439D01*
X18261Y42380D01*
X19844Y37509D01*
X22169Y32945D01*
X25180Y28802D01*
X28802Y25180D01*
X32945Y22169D01*
X37509Y19844D01*
X42380Y18261D01*
X47439Y17460D01*
X52561D01*
X57620Y18261D01*
X62491Y19844D01*
X67055Y22169D01*
X71198Y25180D01*
X74820Y28802D01*
X77831Y32945D01*
X80156Y37509D01*
X81739Y42380D01*
X82540Y47439D01*
Y52561D01*
X81739Y57620D01*
X80156Y62491D01*
X77831Y67055D01*
X74820Y71198D01*
X71198Y74820D01*
X67055Y77831D01*
X62491Y80156D01*
X57620Y81739D01*
X52561Y82540D01*
D02*
G37*
%LPD*%
G36*
X237237Y436263D02*
X237291Y435904D01*
X237381Y435545D01*
X237507Y435186D01*
X237668Y434827D01*
X237866Y434467D01*
X238100Y434108D01*
X238369Y433749D01*
X238674Y433390D01*
X239016Y433031D01*
X237220Y431234D01*
X236860Y431576D01*
X236501Y431881D01*
X236142Y432150D01*
X235783Y432384D01*
X235424Y432581D01*
X235064Y432743D01*
X234705Y432869D01*
X234346Y432959D01*
X233987Y433013D01*
X233627Y433031D01*
X237220Y436623D01*
X237237Y436263D01*
D02*
G37*
G36*
X259869Y410364D02*
X259792Y410479D01*
X259692Y410582D01*
X259566Y410673D01*
X259417Y410752D01*
X259243Y410818D01*
X259045Y410873D01*
X258823Y410915D01*
X258576Y410946D01*
X258305Y410964D01*
X258010Y410970D01*
X258276Y413510D01*
X258608Y413514D01*
X259450Y413577D01*
X259679Y413614D01*
X259882Y413660D01*
X260059Y413714D01*
X260210Y413777D01*
X260336Y413848D01*
X260435Y413927D01*
X259869Y410364D01*
D02*
G37*
G36*
X237237Y411263D02*
X237291Y410904D01*
X237381Y410545D01*
X237507Y410186D01*
X237668Y409827D01*
X237866Y409467D01*
X238100Y409108D01*
X238369Y408749D01*
X238674Y408390D01*
X239016Y408031D01*
X237220Y406234D01*
X236860Y406576D01*
X236501Y406881D01*
X236142Y407150D01*
X235783Y407384D01*
X235424Y407581D01*
X235064Y407743D01*
X234705Y407869D01*
X234346Y407959D01*
X233987Y408013D01*
X233627Y408031D01*
X237220Y411623D01*
X237237Y411263D01*
D02*
G37*
G36*
X260055Y385762D02*
X259912Y385941D01*
X259751Y386100D01*
X259572Y386241D01*
X259375Y386363D01*
X259160Y386466D01*
X258926Y386550D01*
X258674Y386616D01*
X258404Y386663D01*
X258115Y386691D01*
X257808Y386701D01*
X258257Y389241D01*
X258561Y389247D01*
X259130Y389301D01*
X259396Y389348D01*
X259648Y389408D01*
X259887Y389482D01*
X260113Y389569D01*
X260326Y389669D01*
X260527Y389783D01*
X260714Y389910D01*
X260055Y385762D01*
D02*
G37*
G36*
X926485Y388042D02*
X926391Y388094D01*
X926231Y388141D01*
X926007Y388182D01*
X925716Y388218D01*
X924452Y388292D01*
X922599Y388317D01*
X921982Y395937D01*
X922662Y395942D01*
X925123Y396113D01*
X925426Y396176D01*
X925668Y396250D01*
X925846Y396333D01*
X925962Y396425D01*
X926485Y388042D01*
D02*
G37*
G36*
X907827Y398815D02*
X908055Y398211D01*
X908436Y397678D01*
X908970Y397216D01*
X909656Y396825D01*
X910494Y396505D01*
X911484Y396257D01*
X912627Y396079D01*
X913923Y395972D01*
X915370Y395937D01*
Y388317D01*
X913923Y388279D01*
X912627Y388164D01*
X911484Y387974D01*
X910494Y387707D01*
X909656Y387364D01*
X908970Y386945D01*
X908436Y386450D01*
X908055Y385878D01*
X907827Y385231D01*
X907750Y384507D01*
Y399490D01*
X907827Y398815D01*
D02*
G37*
G36*
X892250Y384134D02*
X892173Y384857D01*
X891945Y385505D01*
X891564Y386077D01*
X891030Y386572D01*
X890344Y386991D01*
X889506Y387334D01*
X888516Y387601D01*
X887373Y387791D01*
X886077Y387906D01*
X884630Y387944D01*
Y395564D01*
X886077Y395602D01*
X887373Y395716D01*
X888516Y395906D01*
X889506Y396173D01*
X890344Y396516D01*
X891030Y396935D01*
X891564Y397430D01*
X891945Y398002D01*
X892173Y398650D01*
X892250Y399374D01*
Y384134D01*
D02*
G37*
G36*
X237237Y386263D02*
X237291Y385904D01*
X237381Y385545D01*
X237507Y385186D01*
X237668Y384827D01*
X237866Y384467D01*
X238100Y384108D01*
X238369Y383749D01*
X238674Y383390D01*
X239016Y383031D01*
X237220Y381234D01*
X236860Y381576D01*
X236501Y381881D01*
X236142Y382150D01*
X235783Y382384D01*
X235424Y382581D01*
X235064Y382743D01*
X234705Y382869D01*
X234346Y382959D01*
X233987Y383013D01*
X233627Y383031D01*
X237220Y386623D01*
X237237Y386263D01*
D02*
G37*
G36*
X260055Y360762D02*
X259912Y360941D01*
X259751Y361100D01*
X259572Y361241D01*
X259375Y361363D01*
X259160Y361466D01*
X258926Y361550D01*
X258674Y361616D01*
X258404Y361663D01*
X258115Y361691D01*
X257808Y361701D01*
X258257Y364241D01*
X258561Y364247D01*
X259130Y364301D01*
X259396Y364348D01*
X259648Y364408D01*
X259887Y364482D01*
X260113Y364569D01*
X260326Y364669D01*
X260527Y364783D01*
X260714Y364910D01*
X260055Y360762D01*
D02*
G37*
G36*
X237237Y361263D02*
X237291Y360904D01*
X237381Y360545D01*
X237507Y360186D01*
X237668Y359827D01*
X237866Y359467D01*
X238100Y359108D01*
X238369Y358749D01*
X238674Y358390D01*
X239016Y358031D01*
X237220Y356234D01*
X236860Y356576D01*
X236501Y356881D01*
X236142Y357150D01*
X235783Y357384D01*
X235424Y357581D01*
X235064Y357743D01*
X234705Y357869D01*
X234346Y357959D01*
X233987Y358013D01*
X233627Y358031D01*
X237220Y361623D01*
X237237Y361263D01*
D02*
G37*
G36*
X263309Y331885D02*
X263337Y331596D01*
X263384Y331326D01*
X263449Y331074D01*
X263534Y330840D01*
X263637Y330625D01*
X263759Y330428D01*
X263900Y330249D01*
X264060Y330088D01*
X264238Y329945D01*
X260090Y329286D01*
X260217Y329474D01*
X260331Y329674D01*
X260431Y329887D01*
X260518Y330113D01*
X260592Y330352D01*
X260652Y330604D01*
X260699Y330870D01*
X260732Y331148D01*
X260759Y331743D01*
X263299Y332192D01*
X263309Y331885D01*
D02*
G37*
G36*
X237237Y336263D02*
X237291Y335904D01*
X237381Y335545D01*
X237507Y335186D01*
X237668Y334827D01*
X237866Y334467D01*
X238100Y334108D01*
X238369Y333749D01*
X238674Y333390D01*
X239016Y333031D01*
X237220Y331234D01*
X236860Y331576D01*
X236501Y331881D01*
X236142Y332150D01*
X235783Y332384D01*
X235424Y332581D01*
X235064Y332743D01*
X234705Y332869D01*
X234346Y332959D01*
X233987Y333013D01*
X233627Y333031D01*
X237220Y336623D01*
X237237Y336263D01*
D02*
G37*
G36*
X263309Y306885D02*
X263337Y306596D01*
X263384Y306326D01*
X263449Y306074D01*
X263534Y305840D01*
X263637Y305625D01*
X263759Y305428D01*
X263900Y305249D01*
X264060Y305088D01*
X264238Y304945D01*
X260090Y304286D01*
X260217Y304474D01*
X260331Y304674D01*
X260431Y304887D01*
X260518Y305113D01*
X260592Y305352D01*
X260652Y305604D01*
X260699Y305870D01*
X260732Y306148D01*
X260759Y306743D01*
X263299Y307192D01*
X263309Y306885D01*
D02*
G37*
G36*
X351273Y454781D02*
X350913Y454762D01*
X350554Y454709D01*
X350195Y454619D01*
X349836Y454493D01*
X349477Y454332D01*
X349117Y454134D01*
X348758Y453900D01*
X348399Y453631D01*
X348040Y453326D01*
X347681Y452984D01*
X345884Y454781D01*
X346226Y455140D01*
X346531Y455499D01*
X346800Y455858D01*
X347034Y456217D01*
X347231Y456576D01*
X347393Y456936D01*
X347519Y457295D01*
X347609Y457654D01*
X347663Y458013D01*
X347681Y458373D01*
X351273Y454781D01*
D02*
G37*
G36*
X365358Y292900D02*
X365187Y293058D01*
X365002Y293199D01*
X364802Y293323D01*
X364587Y293431D01*
X364357Y293522D01*
X364112Y293597D01*
X363852Y293655D01*
X363577Y293697D01*
X363287Y293722D01*
X362982Y293730D01*
Y296270D01*
X363287Y296278D01*
X363577Y296303D01*
X363852Y296345D01*
X364112Y296403D01*
X364357Y296478D01*
X364587Y296569D01*
X364802Y296677D01*
X365002Y296801D01*
X365187Y296942D01*
X365358Y297100D01*
Y292900D01*
D02*
G37*
G36*
X425495Y284799D02*
X425571Y284583D01*
X425698Y284392D01*
X425876Y284227D01*
X426105Y284088D01*
X426384Y283973D01*
X426714Y283884D01*
X427095Y283821D01*
X427527Y283783D01*
X428009Y283770D01*
Y281230D01*
X427527Y281217D01*
X427095Y281179D01*
X426714Y281116D01*
X426384Y281027D01*
X426105Y280912D01*
X425876Y280773D01*
X425698Y280608D01*
X425571Y280417D01*
X425495Y280201D01*
X425470Y279960D01*
Y285040D01*
X425495Y284799D01*
D02*
G37*
G36*
X431764Y269592D02*
X431544Y269633D01*
X431324Y269647D01*
X431103Y269632D01*
X430881Y269590D01*
X430659Y269519D01*
X430437Y269421D01*
X430214Y269294D01*
X429990Y269139D01*
X429766Y268956D01*
X429542Y268745D01*
X428234Y271030D01*
X428445Y271249D01*
X428817Y271686D01*
X428977Y271902D01*
X429246Y272332D01*
X429355Y272545D01*
X429446Y272757D01*
X429520Y272968D01*
X429578Y273178D01*
X431764Y269592D01*
D02*
G37*
G36*
X427266Y266469D02*
X426924Y266110D01*
X426619Y265751D01*
X426350Y265392D01*
X426116Y265033D01*
X425919Y264674D01*
X425757Y264314D01*
X425631Y263955D01*
X425541Y263596D01*
X425488Y263237D01*
X425470Y262877D01*
X421877Y266469D01*
X422237Y266488D01*
X422596Y266541D01*
X422955Y266631D01*
X423314Y266757D01*
X423673Y266919D01*
X424033Y267116D01*
X424392Y267350D01*
X424751Y267619D01*
X425110Y267924D01*
X425470Y268266D01*
X427266Y266469D01*
D02*
G37*
G36*
X434075Y257447D02*
X433892Y257318D01*
X433727Y257169D01*
X433582Y257000D01*
X433456Y256811D01*
X433350Y256602D01*
X433263Y256374D01*
X433195Y256126D01*
X433147Y255858D01*
X433118Y255570D01*
X433108Y255262D01*
X430568Y255905D01*
X430562Y256210D01*
X430515Y256781D01*
X430474Y257047D01*
X430421Y257300D01*
X430356Y257540D01*
X430279Y257768D01*
X430191Y257983D01*
X430091Y258185D01*
X429979Y258374D01*
X434075Y257447D01*
D02*
G37*
G36*
X427266Y246970D02*
X426924Y246610D01*
X426619Y246251D01*
X426350Y245892D01*
X426116Y245533D01*
X425919Y245173D01*
X425757Y244814D01*
X425631Y244455D01*
X425541Y244096D01*
X425488Y243737D01*
X425470Y243377D01*
X421377Y246469D01*
X421746Y246497D01*
X422132Y246577D01*
X422536Y246712D01*
X422958Y246901D01*
X423398Y247143D01*
X423856Y247439D01*
X424332Y247790D01*
X425338Y248652D01*
X425868Y249164D01*
X427266Y246970D01*
D02*
G37*
G36*
X434442Y242687D02*
X434301Y242502D01*
X434177Y242302D01*
X434069Y242087D01*
X433978Y241857D01*
X433903Y241612D01*
X433845Y241352D01*
X433803Y241077D01*
X433778Y240787D01*
X433770Y240482D01*
X431230D01*
X431222Y240787D01*
X431197Y241077D01*
X431155Y241352D01*
X431097Y241612D01*
X431022Y241857D01*
X430931Y242087D01*
X430823Y242302D01*
X430699Y242502D01*
X430558Y242687D01*
X430400Y242858D01*
X434600D01*
X434442Y242687D01*
D02*
G37*
G36*
X427266Y226970D02*
X426924Y226610D01*
X426619Y226251D01*
X426350Y225892D01*
X426116Y225533D01*
X425919Y225173D01*
X425757Y224814D01*
X425631Y224455D01*
X425541Y224096D01*
X425488Y223737D01*
X425470Y223377D01*
X421377Y226469D01*
X421746Y226497D01*
X422132Y226577D01*
X422536Y226712D01*
X422958Y226901D01*
X423398Y227143D01*
X423856Y227439D01*
X424332Y227790D01*
X425338Y228652D01*
X425868Y229164D01*
X427266Y226970D01*
D02*
G37*
G36*
X237237Y286263D02*
X237291Y285904D01*
X237381Y285545D01*
X237507Y285186D01*
X237668Y284827D01*
X237866Y284467D01*
X238100Y284108D01*
X238369Y283749D01*
X238674Y283390D01*
X239016Y283030D01*
X237220Y281234D01*
X236860Y281576D01*
X236501Y281881D01*
X236142Y282150D01*
X235783Y282384D01*
X235424Y282582D01*
X235064Y282743D01*
X234705Y282869D01*
X234346Y282959D01*
X233987Y283013D01*
X233627Y283030D01*
X237220Y286623D01*
X237237Y286263D01*
D02*
G37*
G36*
X260055Y260762D02*
X259912Y260940D01*
X259751Y261100D01*
X259572Y261241D01*
X259375Y261363D01*
X259160Y261466D01*
X258926Y261551D01*
X258674Y261616D01*
X258404Y261663D01*
X258115Y261691D01*
X257808Y261701D01*
X258257Y264241D01*
X258561Y264247D01*
X259130Y264301D01*
X259396Y264348D01*
X259648Y264408D01*
X259887Y264482D01*
X260113Y264569D01*
X260326Y264669D01*
X260527Y264783D01*
X260714Y264910D01*
X260055Y260762D01*
D02*
G37*
G36*
X237245Y264799D02*
X237321Y264583D01*
X237448Y264392D01*
X237626Y264227D01*
X237854Y264088D01*
X238134Y263973D01*
X238464Y263884D01*
X238845Y263821D01*
X239277Y263783D01*
X239760Y263770D01*
Y261230D01*
X239277Y261217D01*
X238845Y261179D01*
X238464Y261116D01*
X238134Y261027D01*
X237854Y260912D01*
X237626Y260773D01*
X237448Y260608D01*
X237321Y260417D01*
X237245Y260201D01*
X237220Y259960D01*
Y265040D01*
X237245Y264799D01*
D02*
G37*
G36*
X250425Y261383D02*
X250648Y261196D01*
X250871Y261030D01*
X251096Y260888D01*
X251322Y260767D01*
X251549Y260669D01*
X251778Y260593D01*
X252007Y260540D01*
X252238Y260509D01*
X252470Y260500D01*
X249500Y257530D01*
X249491Y257762D01*
X249460Y257992D01*
X249407Y258222D01*
X249331Y258451D01*
X249233Y258678D01*
X249112Y258904D01*
X248970Y259129D01*
X248804Y259352D01*
X248617Y259575D01*
X248407Y259797D01*
X250203Y261593D01*
X250425Y261383D01*
D02*
G37*
G36*
X237237Y311263D02*
X237291Y310904D01*
X237381Y310545D01*
X237507Y310186D01*
X237668Y309827D01*
X237866Y309467D01*
X238100Y309108D01*
X238369Y308749D01*
X238674Y308390D01*
X239016Y308030D01*
X237220Y306234D01*
X236860Y306576D01*
X236501Y306881D01*
X236142Y307150D01*
X235783Y307384D01*
X235424Y307582D01*
X235064Y307743D01*
X234705Y307869D01*
X234346Y307959D01*
X233987Y308013D01*
X233627Y308030D01*
X237220Y311623D01*
X237237Y311263D01*
D02*
G37*
G36*
X263309Y281885D02*
X263337Y281596D01*
X263384Y281326D01*
X263449Y281074D01*
X263534Y280840D01*
X263637Y280625D01*
X263759Y280428D01*
X263900Y280249D01*
X264060Y280088D01*
X264238Y279945D01*
X260090Y279286D01*
X260217Y279474D01*
X260331Y279674D01*
X260431Y279887D01*
X260518Y280113D01*
X260592Y280352D01*
X260652Y280604D01*
X260699Y280870D01*
X260732Y281148D01*
X260759Y281743D01*
X263299Y282192D01*
X263309Y281885D01*
D02*
G37*
G36*
X252470Y239500D02*
X252238Y239491D01*
X252007Y239460D01*
X251778Y239407D01*
X251549Y239331D01*
X251322Y239233D01*
X251096Y239112D01*
X250871Y238969D01*
X250648Y238804D01*
X250425Y238617D01*
X250203Y238407D01*
X248407Y240203D01*
X248617Y240425D01*
X248804Y240648D01*
X248970Y240871D01*
X249112Y241096D01*
X249233Y241322D01*
X249331Y241549D01*
X249407Y241778D01*
X249460Y242007D01*
X249491Y242238D01*
X249500Y242470D01*
X252470Y239500D01*
D02*
G37*
G36*
X260714Y235090D02*
X260527Y235217D01*
X260326Y235331D01*
X260113Y235431D01*
X259887Y235518D01*
X259648Y235592D01*
X259396Y235652D01*
X259130Y235699D01*
X258852Y235732D01*
X258257Y235759D01*
X257808Y238299D01*
X258115Y238309D01*
X258404Y238337D01*
X258674Y238384D01*
X258926Y238449D01*
X259160Y238534D01*
X259375Y238637D01*
X259572Y238759D01*
X259751Y238900D01*
X259912Y239060D01*
X260055Y239238D01*
X260714Y235090D01*
D02*
G37*
G36*
X237245Y239799D02*
X237321Y239583D01*
X237448Y239392D01*
X237626Y239227D01*
X237854Y239088D01*
X238134Y238973D01*
X238464Y238884D01*
X238845Y238821D01*
X239277Y238783D01*
X239760Y238770D01*
Y236230D01*
X239277Y236217D01*
X238845Y236179D01*
X238464Y236116D01*
X238134Y236027D01*
X237854Y235912D01*
X237626Y235773D01*
X237448Y235608D01*
X237321Y235417D01*
X237245Y235201D01*
X237220Y234960D01*
Y240040D01*
X237245Y239799D01*
D02*
G37*
G36*
X239016Y216970D02*
X238674Y216610D01*
X238369Y216251D01*
X238100Y215892D01*
X237866Y215533D01*
X237668Y215173D01*
X237507Y214814D01*
X237381Y214455D01*
X237291Y214096D01*
X237237Y213737D01*
X237220Y213377D01*
X233627Y216970D01*
X233987Y216987D01*
X234346Y217041D01*
X234705Y217131D01*
X235064Y217257D01*
X235424Y217418D01*
X235783Y217616D01*
X236142Y217850D01*
X236501Y218119D01*
X236860Y218424D01*
X237220Y218766D01*
X239016Y216970D01*
D02*
G37*
G36*
X502470Y269500D02*
X502238Y269491D01*
X502007Y269460D01*
X501778Y269407D01*
X501549Y269331D01*
X501322Y269233D01*
X501096Y269112D01*
X500871Y268969D01*
X500648Y268804D01*
X500425Y268617D01*
X500203Y268407D01*
X498407Y270203D01*
X498617Y270425D01*
X498805Y270648D01*
X498970Y270871D01*
X499112Y271096D01*
X499233Y271322D01*
X499331Y271549D01*
X499407Y271778D01*
X499460Y272008D01*
X499491Y272238D01*
X499500Y272470D01*
X502470Y269500D01*
D02*
G37*
G36*
X474093Y242297D02*
X473883Y242075D01*
X473695Y241852D01*
X473530Y241629D01*
X473388Y241404D01*
X473267Y241178D01*
X473169Y240951D01*
X473093Y240722D01*
X473040Y240493D01*
X473009Y240262D01*
X473000Y240030D01*
X470030Y243000D01*
X470262Y243009D01*
X470493Y243040D01*
X470722Y243093D01*
X470951Y243169D01*
X471178Y243267D01*
X471404Y243388D01*
X471629Y243531D01*
X471852Y243696D01*
X472075Y243883D01*
X472297Y244093D01*
X474093Y242297D01*
D02*
G37*
G36*
X608009Y257238D02*
X608040Y257007D01*
X608093Y256778D01*
X608169Y256549D01*
X608267Y256322D01*
X608388Y256096D01*
X608531Y255871D01*
X608695Y255648D01*
X608883Y255425D01*
X609093Y255203D01*
X607297Y253407D01*
X607075Y253617D01*
X606852Y253804D01*
X606629Y253969D01*
X606404Y254112D01*
X606178Y254233D01*
X605951Y254331D01*
X605722Y254407D01*
X605493Y254460D01*
X605262Y254491D01*
X605030Y254500D01*
X608000Y257470D01*
X608009Y257238D01*
D02*
G37*
G36*
X622925Y241383D02*
X623148Y241196D01*
X623371Y241031D01*
X623596Y240888D01*
X623822Y240767D01*
X624049Y240669D01*
X624278Y240593D01*
X624507Y240540D01*
X624738Y240509D01*
X624970Y240500D01*
X622000Y237530D01*
X621991Y237762D01*
X621960Y237993D01*
X621907Y238222D01*
X621831Y238451D01*
X621733Y238678D01*
X621612Y238904D01*
X621469Y239129D01*
X621305Y239352D01*
X621117Y239575D01*
X620907Y239797D01*
X622703Y241593D01*
X622925Y241383D01*
D02*
G37*
G36*
X670358Y215400D02*
X670187Y215558D01*
X670002Y215699D01*
X669802Y215823D01*
X669587Y215931D01*
X669357Y216022D01*
X669112Y216097D01*
X668852Y216155D01*
X668577Y216197D01*
X668287Y216222D01*
X667982Y216230D01*
Y218770D01*
X668287Y218778D01*
X668577Y218803D01*
X668852Y218845D01*
X669112Y218903D01*
X669357Y218978D01*
X669587Y219069D01*
X669802Y219177D01*
X670002Y219301D01*
X670187Y219442D01*
X670358Y219600D01*
Y215400D01*
D02*
G37*
G36*
X602313Y219442D02*
X602498Y219301D01*
X602698Y219177D01*
X602913Y219069D01*
X603143Y218978D01*
X603388Y218903D01*
X603648Y218845D01*
X603923Y218803D01*
X604213Y218778D01*
X604518Y218770D01*
Y216230D01*
X604213Y216222D01*
X603923Y216197D01*
X603648Y216155D01*
X603388Y216097D01*
X603143Y216022D01*
X602913Y215931D01*
X602698Y215823D01*
X602498Y215699D01*
X602313Y215558D01*
X602142Y215400D01*
Y219600D01*
X602313Y219442D01*
D02*
G37*
G36*
X264238Y220055D02*
X264060Y219912D01*
X263900Y219751D01*
X263759Y219572D01*
X263637Y219375D01*
X263534Y219160D01*
X263449Y218926D01*
X263384Y218674D01*
X263337Y218404D01*
X263309Y218115D01*
X263299Y217808D01*
X260759Y218257D01*
X260753Y218561D01*
X260699Y219130D01*
X260652Y219396D01*
X260592Y219648D01*
X260518Y219887D01*
X260431Y220113D01*
X260331Y220326D01*
X260217Y220527D01*
X260090Y220714D01*
X264238Y220055D01*
D02*
G37*
G36*
X239016Y191970D02*
X238674Y191610D01*
X238369Y191251D01*
X238100Y190892D01*
X237866Y190533D01*
X237668Y190173D01*
X237507Y189814D01*
X237381Y189455D01*
X237291Y189096D01*
X237237Y188737D01*
X237220Y188377D01*
X233627Y191970D01*
X233987Y191987D01*
X234346Y192041D01*
X234705Y192131D01*
X235064Y192257D01*
X235424Y192418D01*
X235783Y192616D01*
X236142Y192850D01*
X236501Y193119D01*
X236860Y193424D01*
X237220Y193766D01*
X239016Y191970D01*
D02*
G37*
G36*
X264238Y195055D02*
X264060Y194912D01*
X263900Y194751D01*
X263759Y194572D01*
X263637Y194375D01*
X263534Y194160D01*
X263449Y193926D01*
X263384Y193674D01*
X263337Y193404D01*
X263309Y193115D01*
X263299Y192808D01*
X260759Y193257D01*
X260753Y193561D01*
X260699Y194130D01*
X260652Y194396D01*
X260592Y194648D01*
X260518Y194887D01*
X260431Y195113D01*
X260331Y195326D01*
X260217Y195527D01*
X260090Y195714D01*
X264238Y195055D01*
D02*
G37*
G36*
X239016Y166970D02*
X238674Y166610D01*
X238369Y166251D01*
X238100Y165892D01*
X237866Y165533D01*
X237668Y165173D01*
X237507Y164814D01*
X237381Y164455D01*
X237291Y164096D01*
X237237Y163737D01*
X237220Y163377D01*
X233627Y166970D01*
X233987Y166987D01*
X234346Y167041D01*
X234705Y167131D01*
X235064Y167257D01*
X235424Y167418D01*
X235783Y167616D01*
X236142Y167850D01*
X236501Y168119D01*
X236860Y168424D01*
X237220Y168766D01*
X239016Y166970D01*
D02*
G37*
G36*
X260714Y135090D02*
X260527Y135217D01*
X260326Y135331D01*
X260113Y135431D01*
X259887Y135518D01*
X259648Y135592D01*
X259396Y135652D01*
X259130Y135699D01*
X258852Y135732D01*
X258257Y135759D01*
X257808Y138299D01*
X258115Y138309D01*
X258404Y138337D01*
X258674Y138384D01*
X258926Y138449D01*
X259160Y138534D01*
X259375Y138637D01*
X259572Y138759D01*
X259751Y138900D01*
X259912Y139059D01*
X260055Y139238D01*
X260714Y135090D01*
D02*
G37*
G36*
X239016Y116969D02*
X238674Y116610D01*
X238369Y116251D01*
X238100Y115892D01*
X237866Y115533D01*
X237668Y115174D01*
X237507Y114814D01*
X237381Y114455D01*
X237291Y114096D01*
X237237Y113737D01*
X237220Y113377D01*
X233627Y116969D01*
X233987Y116987D01*
X234346Y117041D01*
X234705Y117131D01*
X235064Y117257D01*
X235424Y117418D01*
X235783Y117616D01*
X236142Y117850D01*
X236501Y118119D01*
X236860Y118424D01*
X237220Y118766D01*
X239016Y116969D01*
D02*
G37*
G36*
X264238Y170055D02*
X264060Y169912D01*
X263900Y169751D01*
X263759Y169572D01*
X263637Y169375D01*
X263534Y169160D01*
X263449Y168926D01*
X263384Y168674D01*
X263337Y168404D01*
X263309Y168115D01*
X263299Y167808D01*
X260759Y168257D01*
X260753Y168561D01*
X260699Y169130D01*
X260652Y169396D01*
X260592Y169648D01*
X260518Y169887D01*
X260431Y170113D01*
X260331Y170326D01*
X260217Y170527D01*
X260090Y170714D01*
X264238Y170055D01*
D02*
G37*
G36*
X239016Y141969D02*
X238674Y141610D01*
X238369Y141251D01*
X238100Y140892D01*
X237866Y140533D01*
X237668Y140174D01*
X237507Y139814D01*
X237381Y139455D01*
X237291Y139096D01*
X237237Y138737D01*
X237220Y138377D01*
X233627Y141969D01*
X233987Y141987D01*
X234346Y142041D01*
X234705Y142131D01*
X235064Y142257D01*
X235424Y142418D01*
X235783Y142616D01*
X236142Y142850D01*
X236501Y143119D01*
X236860Y143424D01*
X237220Y143766D01*
X239016Y141969D01*
D02*
G37*
G36*
X562313Y174442D02*
X562498Y174301D01*
X562698Y174177D01*
X562913Y174069D01*
X563143Y173978D01*
X563388Y173903D01*
X563648Y173845D01*
X563923Y173803D01*
X564213Y173778D01*
X564518Y173770D01*
Y171230D01*
X564213Y171222D01*
X563923Y171197D01*
X563648Y171155D01*
X563388Y171097D01*
X563143Y171022D01*
X562913Y170931D01*
X562698Y170823D01*
X562498Y170699D01*
X562313Y170558D01*
X562142Y170400D01*
Y174600D01*
X562313Y174442D01*
D02*
G37*
G36*
X750425Y138883D02*
X750648Y138695D01*
X750871Y138531D01*
X751096Y138388D01*
X751322Y138267D01*
X751550Y138169D01*
X751778Y138093D01*
X752007Y138040D01*
X752238Y138009D01*
X752470Y138000D01*
X749500Y135030D01*
X749491Y135262D01*
X749460Y135493D01*
X749407Y135722D01*
X749331Y135950D01*
X749233Y136178D01*
X749112Y136404D01*
X748969Y136629D01*
X748804Y136853D01*
X748617Y137075D01*
X748407Y137297D01*
X750203Y139093D01*
X750425Y138883D01*
D02*
G37*
G36*
X262470Y109500D02*
X262238Y109491D01*
X262008Y109460D01*
X261778Y109407D01*
X261549Y109331D01*
X261322Y109233D01*
X261096Y109112D01*
X260871Y108970D01*
X260648Y108805D01*
X260425Y108617D01*
X260203Y108407D01*
X258407Y110203D01*
X258617Y110425D01*
X258804Y110647D01*
X258970Y110871D01*
X259112Y111096D01*
X259233Y111322D01*
X259331Y111550D01*
X259407Y111778D01*
X259460Y112007D01*
X259491Y112238D01*
X259500Y112470D01*
X262470Y109500D01*
D02*
G37*
G36*
X237245Y97299D02*
X237321Y97083D01*
X237448Y96892D01*
X237626Y96727D01*
X237854Y96587D01*
X238134Y96473D01*
X238464Y96384D01*
X238845Y96321D01*
X239277Y96283D01*
X239760Y96270D01*
Y93730D01*
X239277Y93717D01*
X238845Y93679D01*
X238464Y93616D01*
X238134Y93527D01*
X237854Y93413D01*
X237626Y93273D01*
X237448Y93108D01*
X237321Y92917D01*
X237245Y92701D01*
X237220Y92460D01*
Y97540D01*
X237245Y97299D01*
D02*
G37*
G36*
X262530Y85179D02*
X262299Y85170D01*
X262068Y85139D01*
X261838Y85085D01*
X261610Y85010D01*
X261383Y84912D01*
X261157Y84791D01*
X260932Y84648D01*
X260708Y84483D01*
X260485Y84296D01*
X260264Y84086D01*
X258468Y85882D01*
X258678Y86104D01*
X258865Y86326D01*
X259030Y86550D01*
X259173Y86775D01*
X259293Y87001D01*
X259391Y87228D01*
X259467Y87457D01*
X259521Y87686D01*
X259552Y87917D01*
X259561Y88149D01*
X262530Y85179D01*
D02*
G37*
G36*
X237245Y79799D02*
X237321Y79583D01*
X237448Y79392D01*
X237626Y79227D01*
X237854Y79088D01*
X238134Y78973D01*
X238464Y78884D01*
X238845Y78821D01*
X239277Y78783D01*
X239760Y78770D01*
Y76230D01*
X239277Y76217D01*
X238845Y76179D01*
X238464Y76116D01*
X238134Y76027D01*
X237854Y75912D01*
X237626Y75773D01*
X237448Y75608D01*
X237321Y75417D01*
X237245Y75201D01*
X237220Y74960D01*
Y80040D01*
X237245Y79799D01*
D02*
G37*
G36*
X262470Y72000D02*
X262238Y71991D01*
X262008Y71960D01*
X261778Y71907D01*
X261549Y71831D01*
X261322Y71733D01*
X261096Y71612D01*
X260871Y71470D01*
X260648Y71304D01*
X260425Y71117D01*
X260203Y70907D01*
X258407Y72703D01*
X258617Y72925D01*
X258804Y73148D01*
X258970Y73371D01*
X259112Y73596D01*
X259233Y73822D01*
X259331Y74050D01*
X259407Y74278D01*
X259460Y74507D01*
X259491Y74738D01*
X259500Y74970D01*
X262470Y72000D01*
D02*
G37*
G36*
X204813Y64442D02*
X204998Y64301D01*
X205198Y64177D01*
X205413Y64069D01*
X205643Y63977D01*
X205888Y63903D01*
X206148Y63845D01*
X206423Y63803D01*
X206713Y63778D01*
X207018Y63770D01*
Y61230D01*
X206713Y61222D01*
X206423Y61197D01*
X206148Y61155D01*
X205888Y61097D01*
X205643Y61023D01*
X205413Y60931D01*
X205198Y60823D01*
X204998Y60699D01*
X204813Y60558D01*
X204642Y60400D01*
Y64600D01*
X204813Y64442D01*
D02*
G37*
G36*
X253214Y52590D02*
X253026Y52717D01*
X252826Y52831D01*
X252613Y52931D01*
X252387Y53018D01*
X252148Y53092D01*
X251896Y53152D01*
X251630Y53199D01*
X251352Y53232D01*
X250757Y53259D01*
X250308Y55799D01*
X250615Y55809D01*
X250904Y55837D01*
X251174Y55884D01*
X251426Y55950D01*
X251660Y56034D01*
X251875Y56137D01*
X252072Y56259D01*
X252251Y56400D01*
X252412Y56560D01*
X252555Y56738D01*
X253214Y52590D01*
D02*
G37*
G36*
X239016Y41969D02*
X238674Y41610D01*
X238369Y41251D01*
X238100Y40892D01*
X237866Y40533D01*
X237668Y40174D01*
X237507Y39814D01*
X237381Y39455D01*
X237291Y39096D01*
X237237Y38737D01*
X237220Y38377D01*
X233627Y41969D01*
X233987Y41988D01*
X234346Y42041D01*
X234705Y42131D01*
X235064Y42257D01*
X235424Y42418D01*
X235783Y42616D01*
X236142Y42850D01*
X236501Y43119D01*
X236860Y43424D01*
X237220Y43766D01*
X239016Y41969D01*
D02*
G37*
D14*
X404000Y282500D02*
D03*
Y262500D02*
D03*
Y222500D02*
D03*
Y242500D02*
D03*
X421000Y282500D02*
D03*
Y222500D02*
D03*
Y262500D02*
D03*
Y242500D02*
D03*
D16*
X900000Y373246D02*
D03*
Y391754D02*
D03*
D42*
X221500Y437500D02*
D03*
Y412500D02*
D03*
Y362500D02*
D03*
Y387500D02*
D03*
Y337500D02*
D03*
Y287500D02*
D03*
Y312500D02*
D03*
Y262500D02*
D03*
Y237500D02*
D03*
Y212500D02*
D03*
Y187500D02*
D03*
Y162500D02*
D03*
Y137500D02*
D03*
Y95000D02*
D03*
Y112500D02*
D03*
Y77500D02*
D03*
Y37500D02*
D03*
X233500D02*
D03*
Y337500D02*
D03*
Y212500D02*
D03*
Y412500D02*
D03*
Y162500D02*
D03*
Y187500D02*
D03*
Y237500D02*
D03*
Y312500D02*
D03*
Y362500D02*
D03*
Y112500D02*
D03*
Y137500D02*
D03*
Y287500D02*
D03*
Y387500D02*
D03*
Y437500D02*
D03*
Y77500D02*
D03*
Y95000D02*
D03*
Y262500D02*
D03*
D44*
X310000Y336133D02*
X351133Y295000D01*
X367500D01*
X310000Y427500D02*
X320000Y437500D01*
X330400D01*
X310000Y336133D02*
Y427500D01*
X330400Y437500D02*
X355400Y462500D01*
X250000Y62500D02*
X262500Y75000D01*
X202500Y62500D02*
X250000D01*
X580000Y172500D02*
X598750Y153750D01*
X560000Y172500D02*
X580000D01*
X598750Y153750D02*
X733750D01*
X752500Y135000D01*
X247500Y237500D02*
X252500Y242500D01*
X233500Y237500D02*
X247500D01*
X262029Y237029D02*
X262500Y237500D01*
X233500Y213250D02*
X257279Y237029D01*
X262029D01*
X233500Y262500D02*
X247500D01*
X252500Y257500D01*
X257279Y262971D02*
X262029D01*
X262500Y262500D01*
X233500Y286750D02*
X257279Y262971D01*
X207500Y80000D02*
X219020D01*
Y80730D01*
X221500Y78250D01*
Y77500D02*
Y78250D01*
X227823Y402450D02*
X228294Y401979D01*
X227823Y427450D02*
X228294Y426979D01*
X227823Y352450D02*
X228294Y351979D01*
X227823Y377450D02*
X228294Y376979D01*
X390000Y282500D02*
X404000D01*
X227379Y327220D02*
X227849Y326749D01*
X227823Y277450D02*
X228294Y276979D01*
X227823Y277450D02*
Y280427D01*
X390000Y262500D02*
X404000D01*
X227823Y252450D02*
Y255427D01*
X221500Y261750D02*
X227823Y255427D01*
Y252450D02*
X228294Y251979D01*
X221500Y436750D02*
X227823Y430427D01*
Y427450D02*
Y430427D01*
X221500Y411750D02*
Y412500D01*
Y436750D02*
Y437500D01*
X227823Y402450D02*
Y405427D01*
X221500Y386750D02*
X227823Y380427D01*
X221500Y411750D02*
X227823Y405427D01*
Y377450D02*
Y380427D01*
X221500Y386750D02*
Y387500D01*
Y361750D02*
Y362500D01*
Y361750D02*
X227823Y355427D01*
Y352450D02*
Y355427D01*
X227379Y327220D02*
Y330871D01*
X221500Y336750D02*
X227379Y330871D01*
X221500Y336750D02*
Y337500D01*
X208682Y312500D02*
X221500D01*
Y286750D02*
X227823Y280427D01*
X221500Y261750D02*
Y262500D01*
Y286750D02*
Y287500D01*
X390000Y224660D02*
X390666D01*
X390000Y242500D02*
X404000D01*
X392826Y222500D02*
X404000D01*
X390666Y224660D02*
X392826Y222500D01*
X227823Y177450D02*
X228294Y176979D01*
X227823Y152450D02*
X228294Y151979D01*
X227823Y127450D02*
X228294Y126979D01*
X221500Y236750D02*
X227823Y230427D01*
Y227450D02*
Y230427D01*
Y227450D02*
X228294Y226979D01*
X221500Y236750D02*
Y237500D01*
X208682Y212500D02*
X221500D01*
X227823Y177450D02*
Y180427D01*
X221500Y186750D02*
X227823Y180427D01*
Y152450D02*
Y155427D01*
X221500Y161750D02*
X227823Y155427D01*
X221500Y186750D02*
Y187500D01*
Y161750D02*
Y162500D01*
Y136750D02*
X227823Y130427D01*
Y127450D02*
Y130427D01*
X221500Y136750D02*
Y137500D01*
X208682Y112500D02*
X221500D01*
X221148Y95352D02*
X221500Y95000D01*
X209246Y95352D02*
X221148D01*
X208682Y37500D02*
X221500D01*
X262048Y412240D02*
X262519Y411769D01*
X258010Y412240D02*
X262048D01*
X233500Y436750D02*
X258010Y412240D01*
X257279Y387971D02*
X262029D01*
X262500Y387500D01*
X424230Y225730D02*
X432500Y234000D01*
Y245000D01*
X502500Y272500D02*
X502500D01*
X470000Y240000D02*
X502500Y272500D01*
X600000Y217500D02*
X672500D01*
X605000Y257500D02*
X625000Y237500D01*
X254529Y54529D02*
X255000Y55000D01*
X249779Y54529D02*
X254529D01*
X233500Y38250D02*
X249779Y54529D01*
X233500Y37500D02*
Y38250D01*
X262029Y302971D02*
Y308221D01*
Y302971D02*
X262500Y302500D01*
X233500Y336750D02*
X262029Y308221D01*
X233500Y336750D02*
Y337500D01*
X431810Y285000D02*
X432500D01*
X421000Y282500D02*
X429310D01*
X431810Y285000D01*
X421000Y222500D02*
X421500D01*
X424230Y225230D01*
Y225730D01*
X233500Y212500D02*
Y213250D01*
Y411750D02*
X257279Y387971D01*
X233500Y411750D02*
Y412500D01*
X421000Y262500D02*
X421500D01*
X430838Y271838D01*
X431838D01*
X432500Y272500D01*
X421000Y242500D02*
X421500D01*
X424230Y245230D01*
Y245730D01*
X431838Y253338D01*
Y259338D01*
X432500Y260000D01*
X262029Y191779D02*
Y197029D01*
X233500Y163250D02*
X262029Y191779D01*
X233500Y162500D02*
Y163250D01*
X262029Y197029D02*
X262500Y197500D01*
X262029Y222029D02*
X262500Y222500D01*
X262029Y216779D02*
Y222029D01*
X233500Y188250D02*
X262029Y216779D01*
X233500Y187500D02*
Y188250D01*
X262029Y277971D02*
Y283221D01*
X233500Y311750D02*
Y312500D01*
Y311750D02*
X262029Y283221D01*
Y277971D02*
X262500Y277500D01*
X262029Y327971D02*
Y333221D01*
Y327971D02*
X262500Y327500D01*
X233500Y361750D02*
Y362500D01*
Y361750D02*
X262029Y333221D01*
X233500Y113250D02*
X257279Y137029D01*
X262029D02*
X262500Y137500D01*
X257279Y137029D02*
X262029D01*
X233500Y112500D02*
Y113250D01*
Y137500D02*
Y138250D01*
X262029Y172029D02*
X262500Y172500D01*
X262029Y166779D02*
Y172029D01*
X233500Y138250D02*
X262029Y166779D01*
X233500Y286750D02*
Y287500D01*
X257279Y362971D02*
X262029D01*
X262500Y362500D01*
X233500Y386750D02*
X257279Y362971D01*
X233500Y386750D02*
Y387500D01*
Y436750D02*
Y437500D01*
X251882Y77500D02*
X262561Y88179D01*
X233500Y77500D02*
X251882D01*
X245000Y95000D02*
X262500Y112500D01*
X233500Y95000D02*
X245000D01*
D45*
X580000Y315000D02*
X595000D01*
X692500D02*
X737500Y360000D01*
X595000Y315000D02*
X692500D01*
X737500Y360000D02*
X800000D01*
X800059Y359941D01*
X814050D01*
X814109Y360000D01*
X827500D01*
D47*
X900746Y372500D02*
X930500D01*
X899727Y372973D02*
X900000Y373246D01*
X872773Y372973D02*
X899727D01*
X872500Y372700D02*
X872773Y372973D01*
X872500Y395000D02*
X875746Y391754D01*
X900000D01*
X900373Y392127D01*
X930127D01*
X930500Y392500D01*
D49*
X330000Y462500D02*
D03*
X135400Y430000D02*
D03*
X489200Y37500D02*
D03*
X514600D02*
D03*
X135400Y70000D02*
D03*
Y110000D02*
D03*
Y150000D02*
D03*
Y190000D02*
D03*
Y230000D02*
D03*
Y270000D02*
D03*
Y310000D02*
D03*
Y350000D02*
D03*
Y390000D02*
D03*
D50*
X355400Y462500D02*
D03*
X540000Y37500D02*
D03*
X110000Y110000D02*
D03*
Y150000D02*
D03*
Y190000D02*
D03*
Y230000D02*
D03*
Y270000D02*
D03*
Y310000D02*
D03*
Y350000D02*
D03*
Y70000D02*
D03*
Y430000D02*
D03*
Y390000D02*
D03*
D51*
X681000Y78500D02*
D03*
X688000Y85500D02*
D03*
Y71500D02*
D03*
X695000Y78500D02*
D03*
X702000Y71500D02*
D03*
X709000Y78500D02*
D03*
X702000Y85500D02*
D03*
X709000Y92500D02*
D03*
X702000Y99500D02*
D03*
X695000Y92500D02*
D03*
X681000D02*
D03*
X688000Y99500D02*
D03*
D52*
X930500Y372500D02*
D03*
D53*
X970000Y177500D02*
D03*
Y91100D02*
D03*
D54*
X930000Y177500D02*
D03*
Y91100D02*
D03*
D55*
X540000Y460000D02*
D03*
D56*
X952500Y267000D02*
D03*
Y220000D02*
D03*
D57*
X930500Y392500D02*
D03*
D58*
X952500Y314000D02*
D03*
D59*
X950000Y50000D02*
D03*
X50000Y450000D02*
D03*
X950000D02*
D03*
X50000Y50000D02*
D03*
D60*
X970000Y407500D02*
D03*
X985000Y377500D02*
D03*
X970000Y347500D02*
D03*
X985000Y317500D02*
D03*
X970000Y287500D02*
D03*
X985000Y257500D02*
D03*
Y197500D02*
D03*
Y137500D02*
D03*
Y77500D02*
D03*
X940000Y407500D02*
D03*
Y347500D02*
D03*
Y287500D02*
D03*
X910000Y467500D02*
D03*
Y347500D02*
D03*
X925000Y317500D02*
D03*
X910000Y287500D02*
D03*
X925000Y257500D02*
D03*
Y197500D02*
D03*
X910000Y107500D02*
D03*
Y47500D02*
D03*
X880000Y467500D02*
D03*
X895000Y437500D02*
D03*
Y317500D02*
D03*
Y257500D02*
D03*
X880000Y167500D02*
D03*
Y107500D02*
D03*
X895000Y77500D02*
D03*
X880000Y47500D02*
D03*
X850000Y467500D02*
D03*
X865000Y437500D02*
D03*
X850000Y227500D02*
D03*
X865000Y197500D02*
D03*
X850000Y107500D02*
D03*
X820000Y467500D02*
D03*
X835000Y437500D02*
D03*
X820000Y227500D02*
D03*
X835000Y197500D02*
D03*
X820000Y107500D02*
D03*
X790000Y467500D02*
D03*
X805000Y437500D02*
D03*
X790000Y407500D02*
D03*
X805000Y317500D02*
D03*
X790000Y227500D02*
D03*
X805000Y197500D02*
D03*
X790000Y107500D02*
D03*
X760000Y467500D02*
D03*
X775000Y437500D02*
D03*
Y377500D02*
D03*
Y317500D02*
D03*
Y257500D02*
D03*
Y197500D02*
D03*
X730000Y467500D02*
D03*
X745000Y437500D02*
D03*
Y317500D02*
D03*
X730000Y287500D02*
D03*
Y227500D02*
D03*
Y167500D02*
D03*
Y107500D02*
D03*
X745000Y77500D02*
D03*
X730000Y47500D02*
D03*
X715000Y317500D02*
D03*
X700000Y287500D02*
D03*
X715000Y257500D02*
D03*
X700000Y227500D02*
D03*
Y167500D02*
D03*
X715000Y137500D02*
D03*
X670000Y287500D02*
D03*
X685000Y257500D02*
D03*
X670000Y167500D02*
D03*
X685000Y137500D02*
D03*
X670000Y107500D02*
D03*
Y47500D02*
D03*
X640000Y287500D02*
D03*
Y167500D02*
D03*
X655000Y137500D02*
D03*
X640000Y107500D02*
D03*
X655000Y77500D02*
D03*
X640000Y47500D02*
D03*
X625000Y437500D02*
D03*
X610000Y407500D02*
D03*
X625000Y377500D02*
D03*
Y257500D02*
D03*
X610000Y167500D02*
D03*
X625000Y137500D02*
D03*
X610000Y107500D02*
D03*
X625000Y77500D02*
D03*
X610000Y47500D02*
D03*
X595000Y437500D02*
D03*
X580000Y407500D02*
D03*
X595000Y377500D02*
D03*
Y197500D02*
D03*
X565000Y437500D02*
D03*
Y377500D02*
D03*
Y317500D02*
D03*
Y197500D02*
D03*
X550000Y107500D02*
D03*
X520000Y467500D02*
D03*
Y407500D02*
D03*
Y347500D02*
D03*
X535000Y197500D02*
D03*
X520000Y167500D02*
D03*
Y107500D02*
D03*
X490000Y467500D02*
D03*
X505000Y437500D02*
D03*
X490000Y407500D02*
D03*
X505000Y377500D02*
D03*
X490000Y347500D02*
D03*
X505000Y137500D02*
D03*
Y77500D02*
D03*
X460000Y467500D02*
D03*
X475000Y437500D02*
D03*
X460000Y407500D02*
D03*
X475000Y377500D02*
D03*
Y197500D02*
D03*
Y77500D02*
D03*
X460000Y47500D02*
D03*
X430000Y467500D02*
D03*
X445000Y437500D02*
D03*
Y317500D02*
D03*
Y77500D02*
D03*
X430000Y47500D02*
D03*
X400000Y467500D02*
D03*
X415000Y437500D02*
D03*
X400000Y407500D02*
D03*
X415000Y77500D02*
D03*
X400000Y47500D02*
D03*
X370000Y227500D02*
D03*
X385000Y77500D02*
D03*
X370000Y47500D02*
D03*
X355000Y437500D02*
D03*
X340000Y407500D02*
D03*
X355000Y257500D02*
D03*
X340000Y107500D02*
D03*
X355000Y77500D02*
D03*
X340000Y47500D02*
D03*
X325000Y77500D02*
D03*
X310000Y47500D02*
D03*
X295000Y437500D02*
D03*
X280000Y227500D02*
D03*
X295000Y77500D02*
D03*
X280000Y47500D02*
D03*
X190000Y467500D02*
D03*
Y407500D02*
D03*
Y287500D02*
D03*
Y227500D02*
D03*
X205000Y197500D02*
D03*
X190000Y107500D02*
D03*
X160000Y467500D02*
D03*
X175000Y377500D02*
D03*
Y317500D02*
D03*
X160000Y287500D02*
D03*
X175000Y197500D02*
D03*
X160000Y107500D02*
D03*
X130000Y467500D02*
D03*
Y407500D02*
D03*
Y287500D02*
D03*
X100000Y467500D02*
D03*
Y407500D02*
D03*
Y287500D02*
D03*
Y167500D02*
D03*
Y47500D02*
D03*
X70000Y407500D02*
D03*
X85000Y377500D02*
D03*
X70000Y347500D02*
D03*
X85000Y317500D02*
D03*
X70000Y287500D02*
D03*
X85000Y257500D02*
D03*
X70000Y227500D02*
D03*
X85000Y197500D02*
D03*
X70000Y167500D02*
D03*
X85000Y137500D02*
D03*
X70000Y107500D02*
D03*
X85000Y77500D02*
D03*
X40000Y407500D02*
D03*
X55000Y377500D02*
D03*
X40000Y347500D02*
D03*
X55000Y317500D02*
D03*
X40000Y287500D02*
D03*
X55000Y257500D02*
D03*
X40000Y227500D02*
D03*
X55000Y197500D02*
D03*
X40000Y167500D02*
D03*
X55000Y137500D02*
D03*
X40000Y107500D02*
D03*
X337500Y317500D02*
D03*
X262500Y75000D02*
D03*
X560000Y172500D02*
D03*
X600000Y217500D02*
D03*
X252500Y242500D02*
D03*
Y257500D02*
D03*
X662500Y397500D02*
D03*
X682500Y376750D02*
D03*
Y387500D02*
D03*
Y398250D02*
D03*
Y413500D02*
D03*
X669500Y346500D02*
D03*
X752000Y380000D02*
D03*
X671000Y364000D02*
D03*
X682500Y365500D02*
D03*
X752000Y372000D02*
D03*
X520000Y395000D02*
D03*
X417500Y382500D02*
D03*
X580000Y350000D02*
D03*
X595000D02*
D03*
X395000Y337500D02*
D03*
X352500Y382500D02*
D03*
X385000Y177500D02*
D03*
X382500Y167500D02*
D03*
X345000Y145000D02*
D03*
X595000Y474776D02*
D03*
X580000D02*
D03*
X520000Y435000D02*
D03*
X432500D02*
D03*
X485000Y105000D02*
D03*
X472500D02*
D03*
X447500D02*
D03*
X422500D02*
D03*
X405000D02*
D03*
X385000Y435000D02*
D03*
X390000Y330000D02*
D03*
X367500Y435000D02*
D03*
X382500Y294000D02*
D03*
X370457Y213942D02*
D03*
X372500Y105000D02*
D03*
X875500Y406500D02*
D03*
X883500D02*
D03*
X817500D02*
D03*
X798500D02*
D03*
X867500D02*
D03*
X833500D02*
D03*
X873500Y313500D02*
D03*
X865500D02*
D03*
X881500D02*
D03*
X831500D02*
D03*
X796500D02*
D03*
X815500D02*
D03*
X865000Y220000D02*
D03*
X970000Y167500D02*
D03*
X912500D02*
D03*
X867500Y155000D02*
D03*
X802500Y145000D02*
D03*
X867500Y122500D02*
D03*
X970000Y102500D02*
D03*
X938941Y102461D02*
D03*
X867500Y47500D02*
D03*
X835000Y12500D02*
D03*
X725000Y100277D02*
D03*
X695000Y115000D02*
D03*
X725000Y85118D02*
D03*
X662500Y99800D02*
D03*
Y85318D02*
D03*
X725000Y71370D02*
D03*
X695000Y52500D02*
D03*
X662500Y71103D02*
D03*
X575000Y12500D02*
D03*
X435000Y330000D02*
D03*
X228294Y426979D02*
D03*
Y351979D02*
D03*
X425000Y330000D02*
D03*
X228294Y376979D02*
D03*
Y401979D02*
D03*
X507500Y317500D02*
D03*
X470000Y255000D02*
D03*
X390000Y282500D02*
D03*
X228294Y276979D02*
D03*
X227849Y326749D02*
D03*
X390000Y262500D02*
D03*
X228294Y251979D02*
D03*
X157416Y430458D02*
D03*
X208682Y312500D02*
D03*
X162500Y337500D02*
D03*
X467500Y210000D02*
D03*
X427500Y205000D02*
D03*
X390000Y242500D02*
D03*
Y224660D02*
D03*
X228294Y226979D02*
D03*
Y176979D02*
D03*
Y151979D02*
D03*
X557500Y72500D02*
D03*
X505000Y55000D02*
D03*
X330000Y135000D02*
D03*
X228294Y126979D02*
D03*
X208682Y212500D02*
D03*
X162393Y237379D02*
D03*
X160459Y143177D02*
D03*
X208682Y112500D02*
D03*
X209246Y95352D02*
D03*
X208682Y37500D02*
D03*
X161793Y55779D02*
D03*
X851500Y359500D02*
D03*
X850500Y406500D02*
D03*
X868500Y359500D02*
D03*
X884500D02*
D03*
X849500Y266500D02*
D03*
X848500Y313500D02*
D03*
X882500Y266500D02*
D03*
X866500D02*
D03*
X755000Y305000D02*
D03*
X722500Y365000D02*
D03*
X580000Y315000D02*
D03*
X452500Y297500D02*
D03*
X462500Y325000D02*
D03*
X550261Y291381D02*
D03*
X502110Y255588D02*
D03*
X512877Y209125D02*
D03*
X807500Y267500D02*
D03*
X817500D02*
D03*
X827500D02*
D03*
X868500Y67500D02*
D03*
X835000Y32500D02*
D03*
X755000Y212500D02*
D03*
X565000Y152500D02*
D03*
X540000Y325000D02*
D03*
X507500Y302500D02*
D03*
X595000Y315000D02*
D03*
X262519Y411769D02*
D03*
X262500Y387500D02*
D03*
X752500Y135000D02*
D03*
X502500Y272500D02*
D03*
X470000Y240000D02*
D03*
X605000Y257500D02*
D03*
X625000Y237500D02*
D03*
X672500Y217500D02*
D03*
X814050Y359941D02*
D03*
X827500Y360000D02*
D03*
X800000D02*
D03*
X255000Y55000D02*
D03*
X262500Y302500D02*
D03*
X432500Y285000D02*
D03*
Y245000D02*
D03*
X262500Y237500D02*
D03*
X432500Y272500D02*
D03*
Y260000D02*
D03*
X262500Y197500D02*
D03*
Y222500D02*
D03*
Y277500D02*
D03*
Y327500D02*
D03*
X202500Y62500D02*
D03*
X367500Y295000D02*
D03*
X262500Y137500D02*
D03*
Y172500D02*
D03*
Y262500D02*
D03*
Y362500D02*
D03*
X262561Y88179D02*
D03*
X262500Y112500D02*
D03*
D61*
X872500Y372700D02*
D03*
Y395000D02*
D03*
%TF.MD5,ef026ace64fb64c740b29f59a6fff5e3*%
M02*
