G04*
G04 #@! TF.GenerationSoftware,Altium Limited,Altium Designer,26.3.0 (6)*
G04*
G04 Layer_Color=65535*
%FSAX44Y44*%
%MOMM*%
G71*
G04*
G04 #@! TF.SameCoordinates,D01139EA-58D9-4255-9234-CF23B70757F6*
G04*
G04*
G04 #@! TF.FilePolarity,Positive*
G04*
G01*
G75*
%ADD10C,0.2500*%
%ADD11C,0.2000*%
%ADD12C,0.6000*%
%ADD13C,0.1270*%
%ADD14C,0.2540*%
D10*
X00701250Y00375000D02*
G03*
X00701250Y00375000I-00001250J00000000D01*
G01*
X00908750Y00195000D02*
G03*
X00908750Y00195000I-00001250J00000000D01*
G01*
X00914000Y00102350D02*
G03*
X00914000Y00102350I-00001250J00000000D01*
G01*
X00532250Y00141950D02*
G03*
X00532250Y00141950I-00001250J00000000D01*
G01*
X00830250Y00073050D02*
G03*
X00830250Y00073050I-00001250J00000000D01*
G01*
X00913970Y00372340D02*
G03*
X00913970Y00372340I-00001250J00000000D01*
G01*
X00953750Y00334500D02*
G03*
X00953750Y00334500I-00001250J00000000D01*
G01*
X00338000Y00294750D02*
G03*
X00338000Y00294750I-00001250J00000000D01*
G01*
X00863500Y00281000D02*
G03*
X00863500Y00281000I-00001250J00000000D01*
G01*
X00865750Y00374000D02*
G03*
X00865750Y00374000I-00001250J00000000D01*
G01*
D11*
X00783000Y00008300D02*
G03*
X00783000Y00008300I-00001000J00000000D01*
G01*
X00552700Y00460000D02*
G03*
X00552700Y00460000I-00012700J00000000D01*
G01*
X00159800Y00444000D02*
G03*
X00159800Y00444000I-00001000J00000000D01*
G01*
Y00256500D02*
G03*
X00159800Y00256500I-00001000J00000000D01*
G01*
Y00069000D02*
G03*
X00159800Y00069000I-00001000J00000000D01*
G01*
Y00356500D02*
G03*
X00159800Y00356500I-00001000J00000000D01*
G01*
Y00156500D02*
G03*
X00159800Y00156500I-00001000J00000000D01*
G01*
X00315400Y00449800D02*
X00370000D01*
Y00475200D01*
X00315400D02*
X00370000D01*
X00315400Y00449800D02*
Y00475200D01*
X00214681Y00453189D02*
X00241906D01*
X00214681Y00471811D02*
X00241906D01*
X00663541Y00340209D02*
Y00368791D01*
X00641459Y00340209D02*
Y00368791D01*
X00672000Y00405000D02*
X00693000D01*
X00672000Y00370000D02*
X00693000D01*
X00652000Y00461500D02*
X00669000D01*
X00652053Y00445427D02*
X00669053D01*
X00680888Y00338311D02*
X00704112D01*
X00680888Y00320689D02*
X00704112D01*
X00764281Y00389479D02*
Y00423521D01*
X00740719Y00389479D02*
Y00423521D01*
X00710719Y00370479D02*
Y00404521D01*
X00734281Y00370479D02*
Y00404521D01*
X00681947Y00359573D02*
X00698947D01*
X00682000Y00343500D02*
X00699000D01*
X00646672Y00423439D02*
X00674794D01*
X00646672Y00441561D02*
X00674794D01*
X00653030Y00382803D02*
Y00400303D01*
X00636000Y00382750D02*
Y00400250D01*
X00687471Y00443541D02*
X00716054D01*
X00687471Y00421459D02*
X00716054D01*
X00892050Y00199500D02*
X00892950D01*
X00892050Y00190500D02*
X00892950D01*
X00942750Y00088600D02*
X00955250D01*
X00984750D02*
X00992000D01*
Y00180000D01*
X00942750D02*
X00955250D01*
X00984750D02*
X00992000D01*
X00474600Y00024800D02*
Y00050200D01*
X00554600D01*
Y00024800D02*
Y00050200D01*
X00474600Y00024800D02*
X00554600D01*
X00518500Y00134000D02*
X00522200D01*
X00542400D02*
X00547600D01*
X00567800D02*
X00571500D01*
Y00081000D02*
Y00134000D01*
X00518500Y00081000D02*
X00522200D01*
X00542400D02*
X00547600D01*
X00567800D02*
X00571500D01*
X00518500D02*
Y00134000D01*
X00837800Y00081000D02*
X00841500D01*
X00812400D02*
X00817600D01*
X00788500D02*
X00792200D01*
X00788500D02*
Y00134000D01*
X00837800D02*
X00841500D01*
X00812400D02*
X00817600D01*
X00788500D02*
X00792200D01*
X00841500Y00081000D02*
Y00134000D01*
X00839000Y00056000D02*
X00856000D01*
X00839000Y00039000D02*
X00856000D01*
X00840000Y00059250D02*
X00857000D01*
X00840000Y00075750D02*
X00857000D01*
X00802250Y00010500D02*
Y00029500D01*
X00787750Y00010500D02*
Y00029500D01*
X00824750Y00019750D02*
Y00025250D01*
X00810250Y00019750D02*
Y00025250D01*
X00508250Y00209000D02*
Y00226000D01*
X00491750Y00209000D02*
Y00226000D01*
X00479250Y00239000D02*
Y00256000D01*
X00495750Y00239000D02*
Y00256000D01*
X00917000Y00402000D02*
Y00412000D01*
X00916997Y00412002D02*
X00992997D01*
X00993000Y00352999D02*
Y00412000D01*
X00917000Y00352999D02*
Y00363000D01*
Y00352999D02*
X00993000D01*
X00985500Y00203500D02*
Y00330500D01*
X00919500Y00203500D02*
X00934750D01*
X00970250D02*
X00985500D01*
X00919500D02*
Y00330500D01*
X00934750D01*
X00970250D02*
X00985500D01*
X00876226Y00208219D02*
X00910267D01*
X00876226Y00231781D02*
X00910267D01*
X00879000Y00147000D02*
X00896000D01*
X00878947Y00163073D02*
X00895947D01*
X00879000Y00114500D02*
X00896000D01*
X00878947Y00130573D02*
X00895947D01*
X00529250Y00274000D02*
Y00291000D01*
X00545750Y00274000D02*
Y00291000D01*
X00349000Y00204000D02*
Y00296000D01*
X00441000Y00204000D02*
Y00296000D01*
X00349000D02*
X00441000D01*
X00349000Y00204000D02*
X00441000D01*
X00484000Y00301500D02*
Y00318500D01*
X00501000Y00301500D02*
Y00318500D01*
X00329000Y00163500D02*
X00346000D01*
X00329000Y00146500D02*
X00346000D01*
X00356500Y00129000D02*
X00373500D01*
X00356500Y00146000D02*
X00373500D01*
X00392250Y00144750D02*
X00397750D01*
X00392250Y00130250D02*
X00397750D01*
X00431000Y00139000D02*
Y00156000D01*
X00414000Y00139000D02*
Y00156000D01*
X00457021Y00132760D02*
Y00139733D01*
X00437979Y00132760D02*
Y00139733D01*
X00481000Y00139000D02*
Y00156000D01*
X00464000Y00139000D02*
Y00156000D01*
X00444250Y00349000D02*
Y00366000D01*
X00460750Y00349000D02*
Y00366000D01*
X00376500Y00349000D02*
Y00366000D01*
X00393500Y00349000D02*
Y00366000D01*
X00416500Y00361000D02*
X00433500D01*
X00416500Y00344000D02*
X00433500D01*
X00351500Y00376000D02*
X00368500D01*
X00351500Y00359000D02*
X00368500D01*
X00321250D02*
X00338750D01*
X00321197Y00376030D02*
X00338697D01*
X00324500Y00341500D02*
X00340500D01*
X00324500Y00358500D02*
X00340500D01*
X00797750Y00287250D02*
Y00292750D01*
X00812250Y00287250D02*
Y00292750D01*
X00834250Y00275250D02*
X00841750D01*
X00829250Y00287750D02*
Y00293250D01*
X00834250Y00305750D02*
X00841750D01*
X00870250Y00287750D02*
Y00293250D01*
X00884750Y00287750D02*
Y00293250D01*
X00799750Y00380750D02*
Y00386250D01*
X00814250Y00380750D02*
Y00386250D01*
X00836250Y00368250D02*
X00843750D01*
X00831250Y00380750D02*
Y00386250D01*
X00836250Y00398750D02*
X00843750D01*
X00871000Y00372000D02*
Y00389000D01*
X00888000Y00372000D02*
Y00389000D01*
X00095400Y00122700D02*
X00150000D01*
X00095400Y00097300D02*
Y00122700D01*
Y00097300D02*
X00150000D01*
Y00122700D01*
X00095400Y00162700D02*
X00150000D01*
X00095400Y00137300D02*
Y00162700D01*
Y00137300D02*
X00150000D01*
Y00162700D01*
X00095400Y00202700D02*
X00150000D01*
X00095400Y00177300D02*
Y00202700D01*
Y00177300D02*
X00150000D01*
Y00202700D01*
X00095400Y00242700D02*
X00150000D01*
X00095400Y00217300D02*
Y00242700D01*
Y00217300D02*
X00150000D01*
Y00242700D01*
X00095400Y00282700D02*
X00150000D01*
X00095400Y00257300D02*
Y00282700D01*
Y00257300D02*
X00150000D01*
Y00282700D01*
X00095400Y00322700D02*
X00150000D01*
X00095400Y00297300D02*
Y00322700D01*
Y00297300D02*
X00150000D01*
Y00322700D01*
X00095400Y00362700D02*
X00150000D01*
X00095400Y00337300D02*
Y00362700D01*
Y00337300D02*
X00150000D01*
Y00362700D01*
X00095400Y00082700D02*
X00150000D01*
X00095400Y00057300D02*
Y00082700D01*
Y00057300D02*
X00150000D01*
Y00082700D01*
X00095400Y00442700D02*
X00150000D01*
X00095400Y00417300D02*
Y00442700D01*
Y00417300D02*
X00150000D01*
Y00442700D01*
X00095400Y00402700D02*
X00150000D01*
X00095400Y00377300D02*
Y00402700D01*
Y00377300D02*
X00150000D01*
Y00402700D01*
X00214681Y00046811D02*
X00241906D01*
X00214681Y00028189D02*
X00241906D01*
X00214681Y00096811D02*
X00241906D01*
X00214681Y00078189D02*
X00241906D01*
X00214681Y00121811D02*
X00241906D01*
X00214681Y00103189D02*
X00241906D01*
X00214681Y00221811D02*
X00241906D01*
X00214681Y00203189D02*
X00241906D01*
X00214681Y00146811D02*
X00241906D01*
X00214681Y00128189D02*
X00241906D01*
X00214681Y00171811D02*
X00241906D01*
X00214681Y00153189D02*
X00241906D01*
X00214681Y00196811D02*
X00241906D01*
X00214681Y00178189D02*
X00241906D01*
X00214681Y00246811D02*
X00241906D01*
X00214681Y00228189D02*
X00241906D01*
X00214681Y00271811D02*
X00241906D01*
X00214681Y00253189D02*
X00241906D01*
X00214681Y00296811D02*
X00241906D01*
X00214681Y00278189D02*
X00241906D01*
X00214681Y00321811D02*
X00241906D01*
X00214681Y00303189D02*
X00241906D01*
X00214681Y00346811D02*
X00241906D01*
X00214681Y00328189D02*
X00241906D01*
X00214681Y00371811D02*
X00241906D01*
X00214681Y00353189D02*
X00241906D01*
X00214681Y00396811D02*
X00241906D01*
X00214681Y00378189D02*
X00241906D01*
X00214681Y00421811D02*
X00241906D01*
X00214681Y00403189D02*
X00241906D01*
X00214674Y00071811D02*
X00241898D01*
X00214674Y00053189D02*
X00241898D01*
X00214681Y00446811D02*
X00241906D01*
X00214681Y00428189D02*
X00241906D01*
X00534000Y00160750D02*
X00551000D01*
X00534000Y00144250D02*
X00551000D01*
X00386165Y00040331D02*
X00384498Y00041997D01*
X00381166D01*
X00379500Y00040331D01*
Y00033666D01*
X00381166Y00032000D01*
X00384498D01*
X00386165Y00033666D01*
Y00036998D01*
X00382832D01*
X00389497Y00032000D02*
Y00041997D01*
X00396161Y00032000D01*
Y00041997D01*
X00399494D02*
Y00032000D01*
X00404492D01*
X00406158Y00033666D01*
Y00040331D01*
X00404492Y00041997D01*
X00399494D01*
X00409490Y00036998D02*
X00416155D01*
X00419487Y00032000D02*
Y00041997D01*
X00424486D01*
X00426152Y00040331D01*
Y00036998D01*
X00424486Y00035332D01*
X00419487D01*
X00422819D02*
X00426152Y00032000D01*
X00429484Y00041997D02*
X00436148Y00032000D01*
Y00041997D02*
X00429484Y00032000D01*
X00439481Y00036998D02*
X00446145D01*
X00449478Y00041997D02*
X00456142D01*
X00452810D01*
Y00032000D01*
X00459474Y00041997D02*
X00466139Y00032000D01*
Y00041997D02*
X00459474Y00032000D01*
X00377000Y00466997D02*
Y00457000D01*
X00381998D01*
X00383665Y00458666D01*
Y00460332D01*
X00381998Y00461998D01*
X00377000D01*
X00381998D01*
X00383665Y00463665D01*
Y00465331D01*
X00381998Y00466997D01*
X00377000D01*
X00391995D02*
X00388663D01*
X00386997Y00465331D01*
Y00458666D01*
X00388663Y00457000D01*
X00391995D01*
X00393661Y00458666D01*
Y00465331D01*
X00391995Y00466997D01*
X00396994D02*
Y00458666D01*
X00398660Y00457000D01*
X00401992D01*
X00403658Y00458666D01*
Y00466997D01*
X00406990D02*
X00413655D01*
X00410323D01*
Y00457000D01*
X00416987Y00461998D02*
X00423652D01*
X00426984Y00466997D02*
Y00457000D01*
X00431982D01*
X00433648Y00458666D01*
Y00460332D01*
X00431982Y00461998D01*
X00426984D01*
X00431982D01*
X00433648Y00463665D01*
Y00465331D01*
X00431982Y00466997D01*
X00426984D01*
X00436981D02*
X00440313D01*
X00438647D01*
Y00457000D01*
X00436981D01*
X00440313D01*
X00445311D02*
Y00466997D01*
X00451976Y00457000D01*
Y00466997D01*
X00566165Y00465331D02*
X00564498Y00466997D01*
X00561166D01*
X00559500Y00465331D01*
Y00458666D01*
X00561166Y00457000D01*
X00564498D01*
X00566165Y00458666D01*
Y00461998D01*
X00562832D01*
X00569497Y00457000D02*
Y00466997D01*
X00576161Y00457000D01*
Y00466997D01*
X00579494D02*
Y00457000D01*
X00584492D01*
X00586158Y00458666D01*
Y00465331D01*
X00584492Y00466997D01*
X00579494D01*
X00774500Y00237831D02*
X00776166Y00239497D01*
X00779498D01*
X00781164Y00237831D01*
Y00236164D01*
X00779498Y00234498D01*
X00777832D01*
X00779498D01*
X00781164Y00232832D01*
Y00231166D01*
X00779498Y00229500D01*
X00776166D01*
X00774500Y00231166D01*
X00784497Y00236164D02*
X00787829Y00229500D01*
X00791161Y00236164D01*
X00794494Y00237831D02*
X00796160Y00239497D01*
X00799492D01*
X00801158Y00237831D01*
Y00236164D01*
X00799492Y00234498D01*
X00797826D01*
X00799492D01*
X00801158Y00232832D01*
Y00231166D01*
X00799492Y00229500D01*
X00796160D01*
X00794494Y00231166D01*
X00557000Y00366997D02*
Y00357000D01*
X00561998D01*
X00563665Y00358666D01*
Y00365331D01*
X00561998Y00366997D01*
X00557000D01*
X00566997D02*
Y00360332D01*
X00570329Y00357000D01*
X00573661Y00360332D01*
Y00366997D01*
X00576994D02*
Y00357000D01*
X00581992D01*
X00583658Y00358666D01*
Y00365331D01*
X00581992Y00366997D01*
X00576994D01*
X00586990D02*
Y00357000D01*
X00591989D01*
X00593655Y00358666D01*
Y00365331D01*
X00591989Y00366997D01*
X00586990D01*
X00557000Y00392000D02*
Y00398665D01*
X00560332Y00401997D01*
X00563665Y00398665D01*
Y00392000D01*
Y00396998D01*
X00557000D01*
X00566997Y00401997D02*
Y00395332D01*
X00570329Y00392000D01*
X00573661Y00395332D01*
Y00401997D01*
X00576994D02*
Y00392000D01*
X00581992D01*
X00583658Y00393666D01*
Y00400331D01*
X00581992Y00401997D01*
X00576994D01*
X00586990D02*
Y00392000D01*
X00591989D01*
X00593655Y00393666D01*
Y00400331D01*
X00591989Y00401997D01*
X00586990D01*
X00557000Y00419500D02*
Y00426165D01*
X00560332Y00429497D01*
X00563665Y00426165D01*
Y00419500D01*
Y00424498D01*
X00557000D01*
X00566997Y00429497D02*
Y00422832D01*
X00570329Y00419500D01*
X00573661Y00422832D01*
Y00429497D01*
X00583658Y00427831D02*
X00581992Y00429497D01*
X00578660D01*
X00576994Y00427831D01*
Y00426165D01*
X00578660Y00424498D01*
X00581992D01*
X00583658Y00422832D01*
Y00421166D01*
X00581992Y00419500D01*
X00578660D01*
X00576994Y00421166D01*
X00593655Y00427831D02*
X00591989Y00429497D01*
X00588657D01*
X00586990Y00427831D01*
Y00426165D01*
X00588657Y00424498D01*
X00591989D01*
X00593655Y00422832D01*
Y00421166D01*
X00591989Y00419500D01*
X00588657D01*
X00586990Y00421166D01*
X00774500Y00266997D02*
Y00260332D01*
X00777832Y00257000D01*
X00781164Y00260332D01*
Y00266997D01*
X00784497D02*
X00787829D01*
X00786163D01*
Y00257000D01*
X00784497D01*
X00787829D01*
X00792827D02*
Y00266997D01*
X00799492Y00257000D01*
Y00266997D01*
X00084500Y00469497D02*
Y00459500D01*
X00089498D01*
X00091165Y00461166D01*
Y00462832D01*
X00089498Y00464498D01*
X00084500D01*
X00089498D01*
X00091165Y00466165D01*
Y00467831D01*
X00089498Y00469497D01*
X00084500D01*
X00094497D02*
X00097829D01*
X00096163D01*
Y00459500D01*
X00094497D01*
X00097829D01*
X00102827D02*
Y00466165D01*
X00106160Y00469497D01*
X00109492Y00466165D01*
Y00459500D01*
Y00464498D01*
X00102827D01*
X00119489Y00467831D02*
X00117823Y00469497D01*
X00114490D01*
X00112824Y00467831D01*
Y00466165D01*
X00114490Y00464498D01*
X00117823D01*
X00119489Y00462832D01*
Y00461166D01*
X00117823Y00459500D01*
X00114490D01*
X00112824Y00461166D01*
X00139482Y00467831D02*
X00137816Y00469497D01*
X00134484D01*
X00132818Y00467831D01*
Y00461166D01*
X00134484Y00459500D01*
X00137816D01*
X00139482Y00461166D01*
Y00464498D01*
X00136150D01*
X00142815Y00459500D02*
Y00469497D01*
X00149479Y00459500D01*
Y00469497D01*
X00152811D02*
Y00459500D01*
X00157810D01*
X00159476Y00461166D01*
Y00467831D01*
X00157810Y00469497D01*
X00152811D01*
X00084500Y00034500D02*
Y00044497D01*
X00089498D01*
X00091165Y00042831D01*
Y00039498D01*
X00089498Y00037832D01*
X00084500D01*
X00087832D02*
X00091165Y00034500D01*
X00101161Y00044497D02*
X00094497D01*
Y00034500D01*
X00101161D01*
X00094497Y00039498D02*
X00097829D01*
X00111158Y00044497D02*
X00104494D01*
Y00039498D01*
X00107826D01*
X00104494D01*
Y00034500D01*
X00131152Y00042831D02*
X00129486Y00044497D01*
X00126153D01*
X00124487Y00042831D01*
Y00041164D01*
X00126153Y00039498D01*
X00129486D01*
X00131152Y00037832D01*
Y00036166D01*
X00129486Y00034500D01*
X00126153D01*
X00124487Y00036166D01*
X00134484Y00034500D02*
Y00044497D01*
X00139482D01*
X00141148Y00042831D01*
Y00039498D01*
X00139482Y00037832D01*
X00134484D01*
X00137816D02*
X00141148Y00034500D01*
X00144481Y00044497D02*
Y00034500D01*
X00149479D01*
X00151145Y00036166D01*
Y00037832D01*
X00149479Y00039498D01*
X00144481D01*
X00149479D01*
X00151145Y00041164D01*
Y00042831D01*
X00149479Y00044497D01*
X00144481D01*
X00161142Y00034500D02*
X00154477D01*
X00161142Y00041164D01*
Y00042831D01*
X00159476Y00044497D01*
X00156144D01*
X00154477Y00042831D01*
X00032000Y00392831D02*
X00033666Y00394497D01*
X00036998D01*
X00038665Y00392831D01*
Y00391165D01*
X00036998Y00389498D01*
X00038665Y00387832D01*
Y00386166D01*
X00036998Y00384500D01*
X00033666D01*
X00032000Y00386166D01*
Y00387832D01*
X00033666Y00389498D01*
X00032000Y00391165D01*
Y00392831D01*
X00033666Y00389498D02*
X00036998D01*
X00041997D02*
X00048661D01*
X00045329Y00392831D02*
Y00386166D01*
X00061990Y00392831D02*
X00063657Y00394497D01*
X00066989D01*
X00068655Y00392831D01*
Y00391165D01*
X00066989Y00389498D01*
X00068655Y00387832D01*
Y00386166D01*
X00066989Y00384500D01*
X00063657D01*
X00061990Y00386166D01*
Y00387832D01*
X00063657Y00389498D01*
X00061990Y00391165D01*
Y00392831D01*
X00063657Y00389498D02*
X00066989D01*
X00071987D02*
X00078652D01*
X00032000Y00354497D02*
X00038665D01*
Y00352831D01*
X00032000Y00346166D01*
Y00344500D01*
X00041997Y00349498D02*
X00048661D01*
X00045329Y00352831D02*
Y00346166D01*
X00061990Y00354497D02*
X00068655D01*
Y00352831D01*
X00061990Y00346166D01*
Y00344500D01*
X00071987Y00349498D02*
X00078652D01*
X00038665Y00314497D02*
X00035332Y00312831D01*
X00032000Y00309498D01*
Y00306166D01*
X00033666Y00304500D01*
X00036998D01*
X00038665Y00306166D01*
Y00307832D01*
X00036998Y00309498D01*
X00032000D01*
X00041997D02*
X00048661D01*
X00045329Y00312831D02*
Y00306166D01*
X00068655Y00314497D02*
X00065323Y00312831D01*
X00061990Y00309498D01*
Y00306166D01*
X00063657Y00304500D01*
X00066989D01*
X00068655Y00306166D01*
Y00307832D01*
X00066989Y00309498D01*
X00061990D01*
X00071987D02*
X00078652D01*
X00038665Y00274497D02*
X00032000D01*
Y00269498D01*
X00035332Y00271164D01*
X00036998D01*
X00038665Y00269498D01*
Y00266166D01*
X00036998Y00264500D01*
X00033666D01*
X00032000Y00266166D01*
X00041997Y00269498D02*
X00048661D01*
X00045329Y00272831D02*
Y00266166D01*
X00068655Y00274497D02*
X00061990D01*
Y00269498D01*
X00065323Y00271164D01*
X00066989D01*
X00068655Y00269498D01*
Y00266166D01*
X00066989Y00264500D01*
X00063657D01*
X00061990Y00266166D01*
X00071987Y00269498D02*
X00078652D01*
X00036998Y00224500D02*
Y00234497D01*
X00032000Y00229498D01*
X00038665D01*
X00041997D02*
X00048661D01*
X00045329Y00232831D02*
Y00226166D01*
X00066989Y00224500D02*
Y00234497D01*
X00061990Y00229498D01*
X00068655D01*
X00071987D02*
X00078652D01*
X00032000Y00192831D02*
X00033666Y00194497D01*
X00036998D01*
X00038665Y00192831D01*
Y00191164D01*
X00036998Y00189498D01*
X00035332D01*
X00036998D01*
X00038665Y00187832D01*
Y00186166D01*
X00036998Y00184500D01*
X00033666D01*
X00032000Y00186166D01*
X00041997Y00189498D02*
X00048661D01*
X00045329Y00192831D02*
Y00186166D01*
X00061990Y00192831D02*
X00063657Y00194497D01*
X00066989D01*
X00068655Y00192831D01*
Y00191164D01*
X00066989Y00189498D01*
X00065323D01*
X00066989D01*
X00068655Y00187832D01*
Y00186166D01*
X00066989Y00184500D01*
X00063657D01*
X00061990Y00186166D01*
X00071987Y00189498D02*
X00078652D01*
X00038665Y00144500D02*
X00032000D01*
X00038665Y00151165D01*
Y00152831D01*
X00036998Y00154497D01*
X00033666D01*
X00032000Y00152831D01*
X00041997Y00149498D02*
X00048661D01*
X00045329Y00152831D02*
Y00146166D01*
X00068655Y00144500D02*
X00061990D01*
X00068655Y00151165D01*
Y00152831D01*
X00066989Y00154497D01*
X00063657D01*
X00061990Y00152831D01*
X00071987Y00149498D02*
X00078652D01*
X00032000Y00104500D02*
X00035332D01*
X00033666D01*
Y00114497D01*
X00032000Y00112831D01*
X00040331Y00109498D02*
X00046995D01*
X00043663Y00112831D02*
Y00106166D01*
X00060324Y00104500D02*
X00063656D01*
X00061990D01*
Y00114497D01*
X00060324Y00112831D01*
X00068655Y00109498D02*
X00075319D01*
X00584212Y00213133D02*
Y00204802D01*
X00585878Y00203136D01*
X00589210D01*
X00590877Y00204802D01*
Y00213133D01*
X00600873D02*
X00594209D01*
Y00208134D01*
X00597541Y00209800D01*
X00599207D01*
X00600873Y00208134D01*
Y00204802D01*
X00599207Y00203136D01*
X00595875D01*
X00594209Y00204802D01*
X00174169Y00092498D02*
Y00082502D01*
X00179168D01*
X00180834Y00084168D01*
Y00090832D01*
X00179168Y00092498D01*
X00174169D01*
X00190831D02*
X00184166D01*
Y00087500D01*
X00187498Y00089166D01*
X00189165D01*
X00190831Y00087500D01*
Y00084168D01*
X00189165Y00082502D01*
X00185832D01*
X00184166Y00084168D01*
X00174169Y00179998D02*
Y00170002D01*
X00179168D01*
X00180834Y00171668D01*
Y00178332D01*
X00179168Y00179998D01*
X00174169D01*
X00189165Y00170002D02*
Y00179998D01*
X00184166Y00175000D01*
X00190831D01*
X00174169Y00279998D02*
Y00270002D01*
X00179168D01*
X00180834Y00271668D01*
Y00278332D01*
X00179168Y00279998D01*
X00174169D01*
X00184166Y00278332D02*
X00185832Y00279998D01*
X00189165D01*
X00190831Y00278332D01*
Y00276666D01*
X00189165Y00275000D01*
X00187498D01*
X00189165D01*
X00190831Y00273334D01*
Y00271668D01*
X00189165Y00270002D01*
X00185832D01*
X00184166Y00271668D01*
X00174169Y00379998D02*
Y00370002D01*
X00179168D01*
X00180834Y00371668D01*
Y00378332D01*
X00179168Y00379998D01*
X00174169D01*
X00190831Y00370002D02*
X00184166D01*
X00190831Y00376666D01*
Y00378332D01*
X00189165Y00379998D01*
X00185832D01*
X00184166Y00378332D01*
X00175835Y00467498D02*
Y00457502D01*
X00180834D01*
X00182500Y00459168D01*
Y00465832D01*
X00180834Y00467498D01*
X00175835D01*
X00185832Y00457502D02*
X00189165D01*
X00187498D01*
Y00467498D01*
X00185832Y00465832D01*
X00324169Y00312498D02*
Y00304168D01*
X00325835Y00302502D01*
X00329168D01*
X00330834Y00304168D01*
Y00312498D01*
X00339165Y00302502D02*
Y00312498D01*
X00334166Y00307500D01*
X00340831D01*
X00831669Y00421498D02*
Y00413168D01*
X00833335Y00411502D01*
X00836668D01*
X00838334Y00413168D01*
Y00421498D01*
X00841666Y00419832D02*
X00843332Y00421498D01*
X00846665D01*
X00848331Y00419832D01*
Y00418166D01*
X00846665Y00416500D01*
X00844998D01*
X00846665D01*
X00848331Y00414834D01*
Y00413168D01*
X00846665Y00411502D01*
X00843332D01*
X00841666Y00413168D01*
X00829669Y00327998D02*
Y00319668D01*
X00831336Y00318002D01*
X00834668D01*
X00836334Y00319668D01*
Y00327998D01*
X00846331Y00318002D02*
X00839666D01*
X00846331Y00324666D01*
Y00326332D01*
X00844665Y00327998D01*
X00841332D01*
X00839666Y00326332D01*
X00650835Y00417498D02*
Y00409168D01*
X00652502Y00407502D01*
X00655834D01*
X00657500Y00409168D01*
Y00417498D01*
X00660832Y00407502D02*
X00664165D01*
X00662498D01*
Y00417498D01*
X00660832Y00415832D01*
X00495835Y00145832D02*
X00494169Y00147498D01*
X00490837D01*
X00489171Y00145832D01*
Y00144166D01*
X00490837Y00142500D01*
X00494169D01*
X00495835Y00140834D01*
Y00139168D01*
X00494169Y00137502D01*
X00490837D01*
X00489171Y00139168D01*
X00499168Y00147498D02*
Y00137502D01*
X00502500Y00140834D01*
X00505832Y00137502D01*
Y00147498D01*
X00509165Y00145832D02*
X00510831Y00147498D01*
X00514163D01*
X00515829Y00145832D01*
Y00144166D01*
X00514163Y00142500D01*
X00512497D01*
X00514163D01*
X00515829Y00140834D01*
Y00139168D01*
X00514163Y00137502D01*
X00510831D01*
X00509165Y00139168D01*
X00820835Y00148332D02*
X00819169Y00149998D01*
X00815837D01*
X00814171Y00148332D01*
Y00146666D01*
X00815837Y00145000D01*
X00819169D01*
X00820835Y00143334D01*
Y00141668D01*
X00819169Y00140002D01*
X00815837D01*
X00814171Y00141668D01*
X00824168Y00149998D02*
Y00140002D01*
X00827500Y00143334D01*
X00830832Y00140002D01*
Y00149998D01*
X00840829Y00140002D02*
X00834165D01*
X00840829Y00146666D01*
Y00148332D01*
X00839163Y00149998D01*
X00835831D01*
X00834165Y00148332D01*
X00927502Y00345832D02*
X00925835Y00347498D01*
X00922503D01*
X00920837Y00345832D01*
Y00344166D01*
X00922503Y00342500D01*
X00925835D01*
X00927502Y00340834D01*
Y00339168D01*
X00925835Y00337502D01*
X00922503D01*
X00920837Y00339168D01*
X00930834Y00347498D02*
Y00337502D01*
X00934166Y00340834D01*
X00937498Y00337502D01*
Y00347498D01*
X00940831Y00337502D02*
X00944163D01*
X00942497D01*
Y00347498D01*
X00940831Y00345832D01*
X00488337Y00190002D02*
Y00199998D01*
X00493335D01*
X00495002Y00198332D01*
Y00195000D01*
X00493335Y00193334D01*
X00488337D01*
X00491669D02*
X00495002Y00190002D01*
X00498334Y00198332D02*
X00500000Y00199998D01*
X00503332D01*
X00504998Y00198332D01*
Y00196666D01*
X00503332Y00195000D01*
X00501666D01*
X00503332D01*
X00504998Y00193334D01*
Y00191668D01*
X00503332Y00190002D01*
X00500000D01*
X00498334Y00191668D01*
X00508331Y00190002D02*
X00511663D01*
X00509997D01*
Y00199998D01*
X00508331Y00198332D01*
X00474171Y00265002D02*
Y00274998D01*
X00479169D01*
X00480835Y00273332D01*
Y00270000D01*
X00479169Y00268334D01*
X00474171D01*
X00477503D02*
X00480835Y00265002D01*
X00484168Y00273332D02*
X00485834Y00274998D01*
X00489166D01*
X00490832Y00273332D01*
Y00271666D01*
X00489166Y00270000D01*
X00487500D01*
X00489166D01*
X00490832Y00268334D01*
Y00266668D01*
X00489166Y00265002D01*
X00485834D01*
X00484168Y00266668D01*
X00494165Y00273332D02*
X00495831Y00274998D01*
X00499163D01*
X00500829Y00273332D01*
Y00266668D01*
X00499163Y00265002D01*
X00495831D01*
X00494165Y00266668D01*
Y00273332D01*
X00457498Y00389171D02*
X00447502D01*
Y00394169D01*
X00449168Y00395835D01*
X00452500D01*
X00454166Y00394169D01*
Y00389171D01*
Y00392503D02*
X00457498Y00395835D01*
Y00405832D02*
Y00399168D01*
X00450834Y00405832D01*
X00449168D01*
X00447502Y00404166D01*
Y00400834D01*
X00449168Y00399168D01*
X00455832Y00409165D02*
X00457498Y00410831D01*
Y00414163D01*
X00455832Y00415829D01*
X00449168D01*
X00447502Y00414163D01*
Y00410831D01*
X00449168Y00409165D01*
X00450834D01*
X00452500Y00410831D01*
Y00415829D01*
X00524171Y00300002D02*
Y00309998D01*
X00529169D01*
X00530835Y00308332D01*
Y00305000D01*
X00529169Y00303334D01*
X00524171D01*
X00527503D02*
X00530835Y00300002D01*
X00540832D02*
X00534168D01*
X00540832Y00306666D01*
Y00308332D01*
X00539166Y00309998D01*
X00535834D01*
X00534168Y00308332D01*
X00544165D02*
X00545831Y00309998D01*
X00549163D01*
X00550829Y00308332D01*
Y00306666D01*
X00549163Y00305000D01*
X00550829Y00303334D01*
Y00301668D01*
X00549163Y00300002D01*
X00545831D01*
X00544165Y00301668D01*
Y00303334D01*
X00545831Y00305000D01*
X00544165Y00306666D01*
Y00308332D01*
X00545831Y00305000D02*
X00549163D01*
X00274171Y00032502D02*
Y00042498D01*
X00279169D01*
X00280835Y00040832D01*
Y00037500D01*
X00279169Y00035834D01*
X00274171D01*
X00277503D02*
X00280835Y00032502D01*
X00290832D02*
X00284168D01*
X00290832Y00039166D01*
Y00040832D01*
X00289166Y00042498D01*
X00285834D01*
X00284168Y00040832D01*
X00294165Y00042498D02*
X00300829D01*
Y00040832D01*
X00294165Y00034168D01*
Y00032502D01*
X00275004Y00457502D02*
Y00467498D01*
X00280002D01*
X00281669Y00465832D01*
Y00462500D01*
X00280002Y00460834D01*
X00275004D01*
X00278336D02*
X00281669Y00457502D01*
X00285001D02*
X00288333D01*
X00286667D01*
Y00467498D01*
X00285001Y00465832D01*
X00293332D02*
X00294998Y00467498D01*
X00298330D01*
X00299996Y00465832D01*
Y00459168D01*
X00298330Y00457502D01*
X00294998D01*
X00293332Y00459168D01*
Y00465832D01*
X00274171Y00082502D02*
Y00092498D01*
X00279169D01*
X00280835Y00090832D01*
Y00087500D01*
X00279169Y00085834D01*
X00274171D01*
X00277503D02*
X00280835Y00082502D01*
X00290832D02*
X00284168D01*
X00290832Y00089166D01*
Y00090832D01*
X00289166Y00092498D01*
X00285834D01*
X00284168Y00090832D01*
X00300829Y00092498D02*
X00294165D01*
Y00087500D01*
X00297497Y00089166D01*
X00299163D01*
X00300829Y00087500D01*
Y00084168D01*
X00299163Y00082502D01*
X00295831D01*
X00294165Y00084168D01*
X00274171Y00107502D02*
Y00117498D01*
X00279169D01*
X00280835Y00115832D01*
Y00112500D01*
X00279169Y00110834D01*
X00274171D01*
X00277503D02*
X00280835Y00107502D01*
X00290832D02*
X00284168D01*
X00290832Y00114166D01*
Y00115832D01*
X00289166Y00117498D01*
X00285834D01*
X00284168Y00115832D01*
X00299163Y00107502D02*
Y00117498D01*
X00294165Y00112500D01*
X00300829D01*
X00274171Y00132502D02*
Y00142498D01*
X00279169D01*
X00280835Y00140832D01*
Y00137500D01*
X00279169Y00135834D01*
X00274171D01*
X00277503D02*
X00280835Y00132502D01*
X00290832D02*
X00284168D01*
X00290832Y00139166D01*
Y00140832D01*
X00289166Y00142498D01*
X00285834D01*
X00284168Y00140832D01*
X00294165D02*
X00295831Y00142498D01*
X00299163D01*
X00300829Y00140832D01*
Y00139166D01*
X00299163Y00137500D01*
X00297497D01*
X00299163D01*
X00300829Y00135834D01*
Y00134168D01*
X00299163Y00132502D01*
X00295831D01*
X00294165Y00134168D01*
X00274171Y00160002D02*
Y00169998D01*
X00279169D01*
X00280835Y00168332D01*
Y00165000D01*
X00279169Y00163334D01*
X00274171D01*
X00277503D02*
X00280835Y00160002D01*
X00290832D02*
X00284168D01*
X00290832Y00166666D01*
Y00168332D01*
X00289166Y00169998D01*
X00285834D01*
X00284168Y00168332D01*
X00300829Y00160002D02*
X00294165D01*
X00300829Y00166666D01*
Y00168332D01*
X00299163Y00169998D01*
X00295831D01*
X00294165Y00168332D01*
X00275837Y00182502D02*
Y00192498D01*
X00280835D01*
X00282502Y00190832D01*
Y00187500D01*
X00280835Y00185834D01*
X00275837D01*
X00279169D02*
X00282502Y00182502D01*
X00292498D02*
X00285834D01*
X00292498Y00189166D01*
Y00190832D01*
X00290832Y00192498D01*
X00287500D01*
X00285834Y00190832D01*
X00295831Y00182502D02*
X00299163D01*
X00297497D01*
Y00192498D01*
X00295831Y00190832D01*
X00274171Y00207502D02*
Y00217498D01*
X00279169D01*
X00280835Y00215832D01*
Y00212500D01*
X00279169Y00210834D01*
X00274171D01*
X00277503D02*
X00280835Y00207502D01*
X00290832D02*
X00284168D01*
X00290832Y00214166D01*
Y00215832D01*
X00289166Y00217498D01*
X00285834D01*
X00284168Y00215832D01*
X00294165D02*
X00295831Y00217498D01*
X00299163D01*
X00300829Y00215832D01*
Y00209168D01*
X00299163Y00207502D01*
X00295831D01*
X00294165Y00209168D01*
Y00215832D01*
X00275004Y00232502D02*
Y00242498D01*
X00280002D01*
X00281669Y00240832D01*
Y00237500D01*
X00280002Y00235834D01*
X00275004D01*
X00278336D02*
X00281669Y00232502D01*
X00285001D02*
X00288333D01*
X00286667D01*
Y00242498D01*
X00285001Y00240832D01*
X00293332Y00234168D02*
X00294998Y00232502D01*
X00298330D01*
X00299996Y00234168D01*
Y00240832D01*
X00298330Y00242498D01*
X00294998D01*
X00293332Y00240832D01*
Y00239166D01*
X00294998Y00237500D01*
X00299996D01*
X00275004Y00257502D02*
Y00267498D01*
X00280002D01*
X00281669Y00265832D01*
Y00262500D01*
X00280002Y00260834D01*
X00275004D01*
X00278336D02*
X00281669Y00257502D01*
X00285001D02*
X00288333D01*
X00286667D01*
Y00267498D01*
X00285001Y00265832D01*
X00293332D02*
X00294998Y00267498D01*
X00298330D01*
X00299996Y00265832D01*
Y00264166D01*
X00298330Y00262500D01*
X00299996Y00260834D01*
Y00259168D01*
X00298330Y00257502D01*
X00294998D01*
X00293332Y00259168D01*
Y00260834D01*
X00294998Y00262500D01*
X00293332Y00264166D01*
Y00265832D01*
X00294998Y00262500D02*
X00298330D01*
X00275004Y00282502D02*
Y00292498D01*
X00280002D01*
X00281669Y00290832D01*
Y00287500D01*
X00280002Y00285834D01*
X00275004D01*
X00278336D02*
X00281669Y00282502D01*
X00285001D02*
X00288333D01*
X00286667D01*
Y00292498D01*
X00285001Y00290832D01*
X00293332Y00292498D02*
X00299996D01*
Y00290832D01*
X00293332Y00284168D01*
Y00282502D01*
X00275004Y00307502D02*
Y00317498D01*
X00280002D01*
X00281669Y00315832D01*
Y00312500D01*
X00280002Y00310834D01*
X00275004D01*
X00278336D02*
X00281669Y00307502D01*
X00285001D02*
X00288333D01*
X00286667D01*
Y00317498D01*
X00285001Y00315832D01*
X00299996Y00317498D02*
X00296664Y00315832D01*
X00293332Y00312500D01*
Y00309168D01*
X00294998Y00307502D01*
X00298330D01*
X00299996Y00309168D01*
Y00310834D01*
X00298330Y00312500D01*
X00293332D01*
X00275004Y00332502D02*
Y00342498D01*
X00280002D01*
X00281669Y00340832D01*
Y00337500D01*
X00280002Y00335834D01*
X00275004D01*
X00278336D02*
X00281669Y00332502D01*
X00285001D02*
X00288333D01*
X00286667D01*
Y00342498D01*
X00285001Y00340832D01*
X00299996Y00342498D02*
X00293332D01*
Y00337500D01*
X00296664Y00339166D01*
X00298330D01*
X00299996Y00337500D01*
Y00334168D01*
X00298330Y00332502D01*
X00294998D01*
X00293332Y00334168D01*
X00275004Y00357502D02*
Y00367498D01*
X00280002D01*
X00281669Y00365832D01*
Y00362500D01*
X00280002Y00360834D01*
X00275004D01*
X00278336D02*
X00281669Y00357502D01*
X00285001D02*
X00288333D01*
X00286667D01*
Y00367498D01*
X00285001Y00365832D01*
X00298330Y00357502D02*
Y00367498D01*
X00293332Y00362500D01*
X00299996D01*
X00275004Y00382502D02*
Y00392498D01*
X00280002D01*
X00281669Y00390832D01*
Y00387500D01*
X00280002Y00385834D01*
X00275004D01*
X00278336D02*
X00281669Y00382502D01*
X00285001D02*
X00288333D01*
X00286667D01*
Y00392498D01*
X00285001Y00390832D01*
X00293332D02*
X00294998Y00392498D01*
X00298330D01*
X00299996Y00390832D01*
Y00389166D01*
X00298330Y00387500D01*
X00296664D01*
X00298330D01*
X00299996Y00385834D01*
Y00384168D01*
X00298330Y00382502D01*
X00294998D01*
X00293332Y00384168D01*
X00275004Y00407502D02*
Y00417498D01*
X00280002D01*
X00281669Y00415832D01*
Y00412500D01*
X00280002Y00410834D01*
X00275004D01*
X00278336D02*
X00281669Y00407502D01*
X00285001D02*
X00288333D01*
X00286667D01*
Y00417498D01*
X00285001Y00415832D01*
X00299996Y00407502D02*
X00293332D01*
X00299996Y00414166D01*
Y00415832D01*
X00298330Y00417498D01*
X00294998D01*
X00293332Y00415832D01*
X00276670Y00432502D02*
Y00442498D01*
X00281669D01*
X00283335Y00440832D01*
Y00437500D01*
X00281669Y00435834D01*
X00276670D01*
X00280002D02*
X00283335Y00432502D01*
X00286667D02*
X00289999D01*
X00288333D01*
Y00442498D01*
X00286667Y00440832D01*
X00294998Y00432502D02*
X00298330D01*
X00296664D01*
Y00442498D01*
X00294998Y00440832D01*
X00274171Y00057502D02*
Y00067498D01*
X00279169D01*
X00280835Y00065832D01*
Y00062500D01*
X00279169Y00060834D01*
X00274171D01*
X00277503D02*
X00280835Y00057502D01*
X00290832D02*
X00284168D01*
X00290832Y00064166D01*
Y00065832D01*
X00289166Y00067498D01*
X00285834D01*
X00284168Y00065832D01*
X00300829Y00067498D02*
X00297497Y00065832D01*
X00294165Y00062500D01*
Y00059168D01*
X00295831Y00057502D01*
X00299163D01*
X00300829Y00059168D01*
Y00060834D01*
X00299163Y00062500D01*
X00294165D01*
X00324169Y00325002D02*
Y00334998D01*
X00329168D01*
X00330834Y00333332D01*
Y00330000D01*
X00329168Y00328334D01*
X00324169D01*
X00327502D02*
X00330834Y00325002D01*
X00334166Y00326668D02*
X00335832Y00325002D01*
X00339165D01*
X00340831Y00326668D01*
Y00333332D01*
X00339165Y00334998D01*
X00335832D01*
X00334166Y00333332D01*
Y00331666D01*
X00335832Y00330000D01*
X00340831D01*
X00529602Y00168846D02*
Y00178843D01*
X00534600D01*
X00536267Y00177177D01*
Y00173844D01*
X00534600Y00172178D01*
X00529602D01*
X00532934D02*
X00536267Y00168846D01*
X00539599Y00177177D02*
X00541265Y00178843D01*
X00544597D01*
X00546263Y00177177D01*
Y00175511D01*
X00544597Y00173844D01*
X00546263Y00172178D01*
Y00170512D01*
X00544597Y00168846D01*
X00541265D01*
X00539599Y00170512D01*
Y00172178D01*
X00541265Y00173844D01*
X00539599Y00175511D01*
Y00177177D01*
X00541265Y00173844D02*
X00544597D01*
X00867669Y00062502D02*
Y00072498D01*
X00872668D01*
X00874334Y00070832D01*
Y00067500D01*
X00872668Y00065834D01*
X00867669D01*
X00871002D02*
X00874334Y00062502D01*
X00877666Y00072498D02*
X00884331D01*
Y00070832D01*
X00877666Y00064168D01*
Y00062502D01*
X00879169Y00167502D02*
Y00177498D01*
X00884168D01*
X00885834Y00175832D01*
Y00172500D01*
X00884168Y00170834D01*
X00879169D01*
X00882502D02*
X00885834Y00167502D01*
X00895831Y00177498D02*
X00892498Y00175832D01*
X00889166Y00172500D01*
Y00169168D01*
X00890832Y00167502D01*
X00894165D01*
X00895831Y00169168D01*
Y00170834D01*
X00894165Y00172500D01*
X00889166D01*
X00879169Y00100002D02*
Y00109998D01*
X00884168D01*
X00885834Y00108332D01*
Y00105000D01*
X00884168Y00103334D01*
X00879169D01*
X00882502D02*
X00885834Y00100002D01*
X00895831Y00109998D02*
X00889166D01*
Y00105000D01*
X00892498Y00106666D01*
X00894165D01*
X00895831Y00105000D01*
Y00101668D01*
X00894165Y00100002D01*
X00890832D01*
X00889166Y00101668D01*
X00619169Y00428502D02*
Y00438498D01*
X00624168D01*
X00625834Y00436832D01*
Y00433500D01*
X00624168Y00431834D01*
X00619169D01*
X00622502D02*
X00625834Y00428502D01*
X00634165D02*
Y00438498D01*
X00629166Y00433500D01*
X00635831D01*
X00619169Y00448502D02*
Y00458498D01*
X00624168D01*
X00625834Y00456832D01*
Y00453500D01*
X00624168Y00451834D01*
X00619169D01*
X00622502D02*
X00625834Y00448502D01*
X00629166Y00456832D02*
X00630832Y00458498D01*
X00634165D01*
X00635831Y00456832D01*
Y00455166D01*
X00634165Y00453500D01*
X00632498D01*
X00634165D01*
X00635831Y00451834D01*
Y00450168D01*
X00634165Y00448502D01*
X00630832D01*
X00629166Y00450168D01*
X00712669Y00345502D02*
Y00355498D01*
X00717668D01*
X00719334Y00353832D01*
Y00350500D01*
X00717668Y00348834D01*
X00712669D01*
X00716002D02*
X00719334Y00345502D01*
X00729331D02*
X00722666D01*
X00729331Y00352166D01*
Y00353832D01*
X00727665Y00355498D01*
X00724332D01*
X00722666Y00353832D01*
X00714836Y00324502D02*
Y00334498D01*
X00719834D01*
X00721500Y00332832D01*
Y00329500D01*
X00719834Y00327834D01*
X00714836D01*
X00718168D02*
X00721500Y00324502D01*
X00724832D02*
X00728165D01*
X00726498D01*
Y00334498D01*
X00724832Y00332832D01*
X00923334Y00197498D02*
X00920002D01*
X00921668D01*
Y00189168D01*
X00920002Y00187502D01*
X00918335D01*
X00916669Y00189168D01*
X00933331Y00187502D02*
X00926666D01*
X00933331Y00194166D01*
Y00195832D01*
X00931665Y00197498D01*
X00928332D01*
X00926666Y00195832D01*
X00975000Y00387498D02*
X00971668D01*
X00973334D01*
Y00379168D01*
X00971668Y00377502D01*
X00970002D01*
X00968335Y00379168D01*
X00978332Y00377502D02*
X00981665D01*
X00979998D01*
Y00387498D01*
X00978332Y00385832D01*
X00471668Y00335835D02*
X00470002Y00334169D01*
Y00330837D01*
X00471668Y00329171D01*
X00478332D01*
X00479998Y00330837D01*
Y00334169D01*
X00478332Y00335835D01*
X00479998Y00344166D02*
X00470002D01*
X00475000Y00339168D01*
Y00345832D01*
X00470002Y00349165D02*
Y00355829D01*
X00471668D01*
X00478332Y00349165D01*
X00479998D01*
X00489168Y00335835D02*
X00487502Y00334169D01*
Y00330837D01*
X00489168Y00329171D01*
X00495832D01*
X00497498Y00330837D01*
Y00334169D01*
X00495832Y00335835D01*
X00497498Y00344166D02*
X00487502D01*
X00492500Y00339168D01*
Y00345832D01*
X00487502Y00355829D02*
X00489168Y00352497D01*
X00492500Y00349165D01*
X00495832D01*
X00497498Y00350831D01*
Y00354163D01*
X00495832Y00355829D01*
X00494166D01*
X00492500Y00354163D01*
Y00349165D01*
X00353335Y00333332D02*
X00351669Y00334998D01*
X00348337D01*
X00346671Y00333332D01*
Y00326668D01*
X00348337Y00325002D01*
X00351669D01*
X00353335Y00326668D01*
X00361666Y00325002D02*
Y00334998D01*
X00356668Y00330000D01*
X00363332D01*
X00373329Y00334998D02*
X00366665D01*
Y00330000D01*
X00369997Y00331666D01*
X00371663D01*
X00373329Y00330000D01*
Y00326668D01*
X00371663Y00325002D01*
X00368331D01*
X00366665Y00326668D01*
X00356668Y00395835D02*
X00355002Y00394169D01*
Y00390837D01*
X00356668Y00389171D01*
X00363332D01*
X00364998Y00390837D01*
Y00394169D01*
X00363332Y00395835D01*
X00364998Y00404166D02*
X00355002D01*
X00360000Y00399168D01*
Y00405832D01*
X00364998Y00414163D02*
X00355002D01*
X00360000Y00409165D01*
Y00415829D01*
X00355835Y00078332D02*
X00354169Y00079998D01*
X00350837D01*
X00349171Y00078332D01*
Y00071668D01*
X00350837Y00070002D01*
X00354169D01*
X00355835Y00071668D01*
X00364166Y00070002D02*
Y00079998D01*
X00359168Y00075000D01*
X00365832D01*
X00369165Y00078332D02*
X00370831Y00079998D01*
X00374163D01*
X00375829Y00078332D01*
Y00076666D01*
X00374163Y00075000D01*
X00372497D01*
X00374163D01*
X00375829Y00073334D01*
Y00071668D01*
X00374163Y00070002D01*
X00370831D01*
X00369165Y00071668D01*
X00355835Y00093332D02*
X00354169Y00094998D01*
X00350837D01*
X00349171Y00093332D01*
Y00086668D01*
X00350837Y00085002D01*
X00354169D01*
X00355835Y00086668D01*
X00364166Y00085002D02*
Y00094998D01*
X00359168Y00090000D01*
X00365832D01*
X00375829Y00085002D02*
X00369165D01*
X00375829Y00091666D01*
Y00093332D01*
X00374163Y00094998D01*
X00370831D01*
X00369165Y00093332D01*
X00325002D02*
X00323335Y00094998D01*
X00320003D01*
X00318337Y00093332D01*
Y00086668D01*
X00320003Y00085002D01*
X00323335D01*
X00325002Y00086668D01*
X00333332Y00085002D02*
Y00094998D01*
X00328334Y00090000D01*
X00334998D01*
X00338331Y00085002D02*
X00341663D01*
X00339997D01*
Y00094998D01*
X00338331Y00093332D01*
X00323335Y00078332D02*
X00321669Y00079998D01*
X00318337D01*
X00316671Y00078332D01*
Y00071668D01*
X00318337Y00070002D01*
X00321669D01*
X00323335Y00071668D01*
X00331666Y00070002D02*
Y00079998D01*
X00326668Y00075000D01*
X00333332D01*
X00336665Y00078332D02*
X00338331Y00079998D01*
X00341663D01*
X00343329Y00078332D01*
Y00071668D01*
X00341663Y00070002D01*
X00338331D01*
X00336665Y00071668D01*
Y00078332D01*
X00421668Y00395835D02*
X00420002Y00394169D01*
Y00390837D01*
X00421668Y00389171D01*
X00428332D01*
X00429998Y00390837D01*
Y00394169D01*
X00428332Y00395835D01*
X00421668Y00399168D02*
X00420002Y00400834D01*
Y00404166D01*
X00421668Y00405832D01*
X00423334D01*
X00425000Y00404166D01*
Y00402500D01*
Y00404166D01*
X00426666Y00405832D01*
X00428332D01*
X00429998Y00404166D01*
Y00400834D01*
X00428332Y00399168D01*
Y00409165D02*
X00429998Y00410831D01*
Y00414163D01*
X00428332Y00415829D01*
X00421668D01*
X00420002Y00414163D01*
Y00410831D01*
X00421668Y00409165D01*
X00423334D01*
X00425000Y00410831D01*
Y00415829D01*
X00419168Y00075835D02*
X00417502Y00074169D01*
Y00070837D01*
X00419168Y00069171D01*
X00425832D01*
X00427498Y00070837D01*
Y00074169D01*
X00425832Y00075835D01*
X00419168Y00079168D02*
X00417502Y00080834D01*
Y00084166D01*
X00419168Y00085832D01*
X00420834D01*
X00422500Y00084166D01*
Y00082500D01*
Y00084166D01*
X00424166Y00085832D01*
X00425832D01*
X00427498Y00084166D01*
Y00080834D01*
X00425832Y00079168D01*
X00419168Y00089164D02*
X00417502Y00090831D01*
Y00094163D01*
X00419168Y00095829D01*
X00420834D01*
X00422500Y00094163D01*
X00424166Y00095829D01*
X00425832D01*
X00427498Y00094163D01*
Y00090831D01*
X00425832Y00089164D01*
X00424166D01*
X00422500Y00090831D01*
X00420834Y00089164D01*
X00419168D01*
X00422500Y00090831D02*
Y00094163D01*
X00399168Y00395835D02*
X00397502Y00394169D01*
Y00390837D01*
X00399168Y00389171D01*
X00405832D01*
X00407498Y00390837D01*
Y00394169D01*
X00405832Y00395835D01*
X00399168Y00399168D02*
X00397502Y00400834D01*
Y00404166D01*
X00399168Y00405832D01*
X00400834D01*
X00402500Y00404166D01*
Y00402500D01*
Y00404166D01*
X00404166Y00405832D01*
X00405832D01*
X00407498Y00404166D01*
Y00400834D01*
X00405832Y00399168D01*
X00397502Y00409165D02*
Y00415829D01*
X00399168D01*
X00405832Y00409165D01*
X00407498D01*
X00381668Y00395835D02*
X00380002Y00394169D01*
Y00390837D01*
X00381668Y00389171D01*
X00388332D01*
X00389998Y00390837D01*
Y00394169D01*
X00388332Y00395835D01*
X00381668Y00399168D02*
X00380002Y00400834D01*
Y00404166D01*
X00381668Y00405832D01*
X00383334D01*
X00385000Y00404166D01*
Y00402500D01*
Y00404166D01*
X00386666Y00405832D01*
X00388332D01*
X00389998Y00404166D01*
Y00400834D01*
X00388332Y00399168D01*
X00380002Y00415829D02*
X00381668Y00412497D01*
X00385000Y00409165D01*
X00388332D01*
X00389998Y00410831D01*
Y00414163D01*
X00388332Y00415829D01*
X00386666D01*
X00385000Y00414163D01*
Y00409165D01*
X00469168Y00075835D02*
X00467502Y00074169D01*
Y00070837D01*
X00469168Y00069171D01*
X00475832D01*
X00477498Y00070837D01*
Y00074169D01*
X00475832Y00075835D01*
X00469168Y00079168D02*
X00467502Y00080834D01*
Y00084166D01*
X00469168Y00085832D01*
X00470834D01*
X00472500Y00084166D01*
Y00082500D01*
Y00084166D01*
X00474166Y00085832D01*
X00475832D01*
X00477498Y00084166D01*
Y00080834D01*
X00475832Y00079168D01*
X00467502Y00095829D02*
Y00089164D01*
X00472500D01*
X00470834Y00092497D01*
Y00094163D01*
X00472500Y00095829D01*
X00475832D01*
X00477498Y00094163D01*
Y00090831D01*
X00475832Y00089164D01*
X00444168Y00075835D02*
X00442502Y00074169D01*
Y00070837D01*
X00444168Y00069171D01*
X00450832D01*
X00452498Y00070837D01*
Y00074169D01*
X00450832Y00075835D01*
X00444168Y00079168D02*
X00442502Y00080834D01*
Y00084166D01*
X00444168Y00085832D01*
X00445834D01*
X00447500Y00084166D01*
Y00082500D01*
Y00084166D01*
X00449166Y00085832D01*
X00450832D01*
X00452498Y00084166D01*
Y00080834D01*
X00450832Y00079168D01*
X00452498Y00094163D02*
X00442502D01*
X00447500Y00089164D01*
Y00095829D01*
X00388335Y00078332D02*
X00386669Y00079998D01*
X00383337D01*
X00381671Y00078332D01*
Y00071668D01*
X00383337Y00070002D01*
X00386669D01*
X00388335Y00071668D01*
X00391668Y00078332D02*
X00393334Y00079998D01*
X00396666D01*
X00398332Y00078332D01*
Y00076666D01*
X00396666Y00075000D01*
X00395000D01*
X00396666D01*
X00398332Y00073334D01*
Y00071668D01*
X00396666Y00070002D01*
X00393334D01*
X00391668Y00071668D01*
X00401665Y00078332D02*
X00403331Y00079998D01*
X00406663D01*
X00408329Y00078332D01*
Y00076666D01*
X00406663Y00075000D01*
X00404997D01*
X00406663D01*
X00408329Y00073334D01*
Y00071668D01*
X00406663Y00070002D01*
X00403331D01*
X00401665Y00071668D01*
X00388335Y00093332D02*
X00386669Y00094998D01*
X00383337D01*
X00381671Y00093332D01*
Y00086668D01*
X00383337Y00085002D01*
X00386669D01*
X00388335Y00086668D01*
X00391668Y00093332D02*
X00393334Y00094998D01*
X00396666D01*
X00398332Y00093332D01*
Y00091666D01*
X00396666Y00090000D01*
X00395000D01*
X00396666D01*
X00398332Y00088334D01*
Y00086668D01*
X00396666Y00085002D01*
X00393334D01*
X00391668Y00086668D01*
X00408329Y00085002D02*
X00401665D01*
X00408329Y00091666D01*
Y00093332D01*
X00406663Y00094998D01*
X00403331D01*
X00401665Y00093332D01*
X00326668Y00396669D02*
X00325002Y00395002D01*
Y00391670D01*
X00326668Y00390004D01*
X00333332D01*
X00334998Y00391670D01*
Y00395002D01*
X00333332Y00396669D01*
X00334998Y00400001D02*
Y00403333D01*
Y00401667D01*
X00325002D01*
X00326668Y00400001D01*
X00334998Y00413330D02*
X00325002D01*
X00330000Y00408331D01*
Y00414996D01*
X00789169Y00045832D02*
X00787502Y00047498D01*
X00784170D01*
X00782504Y00045832D01*
Y00039168D01*
X00784170Y00037502D01*
X00787502D01*
X00789169Y00039168D01*
X00792501Y00037502D02*
X00795833D01*
X00794167D01*
Y00047498D01*
X00792501Y00045832D01*
X00800832D02*
X00802498Y00047498D01*
X00805830D01*
X00807496Y00045832D01*
Y00044166D01*
X00805830Y00042500D01*
X00804164D01*
X00805830D01*
X00807496Y00040834D01*
Y00039168D01*
X00805830Y00037502D01*
X00802498D01*
X00800832Y00039168D01*
X00846668Y00018332D02*
X00845002Y00019998D01*
X00841670D01*
X00840004Y00018332D01*
Y00011668D01*
X00841670Y00010002D01*
X00845002D01*
X00846668Y00011668D01*
X00850001Y00010002D02*
X00853333D01*
X00851667D01*
Y00019998D01*
X00850001Y00018332D01*
X00864996Y00010002D02*
X00858332D01*
X00864996Y00016666D01*
Y00018332D01*
X00863330Y00019998D01*
X00859998D01*
X00858332Y00018332D01*
X00873335Y00050832D02*
X00871669Y00052498D01*
X00868336D01*
X00866670Y00050832D01*
Y00044168D01*
X00868336Y00042502D01*
X00871669D01*
X00873335Y00044168D01*
X00876667Y00042502D02*
X00879999D01*
X00878333D01*
Y00052498D01*
X00876667Y00050832D01*
X00884998Y00042502D02*
X00888330D01*
X00886664D01*
Y00052498D01*
X00884998Y00050832D01*
X00870668Y00419832D02*
X00869002Y00421498D01*
X00865670D01*
X00864004Y00419832D01*
Y00413168D01*
X00865670Y00411502D01*
X00869002D01*
X00870668Y00413168D01*
X00874001Y00411502D02*
X00877333D01*
X00875667D01*
Y00421498D01*
X00874001Y00419832D01*
X00882331D02*
X00883998Y00421498D01*
X00887330D01*
X00888996Y00419832D01*
Y00413168D01*
X00887330Y00411502D01*
X00883998D01*
X00882331Y00413168D01*
Y00419832D01*
X00805334D02*
X00803668Y00421498D01*
X00800335D01*
X00798669Y00419832D01*
Y00413168D01*
X00800335Y00411502D01*
X00803668D01*
X00805334Y00413168D01*
X00808666D02*
X00810332Y00411502D01*
X00813664D01*
X00815331Y00413168D01*
Y00419832D01*
X00813664Y00421498D01*
X00810332D01*
X00808666Y00419832D01*
Y00418166D01*
X00810332Y00416500D01*
X00815331D01*
X00803334Y00326332D02*
X00801668Y00327998D01*
X00798335D01*
X00796669Y00326332D01*
Y00319668D01*
X00798335Y00318002D01*
X00801668D01*
X00803334Y00319668D01*
X00806666Y00327998D02*
X00813331D01*
Y00326332D01*
X00806666Y00319668D01*
Y00318002D01*
X00875834Y00326332D02*
X00874168Y00327998D01*
X00870835D01*
X00869169Y00326332D01*
Y00319668D01*
X00870835Y00318002D01*
X00874168D01*
X00875834Y00319668D01*
X00885831Y00327998D02*
X00882498Y00326332D01*
X00879166Y00323000D01*
Y00319668D01*
X00880832Y00318002D01*
X00884165D01*
X00885831Y00319668D01*
Y00321334D01*
X00884165Y00323000D01*
X00879166D01*
X00700834Y00458332D02*
X00699168Y00459998D01*
X00695835D01*
X00694169Y00458332D01*
Y00451668D01*
X00695835Y00450002D01*
X00699168D01*
X00700834Y00451668D01*
X00710831Y00459998D02*
X00704166D01*
Y00455000D01*
X00707498Y00456666D01*
X00709165D01*
X00710831Y00455000D01*
Y00451668D01*
X00709165Y00450002D01*
X00705832D01*
X00704166Y00451668D01*
X00626834Y00349832D02*
X00625168Y00351498D01*
X00621836D01*
X00620169Y00349832D01*
Y00343168D01*
X00621836Y00341502D01*
X00625168D01*
X00626834Y00343168D01*
X00635164Y00341502D02*
Y00351498D01*
X00630166Y00346500D01*
X00636831D01*
X00750834Y00441832D02*
X00749168Y00443498D01*
X00745835D01*
X00744169Y00441832D01*
Y00435168D01*
X00745835Y00433502D01*
X00749168D01*
X00750834Y00435168D01*
X00754166Y00441832D02*
X00755832Y00443498D01*
X00759165D01*
X00760831Y00441832D01*
Y00440166D01*
X00759165Y00438500D01*
X00757498D01*
X00759165D01*
X00760831Y00436834D01*
Y00435168D01*
X00759165Y00433502D01*
X00755832D01*
X00754166Y00435168D01*
X00745334Y00353332D02*
X00743668Y00354998D01*
X00740335D01*
X00738669Y00353332D01*
Y00346668D01*
X00740335Y00345002D01*
X00743668D01*
X00745334Y00346668D01*
X00755331Y00345002D02*
X00748666D01*
X00755331Y00351666D01*
Y00353332D01*
X00753665Y00354998D01*
X00750332D01*
X00748666Y00353332D01*
X00624500Y00395832D02*
X00622834Y00397498D01*
X00619502D01*
X00617836Y00395832D01*
Y00389168D01*
X00619502Y00387502D01*
X00622834D01*
X00624500Y00389168D01*
X00627832Y00387502D02*
X00631165D01*
X00629498D01*
Y00397498D01*
X00627832Y00395832D01*
D12*
X00362000Y00286000D02*
G03*
X00362000Y00286000I-00003000J00000000D01*
G01*
D13*
X00590000Y00188400D02*
X00602450D01*
X00590000Y00181100D02*
Y00188400D01*
X00757550D02*
X00770000D01*
Y00181100D02*
Y00188400D01*
Y-00066600D02*
Y00000600D01*
X00590000Y-00066600D02*
Y00000600D01*
Y-00066600D02*
X00770000D01*
X00176250Y00425800D02*
X00188750D01*
X00176250Y00449200D02*
X00188750D01*
X00176250Y00238300D02*
X00188750D01*
X00176250Y00261700D02*
X00188750D01*
X00176250Y00050800D02*
X00188750D01*
X00176250Y00074200D02*
X00188750D01*
X00176250Y00361700D02*
X00188750D01*
X00176250Y00338300D02*
X00188750D01*
X00176250Y00161700D02*
X00188750D01*
X00176250Y00138300D02*
X00188750D01*
D14*
X00900040Y00357540D02*
X00910197D01*
X00900040Y00405118D02*
X00910197D01*
X00905118Y00410197D02*
Y00400040D01*
X00980040Y00342540D02*
X00990197D01*
X00980040Y00425118D02*
X00990197D01*
X00985118Y00430197D02*
Y00420040D01*
X00849804Y00202617D02*
Y00187383D01*
X00857422D01*
X00859961Y00189922D01*
Y00200078D01*
X00857422Y00202617D01*
X00849804D01*
X00865039D02*
X00875196D01*
Y00200078D01*
X00865039Y00189922D01*
Y00187383D01*
X00882913Y00254186D02*
X00880374Y00256725D01*
X00875295D01*
X00872756Y00254186D01*
Y00244029D01*
X00875295Y00241490D01*
X00880374D01*
X00882913Y00244029D01*
X00895609Y00241490D02*
Y00256725D01*
X00887991Y00249107D01*
X00898148D01*
X00903226Y00254186D02*
X00905765Y00256725D01*
X00910844D01*
X00913383Y00254186D01*
Y00251647D01*
X00910844Y00249107D01*
X00913383Y00246568D01*
Y00244029D01*
X00910844Y00241490D01*
X00905765D01*
X00903226Y00244029D01*
Y00246568D01*
X00905765Y00249107D01*
X00903226Y00251647D01*
Y00254186D01*
X00905765Y00249107D02*
X00910844D01*
M02*
