G04*
G04 #@! TF.GenerationSoftware,Altium Limited,Altium Designer,26.3.0 (6)*
G04*
G04 Layer_Color=32896*
%FSAX44Y44*%
%MOMM*%
G71*
G04*
G04 #@! TF.SameCoordinates,D01139EA-58D9-4255-9234-CF23B70757F6*
G04*
G04*
G04 #@! TF.FilePolarity,Positive*
G04*
G01*
G75*
%ADD10C,0.2500*%
%ADD11C,0.2000*%
%ADD14C,0.2540*%
G36*
X00873998Y00309974D02*
X00892834Y00282214D01*
X00882629D01*
X00868866Y00302451D01*
X00855044Y00282214D01*
X00844838D01*
X00863792Y00309974D01*
X00847288Y00334059D01*
X00857494D01*
X00868866Y00317438D01*
X00880179Y00334059D01*
X00890385D01*
X00873998Y00309974D01*
D02*
G37*
G36*
X00774856Y00282214D02*
X00752346Y00334059D01*
X00761210D01*
X00774856Y00302276D01*
X00788503Y00334059D01*
X00797367D01*
X00774856Y00282214D01*
D02*
G37*
G36*
X00841398D02*
X00832475D01*
X00827693Y00293353D01*
X00809964D01*
X00805182Y00282214D01*
X00796318D01*
X00818829Y00334059D01*
X00841398Y00282214D01*
D02*
G37*
G36*
X00748263D02*
X00740215D01*
Y00334059D01*
X00748263D01*
Y00282214D01*
D02*
G37*
G36*
X00728960D02*
X00699276D01*
Y00289504D01*
X00720912D01*
Y00305658D01*
X00703300D01*
Y00312948D01*
X00720912D01*
Y00326828D01*
X00699276D01*
Y00334059D01*
X00728960D01*
Y00282214D01*
D02*
G37*
G36*
X00690820D02*
X00682772D01*
Y00299768D01*
X00676765D01*
X00663701Y00282214D01*
X00654546D01*
X00668542Y00300934D01*
X00668425Y00300993D01*
X00668192Y00301051D01*
X00667784Y00301226D01*
X00667317Y00301459D01*
X00666734Y00301692D01*
X00666151Y00302042D01*
X00665568Y00302392D01*
X00664985Y00302742D01*
X00664926Y00302801D01*
X00664751Y00302917D01*
X00664460Y00303150D01*
X00664110Y00303442D01*
X00663293Y00304142D01*
X00662477Y00304900D01*
X00662360Y00305017D01*
X00662127Y00305308D01*
X00661777Y00305775D01*
X00661311Y00306416D01*
X00660844Y00307174D01*
X00660319Y00308107D01*
X00659794Y00309099D01*
X00659386Y00310207D01*
Y00310265D01*
X00659328Y00310324D01*
X00659269Y00310499D01*
X00659211Y00310732D01*
X00659036Y00311373D01*
X00658861Y00312190D01*
X00658686Y00313181D01*
X00658511Y00314289D01*
X00658395Y00315572D01*
X00658336Y00316855D01*
Y00316914D01*
Y00317030D01*
Y00317205D01*
Y00317497D01*
X00658395Y00317788D01*
Y00318197D01*
X00658453Y00319071D01*
X00658569Y00320121D01*
X00658803Y00321229D01*
X00659036Y00322395D01*
X00659386Y00323562D01*
Y00323620D01*
X00659444Y00323678D01*
X00659503Y00323853D01*
X00659561Y00324087D01*
X00659853Y00324670D01*
X00660144Y00325370D01*
X00660611Y00326245D01*
X00661135Y00327119D01*
X00661777Y00328052D01*
X00662477Y00328927D01*
X00662535Y00328985D01*
X00662768Y00329219D01*
X00663118Y00329627D01*
X00663643Y00330035D01*
X00664343Y00330560D01*
X00665160Y00331143D01*
X00666093Y00331785D01*
X00667201Y00332368D01*
X00667259D01*
X00667317Y00332426D01*
X00667551Y00332543D01*
X00667784Y00332601D01*
X00668075Y00332776D01*
X00668484Y00332893D01*
X00668892Y00333068D01*
X00669417Y00333184D01*
X00670000Y00333359D01*
X00670583Y00333476D01*
X00672041Y00333768D01*
X00673674Y00333942D01*
X00675482Y00334059D01*
X00690820D01*
Y00282214D01*
D02*
G37*
G36*
X00757011Y00220000D02*
X00748963D01*
Y00242394D01*
X00728202D01*
Y00220000D01*
X00720154D01*
Y00271845D01*
X00728202D01*
Y00249684D01*
X00748963D01*
Y00271845D01*
X00757011D01*
Y00220000D01*
D02*
G37*
G36*
X00783487Y00271787D02*
X00784246Y00271728D01*
X00785120Y00271612D01*
X00787045Y00271320D01*
X00787162D01*
X00787453Y00271262D01*
X00787978Y00271145D01*
X00788620Y00270970D01*
X00789378Y00270737D01*
X00790194Y00270504D01*
X00791944Y00269862D01*
X00792060Y00269804D01*
X00792352Y00269687D01*
X00792819Y00269454D01*
X00793402Y00269221D01*
X00794101Y00268871D01*
X00794801Y00268463D01*
X00796376Y00267471D01*
X00796492Y00267413D01*
X00796726Y00267238D01*
X00797134Y00266946D01*
X00797601Y00266538D01*
X00798184Y00266071D01*
X00798884Y00265547D01*
X00799525Y00264905D01*
X00800225Y00264264D01*
X00800283Y00264205D01*
X00800517Y00263972D01*
X00800866Y00263564D01*
X00801275Y00263097D01*
X00801799Y00262514D01*
X00802324Y00261873D01*
X00802908Y00261173D01*
X00803432Y00260415D01*
X00803491Y00260298D01*
X00803666Y00260065D01*
X00803899Y00259657D01*
X00804249Y00259073D01*
X00804657Y00258432D01*
X00805007Y00257674D01*
X00805415Y00256857D01*
X00805824Y00255982D01*
X00805882Y00255866D01*
X00805998Y00255574D01*
X00806173Y00255108D01*
X00806407Y00254524D01*
X00806640Y00253766D01*
X00806873Y00252950D01*
X00807106Y00252017D01*
X00807340Y00251084D01*
Y00250967D01*
X00807398Y00250617D01*
X00807456Y00250151D01*
X00807573Y00249451D01*
X00807631Y00248693D01*
X00807748Y00247818D01*
X00807806Y00246885D01*
Y00245893D01*
Y00245777D01*
Y00245427D01*
Y00244902D01*
X00807748Y00244260D01*
X00807690Y00243502D01*
X00807631Y00242628D01*
X00807340Y00240703D01*
Y00240586D01*
X00807223Y00240295D01*
X00807106Y00239770D01*
X00806932Y00239187D01*
X00806757Y00238429D01*
X00806465Y00237612D01*
X00805824Y00235863D01*
X00805765Y00235746D01*
X00805648Y00235454D01*
X00805415Y00234988D01*
X00805124Y00234405D01*
X00804774Y00233705D01*
X00804365Y00233005D01*
X00803432Y00231430D01*
X00803374Y00231314D01*
X00803199Y00231080D01*
X00802908Y00230672D01*
X00802499Y00230206D01*
X00802033Y00229622D01*
X00801508Y00228923D01*
X00800866Y00228281D01*
X00800225Y00227581D01*
X00800167Y00227523D01*
X00799933Y00227290D01*
X00799525Y00226940D01*
X00799059Y00226532D01*
X00798475Y00226007D01*
X00797834Y00225482D01*
X00797134Y00224899D01*
X00796376Y00224374D01*
X00796259Y00224316D01*
X00796026Y00224141D01*
X00795618Y00223907D01*
X00795035Y00223557D01*
X00794393Y00223149D01*
X00793635Y00222799D01*
X00792819Y00222391D01*
X00791944Y00221983D01*
X00791827Y00221924D01*
X00791535Y00221808D01*
X00791069Y00221633D01*
X00790427Y00221400D01*
X00789728Y00221166D01*
X00788911Y00220933D01*
X00787978Y00220700D01*
X00787045Y00220466D01*
X00786928D01*
X00786578Y00220408D01*
X00786112Y00220350D01*
X00785412Y00220233D01*
X00784654Y00220175D01*
X00783779Y00220058D01*
X00782846Y00220000D01*
X00781330D01*
X00780747Y00220058D01*
X00779988D01*
X00779055Y00220175D01*
X00778064Y00220292D01*
X00777014Y00220408D01*
X00775906Y00220641D01*
X00775848D01*
X00775789Y00220700D01*
X00775615D01*
X00775381Y00220758D01*
X00774856Y00220933D01*
X00774098Y00221166D01*
X00773282Y00221458D01*
X00772290Y00221808D01*
X00771299Y00222216D01*
X00770308Y00222683D01*
X00770249D01*
X00770191Y00222741D01*
X00769899Y00222916D01*
X00769433Y00223149D01*
X00768966Y00223382D01*
X00768908D01*
X00768850Y00223441D01*
X00768558Y00223674D01*
X00768092Y00223907D01*
X00767625Y00224257D01*
X00765759Y00225482D01*
Y00245252D01*
X00776314D01*
X00780397Y00237962D01*
X00773865D01*
Y00229972D01*
X00773982D01*
X00774040Y00229914D01*
X00774273Y00229797D01*
X00774681Y00229622D01*
X00775148Y00229448D01*
X00775673Y00229214D01*
X00776314Y00228981D01*
X00777772Y00228514D01*
X00777831D01*
X00778122Y00228456D01*
X00778531Y00228398D01*
X00778997Y00228281D01*
X00779639Y00228223D01*
X00780338Y00228106D01*
X00781855Y00228048D01*
X00782205D01*
X00782496Y00228106D01*
X00782788D01*
X00783196Y00228165D01*
X00784071Y00228223D01*
X00785120Y00228398D01*
X00786287Y00228689D01*
X00787512Y00228981D01*
X00788736Y00229448D01*
X00788794D01*
X00788853Y00229506D01*
X00789028Y00229564D01*
X00789261Y00229681D01*
X00789903Y00230031D01*
X00790661Y00230439D01*
X00791535Y00230964D01*
X00792527Y00231664D01*
X00793460Y00232422D01*
X00794451Y00233297D01*
Y00233355D01*
X00794568Y00233413D01*
X00794860Y00233763D01*
X00795326Y00234288D01*
X00795909Y00234988D01*
X00796551Y00235863D01*
X00797192Y00236796D01*
X00797775Y00237904D01*
X00798359Y00239070D01*
Y00239128D01*
X00798417Y00239245D01*
X00798475Y00239420D01*
X00798592Y00239653D01*
X00798650Y00239945D01*
X00798767Y00240295D01*
X00799059Y00241170D01*
X00799292Y00242161D01*
X00799525Y00243327D01*
X00799700Y00244552D01*
X00799758Y00245893D01*
Y00245952D01*
Y00246068D01*
Y00246243D01*
X00799700Y00246535D01*
Y00246826D01*
X00799642Y00247235D01*
X00799583Y00248109D01*
X00799408Y00249159D01*
X00799117Y00250326D01*
X00798825Y00251492D01*
X00798359Y00252717D01*
Y00252775D01*
X00798300Y00252892D01*
X00798242Y00253008D01*
X00798126Y00253242D01*
X00797775Y00253883D01*
X00797367Y00254641D01*
X00796842Y00255574D01*
X00796143Y00256507D01*
X00795326Y00257499D01*
X00794451Y00258490D01*
X00794393Y00258549D01*
X00794335Y00258607D01*
X00793985Y00258898D01*
X00793460Y00259365D01*
X00792819Y00259948D01*
X00791944Y00260590D01*
X00790952Y00261231D01*
X00789903Y00261873D01*
X00788736Y00262397D01*
X00788678D01*
X00788561Y00262456D01*
X00788386Y00262514D01*
X00788153Y00262631D01*
X00787861Y00262689D01*
X00787512Y00262806D01*
X00786637Y00263097D01*
X00785645Y00263331D01*
X00784479Y00263564D01*
X00783196Y00263739D01*
X00781855Y00263797D01*
X00781505D01*
X00781096Y00263739D01*
X00780572D01*
X00779988Y00263622D01*
X00779347Y00263564D01*
X00777889Y00263272D01*
X00777772D01*
X00777539Y00263214D01*
X00777189Y00263097D01*
X00776723Y00262981D01*
X00776139Y00262806D01*
X00775498Y00262572D01*
X00774157Y00262048D01*
X00770599Y00269279D01*
X00770716Y00269337D01*
X00771066Y00269512D01*
X00771591Y00269746D01*
X00772290Y00270037D01*
X00773107Y00270329D01*
X00774040Y00270679D01*
X00775090Y00270970D01*
X00776139Y00271203D01*
X00776198D01*
X00776256Y00271262D01*
X00776606Y00271320D01*
X00777189Y00271437D01*
X00777889Y00271553D01*
X00778764Y00271670D01*
X00779755Y00271728D01*
X00780747Y00271845D01*
X00782846D01*
X00783487Y00271787D01*
D02*
G37*
G36*
X00895751Y00220000D02*
X00886828D01*
X00882046Y00231139D01*
X00864317D01*
X00859535Y00220000D01*
X00850670D01*
X00873181Y00271845D01*
X00895751Y00220000D01*
D02*
G37*
G36*
X00831775Y00271787D02*
X00832417Y00271728D01*
X00833175Y00271670D01*
X00834050Y00271553D01*
X00834924Y00271320D01*
X00835799Y00271087D01*
X00835916Y00271029D01*
X00836207Y00270970D01*
X00836616Y00270795D01*
X00837199Y00270504D01*
X00837899Y00270212D01*
X00838598Y00269862D01*
X00839357Y00269396D01*
X00840115Y00268871D01*
X00840173Y00268813D01*
X00840348Y00268638D01*
X00840698Y00268404D01*
X00841048Y00268054D01*
X00841456Y00267646D01*
X00841923Y00267180D01*
X00842856Y00266013D01*
X00842914Y00265955D01*
X00843031Y00265722D01*
X00843264Y00265430D01*
X00843497Y00265022D01*
X00843789Y00264497D01*
X00844080Y00263914D01*
X00844605Y00262572D01*
Y00262514D01*
X00844722Y00262222D01*
X00844838Y00261873D01*
X00844955Y00261348D01*
X00845130Y00260765D01*
X00845247Y00260123D01*
X00845422Y00258723D01*
Y00258665D01*
Y00258374D01*
Y00258024D01*
X00845363Y00257499D01*
X00845305Y00256915D01*
X00845247Y00256274D01*
X00844955Y00254874D01*
X00844897Y00254758D01*
X00844838Y00254524D01*
X00844722Y00254116D01*
X00844489Y00253591D01*
X00844255Y00252950D01*
X00843905Y00252250D01*
X00843556Y00251550D01*
X00843089Y00250850D01*
X00843031Y00250792D01*
X00842856Y00250559D01*
X00842564Y00250209D01*
X00842156Y00249742D01*
X00841689Y00249217D01*
X00841164Y00248634D01*
X00840581Y00248109D01*
X00839881Y00247526D01*
X00839765Y00247468D01*
X00839531Y00247293D01*
X00839123Y00247001D01*
X00838540Y00246710D01*
X00837899Y00246302D01*
X00837141Y00245893D01*
X00836266Y00245485D01*
X00835333Y00245135D01*
X00835274D01*
X00835216Y00245077D01*
X00834866Y00244960D01*
X00834341Y00244844D01*
X00833641Y00244610D01*
X00832825Y00244377D01*
X00831892Y00244202D01*
X00830842Y00243969D01*
X00829734Y00243794D01*
X00829559D01*
X00829326Y00243736D01*
X00829034Y00243677D01*
X00828684Y00243619D01*
X00828276Y00243561D01*
X00827285Y00243327D01*
X00826235Y00243036D01*
X00825069Y00242686D01*
X00823960Y00242219D01*
X00822911Y00241636D01*
X00822852D01*
X00822794Y00241578D01*
X00822503Y00241345D01*
X00822036Y00240995D01*
X00821511Y00240528D01*
X00820986Y00239945D01*
X00820403Y00239303D01*
X00819995Y00238487D01*
X00819645Y00237612D01*
Y00237495D01*
X00819587Y00237262D01*
Y00236796D01*
Y00236271D01*
X00819645Y00235629D01*
X00819762Y00234871D01*
X00819937Y00234113D01*
X00820286Y00233297D01*
X00820345Y00233180D01*
X00820461Y00232947D01*
X00820695Y00232538D01*
X00821045Y00232014D01*
X00821511Y00231430D01*
X00822094Y00230847D01*
X00822794Y00230206D01*
X00823611Y00229622D01*
X00823669Y00229564D01*
X00823902Y00229448D01*
X00824252Y00229273D01*
X00824719Y00228981D01*
X00825244Y00228748D01*
X00825885Y00228456D01*
X00826585Y00228223D01*
X00827343Y00227990D01*
X00827460D01*
X00827693Y00227931D01*
X00828101Y00227873D01*
X00828626Y00227756D01*
X00829326Y00227698D01*
X00830026D01*
X00830842Y00227640D01*
X00831717Y00227698D01*
X00831833D01*
X00832008Y00227756D01*
X00832242D01*
X00832825Y00227873D01*
X00833583Y00227990D01*
X00834458Y00228223D01*
X00835508Y00228456D01*
X00836557Y00228806D01*
X00837724Y00229214D01*
X00837782D01*
X00837840Y00229273D01*
X00838015Y00229331D01*
X00838249Y00229448D01*
X00838832Y00229739D01*
X00839648Y00230147D01*
X00840581Y00230672D01*
X00841631Y00231255D01*
X00842739Y00232014D01*
X00843905Y00232830D01*
X00848454Y00226648D01*
X00848396Y00226590D01*
X00848279Y00226532D01*
X00848046Y00226357D01*
X00847754Y00226182D01*
X00847404Y00225890D01*
X00846938Y00225599D01*
X00846471Y00225307D01*
X00845947Y00224957D01*
X00844722Y00224199D01*
X00843381Y00223441D01*
X00841923Y00222683D01*
X00840406Y00222041D01*
X00840348D01*
X00840231Y00221983D01*
X00839998Y00221866D01*
X00839706Y00221808D01*
X00839357Y00221633D01*
X00838890Y00221516D01*
X00838423Y00221341D01*
X00837840Y00221166D01*
X00836674Y00220816D01*
X00835274Y00220525D01*
X00833816Y00220233D01*
X00832358Y00220058D01*
X00831717D01*
X00831367Y00220000D01*
X00829851D01*
X00829268Y00220058D01*
X00828509Y00220117D01*
X00827635Y00220175D01*
X00826643Y00220350D01*
X00825593Y00220525D01*
X00824544Y00220816D01*
X00824485D01*
X00824427Y00220875D01*
X00824077Y00220991D01*
X00823552Y00221166D01*
X00822852Y00221400D01*
X00822036Y00221749D01*
X00821161Y00222158D01*
X00820228Y00222683D01*
X00819295Y00223207D01*
X00819178Y00223266D01*
X00818945Y00223441D01*
X00818595Y00223732D01*
X00818070Y00224082D01*
X00817545Y00224549D01*
X00816904Y00225132D01*
X00816321Y00225715D01*
X00815738Y00226357D01*
X00815679Y00226415D01*
X00815446Y00226648D01*
X00815213Y00227057D01*
X00814805Y00227523D01*
X00814396Y00228106D01*
X00813988Y00228806D01*
X00813580Y00229506D01*
X00813172Y00230322D01*
X00813113Y00230439D01*
X00812997Y00230731D01*
X00812822Y00231139D01*
X00812647Y00231722D01*
X00812413Y00232422D01*
X00812238Y00233180D01*
X00812064Y00233996D01*
X00811947Y00234813D01*
Y00234930D01*
X00811889Y00235221D01*
Y00235688D01*
Y00236271D01*
Y00236971D01*
X00811947Y00237729D01*
X00812005Y00238545D01*
X00812180Y00239420D01*
Y00239537D01*
X00812297Y00239828D01*
X00812413Y00240236D01*
X00812647Y00240820D01*
X00812938Y00241520D01*
X00813288Y00242219D01*
X00813697Y00242977D01*
X00814163Y00243736D01*
X00814221Y00243852D01*
X00814396Y00244086D01*
X00814688Y00244494D01*
X00815096Y00244960D01*
X00815621Y00245543D01*
X00816204Y00246127D01*
X00816904Y00246768D01*
X00817662Y00247410D01*
X00817779Y00247468D01*
X00818012Y00247701D01*
X00818479Y00247934D01*
X00819062Y00248343D01*
X00819820Y00248751D01*
X00820636Y00249159D01*
X00821628Y00249567D01*
X00822619Y00249976D01*
X00822678D01*
X00822736Y00250034D01*
X00822911Y00250092D01*
X00823086Y00250151D01*
X00823669Y00250326D01*
X00824427Y00250559D01*
X00825360Y00250792D01*
X00826410Y00251025D01*
X00827576Y00251259D01*
X00828859Y00251434D01*
X00829034D01*
X00829209Y00251492D01*
X00829442Y00251550D01*
X00830084Y00251667D01*
X00830900Y00251842D01*
X00831833Y00252075D01*
X00832825Y00252425D01*
X00833758Y00252833D01*
X00834691Y00253300D01*
X00834808Y00253358D01*
X00835041Y00253591D01*
X00835449Y00253883D01*
X00835857Y00254291D01*
X00836382Y00254816D01*
X00836849Y00255458D01*
X00837257Y00256157D01*
X00837607Y00256915D01*
Y00256974D01*
Y00257032D01*
X00837665Y00257382D01*
X00837724Y00257849D01*
X00837782Y00258432D01*
Y00258490D01*
Y00258549D01*
X00837724Y00258957D01*
X00837607Y00259482D01*
X00837432Y00260065D01*
Y00260123D01*
X00837374Y00260181D01*
X00837199Y00260531D01*
X00836965Y00260998D01*
X00836616Y00261523D01*
Y00261581D01*
X00836499Y00261639D01*
X00836266Y00261931D01*
X00835857Y00262339D01*
X00835391Y00262806D01*
X00835333Y00262864D01*
X00835216Y00262922D01*
X00835041Y00263039D01*
X00834808Y00263156D01*
X00834166Y00263505D01*
X00833350Y00263797D01*
X00833291D01*
X00833117Y00263855D01*
X00832883Y00263914D01*
X00832592Y00264030D01*
X00832242Y00264089D01*
X00831775Y00264147D01*
X00830842Y00264205D01*
X00830551D01*
X00830201Y00264147D01*
X00829734Y00264089D01*
X00829209Y00264030D01*
X00828626Y00263914D01*
X00827226Y00263564D01*
X00827110D01*
X00826876Y00263447D01*
X00826526Y00263331D01*
X00826002Y00263156D01*
X00825418Y00262864D01*
X00824719Y00262572D01*
X00823261Y00261814D01*
X00819412Y00268346D01*
X00819470D01*
X00819528Y00268404D01*
X00819703Y00268521D01*
X00819937Y00268638D01*
X00820461Y00268929D01*
X00821219Y00269337D01*
X00822094Y00269746D01*
X00823086Y00270212D01*
X00824136Y00270620D01*
X00825244Y00270970D01*
X00825302D01*
X00825360Y00271029D01*
X00825710Y00271087D01*
X00826293Y00271262D01*
X00826993Y00271437D01*
X00827868Y00271553D01*
X00828801Y00271728D01*
X00829792Y00271787D01*
X00830842Y00271845D01*
X00831309D01*
X00831775Y00271787D01*
D02*
G37*
G36*
X00714322Y00220000D02*
X00705399D01*
X00700617Y00231139D01*
X00682888D01*
X00678106Y00220000D01*
X00669242D01*
X00691753Y00271845D01*
X00714322Y00220000D01*
D02*
G37*
G36*
X00663235D02*
X00655187D01*
Y00237554D01*
X00649180D01*
X00636117Y00220000D01*
X00626961D01*
X00640957Y00238720D01*
X00640841Y00238778D01*
X00640608Y00238837D01*
X00640199Y00239012D01*
X00639733Y00239245D01*
X00639150Y00239478D01*
X00638566Y00239828D01*
X00637983Y00240178D01*
X00637400Y00240528D01*
X00637342Y00240586D01*
X00637167Y00240703D01*
X00636875Y00240936D01*
X00636525Y00241228D01*
X00635709Y00241928D01*
X00634892Y00242686D01*
X00634776Y00242803D01*
X00634542Y00243094D01*
X00634192Y00243561D01*
X00633726Y00244202D01*
X00633259Y00244960D01*
X00632734Y00245893D01*
X00632210Y00246885D01*
X00631801Y00247993D01*
Y00248051D01*
X00631743Y00248109D01*
X00631685Y00248284D01*
X00631626Y00248518D01*
X00631451Y00249159D01*
X00631277Y00249976D01*
X00631102Y00250967D01*
X00630927Y00252075D01*
X00630810Y00253358D01*
X00630752Y00254641D01*
Y00254699D01*
Y00254816D01*
Y00254991D01*
Y00255283D01*
X00630810Y00255574D01*
Y00255982D01*
X00630868Y00256857D01*
X00630985Y00257907D01*
X00631218Y00259015D01*
X00631451Y00260181D01*
X00631801Y00261348D01*
Y00261406D01*
X00631860Y00261464D01*
X00631918Y00261639D01*
X00631976Y00261873D01*
X00632268Y00262456D01*
X00632560Y00263156D01*
X00633026Y00264030D01*
X00633551Y00264905D01*
X00634192Y00265838D01*
X00634892Y00266713D01*
X00634951Y00266771D01*
X00635184Y00267005D01*
X00635534Y00267413D01*
X00636059Y00267821D01*
X00636758Y00268346D01*
X00637575Y00268929D01*
X00638508Y00269571D01*
X00639616Y00270154D01*
X00639674D01*
X00639733Y00270212D01*
X00639966Y00270329D01*
X00640199Y00270387D01*
X00640491Y00270562D01*
X00640899Y00270679D01*
X00641307Y00270854D01*
X00641832Y00270970D01*
X00642415Y00271145D01*
X00642999Y00271262D01*
X00644456Y00271553D01*
X00646089Y00271728D01*
X00647897Y00271845D01*
X00663235D01*
Y00220000D01*
D02*
G37*
G36*
X00897500Y00165279D02*
X00545000D01*
Y00204721D01*
X00897500D01*
Y00165279D01*
D02*
G37*
G36*
Y00122500D02*
X00636826D01*
Y00157500D01*
X00897500D01*
Y00122500D01*
D02*
G37*
%LPC*%
G36*
X00818829Y00314114D02*
X00813113Y00300584D01*
X00824544D01*
X00818829Y00314114D01*
D02*
G37*
G36*
X00682772Y00326769D02*
X00675074D01*
X00674549Y00326711D01*
X00673966D01*
X00673266Y00326594D01*
X00672508Y00326478D01*
X00671749Y00326303D01*
X00671050Y00326069D01*
X00670991Y00326011D01*
X00670758Y00325953D01*
X00670408Y00325778D01*
X00669942Y00325545D01*
X00669475Y00325253D01*
X00668950Y00324903D01*
X00668425Y00324495D01*
X00667959Y00324028D01*
X00667900Y00323970D01*
X00667726Y00323737D01*
X00667492Y00323387D01*
X00667201Y00322979D01*
X00666909Y00322454D01*
X00666559Y00321812D01*
X00666326Y00321112D01*
X00666093Y00320413D01*
Y00320354D01*
X00666034Y00320063D01*
X00665918Y00319713D01*
X00665859Y00319246D01*
X00665743Y00318721D01*
X00665684Y00318080D01*
X00665626Y00316855D01*
Y00316797D01*
Y00316564D01*
Y00316272D01*
X00665684Y00315805D01*
X00665743Y00315339D01*
X00665801Y00314697D01*
X00665918Y00314056D01*
X00666093Y00313356D01*
Y00313298D01*
X00666209Y00313006D01*
X00666326Y00312656D01*
X00666501Y00312190D01*
X00666734Y00311665D01*
X00667084Y00311023D01*
X00667492Y00310440D01*
X00667959Y00309799D01*
X00668017Y00309740D01*
X00668192Y00309565D01*
X00668425Y00309332D01*
X00668775Y00309041D01*
X00669242Y00308691D01*
X00669767Y00308341D01*
X00670408Y00307991D01*
X00671050Y00307699D01*
X00671108D01*
X00671400Y00307583D01*
X00671749Y00307466D01*
X00672274Y00307349D01*
X00672974Y00307233D01*
X00673732Y00307116D01*
X00674549Y00307058D01*
X00675482Y00306999D01*
X00682772D01*
Y00326769D01*
D02*
G37*
G36*
X00873181Y00251900D02*
X00867466Y00238370D01*
X00878896D01*
X00873181Y00251900D01*
D02*
G37*
G36*
X00691753D02*
X00686038Y00238370D01*
X00697468D01*
X00691753Y00251900D01*
D02*
G37*
G36*
X00655187Y00264555D02*
X00647489D01*
X00646964Y00264497D01*
X00646381D01*
X00645681Y00264380D01*
X00644923Y00264264D01*
X00644165Y00264089D01*
X00643465Y00263855D01*
X00643407Y00263797D01*
X00643174Y00263739D01*
X00642824Y00263564D01*
X00642357Y00263331D01*
X00641890Y00263039D01*
X00641366Y00262689D01*
X00640841Y00262281D01*
X00640374Y00261814D01*
X00640316Y00261756D01*
X00640141Y00261523D01*
X00639908Y00261173D01*
X00639616Y00260765D01*
X00639324Y00260240D01*
X00638974Y00259598D01*
X00638741Y00258898D01*
X00638508Y00258199D01*
Y00258140D01*
X00638450Y00257849D01*
X00638333Y00257499D01*
X00638275Y00257032D01*
X00638158Y00256507D01*
X00638100Y00255866D01*
X00638041Y00254641D01*
Y00254583D01*
Y00254349D01*
Y00254058D01*
X00638100Y00253591D01*
X00638158Y00253125D01*
X00638216Y00252483D01*
X00638333Y00251842D01*
X00638508Y00251142D01*
Y00251084D01*
X00638625Y00250792D01*
X00638741Y00250442D01*
X00638916Y00249976D01*
X00639150Y00249451D01*
X00639499Y00248809D01*
X00639908Y00248226D01*
X00640374Y00247585D01*
X00640433Y00247526D01*
X00640608Y00247351D01*
X00640841Y00247118D01*
X00641191Y00246826D01*
X00641657Y00246476D01*
X00642182Y00246127D01*
X00642824Y00245777D01*
X00643465Y00245485D01*
X00643523D01*
X00643815Y00245368D01*
X00644165Y00245252D01*
X00644690Y00245135D01*
X00645390Y00245019D01*
X00646148Y00244902D01*
X00646964Y00244844D01*
X00647897Y00244785D01*
X00655187D01*
Y00264555D01*
D02*
G37*
G36*
X00743139Y00196110D02*
X00739416D01*
X00733592Y00188212D01*
X00727768Y00196110D01*
X00724069D01*
X00731867Y00185512D01*
Y00173890D01*
X00735316D01*
Y00185512D01*
X00743139Y00196110D01*
D02*
G37*
G36*
X00608099D02*
X00604650D01*
Y00186612D01*
X00595752D01*
Y00196110D01*
X00592303D01*
Y00173890D01*
X00595752D01*
Y00183488D01*
X00604650D01*
Y00173890D01*
X00608099D01*
Y00196110D01*
D02*
G37*
G36*
X00864958D02*
X00851837Y00182663D01*
Y00196110D01*
X00848413D01*
Y00173890D01*
X00861534Y00187312D01*
Y00173890D01*
X00864958D01*
Y00196110D01*
D02*
G37*
G36*
X00838940D02*
X00835141D01*
X00829293Y00182488D01*
X00823444Y00196110D01*
X00819645D01*
X00829293Y00173890D01*
X00838940Y00196110D01*
D02*
G37*
G36*
X00885853D02*
X00882404D01*
Y00181438D01*
X00882379Y00181063D01*
X00882329Y00180739D01*
X00882279Y00180439D01*
X00882204Y00180189D01*
X00882129Y00179964D01*
X00882079Y00179814D01*
X00882054Y00179689D01*
X00882029Y00179664D01*
X00881879Y00179389D01*
X00881729Y00179139D01*
X00881554Y00178939D01*
X00881379Y00178739D01*
X00881229Y00178589D01*
X00881104Y00178489D01*
X00881029Y00178414D01*
X00881004Y00178389D01*
X00880504Y00178064D01*
X00880254Y00177914D01*
X00880030Y00177814D01*
X00879805Y00177739D01*
X00879655Y00177664D01*
X00879555Y00177639D01*
X00879505Y00177614D01*
X00878830Y00177464D01*
X00878505Y00177414D01*
X00878205Y00177390D01*
X00877980Y00177365D01*
X00877780Y00177339D01*
X00877605D01*
X00877255Y00177365D01*
X00876905Y00177390D01*
X00876580Y00177439D01*
X00876305Y00177489D01*
X00876080Y00177539D01*
X00875906Y00177564D01*
X00875806Y00177614D01*
X00875756D01*
X00875431Y00177739D01*
X00875156Y00177864D01*
X00874881Y00177989D01*
X00874656Y00178114D01*
X00874481Y00178214D01*
X00874356Y00178314D01*
X00874256Y00178364D01*
X00874231Y00178389D01*
X00873981Y00178589D01*
X00873781Y00178814D01*
X00873606Y00179014D01*
X00873456Y00179214D01*
X00873356Y00179389D01*
X00873256Y00179539D01*
X00873231Y00179639D01*
X00873206Y00179664D01*
X00873081Y00179964D01*
X00873006Y00180264D01*
X00872931Y00180564D01*
X00872906Y00180839D01*
X00872881Y00181089D01*
X00872856Y00181264D01*
Y00181388D01*
Y00181438D01*
Y00196110D01*
X00869382D01*
Y00181089D01*
X00869407Y00180764D01*
X00869432Y00180464D01*
X00869482Y00180214D01*
X00869507Y00179989D01*
X00869557Y00179814D01*
X00869582Y00179714D01*
Y00179664D01*
X00869732Y00179064D01*
X00869832Y00178789D01*
X00869907Y00178539D01*
X00869982Y00178339D01*
X00870057Y00178164D01*
X00870082Y00178064D01*
X00870107Y00178039D01*
X00870407Y00177539D01*
X00870557Y00177314D01*
X00870682Y00177139D01*
X00870807Y00176965D01*
X00870907Y00176840D01*
X00870957Y00176765D01*
X00870982Y00176740D01*
X00871357Y00176315D01*
X00871532Y00176140D01*
X00871707Y00175965D01*
X00871857Y00175840D01*
X00871982Y00175740D01*
X00872057Y00175665D01*
X00872082Y00175640D01*
X00872506Y00175340D01*
X00872956Y00175090D01*
X00873381Y00174865D01*
X00873781Y00174665D01*
X00874131Y00174540D01*
X00874381Y00174415D01*
X00874481Y00174390D01*
X00874556Y00174365D01*
X00874606Y00174340D01*
X00874631D01*
X00875156Y00174190D01*
X00875681Y00174090D01*
X00876180Y00173990D01*
X00876630Y00173940D01*
X00877030Y00173915D01*
X00877205D01*
X00877330Y00173890D01*
X00877605D01*
X00878205Y00173915D01*
X00878755Y00173965D01*
X00879255Y00174040D01*
X00879705Y00174115D01*
X00880105Y00174190D01*
X00880254Y00174240D01*
X00880379Y00174265D01*
X00880479Y00174290D01*
X00880554Y00174315D01*
X00880604Y00174340D01*
X00880629D01*
X00881129Y00174515D01*
X00881604Y00174740D01*
X00882029Y00174940D01*
X00882404Y00175165D01*
X00882704Y00175340D01*
X00882929Y00175490D01*
X00883079Y00175615D01*
X00883104Y00175640D01*
X00883129D01*
X00883604Y00176015D01*
X00883803Y00176215D01*
X00883979Y00176390D01*
X00884103Y00176515D01*
X00884203Y00176640D01*
X00884278Y00176715D01*
X00884303Y00176740D01*
X00884628Y00177190D01*
X00884778Y00177414D01*
X00884903Y00177614D01*
X00885003Y00177789D01*
X00885053Y00177914D01*
X00885103Y00178014D01*
X00885128Y00178039D01*
X00885378Y00178614D01*
X00885478Y00178889D01*
X00885553Y00179139D01*
X00885603Y00179364D01*
X00885653Y00179514D01*
X00885678Y00179639D01*
Y00179664D01*
X00885778Y00180289D01*
X00885803Y00180589D01*
X00885828Y00180864D01*
X00885853Y00181113D01*
Y00196110D01*
D02*
G37*
G36*
X00844189D02*
X00840740D01*
Y00173890D01*
X00844189D01*
Y00196110D01*
D02*
G37*
G36*
X00817895D02*
X00805174D01*
Y00193011D01*
X00814446D01*
Y00187062D01*
X00806898D01*
Y00183938D01*
X00814446D01*
Y00177015D01*
X00805174D01*
Y00173890D01*
X00817895D01*
Y00196110D01*
D02*
G37*
G36*
X00801550D02*
X00794976D01*
X00794202Y00196060D01*
X00793502Y00195985D01*
X00792877Y00195860D01*
X00792627Y00195810D01*
X00792377Y00195735D01*
X00792152Y00195685D01*
X00791977Y00195610D01*
X00791802Y00195560D01*
X00791677Y00195485D01*
X00791577Y00195460D01*
X00791477Y00195410D01*
X00791452Y00195385D01*
X00791427D01*
X00790952Y00195135D01*
X00790552Y00194860D01*
X00790202Y00194610D01*
X00789903Y00194385D01*
X00789678Y00194210D01*
X00789528Y00194035D01*
X00789428Y00193935D01*
X00789403Y00193910D01*
X00789103Y00193535D01*
X00788828Y00193135D01*
X00788603Y00192761D01*
X00788403Y00192386D01*
X00788278Y00192086D01*
X00788153Y00191836D01*
X00788128Y00191736D01*
X00788103Y00191661D01*
X00788078Y00191636D01*
Y00191611D01*
X00787928Y00191111D01*
X00787828Y00190611D01*
X00787728Y00190136D01*
X00787678Y00189686D01*
X00787653Y00189311D01*
Y00189137D01*
X00787628Y00189011D01*
Y00188887D01*
Y00188811D01*
Y00188762D01*
Y00188737D01*
X00787653Y00188187D01*
X00787703Y00187637D01*
X00787778Y00187162D01*
X00787853Y00186737D01*
X00787928Y00186387D01*
X00788003Y00186112D01*
X00788028Y00186012D01*
X00788053Y00185937D01*
X00788078Y00185912D01*
Y00185887D01*
X00788253Y00185412D01*
X00788478Y00184988D01*
X00788703Y00184588D01*
X00788903Y00184263D01*
X00789103Y00183988D01*
X00789253Y00183788D01*
X00789353Y00183663D01*
X00789403Y00183613D01*
X00789753Y00183288D01*
X00790102Y00182988D01*
X00790253Y00182863D01*
X00790377Y00182763D01*
X00790452Y00182713D01*
X00790477Y00182688D01*
X00790727Y00182538D01*
X00790977Y00182388D01*
X00791227Y00182238D01*
X00791477Y00182138D01*
X00791677Y00182038D01*
X00791852Y00181963D01*
X00791952Y00181938D01*
X00792002Y00181913D01*
X00786004Y00173890D01*
X00789928D01*
X00795526Y00181413D01*
X00798101D01*
Y00173890D01*
X00801550D01*
Y00196110D01*
D02*
G37*
G36*
X00777131D02*
X00776931D01*
X00776481Y00196085D01*
X00776056Y00196060D01*
X00775656Y00195985D01*
X00775281Y00195935D01*
X00774981Y00195860D01*
X00774731Y00195785D01*
X00774582Y00195760D01*
X00774557Y00195735D01*
X00774531D01*
X00774057Y00195585D01*
X00773607Y00195410D01*
X00773182Y00195210D01*
X00772807Y00195035D01*
X00772482Y00194860D01*
X00772257Y00194735D01*
X00772157Y00194685D01*
X00772082Y00194635D01*
X00772057Y00194610D01*
X00772032D01*
X00773682Y00191811D01*
X00774307Y00192136D01*
X00774606Y00192261D01*
X00774856Y00192386D01*
X00775081Y00192461D01*
X00775231Y00192511D01*
X00775331Y00192561D01*
X00775381D01*
X00775981Y00192710D01*
X00776231Y00192761D01*
X00776456Y00192785D01*
X00776656Y00192810D01*
X00776806Y00192836D01*
X00776931D01*
X00777331Y00192810D01*
X00777531Y00192785D01*
X00777681Y00192761D01*
X00777806Y00192710D01*
X00777906Y00192686D01*
X00777981Y00192661D01*
X00778006D01*
X00778355Y00192536D01*
X00778630Y00192386D01*
X00778730Y00192336D01*
X00778805Y00192286D01*
X00778855Y00192261D01*
X00778880Y00192236D01*
X00779080Y00192036D01*
X00779255Y00191861D01*
X00779355Y00191736D01*
X00779405Y00191711D01*
Y00191686D01*
X00779555Y00191461D01*
X00779655Y00191261D01*
X00779730Y00191111D01*
X00779755Y00191086D01*
Y00191061D01*
X00779830Y00190811D01*
X00779880Y00190586D01*
X00779905Y00190411D01*
Y00190386D01*
Y00190361D01*
X00779880Y00190111D01*
X00779855Y00189911D01*
X00779830Y00189761D01*
Y00189736D01*
Y00189711D01*
X00779680Y00189386D01*
X00779505Y00189086D01*
X00779305Y00188811D01*
X00779080Y00188587D01*
X00778905Y00188412D01*
X00778730Y00188287D01*
X00778630Y00188187D01*
X00778580Y00188162D01*
X00778181Y00187962D01*
X00777781Y00187787D01*
X00777356Y00187637D01*
X00776956Y00187537D01*
X00776606Y00187462D01*
X00776331Y00187412D01*
X00776231Y00187387D01*
X00776156Y00187362D01*
X00776081D01*
X00775531Y00187287D01*
X00775031Y00187187D01*
X00774582Y00187087D01*
X00774182Y00186987D01*
X00773857Y00186887D01*
X00773607Y00186812D01*
X00773532Y00186787D01*
X00773457Y00186762D01*
X00773432Y00186737D01*
X00773407D01*
X00772982Y00186562D01*
X00772557Y00186387D01*
X00772207Y00186212D01*
X00771882Y00186037D01*
X00771632Y00185862D01*
X00771432Y00185762D01*
X00771332Y00185662D01*
X00771282Y00185637D01*
X00770957Y00185362D01*
X00770658Y00185088D01*
X00770408Y00184838D01*
X00770183Y00184588D01*
X00770008Y00184388D01*
X00769883Y00184213D01*
X00769808Y00184113D01*
X00769783Y00184063D01*
X00769583Y00183738D01*
X00769408Y00183413D01*
X00769258Y00183113D01*
X00769133Y00182813D01*
X00769033Y00182563D01*
X00768983Y00182388D01*
X00768933Y00182263D01*
Y00182213D01*
X00768858Y00181838D01*
X00768833Y00181488D01*
X00768808Y00181164D01*
Y00180414D01*
X00768833Y00180289D01*
Y00180239D01*
X00768883Y00179889D01*
X00768958Y00179539D01*
X00769033Y00179214D01*
X00769133Y00178914D01*
X00769208Y00178664D01*
X00769283Y00178489D01*
X00769333Y00178364D01*
X00769358Y00178314D01*
X00769533Y00177964D01*
X00769708Y00177664D01*
X00769883Y00177365D01*
X00770058Y00177115D01*
X00770233Y00176915D01*
X00770333Y00176740D01*
X00770433Y00176640D01*
X00770458Y00176615D01*
X00770707Y00176340D01*
X00770957Y00176090D01*
X00771232Y00175840D01*
X00771457Y00175640D01*
X00771682Y00175490D01*
X00771832Y00175365D01*
X00771932Y00175290D01*
X00771982Y00175265D01*
X00772382Y00175040D01*
X00772782Y00174815D01*
X00773157Y00174640D01*
X00773507Y00174490D01*
X00773807Y00174390D01*
X00774032Y00174315D01*
X00774182Y00174265D01*
X00774207Y00174240D01*
X00774232D01*
X00774681Y00174115D01*
X00775131Y00174040D01*
X00775556Y00173965D01*
X00775931Y00173940D01*
X00776256Y00173915D01*
X00776506Y00173890D01*
X00777156D01*
X00777306Y00173915D01*
X00777581D01*
X00778206Y00173990D01*
X00778830Y00174115D01*
X00779430Y00174240D01*
X00779930Y00174390D01*
X00780180Y00174465D01*
X00780380Y00174540D01*
X00780580Y00174590D01*
X00780730Y00174665D01*
X00780855Y00174690D01*
X00780955Y00174740D01*
X00781005Y00174765D01*
X00781030D01*
X00781680Y00175040D01*
X00782305Y00175365D01*
X00782879Y00175690D01*
X00783404Y00176015D01*
X00783629Y00176165D01*
X00783829Y00176290D01*
X00784029Y00176415D01*
X00784179Y00176540D01*
X00784304Y00176615D01*
X00784404Y00176690D01*
X00784454Y00176715D01*
X00784479Y00176740D01*
X00782529Y00179389D01*
X00782030Y00179039D01*
X00781555Y00178714D01*
X00781105Y00178464D01*
X00780705Y00178239D01*
X00780355Y00178064D01*
X00780105Y00177939D01*
X00780005Y00177889D01*
X00779930Y00177864D01*
X00779905Y00177839D01*
X00779880D01*
X00779380Y00177664D01*
X00778930Y00177514D01*
X00778481Y00177414D01*
X00778106Y00177314D01*
X00777781Y00177264D01*
X00777531Y00177215D01*
X00777431D01*
X00777356Y00177190D01*
X00777306D01*
X00776931Y00177164D01*
X00776581Y00177190D01*
X00776281D01*
X00775981Y00177215D01*
X00775756Y00177264D01*
X00775581Y00177290D01*
X00775481Y00177314D01*
X00775431D01*
X00775106Y00177414D01*
X00774806Y00177514D01*
X00774531Y00177639D01*
X00774307Y00177739D01*
X00774107Y00177864D01*
X00773957Y00177939D01*
X00773857Y00177989D01*
X00773832Y00178014D01*
X00773482Y00178264D01*
X00773182Y00178539D01*
X00772932Y00178789D01*
X00772732Y00179039D01*
X00772582Y00179264D01*
X00772482Y00179439D01*
X00772432Y00179539D01*
X00772407Y00179589D01*
X00772257Y00179939D01*
X00772182Y00180264D01*
X00772132Y00180589D01*
X00772107Y00180864D01*
Y00181089D01*
Y00181289D01*
X00772132Y00181388D01*
Y00181438D01*
X00772282Y00181813D01*
X00772457Y00182163D01*
X00772707Y00182438D01*
X00772932Y00182688D01*
X00773157Y00182888D01*
X00773357Y00183038D01*
X00773482Y00183138D01*
X00773507Y00183163D01*
X00773532D01*
X00773982Y00183413D01*
X00774456Y00183613D01*
X00774956Y00183763D01*
X00775406Y00183888D01*
X00775831Y00183988D01*
X00776006Y00184013D01*
X00776156Y00184038D01*
X00776281Y00184063D01*
X00776381Y00184088D01*
X00776456D01*
X00776931Y00184163D01*
X00777381Y00184263D01*
X00777781Y00184338D01*
X00778131Y00184438D01*
X00778430Y00184538D01*
X00778655Y00184588D01*
X00778805Y00184638D01*
X00778830Y00184663D01*
X00778855D01*
X00779255Y00184813D01*
X00779630Y00184988D01*
X00779955Y00185163D01*
X00780230Y00185337D01*
X00780480Y00185462D01*
X00780655Y00185587D01*
X00780755Y00185662D01*
X00780805Y00185687D01*
X00781105Y00185937D01*
X00781355Y00186162D01*
X00781580Y00186412D01*
X00781780Y00186637D01*
X00781955Y00186837D01*
X00782080Y00186987D01*
X00782154Y00187087D01*
X00782179Y00187112D01*
X00782380Y00187412D01*
X00782529Y00187712D01*
X00782679Y00188012D01*
X00782779Y00188287D01*
X00782879Y00188512D01*
X00782929Y00188687D01*
X00782954Y00188787D01*
X00782979Y00188836D01*
X00783104Y00189436D01*
X00783129Y00189711D01*
X00783154Y00189961D01*
X00783179Y00190186D01*
Y00190336D01*
Y00190461D01*
Y00190486D01*
X00783104Y00191086D01*
X00783054Y00191361D01*
X00782979Y00191611D01*
X00782929Y00191836D01*
X00782879Y00191986D01*
X00782829Y00192111D01*
Y00192136D01*
X00782604Y00192710D01*
X00782479Y00192960D01*
X00782355Y00193185D01*
X00782254Y00193360D01*
X00782154Y00193485D01*
X00782105Y00193585D01*
X00782080Y00193610D01*
X00781680Y00194110D01*
X00781480Y00194310D01*
X00781305Y00194485D01*
X00781155Y00194635D01*
X00781005Y00194735D01*
X00780930Y00194810D01*
X00780905Y00194835D01*
X00780580Y00195060D01*
X00780255Y00195260D01*
X00779955Y00195410D01*
X00779655Y00195535D01*
X00779405Y00195660D01*
X00779230Y00195735D01*
X00779105Y00195760D01*
X00779055Y00195785D01*
X00778680Y00195885D01*
X00778306Y00195985D01*
X00777931Y00196035D01*
X00777606Y00196060D01*
X00777331Y00196085D01*
X00777131Y00196110D01*
D02*
G37*
G36*
X00765559D02*
X00762110D01*
Y00173890D01*
X00765559D01*
Y00196110D01*
D02*
G37*
G36*
X00759110D02*
X00743390D01*
Y00193011D01*
X00749513D01*
Y00173890D01*
X00752987D01*
Y00193011D01*
X00759110D01*
Y00196110D01*
D02*
G37*
G36*
X00703575D02*
X00702725D01*
X00702325Y00196085D01*
X00701950Y00196035D01*
X00701600Y00196010D01*
X00701325Y00195960D01*
X00701100Y00195910D01*
X00700975Y00195885D01*
X00700925D01*
X00700525Y00195810D01*
X00700126Y00195710D01*
X00699751Y00195610D01*
X00699426Y00195510D01*
X00699176Y00195410D01*
X00698951Y00195335D01*
X00698826Y00195285D01*
X00698776Y00195260D01*
X00698426Y00195085D01*
X00698076Y00194910D01*
X00697751Y00194760D01*
X00697476Y00194585D01*
X00697251Y00194460D01*
X00697076Y00194335D01*
X00696976Y00194260D01*
X00696926Y00194235D01*
X00696601Y00194010D01*
X00696276Y00193785D01*
X00696002Y00193560D01*
X00695752Y00193335D01*
X00695552Y00193160D01*
X00695377Y00193011D01*
X00695277Y00192910D01*
X00695252Y00192885D01*
X00694977Y00192586D01*
X00694702Y00192286D01*
X00694477Y00192011D01*
X00694277Y00191761D01*
X00694127Y00191536D01*
X00694002Y00191361D01*
X00693927Y00191261D01*
X00693902Y00191211D01*
X00693477Y00190561D01*
X00693302Y00190236D01*
X00693152Y00189961D01*
X00693052Y00189711D01*
X00692952Y00189536D01*
X00692902Y00189411D01*
X00692877Y00189361D01*
X00692602Y00188587D01*
X00692503Y00188212D01*
X00692402Y00187887D01*
X00692327Y00187612D01*
X00692278Y00187412D01*
X00692253Y00187262D01*
Y00187237D01*
Y00187212D01*
X00692128Y00186412D01*
X00692078Y00186037D01*
X00692053Y00185687D01*
X00692028Y00185412D01*
Y00184563D01*
X00692053Y00184163D01*
X00692103Y00183788D01*
X00692128Y00183463D01*
X00692178Y00183163D01*
X00692228Y00182963D01*
X00692253Y00182813D01*
Y00182788D01*
Y00182763D01*
X00692327Y00182363D01*
X00692428Y00181988D01*
X00692527Y00181638D01*
X00692627Y00181313D01*
X00692727Y00181063D01*
X00692802Y00180864D01*
X00692852Y00180739D01*
X00692877Y00180689D01*
X00693052Y00180314D01*
X00693227Y00179964D01*
X00693377Y00179639D01*
X00693552Y00179364D01*
X00693677Y00179114D01*
X00693802Y00178939D01*
X00693877Y00178839D01*
X00693902Y00178789D01*
X00694127Y00178464D01*
X00694352Y00178164D01*
X00694577Y00177889D01*
X00694802Y00177639D01*
X00694977Y00177439D01*
X00695127Y00177264D01*
X00695227Y00177164D01*
X00695252Y00177139D01*
X00695552Y00176865D01*
X00695852Y00176590D01*
X00696127Y00176365D01*
X00696376Y00176165D01*
X00696601Y00175990D01*
X00696776Y00175865D01*
X00696876Y00175790D01*
X00696926Y00175765D01*
X00697576Y00175365D01*
X00697901Y00175190D01*
X00698176Y00175040D01*
X00698426Y00174915D01*
X00698601Y00174815D01*
X00698726Y00174765D01*
X00698776Y00174740D01*
X00699551Y00174465D01*
X00699926Y00174340D01*
X00700250Y00174265D01*
X00700525Y00174190D01*
X00700725Y00174140D01*
X00700875Y00174090D01*
X00700925D01*
X00701725Y00173965D01*
X00702100Y00173940D01*
X00702450Y00173915D01*
X00702725Y00173890D01*
X00703575D01*
X00703975Y00173915D01*
X00704350Y00173965D01*
X00704674Y00173990D01*
X00704974Y00174040D01*
X00705174Y00174065D01*
X00705324Y00174090D01*
X00705374D01*
X00705774Y00174190D01*
X00706149Y00174290D01*
X00706499Y00174390D01*
X00706824Y00174490D01*
X00707074Y00174590D01*
X00707274Y00174665D01*
X00707399Y00174715D01*
X00707449Y00174740D01*
X00707824Y00174915D01*
X00708174Y00175090D01*
X00708498Y00175240D01*
X00708773Y00175415D01*
X00709023Y00175565D01*
X00709198Y00175665D01*
X00709298Y00175740D01*
X00709348Y00175765D01*
X00709673Y00175990D01*
X00709973Y00176240D01*
X00710248Y00176465D01*
X00710498Y00176690D01*
X00710698Y00176865D01*
X00710873Y00177015D01*
X00710973Y00177115D01*
X00710998Y00177139D01*
X00711273Y00177439D01*
X00711548Y00177714D01*
X00711773Y00178014D01*
X00711973Y00178264D01*
X00712148Y00178464D01*
X00712272Y00178639D01*
X00712347Y00178739D01*
X00712372Y00178789D01*
X00712772Y00179464D01*
X00712947Y00179764D01*
X00713097Y00180064D01*
X00713222Y00180314D01*
X00713322Y00180514D01*
X00713372Y00180639D01*
X00713397Y00180689D01*
X00713672Y00181438D01*
X00713797Y00181788D01*
X00713872Y00182113D01*
X00713947Y00182363D01*
X00713997Y00182588D01*
X00714047Y00182713D01*
Y00182763D01*
X00714172Y00183588D01*
X00714197Y00183963D01*
X00714222Y00184288D01*
X00714247Y00184563D01*
Y00185412D01*
X00714222Y00185812D01*
X00714172Y00186187D01*
X00714147Y00186537D01*
X00714097Y00186812D01*
X00714072Y00187037D01*
X00714047Y00187162D01*
Y00187212D01*
X00713947Y00187612D01*
X00713847Y00188012D01*
X00713747Y00188387D01*
X00713647Y00188712D01*
X00713547Y00188962D01*
X00713472Y00189186D01*
X00713422Y00189311D01*
X00713397Y00189361D01*
X00713222Y00189711D01*
X00713047Y00190061D01*
X00712897Y00190386D01*
X00712722Y00190661D01*
X00712572Y00190886D01*
X00712472Y00191061D01*
X00712397Y00191161D01*
X00712372Y00191211D01*
X00712148Y00191536D01*
X00711898Y00191861D01*
X00711673Y00192136D01*
X00711448Y00192386D01*
X00711273Y00192586D01*
X00711123Y00192761D01*
X00711023Y00192861D01*
X00710998Y00192885D01*
X00710698Y00193160D01*
X00710423Y00193435D01*
X00710123Y00193660D01*
X00709873Y00193860D01*
X00709673Y00194010D01*
X00709498Y00194135D01*
X00709398Y00194210D01*
X00709348Y00194235D01*
X00708673Y00194660D01*
X00708373Y00194835D01*
X00708074Y00194985D01*
X00707824Y00195085D01*
X00707624Y00195185D01*
X00707499Y00195235D01*
X00707449Y00195260D01*
X00706699Y00195535D01*
X00706349Y00195635D01*
X00706024Y00195735D01*
X00705774Y00195810D01*
X00705549Y00195860D01*
X00705424Y00195885D01*
X00705374D01*
X00704549Y00196010D01*
X00704174Y00196060D01*
X00703850Y00196085D01*
X00703575Y00196110D01*
D02*
G37*
G36*
X00688154D02*
X00674807D01*
Y00193011D01*
X00684705D01*
Y00187062D01*
X00676557D01*
Y00183938D01*
X00684705D01*
Y00173890D01*
X00688154D01*
Y00196110D01*
D02*
G37*
G36*
X00662135D02*
X00655787D01*
X00655137Y00196085D01*
X00654562Y00196010D01*
X00654062Y00195910D01*
X00653637Y00195810D01*
X00653288Y00195685D01*
X00653038Y00195610D01*
X00652963Y00195560D01*
X00652888Y00195535D01*
X00652838Y00195510D01*
X00652438Y00195285D01*
X00652088Y00195085D01*
X00651788Y00194860D01*
X00651563Y00194660D01*
X00651363Y00194510D01*
X00651238Y00194385D01*
X00651163Y00194285D01*
X00651138Y00194260D01*
X00650888Y00193935D01*
X00650663Y00193610D01*
X00650463Y00193285D01*
X00650313Y00193011D01*
X00650188Y00192736D01*
X00650113Y00192536D01*
X00650063Y00192411D01*
X00650038Y00192386D01*
Y00192361D01*
X00649913Y00191961D01*
X00649813Y00191536D01*
X00649738Y00191136D01*
X00649688Y00190786D01*
X00649663Y00190461D01*
X00649639Y00190236D01*
Y00190136D01*
Y00190061D01*
Y00190036D01*
Y00190011D01*
Y00189586D01*
X00649688Y00189186D01*
X00649738Y00188811D01*
X00649788Y00188487D01*
X00649838Y00188212D01*
X00649888Y00188012D01*
X00649913Y00187887D01*
X00649938Y00187837D01*
X00650063Y00187462D01*
X00650213Y00187137D01*
X00650363Y00186837D01*
X00650513Y00186562D01*
X00650638Y00186337D01*
X00650763Y00186187D01*
X00650838Y00186062D01*
X00650863Y00186037D01*
X00650588Y00185862D01*
X00650338Y00185687D01*
X00650188Y00185562D01*
X00650163Y00185537D01*
X00650138Y00185512D01*
X00649913Y00185337D01*
X00649738Y00185163D01*
X00649639Y00185037D01*
X00649588Y00185012D01*
Y00184988D01*
X00649314Y00184663D01*
X00649089Y00184313D01*
X00648864Y00183963D01*
X00648714Y00183638D01*
X00648589Y00183363D01*
X00648489Y00183163D01*
X00648439Y00183013D01*
X00648414Y00182988D01*
Y00182963D01*
X00648264Y00182513D01*
X00648164Y00182088D01*
X00648089Y00181663D01*
X00648039Y00181264D01*
X00648014Y00180939D01*
X00647989Y00180664D01*
Y00180439D01*
X00648014Y00179939D01*
X00648064Y00179439D01*
X00648114Y00179014D01*
X00648189Y00178639D01*
X00648289Y00178339D01*
X00648339Y00178089D01*
X00648389Y00177939D01*
X00648414Y00177914D01*
Y00177889D01*
X00648589Y00177464D01*
X00648764Y00177090D01*
X00648964Y00176740D01*
X00649139Y00176440D01*
X00649314Y00176215D01*
X00649464Y00176015D01*
X00649564Y00175915D01*
X00649588Y00175865D01*
X00649838Y00175590D01*
X00650113Y00175340D01*
X00650438Y00175115D01*
X00650713Y00174915D01*
X00650988Y00174740D01*
X00651213Y00174615D01*
X00651363Y00174540D01*
X00651388Y00174515D01*
X00651413D01*
X00651888Y00174315D01*
X00652413Y00174165D01*
X00652938Y00174065D01*
X00653438Y00173990D01*
X00653887Y00173940D01*
X00654062Y00173915D01*
X00654237D01*
X00654362Y00173890D01*
X00662135D01*
Y00196110D01*
D02*
G37*
G36*
X00637217D02*
X00627569Y00173890D01*
X00631368D01*
X00633418Y00178664D01*
X00641016D01*
X00643065Y00173890D01*
X00646889D01*
X00637217Y00196110D01*
D02*
G37*
G36*
X00626819D02*
X00611098D01*
Y00193011D01*
X00617222D01*
Y00173890D01*
X00620696D01*
Y00193011D01*
X00626819D01*
Y00196110D01*
D02*
G37*
%LPD*%
G36*
X00798101Y00184513D02*
X00794976D01*
X00794576Y00184538D01*
X00794227Y00184563D01*
X00793902Y00184613D01*
X00793602Y00184663D01*
X00793377Y00184713D01*
X00793227Y00184763D01*
X00793102Y00184813D01*
X00793077D01*
X00792802Y00184937D01*
X00792527Y00185088D01*
X00792302Y00185238D01*
X00792102Y00185387D01*
X00791952Y00185512D01*
X00791852Y00185612D01*
X00791777Y00185687D01*
X00791752Y00185712D01*
X00791552Y00185987D01*
X00791377Y00186237D01*
X00791227Y00186512D01*
X00791127Y00186737D01*
X00791052Y00186937D01*
X00791002Y00187087D01*
X00790952Y00187212D01*
Y00187237D01*
X00790877Y00187537D01*
X00790827Y00187812D01*
X00790802Y00188087D01*
X00790777Y00188287D01*
X00790752Y00188487D01*
Y00188612D01*
Y00188712D01*
Y00188737D01*
X00790777Y00189261D01*
X00790802Y00189536D01*
X00790852Y00189761D01*
X00790877Y00189961D01*
X00790927Y00190111D01*
X00790952Y00190236D01*
Y00190261D01*
X00791052Y00190561D01*
X00791152Y00190861D01*
X00791302Y00191136D01*
X00791427Y00191361D01*
X00791552Y00191536D01*
X00791652Y00191686D01*
X00791727Y00191786D01*
X00791752Y00191811D01*
X00791952Y00192011D01*
X00792177Y00192186D01*
X00792402Y00192336D01*
X00792602Y00192461D01*
X00792802Y00192561D01*
X00792952Y00192636D01*
X00793052Y00192661D01*
X00793077Y00192686D01*
X00793377Y00192785D01*
X00793702Y00192861D01*
X00794026Y00192910D01*
X00794326Y00192960D01*
X00794576D01*
X00794801Y00192985D01*
X00798101D01*
Y00184513D01*
D02*
G37*
G36*
X00703725Y00192636D02*
X00704249Y00192561D01*
X00704749Y00192461D01*
X00705174Y00192361D01*
X00705549Y00192236D01*
X00705699Y00192186D01*
X00705824Y00192161D01*
X00705924Y00192111D01*
X00705999Y00192086D01*
X00706049Y00192061D01*
X00706074D01*
X00706574Y00191836D01*
X00707049Y00191561D01*
X00707449Y00191286D01*
X00707824Y00191011D01*
X00708123Y00190786D01*
X00708348Y00190586D01*
X00708498Y00190461D01*
X00708523Y00190436D01*
X00708548Y00190411D01*
X00708923Y00189986D01*
X00709248Y00189561D01*
X00709548Y00189137D01*
X00709773Y00188762D01*
X00709948Y00188412D01*
X00710098Y00188137D01*
X00710148Y00188037D01*
X00710173Y00187987D01*
X00710198Y00187937D01*
Y00187912D01*
X00710398Y00187387D01*
X00710523Y00186887D01*
X00710648Y00186387D01*
X00710723Y00185937D01*
X00710748Y00185562D01*
X00710773Y00185387D01*
Y00185262D01*
X00710798Y00185138D01*
Y00185063D01*
Y00185012D01*
Y00184988D01*
X00710773Y00184413D01*
X00710698Y00183888D01*
X00710598Y00183388D01*
X00710498Y00182963D01*
X00710373Y00182588D01*
X00710323Y00182438D01*
X00710298Y00182313D01*
X00710248Y00182213D01*
X00710223Y00182138D01*
X00710198Y00182088D01*
Y00182063D01*
X00709973Y00181563D01*
X00709698Y00181089D01*
X00709423Y00180689D01*
X00709148Y00180314D01*
X00708923Y00180014D01*
X00708723Y00179789D01*
X00708598Y00179639D01*
X00708548Y00179614D01*
Y00179589D01*
X00708123Y00179214D01*
X00707699Y00178889D01*
X00707274Y00178589D01*
X00706899Y00178364D01*
X00706574Y00178189D01*
X00706299Y00178039D01*
X00706199Y00177989D01*
X00706124Y00177964D01*
X00706099Y00177939D01*
X00706074D01*
X00705549Y00177739D01*
X00705024Y00177614D01*
X00704524Y00177489D01*
X00704074Y00177414D01*
X00703700Y00177390D01*
X00703550Y00177365D01*
X00703400D01*
X00703300Y00177339D01*
X00703150D01*
X00702575Y00177365D01*
X00702050Y00177439D01*
X00701550Y00177539D01*
X00701100Y00177639D01*
X00700750Y00177764D01*
X00700600Y00177814D01*
X00700475Y00177839D01*
X00700350Y00177889D01*
X00700275Y00177914D01*
X00700250Y00177939D01*
X00700226D01*
X00699726Y00178164D01*
X00699251Y00178439D01*
X00698826Y00178714D01*
X00698451Y00178989D01*
X00698151Y00179214D01*
X00697926Y00179414D01*
X00697776Y00179539D01*
X00697726Y00179589D01*
X00697351Y00180014D01*
X00697026Y00180439D01*
X00696726Y00180864D01*
X00696501Y00181238D01*
X00696327Y00181563D01*
X00696177Y00181838D01*
X00696127Y00181938D01*
X00696102Y00182013D01*
X00696077Y00182038D01*
Y00182063D01*
X00695877Y00182588D01*
X00695752Y00183113D01*
X00695627Y00183613D01*
X00695552Y00184063D01*
X00695502Y00184438D01*
Y00184588D01*
X00695477Y00184738D01*
Y00184838D01*
Y00184912D01*
Y00184963D01*
Y00184988D01*
X00695502Y00185562D01*
X00695577Y00186087D01*
X00695677Y00186587D01*
X00695777Y00187037D01*
X00695902Y00187387D01*
X00695952Y00187537D01*
X00695977Y00187662D01*
X00696027Y00187787D01*
X00696052Y00187862D01*
X00696077Y00187887D01*
Y00187912D01*
X00696301Y00188412D01*
X00696577Y00188887D01*
X00696851Y00189311D01*
X00697126Y00189686D01*
X00697351Y00189986D01*
X00697551Y00190211D01*
X00697676Y00190361D01*
X00697701Y00190411D01*
X00697726D01*
X00698151Y00190786D01*
X00698576Y00191111D01*
X00699001Y00191411D01*
X00699376Y00191636D01*
X00699726Y00191811D01*
X00700001Y00191961D01*
X00700101Y00192011D01*
X00700151Y00192036D01*
X00700201Y00192061D01*
X00700226D01*
X00700750Y00192261D01*
X00701250Y00192386D01*
X00701750Y00192511D01*
X00702200Y00192586D01*
X00702575Y00192636D01*
X00702750D01*
X00702875Y00192661D01*
X00703150D01*
X00703725Y00192636D01*
D02*
G37*
G36*
X00658686Y00186962D02*
X00655787D01*
X00655487Y00186987D01*
X00655237Y00187012D01*
X00655012Y00187037D01*
X00654812Y00187087D01*
X00654662Y00187112D01*
X00654537Y00187162D01*
X00654462Y00187187D01*
X00654437D01*
X00654037Y00187387D01*
X00653887Y00187487D01*
X00653737Y00187587D01*
X00653613Y00187662D01*
X00653538Y00187737D01*
X00653487Y00187787D01*
X00653463Y00187812D01*
X00653213Y00188187D01*
X00653038Y00188537D01*
X00652988Y00188687D01*
X00652938Y00188787D01*
X00652913Y00188862D01*
Y00188887D01*
X00652813Y00189311D01*
X00652788Y00189511D01*
Y00189686D01*
X00652763Y00189811D01*
Y00189911D01*
Y00189986D01*
Y00190011D01*
X00652788Y00190386D01*
X00652838Y00190711D01*
X00652863Y00190861D01*
X00652888Y00190961D01*
X00652913Y00191036D01*
Y00191061D01*
X00652963Y00191286D01*
X00653063Y00191486D01*
X00653138Y00191686D01*
X00653238Y00191836D01*
X00653313Y00191961D01*
X00653388Y00192086D01*
X00653438Y00192136D01*
X00653463Y00192161D01*
X00653762Y00192436D01*
X00654087Y00192636D01*
X00654212Y00192686D01*
X00654312Y00192736D01*
X00654387Y00192785D01*
X00654412D01*
X00654862Y00192910D01*
X00655087Y00192960D01*
X00655312Y00192985D01*
X00655512Y00193011D01*
X00658686D01*
Y00186962D01*
D02*
G37*
G36*
Y00177015D02*
X00654237D01*
X00653937Y00177040D01*
X00653687Y00177090D01*
X00653438Y00177139D01*
X00653262Y00177164D01*
X00653138Y00177215D01*
X00653038Y00177239D01*
X00653013D01*
X00652763Y00177339D01*
X00652563Y00177464D01*
X00652363Y00177589D01*
X00652213Y00177689D01*
X00652088Y00177789D01*
X00651988Y00177889D01*
X00651938Y00177939D01*
X00651913Y00177964D01*
X00651738Y00178164D01*
X00651588Y00178389D01*
X00651488Y00178589D01*
X00651388Y00178789D01*
X00651338Y00178939D01*
X00651288Y00179064D01*
X00651263Y00179164D01*
Y00179189D01*
X00651163Y00179664D01*
X00651138Y00179889D01*
Y00180064D01*
X00651113Y00180214D01*
Y00180339D01*
Y00180414D01*
Y00180439D01*
X00651138Y00180864D01*
X00651163Y00181063D01*
X00651188Y00181264D01*
X00651213Y00181413D01*
X00651238Y00181538D01*
X00651263Y00181638D01*
Y00181663D01*
X00651338Y00181913D01*
X00651438Y00182138D01*
X00651538Y00182338D01*
X00651638Y00182538D01*
X00651738Y00182688D01*
X00651838Y00182788D01*
X00651888Y00182863D01*
X00651913Y00182888D01*
X00652263Y00183188D01*
X00652613Y00183413D01*
X00652788Y00183488D01*
X00652888Y00183538D01*
X00652988Y00183588D01*
X00653013D01*
X00653538Y00183738D01*
X00653787Y00183788D01*
X00654037Y00183813D01*
X00654237Y00183838D01*
X00658686D01*
Y00177015D01*
D02*
G37*
G36*
X00639666Y00181763D02*
X00634767D01*
X00637217Y00187562D01*
X00639666Y00181763D01*
D02*
G37*
%LPC*%
G36*
X00822244Y00151110D02*
X00811772Y00138913D01*
X00801325Y00151110D01*
Y00128890D01*
X00804799D01*
Y00141712D01*
X00811772Y00133564D01*
X00818795Y00141712D01*
Y00128890D01*
X00822244D01*
Y00151110D01*
D02*
G37*
G36*
X00842364D02*
X00841464D01*
X00841040Y00151060D01*
X00840615Y00151035D01*
X00840240Y00150985D01*
X00839940Y00150935D01*
X00839690Y00150885D01*
X00839540Y00150860D01*
X00839515Y00150835D01*
X00839490D01*
X00839040Y00150735D01*
X00838590Y00150610D01*
X00838190Y00150460D01*
X00837840Y00150335D01*
X00837540Y00150210D01*
X00837315Y00150110D01*
X00837166Y00150035D01*
X00837115Y00150010D01*
X00838640Y00146911D01*
X00839215Y00147136D01*
X00839490Y00147236D01*
X00839740Y00147311D01*
X00839940Y00147361D01*
X00840090Y00147411D01*
X00840190Y00147436D01*
X00840240D01*
X00840864Y00147561D01*
X00841139Y00147586D01*
X00841389Y00147635D01*
X00841614D01*
X00841789Y00147661D01*
X00841939D01*
X00842514Y00147635D01*
X00843064Y00147561D01*
X00843564Y00147461D01*
X00843989Y00147361D01*
X00844364Y00147236D01*
X00844514Y00147186D01*
X00844639Y00147161D01*
X00844738Y00147111D01*
X00844814Y00147086D01*
X00844864Y00147061D01*
X00844889D01*
X00845388Y00146836D01*
X00845838Y00146561D01*
X00846263Y00146286D01*
X00846638Y00146011D01*
X00846913Y00145761D01*
X00847138Y00145561D01*
X00847288Y00145436D01*
X00847313Y00145411D01*
X00847338Y00145386D01*
X00847713Y00144961D01*
X00848063Y00144536D01*
X00848363Y00144136D01*
X00848587Y00143736D01*
X00848763Y00143412D01*
X00848912Y00143137D01*
X00848962Y00143037D01*
X00848987Y00142987D01*
X00849012Y00142937D01*
Y00142912D01*
X00849212Y00142387D01*
X00849337Y00141887D01*
X00849462Y00141387D01*
X00849537Y00140937D01*
X00849562Y00140562D01*
X00849587Y00140387D01*
Y00140262D01*
X00849612Y00140138D01*
Y00140063D01*
Y00140013D01*
Y00139987D01*
X00849587Y00139413D01*
X00849512Y00138888D01*
X00849412Y00138388D01*
X00849312Y00137963D01*
X00849187Y00137588D01*
X00849137Y00137438D01*
X00849112Y00137313D01*
X00849062Y00137213D01*
X00849037Y00137138D01*
X00849012Y00137088D01*
Y00137063D01*
X00848763Y00136563D01*
X00848513Y00136088D01*
X00848238Y00135689D01*
X00847963Y00135314D01*
X00847713Y00135014D01*
X00847513Y00134789D01*
X00847388Y00134639D01*
X00847338Y00134614D01*
Y00134589D01*
X00846913Y00134214D01*
X00846513Y00133889D01*
X00846088Y00133589D01*
X00845713Y00133364D01*
X00845388Y00133189D01*
X00845113Y00133039D01*
X00845013Y00132989D01*
X00844939Y00132964D01*
X00844913Y00132939D01*
X00844889D01*
X00844364Y00132739D01*
X00843839Y00132614D01*
X00843339Y00132489D01*
X00842889Y00132414D01*
X00842514Y00132389D01*
X00842339Y00132365D01*
X00842214D01*
X00842089Y00132339D01*
X00841939D01*
X00841289Y00132365D01*
X00840990Y00132414D01*
X00840714Y00132439D01*
X00840515Y00132489D01*
X00840340Y00132514D01*
X00840215Y00132539D01*
X00840190D01*
X00839565Y00132739D01*
X00839290Y00132839D01*
X00839065Y00132939D01*
X00838865Y00133014D01*
X00838690Y00133089D01*
X00838590Y00133139D01*
X00838565Y00133164D01*
X00838515D01*
Y00136588D01*
X00841314D01*
X00839565Y00139713D01*
X00835041D01*
Y00131240D01*
X00835841Y00130715D01*
X00836041Y00130565D01*
X00836241Y00130465D01*
X00836366Y00130365D01*
X00836391Y00130340D01*
X00836416D01*
X00836616Y00130240D01*
X00836815Y00130140D01*
X00836941Y00130065D01*
X00836965Y00130040D01*
X00836991D01*
X00837415Y00129840D01*
X00837840Y00129665D01*
X00838265Y00129515D01*
X00838615Y00129390D01*
X00838940Y00129290D01*
X00839165Y00129215D01*
X00839265Y00129190D01*
X00839340D01*
X00839365Y00129165D01*
X00839390D01*
X00839865Y00129065D01*
X00840315Y00129015D01*
X00840740Y00128965D01*
X00841139Y00128915D01*
X00841464D01*
X00841714Y00128890D01*
X00842364D01*
X00842764Y00128915D01*
X00843139Y00128965D01*
X00843464Y00128990D01*
X00843764Y00129040D01*
X00843964Y00129065D01*
X00844114Y00129090D01*
X00844164D01*
X00844564Y00129190D01*
X00844964Y00129290D01*
X00845313Y00129390D01*
X00845613Y00129490D01*
X00845888Y00129590D01*
X00846088Y00129665D01*
X00846213Y00129715D01*
X00846263Y00129740D01*
X00846638Y00129915D01*
X00846988Y00130090D01*
X00847313Y00130240D01*
X00847588Y00130415D01*
X00847838Y00130565D01*
X00848013Y00130665D01*
X00848113Y00130740D01*
X00848163Y00130765D01*
X00848488Y00130990D01*
X00848788Y00131240D01*
X00849062Y00131465D01*
X00849312Y00131690D01*
X00849512Y00131865D01*
X00849687Y00132015D01*
X00849787Y00132114D01*
X00849812Y00132140D01*
X00850087Y00132439D01*
X00850362Y00132714D01*
X00850587Y00133014D01*
X00850787Y00133264D01*
X00850962Y00133464D01*
X00851087Y00133639D01*
X00851162Y00133739D01*
X00851187Y00133789D01*
X00851587Y00134464D01*
X00851762Y00134764D01*
X00851912Y00135064D01*
X00852037Y00135314D01*
X00852137Y00135514D01*
X00852187Y00135639D01*
X00852212Y00135689D01*
X00852486Y00136438D01*
X00852611Y00136788D01*
X00852686Y00137113D01*
X00852762Y00137363D01*
X00852812Y00137588D01*
X00852861Y00137713D01*
Y00137763D01*
X00852986Y00138588D01*
X00853011Y00138963D01*
X00853036Y00139288D01*
X00853061Y00139563D01*
Y00140412D01*
X00853036Y00140812D01*
X00852986Y00141187D01*
X00852961Y00141512D01*
X00852911Y00141812D01*
X00852886Y00142012D01*
X00852861Y00142162D01*
Y00142212D01*
X00852762Y00142612D01*
X00852662Y00143012D01*
X00852561Y00143362D01*
X00852461Y00143687D01*
X00852362Y00143937D01*
X00852287Y00144136D01*
X00852237Y00144261D01*
X00852212Y00144311D01*
X00852037Y00144686D01*
X00851862Y00145036D01*
X00851712Y00145361D01*
X00851537Y00145636D01*
X00851387Y00145886D01*
X00851287Y00146061D01*
X00851212Y00146161D01*
X00851187Y00146211D01*
X00850962Y00146536D01*
X00850712Y00146836D01*
X00850487Y00147111D01*
X00850262Y00147361D01*
X00850087Y00147561D01*
X00849937Y00147736D01*
X00849837Y00147836D01*
X00849812Y00147860D01*
X00849512Y00148135D01*
X00849237Y00148410D01*
X00848937Y00148635D01*
X00848688Y00148835D01*
X00848488Y00149010D01*
X00848313Y00149135D01*
X00848213Y00149210D01*
X00848163Y00149235D01*
X00847488Y00149660D01*
X00847188Y00149835D01*
X00846888Y00149985D01*
X00846638Y00150085D01*
X00846438Y00150185D01*
X00846313Y00150235D01*
X00846263Y00150260D01*
X00845513Y00150535D01*
X00845163Y00150635D01*
X00844838Y00150735D01*
X00844564Y00150810D01*
X00844339Y00150860D01*
X00844214Y00150885D01*
X00844164D01*
X00843339Y00151010D01*
X00842964Y00151060D01*
X00842639Y00151085D01*
X00842364Y00151110D01*
D02*
G37*
G36*
X00751912D02*
X00748463D01*
Y00136438D01*
X00748438Y00136063D01*
X00748388Y00135739D01*
X00748338Y00135439D01*
X00748263Y00135189D01*
X00748188Y00134964D01*
X00748138Y00134814D01*
X00748113Y00134689D01*
X00748088Y00134664D01*
X00747938Y00134389D01*
X00747788Y00134139D01*
X00747613Y00133939D01*
X00747438Y00133739D01*
X00747289Y00133589D01*
X00747163Y00133489D01*
X00747088Y00133414D01*
X00747064Y00133389D01*
X00746564Y00133064D01*
X00746314Y00132914D01*
X00746089Y00132814D01*
X00745864Y00132739D01*
X00745714Y00132664D01*
X00745614Y00132639D01*
X00745564Y00132614D01*
X00744889Y00132464D01*
X00744564Y00132414D01*
X00744264Y00132389D01*
X00744039Y00132365D01*
X00743839Y00132339D01*
X00743664D01*
X00743315Y00132365D01*
X00742965Y00132389D01*
X00742640Y00132439D01*
X00742365Y00132489D01*
X00742140Y00132539D01*
X00741965Y00132564D01*
X00741865Y00132614D01*
X00741815D01*
X00741490Y00132739D01*
X00741215Y00132864D01*
X00740940Y00132989D01*
X00740715Y00133114D01*
X00740540Y00133214D01*
X00740415Y00133314D01*
X00740315Y00133364D01*
X00740290Y00133389D01*
X00740040Y00133589D01*
X00739840Y00133814D01*
X00739665Y00134014D01*
X00739516Y00134214D01*
X00739416Y00134389D01*
X00739315Y00134539D01*
X00739290Y00134639D01*
X00739266Y00134664D01*
X00739141Y00134964D01*
X00739066Y00135264D01*
X00738991Y00135564D01*
X00738966Y00135839D01*
X00738941Y00136088D01*
X00738916Y00136264D01*
Y00136388D01*
Y00136438D01*
Y00151110D01*
X00735442D01*
Y00136088D01*
X00735467Y00135764D01*
X00735491Y00135464D01*
X00735542Y00135214D01*
X00735566Y00134989D01*
X00735617Y00134814D01*
X00735641Y00134714D01*
Y00134664D01*
X00735791Y00134064D01*
X00735891Y00133789D01*
X00735966Y00133539D01*
X00736041Y00133339D01*
X00736116Y00133164D01*
X00736141Y00133064D01*
X00736166Y00133039D01*
X00736466Y00132539D01*
X00736616Y00132315D01*
X00736741Y00132140D01*
X00736866Y00131965D01*
X00736966Y00131840D01*
X00737016Y00131765D01*
X00737041Y00131740D01*
X00737416Y00131315D01*
X00737591Y00131140D01*
X00737766Y00130965D01*
X00737916Y00130840D01*
X00738041Y00130740D01*
X00738116Y00130665D01*
X00738141Y00130640D01*
X00738566Y00130340D01*
X00739016Y00130090D01*
X00739441Y00129865D01*
X00739840Y00129665D01*
X00740190Y00129540D01*
X00740440Y00129415D01*
X00740540Y00129390D01*
X00740615Y00129365D01*
X00740665Y00129340D01*
X00740690D01*
X00741215Y00129190D01*
X00741740Y00129090D01*
X00742240Y00128990D01*
X00742690Y00128940D01*
X00743090Y00128915D01*
X00743264D01*
X00743390Y00128890D01*
X00743664D01*
X00744264Y00128915D01*
X00744814Y00128965D01*
X00745314Y00129040D01*
X00745764Y00129115D01*
X00746164Y00129190D01*
X00746314Y00129240D01*
X00746439Y00129265D01*
X00746539Y00129290D01*
X00746614Y00129315D01*
X00746664Y00129340D01*
X00746689D01*
X00747188Y00129515D01*
X00747663Y00129740D01*
X00748088Y00129940D01*
X00748463Y00130165D01*
X00748763Y00130340D01*
X00748988Y00130490D01*
X00749138Y00130615D01*
X00749163Y00130640D01*
X00749188D01*
X00749663Y00131015D01*
X00749863Y00131215D01*
X00750038Y00131390D01*
X00750163Y00131515D01*
X00750263Y00131640D01*
X00750338Y00131715D01*
X00750363Y00131740D01*
X00750688Y00132190D01*
X00750838Y00132414D01*
X00750963Y00132614D01*
X00751062Y00132789D01*
X00751113Y00132914D01*
X00751162Y00133014D01*
X00751188Y00133039D01*
X00751437Y00133614D01*
X00751537Y00133889D01*
X00751612Y00134139D01*
X00751662Y00134364D01*
X00751712Y00134514D01*
X00751737Y00134639D01*
Y00134664D01*
X00751837Y00135289D01*
X00751862Y00135589D01*
X00751887Y00135864D01*
X00751912Y00136114D01*
Y00151110D01*
D02*
G37*
G36*
X00885453D02*
X00872132D01*
Y00148010D01*
X00882004D01*
Y00142062D01*
X00873856D01*
Y00138938D01*
X00882004D01*
Y00132015D01*
X00872132D01*
Y00128890D01*
X00885453D01*
Y00151110D01*
D02*
G37*
G36*
X00868507D02*
X00855186D01*
Y00148010D01*
X00865058D01*
Y00142062D01*
X00856910D01*
Y00138938D01*
X00865058D01*
Y00132015D01*
X00855186D01*
Y00128890D01*
X00868507D01*
Y00151110D01*
D02*
G37*
G36*
X00786778D02*
X00785929D01*
X00785529Y00151085D01*
X00785154Y00151035D01*
X00784804Y00151010D01*
X00784529Y00150960D01*
X00784304Y00150910D01*
X00784179Y00150885D01*
X00784129D01*
X00783729Y00150810D01*
X00783329Y00150710D01*
X00782954Y00150610D01*
X00782629Y00150510D01*
X00782380Y00150410D01*
X00782154Y00150335D01*
X00782030Y00150285D01*
X00781980Y00150260D01*
X00781630Y00150085D01*
X00781280Y00149910D01*
X00780955Y00149760D01*
X00780680Y00149585D01*
X00780455Y00149460D01*
X00780280Y00149335D01*
X00780180Y00149260D01*
X00780130Y00149235D01*
X00779805Y00149010D01*
X00779480Y00148785D01*
X00779205Y00148560D01*
X00778955Y00148335D01*
X00778755Y00148160D01*
X00778580Y00148010D01*
X00778481Y00147910D01*
X00778456Y00147886D01*
X00778181Y00147586D01*
X00777906Y00147286D01*
X00777681Y00147011D01*
X00777481Y00146761D01*
X00777331Y00146536D01*
X00777206Y00146361D01*
X00777131Y00146261D01*
X00777106Y00146211D01*
X00776681Y00145561D01*
X00776506Y00145236D01*
X00776356Y00144961D01*
X00776256Y00144711D01*
X00776156Y00144536D01*
X00776106Y00144411D01*
X00776081Y00144361D01*
X00775806Y00143587D01*
X00775706Y00143212D01*
X00775606Y00142887D01*
X00775531Y00142612D01*
X00775481Y00142412D01*
X00775456Y00142262D01*
Y00142237D01*
Y00142212D01*
X00775331Y00141412D01*
X00775281Y00141037D01*
X00775256Y00140687D01*
X00775231Y00140412D01*
Y00139563D01*
X00775256Y00139163D01*
X00775306Y00138788D01*
X00775331Y00138463D01*
X00775381Y00138163D01*
X00775431Y00137963D01*
X00775456Y00137813D01*
Y00137788D01*
Y00137763D01*
X00775531Y00137363D01*
X00775631Y00136988D01*
X00775731Y00136638D01*
X00775831Y00136313D01*
X00775931Y00136063D01*
X00776006Y00135864D01*
X00776056Y00135739D01*
X00776081Y00135689D01*
X00776256Y00135314D01*
X00776431Y00134964D01*
X00776581Y00134639D01*
X00776756Y00134364D01*
X00776881Y00134114D01*
X00777006Y00133939D01*
X00777081Y00133839D01*
X00777106Y00133789D01*
X00777331Y00133464D01*
X00777556Y00133164D01*
X00777781Y00132889D01*
X00778006Y00132639D01*
X00778181Y00132439D01*
X00778331Y00132264D01*
X00778430Y00132164D01*
X00778456Y00132140D01*
X00778755Y00131865D01*
X00779055Y00131590D01*
X00779330Y00131365D01*
X00779580Y00131165D01*
X00779805Y00130990D01*
X00779980Y00130865D01*
X00780080Y00130790D01*
X00780130Y00130765D01*
X00780780Y00130365D01*
X00781105Y00130190D01*
X00781380Y00130040D01*
X00781630Y00129915D01*
X00781805Y00129815D01*
X00781930Y00129765D01*
X00781980Y00129740D01*
X00782754Y00129465D01*
X00783129Y00129340D01*
X00783454Y00129265D01*
X00783729Y00129190D01*
X00783929Y00129140D01*
X00784079Y00129090D01*
X00784129D01*
X00784929Y00128965D01*
X00785304Y00128940D01*
X00785654Y00128915D01*
X00785929Y00128890D01*
X00786778D01*
X00787178Y00128915D01*
X00787553Y00128965D01*
X00787878Y00128990D01*
X00788178Y00129040D01*
X00788378Y00129065D01*
X00788528Y00129090D01*
X00788578D01*
X00788978Y00129190D01*
X00789353Y00129290D01*
X00789703Y00129390D01*
X00790027Y00129490D01*
X00790277Y00129590D01*
X00790477Y00129665D01*
X00790602Y00129715D01*
X00790652Y00129740D01*
X00791027Y00129915D01*
X00791377Y00130090D01*
X00791702Y00130240D01*
X00791977Y00130415D01*
X00792227Y00130565D01*
X00792402Y00130665D01*
X00792502Y00130740D01*
X00792552Y00130765D01*
X00792877Y00130990D01*
X00793177Y00131240D01*
X00793452Y00131465D01*
X00793702Y00131690D01*
X00793902Y00131865D01*
X00794077Y00132015D01*
X00794176Y00132114D01*
X00794202Y00132140D01*
X00794476Y00132439D01*
X00794751Y00132714D01*
X00794976Y00133014D01*
X00795176Y00133264D01*
X00795351Y00133464D01*
X00795476Y00133639D01*
X00795551Y00133739D01*
X00795576Y00133789D01*
X00795976Y00134464D01*
X00796151Y00134764D01*
X00796301Y00135064D01*
X00796426Y00135314D01*
X00796526Y00135514D01*
X00796576Y00135639D01*
X00796601Y00135689D01*
X00796876Y00136438D01*
X00797001Y00136788D01*
X00797076Y00137113D01*
X00797151Y00137363D01*
X00797201Y00137588D01*
X00797251Y00137713D01*
Y00137763D01*
X00797376Y00138588D01*
X00797401Y00138963D01*
X00797426Y00139288D01*
X00797451Y00139563D01*
Y00140412D01*
X00797426Y00140812D01*
X00797376Y00141187D01*
X00797351Y00141537D01*
X00797301Y00141812D01*
X00797276Y00142037D01*
X00797251Y00142162D01*
Y00142212D01*
X00797151Y00142612D01*
X00797051Y00143012D01*
X00796951Y00143387D01*
X00796851Y00143712D01*
X00796751Y00143961D01*
X00796676Y00144186D01*
X00796626Y00144311D01*
X00796601Y00144361D01*
X00796426Y00144711D01*
X00796251Y00145061D01*
X00796101Y00145386D01*
X00795926Y00145661D01*
X00795776Y00145886D01*
X00795676Y00146061D01*
X00795601Y00146161D01*
X00795576Y00146211D01*
X00795351Y00146536D01*
X00795101Y00146861D01*
X00794876Y00147136D01*
X00794651Y00147386D01*
X00794476Y00147586D01*
X00794326Y00147760D01*
X00794227Y00147860D01*
X00794202Y00147886D01*
X00793902Y00148160D01*
X00793627Y00148435D01*
X00793327Y00148660D01*
X00793077Y00148860D01*
X00792877Y00149010D01*
X00792702Y00149135D01*
X00792602Y00149210D01*
X00792552Y00149235D01*
X00791877Y00149660D01*
X00791577Y00149835D01*
X00791277Y00149985D01*
X00791027Y00150085D01*
X00790827Y00150185D01*
X00790702Y00150235D01*
X00790652Y00150260D01*
X00789903Y00150535D01*
X00789553Y00150635D01*
X00789228Y00150735D01*
X00788978Y00150810D01*
X00788753Y00150860D01*
X00788628Y00150885D01*
X00788578D01*
X00787753Y00151010D01*
X00787378Y00151060D01*
X00787053Y00151085D01*
X00786778Y00151110D01*
D02*
G37*
G36*
X00771307D02*
X00765534D01*
X00765059Y00151085D01*
X00764634Y00151060D01*
X00764259Y00151010D01*
X00763934Y00150985D01*
X00763684Y00150935D01*
X00763609D01*
X00763534Y00150910D01*
X00763484D01*
X00763034Y00150835D01*
X00762609Y00150735D01*
X00762210Y00150610D01*
X00761860Y00150510D01*
X00761560Y00150410D01*
X00761360Y00150335D01*
X00761210Y00150285D01*
X00761160Y00150260D01*
X00760785Y00150085D01*
X00760410Y00149910D01*
X00760085Y00149735D01*
X00759785Y00149585D01*
X00759560Y00149435D01*
X00759360Y00149310D01*
X00759260Y00149235D01*
X00759210Y00149210D01*
X00758885Y00148985D01*
X00758586Y00148735D01*
X00758311Y00148510D01*
X00758061Y00148285D01*
X00757861Y00148085D01*
X00757711Y00147935D01*
X00757611Y00147836D01*
X00757586Y00147810D01*
X00757111Y00147236D01*
X00756711Y00146636D01*
X00756361Y00146061D01*
X00756086Y00145511D01*
X00755861Y00145036D01*
X00755786Y00144836D01*
X00755711Y00144661D01*
X00755661Y00144536D01*
X00755611Y00144436D01*
X00755586Y00144361D01*
Y00144336D01*
X00755361Y00143587D01*
X00755186Y00142837D01*
X00755087Y00142087D01*
X00754986Y00141412D01*
X00754961Y00141112D01*
X00754937Y00140837D01*
Y00140587D01*
X00754911Y00140387D01*
Y00139987D01*
X00754937Y00139138D01*
X00755012Y00138313D01*
X00755136Y00137588D01*
X00755186Y00137238D01*
X00755236Y00136938D01*
X00755311Y00136638D01*
X00755361Y00136388D01*
X00755436Y00136164D01*
X00755486Y00135989D01*
X00755511Y00135839D01*
X00755561Y00135739D01*
X00755586Y00135664D01*
Y00135639D01*
X00755861Y00134914D01*
X00756186Y00134264D01*
X00756511Y00133689D01*
X00756836Y00133164D01*
X00756986Y00132964D01*
X00757136Y00132764D01*
X00757261Y00132589D01*
X00757361Y00132439D01*
X00757461Y00132339D01*
X00757536Y00132264D01*
X00757561Y00132214D01*
X00757586Y00132190D01*
X00757861Y00131890D01*
X00758136Y00131640D01*
X00758411Y00131390D01*
X00758661Y00131190D01*
X00758885Y00131015D01*
X00759061Y00130865D01*
X00759160Y00130790D01*
X00759210Y00130765D01*
X00759885Y00130365D01*
X00760210Y00130190D01*
X00760510Y00130040D01*
X00760785Y00129915D01*
X00760985Y00129815D01*
X00761110Y00129765D01*
X00761160Y00129740D01*
X00761985Y00129465D01*
X00762385Y00129340D01*
X00762735Y00129265D01*
X00763034Y00129190D01*
X00763284Y00129140D01*
X00763434Y00129090D01*
X00763484D01*
X00764384Y00128965D01*
X00764809Y00128940D01*
X00765209Y00128915D01*
X00765534Y00128890D01*
X00771307D01*
Y00151110D01*
D02*
G37*
G36*
X00731667D02*
X00728218D01*
Y00132015D01*
X00718921D01*
Y00128890D01*
X00731667D01*
Y00151110D01*
D02*
G37*
G36*
X00715897D02*
X00703175D01*
Y00148010D01*
X00712447D01*
Y00142062D01*
X00704899D01*
Y00138938D01*
X00712447D01*
Y00132015D01*
X00703175D01*
Y00128890D01*
X00715897D01*
Y00151110D01*
D02*
G37*
%LPD*%
G36*
X00786928Y00147635D02*
X00787453Y00147561D01*
X00787953Y00147461D01*
X00788378Y00147361D01*
X00788753Y00147236D01*
X00788903Y00147186D01*
X00789028Y00147161D01*
X00789128Y00147111D01*
X00789203Y00147086D01*
X00789253Y00147061D01*
X00789278D01*
X00789778Y00146836D01*
X00790253Y00146561D01*
X00790652Y00146286D01*
X00791027Y00146011D01*
X00791327Y00145786D01*
X00791552Y00145586D01*
X00791702Y00145461D01*
X00791727Y00145436D01*
X00791752Y00145411D01*
X00792127Y00144986D01*
X00792452Y00144561D01*
X00792752Y00144136D01*
X00792977Y00143762D01*
X00793152Y00143412D01*
X00793302Y00143137D01*
X00793352Y00143037D01*
X00793377Y00142987D01*
X00793402Y00142937D01*
Y00142912D01*
X00793602Y00142387D01*
X00793727Y00141887D01*
X00793851Y00141387D01*
X00793926Y00140937D01*
X00793951Y00140562D01*
X00793977Y00140387D01*
Y00140262D01*
X00794001Y00140138D01*
Y00140063D01*
Y00140013D01*
Y00139987D01*
X00793977Y00139413D01*
X00793902Y00138888D01*
X00793802Y00138388D01*
X00793702Y00137963D01*
X00793577Y00137588D01*
X00793527Y00137438D01*
X00793502Y00137313D01*
X00793452Y00137213D01*
X00793427Y00137138D01*
X00793402Y00137088D01*
Y00137063D01*
X00793177Y00136563D01*
X00792902Y00136088D01*
X00792627Y00135689D01*
X00792352Y00135314D01*
X00792127Y00135014D01*
X00791927Y00134789D01*
X00791802Y00134639D01*
X00791752Y00134614D01*
Y00134589D01*
X00791327Y00134214D01*
X00790902Y00133889D01*
X00790477Y00133589D01*
X00790102Y00133364D01*
X00789778Y00133189D01*
X00789503Y00133039D01*
X00789403Y00132989D01*
X00789328Y00132964D01*
X00789303Y00132939D01*
X00789278D01*
X00788753Y00132739D01*
X00788228Y00132614D01*
X00787728Y00132489D01*
X00787278Y00132414D01*
X00786903Y00132389D01*
X00786753Y00132365D01*
X00786603D01*
X00786503Y00132339D01*
X00786354D01*
X00785779Y00132365D01*
X00785254Y00132439D01*
X00784754Y00132539D01*
X00784304Y00132639D01*
X00783954Y00132764D01*
X00783804Y00132814D01*
X00783679Y00132839D01*
X00783554Y00132889D01*
X00783479Y00132914D01*
X00783454Y00132939D01*
X00783429D01*
X00782929Y00133164D01*
X00782455Y00133439D01*
X00782030Y00133714D01*
X00781655Y00133989D01*
X00781355Y00134214D01*
X00781130Y00134414D01*
X00780980Y00134539D01*
X00780930Y00134589D01*
X00780555Y00135014D01*
X00780230Y00135439D01*
X00779930Y00135864D01*
X00779705Y00136238D01*
X00779530Y00136563D01*
X00779380Y00136838D01*
X00779330Y00136938D01*
X00779305Y00137013D01*
X00779280Y00137038D01*
Y00137063D01*
X00779080Y00137588D01*
X00778955Y00138113D01*
X00778830Y00138613D01*
X00778755Y00139063D01*
X00778705Y00139438D01*
Y00139588D01*
X00778680Y00139738D01*
Y00139838D01*
Y00139913D01*
Y00139963D01*
Y00139987D01*
X00778705Y00140562D01*
X00778780Y00141087D01*
X00778880Y00141587D01*
X00778980Y00142037D01*
X00779105Y00142387D01*
X00779155Y00142537D01*
X00779180Y00142662D01*
X00779230Y00142787D01*
X00779255Y00142862D01*
X00779280Y00142887D01*
Y00142912D01*
X00779505Y00143412D01*
X00779780Y00143886D01*
X00780055Y00144311D01*
X00780330Y00144686D01*
X00780555Y00144986D01*
X00780755Y00145211D01*
X00780880Y00145361D01*
X00780905Y00145411D01*
X00780930D01*
X00781355Y00145786D01*
X00781780Y00146111D01*
X00782205Y00146411D01*
X00782579Y00146636D01*
X00782929Y00146811D01*
X00783204Y00146961D01*
X00783304Y00147011D01*
X00783354Y00147036D01*
X00783404Y00147061D01*
X00783429D01*
X00783954Y00147261D01*
X00784454Y00147386D01*
X00784954Y00147511D01*
X00785404Y00147586D01*
X00785779Y00147635D01*
X00785954D01*
X00786078Y00147661D01*
X00786354D01*
X00786928Y00147635D01*
D02*
G37*
G36*
X00767858Y00132339D02*
X00766034D01*
X00765334Y00132365D01*
X00764684Y00132439D01*
X00764109Y00132539D01*
X00763609Y00132639D01*
X00763384Y00132689D01*
X00763209Y00132739D01*
X00763034Y00132789D01*
X00762885Y00132839D01*
X00762785Y00132864D01*
X00762710Y00132889D01*
X00762660Y00132914D01*
X00762635D01*
X00762110Y00133139D01*
X00761635Y00133389D01*
X00761210Y00133664D01*
X00760860Y00133939D01*
X00760560Y00134164D01*
X00760360Y00134364D01*
X00760235Y00134489D01*
X00760185Y00134539D01*
X00759860Y00134914D01*
X00759585Y00135314D01*
X00759360Y00135714D01*
X00759160Y00136088D01*
X00759035Y00136413D01*
X00758911Y00136688D01*
X00758885Y00136788D01*
X00758860Y00136863D01*
X00758836Y00136888D01*
Y00136913D01*
X00758686Y00137438D01*
X00758561Y00137988D01*
X00758486Y00138513D01*
X00758436Y00138988D01*
X00758386Y00139388D01*
Y00139563D01*
X00758361Y00139713D01*
Y00139812D01*
Y00139913D01*
Y00139963D01*
Y00139987D01*
X00758386Y00140612D01*
X00758436Y00141212D01*
X00758511Y00141737D01*
X00758611Y00142187D01*
X00758686Y00142562D01*
X00758736Y00142712D01*
X00758761Y00142837D01*
X00758785Y00142962D01*
X00758811Y00143037D01*
X00758836Y00143062D01*
Y00143087D01*
X00759010Y00143587D01*
X00759235Y00144061D01*
X00759460Y00144461D01*
X00759685Y00144811D01*
X00759885Y00145086D01*
X00760035Y00145286D01*
X00760135Y00145411D01*
X00760185Y00145461D01*
X00760560Y00145861D01*
X00760985Y00146186D01*
X00761385Y00146461D01*
X00761785Y00146711D01*
X00762110Y00146886D01*
X00762385Y00147011D01*
X00762485Y00147061D01*
X00762560Y00147086D01*
X00762609Y00147111D01*
X00762635D01*
X00763209Y00147286D01*
X00763784Y00147436D01*
X00764359Y00147536D01*
X00764884Y00147586D01*
X00765334Y00147635D01*
X00765534D01*
X00765709Y00147661D01*
X00767858D01*
Y00132339D01*
D02*
G37*
D10*
X00864100Y00395000D02*
G03*
X00864100Y00395000I-00001250J00000000D01*
G01*
D11*
X00865750Y00379850D02*
X00879250D01*
X00865750Y00387850D02*
X00879250D01*
Y00379850D02*
Y00387850D01*
X00865750Y00379850D02*
Y00387850D01*
X00888219Y00365479D02*
Y00399521D01*
X00911781Y00365479D02*
Y00399521D01*
X00404000Y00270750D02*
X00421000D01*
X00404000Y00254250D02*
X00421000D01*
X00404000Y00250750D02*
X00421000D01*
X00404000Y00234250D02*
X00421000D01*
X00404000Y00230750D02*
X00421000D01*
X00404000Y00214250D02*
X00421000D01*
X00404000Y00290750D02*
X00421000D01*
X00404000Y00274250D02*
X00421000D01*
X00218697Y00428970D02*
X00236197D01*
X00218750Y00446000D02*
X00236250D01*
X00218697Y00328970D02*
X00236197D01*
X00218750Y00346000D02*
X00236250D01*
X00218697Y00228970D02*
X00236197D01*
X00218750Y00246000D02*
X00236250D01*
X00218697Y00203970D02*
X00236197D01*
X00218750Y00221000D02*
X00236250D01*
X00218697Y00278970D02*
X00236197D01*
X00218750Y00296000D02*
X00236250D01*
X00218697Y00128970D02*
X00236197D01*
X00218750Y00146000D02*
X00236250D01*
X00218697Y00403970D02*
X00236197D01*
X00218750Y00421000D02*
X00236250D01*
X00218697Y00378970D02*
X00236197D01*
X00218750Y00396000D02*
X00236250D01*
X00218697Y00353970D02*
X00236197D01*
X00218750Y00371000D02*
X00236250D01*
X00218697Y00028970D02*
X00236197D01*
X00218750Y00046000D02*
X00236250D01*
X00218697Y00086470D02*
X00236197D01*
X00218750Y00103500D02*
X00236250D01*
X00218697Y00068970D02*
X00236197D01*
X00218750Y00086000D02*
X00236250D01*
X00218697Y00103970D02*
X00236197D01*
X00218750Y00121000D02*
X00236250D01*
X00218697Y00153970D02*
X00236197D01*
X00218750Y00171000D02*
X00236250D01*
X00218697Y00178970D02*
X00236197D01*
X00218750Y00196000D02*
X00236250D01*
X00218697Y00303970D02*
X00236197D01*
X00218750Y00321000D02*
X00236250D01*
X00218697Y00253970D02*
X00236197D01*
X00218750Y00271000D02*
X00236250D01*
X00381829Y00277502D02*
Y00287498D01*
X00376831D01*
X00375164Y00285832D01*
Y00282500D01*
X00376831Y00280834D01*
X00381829D01*
X00378497D02*
X00375164Y00277502D01*
X00371832Y00285832D02*
X00370166Y00287498D01*
X00366834D01*
X00365168Y00285832D01*
Y00284166D01*
X00366834Y00282500D01*
X00368500D01*
X00366834D01*
X00365168Y00280834D01*
Y00279168D01*
X00366834Y00277502D01*
X00370166D01*
X00371832Y00279168D01*
X00355171Y00287498D02*
X00361836D01*
Y00282500D01*
X00358503Y00284166D01*
X00356837D01*
X00355171Y00282500D01*
Y00279168D01*
X00356837Y00277502D01*
X00360169D01*
X00361836Y00279168D01*
X00380829Y00257502D02*
Y00267498D01*
X00375831D01*
X00374165Y00265832D01*
Y00262500D01*
X00375831Y00260834D01*
X00380829D01*
X00377497D02*
X00374165Y00257502D01*
X00370832Y00265832D02*
X00369166Y00267498D01*
X00365834D01*
X00364168Y00265832D01*
Y00264166D01*
X00365834Y00262500D01*
X00367500D01*
X00365834D01*
X00364168Y00260834D01*
Y00259168D01*
X00365834Y00257502D01*
X00369166D01*
X00370832Y00259168D01*
X00355837Y00257502D02*
Y00267498D01*
X00360835Y00262500D01*
X00354171D01*
X00380829Y00237502D02*
Y00247498D01*
X00375831D01*
X00374165Y00245832D01*
Y00242500D01*
X00375831Y00240834D01*
X00380829D01*
X00377497D02*
X00374165Y00237502D01*
X00370832Y00245832D02*
X00369166Y00247498D01*
X00365834D01*
X00364168Y00245832D01*
Y00244166D01*
X00365834Y00242500D01*
X00367500D01*
X00365834D01*
X00364168Y00240834D01*
Y00239168D01*
X00365834Y00237502D01*
X00369166D01*
X00370832Y00239168D01*
X00360835Y00245832D02*
X00359169Y00247498D01*
X00355837D01*
X00354171Y00245832D01*
Y00244166D01*
X00355837Y00242500D01*
X00357503D01*
X00355837D01*
X00354171Y00240834D01*
Y00239168D01*
X00355837Y00237502D01*
X00359169D01*
X00360835Y00239168D01*
X00380829Y00217502D02*
Y00227498D01*
X00375831D01*
X00374165Y00225832D01*
Y00222500D01*
X00375831Y00220834D01*
X00380829D01*
X00377497D02*
X00374165Y00217502D01*
X00370832Y00225832D02*
X00369166Y00227498D01*
X00365834D01*
X00364168Y00225832D01*
Y00224166D01*
X00365834Y00222500D01*
X00367500D01*
X00365834D01*
X00364168Y00220834D01*
Y00219168D01*
X00365834Y00217502D01*
X00369166D01*
X00370832Y00219168D01*
X00354171Y00217502D02*
X00360835D01*
X00354171Y00224166D01*
Y00225832D01*
X00355837Y00227498D01*
X00359169D01*
X00360835Y00225832D01*
X00292498Y00040832D02*
X00294165Y00042498D01*
X00297497D01*
X00299163Y00040832D01*
Y00034168D01*
X00297497Y00032502D01*
X00294165D01*
X00292498Y00034168D01*
X00289166Y00040832D02*
X00287500Y00042498D01*
X00284168D01*
X00282502Y00040832D01*
Y00039166D01*
X00284168Y00037500D01*
X00285834D01*
X00284168D01*
X00282502Y00035834D01*
Y00034168D01*
X00284168Y00032502D01*
X00287500D01*
X00289166Y00034168D01*
X00279169Y00032502D02*
X00275837D01*
X00277503D01*
Y00042498D01*
X00279169Y00040832D01*
X00294165Y00098332D02*
X00295831Y00099998D01*
X00299163D01*
X00300829Y00098332D01*
Y00091668D01*
X00299163Y00090002D01*
X00295831D01*
X00294165Y00091668D01*
X00290832Y00098332D02*
X00289166Y00099998D01*
X00285834D01*
X00284168Y00098332D01*
Y00096666D01*
X00285834Y00095000D01*
X00287500D01*
X00285834D01*
X00284168Y00093334D01*
Y00091668D01*
X00285834Y00090002D01*
X00289166D01*
X00290832Y00091668D01*
X00280835Y00098332D02*
X00279169Y00099998D01*
X00275837D01*
X00274171Y00098332D01*
Y00091668D01*
X00275837Y00090002D01*
X00279169D01*
X00280835Y00091668D01*
Y00098332D01*
X00294165Y00115832D02*
X00295831Y00117498D01*
X00299163D01*
X00300829Y00115832D01*
Y00109168D01*
X00299163Y00107502D01*
X00295831D01*
X00294165Y00109168D01*
X00284168Y00107502D02*
X00290832D01*
X00284168Y00114166D01*
Y00115832D01*
X00285834Y00117498D01*
X00289166D01*
X00290832Y00115832D01*
X00280835Y00109168D02*
X00279169Y00107502D01*
X00275837D01*
X00274171Y00109168D01*
Y00115832D01*
X00275837Y00117498D01*
X00279169D01*
X00280835Y00115832D01*
Y00114166D01*
X00279169Y00112500D01*
X00274171D01*
X00294165Y00140832D02*
X00295831Y00142498D01*
X00299163D01*
X00300829Y00140832D01*
Y00134168D01*
X00299163Y00132502D01*
X00295831D01*
X00294165Y00134168D01*
X00284168Y00132502D02*
X00290832D01*
X00284168Y00139166D01*
Y00140832D01*
X00285834Y00142498D01*
X00289166D01*
X00290832Y00140832D01*
X00280835D02*
X00279169Y00142498D01*
X00275837D01*
X00274171Y00140832D01*
Y00139166D01*
X00275837Y00137500D01*
X00274171Y00135834D01*
Y00134168D01*
X00275837Y00132502D01*
X00279169D01*
X00280835Y00134168D01*
Y00135834D01*
X00279169Y00137500D01*
X00280835Y00139166D01*
Y00140832D01*
X00279169Y00137500D02*
X00275837D01*
X00294165Y00168332D02*
X00295831Y00169998D01*
X00299163D01*
X00300829Y00168332D01*
Y00161668D01*
X00299163Y00160002D01*
X00295831D01*
X00294165Y00161668D01*
X00284168Y00160002D02*
X00290832D01*
X00284168Y00166666D01*
Y00168332D01*
X00285834Y00169998D01*
X00289166D01*
X00290832Y00168332D01*
X00280835Y00169998D02*
X00274171D01*
Y00168332D01*
X00280835Y00161668D01*
Y00160002D01*
X00294165Y00190832D02*
X00295831Y00192498D01*
X00299163D01*
X00300829Y00190832D01*
Y00184168D01*
X00299163Y00182502D01*
X00295831D01*
X00294165Y00184168D01*
X00284168Y00182502D02*
X00290832D01*
X00284168Y00189166D01*
Y00190832D01*
X00285834Y00192498D01*
X00289166D01*
X00290832Y00190832D01*
X00274171Y00192498D02*
X00277503Y00190832D01*
X00280835Y00187500D01*
Y00184168D01*
X00279169Y00182502D01*
X00275837D01*
X00274171Y00184168D01*
Y00185834D01*
X00275837Y00187500D01*
X00280835D01*
X00294165Y00215832D02*
X00295831Y00217498D01*
X00299163D01*
X00300829Y00215832D01*
Y00209168D01*
X00299163Y00207502D01*
X00295831D01*
X00294165Y00209168D01*
X00284168Y00207502D02*
X00290832D01*
X00284168Y00214166D01*
Y00215832D01*
X00285834Y00217498D01*
X00289166D01*
X00290832Y00215832D01*
X00274171Y00217498D02*
X00280835D01*
Y00212500D01*
X00277503Y00214166D01*
X00275837D01*
X00274171Y00212500D01*
Y00209168D01*
X00275837Y00207502D01*
X00279169D01*
X00280835Y00209168D01*
X00294165Y00240832D02*
X00295831Y00242498D01*
X00299163D01*
X00300829Y00240832D01*
Y00234168D01*
X00299163Y00232502D01*
X00295831D01*
X00294165Y00234168D01*
X00284168Y00232502D02*
X00290832D01*
X00284168Y00239166D01*
Y00240832D01*
X00285834Y00242498D01*
X00289166D01*
X00290832Y00240832D01*
X00275837Y00232502D02*
Y00242498D01*
X00280835Y00237500D01*
X00274171D01*
X00294165Y00265832D02*
X00295831Y00267498D01*
X00299163D01*
X00300829Y00265832D01*
Y00259168D01*
X00299163Y00257502D01*
X00295831D01*
X00294165Y00259168D01*
X00284168Y00257502D02*
X00290832D01*
X00284168Y00264166D01*
Y00265832D01*
X00285834Y00267498D01*
X00289166D01*
X00290832Y00265832D01*
X00280835D02*
X00279169Y00267498D01*
X00275837D01*
X00274171Y00265832D01*
Y00264166D01*
X00275837Y00262500D01*
X00277503D01*
X00275837D01*
X00274171Y00260834D01*
Y00259168D01*
X00275837Y00257502D01*
X00279169D01*
X00280835Y00259168D01*
X00294165Y00290832D02*
X00295831Y00292498D01*
X00299163D01*
X00300829Y00290832D01*
Y00284168D01*
X00299163Y00282502D01*
X00295831D01*
X00294165Y00284168D01*
X00284168Y00282502D02*
X00290832D01*
X00284168Y00289166D01*
Y00290832D01*
X00285834Y00292498D01*
X00289166D01*
X00290832Y00290832D01*
X00274171Y00282502D02*
X00280835D01*
X00274171Y00289166D01*
Y00290832D01*
X00275837Y00292498D01*
X00279169D01*
X00280835Y00290832D01*
X00294998Y00315832D02*
X00296665Y00317498D01*
X00299997D01*
X00301663Y00315832D01*
Y00309168D01*
X00299997Y00307502D01*
X00296665D01*
X00294998Y00309168D01*
X00285002Y00307502D02*
X00291666D01*
X00285002Y00314166D01*
Y00315832D01*
X00286668Y00317498D01*
X00290000D01*
X00291666Y00315832D01*
X00281669Y00307502D02*
X00278337D01*
X00280003D01*
Y00317498D01*
X00281669Y00315832D01*
X00294165Y00340832D02*
X00295831Y00342498D01*
X00299163D01*
X00300829Y00340832D01*
Y00334168D01*
X00299163Y00332502D01*
X00295831D01*
X00294165Y00334168D01*
X00284168Y00332502D02*
X00290832D01*
X00284168Y00339166D01*
Y00340832D01*
X00285834Y00342498D01*
X00289166D01*
X00290832Y00340832D01*
X00280835D02*
X00279169Y00342498D01*
X00275837D01*
X00274171Y00340832D01*
Y00334168D01*
X00275837Y00332502D01*
X00279169D01*
X00280835Y00334168D01*
Y00340832D01*
X00293332Y00365832D02*
X00294998Y00367498D01*
X00298330D01*
X00299996Y00365832D01*
Y00359168D01*
X00298330Y00357502D01*
X00294998D01*
X00293332Y00359168D01*
X00289999Y00357502D02*
X00286667D01*
X00288333D01*
Y00367498D01*
X00289999Y00365832D01*
X00281669Y00359168D02*
X00280002Y00357502D01*
X00276670D01*
X00275004Y00359168D01*
Y00365832D01*
X00276670Y00367498D01*
X00280002D01*
X00281669Y00365832D01*
Y00364166D01*
X00280002Y00362500D01*
X00275004D01*
X00293332Y00390832D02*
X00294998Y00392498D01*
X00298330D01*
X00299996Y00390832D01*
Y00384168D01*
X00298330Y00382502D01*
X00294998D01*
X00293332Y00384168D01*
X00289999Y00382502D02*
X00286667D01*
X00288333D01*
Y00392498D01*
X00289999Y00390832D01*
X00281669D02*
X00280002Y00392498D01*
X00276670D01*
X00275004Y00390832D01*
Y00389166D01*
X00276670Y00387500D01*
X00275004Y00385834D01*
Y00384168D01*
X00276670Y00382502D01*
X00280002D01*
X00281669Y00384168D01*
Y00385834D01*
X00280002Y00387500D01*
X00281669Y00389166D01*
Y00390832D01*
X00280002Y00387500D02*
X00276670D01*
X00293332Y00415832D02*
X00294998Y00417498D01*
X00298330D01*
X00299996Y00415832D01*
Y00409168D01*
X00298330Y00407502D01*
X00294998D01*
X00293332Y00409168D01*
X00289999Y00407502D02*
X00286667D01*
X00288333D01*
Y00417498D01*
X00289999Y00415832D01*
X00281669Y00417498D02*
X00275004D01*
Y00415832D01*
X00281669Y00409168D01*
Y00407502D01*
X00293332Y00440832D02*
X00294998Y00442498D01*
X00298330D01*
X00299996Y00440832D01*
Y00434168D01*
X00298330Y00432502D01*
X00294998D01*
X00293332Y00434168D01*
X00289999Y00432502D02*
X00286667D01*
X00288333D01*
Y00442498D01*
X00289999Y00440832D01*
X00275004Y00442498D02*
X00278336Y00440832D01*
X00281669Y00437500D01*
Y00434168D01*
X00280002Y00432502D01*
X00276670D01*
X00275004Y00434168D01*
Y00435834D01*
X00276670Y00437500D01*
X00281669D01*
X00293332Y00080832D02*
X00294998Y00082498D01*
X00298330D01*
X00299996Y00080832D01*
Y00074168D01*
X00298330Y00072502D01*
X00294998D01*
X00293332Y00074168D01*
X00289999Y00072502D02*
X00286667D01*
X00288333D01*
Y00082498D01*
X00289999Y00080832D01*
X00275004Y00082498D02*
X00281669D01*
Y00077500D01*
X00278336Y00079166D01*
X00276670D01*
X00275004Y00077500D01*
Y00074168D01*
X00276670Y00072502D01*
X00280002D01*
X00281669Y00074168D01*
D14*
X00852356Y00395864D02*
Y00380629D01*
X00844738D01*
X00842199Y00383168D01*
Y00393325D01*
X00844738Y00395864D01*
X00852356D01*
X00826964D02*
X00832042Y00393325D01*
X00837121Y00388246D01*
Y00383168D01*
X00834582Y00380629D01*
X00829503D01*
X00826964Y00383168D01*
Y00385707D01*
X00829503Y00388246D01*
X00837121D01*
X00972657Y00387578D02*
X00975196Y00390117D01*
X00980274D01*
X00982813Y00387578D01*
Y00377422D01*
X00980274Y00374883D01*
X00975196D01*
X00972657Y00377422D01*
X00959961Y00374883D02*
Y00390117D01*
X00967578Y00382500D01*
X00957422D01*
X00952343Y00377422D02*
X00949804Y00374883D01*
X00944726D01*
X00942187Y00377422D01*
Y00387578D01*
X00944726Y00390117D01*
X00949804D01*
X00952343Y00387578D01*
Y00385039D01*
X00949804Y00382500D01*
X00942187D01*
M02*
