%TF.GenerationSoftware,Altium Limited,Altium Designer,26.3.0 (6)*%
G04 Layer_Physical_Order=2*
G04 Layer_Color=36540*
%FSLAX44Y44*%
%MOMM*%
%TF.SameCoordinates,5B09BF5B-3F6B-42AE-A125-B0E28617C609*%
%TF.FilePolarity,Positive*%
%TF.FileFunction,Copper,L2,Inr,Signal*%
%TF.Part,Single*%
G01*
G75*
%TA.AperFunction,ComponentPad*%
%ADD49C,1.5500*%
%ADD50R,1.5500X1.5500*%
%ADD51C,0.6000*%
%ADD52R,1.2000X1.2000*%
G04:AMPARAMS|DCode=53|XSize=1mm|YSize=2.2mm|CornerRadius=0.5mm|HoleSize=0mm|Usage=FLASHONLY|Rotation=90.000|XOffset=0mm|YOffset=0mm|HoleType=Round|Shape=RoundedRectangle|*
%AMROUNDEDRECTD53*
21,1,1.0000,1.2000,0,0,90.0*
21,1,0.0000,2.2000,0,0,90.0*
1,1,1.0000,0.6000,0.0000*
1,1,1.0000,0.6000,0.0000*
1,1,1.0000,-0.6000,0.0000*
1,1,1.0000,-0.6000,0.0000*
%
%ADD53ROUNDEDRECTD53*%
G04:AMPARAMS|DCode=54|XSize=1mm|YSize=1.8mm|CornerRadius=0.5mm|HoleSize=0mm|Usage=FLASHONLY|Rotation=90.000|XOffset=0mm|YOffset=0mm|HoleType=Round|Shape=RoundedRectangle|*
%AMROUNDEDRECTD54*
21,1,1.0000,0.8000,0,0,90.0*
21,1,0.0000,1.8000,0,0,90.0*
1,1,1.0000,0.4000,0.0000*
1,1,1.0000,0.4000,0.0000*
1,1,1.0000,-0.4000,0.0000*
1,1,1.0000,-0.4000,0.0000*
%
%ADD54ROUNDEDRECTD54*%
%ADD55C,1.5000*%
%ADD56C,2.8000*%
%ADD57C,1.2000*%
%ADD58R,2.8000X2.8000*%
%TA.AperFunction,WasherPad*%
%ADD59C,6.0000*%
%TA.AperFunction,ViaPad*%
%ADD60C,0.6000*%
G36*
X952938Y494821D02*
X958763Y494054D01*
X964438Y492533D01*
X969866Y490285D01*
X974954Y487347D01*
X979616Y483770D01*
X983770Y479616D01*
X987347Y474954D01*
X990285Y469866D01*
X992533Y464438D01*
X994054Y458763D01*
X994821Y452938D01*
X994820Y450000D01*
X994821Y50000D01*
X994821Y47062D01*
X994054Y41237D01*
X992533Y35562D01*
X990285Y30134D01*
X987347Y25045D01*
X983770Y20384D01*
X979616Y16230D01*
X974955Y12653D01*
X969866Y9715D01*
X964438Y7467D01*
X958763Y5946D01*
X952938Y5179D01*
X950000D01*
X50000Y5179D01*
X47062Y5179D01*
X41237Y5946D01*
X35562Y7467D01*
X30134Y9715D01*
X25045Y12653D01*
X20384Y16230D01*
X16230Y20384D01*
X12653Y25045D01*
X9715Y30134D01*
X7467Y35562D01*
X5946Y41237D01*
X5179Y47062D01*
Y50000D01*
X5179Y450000D01*
Y452938D01*
X5946Y458763D01*
X7467Y464438D01*
X9715Y469866D01*
X12653Y474954D01*
X16230Y479616D01*
X20384Y483770D01*
X25045Y487347D01*
X30134Y490285D01*
X35562Y492533D01*
X41237Y494054D01*
X47062Y494821D01*
X50000Y494821D01*
X950000Y494821D01*
X952938Y494821D01*
D02*
G37*
%LPC*%
G36*
X595995Y479776D02*
X594005D01*
X592168Y479015D01*
X590761Y477609D01*
X590000Y475771D01*
Y473782D01*
X590761Y471944D01*
X592168Y470537D01*
X594005Y469776D01*
X595995D01*
X597832Y470537D01*
X599239Y471944D01*
X600000Y473782D01*
Y475771D01*
X599239Y477609D01*
X597832Y479015D01*
X595995Y479776D01*
D02*
G37*
G36*
X580995D02*
X579005D01*
X577168Y479015D01*
X575761Y477609D01*
X575000Y475771D01*
Y473782D01*
X575761Y471944D01*
X577168Y470537D01*
X579005Y469776D01*
X580995D01*
X582832Y470537D01*
X584239Y471944D01*
X585000Y473782D01*
Y475771D01*
X584239Y477609D01*
X582832Y479015D01*
X580995Y479776D01*
D02*
G37*
G36*
X541322Y470040D02*
X541270D01*
Y461270D01*
X550040D01*
Y461322D01*
X549356Y463875D01*
X548034Y466165D01*
X546165Y468034D01*
X543875Y469356D01*
X541322Y470040D01*
D02*
G37*
G36*
X538730D02*
X538678D01*
X536125Y469356D01*
X533835Y468034D01*
X531966Y466165D01*
X530644Y463875D01*
X529960Y461322D01*
Y461270D01*
X538730D01*
Y470040D01*
D02*
G37*
G36*
X365690Y472790D02*
X345110D01*
Y452210D01*
X365690D01*
Y472790D01*
D02*
G37*
G36*
X331355D02*
X328645D01*
X326028Y472089D01*
X323682Y470734D01*
X321766Y468818D01*
X320411Y466472D01*
X319710Y463855D01*
Y461145D01*
X320411Y458528D01*
X321766Y456182D01*
X323682Y454266D01*
X326028Y452911D01*
X328645Y452210D01*
X331355D01*
X333972Y452911D01*
X336318Y454266D01*
X338234Y456182D01*
X339589Y458528D01*
X340290Y461145D01*
Y463855D01*
X339589Y466472D01*
X338234Y468818D01*
X336318Y470734D01*
X333972Y472089D01*
X331355Y472790D01*
D02*
G37*
G36*
X550040Y458730D02*
X541270D01*
Y449960D01*
X541322D01*
X543875Y450644D01*
X546165Y451966D01*
X548034Y453835D01*
X549356Y456125D01*
X550040Y458678D01*
Y458730D01*
D02*
G37*
G36*
X538730D02*
X529960D01*
Y458678D01*
X530644Y456125D01*
X531966Y453835D01*
X533835Y451966D01*
X536125Y450644D01*
X538678Y449960D01*
X538730D01*
Y458730D01*
D02*
G37*
G36*
X136755Y440290D02*
X136670D01*
Y431270D01*
X145690D01*
Y431355D01*
X144989Y433972D01*
X143634Y436318D01*
X141718Y438234D01*
X139372Y439589D01*
X136755Y440290D01*
D02*
G37*
G36*
X134130D02*
X134045D01*
X131428Y439589D01*
X129082Y438234D01*
X127166Y436318D01*
X125811Y433972D01*
X125110Y431355D01*
Y431270D01*
X134130D01*
Y440290D01*
D02*
G37*
G36*
X520995Y440000D02*
X519005D01*
X517168Y439239D01*
X515761Y437832D01*
X515000Y435995D01*
Y434005D01*
X515761Y432168D01*
X517168Y430761D01*
X519005Y430000D01*
X520995D01*
X522832Y430761D01*
X524239Y432168D01*
X525000Y434005D01*
Y435995D01*
X524239Y437832D01*
X522832Y439239D01*
X520995Y440000D01*
D02*
G37*
G36*
X433495D02*
X431505D01*
X429668Y439239D01*
X428261Y437832D01*
X427500Y435995D01*
Y434005D01*
X428261Y432168D01*
X429668Y430761D01*
X431505Y430000D01*
X433495D01*
X435332Y430761D01*
X436739Y432168D01*
X437500Y434005D01*
Y435995D01*
X436739Y437832D01*
X435332Y439239D01*
X433495Y440000D01*
D02*
G37*
G36*
X385995D02*
X384005D01*
X382168Y439239D01*
X380761Y437832D01*
X380000Y435995D01*
Y434005D01*
X380761Y432168D01*
X382168Y430761D01*
X384005Y430000D01*
X385995D01*
X387832Y430761D01*
X389239Y432168D01*
X390000Y434005D01*
Y435995D01*
X389239Y437832D01*
X387832Y439239D01*
X385995Y440000D01*
D02*
G37*
G36*
X368495D02*
X366505D01*
X364668Y439239D01*
X363261Y437832D01*
X362500Y435995D01*
Y434005D01*
X363261Y432168D01*
X364668Y430761D01*
X366505Y430000D01*
X368495D01*
X370332Y430761D01*
X371739Y432168D01*
X372500Y434005D01*
Y435995D01*
X371739Y437832D01*
X370332Y439239D01*
X368495Y440000D01*
D02*
G37*
G36*
X145690Y428730D02*
X136670D01*
Y419710D01*
X136755D01*
X139372Y420411D01*
X141718Y421766D01*
X143634Y423682D01*
X144989Y426028D01*
X145690Y428645D01*
Y428730D01*
D02*
G37*
G36*
X134130D02*
X125110D01*
Y428645D01*
X125811Y426028D01*
X127166Y423682D01*
X129082Y421766D01*
X131428Y420411D01*
X134045Y419710D01*
X134130D01*
Y428730D01*
D02*
G37*
G36*
X120290Y440290D02*
X99710D01*
Y419710D01*
X120290D01*
Y440290D01*
D02*
G37*
G36*
X952561Y482540D02*
X947439D01*
X942380Y481739D01*
X937509Y480156D01*
X932945Y477831D01*
X928802Y474820D01*
X925180Y471198D01*
X922169Y467055D01*
X919844Y462491D01*
X918261Y457620D01*
X917460Y452561D01*
Y447439D01*
X918261Y442380D01*
X919844Y437509D01*
X922169Y432945D01*
X925180Y428802D01*
X928802Y425180D01*
X932945Y422169D01*
X937509Y419844D01*
X942380Y418261D01*
X947439Y417460D01*
X952561D01*
X957620Y418261D01*
X962491Y419844D01*
X967055Y422169D01*
X971198Y425180D01*
X974820Y428802D01*
X977831Y432945D01*
X980156Y437509D01*
X981739Y442380D01*
X982540Y447439D01*
Y452561D01*
X981739Y457620D01*
X980156Y462491D01*
X977831Y467055D01*
X974820Y471198D01*
X971198Y474820D01*
X967055Y477831D01*
X962491Y480156D01*
X957620Y481739D01*
X952561Y482540D01*
D02*
G37*
G36*
X52561D02*
X47439D01*
X42380Y481739D01*
X37509Y480156D01*
X32945Y477831D01*
X28802Y474820D01*
X25180Y471198D01*
X22169Y467055D01*
X19844Y462491D01*
X18261Y457620D01*
X17460Y452561D01*
Y447439D01*
X18261Y442380D01*
X19844Y437509D01*
X22169Y432945D01*
X25180Y428802D01*
X28802Y425180D01*
X32945Y422169D01*
X37509Y419844D01*
X42380Y418261D01*
X47439Y417460D01*
X52561D01*
X57620Y418261D01*
X62491Y419844D01*
X67055Y422169D01*
X71198Y425180D01*
X74820Y428802D01*
X77831Y432945D01*
X80156Y437509D01*
X81739Y442380D01*
X82540Y447439D01*
Y452561D01*
X81739Y457620D01*
X80156Y462491D01*
X77831Y467055D01*
X74820Y471198D01*
X71198Y474820D01*
X67055Y477831D01*
X62491Y480156D01*
X57620Y481739D01*
X52561Y482540D01*
D02*
G37*
G36*
X263514Y416769D02*
X261525D01*
X259687Y416008D01*
X258280Y414602D01*
X257519Y412764D01*
Y410775D01*
X258280Y408937D01*
X259687Y407531D01*
X261525Y406769D01*
X263514D01*
X265351Y407531D01*
X266758Y408937D01*
X267519Y410775D01*
Y412764D01*
X266758Y414602D01*
X265351Y416008D01*
X263514Y416769D01*
D02*
G37*
G36*
X851495Y411500D02*
X849505D01*
X847668Y410739D01*
X846261Y409332D01*
X845500Y407495D01*
Y405505D01*
X846261Y403668D01*
X847668Y402261D01*
X849505Y401500D01*
X851495D01*
X853332Y402261D01*
X854739Y403668D01*
X855500Y405505D01*
Y407495D01*
X854739Y409332D01*
X853332Y410739D01*
X851495Y411500D01*
D02*
G37*
G36*
X663495Y402500D02*
X661505D01*
X659668Y401739D01*
X658261Y400332D01*
X657500Y398495D01*
Y396505D01*
X658261Y394668D01*
X659668Y393261D01*
X661505Y392500D01*
X663495D01*
X665332Y393261D01*
X666739Y394668D01*
X667500Y396505D01*
Y398495D01*
X666739Y400332D01*
X665332Y401739D01*
X663495Y402500D01*
D02*
G37*
G36*
X520995Y400000D02*
X519005D01*
X517168Y399239D01*
X515761Y397832D01*
X515000Y395995D01*
Y394005D01*
X515761Y392168D01*
X517168Y390761D01*
X519005Y390000D01*
X520995D01*
X522832Y390761D01*
X524239Y392168D01*
X525000Y394005D01*
Y395995D01*
X524239Y397832D01*
X522832Y399239D01*
X520995Y400000D01*
D02*
G37*
G36*
X931624Y401040D02*
X929376D01*
X927204Y400458D01*
X925256Y399334D01*
X923666Y397744D01*
X922542Y395796D01*
X921960Y393624D01*
Y391376D01*
X922542Y389204D01*
X923666Y387256D01*
X925256Y385666D01*
X927204Y384542D01*
X929376Y383960D01*
X931624D01*
X933796Y384542D01*
X935744Y385666D01*
X937334Y387256D01*
X938458Y389204D01*
X939040Y391376D01*
Y393624D01*
X938458Y395796D01*
X937334Y397744D01*
X935744Y399334D01*
X933796Y400458D01*
X931624Y401040D01*
D02*
G37*
G36*
X263495Y392500D02*
X261505D01*
X259668Y391739D01*
X258261Y390332D01*
X257500Y388495D01*
Y386506D01*
X258261Y384668D01*
X259668Y383261D01*
X261505Y382500D01*
X263495D01*
X265332Y383261D01*
X266739Y384668D01*
X267500Y386506D01*
Y388495D01*
X266739Y390332D01*
X265332Y391739D01*
X263495Y392500D01*
D02*
G37*
G36*
X136755Y400290D02*
X134045D01*
X131428Y399589D01*
X129082Y398234D01*
X127166Y396318D01*
X125811Y393972D01*
X125110Y391355D01*
Y388645D01*
X125811Y386028D01*
X127166Y383682D01*
X129082Y381766D01*
X131428Y380411D01*
X134045Y379710D01*
X136755D01*
X139372Y380411D01*
X141718Y381766D01*
X143634Y383682D01*
X144989Y386028D01*
X145690Y388645D01*
Y391355D01*
X144989Y393972D01*
X143634Y396318D01*
X141718Y398234D01*
X139372Y399589D01*
X136755Y400290D01*
D02*
G37*
G36*
X120290D02*
X99710D01*
Y379710D01*
X120290D01*
Y400290D01*
D02*
G37*
G36*
X418495Y387500D02*
X416505D01*
X414668Y386739D01*
X413261Y385332D01*
X412500Y383495D01*
Y381505D01*
X413261Y379668D01*
X414668Y378261D01*
X416505Y377500D01*
X418495D01*
X420332Y378261D01*
X421739Y379668D01*
X422500Y381505D01*
Y383495D01*
X421739Y385332D01*
X420332Y386739D01*
X418495Y387500D01*
D02*
G37*
G36*
X353495D02*
X351505D01*
X349668Y386739D01*
X348261Y385332D01*
X347500Y383495D01*
Y381505D01*
X348261Y379668D01*
X349668Y378261D01*
X351505Y377500D01*
X353495D01*
X355332Y378261D01*
X356739Y379668D01*
X357500Y381505D01*
Y383495D01*
X356739Y385332D01*
X355332Y386739D01*
X353495Y387500D01*
D02*
G37*
G36*
X939040Y381040D02*
X931770D01*
Y373770D01*
X939040D01*
Y381040D01*
D02*
G37*
G36*
X929230D02*
X921960D01*
Y373770D01*
X929230D01*
Y381040D01*
D02*
G37*
G36*
X939040Y371230D02*
X931770D01*
Y363960D01*
X939040D01*
Y371230D01*
D02*
G37*
G36*
X929230D02*
X921960D01*
Y363960D01*
X929230D01*
Y371230D01*
D02*
G37*
G36*
X723495Y370000D02*
X721505D01*
X719668Y369239D01*
X718261Y367832D01*
X717500Y365995D01*
Y364005D01*
X718261Y362168D01*
X719668Y360761D01*
X721505Y360000D01*
X723495D01*
X725332Y360761D01*
X726739Y362168D01*
X727500Y364005D01*
Y365995D01*
X726739Y367832D01*
X725332Y369239D01*
X723495Y370000D01*
D02*
G37*
G36*
X671995Y369000D02*
X670005D01*
X668168Y368239D01*
X666761Y366832D01*
X666000Y364995D01*
Y363005D01*
X666761Y361168D01*
X668168Y359761D01*
X670005Y359000D01*
X671995D01*
X673832Y359761D01*
X675239Y361168D01*
X676000Y363005D01*
Y364995D01*
X675239Y366832D01*
X673832Y368239D01*
X671995Y369000D01*
D02*
G37*
G36*
X263495Y367500D02*
X261505D01*
X259668Y366739D01*
X258261Y365332D01*
X257500Y363495D01*
Y361505D01*
X258261Y359668D01*
X259668Y358261D01*
X261505Y357500D01*
X263495D01*
X265332Y358261D01*
X266739Y359668D01*
X267500Y361505D01*
Y363495D01*
X266739Y365332D01*
X265332Y366739D01*
X263495Y367500D01*
D02*
G37*
G36*
X828495Y365000D02*
X826505D01*
X824668Y364239D01*
X823261Y362832D01*
X822500Y360995D01*
Y359005D01*
X823261Y357168D01*
X824668Y355761D01*
X826505Y355000D01*
X828495D01*
X830332Y355761D01*
X831739Y357168D01*
X832500Y359005D01*
Y360995D01*
X831739Y362832D01*
X830332Y364239D01*
X828495Y365000D01*
D02*
G37*
G36*
X800995D02*
X799005D01*
X797168Y364239D01*
X795761Y362832D01*
X795000Y360995D01*
Y359005D01*
X795761Y357168D01*
X797168Y355761D01*
X799005Y355000D01*
X800995D01*
X802832Y355761D01*
X804239Y357168D01*
X805000Y359005D01*
Y360995D01*
X804239Y362832D01*
X802832Y364239D01*
X800995Y365000D01*
D02*
G37*
G36*
X815044Y364941D02*
X813055D01*
X811217Y364180D01*
X809811Y362773D01*
X809050Y360936D01*
Y358946D01*
X809811Y357109D01*
X811217Y355702D01*
X813055Y354941D01*
X815044D01*
X816882Y355702D01*
X818288Y357109D01*
X819050Y358946D01*
Y360936D01*
X818288Y362773D01*
X816882Y364180D01*
X815044Y364941D01*
D02*
G37*
G36*
X885495Y364500D02*
X883505D01*
X881668Y363739D01*
X880261Y362332D01*
X879500Y360494D01*
Y358505D01*
X880261Y356668D01*
X881668Y355261D01*
X883505Y354500D01*
X885495D01*
X887332Y355261D01*
X888739Y356668D01*
X889500Y358505D01*
Y360494D01*
X888739Y362332D01*
X887332Y363739D01*
X885495Y364500D01*
D02*
G37*
G36*
X869495D02*
X867505D01*
X865668Y363739D01*
X864261Y362332D01*
X863500Y360494D01*
Y358505D01*
X864261Y356668D01*
X865668Y355261D01*
X867505Y354500D01*
X869495D01*
X871332Y355261D01*
X872739Y356668D01*
X873500Y358505D01*
Y360494D01*
X872739Y362332D01*
X871332Y363739D01*
X869495Y364500D01*
D02*
G37*
G36*
X852495D02*
X850505D01*
X848668Y363739D01*
X847261Y362332D01*
X846500Y360494D01*
Y358505D01*
X847261Y356668D01*
X848668Y355261D01*
X850505Y354500D01*
X852495D01*
X854332Y355261D01*
X855739Y356668D01*
X856500Y358505D01*
Y360494D01*
X855739Y362332D01*
X854332Y363739D01*
X852495Y364500D01*
D02*
G37*
G36*
X595995Y355000D02*
X594005D01*
X592168Y354239D01*
X590761Y352832D01*
X590000Y350995D01*
Y349005D01*
X590761Y347168D01*
X592168Y345761D01*
X594005Y345000D01*
X595995D01*
X597832Y345761D01*
X599239Y347168D01*
X600000Y349005D01*
Y350995D01*
X599239Y352832D01*
X597832Y354239D01*
X595995Y355000D01*
D02*
G37*
G36*
X580995D02*
X579005D01*
X577168Y354239D01*
X575761Y352832D01*
X575000Y350995D01*
Y349005D01*
X575761Y347168D01*
X577168Y345761D01*
X579005Y345000D01*
X580995D01*
X582832Y345761D01*
X584239Y347168D01*
X585000Y349005D01*
Y350995D01*
X584239Y352832D01*
X582832Y354239D01*
X580995Y355000D01*
D02*
G37*
G36*
X136755Y360290D02*
X134045D01*
X131428Y359589D01*
X129082Y358234D01*
X127166Y356318D01*
X125811Y353972D01*
X125110Y351355D01*
Y348645D01*
X125811Y346028D01*
X127166Y343682D01*
X129082Y341766D01*
X131428Y340411D01*
X134045Y339710D01*
X136755D01*
X139372Y340411D01*
X141718Y341766D01*
X143634Y343682D01*
X144989Y346028D01*
X145690Y348645D01*
Y351355D01*
X144989Y353972D01*
X143634Y356318D01*
X141718Y358234D01*
X139372Y359589D01*
X136755Y360290D01*
D02*
G37*
G36*
X120290D02*
X99710D01*
Y339710D01*
X120290D01*
Y360290D01*
D02*
G37*
G36*
X395995Y342500D02*
X394005D01*
X392168Y341739D01*
X390761Y340332D01*
X390000Y338495D01*
Y336505D01*
X390279Y335831D01*
X389724Y335000D01*
X389005D01*
X387168Y334239D01*
X385761Y332832D01*
X385000Y330995D01*
Y329005D01*
X385761Y327168D01*
X387168Y325761D01*
X389005Y325000D01*
X390995D01*
X392832Y325761D01*
X394239Y327168D01*
X395000Y329005D01*
Y330995D01*
X394721Y331669D01*
X395276Y332500D01*
X395995D01*
X397832Y333261D01*
X399239Y334668D01*
X400000Y336505D01*
Y338495D01*
X399239Y340332D01*
X397832Y341739D01*
X395995Y342500D01*
D02*
G37*
G36*
X263495Y332500D02*
X261505D01*
X259668Y331739D01*
X258261Y330332D01*
X257500Y328495D01*
Y326505D01*
X258261Y324668D01*
X259668Y323261D01*
X261505Y322500D01*
X263495D01*
X265332Y323261D01*
X266739Y324668D01*
X267500Y326505D01*
Y328495D01*
X266739Y330332D01*
X265332Y331739D01*
X263495Y332500D01*
D02*
G37*
G36*
X540995Y330000D02*
X539005D01*
X537168Y329239D01*
X535761Y327832D01*
X535000Y325995D01*
Y324005D01*
X535761Y322168D01*
X537168Y320761D01*
X539005Y320000D01*
X540995D01*
X542832Y320761D01*
X544239Y322168D01*
X545000Y324005D01*
Y325995D01*
X544239Y327832D01*
X542832Y329239D01*
X540995Y330000D01*
D02*
G37*
G36*
X463495D02*
X461505D01*
X459668Y329239D01*
X458261Y327832D01*
X457500Y325995D01*
Y324005D01*
X458261Y322168D01*
X459668Y320761D01*
X461505Y320000D01*
X463495D01*
X465332Y320761D01*
X466739Y322168D01*
X467500Y324005D01*
Y325995D01*
X466739Y327832D01*
X465332Y329239D01*
X463495Y330000D01*
D02*
G37*
G36*
X595995Y320000D02*
X594005D01*
X592168Y319239D01*
X590761Y317832D01*
X590000Y315995D01*
Y314005D01*
X590761Y312168D01*
X592168Y310761D01*
X594005Y310000D01*
X595995D01*
X597832Y310761D01*
X599239Y312168D01*
X600000Y314005D01*
Y315995D01*
X599239Y317832D01*
X597832Y319239D01*
X595995Y320000D01*
D02*
G37*
G36*
X580995D02*
X579005D01*
X577168Y319239D01*
X575761Y317832D01*
X575000Y315995D01*
Y314005D01*
X575761Y312168D01*
X577168Y310761D01*
X579005Y310000D01*
X580995D01*
X582832Y310761D01*
X584239Y312168D01*
X585000Y314005D01*
Y315995D01*
X584239Y317832D01*
X582832Y319239D01*
X580995Y320000D01*
D02*
G37*
G36*
X849495Y318500D02*
X847505D01*
X845668Y317739D01*
X844261Y316332D01*
X843500Y314495D01*
Y312505D01*
X844261Y310668D01*
X845668Y309261D01*
X847505Y308500D01*
X849495D01*
X851332Y309261D01*
X852739Y310668D01*
X853500Y312505D01*
Y314495D01*
X852739Y316332D01*
X851332Y317739D01*
X849495Y318500D01*
D02*
G37*
G36*
X755995Y310000D02*
X754005D01*
X752168Y309239D01*
X750761Y307832D01*
X750000Y305995D01*
Y304005D01*
X750761Y302168D01*
X752168Y300761D01*
X754005Y300000D01*
X755995D01*
X757832Y300761D01*
X759239Y302168D01*
X760000Y304005D01*
Y305995D01*
X759239Y307832D01*
X757832Y309239D01*
X755995Y310000D01*
D02*
G37*
G36*
X136755Y320290D02*
X134045D01*
X131428Y319589D01*
X129082Y318234D01*
X127166Y316318D01*
X125811Y313972D01*
X125110Y311355D01*
Y308645D01*
X125811Y306028D01*
X127166Y303682D01*
X129082Y301766D01*
X131428Y300411D01*
X134045Y299710D01*
X136755D01*
X139372Y300411D01*
X141718Y301766D01*
X143634Y303682D01*
X144989Y306028D01*
X145690Y308645D01*
Y311355D01*
X144989Y313972D01*
X143634Y316318D01*
X141718Y318234D01*
X139372Y319589D01*
X136755Y320290D01*
D02*
G37*
G36*
X120290D02*
X99710D01*
Y299710D01*
X120290D01*
Y320290D01*
D02*
G37*
G36*
X508495Y307500D02*
X506505D01*
X504668Y306739D01*
X503261Y305332D01*
X502500Y303495D01*
Y301505D01*
X503261Y299668D01*
X504668Y298261D01*
X506505Y297500D01*
X508495D01*
X510332Y298261D01*
X511739Y299668D01*
X512500Y301505D01*
Y303495D01*
X511739Y305332D01*
X510332Y306739D01*
X508495Y307500D01*
D02*
G37*
G36*
X263495D02*
X261505D01*
X259668Y306739D01*
X258261Y305332D01*
X257500Y303495D01*
Y301505D01*
X258261Y299668D01*
X259668Y298261D01*
X261505Y297500D01*
X263495D01*
X265332Y298261D01*
X266739Y299668D01*
X267500Y301505D01*
Y303495D01*
X266739Y305332D01*
X265332Y306739D01*
X263495Y307500D01*
D02*
G37*
G36*
X969040Y330540D02*
X935960D01*
Y297460D01*
X969040D01*
Y330540D01*
D02*
G37*
G36*
X453495Y302500D02*
X451505D01*
X449668Y301739D01*
X448261Y300332D01*
X447500Y298495D01*
Y296505D01*
X448261Y294668D01*
X449668Y293261D01*
X451505Y292500D01*
X453495D01*
X455332Y293261D01*
X456739Y294668D01*
X457500Y296505D01*
Y298495D01*
X456739Y300332D01*
X455332Y301739D01*
X453495Y302500D01*
D02*
G37*
G36*
X368495Y300000D02*
X366505D01*
X364668Y299239D01*
X363261Y297832D01*
X362500Y295995D01*
Y294005D01*
X363261Y292168D01*
X364668Y290761D01*
X366505Y290000D01*
X368495D01*
X370332Y290761D01*
X371739Y292168D01*
X372500Y294005D01*
Y295995D01*
X371739Y297832D01*
X370332Y299239D01*
X368495Y300000D01*
D02*
G37*
G36*
X383495Y299000D02*
X381505D01*
X379668Y298239D01*
X378261Y296832D01*
X377500Y294995D01*
Y293006D01*
X378261Y291168D01*
X379668Y289761D01*
X381505Y289000D01*
X383495D01*
X385332Y289761D01*
X386739Y291168D01*
X387500Y293006D01*
Y294995D01*
X386739Y296832D01*
X385332Y298239D01*
X383495Y299000D01*
D02*
G37*
G36*
X551255Y296381D02*
X549266D01*
X547429Y295620D01*
X546022Y294213D01*
X545261Y292376D01*
Y290387D01*
X546022Y288549D01*
X547429Y287142D01*
X549266Y286381D01*
X551255D01*
X553093Y287142D01*
X554500Y288549D01*
X555261Y290387D01*
Y292376D01*
X554500Y294213D01*
X553093Y295620D01*
X551255Y296381D01*
D02*
G37*
G36*
X433495Y290000D02*
X431505D01*
X429668Y289239D01*
X428261Y287832D01*
X427500Y285995D01*
Y284005D01*
X428261Y282168D01*
X429668Y280761D01*
X431505Y280000D01*
X433495D01*
X435332Y280761D01*
X436739Y282168D01*
X437500Y284005D01*
Y285995D01*
X436739Y287832D01*
X435332Y289239D01*
X433495Y290000D01*
D02*
G37*
G36*
X263495Y282500D02*
X261505D01*
X259668Y281739D01*
X258261Y280332D01*
X257500Y278495D01*
Y276505D01*
X258261Y274668D01*
X259668Y273261D01*
X261505Y272500D01*
X263495D01*
X265332Y273261D01*
X266739Y274668D01*
X267500Y276505D01*
Y278495D01*
X266739Y280332D01*
X265332Y281739D01*
X263495Y282500D01*
D02*
G37*
G36*
X828495Y272500D02*
X826505D01*
X824668Y271739D01*
X823261Y270332D01*
X823041Y269801D01*
X821959D01*
X821739Y270332D01*
X820332Y271739D01*
X818495Y272500D01*
X816505D01*
X814668Y271739D01*
X813261Y270332D01*
X813000Y269702D01*
X812000D01*
X811739Y270332D01*
X810332Y271739D01*
X808495Y272500D01*
X806505D01*
X804668Y271739D01*
X803261Y270332D01*
X802500Y268495D01*
Y266505D01*
X803261Y264668D01*
X804668Y263261D01*
X806505Y262500D01*
X808495D01*
X810332Y263261D01*
X811739Y264668D01*
X812000Y265298D01*
X813000D01*
X813261Y264668D01*
X814668Y263261D01*
X816505Y262500D01*
X818495D01*
X820332Y263261D01*
X821739Y264668D01*
X821959Y265199D01*
X823041D01*
X823261Y264668D01*
X824668Y263261D01*
X826505Y262500D01*
X828495D01*
X830332Y263261D01*
X831739Y264668D01*
X832500Y266505D01*
Y268495D01*
X831739Y270332D01*
X830332Y271739D01*
X828495Y272500D01*
D02*
G37*
G36*
X503495Y277500D02*
X501505D01*
X499668Y276739D01*
X498261Y275332D01*
X497500Y273495D01*
Y271505D01*
X498261Y269668D01*
X499668Y268261D01*
X501505Y267500D01*
X503495D01*
X505332Y268261D01*
X506739Y269668D01*
X507500Y271505D01*
Y273495D01*
X506739Y275332D01*
X505332Y276739D01*
X503495Y277500D01*
D02*
G37*
G36*
X433495D02*
X431505D01*
X429668Y276739D01*
X428261Y275332D01*
X427500Y273495D01*
Y271505D01*
X428261Y269668D01*
X429668Y268261D01*
X431505Y267500D01*
X433495D01*
X435332Y268261D01*
X436739Y269668D01*
X437500Y271505D01*
Y273495D01*
X436739Y275332D01*
X435332Y276739D01*
X433495Y277500D01*
D02*
G37*
G36*
X883495Y271500D02*
X881506D01*
X879668Y270739D01*
X878261Y269332D01*
X877500Y267495D01*
Y265505D01*
X878261Y263668D01*
X879668Y262261D01*
X881506Y261500D01*
X883495D01*
X885332Y262261D01*
X886739Y263668D01*
X887500Y265505D01*
Y267495D01*
X886739Y269332D01*
X885332Y270739D01*
X883495Y271500D01*
D02*
G37*
G36*
X867495D02*
X865505D01*
X863668Y270739D01*
X862261Y269332D01*
X861500Y267495D01*
Y265505D01*
X862261Y263668D01*
X863668Y262261D01*
X865505Y261500D01*
X867495D01*
X869332Y262261D01*
X870739Y263668D01*
X871500Y265505D01*
Y267495D01*
X870739Y269332D01*
X869332Y270739D01*
X867495Y271500D01*
D02*
G37*
G36*
X850495D02*
X848505D01*
X846668Y270739D01*
X845261Y269332D01*
X844500Y267495D01*
Y265505D01*
X845261Y263668D01*
X846668Y262261D01*
X848505Y261500D01*
X850495D01*
X852332Y262261D01*
X853739Y263668D01*
X854500Y265505D01*
Y267495D01*
X853739Y269332D01*
X852332Y270739D01*
X850495Y271500D01*
D02*
G37*
G36*
X136755Y280290D02*
X134045D01*
X131428Y279589D01*
X129082Y278234D01*
X127166Y276318D01*
X125811Y273972D01*
X125110Y271355D01*
Y268645D01*
X125811Y266028D01*
X127166Y263682D01*
X129082Y261766D01*
X131428Y260411D01*
X134045Y259710D01*
X136755D01*
X139372Y260411D01*
X141718Y261766D01*
X143634Y263682D01*
X144989Y266028D01*
X145690Y268645D01*
Y271355D01*
X144989Y273972D01*
X143634Y276318D01*
X141718Y278234D01*
X139372Y279589D01*
X136755Y280290D01*
D02*
G37*
G36*
X120290D02*
X99710D01*
Y259710D01*
X120290D01*
Y280290D01*
D02*
G37*
G36*
X263495Y267500D02*
X261505D01*
X259668Y266739D01*
X258261Y265332D01*
X257500Y263495D01*
Y261505D01*
X258261Y259668D01*
X259668Y258261D01*
X261505Y257500D01*
X263495D01*
X265332Y258261D01*
X266739Y259668D01*
X267500Y261505D01*
Y263495D01*
X266739Y265332D01*
X265332Y266739D01*
X263495Y267500D01*
D02*
G37*
G36*
X433495Y265000D02*
X431505D01*
X429668Y264239D01*
X428261Y262832D01*
X427500Y260995D01*
Y259005D01*
X428261Y257168D01*
X429668Y255761D01*
X431505Y255000D01*
X433495D01*
X435332Y255761D01*
X436739Y257168D01*
X437500Y259005D01*
Y260995D01*
X436739Y262832D01*
X435332Y264239D01*
X433495Y265000D01*
D02*
G37*
G36*
X605995Y262500D02*
X604005D01*
X602168Y261739D01*
X600761Y260332D01*
X600000Y258495D01*
Y256505D01*
X600761Y254668D01*
X602168Y253261D01*
X604005Y252500D01*
X605995D01*
X607832Y253261D01*
X609239Y254668D01*
X610000Y256505D01*
Y258495D01*
X609239Y260332D01*
X607832Y261739D01*
X605995Y262500D01*
D02*
G37*
G36*
X253495D02*
X251505D01*
X249668Y261739D01*
X248261Y260332D01*
X247500Y258495D01*
Y256505D01*
X248261Y254668D01*
X249668Y253261D01*
X251505Y252500D01*
X253495D01*
X255332Y253261D01*
X256739Y254668D01*
X257500Y256505D01*
Y258495D01*
X256739Y260332D01*
X255332Y261739D01*
X253495Y262500D01*
D02*
G37*
G36*
X503104Y260588D02*
X501115D01*
X499277Y259827D01*
X497871Y258420D01*
X497110Y256582D01*
Y254593D01*
X497871Y252756D01*
X499277Y251349D01*
X501115Y250588D01*
X503104D01*
X504942Y251349D01*
X506348Y252756D01*
X507110Y254593D01*
Y256582D01*
X506348Y258420D01*
X504942Y259827D01*
X503104Y260588D01*
D02*
G37*
G36*
X954129Y283540D02*
X950871D01*
X947675Y282904D01*
X944665Y281658D01*
X941956Y279847D01*
X939653Y277544D01*
X937842Y274835D01*
X936596Y271825D01*
X935960Y268629D01*
Y265371D01*
X936596Y262175D01*
X937842Y259165D01*
X939653Y256456D01*
X941956Y254153D01*
X944665Y252342D01*
X947675Y251096D01*
X950871Y250460D01*
X954129D01*
X957325Y251096D01*
X960335Y252342D01*
X963044Y254153D01*
X965347Y256456D01*
X967158Y259165D01*
X968404Y262175D01*
X969040Y265371D01*
Y268629D01*
X968404Y271825D01*
X967158Y274835D01*
X965347Y277544D01*
X963044Y279847D01*
X960335Y281658D01*
X957325Y282904D01*
X954129Y283540D01*
D02*
G37*
G36*
X433495Y250000D02*
X431505D01*
X429668Y249239D01*
X428261Y247832D01*
X427500Y245995D01*
Y244005D01*
X428261Y242168D01*
X429668Y240761D01*
X431505Y240000D01*
X433495D01*
X435332Y240761D01*
X436739Y242168D01*
X437500Y244005D01*
Y245995D01*
X436739Y247832D01*
X435332Y249239D01*
X433495Y250000D01*
D02*
G37*
G36*
X253495Y247500D02*
X251505D01*
X249668Y246739D01*
X248261Y245332D01*
X247500Y243495D01*
Y241505D01*
X248261Y239668D01*
X249668Y238261D01*
X251505Y237500D01*
X253495D01*
X255332Y238261D01*
X256739Y239668D01*
X257500Y241505D01*
Y243495D01*
X256739Y245332D01*
X255332Y246739D01*
X253495Y247500D01*
D02*
G37*
G36*
X470995Y245000D02*
X469005D01*
X467168Y244239D01*
X465761Y242832D01*
X465000Y240995D01*
Y239005D01*
X465761Y237168D01*
X467168Y235761D01*
X469005Y235000D01*
X470995D01*
X472832Y235761D01*
X474239Y237168D01*
X475000Y239005D01*
Y240995D01*
X474239Y242832D01*
X472832Y244239D01*
X470995Y245000D01*
D02*
G37*
G36*
X625995Y242500D02*
X624005D01*
X622168Y241739D01*
X620761Y240332D01*
X620000Y238495D01*
Y236505D01*
X620761Y234668D01*
X622168Y233261D01*
X624005Y232500D01*
X625995D01*
X627832Y233261D01*
X629239Y234668D01*
X630000Y236505D01*
Y238495D01*
X629239Y240332D01*
X627832Y241739D01*
X625995Y242500D01*
D02*
G37*
G36*
X263495D02*
X261505D01*
X259668Y241739D01*
X258261Y240332D01*
X257500Y238495D01*
Y236505D01*
X258261Y234668D01*
X259668Y233261D01*
X261505Y232500D01*
X263495D01*
X265332Y233261D01*
X266739Y234668D01*
X267500Y236505D01*
Y238495D01*
X266739Y240332D01*
X265332Y241739D01*
X263495Y242500D01*
D02*
G37*
G36*
X136755Y240290D02*
X134045D01*
X131428Y239589D01*
X129082Y238234D01*
X127166Y236318D01*
X125811Y233972D01*
X125110Y231355D01*
Y228645D01*
X125811Y226028D01*
X127166Y223682D01*
X129082Y221766D01*
X131428Y220411D01*
X134045Y219710D01*
X136755D01*
X139372Y220411D01*
X141718Y221766D01*
X143634Y223682D01*
X144989Y226028D01*
X145690Y228645D01*
Y231355D01*
X144989Y233972D01*
X143634Y236318D01*
X141718Y238234D01*
X139372Y239589D01*
X136755Y240290D01*
D02*
G37*
G36*
X120290D02*
X99710D01*
Y219710D01*
X120290D01*
Y240290D01*
D02*
G37*
G36*
X263495Y227500D02*
X261505D01*
X259668Y226739D01*
X258261Y225332D01*
X257500Y223495D01*
Y221505D01*
X258261Y219668D01*
X259668Y218261D01*
X261505Y217500D01*
X263495D01*
X265332Y218261D01*
X266739Y219668D01*
X267500Y221505D01*
Y223495D01*
X266739Y225332D01*
X265332Y226739D01*
X263495Y227500D01*
D02*
G37*
G36*
X673495Y222500D02*
X671505D01*
X669668Y221739D01*
X668261Y220332D01*
X667500Y218495D01*
Y216505D01*
X668261Y214668D01*
X669668Y213261D01*
X671505Y212500D01*
X673495D01*
X675332Y213261D01*
X676739Y214668D01*
X677500Y216505D01*
Y218495D01*
X676739Y220332D01*
X675332Y221739D01*
X673495Y222500D01*
D02*
G37*
G36*
X600995D02*
X599005D01*
X597168Y221739D01*
X595761Y220332D01*
X595000Y218495D01*
Y216505D01*
X595761Y214668D01*
X597168Y213261D01*
X599005Y212500D01*
X600995D01*
X602832Y213261D01*
X604239Y214668D01*
X605000Y216505D01*
Y218495D01*
X604239Y220332D01*
X602832Y221739D01*
X600995Y222500D01*
D02*
G37*
G36*
X371452Y218942D02*
X369463D01*
X367625Y218181D01*
X366218Y216774D01*
X365457Y214937D01*
Y212948D01*
X366218Y211110D01*
X367625Y209703D01*
X369463Y208942D01*
X371452D01*
X373289Y209703D01*
X374696Y211110D01*
X375457Y212948D01*
Y214937D01*
X374696Y216774D01*
X373289Y218181D01*
X371452Y218942D01*
D02*
G37*
G36*
X755995Y217500D02*
X754005D01*
X752168Y216739D01*
X750761Y215332D01*
X750000Y213495D01*
Y211505D01*
X750761Y209668D01*
X752168Y208261D01*
X754005Y207500D01*
X755995D01*
X757832Y208261D01*
X759239Y209668D01*
X760000Y211505D01*
Y213495D01*
X759239Y215332D01*
X757832Y216739D01*
X755995Y217500D01*
D02*
G37*
G36*
X513872Y214125D02*
X511883D01*
X510045Y213364D01*
X508639Y211957D01*
X507877Y210120D01*
Y208131D01*
X508639Y206293D01*
X510045Y204886D01*
X511883Y204125D01*
X513872D01*
X515710Y204886D01*
X517116Y206293D01*
X517877Y208131D01*
Y210120D01*
X517116Y211957D01*
X515710Y213364D01*
X513872Y214125D01*
D02*
G37*
G36*
X954129Y236540D02*
X950871D01*
X947675Y235904D01*
X944665Y234657D01*
X941956Y232847D01*
X939653Y230544D01*
X937842Y227835D01*
X936596Y224825D01*
X935960Y221629D01*
Y218371D01*
X936596Y215175D01*
X937842Y212165D01*
X939653Y209456D01*
X941956Y207153D01*
X944665Y205342D01*
X947675Y204096D01*
X950871Y203460D01*
X954129D01*
X957325Y204096D01*
X960335Y205342D01*
X963044Y207153D01*
X965347Y209456D01*
X967158Y212165D01*
X968404Y215175D01*
X969040Y218371D01*
Y221629D01*
X968404Y224825D01*
X967158Y227835D01*
X965347Y230544D01*
X963044Y232847D01*
X960335Y234657D01*
X957325Y235904D01*
X954129Y236540D01*
D02*
G37*
G36*
X263495Y202500D02*
X261505D01*
X259668Y201739D01*
X258261Y200332D01*
X257500Y198495D01*
Y196505D01*
X258261Y194668D01*
X259668Y193261D01*
X261505Y192500D01*
X263495D01*
X265332Y193261D01*
X266739Y194668D01*
X267500Y196505D01*
Y198495D01*
X266739Y200332D01*
X265332Y201739D01*
X263495Y202500D01*
D02*
G37*
G36*
X136755Y200290D02*
X134045D01*
X131428Y199589D01*
X129082Y198234D01*
X127166Y196318D01*
X125811Y193972D01*
X125110Y191355D01*
Y188645D01*
X125811Y186028D01*
X127166Y183682D01*
X129082Y181766D01*
X131428Y180411D01*
X134045Y179710D01*
X136755D01*
X139372Y180411D01*
X141718Y181766D01*
X143634Y183682D01*
X144989Y186028D01*
X145690Y188645D01*
Y191355D01*
X144989Y193972D01*
X143634Y196318D01*
X141718Y198234D01*
X139372Y199589D01*
X136755Y200290D01*
D02*
G37*
G36*
X120290D02*
X99710D01*
Y179710D01*
X120290D01*
Y200290D01*
D02*
G37*
G36*
X934000Y185105D02*
X931270D01*
Y178770D01*
X941438D01*
X941346Y179468D01*
X940586Y181303D01*
X939378Y182878D01*
X937803Y184086D01*
X935968Y184846D01*
X934000Y185105D01*
D02*
G37*
G36*
X928730D02*
X926000D01*
X924032Y184846D01*
X922197Y184086D01*
X920622Y182878D01*
X919414Y181303D01*
X918654Y179468D01*
X918562Y178770D01*
X928730D01*
Y185105D01*
D02*
G37*
G36*
X976000D02*
X971270D01*
Y178770D01*
X983438D01*
X983346Y179468D01*
X982586Y181303D01*
X981378Y182878D01*
X979802Y184086D01*
X977968Y184846D01*
X976000Y185105D01*
D02*
G37*
G36*
X968730D02*
X964000D01*
X962032Y184846D01*
X960197Y184086D01*
X958622Y182878D01*
X957414Y181303D01*
X956654Y179468D01*
X956562Y178770D01*
X968730D01*
Y185105D01*
D02*
G37*
G36*
X983438Y176230D02*
X971270D01*
Y169895D01*
X976000D01*
X977968Y170154D01*
X979802Y170914D01*
X981378Y172122D01*
X982586Y173697D01*
X983346Y175532D01*
X983438Y176230D01*
D02*
G37*
G36*
X968730D02*
X956562D01*
X956654Y175532D01*
X957414Y173697D01*
X958622Y172122D01*
X960197Y170914D01*
X962032Y170154D01*
X964000Y169895D01*
X968730D01*
Y176230D01*
D02*
G37*
G36*
X941438Y176230D02*
X931270D01*
Y169895D01*
X934000D01*
X935968Y170154D01*
X937803Y170914D01*
X939378Y172122D01*
X940586Y173697D01*
X941346Y175532D01*
X941438Y176230D01*
D02*
G37*
G36*
X928730D02*
X918562D01*
X918654Y175532D01*
X919414Y173697D01*
X920622Y172122D01*
X922197Y170914D01*
X924032Y170154D01*
X926000Y169895D01*
X928730D01*
Y176230D01*
D02*
G37*
G36*
X560995Y177500D02*
X559005D01*
X557168Y176739D01*
X555761Y175332D01*
X555000Y173495D01*
Y171505D01*
X555761Y169668D01*
X557168Y168261D01*
X559005Y167500D01*
X560995D01*
X562832Y168261D01*
X564239Y169668D01*
X565000Y171505D01*
Y173495D01*
X564239Y175332D01*
X562832Y176739D01*
X560995Y177500D01*
D02*
G37*
G36*
X263495D02*
X261505D01*
X259668Y176739D01*
X258261Y175332D01*
X257500Y173495D01*
Y171505D01*
X258261Y169668D01*
X259668Y168261D01*
X261505Y167500D01*
X263495D01*
X265332Y168261D01*
X266739Y169668D01*
X267500Y171505D01*
Y173495D01*
X266739Y175332D01*
X265332Y176739D01*
X263495Y177500D01*
D02*
G37*
G36*
X385995Y182500D02*
X384005D01*
X382168Y181739D01*
X380761Y180332D01*
X380000Y178495D01*
Y176505D01*
X380761Y174668D01*
X381929Y173500D01*
X381591Y172500D01*
X381505D01*
X379668Y171739D01*
X378261Y170332D01*
X377500Y168495D01*
Y166505D01*
X378261Y164668D01*
X379668Y163261D01*
X381505Y162500D01*
X383495D01*
X385332Y163261D01*
X386739Y164668D01*
X387500Y166505D01*
Y168495D01*
X386739Y170332D01*
X385571Y171500D01*
X385909Y172500D01*
X385995D01*
X387832Y173261D01*
X389239Y174668D01*
X390000Y176505D01*
Y178495D01*
X389239Y180332D01*
X387832Y181739D01*
X385995Y182500D01*
D02*
G37*
G36*
X565994Y157500D02*
X564005D01*
X562168Y156739D01*
X560761Y155332D01*
X560000Y153495D01*
Y151505D01*
X560761Y149668D01*
X562168Y148261D01*
X564005Y147500D01*
X565994D01*
X567832Y148261D01*
X569239Y149668D01*
X570000Y151505D01*
Y153495D01*
X569239Y155332D01*
X567832Y156739D01*
X565994Y157500D01*
D02*
G37*
G36*
X345995Y150000D02*
X344005D01*
X342168Y149239D01*
X340761Y147832D01*
X340000Y145995D01*
Y144005D01*
X340761Y142168D01*
X342168Y140761D01*
X344005Y140000D01*
X345995D01*
X347832Y140761D01*
X349239Y142168D01*
X350000Y144005D01*
Y145995D01*
X349239Y147832D01*
X347832Y149239D01*
X345995Y150000D01*
D02*
G37*
G36*
X136755Y160290D02*
X134045D01*
X131428Y159589D01*
X129082Y158234D01*
X127166Y156318D01*
X125811Y153972D01*
X125110Y151355D01*
Y148645D01*
X125811Y146028D01*
X127166Y143682D01*
X129082Y141766D01*
X131428Y140411D01*
X134045Y139710D01*
X136755D01*
X139372Y140411D01*
X141718Y141766D01*
X143634Y143682D01*
X144989Y146028D01*
X145690Y148645D01*
Y151355D01*
X144989Y153972D01*
X143634Y156318D01*
X141718Y158234D01*
X139372Y159589D01*
X136755Y160290D01*
D02*
G37*
G36*
X120290D02*
X99710D01*
Y139710D01*
X120290D01*
Y160290D01*
D02*
G37*
G36*
X263495Y142500D02*
X261505D01*
X259668Y141739D01*
X258261Y140332D01*
X257500Y138495D01*
Y136505D01*
X258261Y134668D01*
X259668Y133261D01*
X261505Y132500D01*
X263495D01*
X265332Y133261D01*
X266739Y134668D01*
X267500Y136505D01*
Y138495D01*
X266739Y140332D01*
X265332Y141739D01*
X263495Y142500D01*
D02*
G37*
G36*
X753495Y140000D02*
X751505D01*
X749668Y139239D01*
X748261Y137832D01*
X747500Y135995D01*
Y134005D01*
X748261Y132168D01*
X749668Y130761D01*
X751505Y130000D01*
X753495D01*
X755332Y130761D01*
X756739Y132168D01*
X757500Y134005D01*
Y135995D01*
X756739Y137832D01*
X755332Y139239D01*
X753495Y140000D01*
D02*
G37*
G36*
X263495Y117500D02*
X261505D01*
X259668Y116739D01*
X258261Y115332D01*
X257500Y113495D01*
Y111505D01*
X258261Y109668D01*
X259668Y108261D01*
X261505Y107500D01*
X263495D01*
X265332Y108261D01*
X266739Y109668D01*
X267500Y111505D01*
Y113495D01*
X266739Y115332D01*
X265332Y116739D01*
X263495Y117500D01*
D02*
G37*
G36*
X689270Y104970D02*
Y100770D01*
X693470D01*
X692697Y102638D01*
X691138Y104197D01*
X689270Y104970D01*
D02*
G37*
G36*
X703270Y104970D02*
Y100770D01*
X707470D01*
X706697Y102638D01*
X705138Y104197D01*
X703270Y104970D01*
D02*
G37*
G36*
X700730D02*
X698862Y104197D01*
X697303Y102638D01*
X696530Y100770D01*
X700730D01*
Y104970D01*
D02*
G37*
G36*
X686730Y104970D02*
X684862Y104197D01*
X683303Y102638D01*
X682530Y100770D01*
X686730D01*
Y104970D01*
D02*
G37*
G36*
X485995Y110000D02*
X484005D01*
X482168Y109239D01*
X480761Y107832D01*
X480000Y105995D01*
Y104005D01*
X480761Y102168D01*
X482168Y100761D01*
X484005Y100000D01*
X485995D01*
X487832Y100761D01*
X489239Y102168D01*
X490000Y104005D01*
Y105995D01*
X489239Y107832D01*
X487832Y109239D01*
X485995Y110000D01*
D02*
G37*
G36*
X473495D02*
X471505D01*
X469668Y109239D01*
X468261Y107832D01*
X467500Y105995D01*
Y104005D01*
X468261Y102168D01*
X469668Y100761D01*
X471505Y100000D01*
X473495D01*
X475332Y100761D01*
X476739Y102168D01*
X477500Y104005D01*
Y105995D01*
X476739Y107832D01*
X475332Y109239D01*
X473495Y110000D01*
D02*
G37*
G36*
X448495D02*
X446505D01*
X444668Y109239D01*
X443261Y107832D01*
X442500Y105995D01*
Y104005D01*
X443261Y102168D01*
X444668Y100761D01*
X446505Y100000D01*
X448495D01*
X450332Y100761D01*
X451739Y102168D01*
X452500Y104005D01*
Y105995D01*
X451739Y107832D01*
X450332Y109239D01*
X448495Y110000D01*
D02*
G37*
G36*
X423495D02*
X421505D01*
X419668Y109239D01*
X418261Y107832D01*
X417500Y105995D01*
Y104005D01*
X418261Y102168D01*
X419668Y100761D01*
X421505Y100000D01*
X423495D01*
X425332Y100761D01*
X426739Y102168D01*
X427500Y104005D01*
Y105995D01*
X426739Y107832D01*
X425332Y109239D01*
X423495Y110000D01*
D02*
G37*
G36*
X405995D02*
X404005D01*
X402168Y109239D01*
X400761Y107832D01*
X400000Y105995D01*
Y104005D01*
X400761Y102168D01*
X402168Y100761D01*
X404005Y100000D01*
X405995D01*
X407832Y100761D01*
X409239Y102168D01*
X410000Y104005D01*
Y105995D01*
X409239Y107832D01*
X407832Y109239D01*
X405995Y110000D01*
D02*
G37*
G36*
X373495D02*
X371505D01*
X369668Y109239D01*
X368261Y107832D01*
X367500Y105995D01*
Y104005D01*
X368261Y102168D01*
X369668Y100761D01*
X371505Y100000D01*
X373495D01*
X375332Y100761D01*
X376739Y102168D01*
X377500Y104005D01*
Y105995D01*
X376739Y107832D01*
X375332Y109239D01*
X373495Y110000D01*
D02*
G37*
G36*
X136755Y120290D02*
X134045D01*
X131428Y119589D01*
X129082Y118234D01*
X127166Y116318D01*
X125811Y113972D01*
X125110Y111355D01*
Y108645D01*
X125811Y106028D01*
X127166Y103682D01*
X129082Y101766D01*
X131428Y100411D01*
X134045Y99710D01*
X136755D01*
X139372Y100411D01*
X141718Y101766D01*
X143634Y103682D01*
X144989Y106028D01*
X145690Y108645D01*
Y111355D01*
X144989Y113972D01*
X143634Y116318D01*
X141718Y118234D01*
X139372Y119589D01*
X136755Y120290D01*
D02*
G37*
G36*
X120290D02*
X99710D01*
Y99710D01*
X120290D01*
Y120290D01*
D02*
G37*
G36*
X710270Y97970D02*
Y93770D01*
X714470D01*
X713697Y95638D01*
X712138Y97197D01*
X710270Y97970D01*
D02*
G37*
G36*
X679730Y97970D02*
X677862Y97197D01*
X676303Y95638D01*
X675530Y93770D01*
X679730D01*
Y97970D01*
D02*
G37*
G36*
X934000Y98705D02*
X931270D01*
Y92370D01*
X941438D01*
X941346Y93068D01*
X940586Y94903D01*
X939378Y96478D01*
X937803Y97686D01*
X935968Y98446D01*
X934000Y98705D01*
D02*
G37*
G36*
X928730D02*
X926000D01*
X924032Y98446D01*
X922197Y97686D01*
X920622Y96478D01*
X919414Y94903D01*
X918654Y93068D01*
X918562Y92370D01*
X928730D01*
Y98705D01*
D02*
G37*
G36*
X976000D02*
X971270D01*
Y92370D01*
X983438D01*
X983346Y93068D01*
X982586Y94903D01*
X981378Y96478D01*
X979802Y97686D01*
X977968Y98446D01*
X976000Y98705D01*
D02*
G37*
G36*
X968730D02*
X964000D01*
X962032Y98446D01*
X960197Y97686D01*
X958622Y96478D01*
X957414Y94903D01*
X956654Y93068D01*
X956562Y92370D01*
X968730D01*
Y98705D01*
D02*
G37*
G36*
X679730Y91230D02*
X675530D01*
X676303Y89362D01*
X677862Y87803D01*
X679730Y87030D01*
Y91230D01*
D02*
G37*
G36*
X714470D02*
X710270D01*
Y87029D01*
X712138Y87803D01*
X713697Y89362D01*
X714470Y91230D01*
D02*
G37*
G36*
X983438Y89830D02*
X971270D01*
Y83495D01*
X976000D01*
X977968Y83754D01*
X979802Y84514D01*
X981378Y85722D01*
X982586Y87297D01*
X983346Y89132D01*
X983438Y89830D01*
D02*
G37*
G36*
X968730D02*
X956562D01*
X956654Y89132D01*
X957414Y87297D01*
X958622Y85722D01*
X960197Y84514D01*
X962032Y83754D01*
X964000Y83495D01*
X968730D01*
Y89830D01*
D02*
G37*
G36*
X941438Y89830D02*
X931270D01*
Y83495D01*
X934000D01*
X935968Y83754D01*
X937803Y84514D01*
X939378Y85722D01*
X940586Y87297D01*
X941346Y89132D01*
X941438Y89830D01*
D02*
G37*
G36*
X928730D02*
X918562D01*
X918654Y89132D01*
X919414Y87297D01*
X920622Y85722D01*
X922197Y84514D01*
X924032Y83754D01*
X926000Y83495D01*
X928730D01*
Y89830D01*
D02*
G37*
G36*
X263555Y93179D02*
X261566D01*
X259728Y92418D01*
X258322Y91011D01*
X257561Y89173D01*
Y87184D01*
X258322Y85347D01*
X259728Y83940D01*
X261566Y83179D01*
X263555D01*
X265393Y83940D01*
X266799Y85347D01*
X267561Y87184D01*
Y89173D01*
X266799Y91011D01*
X265393Y92418D01*
X263555Y93179D01*
D02*
G37*
G36*
X710270Y83970D02*
Y79770D01*
X714470D01*
X713697Y81638D01*
X712138Y83197D01*
X710270Y83970D01*
D02*
G37*
G36*
X679730Y83970D02*
X677862Y83197D01*
X676303Y81638D01*
X675530Y79770D01*
X679730D01*
Y83970D01*
D02*
G37*
G36*
Y77230D02*
X675530D01*
X676303Y75362D01*
X677862Y73803D01*
X679730Y73030D01*
Y77230D01*
D02*
G37*
G36*
X714470D02*
X710270D01*
Y73029D01*
X712138Y73803D01*
X713697Y75362D01*
X714470Y77230D01*
D02*
G37*
G36*
X693730Y98230D02*
X688000D01*
X682270D01*
Y92500D01*
Y86770D01*
X688000D01*
Y84230D01*
X682270D01*
Y78500D01*
Y72770D01*
X688000D01*
X693730D01*
Y78500D01*
X696270D01*
Y72770D01*
X702000D01*
X707730D01*
Y78500D01*
Y84230D01*
X702000D01*
Y86770D01*
X707730D01*
Y92500D01*
Y98230D01*
X702000D01*
X696270D01*
Y92500D01*
X693730D01*
Y98230D01*
D02*
G37*
G36*
X263495Y80000D02*
X261505D01*
X259668Y79239D01*
X258261Y77832D01*
X257500Y75995D01*
Y74005D01*
X258261Y72168D01*
X259668Y70761D01*
X261505Y70000D01*
X263495D01*
X265332Y70761D01*
X266739Y72168D01*
X267500Y74005D01*
Y75995D01*
X266739Y77832D01*
X265332Y79239D01*
X263495Y80000D01*
D02*
G37*
G36*
X693470Y70230D02*
X689270D01*
Y66030D01*
X691138Y66803D01*
X692697Y68362D01*
X693470Y70230D01*
D02*
G37*
G36*
X707470D02*
X703270D01*
Y66030D01*
X705138Y66803D01*
X706697Y68362D01*
X707470Y70230D01*
D02*
G37*
G36*
X700730D02*
X696530D01*
X697303Y68362D01*
X698862Y66803D01*
X700730Y66030D01*
Y70230D01*
D02*
G37*
G36*
X686730D02*
X682530D01*
X683303Y68362D01*
X684862Y66803D01*
X686730Y66030D01*
Y70230D01*
D02*
G37*
G36*
X869495Y72500D02*
X867505D01*
X865668Y71739D01*
X864261Y70332D01*
X863500Y68495D01*
Y66505D01*
X864261Y64668D01*
X865668Y63261D01*
X867505Y62500D01*
X869495D01*
X871332Y63261D01*
X872739Y64668D01*
X873500Y66505D01*
Y68495D01*
X872739Y70332D01*
X871332Y71739D01*
X869495Y72500D01*
D02*
G37*
G36*
X136755Y80290D02*
X134045D01*
X131428Y79589D01*
X129082Y78234D01*
X127166Y76318D01*
X125811Y73972D01*
X125110Y71355D01*
Y68645D01*
X125811Y66028D01*
X127166Y63682D01*
X129082Y61766D01*
X131428Y60411D01*
X134045Y59710D01*
X136755D01*
X139372Y60411D01*
X141718Y61766D01*
X143634Y63682D01*
X144989Y66028D01*
X145690Y68645D01*
Y71355D01*
X144989Y73972D01*
X143634Y76318D01*
X141718Y78234D01*
X139372Y79589D01*
X136755Y80290D01*
D02*
G37*
G36*
X120290D02*
X99710D01*
Y59710D01*
X120290D01*
Y80290D01*
D02*
G37*
G36*
X203495Y67500D02*
X201505D01*
X199668Y66739D01*
X198261Y65332D01*
X197500Y63495D01*
Y61505D01*
X198261Y59668D01*
X199668Y58261D01*
X201505Y57500D01*
X203495D01*
X205332Y58261D01*
X206739Y59668D01*
X207500Y61505D01*
Y63495D01*
X206739Y65332D01*
X205332Y66739D01*
X203495Y67500D01*
D02*
G37*
G36*
X255995Y60000D02*
X254005D01*
X252168Y59239D01*
X250761Y57832D01*
X250000Y55995D01*
Y54005D01*
X250761Y52168D01*
X252168Y50761D01*
X254005Y50000D01*
X255995D01*
X257832Y50761D01*
X259239Y52168D01*
X260000Y54005D01*
Y55995D01*
X259239Y57832D01*
X257832Y59239D01*
X255995Y60000D01*
D02*
G37*
G36*
X490555Y47790D02*
X490470D01*
Y38770D01*
X499490D01*
Y38855D01*
X498789Y41472D01*
X497434Y43818D01*
X495518Y45734D01*
X493172Y47089D01*
X490555Y47790D01*
D02*
G37*
G36*
X487930D02*
X487845D01*
X485228Y47089D01*
X482882Y45734D01*
X480966Y43818D01*
X479611Y41472D01*
X478910Y38855D01*
Y38770D01*
X487930D01*
Y47790D01*
D02*
G37*
G36*
X835995Y37500D02*
X834005D01*
X832168Y36739D01*
X830761Y35332D01*
X830000Y33495D01*
Y31505D01*
X830761Y29668D01*
X832168Y28261D01*
X834005Y27500D01*
X835995D01*
X837832Y28261D01*
X839239Y29668D01*
X840000Y31505D01*
Y33495D01*
X839239Y35332D01*
X837832Y36739D01*
X835995Y37500D01*
D02*
G37*
G36*
X550290Y47790D02*
X529710D01*
Y27210D01*
X550290D01*
Y47790D01*
D02*
G37*
G36*
X515955D02*
X513245D01*
X510628Y47089D01*
X508282Y45734D01*
X506366Y43818D01*
X505011Y41472D01*
X504310Y38855D01*
Y36145D01*
X505011Y33528D01*
X506366Y31182D01*
X508282Y29266D01*
X510628Y27911D01*
X513245Y27210D01*
X515955D01*
X518572Y27911D01*
X520918Y29266D01*
X522834Y31182D01*
X524189Y33528D01*
X524890Y36145D01*
Y38855D01*
X524189Y41472D01*
X522834Y43818D01*
X520918Y45734D01*
X518572Y47089D01*
X515955Y47790D01*
D02*
G37*
G36*
X499490Y36230D02*
X490470D01*
Y27210D01*
X490555D01*
X493172Y27911D01*
X495518Y29266D01*
X497434Y31182D01*
X498789Y33528D01*
X499490Y36145D01*
Y36230D01*
D02*
G37*
G36*
X487930D02*
X478910D01*
Y36145D01*
X479611Y33528D01*
X480966Y31182D01*
X482882Y29266D01*
X485228Y27911D01*
X487845Y27210D01*
X487930D01*
Y36230D01*
D02*
G37*
G36*
X952561Y82540D02*
X947439D01*
X942380Y81739D01*
X937509Y80156D01*
X932945Y77831D01*
X928802Y74820D01*
X925180Y71198D01*
X922169Y67055D01*
X919844Y62491D01*
X918261Y57620D01*
X917460Y52561D01*
Y47439D01*
X918261Y42380D01*
X919844Y37509D01*
X922169Y32945D01*
X925180Y28802D01*
X928802Y25180D01*
X932945Y22169D01*
X937509Y19844D01*
X942380Y18261D01*
X947439Y17460D01*
X952561D01*
X957620Y18261D01*
X962491Y19844D01*
X967055Y22169D01*
X971198Y25180D01*
X974820Y28802D01*
X977831Y32945D01*
X980156Y37509D01*
X981739Y42380D01*
X982540Y47439D01*
Y52561D01*
X981739Y57620D01*
X980156Y62491D01*
X977831Y67055D01*
X974820Y71198D01*
X971198Y74820D01*
X967055Y77831D01*
X962491Y80156D01*
X957620Y81739D01*
X952561Y82540D01*
D02*
G37*
G36*
X52561D02*
X47439D01*
X42380Y81739D01*
X37509Y80156D01*
X32945Y77831D01*
X28802Y74820D01*
X25180Y71198D01*
X22169Y67055D01*
X19844Y62491D01*
X18261Y57620D01*
X17460Y52561D01*
Y47439D01*
X18261Y42380D01*
X19844Y37509D01*
X22169Y32945D01*
X25180Y28802D01*
X28802Y25180D01*
X32945Y22169D01*
X37509Y19844D01*
X42380Y18261D01*
X47439Y17460D01*
X52561D01*
X57620Y18261D01*
X62491Y19844D01*
X67055Y22169D01*
X71198Y25180D01*
X74820Y28802D01*
X77831Y32945D01*
X80156Y37509D01*
X81739Y42380D01*
X82540Y47439D01*
Y52561D01*
X81739Y57620D01*
X80156Y62491D01*
X77831Y67055D01*
X74820Y71198D01*
X71198Y74820D01*
X67055Y77831D01*
X62491Y80156D01*
X57620Y81739D01*
X52561Y82540D01*
D02*
G37*
%LPD*%
D49*
X330000Y462500D02*
D03*
X135400Y430000D02*
D03*
X489200Y37500D02*
D03*
X514600D02*
D03*
X135400Y70000D02*
D03*
Y110000D02*
D03*
Y150000D02*
D03*
Y190000D02*
D03*
Y230000D02*
D03*
Y270000D02*
D03*
Y310000D02*
D03*
Y350000D02*
D03*
Y390000D02*
D03*
D50*
X355400Y462500D02*
D03*
X540000Y37500D02*
D03*
X110000Y110000D02*
D03*
Y150000D02*
D03*
Y190000D02*
D03*
Y230000D02*
D03*
Y270000D02*
D03*
Y310000D02*
D03*
Y350000D02*
D03*
Y70000D02*
D03*
Y430000D02*
D03*
Y390000D02*
D03*
D51*
X681000Y78500D02*
D03*
X688000Y85500D02*
D03*
Y71500D02*
D03*
X695000Y78500D02*
D03*
X702000Y71500D02*
D03*
X709000Y78500D02*
D03*
X702000Y85500D02*
D03*
X709000Y92500D02*
D03*
X702000Y99500D02*
D03*
X695000Y92500D02*
D03*
X681000D02*
D03*
X688000Y99500D02*
D03*
D52*
X930500Y372500D02*
D03*
D53*
X970000Y177500D02*
D03*
Y91100D02*
D03*
D54*
X930000Y177500D02*
D03*
Y91100D02*
D03*
D55*
X540000Y460000D02*
D03*
D56*
X952500Y267000D02*
D03*
Y220000D02*
D03*
D57*
X930500Y392500D02*
D03*
D58*
X952500Y314000D02*
D03*
D59*
X950000Y50000D02*
D03*
X50000Y450000D02*
D03*
X950000D02*
D03*
X50000Y50000D02*
D03*
D60*
X970000Y407500D02*
D03*
X985000Y377500D02*
D03*
X970000Y347500D02*
D03*
X985000Y317500D02*
D03*
X970000Y287500D02*
D03*
X985000Y257500D02*
D03*
Y197500D02*
D03*
Y137500D02*
D03*
Y77500D02*
D03*
X940000Y407500D02*
D03*
Y347500D02*
D03*
Y287500D02*
D03*
X910000Y467500D02*
D03*
Y347500D02*
D03*
X925000Y317500D02*
D03*
X910000Y287500D02*
D03*
X925000Y257500D02*
D03*
Y197500D02*
D03*
X910000Y107500D02*
D03*
Y47500D02*
D03*
X880000Y467500D02*
D03*
X895000Y437500D02*
D03*
Y317500D02*
D03*
Y257500D02*
D03*
X880000Y167500D02*
D03*
Y107500D02*
D03*
X895000Y77500D02*
D03*
X880000Y47500D02*
D03*
X850000Y467500D02*
D03*
X865000Y437500D02*
D03*
X850000Y227500D02*
D03*
X865000Y197500D02*
D03*
X850000Y107500D02*
D03*
X820000Y467500D02*
D03*
X835000Y437500D02*
D03*
X820000Y227500D02*
D03*
X835000Y197500D02*
D03*
X820000Y107500D02*
D03*
X790000Y467500D02*
D03*
X805000Y437500D02*
D03*
X790000Y407500D02*
D03*
X805000Y317500D02*
D03*
X790000Y227500D02*
D03*
X805000Y197500D02*
D03*
X790000Y107500D02*
D03*
X760000Y467500D02*
D03*
X775000Y437500D02*
D03*
Y377500D02*
D03*
Y317500D02*
D03*
Y257500D02*
D03*
Y197500D02*
D03*
X730000Y467500D02*
D03*
X745000Y437500D02*
D03*
Y317500D02*
D03*
X730000Y287500D02*
D03*
Y227500D02*
D03*
Y167500D02*
D03*
Y107500D02*
D03*
X745000Y77500D02*
D03*
X730000Y47500D02*
D03*
X715000Y317500D02*
D03*
X700000Y287500D02*
D03*
X715000Y257500D02*
D03*
X700000Y227500D02*
D03*
Y167500D02*
D03*
X715000Y137500D02*
D03*
X670000Y287500D02*
D03*
X685000Y257500D02*
D03*
X670000Y167500D02*
D03*
X685000Y137500D02*
D03*
X670000Y107500D02*
D03*
Y47500D02*
D03*
X640000Y287500D02*
D03*
Y167500D02*
D03*
X655000Y137500D02*
D03*
X640000Y107500D02*
D03*
X655000Y77500D02*
D03*
X640000Y47500D02*
D03*
X625000Y437500D02*
D03*
X610000Y407500D02*
D03*
X625000Y377500D02*
D03*
Y257500D02*
D03*
X610000Y167500D02*
D03*
X625000Y137500D02*
D03*
X610000Y107500D02*
D03*
X625000Y77500D02*
D03*
X610000Y47500D02*
D03*
X595000Y437500D02*
D03*
X580000Y407500D02*
D03*
X595000Y377500D02*
D03*
Y197500D02*
D03*
X565000Y437500D02*
D03*
Y377500D02*
D03*
Y317500D02*
D03*
Y197500D02*
D03*
X550000Y107500D02*
D03*
X520000Y467500D02*
D03*
Y407500D02*
D03*
Y347500D02*
D03*
X535000Y197500D02*
D03*
X520000Y167500D02*
D03*
Y107500D02*
D03*
X490000Y467500D02*
D03*
X505000Y437500D02*
D03*
X490000Y407500D02*
D03*
X505000Y377500D02*
D03*
X490000Y347500D02*
D03*
X505000Y137500D02*
D03*
Y77500D02*
D03*
X460000Y467500D02*
D03*
X475000Y437500D02*
D03*
X460000Y407500D02*
D03*
X475000Y377500D02*
D03*
Y197500D02*
D03*
Y77500D02*
D03*
X460000Y47500D02*
D03*
X430000Y467500D02*
D03*
X445000Y437500D02*
D03*
Y317500D02*
D03*
Y77500D02*
D03*
X430000Y47500D02*
D03*
X400000Y467500D02*
D03*
X415000Y437500D02*
D03*
X400000Y407500D02*
D03*
X415000Y77500D02*
D03*
X400000Y47500D02*
D03*
X370000Y227500D02*
D03*
X385000Y77500D02*
D03*
X370000Y47500D02*
D03*
X355000Y437500D02*
D03*
X340000Y407500D02*
D03*
X355000Y257500D02*
D03*
X340000Y107500D02*
D03*
X355000Y77500D02*
D03*
X340000Y47500D02*
D03*
X325000Y77500D02*
D03*
X310000Y47500D02*
D03*
X295000Y437500D02*
D03*
X280000Y227500D02*
D03*
X295000Y77500D02*
D03*
X280000Y47500D02*
D03*
X190000Y467500D02*
D03*
Y407500D02*
D03*
Y287500D02*
D03*
Y227500D02*
D03*
X205000Y197500D02*
D03*
X190000Y107500D02*
D03*
X160000Y467500D02*
D03*
X175000Y377500D02*
D03*
Y317500D02*
D03*
X160000Y287500D02*
D03*
X175000Y197500D02*
D03*
X160000Y107500D02*
D03*
X130000Y467500D02*
D03*
Y407500D02*
D03*
Y287500D02*
D03*
X100000Y467500D02*
D03*
Y407500D02*
D03*
Y287500D02*
D03*
Y167500D02*
D03*
Y47500D02*
D03*
X70000Y407500D02*
D03*
X85000Y377500D02*
D03*
X70000Y347500D02*
D03*
X85000Y317500D02*
D03*
X70000Y287500D02*
D03*
X85000Y257500D02*
D03*
X70000Y227500D02*
D03*
X85000Y197500D02*
D03*
X70000Y167500D02*
D03*
X85000Y137500D02*
D03*
X70000Y107500D02*
D03*
X85000Y77500D02*
D03*
X40000Y407500D02*
D03*
X55000Y377500D02*
D03*
X40000Y347500D02*
D03*
X55000Y317500D02*
D03*
X40000Y287500D02*
D03*
X55000Y257500D02*
D03*
X40000Y227500D02*
D03*
X55000Y197500D02*
D03*
X40000Y167500D02*
D03*
X55000Y137500D02*
D03*
X40000Y107500D02*
D03*
X337500Y317500D02*
D03*
X262500Y75000D02*
D03*
X560000Y172500D02*
D03*
X600000Y217500D02*
D03*
X252500Y242500D02*
D03*
Y257500D02*
D03*
X662500Y397500D02*
D03*
X682500Y376750D02*
D03*
Y387500D02*
D03*
Y398250D02*
D03*
Y413500D02*
D03*
X669500Y346500D02*
D03*
X752000Y380000D02*
D03*
X671000Y364000D02*
D03*
X682500Y365500D02*
D03*
X752000Y372000D02*
D03*
X520000Y395000D02*
D03*
X417500Y382500D02*
D03*
X580000Y350000D02*
D03*
X595000D02*
D03*
X395000Y337500D02*
D03*
X352500Y382500D02*
D03*
X385000Y177500D02*
D03*
X382500Y167500D02*
D03*
X345000Y145000D02*
D03*
X595000Y474776D02*
D03*
X580000D02*
D03*
X520000Y435000D02*
D03*
X432500D02*
D03*
X485000Y105000D02*
D03*
X472500D02*
D03*
X447500D02*
D03*
X422500D02*
D03*
X405000D02*
D03*
X385000Y435000D02*
D03*
X390000Y330000D02*
D03*
X367500Y435000D02*
D03*
X382500Y294000D02*
D03*
X370457Y213942D02*
D03*
X372500Y105000D02*
D03*
X875500Y406500D02*
D03*
X883500D02*
D03*
X817500D02*
D03*
X798500D02*
D03*
X867500D02*
D03*
X833500D02*
D03*
X873500Y313500D02*
D03*
X865500D02*
D03*
X881500D02*
D03*
X831500D02*
D03*
X796500D02*
D03*
X815500D02*
D03*
X865000Y220000D02*
D03*
X970000Y167500D02*
D03*
X912500D02*
D03*
X867500Y155000D02*
D03*
X802500Y145000D02*
D03*
X867500Y122500D02*
D03*
X970000Y102500D02*
D03*
X938941Y102461D02*
D03*
X867500Y47500D02*
D03*
X835000Y12500D02*
D03*
X725000Y100277D02*
D03*
X695000Y115000D02*
D03*
X725000Y85118D02*
D03*
X662500Y99800D02*
D03*
Y85318D02*
D03*
X725000Y71370D02*
D03*
X695000Y52500D02*
D03*
X662500Y71103D02*
D03*
X575000Y12500D02*
D03*
X435000Y330000D02*
D03*
X228294Y426979D02*
D03*
Y351979D02*
D03*
X425000Y330000D02*
D03*
X228294Y376979D02*
D03*
Y401979D02*
D03*
X507500Y317500D02*
D03*
X470000Y255000D02*
D03*
X390000Y282500D02*
D03*
X228294Y276979D02*
D03*
X227849Y326749D02*
D03*
X390000Y262500D02*
D03*
X228294Y251979D02*
D03*
X157416Y430458D02*
D03*
X208682Y312500D02*
D03*
X162500Y337500D02*
D03*
X467500Y210000D02*
D03*
X427500Y205000D02*
D03*
X390000Y242500D02*
D03*
Y224660D02*
D03*
X228294Y226979D02*
D03*
Y176979D02*
D03*
Y151979D02*
D03*
X557500Y72500D02*
D03*
X505000Y55000D02*
D03*
X330000Y135000D02*
D03*
X228294Y126979D02*
D03*
X208682Y212500D02*
D03*
X162393Y237379D02*
D03*
X160459Y143177D02*
D03*
X208682Y112500D02*
D03*
X209246Y95352D02*
D03*
X208682Y37500D02*
D03*
X161793Y55779D02*
D03*
X851500Y359500D02*
D03*
X850500Y406500D02*
D03*
X868500Y359500D02*
D03*
X884500D02*
D03*
X849500Y266500D02*
D03*
X848500Y313500D02*
D03*
X882500Y266500D02*
D03*
X866500D02*
D03*
X755000Y305000D02*
D03*
X722500Y365000D02*
D03*
X580000Y315000D02*
D03*
X452500Y297500D02*
D03*
X462500Y325000D02*
D03*
X550261Y291381D02*
D03*
X502110Y255588D02*
D03*
X512877Y209125D02*
D03*
X807500Y267500D02*
D03*
X817500D02*
D03*
X827500D02*
D03*
X868500Y67500D02*
D03*
X835000Y32500D02*
D03*
X755000Y212500D02*
D03*
X565000Y152500D02*
D03*
X540000Y325000D02*
D03*
X507500Y302500D02*
D03*
X595000Y315000D02*
D03*
X262519Y411769D02*
D03*
X262500Y387500D02*
D03*
X752500Y135000D02*
D03*
X502500Y272500D02*
D03*
X470000Y240000D02*
D03*
X605000Y257500D02*
D03*
X625000Y237500D02*
D03*
X672500Y217500D02*
D03*
X814050Y359941D02*
D03*
X827500Y360000D02*
D03*
X800000D02*
D03*
X255000Y55000D02*
D03*
X262500Y302500D02*
D03*
X432500Y285000D02*
D03*
Y245000D02*
D03*
X262500Y237500D02*
D03*
X432500Y272500D02*
D03*
Y260000D02*
D03*
X262500Y197500D02*
D03*
Y222500D02*
D03*
Y277500D02*
D03*
Y327500D02*
D03*
X202500Y62500D02*
D03*
X367500Y295000D02*
D03*
X262500Y137500D02*
D03*
Y172500D02*
D03*
Y262500D02*
D03*
Y362500D02*
D03*
X262561Y88179D02*
D03*
X262500Y112500D02*
D03*
%TF.MD5,7b0fc95c28024c93764a561a2a38a4ae*%
M02*
