%TF.GenerationSoftware,Altium Limited,Altium Designer,26.3.0 (6)*%
G04 Layer_Physical_Order=3*
G04 Layer_Color=16440176*
%FSLAX44Y44*%
%MOMM*%
%TF.SameCoordinates,5B09BF5B-3F6B-42AE-A125-B0E28617C609*%
%TF.FilePolarity,Positive*%
%TF.FileFunction,Copper,L3,Inr,Signal*%
%TF.Part,Single*%
G01*
G75*
%TA.AperFunction,Conductor*%
%ADD44C,0.2540*%
%ADD46C,0.5080*%
%TA.AperFunction,ComponentPad*%
%ADD49C,1.5500*%
%ADD50R,1.5500X1.5500*%
%ADD51C,0.6000*%
%ADD52R,1.2000X1.2000*%
G04:AMPARAMS|DCode=53|XSize=1mm|YSize=2.2mm|CornerRadius=0.5mm|HoleSize=0mm|Usage=FLASHONLY|Rotation=90.000|XOffset=0mm|YOffset=0mm|HoleType=Round|Shape=RoundedRectangle|*
%AMROUNDEDRECTD53*
21,1,1.0000,1.2000,0,0,90.0*
21,1,0.0000,2.2000,0,0,90.0*
1,1,1.0000,0.6000,0.0000*
1,1,1.0000,0.6000,0.0000*
1,1,1.0000,-0.6000,0.0000*
1,1,1.0000,-0.6000,0.0000*
%
%ADD53ROUNDEDRECTD53*%
G04:AMPARAMS|DCode=54|XSize=1mm|YSize=1.8mm|CornerRadius=0.5mm|HoleSize=0mm|Usage=FLASHONLY|Rotation=90.000|XOffset=0mm|YOffset=0mm|HoleType=Round|Shape=RoundedRectangle|*
%AMROUNDEDRECTD54*
21,1,1.0000,0.8000,0,0,90.0*
21,1,0.0000,1.8000,0,0,90.0*
1,1,1.0000,0.4000,0.0000*
1,1,1.0000,0.4000,0.0000*
1,1,1.0000,-0.4000,0.0000*
1,1,1.0000,-0.4000,0.0000*
%
%ADD54ROUNDEDRECTD54*%
%ADD55C,1.5000*%
%ADD56C,2.8000*%
%ADD57C,1.2000*%
%ADD58R,2.8000X2.8000*%
%TA.AperFunction,WasherPad*%
%ADD59C,6.0000*%
%TA.AperFunction,ViaPad*%
%ADD60C,0.6000*%
G36*
X265000Y417054D02*
X264168Y416498D01*
X263514Y416769D01*
X261525D01*
X259687Y416008D01*
X258280Y414602D01*
X257519Y412764D01*
Y410775D01*
X258280Y408937D01*
X259687Y407531D01*
X261525Y406769D01*
X263514D01*
X264168Y407041D01*
X265000Y406485D01*
Y392776D01*
X264168Y392221D01*
X263495Y392500D01*
X261505D01*
X259668Y391739D01*
X258261Y390332D01*
X257500Y388495D01*
Y386506D01*
X258261Y384668D01*
X259668Y383261D01*
X261505Y382500D01*
X263495D01*
X264168Y382779D01*
X265000Y382224D01*
Y367776D01*
X264168Y367221D01*
X263495Y367500D01*
X261505D01*
X259668Y366739D01*
X258261Y365332D01*
X257500Y363495D01*
Y361505D01*
X258261Y359668D01*
X259668Y358261D01*
X261505Y357500D01*
X263495D01*
X264168Y357779D01*
X265000Y357224D01*
Y332776D01*
X264168Y332221D01*
X263495Y332500D01*
X261505D01*
X259668Y331739D01*
X258261Y330332D01*
X257500Y328495D01*
Y326505D01*
X258261Y324668D01*
X259668Y323261D01*
X261505Y322500D01*
X263495D01*
X264168Y322779D01*
X265000Y322224D01*
Y307776D01*
X264168Y307221D01*
X263495Y307500D01*
X261505D01*
X259668Y306739D01*
X258261Y305332D01*
X257500Y303495D01*
Y301505D01*
X258261Y299668D01*
X259668Y298261D01*
X261505Y297500D01*
X263495D01*
X264168Y297779D01*
X265000Y297224D01*
Y282776D01*
X264168Y282221D01*
X263495Y282500D01*
X261505D01*
X259668Y281739D01*
X258261Y280332D01*
X257500Y278495D01*
Y276505D01*
X258261Y274668D01*
X259668Y273261D01*
X261505Y272500D01*
X263495D01*
X264168Y272779D01*
X265000Y272224D01*
Y267776D01*
X264168Y267221D01*
X263495Y267500D01*
X261505D01*
X259668Y266739D01*
X258261Y265332D01*
X257500Y263495D01*
Y261505D01*
X258261Y259668D01*
X259668Y258261D01*
X261505Y257500D01*
X263495D01*
X264168Y257779D01*
X265000Y257224D01*
Y242776D01*
X264168Y242221D01*
X263495Y242500D01*
X261505D01*
X259668Y241739D01*
X258261Y240332D01*
X257500Y238495D01*
Y236505D01*
X258261Y234668D01*
X259668Y233261D01*
X261505Y232500D01*
X263495D01*
X264168Y232779D01*
X265000Y232224D01*
Y227776D01*
X264168Y227221D01*
X263495Y227500D01*
X261505D01*
X259668Y226739D01*
X258261Y225332D01*
X257500Y223495D01*
Y221505D01*
X258261Y219668D01*
X259668Y218261D01*
X261505Y217500D01*
X263495D01*
X264168Y217779D01*
X265000Y217224D01*
Y202776D01*
X264168Y202221D01*
X263495Y202500D01*
X261505D01*
X259668Y201739D01*
X258261Y200332D01*
X257500Y198495D01*
Y196505D01*
X258261Y194668D01*
X259668Y193261D01*
X261505Y192500D01*
X263495D01*
X264168Y192779D01*
X265000Y192224D01*
Y177776D01*
X264168Y177221D01*
X263495Y177500D01*
X261505D01*
X259668Y176739D01*
X258261Y175332D01*
X257500Y173495D01*
Y171505D01*
X258261Y169668D01*
X259668Y168261D01*
X261505Y167500D01*
X263495D01*
X264168Y167779D01*
X265000Y167224D01*
Y142776D01*
X264168Y142221D01*
X263495Y142500D01*
X261505D01*
X259668Y141739D01*
X258261Y140332D01*
X257500Y138495D01*
Y136505D01*
X258261Y134668D01*
X259668Y133261D01*
X261505Y132500D01*
X263495D01*
X264168Y132779D01*
X265000Y132224D01*
Y117776D01*
X264168Y117221D01*
X263495Y117500D01*
X261505D01*
X259668Y116739D01*
X258261Y115332D01*
X257500Y113495D01*
Y111505D01*
X258261Y109668D01*
X259668Y108261D01*
X261505Y107500D01*
X263495D01*
X264168Y107779D01*
X265000Y107224D01*
Y93480D01*
X264168Y92925D01*
X263555Y93179D01*
X261566D01*
X259728Y92418D01*
X258322Y91011D01*
X257561Y89173D01*
Y87184D01*
X258322Y85347D01*
X259728Y83940D01*
X261566Y83179D01*
X263555D01*
X264168Y83433D01*
X265000Y82877D01*
Y80276D01*
X264168Y79721D01*
X263495Y80000D01*
X261505D01*
X259668Y79239D01*
X258261Y77832D01*
X257500Y75995D01*
Y74005D01*
X258261Y72168D01*
X259668Y70761D01*
X261505Y70000D01*
X263495D01*
X264168Y70279D01*
X265000Y69724D01*
Y5179D01*
X50000Y5179D01*
X47062Y5179D01*
X41237Y5946D01*
X35562Y7467D01*
X30134Y9715D01*
X25045Y12653D01*
X20384Y16230D01*
X16230Y20384D01*
X12653Y25045D01*
X9715Y30134D01*
X7467Y35562D01*
X5946Y41237D01*
X5179Y47062D01*
Y50000D01*
X5179Y450000D01*
Y452938D01*
X5946Y458763D01*
X7467Y464438D01*
X9715Y469866D01*
X12653Y474954D01*
X16230Y479616D01*
X20384Y483770D01*
X25045Y487347D01*
X30134Y490285D01*
X35562Y492533D01*
X41237Y494054D01*
X47062Y494821D01*
X50000Y494821D01*
X265000Y494821D01*
Y417054D01*
D02*
G37*
G36*
X602500Y342500D02*
X523317D01*
X523013Y343500D01*
X523605Y343895D01*
X524710Y345549D01*
X525098Y347500D01*
X524710Y349451D01*
X523605Y351105D01*
X521951Y352210D01*
X520000Y352598D01*
X518049Y352210D01*
X516395Y351105D01*
X515290Y349451D01*
X514902Y347500D01*
X515290Y345549D01*
X516395Y343895D01*
X516987Y343500D01*
X516684Y342500D01*
X493317D01*
X493013Y343500D01*
X493605Y343895D01*
X494710Y345549D01*
X495098Y347500D01*
X494710Y349451D01*
X493605Y351105D01*
X491951Y352210D01*
X490000Y352598D01*
X488049Y352210D01*
X486395Y351105D01*
X485290Y349451D01*
X484902Y347500D01*
X485290Y345549D01*
X486395Y343895D01*
X486987Y343500D01*
X486684Y342500D01*
X435000D01*
Y335098D01*
X433049Y334710D01*
X431395Y333605D01*
X430569Y332368D01*
X429431D01*
X428605Y333605D01*
X426951Y334710D01*
X425000Y335098D01*
X423049Y334710D01*
X421395Y333605D01*
X420290Y331951D01*
X419902Y330000D01*
X420290Y328049D01*
X421395Y326395D01*
X423049Y325290D01*
X425000Y324902D01*
X426951Y325290D01*
X428605Y326395D01*
X429431Y327632D01*
X430569D01*
X431395Y326395D01*
X433049Y325290D01*
X435000Y324902D01*
Y290454D01*
X434000Y289800D01*
X432500Y290098D01*
X430549Y289710D01*
X428895Y288605D01*
X427790Y286951D01*
X427402Y285000D01*
X427790Y283049D01*
X428895Y281395D01*
X430549Y280290D01*
X432500Y279902D01*
X434000Y280200D01*
X435000Y279546D01*
Y277954D01*
X434000Y277300D01*
X432500Y277598D01*
X430549Y277210D01*
X428895Y276105D01*
X427790Y274451D01*
X427402Y272500D01*
X427790Y270549D01*
X428895Y268895D01*
X430549Y267790D01*
X432500Y267402D01*
X434000Y267700D01*
X435000Y267046D01*
Y265454D01*
X434000Y264800D01*
X432500Y265098D01*
X430549Y264710D01*
X428895Y263605D01*
X427790Y261951D01*
X427402Y260000D01*
X427790Y258049D01*
X428895Y256395D01*
X430549Y255290D01*
X432500Y254902D01*
X434000Y255200D01*
X435000Y254546D01*
Y250454D01*
X434000Y249800D01*
X432500Y250098D01*
X430549Y249710D01*
X428895Y248605D01*
X427790Y246951D01*
X427402Y245000D01*
X427790Y243049D01*
X428895Y241395D01*
X430549Y240290D01*
X432500Y239902D01*
X434000Y240200D01*
X435000Y239546D01*
Y182500D01*
X532500D01*
Y122500D01*
X330000D01*
Y129902D01*
X331951Y130290D01*
X333605Y131395D01*
X334710Y133049D01*
X335098Y135000D01*
X334710Y136951D01*
X333605Y138605D01*
X331951Y139710D01*
X330000Y140098D01*
Y182500D01*
X400000D01*
Y342500D01*
X330000D01*
Y417500D01*
X602500D01*
Y342500D01*
D02*
G37*
G36*
Y427500D02*
X320000D01*
Y330000D01*
X378690D01*
X382500Y332540D01*
X386250Y330000D01*
X390000D01*
Y287598D01*
X388049Y287210D01*
X386395Y286105D01*
X385290Y284451D01*
X384902Y282500D01*
X385290Y280549D01*
X386395Y278895D01*
X388049Y277790D01*
X390000Y277402D01*
Y267598D01*
X388049Y267210D01*
X386395Y266105D01*
X385290Y264451D01*
X384902Y262500D01*
X385290Y260549D01*
X386395Y258895D01*
X388049Y257790D01*
X390000Y257402D01*
Y247598D01*
X388049Y247210D01*
X386395Y246105D01*
X385290Y244451D01*
X384902Y242500D01*
X385290Y240549D01*
X386395Y238895D01*
X388049Y237790D01*
X390000Y237402D01*
Y229758D01*
X388049Y229370D01*
X386395Y228265D01*
X385290Y226611D01*
X384902Y224660D01*
X385290Y222709D01*
X386395Y221055D01*
X388049Y219950D01*
X390000Y219562D01*
Y192500D01*
X320000D01*
Y112500D01*
X336683D01*
X336987Y111500D01*
X336395Y111105D01*
X335290Y109451D01*
X334902Y107500D01*
X335290Y105549D01*
X336395Y103895D01*
X338049Y102790D01*
X340000Y102402D01*
X341951Y102790D01*
X343605Y103895D01*
X344710Y105549D01*
X345098Y107500D01*
X344710Y109451D01*
X343605Y111105D01*
X343014Y111500D01*
X343317Y112500D01*
X516683D01*
X516987Y111500D01*
X516395Y111105D01*
X515290Y109451D01*
X514902Y107500D01*
X515290Y105549D01*
X516395Y103895D01*
X518049Y102790D01*
X520000Y102402D01*
X521951Y102790D01*
X523605Y103895D01*
X524710Y105549D01*
X525098Y107500D01*
X524710Y109451D01*
X523605Y111105D01*
X523014Y111500D01*
X523317Y112500D01*
X532500D01*
Y47790D01*
X529710D01*
Y27210D01*
X532500D01*
Y5179D01*
X275000Y5179D01*
Y44184D01*
X276000Y44487D01*
X276395Y43895D01*
X278049Y42790D01*
X280000Y42402D01*
X281951Y42790D01*
X283605Y43895D01*
X284710Y45549D01*
X285098Y47500D01*
X284710Y49451D01*
X283605Y51105D01*
X281951Y52210D01*
X280000Y52598D01*
X278049Y52210D01*
X276395Y51105D01*
X276000Y50513D01*
X275000Y50816D01*
Y224184D01*
X276000Y224487D01*
X276395Y223895D01*
X278049Y222790D01*
X280000Y222402D01*
X281951Y222790D01*
X283605Y223895D01*
X284710Y225549D01*
X285098Y227500D01*
X284710Y229451D01*
X283605Y231105D01*
X281951Y232210D01*
X280000Y232598D01*
X278049Y232210D01*
X276395Y231105D01*
X276000Y230513D01*
X275000Y230816D01*
Y494821D01*
X602500Y494821D01*
Y427500D01*
D02*
G37*
G36*
X952938Y494821D02*
X958763Y494054D01*
X964438Y492533D01*
X969866Y490285D01*
X974954Y487347D01*
X979616Y483770D01*
X983770Y479616D01*
X987347Y474954D01*
X990285Y469866D01*
X992533Y464438D01*
X994054Y458763D01*
X994821Y452938D01*
X994820Y450000D01*
X994821Y200000D01*
X989376D01*
X989239Y200332D01*
X987832Y201739D01*
X985994Y202500D01*
X984005D01*
X982168Y201739D01*
X980761Y200332D01*
X980623Y200000D01*
X929376D01*
X929239Y200332D01*
X927832Y201739D01*
X925995Y202500D01*
X924005D01*
X922168Y201739D01*
X920761Y200332D01*
X920624Y200000D01*
X869377D01*
X869239Y200332D01*
X867832Y201739D01*
X865995Y202500D01*
X864006D01*
X862168Y201739D01*
X860761Y200332D01*
X860624Y200000D01*
X842500D01*
Y295000D01*
X612500D01*
Y403124D01*
X612832Y403261D01*
X614239Y404668D01*
X615000Y406505D01*
Y408495D01*
X614239Y410332D01*
X612832Y411739D01*
X612500Y411876D01*
Y494821D01*
X950000Y494821D01*
X952938Y494821D01*
D02*
G37*
G36*
X602500Y285000D02*
X635624D01*
X635761Y284668D01*
X637168Y283261D01*
X639006Y282500D01*
X640995D01*
X642832Y283261D01*
X644239Y284668D01*
X644377Y285000D01*
X665624D01*
X665761Y284668D01*
X667168Y283261D01*
X669006Y282500D01*
X670995D01*
X672832Y283261D01*
X674239Y284668D01*
X674377Y285000D01*
X695624D01*
X695761Y284668D01*
X697168Y283261D01*
X699006Y282500D01*
X700995D01*
X702832Y283261D01*
X704239Y284668D01*
X704377Y285000D01*
X725624D01*
X725761Y284668D01*
X727168Y283261D01*
X727500Y283124D01*
Y231876D01*
X727168Y231739D01*
X725761Y230332D01*
X725000Y228495D01*
Y226506D01*
X725761Y224668D01*
X727168Y223261D01*
X727500Y223124D01*
Y192500D01*
X598409D01*
X598071Y193500D01*
X599239Y194668D01*
X600000Y196506D01*
Y198495D01*
X599239Y200332D01*
X597832Y201739D01*
X595995Y202500D01*
X594006D01*
X592168Y201739D01*
X590761Y200332D01*
X590000Y198495D01*
Y196506D01*
X590761Y194668D01*
X591929Y193500D01*
X591591Y192500D01*
X568409D01*
X568071Y193500D01*
X569239Y194668D01*
X570000Y196506D01*
Y198495D01*
X569239Y200332D01*
X567832Y201739D01*
X565995Y202500D01*
X564006D01*
X562168Y201739D01*
X560761Y200332D01*
X560000Y198495D01*
Y196506D01*
X560761Y194668D01*
X561929Y193500D01*
X561591Y192500D01*
X538409D01*
X538071Y193500D01*
X539239Y194668D01*
X540000Y196506D01*
Y198495D01*
X539239Y200332D01*
X537832Y201739D01*
X535995Y202500D01*
X534006D01*
X532168Y201739D01*
X530761Y200332D01*
X530000Y198495D01*
Y196506D01*
X530761Y194668D01*
X531929Y193500D01*
X531591Y192500D01*
X478409D01*
X478071Y193500D01*
X479239Y194668D01*
X480000Y196506D01*
Y198495D01*
X479239Y200332D01*
X477832Y201739D01*
X475995Y202500D01*
X474006D01*
X472168Y201739D01*
X470761Y200332D01*
X470000Y198495D01*
Y196506D01*
X470761Y194668D01*
X471929Y193500D01*
X471591Y192500D01*
X445000D01*
Y312500D01*
X445995D01*
X447832Y313261D01*
X449239Y314668D01*
X450000Y316506D01*
Y318495D01*
X449239Y320332D01*
X447832Y321739D01*
X445995Y322500D01*
X445000D01*
Y332500D01*
X602500D01*
Y285000D01*
D02*
G37*
G36*
X832500Y201843D02*
X831395Y201105D01*
X830290Y199451D01*
X829902Y197500D01*
X830290Y195549D01*
X831395Y193895D01*
X832500Y193157D01*
Y187500D01*
X994821Y187500D01*
X994821Y50000D01*
X994821Y47062D01*
X994054Y41237D01*
X992533Y35562D01*
X990285Y30134D01*
X987347Y25045D01*
X983770Y20384D01*
X979616Y16230D01*
X974955Y12653D01*
X969866Y9715D01*
X964438Y7467D01*
X958763Y5946D01*
X952938Y5179D01*
X950000D01*
X542500Y5179D01*
Y27210D01*
X550290D01*
Y47790D01*
X542500D01*
Y182500D01*
X737500D01*
Y285000D01*
X832500D01*
Y201843D01*
D02*
G37*
%LPC*%
G36*
X136755Y440290D02*
X136670D01*
Y431270D01*
X145690D01*
Y431355D01*
X144989Y433972D01*
X143634Y436318D01*
X141718Y438234D01*
X139372Y439589D01*
X136755Y440290D01*
D02*
G37*
G36*
X134130D02*
X134045D01*
X131428Y439589D01*
X129082Y438234D01*
X127166Y436318D01*
X125811Y433972D01*
X125110Y431355D01*
Y431270D01*
X134130D01*
Y440290D01*
D02*
G37*
G36*
X145690Y428730D02*
X136670D01*
Y419710D01*
X136755D01*
X139372Y420411D01*
X141718Y421766D01*
X143634Y423682D01*
X144989Y426028D01*
X145690Y428645D01*
Y428730D01*
D02*
G37*
G36*
X134130D02*
X125110D01*
Y428645D01*
X125811Y426028D01*
X127166Y423682D01*
X129082Y421766D01*
X131428Y420411D01*
X134045Y419710D01*
X134130D01*
Y428730D01*
D02*
G37*
G36*
X120290Y440290D02*
X99710D01*
Y419710D01*
X120290D01*
Y440290D01*
D02*
G37*
G36*
X52561Y482540D02*
X47439D01*
X42380Y481739D01*
X37509Y480156D01*
X32945Y477831D01*
X28802Y474820D01*
X25180Y471198D01*
X22169Y467055D01*
X19844Y462491D01*
X18261Y457620D01*
X17460Y452561D01*
Y447439D01*
X18261Y442380D01*
X19844Y437509D01*
X22169Y432945D01*
X25180Y428802D01*
X28802Y425180D01*
X32945Y422169D01*
X37509Y419844D01*
X42380Y418261D01*
X47439Y417460D01*
X52561D01*
X57620Y418261D01*
X62491Y419844D01*
X67055Y422169D01*
X71198Y425180D01*
X74820Y428802D01*
X77831Y432945D01*
X80156Y437509D01*
X81739Y442380D01*
X82540Y447439D01*
Y452561D01*
X81739Y457620D01*
X80156Y462491D01*
X77831Y467055D01*
X74820Y471198D01*
X71198Y474820D01*
X67055Y477831D01*
X62491Y480156D01*
X57620Y481739D01*
X52561Y482540D01*
D02*
G37*
G36*
X136755Y400290D02*
X134045D01*
X131428Y399589D01*
X129082Y398234D01*
X127166Y396318D01*
X125811Y393972D01*
X125110Y391355D01*
Y388645D01*
X125811Y386028D01*
X127166Y383682D01*
X129082Y381766D01*
X131428Y380411D01*
X134045Y379710D01*
X136755D01*
X139372Y380411D01*
X141718Y381766D01*
X143634Y383682D01*
X144989Y386028D01*
X145690Y388645D01*
Y391355D01*
X144989Y393972D01*
X143634Y396318D01*
X141718Y398234D01*
X139372Y399589D01*
X136755Y400290D01*
D02*
G37*
G36*
X120290D02*
X99710D01*
Y379710D01*
X120290D01*
Y400290D01*
D02*
G37*
G36*
X136755Y360290D02*
X134045D01*
X131428Y359589D01*
X129082Y358234D01*
X127166Y356318D01*
X125811Y353972D01*
X125110Y351355D01*
Y348645D01*
X125811Y346028D01*
X127166Y343682D01*
X129082Y341766D01*
X131428Y340411D01*
X134045Y339710D01*
X136755D01*
X139372Y340411D01*
X141718Y341766D01*
X143634Y343682D01*
X144989Y346028D01*
X145690Y348645D01*
Y351355D01*
X144989Y353972D01*
X143634Y356318D01*
X141718Y358234D01*
X139372Y359589D01*
X136755Y360290D01*
D02*
G37*
G36*
X120290D02*
X99710D01*
Y339710D01*
X120290D01*
Y360290D01*
D02*
G37*
G36*
X136755Y320290D02*
X134045D01*
X131428Y319589D01*
X129082Y318234D01*
X127166Y316318D01*
X125811Y313972D01*
X125110Y311355D01*
Y308645D01*
X125811Y306028D01*
X127166Y303682D01*
X129082Y301766D01*
X131428Y300411D01*
X134045Y299710D01*
X136755D01*
X139372Y300411D01*
X141718Y301766D01*
X143634Y303682D01*
X144989Y306028D01*
X145690Y308645D01*
Y311355D01*
X144989Y313972D01*
X143634Y316318D01*
X141718Y318234D01*
X139372Y319589D01*
X136755Y320290D01*
D02*
G37*
G36*
X120290D02*
X99710D01*
Y299710D01*
X120290D01*
Y320290D01*
D02*
G37*
G36*
X136755Y280290D02*
X134045D01*
X131428Y279589D01*
X129082Y278234D01*
X127166Y276318D01*
X125811Y273972D01*
X125110Y271355D01*
Y268645D01*
X125811Y266028D01*
X127166Y263682D01*
X129082Y261766D01*
X131428Y260411D01*
X134045Y259710D01*
X136755D01*
X139372Y260411D01*
X141718Y261766D01*
X143634Y263682D01*
X144989Y266028D01*
X145690Y268645D01*
Y271355D01*
X144989Y273972D01*
X143634Y276318D01*
X141718Y278234D01*
X139372Y279589D01*
X136755Y280290D01*
D02*
G37*
G36*
X120290D02*
X99710D01*
Y259710D01*
X120290D01*
Y280290D01*
D02*
G37*
G36*
X253495Y262500D02*
X251505D01*
X249668Y261739D01*
X248261Y260332D01*
X247500Y258495D01*
Y256505D01*
X248261Y254668D01*
X249668Y253261D01*
X251505Y252500D01*
X253495D01*
X255332Y253261D01*
X256739Y254668D01*
X257500Y256505D01*
Y258495D01*
X256739Y260332D01*
X255332Y261739D01*
X253495Y262500D01*
D02*
G37*
G36*
Y247500D02*
X251505D01*
X249668Y246739D01*
X248261Y245332D01*
X247500Y243495D01*
Y241505D01*
X248261Y239668D01*
X249668Y238261D01*
X251505Y237500D01*
X253495D01*
X255332Y238261D01*
X256739Y239668D01*
X257500Y241505D01*
Y243495D01*
X256739Y245332D01*
X255332Y246739D01*
X253495Y247500D01*
D02*
G37*
G36*
X136755Y240290D02*
X134045D01*
X131428Y239589D01*
X129082Y238234D01*
X127166Y236318D01*
X125811Y233972D01*
X125110Y231355D01*
Y228645D01*
X125811Y226028D01*
X127166Y223682D01*
X129082Y221766D01*
X131428Y220411D01*
X134045Y219710D01*
X136755D01*
X139372Y220411D01*
X141718Y221766D01*
X143634Y223682D01*
X144989Y226028D01*
X145690Y228645D01*
Y231355D01*
X144989Y233972D01*
X143634Y236318D01*
X141718Y238234D01*
X139372Y239589D01*
X136755Y240290D01*
D02*
G37*
G36*
X120290D02*
X99710D01*
Y219710D01*
X120290D01*
Y240290D01*
D02*
G37*
G36*
X136755Y200290D02*
X134045D01*
X131428Y199589D01*
X129082Y198234D01*
X127166Y196318D01*
X125811Y193972D01*
X125110Y191355D01*
Y188645D01*
X125811Y186028D01*
X127166Y183682D01*
X129082Y181766D01*
X131428Y180411D01*
X134045Y179710D01*
X136755D01*
X139372Y180411D01*
X141718Y181766D01*
X143634Y183682D01*
X144989Y186028D01*
X145690Y188645D01*
Y191355D01*
X144989Y193972D01*
X143634Y196318D01*
X141718Y198234D01*
X139372Y199589D01*
X136755Y200290D01*
D02*
G37*
G36*
X120290D02*
X99710D01*
Y179710D01*
X120290D01*
Y200290D01*
D02*
G37*
G36*
X136755Y160290D02*
X134045D01*
X131428Y159589D01*
X129082Y158234D01*
X127166Y156318D01*
X125811Y153972D01*
X125110Y151355D01*
Y148645D01*
X125811Y146028D01*
X127166Y143682D01*
X129082Y141766D01*
X131428Y140411D01*
X134045Y139710D01*
X136755D01*
X139372Y140411D01*
X141718Y141766D01*
X143634Y143682D01*
X144989Y146028D01*
X145690Y148645D01*
Y151355D01*
X144989Y153972D01*
X143634Y156318D01*
X141718Y158234D01*
X139372Y159589D01*
X136755Y160290D01*
D02*
G37*
G36*
X120290D02*
X99710D01*
Y139710D01*
X120290D01*
Y160290D01*
D02*
G37*
G36*
X136755Y120290D02*
X134045D01*
X131428Y119589D01*
X129082Y118234D01*
X127166Y116318D01*
X125811Y113972D01*
X125110Y111355D01*
Y108645D01*
X125811Y106028D01*
X127166Y103682D01*
X129082Y101766D01*
X131428Y100411D01*
X134045Y99710D01*
X136755D01*
X139372Y100411D01*
X141718Y101766D01*
X143634Y103682D01*
X144989Y106028D01*
X145690Y108645D01*
Y111355D01*
X144989Y113972D01*
X143634Y116318D01*
X141718Y118234D01*
X139372Y119589D01*
X136755Y120290D01*
D02*
G37*
G36*
X120290D02*
X99710D01*
Y99710D01*
X120290D01*
Y120290D01*
D02*
G37*
G36*
X136755Y80290D02*
X134045D01*
X131428Y79589D01*
X129082Y78234D01*
X127166Y76318D01*
X125811Y73972D01*
X125110Y71355D01*
Y68645D01*
X125811Y66028D01*
X127166Y63682D01*
X129082Y61766D01*
X131428Y60411D01*
X134045Y59710D01*
X136755D01*
X139372Y60411D01*
X141718Y61766D01*
X143634Y63682D01*
X144989Y66028D01*
X145690Y68645D01*
Y71355D01*
X144989Y73972D01*
X143634Y76318D01*
X141718Y78234D01*
X139372Y79589D01*
X136755Y80290D01*
D02*
G37*
G36*
X120290D02*
X99710D01*
Y59710D01*
X120290D01*
Y80290D01*
D02*
G37*
G36*
X203495Y67500D02*
X201505D01*
X199668Y66739D01*
X198261Y65332D01*
X197500Y63495D01*
Y61505D01*
X198261Y59668D01*
X199668Y58261D01*
X201505Y57500D01*
X203495D01*
X205332Y58261D01*
X206739Y59668D01*
X207500Y61505D01*
Y63495D01*
X206739Y65332D01*
X205332Y66739D01*
X203495Y67500D01*
D02*
G37*
G36*
X255995Y60000D02*
X254005D01*
X252168Y59239D01*
X250761Y57832D01*
X250000Y55995D01*
Y54005D01*
X250761Y52168D01*
X252168Y50761D01*
X254005Y50000D01*
X255995D01*
X257832Y50761D01*
X259239Y52168D01*
X260000Y54005D01*
Y55995D01*
X259239Y57832D01*
X257832Y59239D01*
X255995Y60000D01*
D02*
G37*
G36*
X52561Y82540D02*
X47439D01*
X42380Y81739D01*
X37509Y80156D01*
X32945Y77831D01*
X28802Y74820D01*
X25180Y71198D01*
X22169Y67055D01*
X19844Y62491D01*
X18261Y57620D01*
X17460Y52561D01*
Y47439D01*
X18261Y42380D01*
X19844Y37509D01*
X22169Y32945D01*
X25180Y28802D01*
X28802Y25180D01*
X32945Y22169D01*
X37509Y19844D01*
X42380Y18261D01*
X47439Y17460D01*
X52561D01*
X57620Y18261D01*
X62491Y19844D01*
X67055Y22169D01*
X71198Y25180D01*
X74820Y28802D01*
X77831Y32945D01*
X80156Y37509D01*
X81739Y42380D01*
X82540Y47439D01*
Y52561D01*
X81739Y57620D01*
X80156Y62491D01*
X77831Y67055D01*
X74820Y71198D01*
X71198Y74820D01*
X67055Y77831D01*
X62491Y80156D01*
X57620Y81739D01*
X52561Y82540D01*
D02*
G37*
G36*
X580000Y412598D02*
X578049Y412210D01*
X576395Y411105D01*
X575290Y409451D01*
X574902Y407500D01*
X575290Y405549D01*
X576395Y403895D01*
X578049Y402790D01*
X580000Y402402D01*
X581951Y402790D01*
X583605Y403895D01*
X584710Y405549D01*
X585098Y407500D01*
X584710Y409451D01*
X583605Y411105D01*
X581951Y412210D01*
X580000Y412598D01*
D02*
G37*
G36*
X520000D02*
X518049Y412210D01*
X516395Y411105D01*
X515290Y409451D01*
X514902Y407500D01*
X515290Y405549D01*
X516395Y403895D01*
X518049Y402790D01*
X520000Y402402D01*
X521951Y402790D01*
X523605Y403895D01*
X524710Y405549D01*
X525098Y407500D01*
X524710Y409451D01*
X523605Y411105D01*
X521951Y412210D01*
X520000Y412598D01*
D02*
G37*
G36*
X490000D02*
X488049Y412210D01*
X486395Y411105D01*
X485290Y409451D01*
X484902Y407500D01*
X485290Y405549D01*
X486395Y403895D01*
X488049Y402790D01*
X490000Y402402D01*
X491951Y402790D01*
X493605Y403895D01*
X494710Y405549D01*
X495098Y407500D01*
X494710Y409451D01*
X493605Y411105D01*
X491951Y412210D01*
X490000Y412598D01*
D02*
G37*
G36*
X460000D02*
X458049Y412210D01*
X456395Y411105D01*
X455290Y409451D01*
X454902Y407500D01*
X455290Y405549D01*
X456395Y403895D01*
X458049Y402790D01*
X460000Y402402D01*
X461951Y402790D01*
X463605Y403895D01*
X464710Y405549D01*
X465098Y407500D01*
X464710Y409451D01*
X463605Y411105D01*
X461951Y412210D01*
X460000Y412598D01*
D02*
G37*
G36*
X400000D02*
X398049Y412210D01*
X396395Y411105D01*
X395290Y409451D01*
X394902Y407500D01*
X395290Y405549D01*
X396395Y403895D01*
X398049Y402790D01*
X400000Y402402D01*
X401951Y402790D01*
X403605Y403895D01*
X404710Y405549D01*
X405098Y407500D01*
X404710Y409451D01*
X403605Y411105D01*
X401951Y412210D01*
X400000Y412598D01*
D02*
G37*
G36*
X340000D02*
X338049Y412210D01*
X336395Y411105D01*
X335290Y409451D01*
X334902Y407500D01*
X335290Y405549D01*
X336395Y403895D01*
X338049Y402790D01*
X340000Y402402D01*
X341951Y402790D01*
X343605Y403895D01*
X344710Y405549D01*
X345098Y407500D01*
X344710Y409451D01*
X343605Y411105D01*
X341951Y412210D01*
X340000Y412598D01*
D02*
G37*
G36*
X595000Y382598D02*
X593049Y382210D01*
X591395Y381105D01*
X590290Y379451D01*
X589902Y377500D01*
X590290Y375549D01*
X591395Y373895D01*
X593049Y372790D01*
X595000Y372402D01*
X596951Y372790D01*
X598605Y373895D01*
X599710Y375549D01*
X600098Y377500D01*
X599710Y379451D01*
X598605Y381105D01*
X596951Y382210D01*
X595000Y382598D01*
D02*
G37*
G36*
X565000D02*
X563049Y382210D01*
X561395Y381105D01*
X560290Y379451D01*
X559902Y377500D01*
X560290Y375549D01*
X561395Y373895D01*
X563049Y372790D01*
X565000Y372402D01*
X566951Y372790D01*
X568605Y373895D01*
X569710Y375549D01*
X570098Y377500D01*
X569710Y379451D01*
X568605Y381105D01*
X566951Y382210D01*
X565000Y382598D01*
D02*
G37*
G36*
X505000D02*
X503049Y382210D01*
X501395Y381105D01*
X500290Y379451D01*
X499902Y377500D01*
X500290Y375549D01*
X501395Y373895D01*
X503049Y372790D01*
X505000Y372402D01*
X506951Y372790D01*
X508605Y373895D01*
X509710Y375549D01*
X510098Y377500D01*
X509710Y379451D01*
X508605Y381105D01*
X506951Y382210D01*
X505000Y382598D01*
D02*
G37*
G36*
X475000D02*
X473049Y382210D01*
X471395Y381105D01*
X470290Y379451D01*
X469902Y377500D01*
X470290Y375549D01*
X471395Y373895D01*
X473049Y372790D01*
X475000Y372402D01*
X476951Y372790D01*
X478605Y373895D01*
X479710Y375549D01*
X480098Y377500D01*
X479710Y379451D01*
X478605Y381105D01*
X476951Y382210D01*
X475000Y382598D01*
D02*
G37*
G36*
X427500Y210098D02*
X425549Y209710D01*
X423895Y208605D01*
X422790Y206951D01*
X422402Y205000D01*
X422790Y203049D01*
X423895Y201395D01*
X425549Y200290D01*
X427500Y199902D01*
X429451Y200290D01*
X431105Y201395D01*
X432210Y203049D01*
X432598Y205000D01*
X432210Y206951D01*
X431105Y208605D01*
X429451Y209710D01*
X427500Y210098D01*
D02*
G37*
G36*
X520000Y172598D02*
X518049Y172210D01*
X516395Y171105D01*
X515290Y169451D01*
X514902Y167500D01*
X515290Y165549D01*
X516395Y163895D01*
X518049Y162790D01*
X520000Y162402D01*
X521951Y162790D01*
X523605Y163895D01*
X524710Y165549D01*
X525098Y167500D01*
X524710Y169451D01*
X523605Y171105D01*
X521951Y172210D01*
X520000Y172598D01*
D02*
G37*
G36*
X505000Y142598D02*
X503049Y142210D01*
X501395Y141105D01*
X500290Y139451D01*
X499902Y137500D01*
X500290Y135549D01*
X501395Y133895D01*
X503049Y132790D01*
X505000Y132402D01*
X506951Y132790D01*
X508605Y133895D01*
X509710Y135549D01*
X510098Y137500D01*
X509710Y139451D01*
X508605Y141105D01*
X506951Y142210D01*
X505000Y142598D01*
D02*
G37*
G36*
X520000Y472598D02*
X518049Y472210D01*
X516395Y471105D01*
X515290Y469451D01*
X514902Y467500D01*
X515290Y465549D01*
X516395Y463895D01*
X518049Y462790D01*
X520000Y462402D01*
X521951Y462790D01*
X523605Y463895D01*
X524710Y465549D01*
X525098Y467500D01*
X524710Y469451D01*
X523605Y471105D01*
X521951Y472210D01*
X520000Y472598D01*
D02*
G37*
G36*
X490000D02*
X488049Y472210D01*
X486395Y471105D01*
X485290Y469451D01*
X484902Y467500D01*
X485290Y465549D01*
X486395Y463895D01*
X488049Y462790D01*
X490000Y462402D01*
X491951Y462790D01*
X493605Y463895D01*
X494710Y465549D01*
X495098Y467500D01*
X494710Y469451D01*
X493605Y471105D01*
X491951Y472210D01*
X490000Y472598D01*
D02*
G37*
G36*
X460000D02*
X458049Y472210D01*
X456395Y471105D01*
X455290Y469451D01*
X454902Y467500D01*
X455290Y465549D01*
X456395Y463895D01*
X458049Y462790D01*
X460000Y462402D01*
X461951Y462790D01*
X463605Y463895D01*
X464710Y465549D01*
X465098Y467500D01*
X464710Y469451D01*
X463605Y471105D01*
X461951Y472210D01*
X460000Y472598D01*
D02*
G37*
G36*
X430000D02*
X428049Y472210D01*
X426395Y471105D01*
X425290Y469451D01*
X424902Y467500D01*
X425290Y465549D01*
X426395Y463895D01*
X428049Y462790D01*
X430000Y462402D01*
X431951Y462790D01*
X433605Y463895D01*
X434710Y465549D01*
X435098Y467500D01*
X434710Y469451D01*
X433605Y471105D01*
X431951Y472210D01*
X430000Y472598D01*
D02*
G37*
G36*
X400000D02*
X398049Y472210D01*
X396395Y471105D01*
X395290Y469451D01*
X394902Y467500D01*
X395290Y465549D01*
X396395Y463895D01*
X398049Y462790D01*
X400000Y462402D01*
X401951Y462790D01*
X403605Y463895D01*
X404710Y465549D01*
X405098Y467500D01*
X404710Y469451D01*
X403605Y471105D01*
X401951Y472210D01*
X400000Y472598D01*
D02*
G37*
G36*
X365690Y472790D02*
X345110D01*
Y452210D01*
X365690D01*
Y472790D01*
D02*
G37*
G36*
X330000Y472879D02*
X327314Y472525D01*
X324811Y471488D01*
X322661Y469839D01*
X321012Y467689D01*
X319975Y465186D01*
X319621Y462500D01*
X319975Y459814D01*
X321012Y457311D01*
X322661Y455161D01*
X324811Y453512D01*
X327314Y452475D01*
X330000Y452121D01*
X332686Y452475D01*
X335189Y453512D01*
X337339Y455161D01*
X338988Y457311D01*
X340025Y459814D01*
X340379Y462500D01*
X340025Y465186D01*
X338988Y467689D01*
X337339Y469839D01*
X335189Y471488D01*
X332686Y472525D01*
X330000Y472879D01*
D02*
G37*
G36*
X540000Y470127D02*
X537379Y469782D01*
X534937Y468770D01*
X532839Y467161D01*
X531230Y465063D01*
X530218Y462621D01*
X529873Y460000D01*
X530218Y457379D01*
X531230Y454937D01*
X532839Y452839D01*
X534937Y451230D01*
X537379Y450218D01*
X540000Y449873D01*
X542621Y450218D01*
X545063Y451230D01*
X547161Y452839D01*
X548770Y454937D01*
X549782Y457379D01*
X550127Y460000D01*
X549782Y462621D01*
X548770Y465063D01*
X547161Y467161D01*
X545063Y468770D01*
X542621Y469782D01*
X540000Y470127D01*
D02*
G37*
G36*
X595000Y442598D02*
X593049Y442210D01*
X591395Y441105D01*
X590290Y439451D01*
X589902Y437500D01*
X590290Y435549D01*
X591395Y433895D01*
X593049Y432790D01*
X595000Y432402D01*
X596951Y432790D01*
X598605Y433895D01*
X599710Y435549D01*
X600098Y437500D01*
X599710Y439451D01*
X598605Y441105D01*
X596951Y442210D01*
X595000Y442598D01*
D02*
G37*
G36*
X565000D02*
X563049Y442210D01*
X561395Y441105D01*
X560290Y439451D01*
X559902Y437500D01*
X560290Y435549D01*
X561395Y433895D01*
X563049Y432790D01*
X565000Y432402D01*
X566951Y432790D01*
X568605Y433895D01*
X569710Y435549D01*
X570098Y437500D01*
X569710Y439451D01*
X568605Y441105D01*
X566951Y442210D01*
X565000Y442598D01*
D02*
G37*
G36*
X505000D02*
X503049Y442210D01*
X501395Y441105D01*
X500290Y439451D01*
X499902Y437500D01*
X500290Y435549D01*
X501395Y433895D01*
X503049Y432790D01*
X505000Y432402D01*
X506951Y432790D01*
X508605Y433895D01*
X509710Y435549D01*
X510098Y437500D01*
X509710Y439451D01*
X508605Y441105D01*
X506951Y442210D01*
X505000Y442598D01*
D02*
G37*
G36*
X475000D02*
X473049Y442210D01*
X471395Y441105D01*
X470290Y439451D01*
X469902Y437500D01*
X470290Y435549D01*
X471395Y433895D01*
X473049Y432790D01*
X475000Y432402D01*
X476951Y432790D01*
X478605Y433895D01*
X479710Y435549D01*
X480098Y437500D01*
X479710Y439451D01*
X478605Y441105D01*
X476951Y442210D01*
X475000Y442598D01*
D02*
G37*
G36*
X445000D02*
X443049Y442210D01*
X441395Y441105D01*
X440290Y439451D01*
X439902Y437500D01*
X440290Y435549D01*
X441395Y433895D01*
X443049Y432790D01*
X445000Y432402D01*
X446951Y432790D01*
X448605Y433895D01*
X449710Y435549D01*
X450098Y437500D01*
X449710Y439451D01*
X448605Y441105D01*
X446951Y442210D01*
X445000Y442598D01*
D02*
G37*
G36*
X415000D02*
X413049Y442210D01*
X411395Y441105D01*
X410290Y439451D01*
X409902Y437500D01*
X410290Y435549D01*
X411395Y433895D01*
X413049Y432790D01*
X415000Y432402D01*
X416951Y432790D01*
X418605Y433895D01*
X419710Y435549D01*
X420098Y437500D01*
X419710Y439451D01*
X418605Y441105D01*
X416951Y442210D01*
X415000Y442598D01*
D02*
G37*
G36*
X355000D02*
X353049Y442210D01*
X351395Y441105D01*
X350290Y439451D01*
X349902Y437500D01*
X350290Y435549D01*
X351395Y433895D01*
X353049Y432790D01*
X355000Y432402D01*
X356951Y432790D01*
X358605Y433895D01*
X359710Y435549D01*
X360098Y437500D01*
X359710Y439451D01*
X358605Y441105D01*
X356951Y442210D01*
X355000Y442598D01*
D02*
G37*
G36*
X295000D02*
X293049Y442210D01*
X291395Y441105D01*
X290290Y439451D01*
X289902Y437500D01*
X290290Y435549D01*
X291395Y433895D01*
X293049Y432790D01*
X295000Y432402D01*
X296951Y432790D01*
X298605Y433895D01*
X299710Y435549D01*
X300098Y437500D01*
X299710Y439451D01*
X298605Y441105D01*
X296951Y442210D01*
X295000Y442598D01*
D02*
G37*
G36*
X337500Y322598D02*
X335549Y322210D01*
X333895Y321105D01*
X332790Y319451D01*
X332402Y317500D01*
X332790Y315549D01*
X333895Y313895D01*
X335549Y312790D01*
X337500Y312402D01*
X339451Y312790D01*
X341105Y313895D01*
X342210Y315549D01*
X342598Y317500D01*
X342210Y319451D01*
X341105Y321105D01*
X339451Y322210D01*
X337500Y322598D01*
D02*
G37*
G36*
X367500Y300098D02*
X365549Y299710D01*
X363895Y298605D01*
X362790Y296951D01*
X362402Y295000D01*
X362790Y293049D01*
X363895Y291395D01*
X365549Y290290D01*
X367500Y289902D01*
X369451Y290290D01*
X371105Y291395D01*
X372210Y293049D01*
X372598Y295000D01*
X372210Y296951D01*
X371105Y298605D01*
X369451Y299710D01*
X367500Y300098D01*
D02*
G37*
G36*
X355000Y262598D02*
X353049Y262210D01*
X351395Y261105D01*
X350290Y259451D01*
X349902Y257500D01*
X350290Y255549D01*
X351395Y253895D01*
X353049Y252790D01*
X355000Y252402D01*
X356951Y252790D01*
X358605Y253895D01*
X359710Y255549D01*
X360098Y257500D01*
X359710Y259451D01*
X358605Y261105D01*
X356951Y262210D01*
X355000Y262598D01*
D02*
G37*
G36*
X370000Y232598D02*
X368049Y232210D01*
X366395Y231105D01*
X365290Y229451D01*
X364902Y227500D01*
X365290Y225549D01*
X366395Y223895D01*
X368049Y222790D01*
X370000Y222402D01*
X371951Y222790D01*
X373605Y223895D01*
X374710Y225549D01*
X375098Y227500D01*
X374710Y229451D01*
X373605Y231105D01*
X371951Y232210D01*
X370000Y232598D01*
D02*
G37*
G36*
X505000Y82598D02*
X503049Y82210D01*
X501395Y81105D01*
X500290Y79451D01*
X499902Y77500D01*
X500290Y75549D01*
X501395Y73895D01*
X503049Y72790D01*
X505000Y72402D01*
X506951Y72790D01*
X508605Y73895D01*
X509710Y75549D01*
X510098Y77500D01*
X509710Y79451D01*
X508605Y81105D01*
X506951Y82210D01*
X505000Y82598D01*
D02*
G37*
G36*
X475000D02*
X473049Y82210D01*
X471395Y81105D01*
X470290Y79451D01*
X469902Y77500D01*
X470290Y75549D01*
X471395Y73895D01*
X473049Y72790D01*
X475000Y72402D01*
X476951Y72790D01*
X478605Y73895D01*
X479710Y75549D01*
X480098Y77500D01*
X479710Y79451D01*
X478605Y81105D01*
X476951Y82210D01*
X475000Y82598D01*
D02*
G37*
G36*
X445000D02*
X443049Y82210D01*
X441395Y81105D01*
X440290Y79451D01*
X439902Y77500D01*
X440290Y75549D01*
X441395Y73895D01*
X443049Y72790D01*
X445000Y72402D01*
X446951Y72790D01*
X448605Y73895D01*
X449710Y75549D01*
X450098Y77500D01*
X449710Y79451D01*
X448605Y81105D01*
X446951Y82210D01*
X445000Y82598D01*
D02*
G37*
G36*
X415000D02*
X413049Y82210D01*
X411395Y81105D01*
X410290Y79451D01*
X409902Y77500D01*
X410290Y75549D01*
X411395Y73895D01*
X413049Y72790D01*
X415000Y72402D01*
X416951Y72790D01*
X418605Y73895D01*
X419710Y75549D01*
X420098Y77500D01*
X419710Y79451D01*
X418605Y81105D01*
X416951Y82210D01*
X415000Y82598D01*
D02*
G37*
G36*
X385000D02*
X383049Y82210D01*
X381395Y81105D01*
X380290Y79451D01*
X379902Y77500D01*
X380290Y75549D01*
X381395Y73895D01*
X383049Y72790D01*
X385000Y72402D01*
X386951Y72790D01*
X388605Y73895D01*
X389710Y75549D01*
X390098Y77500D01*
X389710Y79451D01*
X388605Y81105D01*
X386951Y82210D01*
X385000Y82598D01*
D02*
G37*
G36*
X355000D02*
X353049Y82210D01*
X351395Y81105D01*
X350290Y79451D01*
X349902Y77500D01*
X350290Y75549D01*
X351395Y73895D01*
X353049Y72790D01*
X355000Y72402D01*
X356951Y72790D01*
X358605Y73895D01*
X359710Y75549D01*
X360098Y77500D01*
X359710Y79451D01*
X358605Y81105D01*
X356951Y82210D01*
X355000Y82598D01*
D02*
G37*
G36*
X325000D02*
X323049Y82210D01*
X321395Y81105D01*
X320290Y79451D01*
X319902Y77500D01*
X320290Y75549D01*
X321395Y73895D01*
X323049Y72790D01*
X325000Y72402D01*
X326951Y72790D01*
X328605Y73895D01*
X329710Y75549D01*
X330098Y77500D01*
X329710Y79451D01*
X328605Y81105D01*
X326951Y82210D01*
X325000Y82598D01*
D02*
G37*
G36*
X295000D02*
X293049Y82210D01*
X291395Y81105D01*
X290290Y79451D01*
X289902Y77500D01*
X290290Y75549D01*
X291395Y73895D01*
X293049Y72790D01*
X295000Y72402D01*
X296951Y72790D01*
X298605Y73895D01*
X299710Y75549D01*
X300098Y77500D01*
X299710Y79451D01*
X298605Y81105D01*
X296951Y82210D01*
X295000Y82598D01*
D02*
G37*
G36*
X505000Y60098D02*
X503049Y59710D01*
X501395Y58605D01*
X500290Y56951D01*
X499902Y55000D01*
X500290Y53049D01*
X501395Y51395D01*
X503049Y50290D01*
X505000Y49902D01*
X506951Y50290D01*
X508605Y51395D01*
X509710Y53049D01*
X510098Y55000D01*
X509710Y56951D01*
X508605Y58605D01*
X506951Y59710D01*
X505000Y60098D01*
D02*
G37*
G36*
X460000Y52598D02*
X458049Y52210D01*
X456395Y51105D01*
X455290Y49451D01*
X454902Y47500D01*
X455290Y45549D01*
X456395Y43895D01*
X458049Y42790D01*
X460000Y42402D01*
X461951Y42790D01*
X463605Y43895D01*
X464710Y45549D01*
X465098Y47500D01*
X464710Y49451D01*
X463605Y51105D01*
X461951Y52210D01*
X460000Y52598D01*
D02*
G37*
G36*
X430000D02*
X428049Y52210D01*
X426395Y51105D01*
X425290Y49451D01*
X424902Y47500D01*
X425290Y45549D01*
X426395Y43895D01*
X428049Y42790D01*
X430000Y42402D01*
X431951Y42790D01*
X433605Y43895D01*
X434710Y45549D01*
X435098Y47500D01*
X434710Y49451D01*
X433605Y51105D01*
X431951Y52210D01*
X430000Y52598D01*
D02*
G37*
G36*
X400000D02*
X398049Y52210D01*
X396395Y51105D01*
X395290Y49451D01*
X394902Y47500D01*
X395290Y45549D01*
X396395Y43895D01*
X398049Y42790D01*
X400000Y42402D01*
X401951Y42790D01*
X403605Y43895D01*
X404710Y45549D01*
X405098Y47500D01*
X404710Y49451D01*
X403605Y51105D01*
X401951Y52210D01*
X400000Y52598D01*
D02*
G37*
G36*
X370000D02*
X368049Y52210D01*
X366395Y51105D01*
X365290Y49451D01*
X364902Y47500D01*
X365290Y45549D01*
X366395Y43895D01*
X368049Y42790D01*
X370000Y42402D01*
X371951Y42790D01*
X373605Y43895D01*
X374710Y45549D01*
X375098Y47500D01*
X374710Y49451D01*
X373605Y51105D01*
X371951Y52210D01*
X370000Y52598D01*
D02*
G37*
G36*
X340000D02*
X338049Y52210D01*
X336395Y51105D01*
X335290Y49451D01*
X334902Y47500D01*
X335290Y45549D01*
X336395Y43895D01*
X338049Y42790D01*
X340000Y42402D01*
X341951Y42790D01*
X343605Y43895D01*
X344710Y45549D01*
X345098Y47500D01*
X344710Y49451D01*
X343605Y51105D01*
X341951Y52210D01*
X340000Y52598D01*
D02*
G37*
G36*
X310000D02*
X308049Y52210D01*
X306395Y51105D01*
X305290Y49451D01*
X304902Y47500D01*
X305290Y45549D01*
X306395Y43895D01*
X308049Y42790D01*
X310000Y42402D01*
X311951Y42790D01*
X313605Y43895D01*
X314710Y45549D01*
X315098Y47500D01*
X314710Y49451D01*
X313605Y51105D01*
X311951Y52210D01*
X310000Y52598D01*
D02*
G37*
G36*
X514600Y47879D02*
X511914Y47525D01*
X509411Y46488D01*
X507261Y44839D01*
X505612Y42689D01*
X504575Y40186D01*
X504221Y37500D01*
X504575Y34814D01*
X505612Y32311D01*
X507261Y30161D01*
X509411Y28512D01*
X511914Y27475D01*
X514600Y27121D01*
X517286Y27475D01*
X519789Y28512D01*
X521939Y30161D01*
X523588Y32311D01*
X524625Y34814D01*
X524979Y37500D01*
X524625Y40186D01*
X523588Y42689D01*
X521939Y44839D01*
X519789Y46488D01*
X517286Y47525D01*
X514600Y47879D01*
D02*
G37*
G36*
X489200D02*
X486514Y47525D01*
X484011Y46488D01*
X481861Y44839D01*
X480212Y42689D01*
X479175Y40186D01*
X478821Y37500D01*
X479175Y34814D01*
X480212Y32311D01*
X481861Y30161D01*
X484011Y28512D01*
X486514Y27475D01*
X489200Y27121D01*
X491886Y27475D01*
X494389Y28512D01*
X496539Y30161D01*
X498188Y32311D01*
X499225Y34814D01*
X499579Y37500D01*
X499225Y40186D01*
X498188Y42689D01*
X496539Y44839D01*
X494389Y46488D01*
X491886Y47525D01*
X489200Y47879D01*
D02*
G37*
G36*
X910995Y472500D02*
X909005D01*
X907168Y471739D01*
X905761Y470332D01*
X905000Y468494D01*
Y466505D01*
X905761Y464668D01*
X907168Y463261D01*
X909005Y462500D01*
X910995D01*
X912832Y463261D01*
X914239Y464668D01*
X915000Y466505D01*
Y468494D01*
X914239Y470332D01*
X912832Y471739D01*
X910995Y472500D01*
D02*
G37*
G36*
X880995D02*
X879006D01*
X877168Y471739D01*
X875761Y470332D01*
X875000Y468494D01*
Y466505D01*
X875761Y464668D01*
X877168Y463261D01*
X879006Y462500D01*
X880995D01*
X882832Y463261D01*
X884239Y464668D01*
X885000Y466505D01*
Y468494D01*
X884239Y470332D01*
X882832Y471739D01*
X880995Y472500D01*
D02*
G37*
G36*
X850995D02*
X849006D01*
X847168Y471739D01*
X845761Y470332D01*
X845000Y468494D01*
Y466505D01*
X845761Y464668D01*
X847168Y463261D01*
X849006Y462500D01*
X850995D01*
X852832Y463261D01*
X854239Y464668D01*
X855000Y466505D01*
Y468494D01*
X854239Y470332D01*
X852832Y471739D01*
X850995Y472500D01*
D02*
G37*
G36*
X820995D02*
X819006D01*
X817168Y471739D01*
X815761Y470332D01*
X815000Y468494D01*
Y466505D01*
X815761Y464668D01*
X817168Y463261D01*
X819006Y462500D01*
X820995D01*
X822832Y463261D01*
X824239Y464668D01*
X825000Y466505D01*
Y468494D01*
X824239Y470332D01*
X822832Y471739D01*
X820995Y472500D01*
D02*
G37*
G36*
X790995D02*
X789006D01*
X787168Y471739D01*
X785761Y470332D01*
X785000Y468494D01*
Y466505D01*
X785761Y464668D01*
X787168Y463261D01*
X789006Y462500D01*
X790995D01*
X792832Y463261D01*
X794239Y464668D01*
X795000Y466505D01*
Y468494D01*
X794239Y470332D01*
X792832Y471739D01*
X790995Y472500D01*
D02*
G37*
G36*
X760995D02*
X759006D01*
X757168Y471739D01*
X755761Y470332D01*
X755000Y468494D01*
Y466505D01*
X755761Y464668D01*
X757168Y463261D01*
X759006Y462500D01*
X760995D01*
X762832Y463261D01*
X764239Y464668D01*
X765000Y466505D01*
Y468494D01*
X764239Y470332D01*
X762832Y471739D01*
X760995Y472500D01*
D02*
G37*
G36*
X730995D02*
X729006D01*
X727168Y471739D01*
X725761Y470332D01*
X725000Y468494D01*
Y466505D01*
X725761Y464668D01*
X727168Y463261D01*
X729006Y462500D01*
X730995D01*
X732832Y463261D01*
X734239Y464668D01*
X735000Y466505D01*
Y468494D01*
X734239Y470332D01*
X732832Y471739D01*
X730995Y472500D01*
D02*
G37*
G36*
X895995Y442500D02*
X894006D01*
X892168Y441739D01*
X890761Y440332D01*
X890000Y438495D01*
Y436505D01*
X890761Y434668D01*
X892168Y433261D01*
X894006Y432500D01*
X895995D01*
X897832Y433261D01*
X899239Y434668D01*
X900000Y436505D01*
Y438495D01*
X899239Y440332D01*
X897832Y441739D01*
X895995Y442500D01*
D02*
G37*
G36*
X865995D02*
X864006D01*
X862168Y441739D01*
X860761Y440332D01*
X860000Y438495D01*
Y436505D01*
X860761Y434668D01*
X862168Y433261D01*
X864006Y432500D01*
X865995D01*
X867832Y433261D01*
X869239Y434668D01*
X870000Y436505D01*
Y438495D01*
X869239Y440332D01*
X867832Y441739D01*
X865995Y442500D01*
D02*
G37*
G36*
X835995D02*
X834006D01*
X832168Y441739D01*
X830761Y440332D01*
X830000Y438495D01*
Y436505D01*
X830761Y434668D01*
X832168Y433261D01*
X834006Y432500D01*
X835995D01*
X837832Y433261D01*
X839239Y434668D01*
X840000Y436505D01*
Y438495D01*
X839239Y440332D01*
X837832Y441739D01*
X835995Y442500D01*
D02*
G37*
G36*
X805995D02*
X804006D01*
X802168Y441739D01*
X800761Y440332D01*
X800000Y438495D01*
Y436505D01*
X800761Y434668D01*
X802168Y433261D01*
X804006Y432500D01*
X805995D01*
X807832Y433261D01*
X809239Y434668D01*
X810000Y436505D01*
Y438495D01*
X809239Y440332D01*
X807832Y441739D01*
X805995Y442500D01*
D02*
G37*
G36*
X775995D02*
X774006D01*
X772168Y441739D01*
X770761Y440332D01*
X770000Y438495D01*
Y436505D01*
X770761Y434668D01*
X772168Y433261D01*
X774006Y432500D01*
X775995D01*
X777832Y433261D01*
X779239Y434668D01*
X780000Y436505D01*
Y438495D01*
X779239Y440332D01*
X777832Y441739D01*
X775995Y442500D01*
D02*
G37*
G36*
X745995D02*
X744006D01*
X742168Y441739D01*
X740761Y440332D01*
X740000Y438495D01*
Y436505D01*
X740761Y434668D01*
X742168Y433261D01*
X744006Y432500D01*
X745995D01*
X747832Y433261D01*
X749239Y434668D01*
X750000Y436505D01*
Y438495D01*
X749239Y440332D01*
X747832Y441739D01*
X745995Y442500D01*
D02*
G37*
G36*
X625995D02*
X624006D01*
X622168Y441739D01*
X620761Y440332D01*
X620000Y438495D01*
Y436505D01*
X620761Y434668D01*
X622168Y433261D01*
X624006Y432500D01*
X625995D01*
X627832Y433261D01*
X629239Y434668D01*
X630000Y436505D01*
Y438495D01*
X629239Y440332D01*
X627832Y441739D01*
X625995Y442500D01*
D02*
G37*
G36*
X952561Y482540D02*
X947439D01*
X942380Y481739D01*
X937509Y480156D01*
X932945Y477831D01*
X928802Y474820D01*
X925180Y471198D01*
X922169Y467055D01*
X919844Y462491D01*
X918261Y457620D01*
X917460Y452561D01*
Y447439D01*
X918261Y442380D01*
X919844Y437509D01*
X922169Y432945D01*
X925180Y428802D01*
X928802Y425180D01*
X932945Y422169D01*
X937509Y419844D01*
X942380Y418261D01*
X947439Y417460D01*
X952561D01*
X957620Y418261D01*
X962491Y419844D01*
X967055Y422169D01*
X971198Y425180D01*
X974820Y428802D01*
X977831Y432945D01*
X980156Y437509D01*
X981739Y442380D01*
X982540Y447439D01*
Y452561D01*
X981739Y457620D01*
X980156Y462491D01*
X977831Y467055D01*
X974820Y471198D01*
X971198Y474820D01*
X967055Y477831D01*
X962491Y480156D01*
X957620Y481739D01*
X952561Y482540D01*
D02*
G37*
G36*
X884494Y411500D02*
X882505D01*
X880668Y410739D01*
X879500Y409571D01*
X878332Y410739D01*
X876495Y411500D01*
X874505D01*
X872668Y410739D01*
X871500Y409571D01*
X870332Y410739D01*
X868495Y411500D01*
X866505D01*
X864668Y410739D01*
X863261Y409332D01*
X862500Y407495D01*
Y405505D01*
X863261Y403668D01*
X864668Y402261D01*
X866505Y401500D01*
X868495D01*
X870332Y402261D01*
X871500Y403429D01*
X872668Y402261D01*
X874505Y401500D01*
X876495D01*
X878332Y402261D01*
X879500Y403429D01*
X880668Y402261D01*
X882505Y401500D01*
X884494D01*
X886332Y402261D01*
X887739Y403668D01*
X888500Y405505D01*
Y407495D01*
X887739Y409332D01*
X886332Y410739D01*
X884494Y411500D01*
D02*
G37*
G36*
X683495Y418500D02*
X681505D01*
X679668Y417739D01*
X678261Y416332D01*
X677500Y414495D01*
Y412505D01*
X678261Y410668D01*
X679668Y409261D01*
X681505Y408500D01*
X683495D01*
X685332Y409261D01*
X686739Y410668D01*
X687500Y412505D01*
Y414495D01*
X686739Y416332D01*
X685332Y417739D01*
X683495Y418500D01*
D02*
G37*
G36*
X970995Y412500D02*
X969005D01*
X967168Y411739D01*
X965761Y410332D01*
X965000Y408495D01*
Y406505D01*
X965761Y404668D01*
X967168Y403261D01*
X969005Y402500D01*
X970995D01*
X972832Y403261D01*
X974239Y404668D01*
X975000Y406505D01*
Y408495D01*
X974239Y410332D01*
X972832Y411739D01*
X970995Y412500D01*
D02*
G37*
G36*
X940995D02*
X939005D01*
X937168Y411739D01*
X935761Y410332D01*
X935000Y408495D01*
Y406505D01*
X935761Y404668D01*
X937168Y403261D01*
X939005Y402500D01*
X940995D01*
X942832Y403261D01*
X944239Y404668D01*
X945000Y406505D01*
Y408495D01*
X944239Y410332D01*
X942832Y411739D01*
X940995Y412500D01*
D02*
G37*
G36*
X834494Y411500D02*
X832505D01*
X830668Y410739D01*
X829261Y409332D01*
X828500Y407495D01*
Y405505D01*
X829261Y403668D01*
X830668Y402261D01*
X832505Y401500D01*
X834494D01*
X836332Y402261D01*
X837739Y403668D01*
X838500Y405505D01*
Y407495D01*
X837739Y409332D01*
X836332Y410739D01*
X834494Y411500D01*
D02*
G37*
G36*
X818495D02*
X816505D01*
X814668Y410739D01*
X813261Y409332D01*
X812500Y407495D01*
Y405505D01*
X813261Y403668D01*
X814668Y402261D01*
X816505Y401500D01*
X818495D01*
X820332Y402261D01*
X821739Y403668D01*
X822500Y405505D01*
Y407495D01*
X821739Y409332D01*
X820332Y410739D01*
X818495Y411500D01*
D02*
G37*
G36*
X790995Y412500D02*
X789006D01*
X787168Y411739D01*
X785761Y410332D01*
X785000Y408495D01*
Y406505D01*
X785761Y404668D01*
X787168Y403261D01*
X789006Y402500D01*
X790995D01*
X792832Y403261D01*
X793409Y403837D01*
X794261Y403668D01*
X795668Y402261D01*
X797505Y401500D01*
X799495D01*
X801332Y402261D01*
X802739Y403668D01*
X803500Y405505D01*
Y407495D01*
X802739Y409332D01*
X801332Y410739D01*
X799495Y411500D01*
X797505D01*
X795668Y410739D01*
X795092Y410163D01*
X794239Y410332D01*
X792832Y411739D01*
X790995Y412500D01*
D02*
G37*
G36*
X931624Y401040D02*
X929376D01*
X927204Y400458D01*
X925256Y399334D01*
X923666Y397744D01*
X922542Y395796D01*
X921960Y393624D01*
Y391376D01*
X922542Y389204D01*
X923666Y387256D01*
X925256Y385666D01*
X927204Y384542D01*
X929376Y383960D01*
X931624D01*
X933796Y384542D01*
X935744Y385666D01*
X937334Y387256D01*
X938458Y389204D01*
X939040Y391376D01*
Y393624D01*
X938458Y395796D01*
X937334Y397744D01*
X935744Y399334D01*
X933796Y400458D01*
X931624Y401040D01*
D02*
G37*
G36*
X985994Y382500D02*
X984005D01*
X982168Y381739D01*
X980761Y380332D01*
X980000Y378495D01*
Y376505D01*
X980761Y374668D01*
X982168Y373261D01*
X984005Y372500D01*
X985994D01*
X987832Y373261D01*
X989239Y374668D01*
X990000Y376505D01*
Y378495D01*
X989239Y380332D01*
X987832Y381739D01*
X985994Y382500D01*
D02*
G37*
G36*
X775995D02*
X774006D01*
X772168Y381739D01*
X770761Y380332D01*
X770000Y378495D01*
Y376505D01*
X770761Y374668D01*
X772168Y373261D01*
X774006Y372500D01*
X775995D01*
X777832Y373261D01*
X779239Y374668D01*
X780000Y376505D01*
Y378495D01*
X779239Y380332D01*
X777832Y381739D01*
X775995Y382500D01*
D02*
G37*
G36*
X625995D02*
X624006D01*
X622168Y381739D01*
X620761Y380332D01*
X620000Y378495D01*
Y376505D01*
X620761Y374668D01*
X622168Y373261D01*
X624006Y372500D01*
X625995D01*
X627832Y373261D01*
X629239Y374668D01*
X630000Y376505D01*
Y378495D01*
X629239Y380332D01*
X627832Y381739D01*
X625995Y382500D01*
D02*
G37*
G36*
X683495Y403250D02*
X681505D01*
X679668Y402489D01*
X678261Y401082D01*
X677500Y399245D01*
Y397255D01*
X678261Y395418D01*
X679668Y394011D01*
X681104Y393416D01*
Y392334D01*
X679668Y391739D01*
X678261Y390332D01*
X677500Y388495D01*
Y386506D01*
X678261Y384668D01*
X679668Y383261D01*
X681104Y382666D01*
Y381584D01*
X679668Y380989D01*
X678261Y379582D01*
X677500Y377745D01*
Y375756D01*
X678261Y373918D01*
X679668Y372511D01*
X681505Y371750D01*
X683495D01*
X685332Y372511D01*
X686739Y373918D01*
X687500Y375756D01*
Y377745D01*
X686739Y379582D01*
X685332Y380989D01*
X683896Y381584D01*
Y382666D01*
X685332Y383261D01*
X686739Y384668D01*
X687500Y386506D01*
Y388495D01*
X686739Y390332D01*
X685332Y391739D01*
X683896Y392334D01*
Y393416D01*
X685332Y394011D01*
X686739Y395418D01*
X687500Y397255D01*
Y399245D01*
X686739Y401082D01*
X685332Y402489D01*
X683495Y403250D01*
D02*
G37*
G36*
X752995Y385000D02*
X751005D01*
X749168Y384239D01*
X747761Y382832D01*
X747000Y380995D01*
Y379006D01*
X747761Y377168D01*
X748929Y376000D01*
X747761Y374832D01*
X747000Y372995D01*
Y371006D01*
X747761Y369168D01*
X749168Y367761D01*
X751005Y367000D01*
X752995D01*
X754832Y367761D01*
X756239Y369168D01*
X757000Y371006D01*
Y372995D01*
X756239Y374832D01*
X755071Y376000D01*
X756239Y377168D01*
X757000Y379006D01*
Y380995D01*
X756239Y382832D01*
X754832Y384239D01*
X752995Y385000D01*
D02*
G37*
G36*
X939040Y381040D02*
X921960D01*
Y363960D01*
X939040D01*
Y381040D01*
D02*
G37*
G36*
X683495Y370500D02*
X681505D01*
X679668Y369739D01*
X678261Y368332D01*
X677500Y366495D01*
Y364505D01*
X678261Y362668D01*
X679668Y361261D01*
X681505Y360500D01*
X683495D01*
X685332Y361261D01*
X686739Y362668D01*
X687500Y364505D01*
Y366495D01*
X686739Y368332D01*
X685332Y369739D01*
X683495Y370500D01*
D02*
G37*
G36*
X828495Y365000D02*
X826505D01*
X824668Y364239D01*
X823261Y362832D01*
X822500Y360995D01*
Y359005D01*
X823261Y357168D01*
X824668Y355761D01*
X826505Y355000D01*
X828495D01*
X830332Y355761D01*
X831739Y357168D01*
X832500Y359005D01*
Y360995D01*
X831739Y362832D01*
X830332Y364239D01*
X828495Y365000D01*
D02*
G37*
G36*
X800995D02*
X799005D01*
X797168Y364239D01*
X795761Y362832D01*
X795000Y360995D01*
Y359005D01*
X795761Y357168D01*
X797168Y355761D01*
X799005Y355000D01*
X800995D01*
X802832Y355761D01*
X804239Y357168D01*
X805000Y359005D01*
Y360995D01*
X804239Y362832D01*
X802832Y364239D01*
X800995Y365000D01*
D02*
G37*
G36*
X815044Y364941D02*
X813055D01*
X811217Y364180D01*
X809811Y362773D01*
X809050Y360936D01*
Y358946D01*
X809811Y357109D01*
X811217Y355702D01*
X813055Y354941D01*
X815044D01*
X816882Y355702D01*
X818288Y357109D01*
X819050Y358946D01*
Y360936D01*
X818288Y362773D01*
X816882Y364180D01*
X815044Y364941D01*
D02*
G37*
G36*
X970995Y352500D02*
X969005D01*
X967168Y351739D01*
X965761Y350332D01*
X965000Y348495D01*
Y346506D01*
X965761Y344668D01*
X967168Y343261D01*
X969005Y342500D01*
X970995D01*
X972832Y343261D01*
X974239Y344668D01*
X975000Y346506D01*
Y348495D01*
X974239Y350332D01*
X972832Y351739D01*
X970995Y352500D01*
D02*
G37*
G36*
X940995D02*
X939005D01*
X937168Y351739D01*
X935761Y350332D01*
X935000Y348495D01*
Y346506D01*
X935761Y344668D01*
X937168Y343261D01*
X939005Y342500D01*
X940995D01*
X942832Y343261D01*
X944239Y344668D01*
X945000Y346506D01*
Y348495D01*
X944239Y350332D01*
X942832Y351739D01*
X940995Y352500D01*
D02*
G37*
G36*
X910995D02*
X909005D01*
X907168Y351739D01*
X905761Y350332D01*
X905000Y348495D01*
Y346506D01*
X905761Y344668D01*
X907168Y343261D01*
X909005Y342500D01*
X910995D01*
X912832Y343261D01*
X914239Y344668D01*
X915000Y346506D01*
Y348495D01*
X914239Y350332D01*
X912832Y351739D01*
X910995Y352500D01*
D02*
G37*
G36*
X670495Y351500D02*
X668505D01*
X666668Y350739D01*
X665261Y349332D01*
X664500Y347495D01*
Y345505D01*
X665261Y343668D01*
X666668Y342261D01*
X668505Y341500D01*
X670495D01*
X672332Y342261D01*
X673739Y343668D01*
X674500Y345505D01*
Y347495D01*
X673739Y349332D01*
X672332Y350739D01*
X670495Y351500D01*
D02*
G37*
G36*
X805995Y322500D02*
X804006D01*
X802168Y321739D01*
X800761Y320332D01*
X800000Y318495D01*
Y318378D01*
X799000Y317876D01*
X797495Y318500D01*
X795505D01*
X793668Y317739D01*
X792261Y316332D01*
X791500Y314495D01*
Y312505D01*
X792261Y310668D01*
X793668Y309261D01*
X795505Y308500D01*
X797495D01*
X799332Y309261D01*
X800739Y310668D01*
X801500Y312505D01*
Y312622D01*
X802500Y313124D01*
X804006Y312500D01*
X805995D01*
X807832Y313261D01*
X809239Y314668D01*
X810000Y316506D01*
Y318495D01*
X809239Y320332D01*
X807832Y321739D01*
X805995Y322500D01*
D02*
G37*
G36*
X882495Y318500D02*
X880505D01*
X878668Y317739D01*
X877500Y316571D01*
X876332Y317739D01*
X874495Y318500D01*
X872505D01*
X870668Y317739D01*
X869500Y316571D01*
X868332Y317739D01*
X866495Y318500D01*
X864505D01*
X862668Y317739D01*
X861261Y316332D01*
X860500Y314495D01*
Y312505D01*
X861261Y310668D01*
X862668Y309261D01*
X864505Y308500D01*
X866495D01*
X868332Y309261D01*
X869500Y310429D01*
X870668Y309261D01*
X872505Y308500D01*
X874495D01*
X876332Y309261D01*
X877500Y310429D01*
X878668Y309261D01*
X880505Y308500D01*
X882495D01*
X884332Y309261D01*
X885739Y310668D01*
X886500Y312505D01*
Y314495D01*
X885739Y316332D01*
X884332Y317739D01*
X882495Y318500D01*
D02*
G37*
G36*
X985994Y322500D02*
X984005D01*
X982168Y321739D01*
X980761Y320332D01*
X980000Y318495D01*
Y316506D01*
X980761Y314668D01*
X982168Y313261D01*
X984005Y312500D01*
X985994D01*
X987832Y313261D01*
X989239Y314668D01*
X990000Y316506D01*
Y318495D01*
X989239Y320332D01*
X987832Y321739D01*
X985994Y322500D01*
D02*
G37*
G36*
X925995D02*
X924005D01*
X922168Y321739D01*
X920761Y320332D01*
X920000Y318495D01*
Y316506D01*
X920761Y314668D01*
X922168Y313261D01*
X924005Y312500D01*
X925995D01*
X927832Y313261D01*
X929239Y314668D01*
X930000Y316506D01*
Y318495D01*
X929239Y320332D01*
X927832Y321739D01*
X925995Y322500D01*
D02*
G37*
G36*
X895995D02*
X894006D01*
X892168Y321739D01*
X890761Y320332D01*
X890000Y318495D01*
Y316506D01*
X890761Y314668D01*
X892168Y313261D01*
X894006Y312500D01*
X895995D01*
X897832Y313261D01*
X899239Y314668D01*
X900000Y316506D01*
Y318495D01*
X899239Y320332D01*
X897832Y321739D01*
X895995Y322500D01*
D02*
G37*
G36*
X775995D02*
X774006D01*
X772168Y321739D01*
X770761Y320332D01*
X770000Y318495D01*
Y316506D01*
X770761Y314668D01*
X772168Y313261D01*
X774006Y312500D01*
X775995D01*
X777832Y313261D01*
X779239Y314668D01*
X780000Y316506D01*
Y318495D01*
X779239Y320332D01*
X777832Y321739D01*
X775995Y322500D01*
D02*
G37*
G36*
X745995D02*
X744006D01*
X742168Y321739D01*
X740761Y320332D01*
X740000Y318495D01*
Y316506D01*
X740761Y314668D01*
X742168Y313261D01*
X744006Y312500D01*
X745995D01*
X747832Y313261D01*
X749239Y314668D01*
X750000Y316506D01*
Y318495D01*
X749239Y320332D01*
X747832Y321739D01*
X745995Y322500D01*
D02*
G37*
G36*
X715995D02*
X714006D01*
X712168Y321739D01*
X710761Y320332D01*
X710000Y318495D01*
Y316506D01*
X710761Y314668D01*
X712168Y313261D01*
X714006Y312500D01*
X715995D01*
X717832Y313261D01*
X719239Y314668D01*
X720000Y316506D01*
Y318495D01*
X719239Y320332D01*
X717832Y321739D01*
X715995Y322500D01*
D02*
G37*
G36*
X832495Y318500D02*
X830505D01*
X828668Y317739D01*
X827261Y316332D01*
X826500Y314495D01*
Y312505D01*
X827261Y310668D01*
X828668Y309261D01*
X830505Y308500D01*
X832495D01*
X834332Y309261D01*
X835739Y310668D01*
X836500Y312505D01*
Y314495D01*
X835739Y316332D01*
X834332Y317739D01*
X832495Y318500D01*
D02*
G37*
G36*
X816495D02*
X814505D01*
X812668Y317739D01*
X811261Y316332D01*
X810500Y314495D01*
Y312505D01*
X811261Y310668D01*
X812668Y309261D01*
X814505Y308500D01*
X816495D01*
X818332Y309261D01*
X819739Y310668D01*
X820500Y312505D01*
Y314495D01*
X819739Y316332D01*
X818332Y317739D01*
X816495Y318500D01*
D02*
G37*
G36*
X969040Y330540D02*
X935960D01*
Y297460D01*
X969040D01*
Y330540D01*
D02*
G37*
G36*
X970995Y292500D02*
X969005D01*
X967168Y291739D01*
X965761Y290332D01*
X965000Y288495D01*
Y286506D01*
X965761Y284668D01*
X967168Y283261D01*
X969005Y282500D01*
X970995D01*
X972832Y283261D01*
X974239Y284668D01*
X975000Y286506D01*
Y288495D01*
X974239Y290332D01*
X972832Y291739D01*
X970995Y292500D01*
D02*
G37*
G36*
X940995D02*
X939005D01*
X937168Y291739D01*
X935761Y290332D01*
X935000Y288495D01*
Y286506D01*
X935761Y284668D01*
X937168Y283261D01*
X939005Y282500D01*
X940995D01*
X942832Y283261D01*
X944239Y284668D01*
X945000Y286506D01*
Y288495D01*
X944239Y290332D01*
X942832Y291739D01*
X940995Y292500D01*
D02*
G37*
G36*
X910995D02*
X909005D01*
X907168Y291739D01*
X905761Y290332D01*
X905000Y288495D01*
Y286506D01*
X905761Y284668D01*
X907168Y283261D01*
X909005Y282500D01*
X910995D01*
X912832Y283261D01*
X914239Y284668D01*
X915000Y286506D01*
Y288495D01*
X914239Y290332D01*
X912832Y291739D01*
X910995Y292500D01*
D02*
G37*
G36*
X954129Y283540D02*
X953770D01*
Y268270D01*
X969040D01*
Y268629D01*
X968404Y271825D01*
X967158Y274835D01*
X965347Y277544D01*
X963044Y279847D01*
X960335Y281658D01*
X957325Y282904D01*
X954129Y283540D01*
D02*
G37*
G36*
X951230D02*
X950871D01*
X947675Y282904D01*
X944665Y281658D01*
X941956Y279847D01*
X939653Y277544D01*
X937842Y274835D01*
X936596Y271825D01*
X935960Y268629D01*
Y268270D01*
X951230D01*
Y283540D01*
D02*
G37*
G36*
X985994Y262500D02*
X984005D01*
X982168Y261739D01*
X980761Y260332D01*
X980000Y258495D01*
Y256506D01*
X980761Y254668D01*
X982168Y253261D01*
X984005Y252500D01*
X985994D01*
X987832Y253261D01*
X989239Y254668D01*
X990000Y256506D01*
Y258495D01*
X989239Y260332D01*
X987832Y261739D01*
X985994Y262500D01*
D02*
G37*
G36*
X925995D02*
X924005D01*
X922168Y261739D01*
X920761Y260332D01*
X920000Y258495D01*
Y256506D01*
X920761Y254668D01*
X922168Y253261D01*
X924005Y252500D01*
X925995D01*
X927832Y253261D01*
X929239Y254668D01*
X930000Y256506D01*
Y258495D01*
X929239Y260332D01*
X927832Y261739D01*
X925995Y262500D01*
D02*
G37*
G36*
X895995D02*
X894006D01*
X892168Y261739D01*
X890761Y260332D01*
X890000Y258495D01*
Y256506D01*
X890761Y254668D01*
X892168Y253261D01*
X894006Y252500D01*
X895995D01*
X897832Y253261D01*
X899239Y254668D01*
X900000Y256506D01*
Y258495D01*
X899239Y260332D01*
X897832Y261739D01*
X895995Y262500D01*
D02*
G37*
G36*
X969040Y265730D02*
X953770D01*
Y250460D01*
X954129D01*
X957325Y251096D01*
X960335Y252342D01*
X963044Y254153D01*
X965347Y256456D01*
X967158Y259165D01*
X968404Y262175D01*
X969040Y265371D01*
Y265730D01*
D02*
G37*
G36*
X951230D02*
X935960D01*
Y265371D01*
X936596Y262175D01*
X937842Y259165D01*
X939653Y256456D01*
X941956Y254153D01*
X944665Y252342D01*
X947675Y251096D01*
X950871Y250460D01*
X951230D01*
Y265730D01*
D02*
G37*
G36*
X850995Y232500D02*
X849006D01*
X847168Y231739D01*
X845761Y230332D01*
X845000Y228495D01*
Y226506D01*
X845761Y224668D01*
X847168Y223261D01*
X849006Y222500D01*
X850995D01*
X852832Y223261D01*
X854239Y224668D01*
X855000Y226506D01*
Y228495D01*
X854239Y230332D01*
X852832Y231739D01*
X850995Y232500D01*
D02*
G37*
G36*
X865995Y225000D02*
X864005D01*
X862168Y224239D01*
X860761Y222832D01*
X860000Y220995D01*
Y219005D01*
X860761Y217168D01*
X862168Y215761D01*
X864005Y215000D01*
X865995D01*
X867832Y215761D01*
X869239Y217168D01*
X870000Y219005D01*
Y220995D01*
X869239Y222832D01*
X867832Y224239D01*
X865995Y225000D01*
D02*
G37*
G36*
X954129Y236540D02*
X950871D01*
X947675Y235904D01*
X944665Y234657D01*
X941956Y232847D01*
X939653Y230544D01*
X937842Y227835D01*
X936596Y224825D01*
X935960Y221629D01*
Y218371D01*
X936596Y215175D01*
X937842Y212165D01*
X939653Y209456D01*
X941956Y207153D01*
X944665Y205342D01*
X947675Y204096D01*
X950871Y203460D01*
X954129D01*
X957325Y204096D01*
X960335Y205342D01*
X963044Y207153D01*
X965347Y209456D01*
X967158Y212165D01*
X968404Y215175D01*
X969040Y218371D01*
Y221629D01*
X968404Y224825D01*
X967158Y227835D01*
X965347Y230544D01*
X963044Y232847D01*
X960335Y234657D01*
X957325Y235904D01*
X954129Y236540D01*
D02*
G37*
G36*
X565995Y322500D02*
X564006D01*
X562168Y321739D01*
X560761Y320332D01*
X560000Y318495D01*
Y316506D01*
X560761Y314668D01*
X562168Y313261D01*
X564006Y312500D01*
X565995D01*
X567832Y313261D01*
X569239Y314668D01*
X570000Y316506D01*
Y318495D01*
X569239Y320332D01*
X567832Y321739D01*
X565995Y322500D01*
D02*
G37*
G36*
X508495Y322500D02*
X506505D01*
X504668Y321739D01*
X503261Y320332D01*
X502500Y318495D01*
Y316505D01*
X503261Y314668D01*
X504668Y313261D01*
X506505Y312500D01*
X508495D01*
X510332Y313261D01*
X511739Y314668D01*
X512500Y316505D01*
Y318495D01*
X511739Y320332D01*
X510332Y321739D01*
X508495Y322500D01*
D02*
G37*
G36*
X503495Y277500D02*
X501505D01*
X499668Y276739D01*
X498261Y275332D01*
X497500Y273495D01*
Y271505D01*
X498261Y269668D01*
X499668Y268261D01*
X501505Y267500D01*
X503495D01*
X505332Y268261D01*
X506739Y269668D01*
X507500Y271505D01*
Y273495D01*
X506739Y275332D01*
X505332Y276739D01*
X503495Y277500D01*
D02*
G37*
G36*
X715995Y262500D02*
X714006D01*
X712168Y261739D01*
X710761Y260332D01*
X710000Y258495D01*
Y256506D01*
X710761Y254668D01*
X712168Y253261D01*
X714006Y252500D01*
X715995D01*
X717832Y253261D01*
X719239Y254668D01*
X720000Y256506D01*
Y258495D01*
X719239Y260332D01*
X717832Y261739D01*
X715995Y262500D01*
D02*
G37*
G36*
X685995D02*
X684006D01*
X682168Y261739D01*
X680761Y260332D01*
X680000Y258495D01*
Y256506D01*
X680761Y254668D01*
X682168Y253261D01*
X684006Y252500D01*
X685995D01*
X687832Y253261D01*
X689239Y254668D01*
X690000Y256506D01*
Y258495D01*
X689239Y260332D01*
X687832Y261739D01*
X685995Y262500D01*
D02*
G37*
G36*
X625995D02*
X624006D01*
X622168Y261739D01*
X620761Y260332D01*
X620000Y258495D01*
Y256506D01*
X620761Y254668D01*
X622168Y253261D01*
X624006Y252500D01*
X625995D01*
X627832Y253261D01*
X629239Y254668D01*
X630000Y256506D01*
Y258495D01*
X629239Y260332D01*
X627832Y261739D01*
X625995Y262500D01*
D02*
G37*
G36*
X605995Y262500D02*
X604005D01*
X602168Y261739D01*
X600761Y260332D01*
X600000Y258495D01*
Y256505D01*
X600761Y254668D01*
X602168Y253261D01*
X604005Y252500D01*
X605995D01*
X607832Y253261D01*
X609239Y254668D01*
X610000Y256505D01*
Y258495D01*
X609239Y260332D01*
X607832Y261739D01*
X605995Y262500D01*
D02*
G37*
G36*
X470995Y260000D02*
X469005D01*
X467168Y259239D01*
X465761Y257832D01*
X465000Y255995D01*
Y254005D01*
X465761Y252168D01*
X467168Y250761D01*
X469005Y250000D01*
X470995D01*
X472832Y250761D01*
X474239Y252168D01*
X475000Y254005D01*
Y255995D01*
X474239Y257832D01*
X472832Y259239D01*
X470995Y260000D01*
D02*
G37*
G36*
Y245000D02*
X469005D01*
X467168Y244239D01*
X465761Y242832D01*
X465000Y240995D01*
Y239005D01*
X465761Y237168D01*
X467168Y235761D01*
X469005Y235000D01*
X470995D01*
X472832Y235761D01*
X474239Y237168D01*
X475000Y239005D01*
Y240995D01*
X474239Y242832D01*
X472832Y244239D01*
X470995Y245000D01*
D02*
G37*
G36*
X625995Y242500D02*
X624005D01*
X622168Y241739D01*
X620761Y240332D01*
X620000Y238495D01*
Y236505D01*
X620761Y234668D01*
X622168Y233261D01*
X624005Y232500D01*
X625995D01*
X627832Y233261D01*
X629239Y234668D01*
X630000Y236505D01*
Y238495D01*
X629239Y240332D01*
X627832Y241739D01*
X625995Y242500D01*
D02*
G37*
G36*
X700995Y232500D02*
X699006D01*
X697168Y231739D01*
X695761Y230332D01*
X695000Y228495D01*
Y226506D01*
X695761Y224668D01*
X697168Y223261D01*
X699006Y222500D01*
X700995D01*
X702832Y223261D01*
X704239Y224668D01*
X705000Y226506D01*
Y228495D01*
X704239Y230332D01*
X702832Y231739D01*
X700995Y232500D01*
D02*
G37*
G36*
X673495Y222500D02*
X671505D01*
X669668Y221739D01*
X668261Y220332D01*
X667500Y218495D01*
Y216505D01*
X668261Y214668D01*
X669668Y213261D01*
X671505Y212500D01*
X673495D01*
X675332Y213261D01*
X676739Y214668D01*
X677500Y216505D01*
Y218495D01*
X676739Y220332D01*
X675332Y221739D01*
X673495Y222500D01*
D02*
G37*
G36*
X600995D02*
X599005D01*
X597168Y221739D01*
X595761Y220332D01*
X595000Y218495D01*
Y216505D01*
X595761Y214668D01*
X597168Y213261D01*
X599005Y212500D01*
X600995D01*
X602832Y213261D01*
X604239Y214668D01*
X605000Y216505D01*
Y218495D01*
X604239Y220332D01*
X602832Y221739D01*
X600995Y222500D01*
D02*
G37*
G36*
X468495Y215000D02*
X466505D01*
X464668Y214239D01*
X463261Y212832D01*
X462500Y210995D01*
Y209005D01*
X463261Y207168D01*
X464668Y205761D01*
X466505Y205000D01*
X468495D01*
X470332Y205761D01*
X471739Y207168D01*
X472500Y209005D01*
Y210995D01*
X471739Y212832D01*
X470332Y214239D01*
X468495Y215000D01*
D02*
G37*
G36*
X775000Y262598D02*
X773049Y262210D01*
X771395Y261105D01*
X770290Y259451D01*
X769902Y257500D01*
X770290Y255549D01*
X771395Y253895D01*
X773049Y252790D01*
X775000Y252402D01*
X776951Y252790D01*
X778605Y253895D01*
X779710Y255549D01*
X780098Y257500D01*
X779710Y259451D01*
X778605Y261105D01*
X776951Y262210D01*
X775000Y262598D01*
D02*
G37*
G36*
X820000Y232598D02*
X818049Y232210D01*
X816395Y231105D01*
X815290Y229451D01*
X814902Y227500D01*
X815290Y225549D01*
X816395Y223895D01*
X818049Y222790D01*
X820000Y222402D01*
X821951Y222790D01*
X823605Y223895D01*
X824710Y225549D01*
X825098Y227500D01*
X824710Y229451D01*
X823605Y231105D01*
X821951Y232210D01*
X820000Y232598D01*
D02*
G37*
G36*
X790000D02*
X788049Y232210D01*
X786395Y231105D01*
X785290Y229451D01*
X784902Y227500D01*
X785290Y225549D01*
X786395Y223895D01*
X788049Y222790D01*
X790000Y222402D01*
X791951Y222790D01*
X793605Y223895D01*
X794710Y225549D01*
X795098Y227500D01*
X794710Y229451D01*
X793605Y231105D01*
X791951Y232210D01*
X790000Y232598D01*
D02*
G37*
G36*
X805000Y202598D02*
X803049Y202210D01*
X801395Y201105D01*
X800290Y199451D01*
X799902Y197500D01*
X800290Y195549D01*
X801395Y193895D01*
X803049Y192790D01*
X805000Y192402D01*
X806951Y192790D01*
X808605Y193895D01*
X809710Y195549D01*
X810098Y197500D01*
X809710Y199451D01*
X808605Y201105D01*
X806951Y202210D01*
X805000Y202598D01*
D02*
G37*
G36*
X775000D02*
X773049Y202210D01*
X771395Y201105D01*
X770290Y199451D01*
X769902Y197500D01*
X770290Y195549D01*
X771395Y193895D01*
X773049Y192790D01*
X775000Y192402D01*
X776951Y192790D01*
X778605Y193895D01*
X779710Y195549D01*
X780098Y197500D01*
X779710Y199451D01*
X778605Y201105D01*
X776951Y202210D01*
X775000Y202598D01*
D02*
G37*
G36*
X934000Y185105D02*
X926000D01*
X924032Y184846D01*
X922197Y184086D01*
X920622Y182878D01*
X919414Y181303D01*
X918654Y179468D01*
X918395Y177500D01*
X918654Y175532D01*
X919414Y173697D01*
X920622Y172122D01*
X922197Y170914D01*
X924032Y170154D01*
X926000Y169895D01*
X934000D01*
X935968Y170154D01*
X937803Y170914D01*
X939378Y172122D01*
X940586Y173697D01*
X941346Y175532D01*
X941605Y177500D01*
X941346Y179468D01*
X940586Y181303D01*
X939378Y182878D01*
X937803Y184086D01*
X935968Y184846D01*
X934000Y185105D01*
D02*
G37*
G36*
X560000Y177598D02*
X558049Y177210D01*
X556395Y176105D01*
X555290Y174451D01*
X554902Y172500D01*
X555290Y170549D01*
X556395Y168895D01*
X558049Y167790D01*
X560000Y167402D01*
X561951Y167790D01*
X563605Y168895D01*
X564710Y170549D01*
X565098Y172500D01*
X564710Y174451D01*
X563605Y176105D01*
X561951Y177210D01*
X560000Y177598D01*
D02*
G37*
G36*
X880000Y172598D02*
X878049Y172210D01*
X876395Y171105D01*
X875290Y169451D01*
X874902Y167500D01*
X875290Y165549D01*
X876395Y163895D01*
X878049Y162790D01*
X880000Y162402D01*
X881951Y162790D01*
X883605Y163895D01*
X884710Y165549D01*
X885098Y167500D01*
X884710Y169451D01*
X883605Y171105D01*
X881951Y172210D01*
X880000Y172598D01*
D02*
G37*
G36*
X730000D02*
X728049Y172210D01*
X726395Y171105D01*
X725290Y169451D01*
X724902Y167500D01*
X725290Y165549D01*
X726395Y163895D01*
X728049Y162790D01*
X730000Y162402D01*
X731951Y162790D01*
X733605Y163895D01*
X734710Y165549D01*
X735098Y167500D01*
X734710Y169451D01*
X733605Y171105D01*
X731951Y172210D01*
X730000Y172598D01*
D02*
G37*
G36*
X700000D02*
X698049Y172210D01*
X696395Y171105D01*
X695290Y169451D01*
X694902Y167500D01*
X695290Y165549D01*
X696395Y163895D01*
X698049Y162790D01*
X700000Y162402D01*
X701951Y162790D01*
X703605Y163895D01*
X704710Y165549D01*
X705098Y167500D01*
X704710Y169451D01*
X703605Y171105D01*
X701951Y172210D01*
X700000Y172598D01*
D02*
G37*
G36*
X670000D02*
X668049Y172210D01*
X666395Y171105D01*
X665290Y169451D01*
X664902Y167500D01*
X665290Y165549D01*
X666395Y163895D01*
X668049Y162790D01*
X670000Y162402D01*
X671951Y162790D01*
X673605Y163895D01*
X674710Y165549D01*
X675098Y167500D01*
X674710Y169451D01*
X673605Y171105D01*
X671951Y172210D01*
X670000Y172598D01*
D02*
G37*
G36*
X640000D02*
X638049Y172210D01*
X636395Y171105D01*
X635290Y169451D01*
X634902Y167500D01*
X635290Y165549D01*
X636395Y163895D01*
X638049Y162790D01*
X640000Y162402D01*
X641951Y162790D01*
X643605Y163895D01*
X644710Y165549D01*
X645098Y167500D01*
X644710Y169451D01*
X643605Y171105D01*
X641951Y172210D01*
X640000Y172598D01*
D02*
G37*
G36*
X610000D02*
X608049Y172210D01*
X606395Y171105D01*
X605290Y169451D01*
X604902Y167500D01*
X605290Y165549D01*
X606395Y163895D01*
X608049Y162790D01*
X610000Y162402D01*
X611951Y162790D01*
X613605Y163895D01*
X614710Y165549D01*
X615098Y167500D01*
X614710Y169451D01*
X613605Y171105D01*
X611951Y172210D01*
X610000Y172598D01*
D02*
G37*
G36*
X976000Y185105D02*
X964000D01*
X962032Y184846D01*
X960197Y184086D01*
X958622Y182878D01*
X957414Y181303D01*
X956654Y179468D01*
X956395Y177500D01*
X956654Y175532D01*
X957414Y173697D01*
X958622Y172122D01*
X960197Y170914D01*
X962032Y170154D01*
X964000Y169895D01*
X964476D01*
X965180Y168895D01*
X964902Y167500D01*
X965290Y165549D01*
X966395Y163895D01*
X968049Y162790D01*
X970000Y162402D01*
X971951Y162790D01*
X973605Y163895D01*
X974710Y165549D01*
X975098Y167500D01*
X974820Y168895D01*
X975524Y169895D01*
X976000D01*
X977968Y170154D01*
X979802Y170914D01*
X981378Y172122D01*
X982586Y173697D01*
X983346Y175532D01*
X983605Y177500D01*
X983346Y179468D01*
X982586Y181303D01*
X981378Y182878D01*
X979802Y184086D01*
X977968Y184846D01*
X976000Y185105D01*
D02*
G37*
G36*
X912500Y172598D02*
X910549Y172210D01*
X908895Y171105D01*
X907790Y169451D01*
X907402Y167500D01*
X907790Y165549D01*
X908895Y163895D01*
X910549Y162790D01*
X912500Y162402D01*
X914451Y162790D01*
X916105Y163895D01*
X917210Y165549D01*
X917598Y167500D01*
X917210Y169451D01*
X916105Y171105D01*
X914451Y172210D01*
X912500Y172598D01*
D02*
G37*
G36*
X867500Y160098D02*
X865549Y159710D01*
X863895Y158605D01*
X862790Y156951D01*
X862402Y155000D01*
X862790Y153049D01*
X863895Y151395D01*
X865549Y150290D01*
X867500Y149902D01*
X869451Y150290D01*
X871105Y151395D01*
X872210Y153049D01*
X872598Y155000D01*
X872210Y156951D01*
X871105Y158605D01*
X869451Y159710D01*
X867500Y160098D01*
D02*
G37*
G36*
X802500Y150098D02*
X800549Y149710D01*
X798895Y148605D01*
X797790Y146951D01*
X797402Y145000D01*
X797790Y143049D01*
X798895Y141395D01*
X800549Y140290D01*
X802500Y139902D01*
X804451Y140290D01*
X806105Y141395D01*
X807210Y143049D01*
X807598Y145000D01*
X807210Y146951D01*
X806105Y148605D01*
X804451Y149710D01*
X802500Y150098D01*
D02*
G37*
G36*
X985000Y142598D02*
X983049Y142210D01*
X981395Y141105D01*
X980290Y139451D01*
X979902Y137500D01*
X980290Y135549D01*
X981395Y133895D01*
X983049Y132790D01*
X985000Y132402D01*
X986951Y132790D01*
X988605Y133895D01*
X989710Y135549D01*
X990098Y137500D01*
X989710Y139451D01*
X988605Y141105D01*
X986951Y142210D01*
X985000Y142598D01*
D02*
G37*
G36*
X715000D02*
X713049Y142210D01*
X711395Y141105D01*
X710290Y139451D01*
X709902Y137500D01*
X710290Y135549D01*
X711395Y133895D01*
X713049Y132790D01*
X715000Y132402D01*
X716951Y132790D01*
X718605Y133895D01*
X719710Y135549D01*
X720098Y137500D01*
X719710Y139451D01*
X718605Y141105D01*
X716951Y142210D01*
X715000Y142598D01*
D02*
G37*
G36*
X685000D02*
X683049Y142210D01*
X681395Y141105D01*
X680290Y139451D01*
X679902Y137500D01*
X680290Y135549D01*
X681395Y133895D01*
X683049Y132790D01*
X685000Y132402D01*
X686951Y132790D01*
X688605Y133895D01*
X689710Y135549D01*
X690098Y137500D01*
X689710Y139451D01*
X688605Y141105D01*
X686951Y142210D01*
X685000Y142598D01*
D02*
G37*
G36*
X655000D02*
X653049Y142210D01*
X651395Y141105D01*
X650290Y139451D01*
X649902Y137500D01*
X650290Y135549D01*
X651395Y133895D01*
X653049Y132790D01*
X655000Y132402D01*
X656951Y132790D01*
X658605Y133895D01*
X659710Y135549D01*
X660098Y137500D01*
X659710Y139451D01*
X658605Y141105D01*
X656951Y142210D01*
X655000Y142598D01*
D02*
G37*
G36*
X625000D02*
X623049Y142210D01*
X621395Y141105D01*
X620290Y139451D01*
X619902Y137500D01*
X620290Y135549D01*
X621395Y133895D01*
X623049Y132790D01*
X625000Y132402D01*
X626951Y132790D01*
X628605Y133895D01*
X629710Y135549D01*
X630098Y137500D01*
X629710Y139451D01*
X628605Y141105D01*
X626951Y142210D01*
X625000Y142598D01*
D02*
G37*
G36*
X752500Y140098D02*
X750549Y139710D01*
X748895Y138605D01*
X747790Y136951D01*
X747402Y135000D01*
X747790Y133049D01*
X748895Y131395D01*
X750549Y130290D01*
X752500Y129902D01*
X754451Y130290D01*
X756105Y131395D01*
X757210Y133049D01*
X757598Y135000D01*
X757210Y136951D01*
X756105Y138605D01*
X754451Y139710D01*
X752500Y140098D01*
D02*
G37*
G36*
X867500Y127598D02*
X865549Y127210D01*
X863895Y126105D01*
X862790Y124451D01*
X862402Y122500D01*
X862790Y120549D01*
X863895Y118895D01*
X865549Y117790D01*
X867500Y117402D01*
X869451Y117790D01*
X871105Y118895D01*
X872210Y120549D01*
X872598Y122500D01*
X872210Y124451D01*
X871105Y126105D01*
X869451Y127210D01*
X867500Y127598D01*
D02*
G37*
G36*
X695000Y120098D02*
X693049Y119710D01*
X691395Y118605D01*
X690290Y116951D01*
X689902Y115000D01*
X690290Y113049D01*
X691395Y111395D01*
X693049Y110290D01*
X695000Y109902D01*
X696951Y110290D01*
X698605Y111395D01*
X699710Y113049D01*
X700098Y115000D01*
X699710Y116951D01*
X698605Y118605D01*
X696951Y119710D01*
X695000Y120098D01*
D02*
G37*
G36*
X670000Y112598D02*
X668049Y112210D01*
X666395Y111105D01*
X665290Y109451D01*
X664902Y107500D01*
X665290Y105549D01*
X665770Y104831D01*
X665049Y104110D01*
X664451Y104510D01*
X662500Y104898D01*
X660549Y104510D01*
X658895Y103405D01*
X657790Y101751D01*
X657402Y99800D01*
X657790Y97849D01*
X658895Y96195D01*
X660549Y95090D01*
X662500Y94702D01*
X664451Y95090D01*
X666105Y96195D01*
X667210Y97849D01*
X667598Y99800D01*
X667210Y101751D01*
X666730Y102469D01*
X667451Y103190D01*
X668049Y102790D01*
X670000Y102402D01*
X671951Y102790D01*
X673605Y103895D01*
X674710Y105549D01*
X675098Y107500D01*
X674710Y109451D01*
X673605Y111105D01*
X671951Y112210D01*
X670000Y112598D01*
D02*
G37*
G36*
X910000D02*
X908049Y112210D01*
X906395Y111105D01*
X905290Y109451D01*
X904902Y107500D01*
X905290Y105549D01*
X906395Y103895D01*
X908049Y102790D01*
X910000Y102402D01*
X911951Y102790D01*
X913605Y103895D01*
X914710Y105549D01*
X915098Y107500D01*
X914710Y109451D01*
X913605Y111105D01*
X911951Y112210D01*
X910000Y112598D01*
D02*
G37*
G36*
X880000D02*
X878049Y112210D01*
X876395Y111105D01*
X875290Y109451D01*
X874902Y107500D01*
X875290Y105549D01*
X876395Y103895D01*
X878049Y102790D01*
X880000Y102402D01*
X881951Y102790D01*
X883605Y103895D01*
X884710Y105549D01*
X885098Y107500D01*
X884710Y109451D01*
X883605Y111105D01*
X881951Y112210D01*
X880000Y112598D01*
D02*
G37*
G36*
X850000D02*
X848049Y112210D01*
X846395Y111105D01*
X845290Y109451D01*
X844902Y107500D01*
X845290Y105549D01*
X846395Y103895D01*
X848049Y102790D01*
X850000Y102402D01*
X851951Y102790D01*
X853605Y103895D01*
X854710Y105549D01*
X855098Y107500D01*
X854710Y109451D01*
X853605Y111105D01*
X851951Y112210D01*
X850000Y112598D01*
D02*
G37*
G36*
X820000D02*
X818049Y112210D01*
X816395Y111105D01*
X815290Y109451D01*
X814902Y107500D01*
X815290Y105549D01*
X816395Y103895D01*
X818049Y102790D01*
X820000Y102402D01*
X821951Y102790D01*
X823605Y103895D01*
X824710Y105549D01*
X825098Y107500D01*
X824710Y109451D01*
X823605Y111105D01*
X821951Y112210D01*
X820000Y112598D01*
D02*
G37*
G36*
X790000D02*
X788049Y112210D01*
X786395Y111105D01*
X785290Y109451D01*
X784902Y107500D01*
X785290Y105549D01*
X786395Y103895D01*
X788049Y102790D01*
X790000Y102402D01*
X791951Y102790D01*
X793605Y103895D01*
X794710Y105549D01*
X795098Y107500D01*
X794710Y109451D01*
X793605Y111105D01*
X791951Y112210D01*
X790000Y112598D01*
D02*
G37*
G36*
X640000D02*
X638049Y112210D01*
X636395Y111105D01*
X635290Y109451D01*
X634902Y107500D01*
X635290Y105549D01*
X636395Y103895D01*
X638049Y102790D01*
X640000Y102402D01*
X641951Y102790D01*
X643605Y103895D01*
X644710Y105549D01*
X645098Y107500D01*
X644710Y109451D01*
X643605Y111105D01*
X641951Y112210D01*
X640000Y112598D01*
D02*
G37*
G36*
X610000D02*
X608049Y112210D01*
X606395Y111105D01*
X605290Y109451D01*
X604902Y107500D01*
X605290Y105549D01*
X606395Y103895D01*
X608049Y102790D01*
X610000Y102402D01*
X611951Y102790D01*
X613605Y103895D01*
X614710Y105549D01*
X615098Y107500D01*
X614710Y109451D01*
X613605Y111105D01*
X611951Y112210D01*
X610000Y112598D01*
D02*
G37*
G36*
X550000D02*
X548049Y112210D01*
X546395Y111105D01*
X545290Y109451D01*
X544902Y107500D01*
X545290Y105549D01*
X546395Y103895D01*
X548049Y102790D01*
X550000Y102402D01*
X551951Y102790D01*
X553605Y103895D01*
X554710Y105549D01*
X555098Y107500D01*
X554710Y109451D01*
X553605Y111105D01*
X551951Y112210D01*
X550000Y112598D01*
D02*
G37*
G36*
X938941Y107559D02*
X936990Y107171D01*
X935337Y106066D01*
X934231Y104412D01*
X933843Y102461D01*
X934231Y100511D01*
X934837Y99604D01*
X934258Y98671D01*
X934000Y98705D01*
X926000D01*
X924032Y98446D01*
X922197Y97686D01*
X920622Y96478D01*
X919414Y94903D01*
X918654Y93068D01*
X918395Y91100D01*
X918654Y89132D01*
X919414Y87297D01*
X920622Y85722D01*
X922197Y84514D01*
X924032Y83754D01*
X926000Y83495D01*
X934000D01*
X935968Y83754D01*
X937803Y84514D01*
X939378Y85722D01*
X940586Y87297D01*
X941346Y89132D01*
X941605Y91100D01*
X941346Y93068D01*
X940586Y94903D01*
X939378Y96478D01*
X939676Y97509D01*
X940892Y97752D01*
X942546Y98857D01*
X943651Y100511D01*
X944039Y102461D01*
X943651Y104412D01*
X942546Y106066D01*
X940892Y107171D01*
X938941Y107559D01*
D02*
G37*
G36*
X702000Y105148D02*
X699838Y104719D01*
X698006Y103494D01*
X696781Y101662D01*
X696351Y99500D01*
X696512Y98696D01*
X695804Y97989D01*
X695000Y98148D01*
X694196Y97989D01*
X693489Y98696D01*
X693649Y99500D01*
X693219Y101662D01*
X691994Y103494D01*
X690162Y104719D01*
X688000Y105148D01*
X685838Y104719D01*
X684006Y103494D01*
X682782Y101662D01*
X682352Y99500D01*
X682512Y98696D01*
X681804Y97989D01*
X681000Y98148D01*
X678838Y97718D01*
X677006Y96494D01*
X675781Y94662D01*
X675351Y92500D01*
X675781Y90338D01*
X677006Y88506D01*
X678838Y87281D01*
X681000Y86852D01*
X681804Y87011D01*
X682512Y86304D01*
X682352Y85500D01*
X682512Y84696D01*
X681804Y83989D01*
X681000Y84149D01*
X678838Y83719D01*
X677006Y82494D01*
X675781Y80662D01*
X675351Y78500D01*
X675781Y76338D01*
X677006Y74506D01*
X678838Y73281D01*
X681000Y72852D01*
X681804Y73011D01*
X682512Y72304D01*
X682352Y71500D01*
X682782Y69338D01*
X684006Y67506D01*
X685838Y66281D01*
X688000Y65851D01*
X690162Y66281D01*
X691994Y67506D01*
X693219Y69338D01*
X693649Y71500D01*
X693489Y72304D01*
X694196Y73011D01*
X695000Y72852D01*
X695804Y73011D01*
X696512Y72304D01*
X696351Y71500D01*
X696781Y69338D01*
X698006Y67506D01*
X699838Y66281D01*
X702000Y65851D01*
X704162Y66281D01*
X705994Y67506D01*
X707219Y69338D01*
X707648Y71500D01*
X707489Y72304D01*
X708196Y73011D01*
X709000Y72852D01*
X711162Y73281D01*
X712994Y74506D01*
X714219Y76338D01*
X714649Y78500D01*
X714219Y80662D01*
X712994Y82494D01*
X711162Y83719D01*
X709000Y84149D01*
X708196Y83989D01*
X707489Y84696D01*
X707648Y85500D01*
X707489Y86304D01*
X708196Y87011D01*
X709000Y86852D01*
X711162Y87281D01*
X712994Y88506D01*
X714219Y90338D01*
X714649Y92500D01*
X714219Y94662D01*
X712994Y96494D01*
X711162Y97718D01*
X709000Y98148D01*
X708196Y97989D01*
X707489Y98696D01*
X707648Y99500D01*
X707219Y101662D01*
X705994Y103494D01*
X704162Y104719D01*
X702000Y105148D01*
D02*
G37*
G36*
X730000Y112598D02*
X728049Y112210D01*
X726395Y111105D01*
X725290Y109451D01*
X724902Y107500D01*
X725132Y106343D01*
X725011Y105457D01*
X724406Y105257D01*
X723049Y104987D01*
X721395Y103882D01*
X720290Y102228D01*
X719902Y100277D01*
X720290Y98326D01*
X721395Y96672D01*
X723049Y95567D01*
X725000Y95179D01*
X726951Y95567D01*
X728605Y96672D01*
X729710Y98326D01*
X730098Y100277D01*
X729868Y101434D01*
X729989Y102320D01*
X730594Y102520D01*
X731951Y102790D01*
X733605Y103895D01*
X734710Y105549D01*
X735098Y107500D01*
X734710Y109451D01*
X733605Y111105D01*
X731951Y112210D01*
X730000Y112598D01*
D02*
G37*
G36*
X970000Y107598D02*
X968049Y107210D01*
X966395Y106105D01*
X965290Y104451D01*
X964902Y102500D01*
X965290Y100549D01*
X965854Y99705D01*
X965320Y98705D01*
X964000D01*
X962032Y98446D01*
X960197Y97686D01*
X958622Y96478D01*
X957414Y94903D01*
X956654Y93068D01*
X956395Y91100D01*
X956654Y89132D01*
X957414Y87297D01*
X958622Y85722D01*
X960197Y84514D01*
X962032Y83754D01*
X964000Y83495D01*
X976000D01*
X977968Y83754D01*
X979802Y84514D01*
X981378Y85722D01*
X982586Y87297D01*
X983346Y89132D01*
X983605Y91100D01*
X983346Y93068D01*
X982586Y94903D01*
X981378Y96478D01*
X979802Y97686D01*
X977968Y98446D01*
X976000Y98705D01*
X974680D01*
X974146Y99705D01*
X974710Y100549D01*
X975098Y102500D01*
X974710Y104451D01*
X973605Y106105D01*
X971951Y107210D01*
X970000Y107598D01*
D02*
G37*
G36*
X662500Y90416D02*
X660549Y90028D01*
X658895Y88923D01*
X657790Y87269D01*
X657402Y85318D01*
X657790Y83367D01*
X658412Y82437D01*
X657691Y81715D01*
X656951Y82210D01*
X655000Y82598D01*
X653049Y82210D01*
X651395Y81105D01*
X650290Y79451D01*
X649902Y77500D01*
X650290Y75549D01*
X651395Y73895D01*
X653049Y72790D01*
X655000Y72402D01*
X656708Y72742D01*
X657358Y72287D01*
X657582Y72009D01*
X657402Y71103D01*
X657790Y69152D01*
X658895Y67498D01*
X660549Y66393D01*
X662500Y66005D01*
X664451Y66393D01*
X666105Y67498D01*
X667210Y69152D01*
X667598Y71103D01*
X667210Y73054D01*
X666105Y74708D01*
X664451Y75813D01*
X662500Y76201D01*
X660792Y75861D01*
X660142Y76316D01*
X659918Y76594D01*
X660098Y77500D01*
X659710Y79451D01*
X659088Y80382D01*
X659809Y81103D01*
X660549Y80608D01*
X662500Y80220D01*
X664451Y80608D01*
X666105Y81713D01*
X667210Y83367D01*
X667598Y85318D01*
X667210Y87269D01*
X666105Y88923D01*
X664451Y90028D01*
X662500Y90416D01*
D02*
G37*
G36*
X725000Y90216D02*
X723049Y89828D01*
X721395Y88723D01*
X720290Y87069D01*
X719902Y85118D01*
X720290Y83167D01*
X721395Y81513D01*
X723049Y80408D01*
X725000Y80020D01*
X726951Y80408D01*
X728605Y81513D01*
X729710Y83167D01*
X730098Y85118D01*
X729710Y87069D01*
X728605Y88723D01*
X726951Y89828D01*
X725000Y90216D01*
D02*
G37*
G36*
X985000Y82598D02*
X983049Y82210D01*
X981395Y81105D01*
X980290Y79451D01*
X979902Y77500D01*
X980290Y75549D01*
X981395Y73895D01*
X983049Y72790D01*
X985000Y72402D01*
X986951Y72790D01*
X988605Y73895D01*
X989710Y75549D01*
X990098Y77500D01*
X989710Y79451D01*
X988605Y81105D01*
X986951Y82210D01*
X985000Y82598D01*
D02*
G37*
G36*
X895000D02*
X893049Y82210D01*
X891395Y81105D01*
X890290Y79451D01*
X889902Y77500D01*
X890290Y75549D01*
X891395Y73895D01*
X893049Y72790D01*
X895000Y72402D01*
X896951Y72790D01*
X898605Y73895D01*
X899710Y75549D01*
X900098Y77500D01*
X899710Y79451D01*
X898605Y81105D01*
X896951Y82210D01*
X895000Y82598D01*
D02*
G37*
G36*
X745000D02*
X743049Y82210D01*
X741395Y81105D01*
X740290Y79451D01*
X739902Y77500D01*
X740290Y75549D01*
X741395Y73895D01*
X743049Y72790D01*
X745000Y72402D01*
X746951Y72790D01*
X748605Y73895D01*
X749710Y75549D01*
X750098Y77500D01*
X749710Y79451D01*
X748605Y81105D01*
X746951Y82210D01*
X745000Y82598D01*
D02*
G37*
G36*
X625000D02*
X623049Y82210D01*
X621395Y81105D01*
X620290Y79451D01*
X619902Y77500D01*
X620290Y75549D01*
X621395Y73895D01*
X623049Y72790D01*
X625000Y72402D01*
X626951Y72790D01*
X628605Y73895D01*
X629710Y75549D01*
X630098Y77500D01*
X629710Y79451D01*
X628605Y81105D01*
X626951Y82210D01*
X625000Y82598D01*
D02*
G37*
G36*
X557500Y77598D02*
X555549Y77210D01*
X553895Y76105D01*
X552790Y74451D01*
X552402Y72500D01*
X552790Y70549D01*
X553895Y68895D01*
X555549Y67790D01*
X557500Y67402D01*
X559451Y67790D01*
X561105Y68895D01*
X562210Y70549D01*
X562598Y72500D01*
X562210Y74451D01*
X561105Y76105D01*
X559451Y77210D01*
X557500Y77598D01*
D02*
G37*
G36*
X725000Y76468D02*
X723049Y76080D01*
X721395Y74975D01*
X720290Y73321D01*
X719902Y71370D01*
X720290Y69419D01*
X721395Y67765D01*
X723049Y66660D01*
X725000Y66272D01*
X726951Y66660D01*
X728605Y67765D01*
X729710Y69419D01*
X730098Y71370D01*
X729710Y73321D01*
X728605Y74975D01*
X726951Y76080D01*
X725000Y76468D01*
D02*
G37*
G36*
X695000Y57598D02*
X693049Y57210D01*
X691395Y56105D01*
X690290Y54451D01*
X689902Y52500D01*
X690290Y50549D01*
X691395Y48895D01*
X693049Y47790D01*
X695000Y47402D01*
X696951Y47790D01*
X698605Y48895D01*
X699710Y50549D01*
X700098Y52500D01*
X699710Y54451D01*
X698605Y56105D01*
X696951Y57210D01*
X695000Y57598D01*
D02*
G37*
G36*
X910000Y52598D02*
X908049Y52210D01*
X906395Y51105D01*
X905290Y49451D01*
X904902Y47500D01*
X905290Y45549D01*
X906395Y43895D01*
X908049Y42790D01*
X910000Y42402D01*
X911951Y42790D01*
X913605Y43895D01*
X914710Y45549D01*
X915098Y47500D01*
X914710Y49451D01*
X913605Y51105D01*
X911951Y52210D01*
X910000Y52598D01*
D02*
G37*
G36*
X880000D02*
X878049Y52210D01*
X876395Y51105D01*
X875290Y49451D01*
X874902Y47500D01*
X875290Y45549D01*
X876395Y43895D01*
X878049Y42790D01*
X880000Y42402D01*
X881951Y42790D01*
X883605Y43895D01*
X884710Y45549D01*
X885098Y47500D01*
X884710Y49451D01*
X883605Y51105D01*
X881951Y52210D01*
X880000Y52598D01*
D02*
G37*
G36*
X730000D02*
X728049Y52210D01*
X726395Y51105D01*
X725290Y49451D01*
X724902Y47500D01*
X725290Y45549D01*
X726395Y43895D01*
X728049Y42790D01*
X730000Y42402D01*
X731951Y42790D01*
X733605Y43895D01*
X734710Y45549D01*
X735098Y47500D01*
X734710Y49451D01*
X733605Y51105D01*
X731951Y52210D01*
X730000Y52598D01*
D02*
G37*
G36*
X670000D02*
X668049Y52210D01*
X666395Y51105D01*
X665290Y49451D01*
X664902Y47500D01*
X665290Y45549D01*
X666395Y43895D01*
X668049Y42790D01*
X670000Y42402D01*
X671951Y42790D01*
X673605Y43895D01*
X674710Y45549D01*
X675098Y47500D01*
X674710Y49451D01*
X673605Y51105D01*
X671951Y52210D01*
X670000Y52598D01*
D02*
G37*
G36*
X640000D02*
X638049Y52210D01*
X636395Y51105D01*
X635290Y49451D01*
X634902Y47500D01*
X635290Y45549D01*
X636395Y43895D01*
X638049Y42790D01*
X640000Y42402D01*
X641951Y42790D01*
X643605Y43895D01*
X644710Y45549D01*
X645098Y47500D01*
X644710Y49451D01*
X643605Y51105D01*
X641951Y52210D01*
X640000Y52598D01*
D02*
G37*
G36*
X610000D02*
X608049Y52210D01*
X606395Y51105D01*
X605290Y49451D01*
X604902Y47500D01*
X605290Y45549D01*
X606395Y43895D01*
X608049Y42790D01*
X610000Y42402D01*
X611951Y42790D01*
X613605Y43895D01*
X614710Y45549D01*
X615098Y47500D01*
X614710Y49451D01*
X613605Y51105D01*
X611951Y52210D01*
X610000Y52598D01*
D02*
G37*
G36*
X867500Y52598D02*
X865549Y52210D01*
X863895Y51105D01*
X862790Y49451D01*
X862402Y47500D01*
X862790Y45549D01*
X863895Y43895D01*
X865549Y42790D01*
X867500Y42402D01*
X869451Y42790D01*
X871105Y43895D01*
X872210Y45549D01*
X872598Y47500D01*
X872210Y49451D01*
X871105Y51105D01*
X869451Y52210D01*
X867500Y52598D01*
D02*
G37*
G36*
X950000Y82641D02*
X944894Y82239D01*
X939913Y81043D01*
X935182Y79083D01*
X930814Y76407D01*
X926920Y73080D01*
X923593Y69186D01*
X920917Y64819D01*
X918957Y60086D01*
X917761Y55106D01*
X917359Y50000D01*
X917761Y44894D01*
X918957Y39913D01*
X920917Y35182D01*
X923593Y30814D01*
X926920Y26920D01*
X930814Y23593D01*
X935182Y20917D01*
X939913Y18957D01*
X944894Y17761D01*
X950000Y17359D01*
X955106Y17761D01*
X960087Y18957D01*
X964818Y20917D01*
X969186Y23593D01*
X973080Y26920D01*
X976407Y30814D01*
X979083Y35182D01*
X981043Y39913D01*
X982239Y44894D01*
X982641Y50000D01*
X982239Y55106D01*
X981043Y60086D01*
X979083Y64819D01*
X976407Y69186D01*
X973080Y73080D01*
X969186Y76407D01*
X964818Y79083D01*
X960087Y81043D01*
X955106Y82239D01*
X950000Y82641D01*
D02*
G37*
G36*
X835000Y17598D02*
X833049Y17210D01*
X831395Y16105D01*
X830290Y14451D01*
X829902Y12500D01*
X830290Y10549D01*
X831395Y8895D01*
X833049Y7790D01*
X835000Y7402D01*
X836951Y7790D01*
X838605Y8895D01*
X839710Y10549D01*
X840098Y12500D01*
X839710Y14451D01*
X838605Y16105D01*
X836951Y17210D01*
X835000Y17598D01*
D02*
G37*
G36*
X575000D02*
X573049Y17210D01*
X571395Y16105D01*
X570290Y14451D01*
X569902Y12500D01*
X570290Y10549D01*
X571395Y8895D01*
X573049Y7790D01*
X575000Y7402D01*
X576951Y7790D01*
X578605Y8895D01*
X579710Y10549D01*
X580098Y12500D01*
X579710Y14451D01*
X578605Y16105D01*
X576951Y17210D01*
X575000Y17598D01*
D02*
G37*
%LPD*%
D44*
X312500Y215000D02*
X313558Y213942D01*
D46*
X395000Y337500D02*
X402500Y345000D01*
X395000Y337500D02*
X395000D01*
X382500Y330000D02*
X390000D01*
X315000D02*
X382500D01*
Y294000D02*
Y330000D01*
X313558Y213942D02*
X370457D01*
D49*
X330000Y462500D02*
D03*
X135400Y430000D02*
D03*
X489200Y37500D02*
D03*
X514600D02*
D03*
X135400Y70000D02*
D03*
Y110000D02*
D03*
Y150000D02*
D03*
Y190000D02*
D03*
Y230000D02*
D03*
Y270000D02*
D03*
Y310000D02*
D03*
Y350000D02*
D03*
Y390000D02*
D03*
D50*
X355400Y462500D02*
D03*
X540000Y37500D02*
D03*
X110000Y110000D02*
D03*
Y150000D02*
D03*
Y190000D02*
D03*
Y230000D02*
D03*
Y270000D02*
D03*
Y310000D02*
D03*
Y350000D02*
D03*
Y70000D02*
D03*
Y430000D02*
D03*
Y390000D02*
D03*
D51*
X681000Y78500D02*
D03*
X688000Y85500D02*
D03*
Y71500D02*
D03*
X695000Y78500D02*
D03*
X702000Y71500D02*
D03*
X709000Y78500D02*
D03*
X702000Y85500D02*
D03*
X709000Y92500D02*
D03*
X702000Y99500D02*
D03*
X695000Y92500D02*
D03*
X681000D02*
D03*
X688000Y99500D02*
D03*
D52*
X930500Y372500D02*
D03*
D53*
X970000Y177500D02*
D03*
Y91100D02*
D03*
D54*
X930000Y177500D02*
D03*
Y91100D02*
D03*
D55*
X540000Y460000D02*
D03*
D56*
X952500Y267000D02*
D03*
Y220000D02*
D03*
D57*
X930500Y392500D02*
D03*
D58*
X952500Y314000D02*
D03*
D59*
X950000Y50000D02*
D03*
X50000Y450000D02*
D03*
X950000D02*
D03*
X50000Y50000D02*
D03*
D60*
X970000Y407500D02*
D03*
X985000Y377500D02*
D03*
X970000Y347500D02*
D03*
X985000Y317500D02*
D03*
X970000Y287500D02*
D03*
X985000Y257500D02*
D03*
Y197500D02*
D03*
Y137500D02*
D03*
Y77500D02*
D03*
X940000Y407500D02*
D03*
Y347500D02*
D03*
Y287500D02*
D03*
X910000Y467500D02*
D03*
Y347500D02*
D03*
X925000Y317500D02*
D03*
X910000Y287500D02*
D03*
X925000Y257500D02*
D03*
Y197500D02*
D03*
X910000Y107500D02*
D03*
Y47500D02*
D03*
X880000Y467500D02*
D03*
X895000Y437500D02*
D03*
Y317500D02*
D03*
Y257500D02*
D03*
X880000Y167500D02*
D03*
Y107500D02*
D03*
X895000Y77500D02*
D03*
X880000Y47500D02*
D03*
X850000Y467500D02*
D03*
X865000Y437500D02*
D03*
X850000Y227500D02*
D03*
X865000Y197500D02*
D03*
X850000Y107500D02*
D03*
X820000Y467500D02*
D03*
X835000Y437500D02*
D03*
X820000Y227500D02*
D03*
X835000Y197500D02*
D03*
X820000Y107500D02*
D03*
X790000Y467500D02*
D03*
X805000Y437500D02*
D03*
X790000Y407500D02*
D03*
X805000Y317500D02*
D03*
X790000Y227500D02*
D03*
X805000Y197500D02*
D03*
X790000Y107500D02*
D03*
X760000Y467500D02*
D03*
X775000Y437500D02*
D03*
Y377500D02*
D03*
Y317500D02*
D03*
Y257500D02*
D03*
Y197500D02*
D03*
X730000Y467500D02*
D03*
X745000Y437500D02*
D03*
Y317500D02*
D03*
X730000Y287500D02*
D03*
Y227500D02*
D03*
Y167500D02*
D03*
Y107500D02*
D03*
X745000Y77500D02*
D03*
X730000Y47500D02*
D03*
X715000Y317500D02*
D03*
X700000Y287500D02*
D03*
X715000Y257500D02*
D03*
X700000Y227500D02*
D03*
Y167500D02*
D03*
X715000Y137500D02*
D03*
X670000Y287500D02*
D03*
X685000Y257500D02*
D03*
X670000Y167500D02*
D03*
X685000Y137500D02*
D03*
X670000Y107500D02*
D03*
Y47500D02*
D03*
X640000Y287500D02*
D03*
Y167500D02*
D03*
X655000Y137500D02*
D03*
X640000Y107500D02*
D03*
X655000Y77500D02*
D03*
X640000Y47500D02*
D03*
X625000Y437500D02*
D03*
X610000Y407500D02*
D03*
X625000Y377500D02*
D03*
Y257500D02*
D03*
X610000Y167500D02*
D03*
X625000Y137500D02*
D03*
X610000Y107500D02*
D03*
X625000Y77500D02*
D03*
X610000Y47500D02*
D03*
X595000Y437500D02*
D03*
X580000Y407500D02*
D03*
X595000Y377500D02*
D03*
Y197500D02*
D03*
X565000Y437500D02*
D03*
Y377500D02*
D03*
Y317500D02*
D03*
Y197500D02*
D03*
X550000Y107500D02*
D03*
X520000Y467500D02*
D03*
Y407500D02*
D03*
Y347500D02*
D03*
X535000Y197500D02*
D03*
X520000Y167500D02*
D03*
Y107500D02*
D03*
X490000Y467500D02*
D03*
X505000Y437500D02*
D03*
X490000Y407500D02*
D03*
X505000Y377500D02*
D03*
X490000Y347500D02*
D03*
X505000Y137500D02*
D03*
Y77500D02*
D03*
X460000Y467500D02*
D03*
X475000Y437500D02*
D03*
X460000Y407500D02*
D03*
X475000Y377500D02*
D03*
Y197500D02*
D03*
Y77500D02*
D03*
X460000Y47500D02*
D03*
X430000Y467500D02*
D03*
X445000Y437500D02*
D03*
Y317500D02*
D03*
Y77500D02*
D03*
X430000Y47500D02*
D03*
X400000Y467500D02*
D03*
X415000Y437500D02*
D03*
X400000Y407500D02*
D03*
X415000Y77500D02*
D03*
X400000Y47500D02*
D03*
X370000Y227500D02*
D03*
X385000Y77500D02*
D03*
X370000Y47500D02*
D03*
X355000Y437500D02*
D03*
X340000Y407500D02*
D03*
X355000Y257500D02*
D03*
X340000Y107500D02*
D03*
X355000Y77500D02*
D03*
X340000Y47500D02*
D03*
X325000Y77500D02*
D03*
X310000Y47500D02*
D03*
X295000Y437500D02*
D03*
X280000Y227500D02*
D03*
X295000Y77500D02*
D03*
X280000Y47500D02*
D03*
X190000Y467500D02*
D03*
Y407500D02*
D03*
Y287500D02*
D03*
Y227500D02*
D03*
X205000Y197500D02*
D03*
X190000Y107500D02*
D03*
X160000Y467500D02*
D03*
X175000Y377500D02*
D03*
Y317500D02*
D03*
X160000Y287500D02*
D03*
X175000Y197500D02*
D03*
X160000Y107500D02*
D03*
X130000Y467500D02*
D03*
Y407500D02*
D03*
Y287500D02*
D03*
X100000Y467500D02*
D03*
Y407500D02*
D03*
Y287500D02*
D03*
Y167500D02*
D03*
Y47500D02*
D03*
X70000Y407500D02*
D03*
X85000Y377500D02*
D03*
X70000Y347500D02*
D03*
X85000Y317500D02*
D03*
X70000Y287500D02*
D03*
X85000Y257500D02*
D03*
X70000Y227500D02*
D03*
X85000Y197500D02*
D03*
X70000Y167500D02*
D03*
X85000Y137500D02*
D03*
X70000Y107500D02*
D03*
X85000Y77500D02*
D03*
X40000Y407500D02*
D03*
X55000Y377500D02*
D03*
X40000Y347500D02*
D03*
X55000Y317500D02*
D03*
X40000Y287500D02*
D03*
X55000Y257500D02*
D03*
X40000Y227500D02*
D03*
X55000Y197500D02*
D03*
X40000Y167500D02*
D03*
X55000Y137500D02*
D03*
X40000Y107500D02*
D03*
X337500Y317500D02*
D03*
X262500Y75000D02*
D03*
X560000Y172500D02*
D03*
X600000Y217500D02*
D03*
X252500Y242500D02*
D03*
Y257500D02*
D03*
X662500Y397500D02*
D03*
X682500Y376750D02*
D03*
Y387500D02*
D03*
Y398250D02*
D03*
Y413500D02*
D03*
X669500Y346500D02*
D03*
X752000Y380000D02*
D03*
X671000Y364000D02*
D03*
X682500Y365500D02*
D03*
X752000Y372000D02*
D03*
X520000Y395000D02*
D03*
X417500Y382500D02*
D03*
X580000Y350000D02*
D03*
X595000D02*
D03*
X395000Y337500D02*
D03*
X352500Y382500D02*
D03*
X385000Y177500D02*
D03*
X382500Y167500D02*
D03*
X345000Y145000D02*
D03*
X595000Y474776D02*
D03*
X580000D02*
D03*
X520000Y435000D02*
D03*
X432500D02*
D03*
X485000Y105000D02*
D03*
X472500D02*
D03*
X447500D02*
D03*
X422500D02*
D03*
X405000D02*
D03*
X385000Y435000D02*
D03*
X390000Y330000D02*
D03*
X367500Y435000D02*
D03*
X382500Y294000D02*
D03*
X370457Y213942D02*
D03*
X372500Y105000D02*
D03*
X875500Y406500D02*
D03*
X883500D02*
D03*
X817500D02*
D03*
X798500D02*
D03*
X867500D02*
D03*
X833500D02*
D03*
X873500Y313500D02*
D03*
X865500D02*
D03*
X881500D02*
D03*
X831500D02*
D03*
X796500D02*
D03*
X815500D02*
D03*
X865000Y220000D02*
D03*
X970000Y167500D02*
D03*
X912500D02*
D03*
X867500Y155000D02*
D03*
X802500Y145000D02*
D03*
X867500Y122500D02*
D03*
X970000Y102500D02*
D03*
X938941Y102461D02*
D03*
X867500Y47500D02*
D03*
X835000Y12500D02*
D03*
X725000Y100277D02*
D03*
X695000Y115000D02*
D03*
X725000Y85118D02*
D03*
X662500Y99800D02*
D03*
Y85318D02*
D03*
X725000Y71370D02*
D03*
X695000Y52500D02*
D03*
X662500Y71103D02*
D03*
X575000Y12500D02*
D03*
X435000Y330000D02*
D03*
X228294Y426979D02*
D03*
Y351979D02*
D03*
X425000Y330000D02*
D03*
X228294Y376979D02*
D03*
Y401979D02*
D03*
X507500Y317500D02*
D03*
X470000Y255000D02*
D03*
X390000Y282500D02*
D03*
X228294Y276979D02*
D03*
X227849Y326749D02*
D03*
X390000Y262500D02*
D03*
X228294Y251979D02*
D03*
X157416Y430458D02*
D03*
X208682Y312500D02*
D03*
X162500Y337500D02*
D03*
X467500Y210000D02*
D03*
X427500Y205000D02*
D03*
X390000Y242500D02*
D03*
Y224660D02*
D03*
X228294Y226979D02*
D03*
Y176979D02*
D03*
Y151979D02*
D03*
X557500Y72500D02*
D03*
X505000Y55000D02*
D03*
X330000Y135000D02*
D03*
X228294Y126979D02*
D03*
X208682Y212500D02*
D03*
X162393Y237379D02*
D03*
X160459Y143177D02*
D03*
X208682Y112500D02*
D03*
X209246Y95352D02*
D03*
X208682Y37500D02*
D03*
X161793Y55779D02*
D03*
X851500Y359500D02*
D03*
X850500Y406500D02*
D03*
X868500Y359500D02*
D03*
X884500D02*
D03*
X849500Y266500D02*
D03*
X848500Y313500D02*
D03*
X882500Y266500D02*
D03*
X866500D02*
D03*
X755000Y305000D02*
D03*
X722500Y365000D02*
D03*
X580000Y315000D02*
D03*
X452500Y297500D02*
D03*
X462500Y325000D02*
D03*
X550261Y291381D02*
D03*
X502110Y255588D02*
D03*
X512877Y209125D02*
D03*
X807500Y267500D02*
D03*
X817500D02*
D03*
X827500D02*
D03*
X868500Y67500D02*
D03*
X835000Y32500D02*
D03*
X755000Y212500D02*
D03*
X565000Y152500D02*
D03*
X540000Y325000D02*
D03*
X507500Y302500D02*
D03*
X595000Y315000D02*
D03*
X262519Y411769D02*
D03*
X262500Y387500D02*
D03*
X752500Y135000D02*
D03*
X502500Y272500D02*
D03*
X470000Y240000D02*
D03*
X605000Y257500D02*
D03*
X625000Y237500D02*
D03*
X672500Y217500D02*
D03*
X814050Y359941D02*
D03*
X827500Y360000D02*
D03*
X800000D02*
D03*
X255000Y55000D02*
D03*
X262500Y302500D02*
D03*
X432500Y285000D02*
D03*
Y245000D02*
D03*
X262500Y237500D02*
D03*
X432500Y272500D02*
D03*
Y260000D02*
D03*
X262500Y197500D02*
D03*
Y222500D02*
D03*
Y277500D02*
D03*
Y327500D02*
D03*
X202500Y62500D02*
D03*
X367500Y295000D02*
D03*
X262500Y137500D02*
D03*
Y172500D02*
D03*
Y262500D02*
D03*
Y362500D02*
D03*
X262561Y88179D02*
D03*
X262500Y112500D02*
D03*
%TF.MD5,af0e19bab0bbcb18005457a639ac8f48*%
M02*
