%TF.GenerationSoftware,Altium Limited,Altium Designer,26.3.0 (6)*%
G04 Layer_Color=128*
%FSLAX44Y44*%
%MOMM*%
%TF.SameCoordinates,5B09BF5B-3F6B-42AE-A125-B0E28617C609*%
%TF.FilePolarity,Positive*%
%TF.FileFunction,Paste,Bot*%
%TF.Part,Single*%
G01*
G75*
%TA.AperFunction,SMDPad,CuDef*%
%ADD14R,0.9000X0.8000*%
%ADD16R,1.5562X1.5534*%
%ADD42R,0.7500X0.9000*%
%ADD61R,0.8300X0.6300*%
D14*
X404000Y282500D02*
D03*
Y262500D02*
D03*
Y222500D02*
D03*
Y242500D02*
D03*
X421000Y282500D02*
D03*
Y222500D02*
D03*
Y262500D02*
D03*
Y242500D02*
D03*
D16*
X900000Y373246D02*
D03*
Y391754D02*
D03*
D42*
X221500Y437500D02*
D03*
Y412500D02*
D03*
Y362500D02*
D03*
Y387500D02*
D03*
Y337500D02*
D03*
Y287500D02*
D03*
Y312500D02*
D03*
Y262500D02*
D03*
Y237500D02*
D03*
Y212500D02*
D03*
Y187500D02*
D03*
Y162500D02*
D03*
Y137500D02*
D03*
Y95000D02*
D03*
Y112500D02*
D03*
Y77500D02*
D03*
Y37500D02*
D03*
X233500D02*
D03*
Y337500D02*
D03*
Y212500D02*
D03*
Y412500D02*
D03*
Y162500D02*
D03*
Y187500D02*
D03*
Y237500D02*
D03*
Y312500D02*
D03*
Y362500D02*
D03*
Y112500D02*
D03*
Y137500D02*
D03*
Y287500D02*
D03*
Y387500D02*
D03*
Y437500D02*
D03*
Y77500D02*
D03*
Y95000D02*
D03*
Y262500D02*
D03*
D61*
X872500Y372700D02*
D03*
Y395000D02*
D03*
%TF.MD5,b315df6821e9a97d2dd1a3da7f176a45*%
M02*
