%TF.GenerationSoftware,Altium Limited,Altium Designer,26.3.0 (6)*%
G04 Layer_Color=8388736*
%FSLAX44Y44*%
%MOMM*%
%TF.SameCoordinates,5B09BF5B-3F6B-42AE-A125-B0E28617C609*%
%TF.FilePolarity,Negative*%
%TF.FileFunction,Soldermask,Top*%
%TF.Part,Single*%
G01*
G75*
%TA.AperFunction,SMDPad,CuDef*%
%ADD10R,1.0637X1.0621*%
%ADD11R,1.4082X1.2057*%
G04:AMPARAMS|DCode=12|XSize=0.5mm|YSize=0.25mm|CornerRadius=0.05mm|HoleSize=0mm|Usage=FLASHONLY|Rotation=180.000|XOffset=0mm|YOffset=0mm|HoleType=Round|Shape=RoundedRectangle|*
%AMROUNDEDRECTD12*
21,1,0.5000,0.1500,0,0,180.0*
21,1,0.4000,0.2500,0,0,180.0*
1,1,0.1000,-0.2000,0.0750*
1,1,0.1000,0.2000,0.0750*
1,1,0.1000,0.2000,-0.0750*
1,1,0.1000,-0.2000,-0.0750*
%
%ADD12ROUNDEDRECTD12*%
G04:AMPARAMS|DCode=13|XSize=1mm|YSize=2.65mm|CornerRadius=0.05mm|HoleSize=0mm|Usage=FLASHONLY|Rotation=180.000|XOffset=0mm|YOffset=0mm|HoleType=Round|Shape=RoundedRectangle|*
%AMROUNDEDRECTD13*
21,1,1.0000,2.5500,0,0,180.0*
21,1,0.9000,2.6500,0,0,180.0*
1,1,0.1000,-0.4500,1.2750*
1,1,0.1000,0.4500,1.2750*
1,1,0.1000,0.4500,-1.2750*
1,1,0.1000,-0.4500,-1.2750*
%
%ADD13ROUNDEDRECTD13*%
%ADD14R,0.9000X0.8000*%
%ADD15R,0.8637X0.9621*%
%ADD16R,1.5562X1.5534*%
%ADD17R,1.0587X1.0121*%
%ADD18R,0.9000X0.7500*%
%ADD19R,1.2057X1.4082*%
%ADD21R,0.8000X0.9000*%
%ADD25R,0.9000X0.8000*%
%ADD26R,1.9042X1.4534*%
%ADD27R,0.7000X1.3000*%
G04:AMPARAMS|DCode=28|XSize=1.1mm|YSize=0.6mm|CornerRadius=0.051mm|HoleSize=0mm|Usage=FLASHONLY|Rotation=180.000|XOffset=0mm|YOffset=0mm|HoleType=Round|Shape=RoundedRectangle|*
%AMROUNDEDRECTD28*
21,1,1.1000,0.4980,0,0,180.0*
21,1,0.9980,0.6000,0,0,180.0*
1,1,0.1020,-0.4990,0.2490*
1,1,0.1020,0.4990,0.2490*
1,1,0.1020,0.4990,-0.2490*
1,1,0.1020,-0.4990,-0.2490*
%
%ADD28ROUNDEDRECTD28*%
%ADD29R,1.3000X0.7000*%
%ADD30R,1.5534X1.5562*%
%ADD31R,1.1500X0.6000*%
%ADD32R,0.4800X0.4000*%
%ADD33R,1.2700X1.7800*%
%ADD34R,0.7000X0.7000*%
%ADD39R,1.1500X0.3000*%
%ADD41R,0.8000X0.9000*%
%ADD42R,0.7500X0.9000*%
%ADD43R,0.7000X0.9500*%
%TA.AperFunction,ComponentPad*%
G04:AMPARAMS|DCode=53|XSize=1mm|YSize=2.2mm|CornerRadius=0.5mm|HoleSize=0mm|Usage=FLASHONLY|Rotation=90.000|XOffset=0mm|YOffset=0mm|HoleType=Round|Shape=RoundedRectangle|*
%AMROUNDEDRECTD53*
21,1,1.0000,1.2000,0,0,90.0*
21,1,0.0000,2.2000,0,0,90.0*
1,1,1.0000,0.6000,0.0000*
1,1,1.0000,0.6000,0.0000*
1,1,1.0000,-0.6000,0.0000*
1,1,1.0000,-0.6000,0.0000*
%
%ADD53ROUNDEDRECTD53*%
G04:AMPARAMS|DCode=54|XSize=1mm|YSize=1.8mm|CornerRadius=0.5mm|HoleSize=0mm|Usage=FLASHONLY|Rotation=90.000|XOffset=0mm|YOffset=0mm|HoleType=Round|Shape=RoundedRectangle|*
%AMROUNDEDRECTD54*
21,1,1.0000,0.8000,0,0,90.0*
21,1,0.0000,1.8000,0,0,90.0*
1,1,1.0000,0.4000,0.0000*
1,1,1.0000,0.4000,0.0000*
1,1,1.0000,-0.4000,0.0000*
1,1,1.0000,-0.4000,0.0000*
%
%ADD54ROUNDEDRECTD54*%
%ADD56C,2.8000*%
%ADD58R,2.8000X2.8000*%
%TA.AperFunction,TestPad*%
%ADD67C,2.2352*%
%TA.AperFunction,SMDPad,CuDef*%
G04:AMPARAMS|DCode=68|XSize=0.4mm|YSize=1.75mm|CornerRadius=0.0995mm|HoleSize=0mm|Usage=FLASHONLY|Rotation=0.000|XOffset=0mm|YOffset=0mm|HoleType=Round|Shape=RoundedRectangle|*
%AMROUNDEDRECTD68*
21,1,0.4000,1.5510,0,0,0.0*
21,1,0.2010,1.7500,0,0,0.0*
1,1,0.1990,0.1005,-0.7755*
1,1,0.1990,-0.1005,-0.7755*
1,1,0.1990,-0.1005,0.7755*
1,1,0.1990,0.1005,0.7755*
%
%ADD68ROUNDEDRECTD68*%
%ADD69R,0.9500X1.0000*%
%ADD70R,1.0000X0.9500*%
%TA.AperFunction,ConnectorPad*%
%ADD71R,1.6000X1.0000*%
%TA.AperFunction,BGAPad,CuDef*%
%ADD72R,1.0000X1.0000*%
%TA.AperFunction,SMDPad,CuDef*%
G04:AMPARAMS|DCode=73|XSize=0.4mm|YSize=1.75mm|CornerRadius=0.0995mm|HoleSize=0mm|Usage=FLASHONLY|Rotation=90.000|XOffset=0mm|YOffset=0mm|HoleType=Round|Shape=RoundedRectangle|*
%AMROUNDEDRECTD73*
21,1,0.4000,1.5510,0,0,90.0*
21,1,0.2010,1.7500,0,0,90.0*
1,1,0.1990,0.7755,0.1005*
1,1,0.1990,0.7755,-0.1005*
1,1,0.1990,-0.7755,-0.1005*
1,1,0.1990,-0.7755,0.1005*
%
%ADD73ROUNDEDRECTD73*%
%ADD74R,1.0000X0.5000*%
%TA.AperFunction,ConnectorPad*%
%ADD75R,1.0000X1.6000*%
%TA.AperFunction,ComponentPad*%
%ADD76C,1.6500*%
%ADD77R,1.6500X1.6500*%
%ADD78R,1.3000X1.3000*%
%ADD79C,1.6000*%
%ADD80C,1.3000*%
%TA.AperFunction,WasherPad*%
%ADD81C,6.2000*%
D10*
X220000Y462500D02*
D03*
X236588D02*
D03*
X236588Y37500D02*
D03*
Y337500D02*
D03*
Y212500D02*
D03*
Y412500D02*
D03*
Y162500D02*
D03*
Y187500D02*
D03*
Y237500D02*
D03*
Y312500D02*
D03*
Y362500D02*
D03*
Y112500D02*
D03*
Y137500D02*
D03*
Y287500D02*
D03*
Y387500D02*
D03*
Y437500D02*
D03*
X236580Y62500D02*
D03*
X236588Y87500D02*
D03*
Y262500D02*
D03*
X220000Y37500D02*
D03*
Y287500D02*
D03*
Y262500D02*
D03*
Y337500D02*
D03*
Y312500D02*
D03*
X219992Y62500D02*
D03*
X220000Y412500D02*
D03*
Y87500D02*
D03*
Y237500D02*
D03*
Y212500D02*
D03*
Y112500D02*
D03*
Y137500D02*
D03*
Y162500D02*
D03*
Y187500D02*
D03*
Y362500D02*
D03*
Y387500D02*
D03*
Y437500D02*
D03*
D11*
X652500Y362762D02*
D03*
Y346238D02*
D03*
D12*
X673000Y400000D02*
D03*
X692000D02*
D03*
X673000Y375000D02*
D03*
Y380000D02*
D03*
Y385000D02*
D03*
Y390000D02*
D03*
Y395000D02*
D03*
X692000D02*
D03*
Y385000D02*
D03*
Y380000D02*
D03*
Y375000D02*
D03*
Y390000D02*
D03*
D13*
X682500Y387500D02*
D03*
D14*
X652000Y453500D02*
D03*
X669000D02*
D03*
X699000Y351500D02*
D03*
X682000D02*
D03*
X879000Y155000D02*
D03*
Y122500D02*
D03*
X857000Y67500D02*
D03*
X551000Y152500D02*
D03*
X840000Y67500D02*
D03*
X896000Y155000D02*
D03*
Y122500D02*
D03*
X534000Y152500D02*
D03*
D15*
X699794Y329500D02*
D03*
X685206D02*
D03*
D16*
X752500Y415754D02*
D03*
Y397246D02*
D03*
X722500Y378246D02*
D03*
Y396754D02*
D03*
D17*
X651966Y432500D02*
D03*
X669500D02*
D03*
D18*
X644500Y397500D02*
D03*
Y385500D02*
D03*
D19*
X710025Y432500D02*
D03*
X693500D02*
D03*
D21*
X417500Y352500D02*
D03*
X352500Y367500D02*
D03*
X345000Y155000D02*
D03*
X432500Y352500D02*
D03*
X367500Y367500D02*
D03*
X372500Y137500D02*
D03*
X855000Y47500D02*
D03*
X330000Y155000D02*
D03*
X357500Y137500D02*
D03*
X840000Y47500D02*
D03*
D25*
X472500Y140000D02*
D03*
X422500Y140000D02*
D03*
X385000Y365000D02*
D03*
X879500Y388000D02*
D03*
X492500Y317500D02*
D03*
X879500Y373000D02*
D03*
X385000Y350000D02*
D03*
X472500Y155000D02*
D03*
X422500Y155000D02*
D03*
X492500Y302500D02*
D03*
D26*
X447500Y122493D02*
D03*
Y150000D02*
D03*
D27*
X405000Y137500D02*
D03*
X385000D02*
D03*
D28*
X853000Y383500D02*
D03*
X827000Y393000D02*
D03*
X851000Y290500D02*
D03*
X825000Y300000D02*
D03*
X853000Y393000D02*
D03*
Y374000D02*
D03*
X851000Y300000D02*
D03*
Y281000D02*
D03*
X825000D02*
D03*
X827000Y374000D02*
D03*
D29*
X807000Y393500D02*
D03*
X877500Y300500D02*
D03*
X805000Y300000D02*
D03*
X817500Y12500D02*
D03*
X877500Y280500D02*
D03*
X805000Y280000D02*
D03*
X817500Y32500D02*
D03*
X807000Y373500D02*
D03*
D30*
X883993Y220000D02*
D03*
X902500D02*
D03*
D31*
X924250Y166300D02*
D03*
Y102300D02*
D03*
Y158300D02*
D03*
Y110300D02*
D03*
D32*
X885900Y195000D02*
D03*
X899100D02*
D03*
D33*
X802300Y126550D02*
D03*
X557700Y88450D02*
D03*
X532300Y126550D02*
D03*
X557700D02*
D03*
X532300Y88450D02*
D03*
X827700D02*
D03*
X802300D02*
D03*
X827700Y126550D02*
D03*
D34*
X795000Y13000D02*
D03*
Y27000D02*
D03*
D39*
X924250Y116800D02*
D03*
Y121800D02*
D03*
Y126800D02*
D03*
Y131800D02*
D03*
Y136800D02*
D03*
Y141800D02*
D03*
Y146800D02*
D03*
Y151800D02*
D03*
D41*
X500000Y226000D02*
D03*
Y209000D02*
D03*
X487500Y239000D02*
D03*
Y256000D02*
D03*
X537500Y274000D02*
D03*
Y291000D02*
D03*
X452500Y349000D02*
D03*
Y366000D02*
D03*
D42*
X324000Y367500D02*
D03*
X336000D02*
D03*
D43*
X325750Y350000D02*
D03*
X339250D02*
D03*
D53*
X970000Y177500D02*
D03*
Y91100D02*
D03*
D54*
X930000Y177500D02*
D03*
Y91100D02*
D03*
D56*
X952500Y267000D02*
D03*
Y220000D02*
D03*
D58*
Y314000D02*
D03*
D67*
X540000Y395000D02*
D03*
Y425000D02*
D03*
X755000Y262500D02*
D03*
Y235000D02*
D03*
X540000Y362500D02*
D03*
D68*
X407500Y308250D02*
D03*
X397500D02*
D03*
X382500D02*
D03*
Y191750D02*
D03*
X367500D02*
D03*
X377500D02*
D03*
X432500D02*
D03*
X412500Y308250D02*
D03*
X392500D02*
D03*
X387500D02*
D03*
X377500D02*
D03*
X387500Y191750D02*
D03*
X397500D02*
D03*
X372500D02*
D03*
X432500Y308250D02*
D03*
X422500D02*
D03*
X427500Y191750D02*
D03*
X362500D02*
D03*
X392500D02*
D03*
X402500D02*
D03*
X407500D02*
D03*
X412500D02*
D03*
X417500D02*
D03*
X422500D02*
D03*
X427500Y308250D02*
D03*
X417500D02*
D03*
X402500D02*
D03*
X372500D02*
D03*
X367500D02*
D03*
X362500D02*
D03*
X357500D02*
D03*
Y191750D02*
D03*
D69*
X354000Y350000D02*
D03*
X343500Y172500D02*
D03*
X366000Y350000D02*
D03*
X401000Y155000D02*
D03*
X371000D02*
D03*
X331500Y172500D02*
D03*
X359000Y155000D02*
D03*
X389000D02*
D03*
D70*
X402500Y361000D02*
D03*
X475000Y313500D02*
D03*
X402500Y349000D02*
D03*
X475000Y301500D02*
D03*
D71*
X767500Y8300D02*
D03*
X592500D02*
D03*
Y21000D02*
D03*
Y33700D02*
D03*
Y46400D02*
D03*
Y59100D02*
D03*
Y71800D02*
D03*
Y84500D02*
D03*
Y97200D02*
D03*
Y109900D02*
D03*
Y122600D02*
D03*
Y135300D02*
D03*
Y148000D02*
D03*
Y160700D02*
D03*
Y173400D02*
D03*
X767500Y148000D02*
D03*
Y135300D02*
D03*
Y122600D02*
D03*
Y109900D02*
D03*
Y97200D02*
D03*
Y84500D02*
D03*
Y71800D02*
D03*
Y59100D02*
D03*
Y46400D02*
D03*
Y33700D02*
D03*
Y173400D02*
D03*
Y160700D02*
D03*
Y21000D02*
D03*
D72*
X709000Y85500D02*
D03*
Y99500D02*
D03*
X695000D02*
D03*
Y85500D02*
D03*
X681000Y99500D02*
D03*
Y85500D02*
D03*
X709000Y71500D02*
D03*
X695000D02*
D03*
X681000D02*
D03*
D73*
X453250Y252500D02*
D03*
Y212500D02*
D03*
Y222500D02*
D03*
Y237500D02*
D03*
Y217500D02*
D03*
Y227500D02*
D03*
Y262500D02*
D03*
Y282500D02*
D03*
Y242500D02*
D03*
Y247500D02*
D03*
X336750Y212500D02*
D03*
Y282500D02*
D03*
Y277500D02*
D03*
Y272500D02*
D03*
Y267500D02*
D03*
Y262500D02*
D03*
Y257500D02*
D03*
Y252500D02*
D03*
Y247500D02*
D03*
Y242500D02*
D03*
Y237500D02*
D03*
Y232500D02*
D03*
Y227500D02*
D03*
Y222500D02*
D03*
Y217500D02*
D03*
X453250Y232500D02*
D03*
Y257500D02*
D03*
Y267500D02*
D03*
Y272500D02*
D03*
Y277500D02*
D03*
Y287500D02*
D03*
X336750D02*
D03*
D74*
X171500Y431000D02*
D03*
Y343500D02*
D03*
Y243500D02*
D03*
Y143500D02*
D03*
Y56000D02*
D03*
X193500Y62500D02*
D03*
Y56000D02*
D03*
X171500Y256500D02*
D03*
Y250000D02*
D03*
X193500Y350000D02*
D03*
Y343500D02*
D03*
Y156500D02*
D03*
Y256500D02*
D03*
Y444000D02*
D03*
Y356500D02*
D03*
Y69000D02*
D03*
X171500Y437500D02*
D03*
X193500D02*
D03*
X171500Y444000D02*
D03*
X193500Y431000D02*
D03*
Y250000D02*
D03*
Y243500D02*
D03*
X171500Y62500D02*
D03*
Y69000D02*
D03*
Y150000D02*
D03*
X193500Y143500D02*
D03*
X171500Y350000D02*
D03*
Y356500D02*
D03*
Y156500D02*
D03*
X193500Y150000D02*
D03*
D75*
X610150Y185900D02*
D03*
X622850D02*
D03*
X635550D02*
D03*
X660950D02*
D03*
X673650D02*
D03*
X686350D02*
D03*
X699050D02*
D03*
X711750D02*
D03*
X724450D02*
D03*
X737150D02*
D03*
X749850D02*
D03*
X648250D02*
D03*
D76*
X330000Y462500D02*
D03*
X135400Y430000D02*
D03*
X489200Y37500D02*
D03*
X514600D02*
D03*
X135400Y70000D02*
D03*
Y110000D02*
D03*
Y150000D02*
D03*
Y190000D02*
D03*
Y230000D02*
D03*
Y270000D02*
D03*
Y310000D02*
D03*
Y350000D02*
D03*
Y390000D02*
D03*
D77*
X355400Y462500D02*
D03*
X540000Y37500D02*
D03*
X110000Y110000D02*
D03*
Y150000D02*
D03*
Y190000D02*
D03*
Y230000D02*
D03*
Y270000D02*
D03*
Y310000D02*
D03*
Y350000D02*
D03*
Y70000D02*
D03*
Y430000D02*
D03*
Y390000D02*
D03*
D78*
X930500Y372500D02*
D03*
D79*
X540000Y460000D02*
D03*
D80*
X930500Y392500D02*
D03*
D81*
X950000Y50000D02*
D03*
X50000Y450000D02*
D03*
X950000D02*
D03*
X50000Y50000D02*
D03*
%TF.MD5,3de773ea3ba70666d49cfb9c93867bf7*%
M02*
