%TF.GenerationSoftware,Altium Limited,Altium Designer,26.3.0 (6)*%
G04 Layer_Color=16711935*
%FSLAX44Y44*%
%MOMM*%
%TF.SameCoordinates,5B09BF5B-3F6B-42AE-A125-B0E28617C609*%
%TF.FilePolarity,Negative*%
%TF.FileFunction,Soldermask,Bot*%
%TF.Part,Single*%
G01*
G75*
%TA.AperFunction,SMDPad,CuDef*%
%ADD14R,0.9000X0.8000*%
%ADD16R,1.5562X1.5534*%
%ADD42R,0.7500X0.9000*%
%TA.AperFunction,ComponentPad*%
G04:AMPARAMS|DCode=53|XSize=1mm|YSize=2.2mm|CornerRadius=0.5mm|HoleSize=0mm|Usage=FLASHONLY|Rotation=90.000|XOffset=0mm|YOffset=0mm|HoleType=Round|Shape=RoundedRectangle|*
%AMROUNDEDRECTD53*
21,1,1.0000,1.2000,0,0,90.0*
21,1,0.0000,2.2000,0,0,90.0*
1,1,1.0000,0.6000,0.0000*
1,1,1.0000,0.6000,0.0000*
1,1,1.0000,-0.6000,0.0000*
1,1,1.0000,-0.6000,0.0000*
%
%ADD53ROUNDEDRECTD53*%
G04:AMPARAMS|DCode=54|XSize=1mm|YSize=1.8mm|CornerRadius=0.5mm|HoleSize=0mm|Usage=FLASHONLY|Rotation=90.000|XOffset=0mm|YOffset=0mm|HoleType=Round|Shape=RoundedRectangle|*
%AMROUNDEDRECTD54*
21,1,1.0000,0.8000,0,0,90.0*
21,1,0.0000,1.8000,0,0,90.0*
1,1,1.0000,0.4000,0.0000*
1,1,1.0000,0.4000,0.0000*
1,1,1.0000,-0.4000,0.0000*
1,1,1.0000,-0.4000,0.0000*
%
%ADD54ROUNDEDRECTD54*%
%ADD56C,2.8000*%
%ADD58R,2.8000X2.8000*%
%ADD76C,1.6500*%
%ADD77R,1.6500X1.6500*%
%ADD78R,1.3000X1.3000*%
%ADD79C,1.6000*%
%ADD80C,1.3000*%
%TA.AperFunction,WasherPad*%
%ADD81C,6.2000*%
%TA.AperFunction,SMDPad,CuDef*%
%ADD82R,0.9300X0.7300*%
D14*
X404000Y282500D02*
D03*
Y262500D02*
D03*
Y222500D02*
D03*
Y242500D02*
D03*
X421000Y282500D02*
D03*
Y222500D02*
D03*
Y262500D02*
D03*
Y242500D02*
D03*
D16*
X900000Y373246D02*
D03*
Y391754D02*
D03*
D42*
X221500Y437500D02*
D03*
Y412500D02*
D03*
Y362500D02*
D03*
Y387500D02*
D03*
Y337500D02*
D03*
Y287500D02*
D03*
Y312500D02*
D03*
Y262500D02*
D03*
Y237500D02*
D03*
Y212500D02*
D03*
Y187500D02*
D03*
Y162500D02*
D03*
Y137500D02*
D03*
Y95000D02*
D03*
Y112500D02*
D03*
Y77500D02*
D03*
Y37500D02*
D03*
X233500D02*
D03*
Y337500D02*
D03*
Y212500D02*
D03*
Y412500D02*
D03*
Y162500D02*
D03*
Y187500D02*
D03*
Y237500D02*
D03*
Y312500D02*
D03*
Y362500D02*
D03*
Y112500D02*
D03*
Y137500D02*
D03*
Y287500D02*
D03*
Y387500D02*
D03*
Y437500D02*
D03*
Y77500D02*
D03*
Y95000D02*
D03*
Y262500D02*
D03*
D53*
X970000Y177500D02*
D03*
Y91100D02*
D03*
D54*
X930000Y177500D02*
D03*
Y91100D02*
D03*
D56*
X952500Y267000D02*
D03*
Y220000D02*
D03*
D58*
Y314000D02*
D03*
D76*
X330000Y462500D02*
D03*
X135400Y430000D02*
D03*
X489200Y37500D02*
D03*
X514600D02*
D03*
X135400Y70000D02*
D03*
Y110000D02*
D03*
Y150000D02*
D03*
Y190000D02*
D03*
Y230000D02*
D03*
Y270000D02*
D03*
Y310000D02*
D03*
Y350000D02*
D03*
Y390000D02*
D03*
D77*
X355400Y462500D02*
D03*
X540000Y37500D02*
D03*
X110000Y110000D02*
D03*
Y150000D02*
D03*
Y190000D02*
D03*
Y230000D02*
D03*
Y270000D02*
D03*
Y310000D02*
D03*
Y350000D02*
D03*
Y70000D02*
D03*
Y430000D02*
D03*
Y390000D02*
D03*
D78*
X930500Y372500D02*
D03*
D79*
X540000Y460000D02*
D03*
D80*
X930500Y392500D02*
D03*
D81*
X950000Y50000D02*
D03*
X50000Y450000D02*
D03*
X950000D02*
D03*
X50000Y50000D02*
D03*
D82*
X872500Y372700D02*
D03*
Y395000D02*
D03*
%TF.MD5,5fee061c1ab034c44b55062cefd29f6f*%
M02*
