%TF.GenerationSoftware,Altium Limited,Altium Designer,26.3.0 (6)*%
G04 Layer_Color=65535*
%FSLAX44Y44*%
%MOMM*%
%TF.SameCoordinates,5B09BF5B-3F6B-42AE-A125-B0E28617C609*%
%TF.FilePolarity,Positive*%
%TF.FileFunction,Legend,Top*%
%TF.Part,Single*%
G01*
G75*
%TA.AperFunction,NonConductor*%
%ADD62C,0.2500*%
%ADD63C,0.2000*%
%ADD64C,0.6000*%
%ADD65C,0.1270*%
%ADD66C,0.2540*%
D62*
X701250Y375000D02*
G03*
X701250Y375000I-1250J0D01*
G01*
X908750Y195000D02*
G03*
X908750Y195000I-1250J0D01*
G01*
X914000Y102350D02*
G03*
X914000Y102350I-1250J0D01*
G01*
X532250Y141950D02*
G03*
X532250Y141950I-1250J0D01*
G01*
X830250Y73050D02*
G03*
X830250Y73050I-1250J0D01*
G01*
X913970Y372340D02*
G03*
X913970Y372340I-1250J0D01*
G01*
X953750Y334500D02*
G03*
X953750Y334500I-1250J0D01*
G01*
X338000Y294750D02*
G03*
X338000Y294750I-1250J0D01*
G01*
X863500Y281000D02*
G03*
X863500Y281000I-1250J0D01*
G01*
X865750Y374000D02*
G03*
X865750Y374000I-1250J0D01*
G01*
D63*
X783000Y8300D02*
G03*
X783000Y8300I-1000J0D01*
G01*
X552700Y460000D02*
G03*
X552700Y460000I-12700J0D01*
G01*
X159800Y444000D02*
G03*
X159800Y444000I-1000J0D01*
G01*
Y256500D02*
G03*
X159800Y256500I-1000J0D01*
G01*
Y69000D02*
G03*
X159800Y69000I-1000J0D01*
G01*
Y356500D02*
G03*
X159800Y356500I-1000J0D01*
G01*
Y156500D02*
G03*
X159800Y156500I-1000J0D01*
G01*
X315400Y449800D02*
X370000D01*
Y475200D01*
X315400D02*
X370000D01*
X315400Y449800D02*
Y475200D01*
X214681Y453189D02*
X241906D01*
X214681Y471811D02*
X241906D01*
X663541Y340209D02*
Y368791D01*
X641459Y340209D02*
Y368791D01*
X672000Y405000D02*
X693000D01*
X672000Y370000D02*
X693000D01*
X652000Y461500D02*
X669000D01*
X652053Y445427D02*
X669053D01*
X680888Y338311D02*
X704112D01*
X680888Y320689D02*
X704112D01*
X764281Y389479D02*
Y423521D01*
X740719Y389479D02*
Y423521D01*
X710719Y370479D02*
Y404521D01*
X734281Y370479D02*
Y404521D01*
X681947Y359573D02*
X698947D01*
X682000Y343500D02*
X699000D01*
X646672Y423439D02*
X674794D01*
X646672Y441561D02*
X674794D01*
X653030Y382803D02*
Y400303D01*
X636000Y382750D02*
Y400250D01*
X687471Y443541D02*
X716054D01*
X687471Y421459D02*
X716054D01*
X892050Y199500D02*
X892950D01*
X892050Y190500D02*
X892950D01*
X942750Y88600D02*
X955250D01*
X984750D02*
X992000D01*
Y180000D01*
X942750D02*
X955250D01*
X984750D02*
X992000D01*
X474600Y24800D02*
Y50200D01*
X554600D01*
Y24800D02*
Y50200D01*
X474600Y24800D02*
X554600D01*
X518500Y134000D02*
X522200D01*
X542400D02*
X547600D01*
X567800D02*
X571500D01*
Y81000D02*
Y134000D01*
X518500Y81000D02*
X522200D01*
X542400D02*
X547600D01*
X567800D02*
X571500D01*
X518500D02*
Y134000D01*
X837800Y81000D02*
X841500D01*
X812400D02*
X817600D01*
X788500D02*
X792200D01*
X788500D02*
Y134000D01*
X837800D02*
X841500D01*
X812400D02*
X817600D01*
X788500D02*
X792200D01*
X841500Y81000D02*
Y134000D01*
X839000Y56000D02*
X856000D01*
X839000Y39000D02*
X856000D01*
X840000Y59250D02*
X857000D01*
X840000Y75750D02*
X857000D01*
X802250Y10500D02*
Y29500D01*
X787750Y10500D02*
Y29500D01*
X824750Y19750D02*
Y25250D01*
X810250Y19750D02*
Y25250D01*
X508250Y209000D02*
Y226000D01*
X491750Y209000D02*
Y226000D01*
X479250Y239000D02*
Y256000D01*
X495750Y239000D02*
Y256000D01*
X917000Y402000D02*
Y412000D01*
X916997Y412002D02*
X992997D01*
X993000Y352999D02*
Y412000D01*
X917000Y352999D02*
Y363000D01*
Y352999D02*
X993000D01*
X985500Y203500D02*
Y330500D01*
X919500Y203500D02*
X934750D01*
X970250D02*
X985500D01*
X919500D02*
Y330500D01*
X934750D01*
X970250D02*
X985500D01*
X876226Y208219D02*
X910267D01*
X876226Y231781D02*
X910267D01*
X879000Y147000D02*
X896000D01*
X878947Y163073D02*
X895947D01*
X879000Y114500D02*
X896000D01*
X878947Y130573D02*
X895947D01*
X529250Y274000D02*
Y291000D01*
X545750Y274000D02*
Y291000D01*
X349000Y204000D02*
Y296000D01*
X441000Y204000D02*
Y296000D01*
X349000D02*
X441000D01*
X349000Y204000D02*
X441000D01*
X484000Y301500D02*
Y318500D01*
X501000Y301500D02*
Y318500D01*
X329000Y163500D02*
X346000D01*
X329000Y146500D02*
X346000D01*
X356500Y129000D02*
X373500D01*
X356500Y146000D02*
X373500D01*
X392250Y144750D02*
X397750D01*
X392250Y130250D02*
X397750D01*
X431000Y139000D02*
Y156000D01*
X414000Y139000D02*
Y156000D01*
X457021Y132760D02*
Y139733D01*
X437979Y132760D02*
Y139733D01*
X481000Y139000D02*
Y156000D01*
X464000Y139000D02*
Y156000D01*
X444250Y349000D02*
Y366000D01*
X460750Y349000D02*
Y366000D01*
X376500Y349000D02*
Y366000D01*
X393500Y349000D02*
Y366000D01*
X416500Y361000D02*
X433500D01*
X416500Y344000D02*
X433500D01*
X351500Y376000D02*
X368500D01*
X351500Y359000D02*
X368500D01*
X321250D02*
X338750D01*
X321197Y376030D02*
X338697D01*
X324500Y341500D02*
X340500D01*
X324500Y358500D02*
X340500D01*
X797750Y287250D02*
Y292750D01*
X812250Y287250D02*
Y292750D01*
X834250Y275250D02*
X841750D01*
X829250Y287750D02*
Y293250D01*
X834250Y305750D02*
X841750D01*
X870250Y287750D02*
Y293250D01*
X884750Y287750D02*
Y293250D01*
X799750Y380750D02*
Y386250D01*
X814250Y380750D02*
Y386250D01*
X836250Y368250D02*
X843750D01*
X831250Y380750D02*
Y386250D01*
X836250Y398750D02*
X843750D01*
X871000Y372000D02*
Y389000D01*
X888000Y372000D02*
Y389000D01*
X95400Y122700D02*
X150000D01*
X95400Y97300D02*
Y122700D01*
Y97300D02*
X150000D01*
Y122700D01*
X95400Y162700D02*
X150000D01*
X95400Y137300D02*
Y162700D01*
Y137300D02*
X150000D01*
Y162700D01*
X95400Y202700D02*
X150000D01*
X95400Y177300D02*
Y202700D01*
Y177300D02*
X150000D01*
Y202700D01*
X95400Y242700D02*
X150000D01*
X95400Y217300D02*
Y242700D01*
Y217300D02*
X150000D01*
Y242700D01*
X95400Y282700D02*
X150000D01*
X95400Y257300D02*
Y282700D01*
Y257300D02*
X150000D01*
Y282700D01*
X95400Y322700D02*
X150000D01*
X95400Y297300D02*
Y322700D01*
Y297300D02*
X150000D01*
Y322700D01*
X95400Y362700D02*
X150000D01*
X95400Y337300D02*
Y362700D01*
Y337300D02*
X150000D01*
Y362700D01*
X95400Y82700D02*
X150000D01*
X95400Y57300D02*
Y82700D01*
Y57300D02*
X150000D01*
Y82700D01*
X95400Y442700D02*
X150000D01*
X95400Y417300D02*
Y442700D01*
Y417300D02*
X150000D01*
Y442700D01*
X95400Y402700D02*
X150000D01*
X95400Y377300D02*
Y402700D01*
Y377300D02*
X150000D01*
Y402700D01*
X214681Y46811D02*
X241906D01*
X214681Y28189D02*
X241906D01*
X214681Y96811D02*
X241906D01*
X214681Y78189D02*
X241906D01*
X214681Y121811D02*
X241906D01*
X214681Y103189D02*
X241906D01*
X214681Y221811D02*
X241906D01*
X214681Y203189D02*
X241906D01*
X214681Y146811D02*
X241906D01*
X214681Y128189D02*
X241906D01*
X214681Y171811D02*
X241906D01*
X214681Y153189D02*
X241906D01*
X214681Y196811D02*
X241906D01*
X214681Y178189D02*
X241906D01*
X214681Y246811D02*
X241906D01*
X214681Y228189D02*
X241906D01*
X214681Y271811D02*
X241906D01*
X214681Y253189D02*
X241906D01*
X214681Y296811D02*
X241906D01*
X214681Y278189D02*
X241906D01*
X214681Y321811D02*
X241906D01*
X214681Y303189D02*
X241906D01*
X214681Y346811D02*
X241906D01*
X214681Y328189D02*
X241906D01*
X214681Y371811D02*
X241906D01*
X214681Y353189D02*
X241906D01*
X214681Y396811D02*
X241906D01*
X214681Y378189D02*
X241906D01*
X214681Y421811D02*
X241906D01*
X214681Y403189D02*
X241906D01*
X214674Y71811D02*
X241898D01*
X214674Y53189D02*
X241898D01*
X214681Y446811D02*
X241906D01*
X214681Y428189D02*
X241906D01*
X534000Y160750D02*
X551000D01*
X534000Y144250D02*
X551000D01*
X386165Y40331D02*
X384498Y41997D01*
X381166D01*
X379500Y40331D01*
Y33666D01*
X381166Y32000D01*
X384498D01*
X386165Y33666D01*
Y36998D01*
X382832D01*
X389497Y32000D02*
Y41997D01*
X396161Y32000D01*
Y41997D01*
X399494D02*
Y32000D01*
X404492D01*
X406158Y33666D01*
Y40331D01*
X404492Y41997D01*
X399494D01*
X409490Y36998D02*
X416155D01*
X419487Y32000D02*
Y41997D01*
X424486D01*
X426152Y40331D01*
Y36998D01*
X424486Y35332D01*
X419487D01*
X422819D02*
X426152Y32000D01*
X429484Y41997D02*
X436148Y32000D01*
Y41997D02*
X429484Y32000D01*
X439481Y36998D02*
X446145D01*
X449478Y41997D02*
X456142D01*
X452810D01*
Y32000D01*
X459474Y41997D02*
X466139Y32000D01*
Y41997D02*
X459474Y32000D01*
X377000Y466997D02*
Y457000D01*
X381998D01*
X383665Y458666D01*
Y460332D01*
X381998Y461998D01*
X377000D01*
X381998D01*
X383665Y463665D01*
Y465331D01*
X381998Y466997D01*
X377000D01*
X391995D02*
X388663D01*
X386997Y465331D01*
Y458666D01*
X388663Y457000D01*
X391995D01*
X393661Y458666D01*
Y465331D01*
X391995Y466997D01*
X396994D02*
Y458666D01*
X398660Y457000D01*
X401992D01*
X403658Y458666D01*
Y466997D01*
X406990D02*
X413655D01*
X410323D01*
Y457000D01*
X416987Y461998D02*
X423652D01*
X426984Y466997D02*
Y457000D01*
X431982D01*
X433648Y458666D01*
Y460332D01*
X431982Y461998D01*
X426984D01*
X431982D01*
X433648Y463665D01*
Y465331D01*
X431982Y466997D01*
X426984D01*
X436981D02*
X440313D01*
X438647D01*
Y457000D01*
X436981D01*
X440313D01*
X445311D02*
Y466997D01*
X451976Y457000D01*
Y466997D01*
X566165Y465331D02*
X564498Y466997D01*
X561166D01*
X559500Y465331D01*
Y458666D01*
X561166Y457000D01*
X564498D01*
X566165Y458666D01*
Y461998D01*
X562832D01*
X569497Y457000D02*
Y466997D01*
X576161Y457000D01*
Y466997D01*
X579494D02*
Y457000D01*
X584492D01*
X586158Y458666D01*
Y465331D01*
X584492Y466997D01*
X579494D01*
X774500Y237831D02*
X776166Y239497D01*
X779498D01*
X781164Y237831D01*
Y236164D01*
X779498Y234498D01*
X777832D01*
X779498D01*
X781164Y232832D01*
Y231166D01*
X779498Y229500D01*
X776166D01*
X774500Y231166D01*
X784497Y236164D02*
X787829Y229500D01*
X791161Y236164D01*
X794494Y237831D02*
X796160Y239497D01*
X799492D01*
X801158Y237831D01*
Y236164D01*
X799492Y234498D01*
X797826D01*
X799492D01*
X801158Y232832D01*
Y231166D01*
X799492Y229500D01*
X796160D01*
X794494Y231166D01*
X557000Y366997D02*
Y357000D01*
X561998D01*
X563665Y358666D01*
Y365331D01*
X561998Y366997D01*
X557000D01*
X566997D02*
Y360332D01*
X570329Y357000D01*
X573661Y360332D01*
Y366997D01*
X576994D02*
Y357000D01*
X581992D01*
X583658Y358666D01*
Y365331D01*
X581992Y366997D01*
X576994D01*
X586990D02*
Y357000D01*
X591989D01*
X593655Y358666D01*
Y365331D01*
X591989Y366997D01*
X586990D01*
X557000Y392000D02*
Y398665D01*
X560332Y401997D01*
X563665Y398665D01*
Y392000D01*
Y396998D01*
X557000D01*
X566997Y401997D02*
Y395332D01*
X570329Y392000D01*
X573661Y395332D01*
Y401997D01*
X576994D02*
Y392000D01*
X581992D01*
X583658Y393666D01*
Y400331D01*
X581992Y401997D01*
X576994D01*
X586990D02*
Y392000D01*
X591989D01*
X593655Y393666D01*
Y400331D01*
X591989Y401997D01*
X586990D01*
X557000Y419500D02*
Y426165D01*
X560332Y429497D01*
X563665Y426165D01*
Y419500D01*
Y424498D01*
X557000D01*
X566997Y429497D02*
Y422832D01*
X570329Y419500D01*
X573661Y422832D01*
Y429497D01*
X583658Y427831D02*
X581992Y429497D01*
X578660D01*
X576994Y427831D01*
Y426165D01*
X578660Y424498D01*
X581992D01*
X583658Y422832D01*
Y421166D01*
X581992Y419500D01*
X578660D01*
X576994Y421166D01*
X593655Y427831D02*
X591989Y429497D01*
X588657D01*
X586990Y427831D01*
Y426165D01*
X588657Y424498D01*
X591989D01*
X593655Y422832D01*
Y421166D01*
X591989Y419500D01*
X588657D01*
X586990Y421166D01*
X774500Y266997D02*
Y260332D01*
X777832Y257000D01*
X781164Y260332D01*
Y266997D01*
X784497D02*
X787829D01*
X786163D01*
Y257000D01*
X784497D01*
X787829D01*
X792827D02*
Y266997D01*
X799492Y257000D01*
Y266997D01*
X84500Y469497D02*
Y459500D01*
X89498D01*
X91165Y461166D01*
Y462832D01*
X89498Y464498D01*
X84500D01*
X89498D01*
X91165Y466165D01*
Y467831D01*
X89498Y469497D01*
X84500D01*
X94497D02*
X97829D01*
X96163D01*
Y459500D01*
X94497D01*
X97829D01*
X102827D02*
Y466165D01*
X106160Y469497D01*
X109492Y466165D01*
Y459500D01*
Y464498D01*
X102827D01*
X119489Y467831D02*
X117823Y469497D01*
X114490D01*
X112824Y467831D01*
Y466165D01*
X114490Y464498D01*
X117823D01*
X119489Y462832D01*
Y461166D01*
X117823Y459500D01*
X114490D01*
X112824Y461166D01*
X139482Y467831D02*
X137816Y469497D01*
X134484D01*
X132818Y467831D01*
Y461166D01*
X134484Y459500D01*
X137816D01*
X139482Y461166D01*
Y464498D01*
X136150D01*
X142815Y459500D02*
Y469497D01*
X149479Y459500D01*
Y469497D01*
X152811D02*
Y459500D01*
X157810D01*
X159476Y461166D01*
Y467831D01*
X157810Y469497D01*
X152811D01*
X84500Y34500D02*
Y44497D01*
X89498D01*
X91165Y42831D01*
Y39498D01*
X89498Y37832D01*
X84500D01*
X87832D02*
X91165Y34500D01*
X101161Y44497D02*
X94497D01*
Y34500D01*
X101161D01*
X94497Y39498D02*
X97829D01*
X111158Y44497D02*
X104494D01*
Y39498D01*
X107826D01*
X104494D01*
Y34500D01*
X131152Y42831D02*
X129486Y44497D01*
X126153D01*
X124487Y42831D01*
Y41164D01*
X126153Y39498D01*
X129486D01*
X131152Y37832D01*
Y36166D01*
X129486Y34500D01*
X126153D01*
X124487Y36166D01*
X134484Y34500D02*
Y44497D01*
X139482D01*
X141148Y42831D01*
Y39498D01*
X139482Y37832D01*
X134484D01*
X137816D02*
X141148Y34500D01*
X144481Y44497D02*
Y34500D01*
X149479D01*
X151145Y36166D01*
Y37832D01*
X149479Y39498D01*
X144481D01*
X149479D01*
X151145Y41164D01*
Y42831D01*
X149479Y44497D01*
X144481D01*
X161142Y34500D02*
X154477D01*
X161142Y41164D01*
Y42831D01*
X159476Y44497D01*
X156144D01*
X154477Y42831D01*
X32000Y392831D02*
X33666Y394497D01*
X36998D01*
X38665Y392831D01*
Y391165D01*
X36998Y389498D01*
X38665Y387832D01*
Y386166D01*
X36998Y384500D01*
X33666D01*
X32000Y386166D01*
Y387832D01*
X33666Y389498D01*
X32000Y391165D01*
Y392831D01*
X33666Y389498D02*
X36998D01*
X41997D02*
X48661D01*
X45329Y392831D02*
Y386166D01*
X61990Y392831D02*
X63657Y394497D01*
X66989D01*
X68655Y392831D01*
Y391165D01*
X66989Y389498D01*
X68655Y387832D01*
Y386166D01*
X66989Y384500D01*
X63657D01*
X61990Y386166D01*
Y387832D01*
X63657Y389498D01*
X61990Y391165D01*
Y392831D01*
X63657Y389498D02*
X66989D01*
X71987D02*
X78652D01*
X32000Y354497D02*
X38665D01*
Y352831D01*
X32000Y346166D01*
Y344500D01*
X41997Y349498D02*
X48661D01*
X45329Y352831D02*
Y346166D01*
X61990Y354497D02*
X68655D01*
Y352831D01*
X61990Y346166D01*
Y344500D01*
X71987Y349498D02*
X78652D01*
X38665Y314497D02*
X35332Y312831D01*
X32000Y309498D01*
Y306166D01*
X33666Y304500D01*
X36998D01*
X38665Y306166D01*
Y307832D01*
X36998Y309498D01*
X32000D01*
X41997D02*
X48661D01*
X45329Y312831D02*
Y306166D01*
X68655Y314497D02*
X65323Y312831D01*
X61990Y309498D01*
Y306166D01*
X63657Y304500D01*
X66989D01*
X68655Y306166D01*
Y307832D01*
X66989Y309498D01*
X61990D01*
X71987D02*
X78652D01*
X38665Y274497D02*
X32000D01*
Y269498D01*
X35332Y271164D01*
X36998D01*
X38665Y269498D01*
Y266166D01*
X36998Y264500D01*
X33666D01*
X32000Y266166D01*
X41997Y269498D02*
X48661D01*
X45329Y272831D02*
Y266166D01*
X68655Y274497D02*
X61990D01*
Y269498D01*
X65323Y271164D01*
X66989D01*
X68655Y269498D01*
Y266166D01*
X66989Y264500D01*
X63657D01*
X61990Y266166D01*
X71987Y269498D02*
X78652D01*
X36998Y224500D02*
Y234497D01*
X32000Y229498D01*
X38665D01*
X41997D02*
X48661D01*
X45329Y232831D02*
Y226166D01*
X66989Y224500D02*
Y234497D01*
X61990Y229498D01*
X68655D01*
X71987D02*
X78652D01*
X32000Y192831D02*
X33666Y194497D01*
X36998D01*
X38665Y192831D01*
Y191164D01*
X36998Y189498D01*
X35332D01*
X36998D01*
X38665Y187832D01*
Y186166D01*
X36998Y184500D01*
X33666D01*
X32000Y186166D01*
X41997Y189498D02*
X48661D01*
X45329Y192831D02*
Y186166D01*
X61990Y192831D02*
X63657Y194497D01*
X66989D01*
X68655Y192831D01*
Y191164D01*
X66989Y189498D01*
X65323D01*
X66989D01*
X68655Y187832D01*
Y186166D01*
X66989Y184500D01*
X63657D01*
X61990Y186166D01*
X71987Y189498D02*
X78652D01*
X38665Y144500D02*
X32000D01*
X38665Y151165D01*
Y152831D01*
X36998Y154497D01*
X33666D01*
X32000Y152831D01*
X41997Y149498D02*
X48661D01*
X45329Y152831D02*
Y146166D01*
X68655Y144500D02*
X61990D01*
X68655Y151165D01*
Y152831D01*
X66989Y154497D01*
X63657D01*
X61990Y152831D01*
X71987Y149498D02*
X78652D01*
X32000Y104500D02*
X35332D01*
X33666D01*
Y114497D01*
X32000Y112831D01*
X40331Y109498D02*
X46995D01*
X43663Y112831D02*
Y106166D01*
X60324Y104500D02*
X63656D01*
X61990D01*
Y114497D01*
X60324Y112831D01*
X68655Y109498D02*
X75319D01*
X584212Y213133D02*
Y204802D01*
X585878Y203136D01*
X589210D01*
X590877Y204802D01*
Y213133D01*
X600873D02*
X594209D01*
Y208134D01*
X597541Y209800D01*
X599207D01*
X600873Y208134D01*
Y204802D01*
X599207Y203136D01*
X595875D01*
X594209Y204802D01*
X174169Y92498D02*
Y82502D01*
X179168D01*
X180834Y84168D01*
Y90832D01*
X179168Y92498D01*
X174169D01*
X190831D02*
X184166D01*
Y87500D01*
X187498Y89166D01*
X189165D01*
X190831Y87500D01*
Y84168D01*
X189165Y82502D01*
X185832D01*
X184166Y84168D01*
X174169Y179998D02*
Y170002D01*
X179168D01*
X180834Y171668D01*
Y178332D01*
X179168Y179998D01*
X174169D01*
X189165Y170002D02*
Y179998D01*
X184166Y175000D01*
X190831D01*
X174169Y279998D02*
Y270002D01*
X179168D01*
X180834Y271668D01*
Y278332D01*
X179168Y279998D01*
X174169D01*
X184166Y278332D02*
X185832Y279998D01*
X189165D01*
X190831Y278332D01*
Y276666D01*
X189165Y275000D01*
X187498D01*
X189165D01*
X190831Y273334D01*
Y271668D01*
X189165Y270002D01*
X185832D01*
X184166Y271668D01*
X174169Y379998D02*
Y370002D01*
X179168D01*
X180834Y371668D01*
Y378332D01*
X179168Y379998D01*
X174169D01*
X190831Y370002D02*
X184166D01*
X190831Y376666D01*
Y378332D01*
X189165Y379998D01*
X185832D01*
X184166Y378332D01*
X175835Y467498D02*
Y457502D01*
X180834D01*
X182500Y459168D01*
Y465832D01*
X180834Y467498D01*
X175835D01*
X185832Y457502D02*
X189165D01*
X187498D01*
Y467498D01*
X185832Y465832D01*
X324169Y312498D02*
Y304168D01*
X325835Y302502D01*
X329168D01*
X330834Y304168D01*
Y312498D01*
X339165Y302502D02*
Y312498D01*
X334166Y307500D01*
X340831D01*
X831669Y421498D02*
Y413168D01*
X833335Y411502D01*
X836668D01*
X838334Y413168D01*
Y421498D01*
X841666Y419832D02*
X843332Y421498D01*
X846665D01*
X848331Y419832D01*
Y418166D01*
X846665Y416500D01*
X844998D01*
X846665D01*
X848331Y414834D01*
Y413168D01*
X846665Y411502D01*
X843332D01*
X841666Y413168D01*
X829669Y327998D02*
Y319668D01*
X831336Y318002D01*
X834668D01*
X836334Y319668D01*
Y327998D01*
X846331Y318002D02*
X839666D01*
X846331Y324666D01*
Y326332D01*
X844665Y327998D01*
X841332D01*
X839666Y326332D01*
X650835Y417498D02*
Y409168D01*
X652502Y407502D01*
X655834D01*
X657500Y409168D01*
Y417498D01*
X660832Y407502D02*
X664165D01*
X662498D01*
Y417498D01*
X660832Y415832D01*
X495835Y145832D02*
X494169Y147498D01*
X490837D01*
X489171Y145832D01*
Y144166D01*
X490837Y142500D01*
X494169D01*
X495835Y140834D01*
Y139168D01*
X494169Y137502D01*
X490837D01*
X489171Y139168D01*
X499168Y147498D02*
Y137502D01*
X502500Y140834D01*
X505832Y137502D01*
Y147498D01*
X509165Y145832D02*
X510831Y147498D01*
X514163D01*
X515829Y145832D01*
Y144166D01*
X514163Y142500D01*
X512497D01*
X514163D01*
X515829Y140834D01*
Y139168D01*
X514163Y137502D01*
X510831D01*
X509165Y139168D01*
X820835Y148332D02*
X819169Y149998D01*
X815837D01*
X814171Y148332D01*
Y146666D01*
X815837Y145000D01*
X819169D01*
X820835Y143334D01*
Y141668D01*
X819169Y140002D01*
X815837D01*
X814171Y141668D01*
X824168Y149998D02*
Y140002D01*
X827500Y143334D01*
X830832Y140002D01*
Y149998D01*
X840829Y140002D02*
X834165D01*
X840829Y146666D01*
Y148332D01*
X839163Y149998D01*
X835831D01*
X834165Y148332D01*
X927502Y345832D02*
X925835Y347498D01*
X922503D01*
X920837Y345832D01*
Y344166D01*
X922503Y342500D01*
X925835D01*
X927502Y340834D01*
Y339168D01*
X925835Y337502D01*
X922503D01*
X920837Y339168D01*
X930834Y347498D02*
Y337502D01*
X934166Y340834D01*
X937498Y337502D01*
Y347498D01*
X940831Y337502D02*
X944163D01*
X942497D01*
Y347498D01*
X940831Y345832D01*
X488337Y190002D02*
Y199998D01*
X493335D01*
X495002Y198332D01*
Y195000D01*
X493335Y193334D01*
X488337D01*
X491669D02*
X495002Y190002D01*
X498334Y198332D02*
X500000Y199998D01*
X503332D01*
X504998Y198332D01*
Y196666D01*
X503332Y195000D01*
X501666D01*
X503332D01*
X504998Y193334D01*
Y191668D01*
X503332Y190002D01*
X500000D01*
X498334Y191668D01*
X508331Y190002D02*
X511663D01*
X509997D01*
Y199998D01*
X508331Y198332D01*
X474171Y265002D02*
Y274998D01*
X479169D01*
X480835Y273332D01*
Y270000D01*
X479169Y268334D01*
X474171D01*
X477503D02*
X480835Y265002D01*
X484168Y273332D02*
X485834Y274998D01*
X489166D01*
X490832Y273332D01*
Y271666D01*
X489166Y270000D01*
X487500D01*
X489166D01*
X490832Y268334D01*
Y266668D01*
X489166Y265002D01*
X485834D01*
X484168Y266668D01*
X494165Y273332D02*
X495831Y274998D01*
X499163D01*
X500829Y273332D01*
Y266668D01*
X499163Y265002D01*
X495831D01*
X494165Y266668D01*
Y273332D01*
X457498Y389171D02*
X447502D01*
Y394169D01*
X449168Y395835D01*
X452500D01*
X454166Y394169D01*
Y389171D01*
Y392503D02*
X457498Y395835D01*
Y405832D02*
Y399168D01*
X450834Y405832D01*
X449168D01*
X447502Y404166D01*
Y400834D01*
X449168Y399168D01*
X455832Y409165D02*
X457498Y410831D01*
Y414163D01*
X455832Y415829D01*
X449168D01*
X447502Y414163D01*
Y410831D01*
X449168Y409165D01*
X450834D01*
X452500Y410831D01*
Y415829D01*
X524171Y300002D02*
Y309998D01*
X529169D01*
X530835Y308332D01*
Y305000D01*
X529169Y303334D01*
X524171D01*
X527503D02*
X530835Y300002D01*
X540832D02*
X534168D01*
X540832Y306666D01*
Y308332D01*
X539166Y309998D01*
X535834D01*
X534168Y308332D01*
X544165D02*
X545831Y309998D01*
X549163D01*
X550829Y308332D01*
Y306666D01*
X549163Y305000D01*
X550829Y303334D01*
Y301668D01*
X549163Y300002D01*
X545831D01*
X544165Y301668D01*
Y303334D01*
X545831Y305000D01*
X544165Y306666D01*
Y308332D01*
X545831Y305000D02*
X549163D01*
X274171Y32502D02*
Y42498D01*
X279169D01*
X280835Y40832D01*
Y37500D01*
X279169Y35834D01*
X274171D01*
X277503D02*
X280835Y32502D01*
X290832D02*
X284168D01*
X290832Y39166D01*
Y40832D01*
X289166Y42498D01*
X285834D01*
X284168Y40832D01*
X294165Y42498D02*
X300829D01*
Y40832D01*
X294165Y34168D01*
Y32502D01*
X275004Y457502D02*
Y467498D01*
X280002D01*
X281669Y465832D01*
Y462500D01*
X280002Y460834D01*
X275004D01*
X278336D02*
X281669Y457502D01*
X285001D02*
X288333D01*
X286667D01*
Y467498D01*
X285001Y465832D01*
X293332D02*
X294998Y467498D01*
X298330D01*
X299996Y465832D01*
Y459168D01*
X298330Y457502D01*
X294998D01*
X293332Y459168D01*
Y465832D01*
X274171Y82502D02*
Y92498D01*
X279169D01*
X280835Y90832D01*
Y87500D01*
X279169Y85834D01*
X274171D01*
X277503D02*
X280835Y82502D01*
X290832D02*
X284168D01*
X290832Y89166D01*
Y90832D01*
X289166Y92498D01*
X285834D01*
X284168Y90832D01*
X300829Y92498D02*
X294165D01*
Y87500D01*
X297497Y89166D01*
X299163D01*
X300829Y87500D01*
Y84168D01*
X299163Y82502D01*
X295831D01*
X294165Y84168D01*
X274171Y107502D02*
Y117498D01*
X279169D01*
X280835Y115832D01*
Y112500D01*
X279169Y110834D01*
X274171D01*
X277503D02*
X280835Y107502D01*
X290832D02*
X284168D01*
X290832Y114166D01*
Y115832D01*
X289166Y117498D01*
X285834D01*
X284168Y115832D01*
X299163Y107502D02*
Y117498D01*
X294165Y112500D01*
X300829D01*
X274171Y132502D02*
Y142498D01*
X279169D01*
X280835Y140832D01*
Y137500D01*
X279169Y135834D01*
X274171D01*
X277503D02*
X280835Y132502D01*
X290832D02*
X284168D01*
X290832Y139166D01*
Y140832D01*
X289166Y142498D01*
X285834D01*
X284168Y140832D01*
X294165D02*
X295831Y142498D01*
X299163D01*
X300829Y140832D01*
Y139166D01*
X299163Y137500D01*
X297497D01*
X299163D01*
X300829Y135834D01*
Y134168D01*
X299163Y132502D01*
X295831D01*
X294165Y134168D01*
X274171Y160002D02*
Y169998D01*
X279169D01*
X280835Y168332D01*
Y165000D01*
X279169Y163334D01*
X274171D01*
X277503D02*
X280835Y160002D01*
X290832D02*
X284168D01*
X290832Y166666D01*
Y168332D01*
X289166Y169998D01*
X285834D01*
X284168Y168332D01*
X300829Y160002D02*
X294165D01*
X300829Y166666D01*
Y168332D01*
X299163Y169998D01*
X295831D01*
X294165Y168332D01*
X275837Y182502D02*
Y192498D01*
X280835D01*
X282502Y190832D01*
Y187500D01*
X280835Y185834D01*
X275837D01*
X279169D02*
X282502Y182502D01*
X292498D02*
X285834D01*
X292498Y189166D01*
Y190832D01*
X290832Y192498D01*
X287500D01*
X285834Y190832D01*
X295831Y182502D02*
X299163D01*
X297497D01*
Y192498D01*
X295831Y190832D01*
X274171Y207502D02*
Y217498D01*
X279169D01*
X280835Y215832D01*
Y212500D01*
X279169Y210834D01*
X274171D01*
X277503D02*
X280835Y207502D01*
X290832D02*
X284168D01*
X290832Y214166D01*
Y215832D01*
X289166Y217498D01*
X285834D01*
X284168Y215832D01*
X294165D02*
X295831Y217498D01*
X299163D01*
X300829Y215832D01*
Y209168D01*
X299163Y207502D01*
X295831D01*
X294165Y209168D01*
Y215832D01*
X275004Y232502D02*
Y242498D01*
X280002D01*
X281669Y240832D01*
Y237500D01*
X280002Y235834D01*
X275004D01*
X278336D02*
X281669Y232502D01*
X285001D02*
X288333D01*
X286667D01*
Y242498D01*
X285001Y240832D01*
X293332Y234168D02*
X294998Y232502D01*
X298330D01*
X299996Y234168D01*
Y240832D01*
X298330Y242498D01*
X294998D01*
X293332Y240832D01*
Y239166D01*
X294998Y237500D01*
X299996D01*
X275004Y257502D02*
Y267498D01*
X280002D01*
X281669Y265832D01*
Y262500D01*
X280002Y260834D01*
X275004D01*
X278336D02*
X281669Y257502D01*
X285001D02*
X288333D01*
X286667D01*
Y267498D01*
X285001Y265832D01*
X293332D02*
X294998Y267498D01*
X298330D01*
X299996Y265832D01*
Y264166D01*
X298330Y262500D01*
X299996Y260834D01*
Y259168D01*
X298330Y257502D01*
X294998D01*
X293332Y259168D01*
Y260834D01*
X294998Y262500D01*
X293332Y264166D01*
Y265832D01*
X294998Y262500D02*
X298330D01*
X275004Y282502D02*
Y292498D01*
X280002D01*
X281669Y290832D01*
Y287500D01*
X280002Y285834D01*
X275004D01*
X278336D02*
X281669Y282502D01*
X285001D02*
X288333D01*
X286667D01*
Y292498D01*
X285001Y290832D01*
X293332Y292498D02*
X299996D01*
Y290832D01*
X293332Y284168D01*
Y282502D01*
X275004Y307502D02*
Y317498D01*
X280002D01*
X281669Y315832D01*
Y312500D01*
X280002Y310834D01*
X275004D01*
X278336D02*
X281669Y307502D01*
X285001D02*
X288333D01*
X286667D01*
Y317498D01*
X285001Y315832D01*
X299996Y317498D02*
X296664Y315832D01*
X293332Y312500D01*
Y309168D01*
X294998Y307502D01*
X298330D01*
X299996Y309168D01*
Y310834D01*
X298330Y312500D01*
X293332D01*
X275004Y332502D02*
Y342498D01*
X280002D01*
X281669Y340832D01*
Y337500D01*
X280002Y335834D01*
X275004D01*
X278336D02*
X281669Y332502D01*
X285001D02*
X288333D01*
X286667D01*
Y342498D01*
X285001Y340832D01*
X299996Y342498D02*
X293332D01*
Y337500D01*
X296664Y339166D01*
X298330D01*
X299996Y337500D01*
Y334168D01*
X298330Y332502D01*
X294998D01*
X293332Y334168D01*
X275004Y357502D02*
Y367498D01*
X280002D01*
X281669Y365832D01*
Y362500D01*
X280002Y360834D01*
X275004D01*
X278336D02*
X281669Y357502D01*
X285001D02*
X288333D01*
X286667D01*
Y367498D01*
X285001Y365832D01*
X298330Y357502D02*
Y367498D01*
X293332Y362500D01*
X299996D01*
X275004Y382502D02*
Y392498D01*
X280002D01*
X281669Y390832D01*
Y387500D01*
X280002Y385834D01*
X275004D01*
X278336D02*
X281669Y382502D01*
X285001D02*
X288333D01*
X286667D01*
Y392498D01*
X285001Y390832D01*
X293332D02*
X294998Y392498D01*
X298330D01*
X299996Y390832D01*
Y389166D01*
X298330Y387500D01*
X296664D01*
X298330D01*
X299996Y385834D01*
Y384168D01*
X298330Y382502D01*
X294998D01*
X293332Y384168D01*
X275004Y407502D02*
Y417498D01*
X280002D01*
X281669Y415832D01*
Y412500D01*
X280002Y410834D01*
X275004D01*
X278336D02*
X281669Y407502D01*
X285001D02*
X288333D01*
X286667D01*
Y417498D01*
X285001Y415832D01*
X299996Y407502D02*
X293332D01*
X299996Y414166D01*
Y415832D01*
X298330Y417498D01*
X294998D01*
X293332Y415832D01*
X276670Y432502D02*
Y442498D01*
X281669D01*
X283335Y440832D01*
Y437500D01*
X281669Y435834D01*
X276670D01*
X280002D02*
X283335Y432502D01*
X286667D02*
X289999D01*
X288333D01*
Y442498D01*
X286667Y440832D01*
X294998Y432502D02*
X298330D01*
X296664D01*
Y442498D01*
X294998Y440832D01*
X274171Y57502D02*
Y67498D01*
X279169D01*
X280835Y65832D01*
Y62500D01*
X279169Y60834D01*
X274171D01*
X277503D02*
X280835Y57502D01*
X290832D02*
X284168D01*
X290832Y64166D01*
Y65832D01*
X289166Y67498D01*
X285834D01*
X284168Y65832D01*
X300829Y67498D02*
X297497Y65832D01*
X294165Y62500D01*
Y59168D01*
X295831Y57502D01*
X299163D01*
X300829Y59168D01*
Y60834D01*
X299163Y62500D01*
X294165D01*
X324169Y325002D02*
Y334998D01*
X329168D01*
X330834Y333332D01*
Y330000D01*
X329168Y328334D01*
X324169D01*
X327502D02*
X330834Y325002D01*
X334166Y326668D02*
X335832Y325002D01*
X339165D01*
X340831Y326668D01*
Y333332D01*
X339165Y334998D01*
X335832D01*
X334166Y333332D01*
Y331666D01*
X335832Y330000D01*
X340831D01*
X529602Y168846D02*
Y178843D01*
X534600D01*
X536267Y177177D01*
Y173844D01*
X534600Y172178D01*
X529602D01*
X532934D02*
X536267Y168846D01*
X539599Y177177D02*
X541265Y178843D01*
X544597D01*
X546263Y177177D01*
Y175511D01*
X544597Y173844D01*
X546263Y172178D01*
Y170512D01*
X544597Y168846D01*
X541265D01*
X539599Y170512D01*
Y172178D01*
X541265Y173844D01*
X539599Y175511D01*
Y177177D01*
X541265Y173844D02*
X544597D01*
X867669Y62502D02*
Y72498D01*
X872668D01*
X874334Y70832D01*
Y67500D01*
X872668Y65834D01*
X867669D01*
X871002D02*
X874334Y62502D01*
X877666Y72498D02*
X884331D01*
Y70832D01*
X877666Y64168D01*
Y62502D01*
X879169Y167502D02*
Y177498D01*
X884168D01*
X885834Y175832D01*
Y172500D01*
X884168Y170834D01*
X879169D01*
X882502D02*
X885834Y167502D01*
X895831Y177498D02*
X892498Y175832D01*
X889166Y172500D01*
Y169168D01*
X890832Y167502D01*
X894165D01*
X895831Y169168D01*
Y170834D01*
X894165Y172500D01*
X889166D01*
X879169Y100002D02*
Y109998D01*
X884168D01*
X885834Y108332D01*
Y105000D01*
X884168Y103334D01*
X879169D01*
X882502D02*
X885834Y100002D01*
X895831Y109998D02*
X889166D01*
Y105000D01*
X892498Y106666D01*
X894165D01*
X895831Y105000D01*
Y101668D01*
X894165Y100002D01*
X890832D01*
X889166Y101668D01*
X619169Y428502D02*
Y438498D01*
X624168D01*
X625834Y436832D01*
Y433500D01*
X624168Y431834D01*
X619169D01*
X622502D02*
X625834Y428502D01*
X634165D02*
Y438498D01*
X629166Y433500D01*
X635831D01*
X619169Y448502D02*
Y458498D01*
X624168D01*
X625834Y456832D01*
Y453500D01*
X624168Y451834D01*
X619169D01*
X622502D02*
X625834Y448502D01*
X629166Y456832D02*
X630832Y458498D01*
X634165D01*
X635831Y456832D01*
Y455166D01*
X634165Y453500D01*
X632498D01*
X634165D01*
X635831Y451834D01*
Y450168D01*
X634165Y448502D01*
X630832D01*
X629166Y450168D01*
X712669Y345502D02*
Y355498D01*
X717668D01*
X719334Y353832D01*
Y350500D01*
X717668Y348834D01*
X712669D01*
X716002D02*
X719334Y345502D01*
X729331D02*
X722666D01*
X729331Y352166D01*
Y353832D01*
X727665Y355498D01*
X724332D01*
X722666Y353832D01*
X714836Y324502D02*
Y334498D01*
X719834D01*
X721500Y332832D01*
Y329500D01*
X719834Y327834D01*
X714836D01*
X718168D02*
X721500Y324502D01*
X724832D02*
X728165D01*
X726498D01*
Y334498D01*
X724832Y332832D01*
X923334Y197498D02*
X920002D01*
X921668D01*
Y189168D01*
X920002Y187502D01*
X918335D01*
X916669Y189168D01*
X933331Y187502D02*
X926666D01*
X933331Y194166D01*
Y195832D01*
X931665Y197498D01*
X928332D01*
X926666Y195832D01*
X975000Y387498D02*
X971668D01*
X973334D01*
Y379168D01*
X971668Y377502D01*
X970002D01*
X968335Y379168D01*
X978332Y377502D02*
X981665D01*
X979998D01*
Y387498D01*
X978332Y385832D01*
X471668Y335835D02*
X470002Y334169D01*
Y330837D01*
X471668Y329171D01*
X478332D01*
X479998Y330837D01*
Y334169D01*
X478332Y335835D01*
X479998Y344166D02*
X470002D01*
X475000Y339168D01*
Y345832D01*
X470002Y349165D02*
Y355829D01*
X471668D01*
X478332Y349165D01*
X479998D01*
X489168Y335835D02*
X487502Y334169D01*
Y330837D01*
X489168Y329171D01*
X495832D01*
X497498Y330837D01*
Y334169D01*
X495832Y335835D01*
X497498Y344166D02*
X487502D01*
X492500Y339168D01*
Y345832D01*
X487502Y355829D02*
X489168Y352497D01*
X492500Y349165D01*
X495832D01*
X497498Y350831D01*
Y354163D01*
X495832Y355829D01*
X494166D01*
X492500Y354163D01*
Y349165D01*
X353335Y333332D02*
X351669Y334998D01*
X348337D01*
X346671Y333332D01*
Y326668D01*
X348337Y325002D01*
X351669D01*
X353335Y326668D01*
X361666Y325002D02*
Y334998D01*
X356668Y330000D01*
X363332D01*
X373329Y334998D02*
X366665D01*
Y330000D01*
X369997Y331666D01*
X371663D01*
X373329Y330000D01*
Y326668D01*
X371663Y325002D01*
X368331D01*
X366665Y326668D01*
X356668Y395835D02*
X355002Y394169D01*
Y390837D01*
X356668Y389171D01*
X363332D01*
X364998Y390837D01*
Y394169D01*
X363332Y395835D01*
X364998Y404166D02*
X355002D01*
X360000Y399168D01*
Y405832D01*
X364998Y414163D02*
X355002D01*
X360000Y409165D01*
Y415829D01*
X355835Y78332D02*
X354169Y79998D01*
X350837D01*
X349171Y78332D01*
Y71668D01*
X350837Y70002D01*
X354169D01*
X355835Y71668D01*
X364166Y70002D02*
Y79998D01*
X359168Y75000D01*
X365832D01*
X369165Y78332D02*
X370831Y79998D01*
X374163D01*
X375829Y78332D01*
Y76666D01*
X374163Y75000D01*
X372497D01*
X374163D01*
X375829Y73334D01*
Y71668D01*
X374163Y70002D01*
X370831D01*
X369165Y71668D01*
X355835Y93332D02*
X354169Y94998D01*
X350837D01*
X349171Y93332D01*
Y86668D01*
X350837Y85002D01*
X354169D01*
X355835Y86668D01*
X364166Y85002D02*
Y94998D01*
X359168Y90000D01*
X365832D01*
X375829Y85002D02*
X369165D01*
X375829Y91666D01*
Y93332D01*
X374163Y94998D01*
X370831D01*
X369165Y93332D01*
X325002D02*
X323335Y94998D01*
X320003D01*
X318337Y93332D01*
Y86668D01*
X320003Y85002D01*
X323335D01*
X325002Y86668D01*
X333332Y85002D02*
Y94998D01*
X328334Y90000D01*
X334998D01*
X338331Y85002D02*
X341663D01*
X339997D01*
Y94998D01*
X338331Y93332D01*
X323335Y78332D02*
X321669Y79998D01*
X318337D01*
X316671Y78332D01*
Y71668D01*
X318337Y70002D01*
X321669D01*
X323335Y71668D01*
X331666Y70002D02*
Y79998D01*
X326668Y75000D01*
X333332D01*
X336665Y78332D02*
X338331Y79998D01*
X341663D01*
X343329Y78332D01*
Y71668D01*
X341663Y70002D01*
X338331D01*
X336665Y71668D01*
Y78332D01*
X421668Y395835D02*
X420002Y394169D01*
Y390837D01*
X421668Y389171D01*
X428332D01*
X429998Y390837D01*
Y394169D01*
X428332Y395835D01*
X421668Y399168D02*
X420002Y400834D01*
Y404166D01*
X421668Y405832D01*
X423334D01*
X425000Y404166D01*
Y402500D01*
Y404166D01*
X426666Y405832D01*
X428332D01*
X429998Y404166D01*
Y400834D01*
X428332Y399168D01*
Y409165D02*
X429998Y410831D01*
Y414163D01*
X428332Y415829D01*
X421668D01*
X420002Y414163D01*
Y410831D01*
X421668Y409165D01*
X423334D01*
X425000Y410831D01*
Y415829D01*
X419168Y75835D02*
X417502Y74169D01*
Y70837D01*
X419168Y69171D01*
X425832D01*
X427498Y70837D01*
Y74169D01*
X425832Y75835D01*
X419168Y79168D02*
X417502Y80834D01*
Y84166D01*
X419168Y85832D01*
X420834D01*
X422500Y84166D01*
Y82500D01*
Y84166D01*
X424166Y85832D01*
X425832D01*
X427498Y84166D01*
Y80834D01*
X425832Y79168D01*
X419168Y89164D02*
X417502Y90831D01*
Y94163D01*
X419168Y95829D01*
X420834D01*
X422500Y94163D01*
X424166Y95829D01*
X425832D01*
X427498Y94163D01*
Y90831D01*
X425832Y89164D01*
X424166D01*
X422500Y90831D01*
X420834Y89164D01*
X419168D01*
X422500Y90831D02*
Y94163D01*
X399168Y395835D02*
X397502Y394169D01*
Y390837D01*
X399168Y389171D01*
X405832D01*
X407498Y390837D01*
Y394169D01*
X405832Y395835D01*
X399168Y399168D02*
X397502Y400834D01*
Y404166D01*
X399168Y405832D01*
X400834D01*
X402500Y404166D01*
Y402500D01*
Y404166D01*
X404166Y405832D01*
X405832D01*
X407498Y404166D01*
Y400834D01*
X405832Y399168D01*
X397502Y409165D02*
Y415829D01*
X399168D01*
X405832Y409165D01*
X407498D01*
X381668Y395835D02*
X380002Y394169D01*
Y390837D01*
X381668Y389171D01*
X388332D01*
X389998Y390837D01*
Y394169D01*
X388332Y395835D01*
X381668Y399168D02*
X380002Y400834D01*
Y404166D01*
X381668Y405832D01*
X383334D01*
X385000Y404166D01*
Y402500D01*
Y404166D01*
X386666Y405832D01*
X388332D01*
X389998Y404166D01*
Y400834D01*
X388332Y399168D01*
X380002Y415829D02*
X381668Y412497D01*
X385000Y409165D01*
X388332D01*
X389998Y410831D01*
Y414163D01*
X388332Y415829D01*
X386666D01*
X385000Y414163D01*
Y409165D01*
X469168Y75835D02*
X467502Y74169D01*
Y70837D01*
X469168Y69171D01*
X475832D01*
X477498Y70837D01*
Y74169D01*
X475832Y75835D01*
X469168Y79168D02*
X467502Y80834D01*
Y84166D01*
X469168Y85832D01*
X470834D01*
X472500Y84166D01*
Y82500D01*
Y84166D01*
X474166Y85832D01*
X475832D01*
X477498Y84166D01*
Y80834D01*
X475832Y79168D01*
X467502Y95829D02*
Y89164D01*
X472500D01*
X470834Y92497D01*
Y94163D01*
X472500Y95829D01*
X475832D01*
X477498Y94163D01*
Y90831D01*
X475832Y89164D01*
X444168Y75835D02*
X442502Y74169D01*
Y70837D01*
X444168Y69171D01*
X450832D01*
X452498Y70837D01*
Y74169D01*
X450832Y75835D01*
X444168Y79168D02*
X442502Y80834D01*
Y84166D01*
X444168Y85832D01*
X445834D01*
X447500Y84166D01*
Y82500D01*
Y84166D01*
X449166Y85832D01*
X450832D01*
X452498Y84166D01*
Y80834D01*
X450832Y79168D01*
X452498Y94163D02*
X442502D01*
X447500Y89164D01*
Y95829D01*
X388335Y78332D02*
X386669Y79998D01*
X383337D01*
X381671Y78332D01*
Y71668D01*
X383337Y70002D01*
X386669D01*
X388335Y71668D01*
X391668Y78332D02*
X393334Y79998D01*
X396666D01*
X398332Y78332D01*
Y76666D01*
X396666Y75000D01*
X395000D01*
X396666D01*
X398332Y73334D01*
Y71668D01*
X396666Y70002D01*
X393334D01*
X391668Y71668D01*
X401665Y78332D02*
X403331Y79998D01*
X406663D01*
X408329Y78332D01*
Y76666D01*
X406663Y75000D01*
X404997D01*
X406663D01*
X408329Y73334D01*
Y71668D01*
X406663Y70002D01*
X403331D01*
X401665Y71668D01*
X388335Y93332D02*
X386669Y94998D01*
X383337D01*
X381671Y93332D01*
Y86668D01*
X383337Y85002D01*
X386669D01*
X388335Y86668D01*
X391668Y93332D02*
X393334Y94998D01*
X396666D01*
X398332Y93332D01*
Y91666D01*
X396666Y90000D01*
X395000D01*
X396666D01*
X398332Y88334D01*
Y86668D01*
X396666Y85002D01*
X393334D01*
X391668Y86668D01*
X408329Y85002D02*
X401665D01*
X408329Y91666D01*
Y93332D01*
X406663Y94998D01*
X403331D01*
X401665Y93332D01*
X326668Y396669D02*
X325002Y395002D01*
Y391670D01*
X326668Y390004D01*
X333332D01*
X334998Y391670D01*
Y395002D01*
X333332Y396669D01*
X334998Y400001D02*
Y403333D01*
Y401667D01*
X325002D01*
X326668Y400001D01*
X334998Y413330D02*
X325002D01*
X330000Y408331D01*
Y414996D01*
X789169Y45832D02*
X787502Y47498D01*
X784170D01*
X782504Y45832D01*
Y39168D01*
X784170Y37502D01*
X787502D01*
X789169Y39168D01*
X792501Y37502D02*
X795833D01*
X794167D01*
Y47498D01*
X792501Y45832D01*
X800832D02*
X802498Y47498D01*
X805830D01*
X807496Y45832D01*
Y44166D01*
X805830Y42500D01*
X804164D01*
X805830D01*
X807496Y40834D01*
Y39168D01*
X805830Y37502D01*
X802498D01*
X800832Y39168D01*
X846668Y18332D02*
X845002Y19998D01*
X841670D01*
X840004Y18332D01*
Y11668D01*
X841670Y10002D01*
X845002D01*
X846668Y11668D01*
X850001Y10002D02*
X853333D01*
X851667D01*
Y19998D01*
X850001Y18332D01*
X864996Y10002D02*
X858332D01*
X864996Y16666D01*
Y18332D01*
X863330Y19998D01*
X859998D01*
X858332Y18332D01*
X873335Y50832D02*
X871669Y52498D01*
X868336D01*
X866670Y50832D01*
Y44168D01*
X868336Y42502D01*
X871669D01*
X873335Y44168D01*
X876667Y42502D02*
X879999D01*
X878333D01*
Y52498D01*
X876667Y50832D01*
X884998Y42502D02*
X888330D01*
X886664D01*
Y52498D01*
X884998Y50832D01*
X870668Y419832D02*
X869002Y421498D01*
X865670D01*
X864004Y419832D01*
Y413168D01*
X865670Y411502D01*
X869002D01*
X870668Y413168D01*
X874001Y411502D02*
X877333D01*
X875667D01*
Y421498D01*
X874001Y419832D01*
X882331D02*
X883998Y421498D01*
X887330D01*
X888996Y419832D01*
Y413168D01*
X887330Y411502D01*
X883998D01*
X882331Y413168D01*
Y419832D01*
X805334D02*
X803668Y421498D01*
X800335D01*
X798669Y419832D01*
Y413168D01*
X800335Y411502D01*
X803668D01*
X805334Y413168D01*
X808666D02*
X810332Y411502D01*
X813664D01*
X815331Y413168D01*
Y419832D01*
X813664Y421498D01*
X810332D01*
X808666Y419832D01*
Y418166D01*
X810332Y416500D01*
X815331D01*
X803334Y326332D02*
X801668Y327998D01*
X798335D01*
X796669Y326332D01*
Y319668D01*
X798335Y318002D01*
X801668D01*
X803334Y319668D01*
X806666Y327998D02*
X813331D01*
Y326332D01*
X806666Y319668D01*
Y318002D01*
X875834Y326332D02*
X874168Y327998D01*
X870835D01*
X869169Y326332D01*
Y319668D01*
X870835Y318002D01*
X874168D01*
X875834Y319668D01*
X885831Y327998D02*
X882498Y326332D01*
X879166Y323000D01*
Y319668D01*
X880832Y318002D01*
X884165D01*
X885831Y319668D01*
Y321334D01*
X884165Y323000D01*
X879166D01*
X700834Y458332D02*
X699168Y459998D01*
X695835D01*
X694169Y458332D01*
Y451668D01*
X695835Y450002D01*
X699168D01*
X700834Y451668D01*
X710831Y459998D02*
X704166D01*
Y455000D01*
X707498Y456666D01*
X709165D01*
X710831Y455000D01*
Y451668D01*
X709165Y450002D01*
X705832D01*
X704166Y451668D01*
X626834Y349832D02*
X625168Y351498D01*
X621836D01*
X620169Y349832D01*
Y343168D01*
X621836Y341502D01*
X625168D01*
X626834Y343168D01*
X635164Y341502D02*
Y351498D01*
X630166Y346500D01*
X636831D01*
X750834Y441832D02*
X749168Y443498D01*
X745835D01*
X744169Y441832D01*
Y435168D01*
X745835Y433502D01*
X749168D01*
X750834Y435168D01*
X754166Y441832D02*
X755832Y443498D01*
X759165D01*
X760831Y441832D01*
Y440166D01*
X759165Y438500D01*
X757498D01*
X759165D01*
X760831Y436834D01*
Y435168D01*
X759165Y433502D01*
X755832D01*
X754166Y435168D01*
X745334Y353332D02*
X743668Y354998D01*
X740335D01*
X738669Y353332D01*
Y346668D01*
X740335Y345002D01*
X743668D01*
X745334Y346668D01*
X755331Y345002D02*
X748666D01*
X755331Y351666D01*
Y353332D01*
X753665Y354998D01*
X750332D01*
X748666Y353332D01*
X624500Y395832D02*
X622834Y397498D01*
X619502D01*
X617836Y395832D01*
Y389168D01*
X619502Y387502D01*
X622834D01*
X624500Y389168D01*
X627832Y387502D02*
X631165D01*
X629498D01*
Y397498D01*
X627832Y395832D01*
D64*
X362000Y286000D02*
G03*
X362000Y286000I-3000J0D01*
G01*
D65*
X590000Y188400D02*
X602450D01*
X590000Y181100D02*
Y188400D01*
X757550D02*
X770000D01*
Y181100D02*
Y188400D01*
Y-66600D02*
Y600D01*
X590000Y-66600D02*
Y600D01*
Y-66600D02*
X770000D01*
X176250Y425800D02*
X188750D01*
X176250Y449200D02*
X188750D01*
X176250Y238300D02*
X188750D01*
X176250Y261700D02*
X188750D01*
X176250Y50800D02*
X188750D01*
X176250Y74200D02*
X188750D01*
X176250Y361700D02*
X188750D01*
X176250Y338300D02*
X188750D01*
X176250Y161700D02*
X188750D01*
X176250Y138300D02*
X188750D01*
D66*
X900040Y357540D02*
X910197D01*
X900040Y405118D02*
X910197D01*
X905118Y410197D02*
Y400040D01*
X980040Y342540D02*
X990197D01*
X980040Y425118D02*
X990197D01*
X985118Y430197D02*
Y420040D01*
X849804Y202617D02*
Y187383D01*
X857422D01*
X859961Y189922D01*
Y200078D01*
X857422Y202617D01*
X849804D01*
X865039D02*
X875196D01*
Y200078D01*
X865039Y189922D01*
Y187383D01*
X882913Y254186D02*
X880374Y256725D01*
X875295D01*
X872756Y254186D01*
Y244029D01*
X875295Y241490D01*
X880374D01*
X882913Y244029D01*
X895609Y241490D02*
Y256725D01*
X887991Y249107D01*
X898148D01*
X903226Y254186D02*
X905765Y256725D01*
X910844D01*
X913383Y254186D01*
Y251647D01*
X910844Y249107D01*
X913383Y246568D01*
Y244029D01*
X910844Y241490D01*
X905765D01*
X903226Y244029D01*
Y246568D01*
X905765Y249107D01*
X903226Y251647D01*
Y254186D01*
X905765Y249107D02*
X910844D01*
%TF.MD5,97886ccb264e55b1274eafdad8586a8a*%
M02*
